<?xml version="1.0" encoding="UTF-8"?>
<svg xmlns="http://www.w3.org/2000/svg" xmlns:xlink="http://www.w3.org/1999/xlink" viewBox="0 0 1334 1000">
  <defs>
    <style>
      .cls-1 {
        fill: #622515;
      }

      .cls-2 {
        fill: #24170f;
      }

      .cls-3 {
        fill: #625422;
      }

      .cls-4 {
        fill: #271810;
      }

      .cls-5 {
        fill: #273339;
      }

      .cls-6 {
        fill: #132046;
      }

      .cls-7, .cls-8 {
        fill: #010101;
      }

      .cls-9 {
        fill: #653c29;
      }

      .cls-10 {
        fill: #ababab;
      }

      .cls-11 {
        fill: #f1edf6;
      }

      .cls-12 {
        fill: #4b6199;
      }

      .cls-13 {
        fill: #a66f53;
      }

      .cls-14 {
        fill: #f0e9d1;
      }

      .cls-15 {
        fill: #0a1928;
      }

      .cls-16 {
        fill: #100e0d;
      }

      .cls-17 {
        fill: #a66e53;
      }

      .cls-8 {
        stroke: #171413;
        stroke-miterlimit: 10;
        stroke-width: .13px;
      }

      .cls-18 {
        fill: url(#linear-gradient);
        opacity: .5;
      }

      .cls-19 {
        fill: #fff;
      }

      .cls-20 {
        fill: #646464;
      }

      .cls-21 {
        fill: #ccb631;
      }

      .cls-22 {
        fill: #4f2f26;
      }

      .cls-23 {
        fill: #3f535a;
      }

      .cls-24 {
        fill: #552d23;
      }

      .cls-25 {
        fill: #8e6528;
      }

      .cls-26 {
        fill: #a53b23;
      }

      .cls-27 {
        fill: #4f4f80;
      }

      .cls-28 {
        fill: #4f2e25;
      }

      .cls-29 {
        fill: #89772e;
      }
    </style>
    <linearGradient id="linear-gradient" x1="-1277.3" y1="3392.95" x2="-232.04" y2="3392.95" gradientTransform="translate(-2734.45 1013.41) rotate(90) scale(1 -1)" gradientUnits="userSpaceOnUse">
      <stop offset="0" stop-color="#eeeadf"/>
      <stop offset=".18" stop-color="#ece7dc" stop-opacity=".99"/>
      <stop offset=".33" stop-color="#e6e0d3" stop-opacity=".97"/>
      <stop offset=".47" stop-color="#dcd3c4" stop-opacity=".93"/>
      <stop offset=".6" stop-color="#cec1af" stop-opacity=".88"/>
      <stop offset=".72" stop-color="#bcaa94" stop-opacity=".82"/>
      <stop offset=".84" stop-color="#a68d72" stop-opacity=".73"/>
      <stop offset=".96" stop-color="#8d6c4c" stop-opacity=".64"/>
      <stop offset="1" stop-color="#83603d" stop-opacity=".6"/>
    </linearGradient>
  </defs>
  <g id="Layer_1" data-name="Layer 1">
    <polyline class="cls-14" points="1360.02 782.93 1360.02 -254.76 -47.01 -254.76 -47.01 782.93"/>
    <polyline class="cls-18" points="1362.02 777.92 -45.01 777.92 -45.02 -267.34 1362.02 -267.34"/>
  </g>
  <g id="Layer_4" data-name="Layer 4">
    <path class="cls-23" d="M822.93,1387.81c.83-20.58,1.62-41.17,2.25-61.76,1.45-47.37,50.06-94.73,50.06-142.11l-10.99-684.95-636.34-1.8c-137.78.02-160.71,49.03-164.17,213.26-12.47-9.59-137.71-7.87-174.73-7.87-54.39,5.33-79.95,73.93-84.61,168.47l-3.15,125.27-1.78.67c-29.99,18.03-46.95,44.17-47.02,84.21v104.5c.11,25.99,14.72,48.71,35.74,55.59v146.51H822.93Z"/>
    <path class="cls-23" d="M1518.21,997.97l-1.78-.67-3.15-125.27c-4.66-94.54-30.22-163.15-84.61-168.47-37.02,0-162.26-1.72-174.73,7.87-3.97-178.62,14.39-213.26-253.88-213.26l-295.72.71c-3.16,72.49-11.76,62.75-22.44,134.51-13.39,90.01,12.83,179.48-.88,269.44-6.89,45.21,52.63,90.75,46.79,136.11-5.95,46.21-11.96,92.41-17.81,138.63-8.89,70.29-17.42,140.69-24.74,211.2h844.23v-146.51c21.02-6.88,35.63-29.6,35.74-55.59v-104.5c-.06-40.04-17.03-66.18-47.02-84.21Z"/>
    <path class="cls-13" d="M1021.47,414.39s-14.76,41.51-12,69.58c.45,4.57,22.22,21.3,22.22,21.3l-113.94,35.05-33.02-51.98s32.45-14.63,34.87-19.48c2.41-4.84,8.02-43.66,8.02-43.66"/>
    <path class="cls-24" d="M920.34,463.27s20.74,4.55,26.8,4.43,16.47-.59,48.37-16.39c0,0-15.03,22.99-46.14,23.21,0,0-28.36-1.81-29.87-6.63l.85-4.62Z"/>
    <path class="cls-8" d="M894.85,307.32s0,0,0,0c-.96-10.67-.92-17.16,2.91-23.85,2.7-4.72,11.95-8.6,11.95-8.6,0,0,4.25-14.78,10.49-11.62,0,0,9.65-19.06,27.98-10.77,0,0,6.08-.58,8.73,3.7,0,0,11.78-15.84,26.35-1.15,0,0,7.04-3.2,8.35,2.37,0,0,12.8-9.07,22.29,1.49,0,0,28.67-1.15,32.58,18.01,0,0,14.59-4.89,19.41,9.51,0,0,6.88,1.71,5.3,11.74,0,0,9.9,4.87,9.8,11.61,0,0,5.19,5.91,3.11,16.33-.6,2.98-1.43,2.03-3.02,5.94,3.81,12.91-5.17,12.92-5.17,12.92,7.13,12.56-6.31,24.55-6.31,24.55,0,0,3.05,9.34-.27,14.46-4.53,6.98-19.83,12.98-19.83,12.98,0,0-.1-20.81,2.74-33.54,2.84-12.73-3.68-36.77-6.24-42.16-2.56-5.39-27.96-.56-64.72-6.45-36.76-5.89-43.06-13.9-47.63-13.39-9.49,1.07-22.45,33.25-23.81,43.41-1.35,10.15-7.37,28.74-7.37,28.74,0,0-18.15-11.79-10.21-27.91,0,0-4.48-13.28-.8-20.25,0,0,.78-3.02,2.9-4.27-.03-.04-5.44-8.63.49-13.79Z"/>
    <path class="cls-13" d="M1003.09,445.48c-17.21,14.61-33.27,23.27-54.68,24.63-21,1.33-41.56-9.63-43.98-13.04-13.3-18.72-16.92-31.53-20.08-51.74-.86-5.48-.23-11.19.93-16.96,1.74-8.65,5.72-25.14,6.75-33.5,2.63-21.28,7.66-40.2,21.83-56.41,29.53-33.78,87.46-24.95,107.57-11.71,23.51,15.47,31.48,41.37,29.43,67.45-.67,8.5-2.63,16.28-5.74,23.28-4.13,3.46-7.83,7.32-11.08,11.51"/>
    <g>
      <path class="cls-7" d="M913.57,300.64s-1.92,1.42-16.81,27.79c3.93-8.5,7.22-21.64,15.9-33.05,30.32-39.88,105.92-23.31,125.81-8.35,23.25,17.49,28.7,46.76,26.1,77.11-1.06,12.32-3.05,26.41-7.82,36.08-3.09,8.87-12.51,11.37-12.51,11.37,0,0-12.02-13.96-21.62-.08l-1.64-6.7s-7.12-15.92-.9-52.06c0,0,2.06-15.38,2.9-19.97,2.58-14.14-9.65-12.82-18.14-11.72-5.28.69-16.41,0-21.64-.85-13.37-2.19-30.02-6.75-36.31-7.57-8.84-1.16-33.31-12-33.31-12Z"/>
      <path class="cls-7" d="M913.42,300.61c-.13.09-.22.24-.32.36-.44.54-.83,1.12-1.22,1.69-2.58,3.8-4.91,7.78-7.24,11.74-2.73,4.65-5.41,9.33-8.06,14.02l.37-.02c2.41-5.24,4.2-10.76,6.44-16.08,2.65-6.29,5.83-12.39,10.08-17.76,5.78-7.31,13.44-12.89,21.93-16.66,8.68-3.86,18.08-5.91,27.51-6.78,9.53-.88,19.17-.56,28.66.64,8.7,1.1,17.32,2.92,25.68,5.57,6.41,2.03,12.84,4.5,18.56,8.08,3.92,2.45,7.45,5.61,10.58,9,4,4.32,7.33,9.22,9.96,14.48,5.32,10.66,7.72,22.56,8.4,34.39.37,6.36.24,12.75-.24,19.1-.52,6.87-1.3,13.74-2.6,20.5-.64,3.34-1.43,6.66-2.44,9.91-.93,2.96-2.14,5.78-3.38,8.62-1.85,4.25-5.54,7.43-9.72,9.29-.7.31-1.42.61-2.17.8l.21.02c-1.37-1.59-3.1-2.96-4.89-4.06-3.17-1.94-6.98-2.92-10.57-1.55-2.75,1.05-4.87,3.23-6.52,5.6l.37-.05c-.25-1.04-.51-2.07-.76-3.11-.29-1.17-.5-2.38-.86-3.53-.15-.48-.36-.94-.51-1.41-1.31-3.93-1.97-8.08-2.4-12.18-.91-8.62-.63-17.35.26-25.96.3-2.91.68-5.81,1.12-8.7.23-1.5.51-2.99.71-4.49.39-2.92.8-5.84,1.21-8.76.47-3.34.93-6.68,1.5-10s.96-6.95-1.18-9.71c-1.71-2.2-4.56-2.96-7.22-3.2-3.15-.28-6.34.1-9.47.5-4.22.55-8.54.36-12.78.11-4.47-.26-8.85-.82-13.25-1.64-9.68-1.81-19.19-4.37-28.85-6.27-2.75-.54-5.49-.9-8.19-1.67-3.52-1-6.97-2.24-10.4-3.52-5.75-2.16-11.43-4.5-17.06-6.95-.32-.14-.64-.28-.96-.42-.12-.05-.47.12-.31.19,4.21,1.86,8.46,3.63,12.74,5.33,3.54,1.41,7.1,2.77,10.71,4,2.95,1.01,5.96,2.01,9.03,2.55,1.35.24,2.72.42,4.07.68,1.95.38,3.88.81,5.82,1.25,4.94,1.11,9.87,2.28,14.83,3.35s9.68,2.12,14.57,2.72c4.45.55,8.95.82,13.43.84,1.95,0,3.9-.02,5.84-.24,1.55-.18,3.09-.4,4.65-.53,3.04-.26,6.36-.37,9.26.78s4.5,3.69,4.74,6.78c.15,1.89-.18,3.72-.49,5.57-.26,1.54-.49,3.08-.72,4.62-.53,3.58-1.03,7.16-1.52,10.74-.39,2.84-.85,5.66-1.27,8.49-1.4,9.55-2.14,19.26-1.6,28.91.28,5.11.89,10.28,2.26,15.22.26.94.55,1.89.91,2.8.51,1.27.71,2.71,1.03,4.04.24.98.48,1.95.72,2.93.03.14.32.02.37-.05,1.52-2.18,3.43-4.21,5.91-5.28,1.8-.78,3.78-.94,5.7-.56,3.09.61,5.87,2.42,8.17,4.51.51.47,1.02.95,1.48,1.48.04.05.15.04.21.02,2.59-.69,5.09-2.14,7.16-3.8,1.98-1.6,3.64-3.58,4.76-5.87.63-1.3,1.19-2.66,1.75-3.99.6-1.42,1.14-2.87,1.62-4.34,2.18-6.63,3.38-13.57,4.25-20.47.84-6.68,1.41-13.41,1.53-20.14.2-12.29-1.1-24.77-5.24-36.4-3.99-11.2-10.76-21.25-20.1-28.68-5.11-4.06-11.1-6.8-17.19-9.05-7.98-2.95-16.29-5.03-24.67-6.45-9.44-1.6-19.06-2.34-28.64-2-9.54.35-19.1,1.77-28.15,4.86-8.73,2.98-16.96,7.58-23.6,14.05-4.18,4.08-7.62,8.84-10.44,13.95-3.14,5.7-5.47,11.76-7.79,17.83-.94,2.44-1.87,4.89-2.97,7.27-.06.12.32.07.37-.02,3.96-7.01,7.94-14.01,12.16-20.87,1.34-2.18,2.66-4.43,4.24-6.45.14-.18.23-.33.38-.44.17-.13-.21-.14-.31-.06Z"/>
    </g>
    <path class="cls-13" d="M1013.43,427.06c9.21,12.54,21.13-1.09,21.13-1.09,12.11-11.08,13.93-24.4,14.79-33.56.87-9.16-9.17-10.39-9.17-10.39-8.64-.24-7.57.93-22.42,23.57"/>
    <path class="cls-7" d="M968.87,373.56c2.67-.82,5.33.79,6.67,2.5.32.4,1.15,1.53,1.33,3.23.23,2.16-1.01,4.34-2.55,5.52-2.06,1.58-4.99,1.38-7-.05-2.73-1.93-3.05-5.7-1.83-8.18.22-.45,1.23-2.35,3.39-3.01"/>
    <path class="cls-7" d="M954.02,381.72s10.74-10.07,19.85-8.48c12.82,2.25,14.55,9.58,16.67,13.61,0,0-6.75-9.77-16.7-11.28-9.03-1.37-19.82,6.15-19.82,6.15Z"/>
    <path class="cls-7" d="M904.02,360.12c-2.05-1.68-4.91-1.08-6.66.07-.41.27-1.53,1.04-2.25,2.57-.93,1.95-.59,4.41.36,6.05,1.26,2.18,3.88,3,6.12,2.35,3.03-.88,4.59-4.31,4.37-7.05-.04-.5-.28-2.62-1.93-3.98"/>
    <path class="cls-7" d="M920.2,375.82s-5.22-12.88-13.1-14.27c-11.08-1.96-14.96,4.39-18.03,7.5,0,0,8.74-7.04,17.27-5.31,7.73,1.57,13.86,12.07,13.86,12.07Z"/>
    <g>
      <path class="cls-7" d="M923.94,409.14c2.17,1.65,5.84,1.98,8.49.9.59-.24,2.3.38,1.48.72-3.49,1.43-8.73.73-11.53-1.41-.28-.21-.18-.44.22-.5.42-.07,1.04.07,1.34.29"/>
      <path class="cls-7" d="M935.06,410.25c1.73-.49,3.59-.58,5.4-.42.26.03.59.18.75.39.13.16.13.35-.09.43-.9.34-1.99.35-2.95.17-.3-.06-.69-.2-.82-.49-.12-.27.2-.38.44-.33.8.15,1.64.13,2.38-.15.22.27.44.54.67.81-1.62-.15-3.28-.05-4.83.39-.31.09-.7-.07-.93-.27-.17-.15-.33-.44-.02-.53"/>
      <path class="cls-7" d="M942.12,411.68c2.1.3,4.72-.19,6.01-1.6,1.95-2.12,1.17-6.38-1.19-8.34-.26-.21-.07-.4.23-.42.39-.02.81.2,1.08.42,2.05,1.72,2.98,5.3,2.26,7.48-.67,2.04-2.92,3.16-5.52,3.34-.78.05-1.59.04-2.37-.07-.32-.05-.87-.24-.99-.51-.12-.28.19-.34.49-.3"/>
      <path class="cls-7" d="M920.28,407.43c.15-.22-.03-.42-.2-.44-.57-.08-1.12-.34-1.53-.81-.22.2-.44.39-.67.59,1.11.32,2.18.88,3.08,1.73.18.17.48.13.69,0,.15-.09.34-.33.16-.5"/>
      <path class="cls-7" d="M921.81,408c-1-.95-2.21-1.57-3.45-1.92-.18-.05-.44,0-.6.16-.13.12-.18.29-.06.43"/>
      <path class="cls-7" d="M915.89,406.97c-1.35-.28-2.8-1.47-3.2-3.16-.61-2.56.81-5.23,2.76-6.47.21-.13.15-.37-.03-.46-.23-.12-.54-.03-.77.11-1.7,1.08-3.02,3.07-3.18,5.35-.14,2.13.92,3.81,2.44,4.69.45.26.95.47,1.46.58.2.04.59,0,.73-.22.14-.23-.03-.38-.22-.42"/>
    </g>
    <path class="cls-7" d="M960.69,343.66c-.88,1.87-1.75,3.75-2.63,5.64-.67,1.43-1.33,2.87-1.99,4.3,4.78.76,11.01,2.61,13.97,3.37,5.88,1.5,11.8,3.5,16.84,6.96,2.41,1.66,4.37,3.46,5.87,5.92.47.78,1.4,3.62,2.67,3.6.52-.01.91-2.64.95-2.91.76-5.31-2.01-8.97-6-12.19-8.13-6.56-17.49-10.64-27.43-13.75"/>
    <path class="cls-7" d="M890.94,350.69c.18-1.31.23-2.63.09-3.97.88-.59,1.82-1.13,2.83-1.63,9.22-4.58,19.09-6.46,29.3-7.27.44,2.02.88,4.05,1.32,6.08.33,1.55.67,3.09.99,4.63-4.76-.32-8.77-.33-11.78-.25-5.97.15-12.09.77-17.68,3.03-1.62.65-3.07,1.4-4.42,2.34l-.66-2.95Z"/>
    <path class="cls-11" d="M929,423.18c4.35.54,17.38,2.54,17.38,2.54,0,0-5.18,4.01-18.23,2.4-13.05-1.61-16.8-6.56-16.8-6.56l17.65,1.61Z"/>
    <path class="cls-24" d="M951.15,353.6c-2.43.2-4.54-1.83-5.31-4-1.01-2.86-.15-5.98,1.14-8.6.24-.49-.22-.89-.67-.96-.53-.08-1.17.18-1.41.68-1.48,3-2.45,6.79-1.01,10,1.24,2.77,3.98,4.78,7.09,4.52.49-.04,1.14-.35,1.19-.9s-.57-.79-1.01-.75h0Z"/>
    <path class="cls-24" d="M1025.5,405.24c2.54-4.08,5.25-8.1,8.45-11.69,1.52-1.71,3.19-3.43,5.18-4.59-.09.05.24-.13.32-.17.13-.07.27-.13.41-.19-.29.13.1-.04.17-.06.34-.13-.13.14.14-.04.23-.16-.07.02-.02,0,.06-.03.17-.04.24-.04-.56-.01-.05,0-.04.01.14.07-.26-.02-.03,0,.2.02-.04-.01-.04-.02.09.19.33.38.46.55.3.38.56.79.81,1.21,2.37,3.99,2.4,8.71.79,13-.17.46,1.93.23,2.15-.36,1.56-4.14,1.64-8.72-.47-12.68-.42-.78-.95-1.81-1.64-2.4-.21-.18-.3-.2-.58-.24-1.12-.15-2.36.3-3.35.77-2.03.95-3.76,2.52-5.3,4.12-3.81,3.93-6.91,8.57-9.8,13.2-.23.36.78.28.88.26.43-.07,1.02-.23,1.27-.62h0Z"/>
    <path class="cls-24" d="M1025.27,408.9c6.55.82-3.34,12.66,1.76,12.97,1.4.09,2.53-.93,3.33-1.96,1.34-1.73,2.28-3.83,3.1-5.84,1.11-2.73,1.77-5.04,1.81-7.97.04-3.55-.71-7.55-4.06-9.44-.59-.33-2.59.54-1.74,1.02,2.76,1.55,3.5,4.95,3.62,7.88.07,1.97-.07,3.97-.7,5.84-.78,2.31-1.69,4.61-2.89,6.73-.39.68-.8,1.35-1.3,1.95-.09.11-.61.51-.63.65,0,.01-.08.04-.07.06.6.07.79.03.6-.09-.04-.03-.08-.06-.11-.11-.07-.42-.33-.7-.32-1.18.02-.54.17-1.1.32-1.62.37-1.34.89-2.64,1.28-3.98.36-1.23.76-2.71.37-3.98-.42-1.36-1.72-1.9-3.03-2.06-.49-.06-1.18.04-1.54.41-.28.29-.31.66.19.73h0Z"/>
    <path class="cls-2" d="M926.87,421.55c7.88.85,24.67,8.3,27.79,12.21,0,0-9.01,10.52-27.28,8.54-18.27-1.97-21.3-13.79-21.3-13.79,0,0,10.75-8.05,20.79-6.96Z"/>
    <path class="cls-19" d="M947.65,429.04s-9.91-1.96-17.89-2.82c-7.98-.86-18.07-1.07-18.07-1.07,0,0-.58-6.61,13.88-5.04,14.47,1.56,22.08,8.93,22.08,8.93Z"/>
    <path class="cls-9" d="M925.1,437.58c8.71-.48,19.66-5.61,29.56-3.81,0,0-6.04,15.35-27.52,13.02-21.48-2.32-21.05-18.27-21.05-18.27,10.06.36,10.61,6.73,19.02,9.06Z"/>
    <path class="cls-9" d="M918.06,415.61c4.55.1,7.2,2.39,9.16,2.6,1.96.21,5.04-1.46,9.51-.59,4.19.82,20.78,14.71,18.61,16.05-2.17,1.34-15.08-8.95-28.66-10.41-13.59-1.47-19.4,6.79-21.23,5.02-1.83-1.77,8.35-12.77,12.62-12.67Z"/>
    <path class="cls-10" d="M416.76,133.69c8.1-8.03,19.29-12.37,29.5-7.59,3.21-21.02,25.67-29.8,46.71-26.71,10.72,2.07,20.92,8.87,31.7,7.09,6.72-1.1,12.38-5.22,18.52-8.41,25.62-12.82,57.78,12.95,73.37,37,15.59,24.05,6.77,46.26-7.7,70.97-6.73,11.49-7.17,18.31-10.87,31.2-3.49,12.16-15.04,33.86-17.34,46.15-2.3,12.28,14.66,28.54,2.06,27.33l-132.39-39.71c-20.79.43-32.55-7.9-39.71-27.42-4.58-13.21-2.25-13.36-.72-27.23,1.56-18.21-14.29-34.89-10.06-52.67,2.31-11.23,9.3-21.44,16.93-29.99Z"/>
    <path class="cls-26" d="M400.1,129.98s50.82-14.95,109.95,2.34c59.13,17.29,82.06,59.43,87.93,87.78,5.87,28.35-10.26,54.23-10.26,54.23,0,0,14.36,6.74,33.93-45.76,28.53-76.53-43.91-138.45-63.46-141.62-19.55-3.17-115.71-40.88-158.09,43.02Z"/>
    <path class="cls-17" d="M428.9,268.82s-6.09,55.73-29.32,78.29c-3.62,3.52-40.39,17.59-40.39,17.59l45.33,27.26c23.44,10,81.65,45.13,106.78,40.86l19-33.77s-23.68-17.33-23.87-23.28c-.19-5.95,11.97-48.55,11.97-48.55"/>
    <path class="cls-28" d="M507.35,372.36s-9.76-3.49-16.34-6.71c-6.58-3.22-18.53-4.98-45.42-38.55,0,0,3.15,35.8,42.61,50.56,0,0,10.14,4.13,17.38,3.72l1.77-9.03Z"/>
    <path class="cls-17" d="M581.08,171.71c.12.14.25.29.37.43-.11-.27-.21-.54-.27-.81l-.1.38ZM597.33,179.84c.19.3.4.61.63.92l.09-.31s-.61-.98-.72-.6ZM442.02,322.42c11.67,20.79,28.54,43.36,64.92,52.11,9.18,2.21,18.13,3.4,27.56-6.11,9.54-9.61,16.85-12.58,26.76-21.21,9.5-8.28,14.17-13.77,20.33-24.72,6.37-11.33,7.2-14.54,9.13-27.05.86-5.59,2.67-13.91,4.46-19.02,2.07-5.9,11.15-28.89,15.4-42.67,4.26-13.78.29-43.03.29-43.03.22-3.98-5.5-3.4-6.71-6.97l-1.64-.45s.71.6.4,1.73c-1.99-.89-3.75-2.59-4.98-4.27l-.02.06c-2.77.45-4.91-1.36-6.44-3.8-.1.38.1,1.24.51,1.35-2.56-.3-4.7-2.11-5.92-4.06-.1.38.1,1.24,0,1.62-1.77-.86-3.36-2.33-4.63-3.78.24.6,9.87,1.72,9.8,1.98-2.56-.3.02,1.29-1.5-1.15l-1.64-1.96c-2.15-.19-2.42,1.06-3.64-.89.3.49.02-4.45-.09-4.07-2.46-.68-1.74-.66-3.48-2.35-.1.37-7.37.59-7.47.96-2.04-.57-2.02,1.46-3.25-.5.31.49,1.91-1.16,2.22-.68-2.56-.3-3.92,1.02-5.44-1.43.3.49-6.95-6.36-6.95-6.36-2.56-.31-2.36.58-3.99-1.48.61.98-11.14-3.83-10.94-2.97-2.04-.57,1.83,8.58.51,7-.1.38-4.4-2.43-4.4-2.43-2.15-.19.4,2.54-.82.58-.1.37,0,1.61.41,1.73-2.77.45-5.42-1.1-7.46-3.28.61.98.81,1.84,1.12,2.33-2.05-.57-3.79-.64-5.42-2.71-.1.37.4,1.73.81,1.84-2.26.18-4.61-.87-6.34-2.56-.1.37.51,1.35.81,1.84-1.74-.08-3.37-.53-4.7-2.11l.81,1.84c-1.64-.45-3.07-.04-5.32-1.47-.1.37.61.98.51,1.35-1.23-.34-2.87-.79-3.99-1.51-.1.38.92,1.47.51,1.35-1.64-.45-3.07-.04-4.91-1.36.3.49.51,1.35.81,1.84-1.64-.45-3.38-.53-4.81-1.73-.1.38.1,1.24.4,1.73-1.64-.45-3.07-.04-4.91-1.36-.1.37.51,1.35.81,1.84-1.64-.45-3.38-.53-4.91-1.36-.1.38.61.98.92,1.47-1.64-.45-3.38-.53-5.22-1.85-.21.75.1,1.24,0,1.61-1.23-.34-1.94-.94-3.17-1.28l-2.26.18c-7.81,5.93-27.62-6.08-27.62-6.08-15.49,6.63-12.85,63.21-14.42,70.45-1.57,7.25-6.17,8.11-6.17,8.11-1.32-3.19-5.97,3.89-6.36.55-.5-2.97,1.25-6.12.75-9.09-2.02-7.03-10.72-7.42-16.26-4.9l-1.09,1.03c-8.61,6.76-9.05,35.04-6.57,44.15-3.03,16.34,8.72,28.59,19.79,19.22l.51,6.84"/>
    <g>
      <path class="cls-7" d="M535.81,304.77c-3.45.74-7.95-.9-10.47-3.62-.56-.6-2.92-.82-2.13.02,3.33,3.58,9.87,5.64,14.32,4.69.44-.1.45-.41.02-.7-.46-.31-1.26-.49-1.73-.39"/>
      <path class="cls-7" d="M522.14,299.96c-1.76-1.51-3.9-2.65-6.12-3.45-.33-.12-.79-.11-1.09.04-.24.12-.34.33-.13.54.88.89,2.15,1.5,3.38,1.82.39.1.92.15,1.23-.12.29-.25-.03-.55-.33-.63-1.02-.26-2-.75-2.72-1.48-.41.19-.82.39-1.23.58,1.98.72,3.89,1.75,5.46,3.1.31.27.86.3,1.24.2.28-.08.63-.34.32-.61"/>
      <path class="cls-7" d="M513.05,297.75c-2.64-.8-5.44-2.81-6.19-5.16-1.14-3.54,2.01-7.79,5.85-8.79.42-.11.3-.43-.04-.61-.45-.23-1.06-.21-1.5-.1-3.35.87-6.3,4.26-6.65,7.19-.32,2.74,1.71,5.28,4.67,6.92.88.49,1.85.92,2.83,1.22.4.12,1.16.2,1.44-.06.29-.26-.04-.5-.42-.62"/>
      <path class="cls-7" d="M541.04,304.78c-.06-.34.26-.47.47-.41.71.22,1.5.22,2.25-.1.16.35.31.7.47,1.05-1.48-.24-3.05-.17-4.56.33-.3.1-.64-.11-.81-.37-.13-.19-.22-.57.08-.67"/>
      <path class="cls-7" d="M538.93,304.61c1.7-.56,3.45-.61,5.1-.34.24.04.51.25.62.51.09.21.05.44-.16.53"/>
      <path class="cls-7" d="M546.46,306.66c1.74.41,4.09-.18,5.49-1.93,2.11-2.64,1.9-6.54.28-9.05-.18-.27.02-.51.28-.52.34-.02.66.26.84.55,1.42,2.19,1.88,5.24.82,7.98-.99,2.56-3.15,3.94-5.43,4.13-.68.06-1.37.03-2.03-.13-.26-.06-.7-.31-.74-.66-.04-.35.24-.43.48-.37"/>
    </g>
    <path d="M578.16,260.2c2.6-.55,5.26,1.22,6.38,2.95.27.41.67,1.53.69,3.15.03,2.06-1.33,4.01-2.89,5-2.08,1.31-4.83.88-6.61-.64-2.42-2.06-2.39-5.65-1.03-7.89.25-.41,1.36-2.12,3.46-2.56"/>
    <path d="M555.78,262.17s13.46-5.64,19.27-4.64c8.48,1.46,17.37,8.85,19.16,13.75,0,0-11.56-10.56-17.56-11.42-5.74-.82-20.87,2.31-20.87,2.31Z"/>
    <path d="M509.08,242c-1.94-1.8-5.69-2.49-7.54-1.59-.44.21-1.62.83-2.47,2.21-1.09,1.75-.93,4.13-.09,5.77,1.11,2.2,3.69,3.24,6,2.85,3.13-.53,4.96-3.62,4.94-6.24,0-.48.68-1.21-.89-2.67"/>
    <path d="M521.75,252.05s-10.29-11.39-16.38-13.27c-8.89-2.74-21.04-.45-25.12,3.03,0,0,16.24-3.83,22.45-1.73,5.94,2.01,19.05,11.98,19.05,11.98Z"/>
    <path class="cls-10" d="M605.07,253.15c.02-.07.04-.14.06-.2-.27-.77-.5-1.26-.55-1.37,0,0-1.75-3.89-5.91-7.83-2.87-2.72-11.76-8.69-24.76-14.56-.87,1.5-1.75,3-2.62,4.51-.66,1.15-1.33,2.29-1.98,3.44,4.8,1.53,8.8,3.03,11.78,4.23,6.3,2.53,9.51,3.85,12.58,6.34,3.22,2.61,5.52,5.56,6.41,6.72.69.9,1.84,2.25,2.35,3,0,0,1.87-1.84,2.66-4.27Z"/>
    <path class="cls-10" d="M542.21,217.05c-.21,1.72-.42,3.45-.63,5.18-.16,1.32-.33,2.63-.5,3.94-5.71-1.78-10.62-3.07-14.33-3.97-7.86-1.92-11.88-2.87-16.58-2.81-4.94.06-9.22.96-10.89,1.31-2.34.5-3.92.81-5.84,1.59-4.17,1.69-6.06,3.92-6.68,3.64-.56-.26.65-2.27.77-2.48,3.08-5.06,8.93-7.59,9.38-7.8,0,0,4.41-1.98,11.2-2.5,4.68-.36,17.43.45,34.1,3.9"/>
    <path class="cls-28" d="M429.02,249.16c-1.08-5.44-2.41-10.9-4.55-16.04-1.06-2.54-2.33-5.12-4.15-7.2-.67-.76-1.51-1.64-2.49-2-1.42-.53-2.55.8-3.36,1.77-3.12,3.76-4.15,8.78-4.15,13.55,0,.57,2.17.2,2.17-.58,0-3.8.69-7.73,2.64-11.05.66-1.12,1.47-2.33,2.52-3.12l-1.54.41c-.46-.11.44.25.4.23.68.42,1.26,1.01,1.78,1.61,2.58,2.96,4.1,6.87,5.34,10.53,1.38,4.07,2.37,8.26,3.21,12.47.13.66,2.32.13,2.17-.58h0Z"/>
    <path class="cls-28" d="M424.77,249.94c-6.92-2.02-5.54,8.07-6.77,11.84-.08.24-.2.45-.29.68s-.2.1-.13.18c.06.07.54.07.56-.05,0-.03-.09-.24-.09-.14-.01-.25-.27-.68-.34-.93-.55-2.12-.49-4.43-.42-6.6.1-3.06.36-5.82,1.38-8.68,1.08-3.02,2.89-7.3,6.45-7.9,1.39-.24.93-1.83-.43-1.6-3.65.62-5.92,4.08-7.32,7.21-1.08,2.42-1.82,4.91-2.07,7.55s-.37,5.54-.12,8.29c.12,1.28.21,3.46,1.48,4.23,1.18.72,2.57-.2,3.14-1.26.61-1.13.73-2.55.86-3.8.17-1.57.09-8.29,2.87-7.48.52.15,1.2.06,1.54-.41.28-.39.23-.98-.3-1.13h0Z"/>
    <path class="cls-28" d="M588.5,212.24s-18.32-1.39-32.91-4.03c-14.59-2.64-27.39-12.77-27.39-12.77,0,0,16.04,8.69,27.57,10.84,11.52,2.15,32.74,5.96,32.74,5.96Z"/>
    <path class="cls-10" d="M606.26,172.35c-.13-.3.06.13,0,0-2.63-5.79-3.87-11.65-6.75-17.32-2.82-5.55-5.65-10.63-8.77-16.01-.18-.32-4.92-1.37-5.11-1.68-.04-.06-.16-.26-.2-.33-.1-.17-.2-.34-.3-.5-.23-.39-.47-.77-.71-1.16-20.67-14.22-47.67-20.89-73.74-18.11-50.64,5.41-87.3,50.85-81.89,101.49.46,4.34-2.94,8.82.62,11.91,3.57,3.08,4.26,2.03,8.58.13,4.18-2.17,7.81-5.29,10.59-9.09,14.21-17.74,22.82-48.69,22.35-71.41,1.85,4.63,21.09,3.92,24.66,7.4,14.12,13.77,36.73,13.48,50.5-.64,1.2,2.75,2.62,5.39,4.24,7.91,14.9,23.03,37.43,37.16,60.43,27.37.84-.36-2.87-16.28-4.5-19.94Z"/>
    <path class="cls-5" d="M478.24,230.68l.54,8.3c-.08,6.31,1.31,19.22,2.5,22.96,1.68,5.23,32.72,15.21,39.86,13.23,7.13-1.98,15.32-19.08,18.07-22.82l12.41,4.01c-.3,5.69-.85,23.82.93,26.75,1.78,2.93,16.34,6.31,17.98,6.69,1.37.3,3.28.72,5.38,1.09,5.56,1.04,12.43,1.85,15,.37,3.82-2.2,10.14-12.78,15.84-22.86l.91-1.57c.21-.38.41-.63.45-.75h0l1.02-1.82c-15.86-13.41-40.04-18.23-57.29-11.4l.06.22-12.09-3.97c-11.45-12.87-34.12-24.18-53.04-22.03h0l-55.62-5.11-1.4,4.68,48.48,4.02ZM554.48,281.75c-1.11-1.83-1.09-14.62-.76-24.5,14.93-5.67,36.71-1.3,51.13,9.76l-.07.24c-3.06,5.4-11.19,19.78-14.94,21.95-4.44,2.55-33.35-4.49-35.38-7.39l.02-.05ZM485.35,261.64c-1.99-9.83-3.08-19.82-3.28-29.85,17.1-2.94,42.67,7.93,53.93,20.24-4.15,6.96-10.35,19.4-15.46,20.81-7.36,2.05-34.15-7.89-35.19-11.19h0Z"/>
    <path class="cls-1" d="M403.41,223.33s-39.28-41.44-15.35-73.58c4.6-6.17,4.54-3.87,5.84-9.71,6.78-30.58-5.36-25.26,46.45-52.83,51.81-27.57,58.32-25.71,126.17-7.72,34.99,9.28,51.65,27.74,57.14,52.04,2.47,10.92,2.68,23.02,1.29,36,0,0-68.65-34.23-116.18-19.01-47.53,15.22-107.03,82.55-102.36,108.58,1.31,7.31-3-33.76-3-33.76Z"/>
    <path class="cls-26" d="M381.69,184.42s78.29-78.15,160.83-65.56c0,0-92.24-27.66-151.18,27.64-4.15,3.9-7.11,8.91-8.59,14.41l-.15.56c-1.4,5.22-1.9,10.64-1.47,16.02l.56,6.94Z"/>
    <path class="cls-21" d="M654.28,699.76c-2.36-5.81,4.09,3.03,3.16-3.18-.86-5.7,1.34-16.96,1.67-22.71.64-11.28,3.98-4.1,7.85-14.7,5.65-15.48,14.78-11.47,26.54-23.38-16.49-29.3-93.5-187.57-107.02-202.55-8.91-9.88-18.98-18.48-28.75-23.09l-43.49-27.37.23,26.62c-21.08,26.92-41.34,14.64-33.96,45.01,5.26,21.65,13.42,33.75,23.99,53.34,22.14,41.01,47.93,79.5,70.65,120.19,11.48,20.56,32.65,58.48,51.89,72.79,9.36,6.97,23.3,14.4,37.15,17.77-.58-1.28-9.38-17.46-9.91-18.76Z"/>
    <path class="cls-21" d="M653.47,622.3c-7.51,8.61,1.35,32.67-3.57,42.96-4.71,9.86-6.58,8.73-8.12,19.57-.85,5.96,8.08,3.55,8.64,9.56.57,6.15-7.78-8.03-5.91-2.14.07.21,6.18,21.62,6.25,21.83,7.5,2.59,17.49,6.27,24.4,5.2,22.78,2.12,69.61-10.37,71.36-12.21,52.87-16.85,130.09-20.34,167.81-35.59l14.67-22.7,3.32-18.61,10.93-29.07-1.43-7.31s-66.96,6.59-128.88,14.29c-52.91,6.58-138.62,4.87-138.62,4.87"/>
    <path class="cls-16" d="M1248.94,715.38c-11.96,16.23-23.13,33.53-31.23,52.04-4.28,9.78-7.13,19.98-8.74,30.54-1.75,11.53-2.23,23.2-2.69,34.83-.62,15.91-1.02,31.83-1.39,47.74-.44,18.69-.82,37.38-1.19,56.07-.32,16.44-.63,32.88-.98,49.31-.03,1.64-.07,3.28-.11,4.92-.02,1.03,2.17.64,2.19-.22.35-15.88.65-31.77.96-47.65.36-18.56.73-37.13,1.16-55.69.38-16.54.78-33.09,1.37-49.62.76-21.38,1.24-43.44,8.87-63.7,3.57-9.48,8.27-18.52,13.34-27.27,5.1-8.8,10.65-17.34,16.52-25.65,1.31-1.85,2.63-3.68,3.97-5.5.33-.44-.28-.74-.63-.79-.54-.07-1.11.21-1.42.63h0Z"/>
    <path class="cls-16" d="M1315.48,715.64c-11.96,16.23-23.13,33.53-31.23,52.04-4.32,9.87-7.15,20.17-8.74,30.82-1.7,11.41-2.18,22.96-2.63,34.48-.62,15.91-1.02,31.83-1.39,47.74-.44,18.69-.82,37.38-1.19,56.07-.32,16.44-.63,32.88-.98,49.31-.03,1.64-.07,3.28-.11,4.92,0,.36,2.16.07,2.17-.58.35-15.88.65-31.77.96-47.65.36-18.56.73-37.13,1.16-55.69.38-16.54.78-33.09,1.37-49.62.76-21.43,1.27-43.47,8.92-63.78,3.57-9.48,8.27-18.52,13.34-27.27,5.1-8.8,10.65-17.34,16.52-25.65,1.31-1.85,2.63-3.68,3.97-5.5.24-.33-.8-.25-.88-.23-.44.07-.99.23-1.27.61h0Z"/>
    <path class="cls-16" d="M63.67,715.94c11.95,16.22,23.14,33.52,31.22,52.03,4.28,9.81,7.08,20.05,8.66,30.64,1.71,11.48,2.18,23.09,2.62,34.68.61,15.86,1.01,31.72,1.38,47.59.44,18.57.82,37.13,1.18,55.7.32,16.44.63,32.88.98,49.31.03,1.64.07,3.28.11,4.92.03,1.16,2.23.84,2.2-.16-.35-15.88-.65-31.77-.96-47.65-.36-18.69-.74-37.37-1.16-56.06-.38-16.56-.78-33.12-1.37-49.67-.77-21.46-1.31-43.53-9.01-63.86-3.56-9.41-8.23-18.41-13.26-27.11-5.13-8.87-10.71-17.47-16.63-25.83-1.31-1.85-2.63-3.68-3.97-5.5-.6-.81-2.66.05-1.99.97h0Z"/>
    <path class="cls-16" d="M-2.93,715.93c11.96,16.23,23.14,33.52,31.22,52.04,4.28,9.81,7.08,20.05,8.66,30.64,1.71,11.48,2.18,23.1,2.62,34.69.61,15.86,1.01,31.72,1.38,47.59.44,18.57.82,37.13,1.18,55.7.32,16.44.63,32.88.98,49.31.03,1.64.07,3.28.11,4.92.02,1.1,2.22.74,2.2-.19-.35-15.88-.65-31.77-.96-47.65-.36-18.69-.74-37.37-1.16-56.06-.38-16.56-.78-33.12-1.37-49.67-.77-21.46-1.31-43.52-9-63.84-3.56-9.41-8.23-18.4-13.26-27.09-5.13-8.87-10.71-17.47-16.63-25.83-1.31-1.85-2.63-3.68-3.97-5.5-.56-.76-2.64.07-1.99.94h0Z"/>
    <path class="cls-12" d="M1106.77,539.47c-4.61-10.79-31.6-32.14-42.64-37.47-34.21-16.49-49.74-27.49-46.91-26.22,0,0-34.54,42.25-78.7,34-44.15-8.24-24.54-34.9-24.54-34.9l-9.09,2.68c-20.8,7.3-42.2,20.02-58.51,34.98-13.88,12.73-18.08,14.4-28.57,35.65-5.33,10.79-8.07,28.15-23.4,59.94-1.5,3.12-13.37,27.45-13.53,28.08-1.21,4.7,13.55,15.46,33.14,22.43,9.92,3.53,17.24,3.61,21.56,5.76.47,1.04,3.95,73.94,4,75.32.84,21.93.37,40.16-1.69,64.26-.05.54-5.66,32.36-5.71,32.9-2.59,6.01-2.04,25.81-.21,25.86,28.85.67,50.63,4.03,81.84,3.21,14.52-.38,24.61-.76,39.02.95,2.92.35,12.94-8,13.12-4.89.71,11.78,7.01-4.04,9.69-3.8,14.73,1.28,44,22.34,58.67,24.16,15.54,1.92,44.03,1.66,58.88,6.52,2.86.93,8.32-4.1,11.38-2.75,7.83-35.38-13.3-110.84-12.79-116.86,4.26-51.66-2.48-5.19-.72-100.55l4.77-9.89,22.7-13.67c1.47-59.2-.28-78.75-11.79-105.7Z"/>
    <path class="cls-13" d="M1110.85,601.05l-81.66-9.11,2.75,51.7.25,95.86c14.38,4.93,42.22-2.27,57.09.67,8.61,1.7,3.39-.56,11.91,1.56,1.09-6.14,5.25-81.79,5.79-87.55,1.54-16.43,5.73-4.65,3.88-53.13Z"/>
    <path class="cls-13" d="M1108.89,660.58s-4.05,62.41-4.14,65.33c-.55,18.17-.21,41.6-9.97,60.17-13.11,24.93-38.26,23.62-65.09,3.36-29.67-22.41,16.68-73.73,16.68-73.73l62.53-55.13Z"/>
    <path class="cls-13" d="M1085.96,796.67c-5.53,7.04-18.44,10.04-37.12,9.88-56.61-.47-153.58-9.29-205.02-18.32l11.71-17.96-6.33-19.52,183.55-16.33"/>
    <path class="cls-12" d="M1115.44,580.02s3.73,63.31,3.02,100.46c0,0-57.04,9.57-95.39-1.53-40.64-11.77-14.02-110.79-14.02-110.79l106.38,11.86Z"/>
    <g>
      <path class="cls-12" d="M1055.02,534.57c2.87-.15-34.98-1.55-35.12,57.32-.13,54.08.88,96.22.88,96.22l9.95,2.28s58.75,9.85,86.84-1.91l.09-10.11s-62.86,7.01-93.48-3.54"/>
      <path class="cls-6" d="M1054.88,535.21c.93-.05,2.05-1.18.63-1.31-.5-.05-1.05.04-1.54.1-2.27.26-4.49.85-6.63,1.61-7.85,2.8-14.36,8.49-18.82,15.47-8.65,13.54-9.69,30.05-9.71,45.66-.02,20.8.11,41.59.38,62.39.09,6.55.19,13.09.31,19.64.06,3.06-.07,6.19.19,9.24.01.13,0,.27,0,.4,0,.18.31.3.43.32,3.5.8,7,1.81,10.54,2.37,3.98.64,7.99,1.15,12,1.62,16.18,1.88,32.62,2.9,48.89,1.69,8.96-.66,18.13-1.99,26.47-5.45.21-.09.65-.33.65-.61.03-3.37.06-6.74.09-10.11,0-.49-.56-.55-.95-.51-7.62.85-15.29,1.35-22.94,1.74-15.35.77-30.84.92-46.15-.59-8.06-.79-16.19-2.04-23.87-4.67-.73-.25-2.54.81-1.32,1.23,6.75,2.31,13.85,3.52,20.92,4.36,8,.95,16.05,1.34,24.1,1.46,13.62.2,27.25-.38,40.82-1.5,2.72-.22,5.44-.46,8.16-.76l-.95-.51c-.03,3.37-.06,6.74-.09,10.11l.65-.61c-7.25,3.01-15.18,4.25-22.96,4.95-8.59.78-17.23.8-25.84.46-11.96-.47-23.94-1.6-35.77-3.44-3.75-.58-7.43-1.62-11.13-2.46l.43.32c-.17-7.08-.28-14.17-.39-21.25-.27-18.01-.43-36.03-.48-54.04-.03-10.43-.47-20.99.47-31.39.66-7.24,2.04-14.49,4.69-21.28,3.34-8.56,8.94-16.41,17.04-21.01,2.46-1.4,4.88-2.37,7.5-3.03.49-.12.99-.24,1.49-.33-.31.06.29-.05.41-.07.2-.03.4-.06.6-.09.31-.04.63-.08.94-.11.11-.01.23-.02.34-.03.05,0,.1,0,.15,0-.32.02-.11,0-.11,0,0,0,.14,0,.15,0,.02,0-.54-.07-.59-.35l.21-.5s1.2-.43.86-.41c-1.1.06-1.78,1.35-.28,1.27h0Z"/>
    </g>
    <path class="cls-24" d="M1031.92,733.93c5.89,2.14,11.71,4.59,17.09,7.83,5.11,3.08,10.1,7.06,13.06,12.35,1.59,2.85,2.49,6,2.64,9.26.03.63,2.21.21,2.17-.58-.61-12.84-12.55-20.77-23.08-25.71-3.31-1.55-6.71-2.9-10.14-4.15-.47-.17-1.12-.06-1.53.22-.23.16-.71.61-.21.79h0Z"/>
    <path class="cls-29" d="M189.29,782.93s-72.5,87.32-20.21,186.34c24.91,47.15,157.21,29.79,157.21,29.79l18.71-78.83v-159.03l-155.71,21.73Z"/>
    <path class="cls-21" d="M306.45,801.15c15.79,3.29,32.81,3.15,48.28,7.22l187.37,22.19s19.45-19.97,7.63-78c-.56-9.12-.66-31.32-.84-40.51-.1-5.32-.44-4.21-.53-3.81.05-.3.2-1.33.53-4.02.56-4.64-.77-3.94,1.85-7.86,24.76-37.17-18.13-14.28-17.97-14.83,2.81-9.66,12.34-9.55,16.3-18.82,0,0,6.21-5.9,18.03-14.34,3.62-2.59,14.24-13.93,20.95-38.93,1.61-14.07,7.29-26.37,8.97-40.43,2.7-22.65,13.07-42.39,13.67-65.23.57-21.58-9.83-48.37-25.43-65.45-6.53-7.16-8.52-11.7-16.5-17.2l-15.76-16.31c-.93-.39-14.49-9.38-15.46-9.7-2.07-.7-3.59-.84-4.36-2.2l-10.18-5.18-16.85-11.56c9.56,12.99,6.95,31.28-6.76,36.55-13.78,5.3-30.96.68-44.66-2.89-15.02-3.92-28.34-13.73-39.41-23.96-8.85-8.18-16.09-26.2-21.71-36.9-21.28,2.82-65.29,15.61-75.22,20.47-17.92,8.72-49.99,221.23-49.99,221.23,0,0-19.81,122.39-87.38,197.54-.44.49-2.54,4.17-2.86,4.76-.98,1.84,23.38,24.41,82.53,11.56"/>
    <path class="cls-29" d="M667.38,951.38c-3.86,115.82-11.96,255.87-30.35,374.09,0,0-89.17,44.31-102.36,18.39,0,0-32.08-241.74-75.96-383.7-38.64-125.01-299.64-141.23-268.14-146.02,56.99-8.67,326.49-45.45,427.02,1.98,37.03,17.47,52.35,58.48,49.79,135.27Z"/>
    <path class="cls-29" d="M612.33,836.13s-16.33-12.81-39.02-6.77c2.13-11.85,2.1-18.79,2.1-18.79-2.69-2.21-17.39,1.08-20.34-1.2-12.32,6.6-26.84,2.04-38.02,10.69-13,10.06-11.15,2.72-22.55,14.85-10.98,11.69-21.17,24.34-30.16,37.91-2.55,3.84-39.11,7.77-41.44,11.78.41.04.07,23.05.48,23.09-33.1,62.54,18.91,155.1,15.67,266.34-2.85,97.67-3.11,111.63-8.35,163.51,15.62,23.48,136.93,12.48,136.93,12.48,15.2-150.7,44.7-513.88,44.7-513.88Z"/>
    <line class="cls-25" x1="496.26" y1="582.49" x2="495.93" y2="584.34"/>
    <path class="cls-21" d="M235.4,454.91c-1.1,5.17-2.2,10.63-3.53,16.65-10.06,45.51-22.7,91.49-32.11,137.14-4.76,23.06-14.7,67.09-9.5,90.51,4.19,18.86,21.09,34.05,40.04,41.83,1.95.8,24.66,4.8,26.7,5.55,35.86,13.25,201.89,17.94,201.89,17.94l.16-33.89-141.69-73.67c-6.87,3.99-13.49,5.47-20.61,8.88-.84.4-1.63.07-2.11-.51l7.84-49.85,91.12-266.51-59.77,12.04c-16.83,3.21-37.52,9.19-51.48,19.12-.86.61-1.72,1.24-2.56,1.88-10.95,8.26-19.16,18.83-27.63,29.59,0,0-13.24,26.66-16.78,43.31Z"/>
    <path class="cls-3" d="M597.94,508.03c-2.58,2.42-4.7,5.43-6.48,8.46-3.37,5.74-5.53,12.23-5.77,18.91-.19,5.12.26,10.27.62,15.38.5,7.13,1.02,14.25,1.28,21.39.62,16.93-.03,34.17-4.45,50.61-2.27,8.45-5.53,16.78-9.87,24.38-2.96,5.18-6.54,10.05-10.94,14.1-2.95,2.72-6.24,4.97-9.57,7.17-2.55,1.68-5.22,3.41-7.1,5.86-.43.57-.81,1.17-1.15,1.79-.23.42.75.4.92.38.47-.06,1.01-.26,1.25-.69,1.4-2.58,3.78-4.37,6.15-5.99,3.12-2.13,6.32-4.12,9.24-6.54,10.48-8.69,16.83-21.35,21.19-34.01,5.53-16.08,6.89-33.33,6.71-50.23-.08-7.47-.5-14.93-1.01-22.39-.4-5.85-.92-11.7-1.07-17.56-.16-6.07.7-11.92,3.08-17.56,1.96-4.65,4.75-9.08,8.24-12.74.14-.15.29-.29.43-.44-.12.13,0,0,.05-.05.88-.83-1.25-.7-1.72-.26h0Z"/>
    <path class="cls-24" d="M782.13,727.69c2.82-1.53,5.61-3.18,8.5-4.56,3.33-1.59,6.91-.9,10.45-.57,3.31.31,6.62.62,9.93.92,2.84.26,6.37.07,8.73,1.92.44.35,2.31-.52,2.05-.72-2.6-2.04-6.61-1.79-9.73-2.08-4.06-.38-8.11-.76-12.17-1.13-3.3-.3-6.41-.3-9.53.99-3.42,1.42-6.64,3.45-9.89,5.21-.41.22-.22.36.11.42.46.09,1.14-.2,1.54-.41h0Z"/>
    <path class="cls-29" d="M645.4,857.22c17.53,20.44,6.95,48.19,15.22,73.01-.79,4.58-1.44,9.19-1.88,13.82l-.02.02c-107.69,34.69-443.6,108.84-486.55-3.93-32.26-84.7,30.5-115.68,30.5-115.68,0,0,187.03-18.13,326.51-19,28.9-.18,57.17,7.45,80.71,22.08,12.3,7.65,25.03,17.46,35.51,29.67Z"/>
    <path class="cls-17" d="M700.12,935.59c8.46-6.85,14.7-11.03,25.29-18.27,33.85,17.95,63.34,42.26,85.89,72.85l-8.61,3.45s17.78,49.63,22.8,76.78c5.02,27.15,8.9,205.19,8.9,205.19l-49.21,3.23s-61.25-172.44-85.19-254.46c-7.04-24.17-20.02-72.47.13-88.76Z"/>
    <path class="cls-15" d="M1069.66,857.23c-40.91-8.01-82.72-10.02-123.98-7.13-20.67,1.45-43.73,10.9-64.44,9.24-20.62-1.65-28.86-1.19-49.58-1.36l-93.3,51.21c-12.05,4.2-25.94,14.02-26.02,16.28,15.64,0,26.45,3.26,34.42,8.67,29.89,20.3,31.05,33.93,50.99,62.23l1.85,2.02s245.7,20.15,289.07-20.86c25.6-24.21,27.73-82.94,16.41-111.38-15.91-9.65-17-5.3-35.41-8.91Z"/>
    <path class="cls-24" d="M803.94,1212.37c-.64-1.94-1.28-3.88-1.91-5.82-1.75-5.35-3.5-10.7-5.25-16.05-2.63-8.05-5.24-16.11-7.85-24.16-3.25-10.05-6.5-20.1-9.72-30.15-3.64-11.33-7.26-22.67-10.86-34.02-3.78-11.92-7.54-23.84-11.27-35.77-3.68-11.79-7.34-23.59-10.95-35.4-3.35-10.96-6.66-21.92-9.89-32.91-1.74-5.89-3.52-11.76-5.37-17.61-1.71-5.42-3.45-10.91-4.15-16.57-.61-4.91-.22-9.93,1.84-14.48,2.2-4.84,6.15-9.4,10.52-12.4,1.32-.91,2.65-1.82,3.97-2.73,1.21-.83-.65-1.15-1.36-.67-3.58,2.45-6.97,4.84-9.93,8.07-3.57,3.91-6.27,8.55-7.15,13.81-.84,5-.12,10.11,1.04,14.99,1.43,6.01,3.48,11.86,5.31,17.75,3.43,11.04,6.57,22.17,9.92,33.23,3.54,11.7,7.14,23.38,10.77,35.05s7.55,24.15,11.36,36.22c3.68,11.64,7.38,23.26,11.1,34.89,3.39,10.57,6.79,21.14,10.2,31.71,2.81,8.7,5.63,17.39,8.46,26.08,2.01,6.17,4.03,12.35,6.05,18.52.94,2.88,1.81,5.8,2.84,8.64.04.12.08.24.12.36.26.77,2.42.16,2.17-.58h0Z"/>
    <path class="cls-27" d="M744.84,932.13c-1.31-2.26-2.67-4.49-3.93-6.77-2.19-3.95,1.6-9.25,5.28-10.8,2.15-.9,4.64-1.27,6.88-1.91,2.43-.7,4.86-1.45,7.26-2.24,5.04-1.65,10.02-3.46,14.96-5.37,18.89-7.32,37.34-16.03,55.05-25.88,3.36-1.87,6.7-3.79,9.96-5.82,2.07-1.29,4.16-2.6,6.04-4.16,1.13-.94-.64-1.47-1.4-.84-4.25,3.54-9.34,6.23-14.13,8.93-8.19,4.62-16.58,8.91-25.06,12.98-9.95,4.78-20.05,9.25-30.33,13.27-5.09,1.99-10.23,3.87-15.43,5.57-2.52.82-5.04,1.61-7.59,2.34-2.25.65-4.67,1.05-6.85,1.91-4.1,1.62-9.23,7.47-7.06,12.18,1.2,2.6,2.91,5.04,4.35,7.52.43.74,2.53,0,2-.91h0Z"/>
    <path class="cls-17" d="M739.95,936.6c8.46-6.85,16.49-11.03,27.08-18.27,33.85,17.95,63.34,42.26,85.89,72.85l-8.61,3.45s17.78,49.63,22.8,76.78c5.02,27.15,8.9,205.19,8.9,205.19l-49.21,3.23s-67.2-205.68-91.15-287.71c-7.04-24.17-15.85-39.22,4.29-55.51Z"/>
    <path class="cls-15" d="M1108.77,890.76s1.4,74.65-18.08,83.96c-50.95,24.37-242.72,26.63-242.72,26.63l-13.17-20.34c-11.53-17.81-36.69-37.69-53.47-49.88l-37.96-11.89,183.39-42.97h126.6l55.4,14.49Z"/>
    <path class="cls-3" d="M682.02,613.18c-10.84,7.62-18.38,19.53-20.9,32.52-.72,3.7-1,7.47-.85,11.24.04,1.15,2.24.83,2.2-.16-.64-16.59,7.4-33.03,20.99-42.59,1.2-.85-.56-1.65-1.45-1.02h0Z"/>
    <path class="cls-9" d="M523.21,316.39c-11.34-3.67-29.52-9.6-29.52-9.6,0,0-5.21,28.41,21.08,36.92,26.29,8.52,35.57-19.49,35.57-19.49,0,0-15.8-4.16-27.14-7.84Z"/>
    <path class="cls-4" d="M523.32,316.42c-5.39-1.75-27.08-8.27-27.08-8.27,0,0,2.95,19.93,22.45,26.25,21.14,6.85,27.66-9.64,27.66-9.64l-23.03-8.34Z"/>
    <path class="cls-11" d="M523.24,317.45c-5.39-1.75-21.76-6.54-21.76-6.54,0,0,3.96,7.28,20.13,12.52,16.18,5.24,23.2,1.74,23.2,1.74l-21.57-7.72Z"/>
    <path class="cls-9" d="M551.34,323.37q-.53-.35-3.14-1.51c-4.37-1.92-5.69-4.27-8.87-5.63-5.43-2.31-9.8-.89-12.23-1.68-2.43-.79-5.15-4.5-10.9-5.81-3.37-.77-12.22-.41-16.88-1.42-2.8-.61-4.86-.97-5.49-1-.88-.03-1.97,3.88,28.57,13.77,30.53,9.89,29.68,3.76,28.95,3.27Z"/>
    <g>
      <path class="cls-12" d="M1009.73,469.45s-21.24,42.6-65.18,39.53c-43.94-3.07-28.39-35.45-28.39-35.45l.49-2-11.74,6.03s-4.95,16.74.26,27.13c5.21,10.39,25.06,17.41,53.22,15.13,16.52-1.34,30.05-6.73,43.25-18.71,15.81-14.35,19.39-23.87,19.39-23.87l-11.3-7.79Z"/>
      <path class="cls-6" d="M1008.69,469.34c-2.34,4.68-5.53,9.03-8.84,13.05-7.3,8.86-16.36,16.41-26.92,21.04-6.52,2.86-13.53,4.51-20.64,4.86-7.59.38-15.64-.43-22.81-3.06-4.61-1.69-8.97-4.4-11.75-8.54-2.04-3.05-3.04-6.7-3.13-10.35-.11-4.53,1.11-8.55,2.6-12.69.25-.71.38-1.48.55-2.21.2-.8-1.19-.71-1.57-.52-3.41,1.75-6.82,3.5-10.23,5.25-.92.47-1.94.77-2.24,1.83-.51,1.83-.89,3.7-1.21,5.56-1.09,6.41-1.52,13.57.85,19.75,1.75,4.56,5.34,7.88,9.49,10.29,5.44,3.17,11.64,4.92,17.8,6.01,8.19,1.45,16.58,1.66,24.87,1.15,8.06-.49,16.02-1.84,23.61-4.67,7.55-2.83,14.49-7.1,20.66-12.28,6.12-5.14,11.85-10.95,16.66-17.34,2.04-2.71,4.11-5.6,5.46-8.74.06-.13.12-.27.17-.4.11-.28.07-.53-.19-.72-3.77-2.6-7.53-5.2-11.3-7.79-.75-.52-2.68.53-1.68,1.22,3.77,2.6,7.53,5.2,11.3,7.79l-.19-.72c-.57,1.49-1.43,2.9-2.26,4.25-2.6,4.2-5.77,8.04-9.12,11.66-9.56,10.32-20.79,19.11-34.43,23.17-6.67,1.99-13.57,2.83-20.5,3.14-7.02.32-14.08.07-21.02-1.05-5.41-.87-10.84-2.27-15.78-4.67-3.61-1.76-7.11-4.1-9.48-7.4-3.13-4.36-3.67-10.18-3.48-15.38.15-4.27.81-8.55,1.9-12.68.06-.24.13-.48.2-.71l-.63.7c3.91-2.01,7.83-4.02,11.74-6.03-.52-.17-1.05-.34-1.57-.52-.12.48-.23.96-.35,1.44-.07.27-.17.61-.09.39-.05.14-.13.28-.19.42-.32.74-.6,1.51-.85,2.28-.92,2.77-1.52,5.66-1.65,8.59-.16,3.69.43,7.42,2.09,10.75,2.11,4.23,5.76,7.4,9.94,9.52,6.63,3.35,14.33,4.54,21.68,4.83,7.58.3,15.19-.71,22.39-3.13,11.79-3.97,22.1-11.4,30.42-20.57,3-3.31,5.74-6.84,8.22-10.56,1.23-1.85,2.5-3.75,3.48-5.76.05-.09.1-.19.14-.28.54-1.07-1.66-1.04-2.07-.21Z"/>
    </g>
  </g>
  <g id="Layer_5" data-name="Layer 5">
    <path class="cls-13" d="M764.78,728.01l.02.02c8.54,7.23,19.31,12.43,29.98,11.58,11.48-.91,22.39-7.16,28.15-15.55,5.23-7.61,5.1-9.14,8.94-17.56,3.4-7.45,5.96-23.85,7.56-32.04l17.7-124.11c-11.52.74-8.75-13.95-23.47-20.88,0,0-59.4,123.95-64.73,138.4-9.66,26.18-13.67,47.28-4.16,60.14Z"/>
    <path class="cls-13" d="M839.15,552.38c4.53,3.17,9.02,6.38,13.49,9.61.16-.51.31-1.03.47-1.53l2.39-6.4c.55-.73,9.24-12.22,13.21-17.11,1.13-2.61,1.69-5.39,1.64-8.2l-1.08-6.64c-.27.07-.4.02-.04-.26l-.08-.5c.37-.01.62,0,.79.04.04-.03.08-.05.13-.08l3.25-.89c2.1.52,8.82-3.93,9.99-5.61,1.58-2.08,4.39-7.15,6.42-10.49,3.71-6.11,5.62-8.93,5.62-8.93,0,0,5.93-7.52,6.16-11,.23-3.48-1.59-9.46-1.59-9.46,0,0,1.49-5.45.7-7.86-1.2-3.72-5.33-6.11-10.07-5.52-4.04.5-23.67,1.63-23.67,1.63l-3.06-3.87.88-12.36,11.3-2.07s6.61,3.73,12,2.59c1.9-.35,3.64-1.21,5-2.47.93-.93.87-2.38-.14-3.24-.09-.08-.2-.15-.3-.22-4.19-2.62-13.84-8.51-17.13-9.23-4.24-.93-21.93,4.31-23.6,6.42-.35.43-6.37,27.14-6.37,27.14-3.16,2.52-5.27,5.97-5.97,9.77-.89,6-8.19,54.73-8.19,54.73l-.06,9.69-5.21,11.95s2.37-6.72,2.19-6.46c4.92,3.25,6.13,3.45,10.95,6.82Z"/>
    <path class="cls-24" d="M869.9,462.59c-1.03-.41-2.65,0-3.72.05-1.89.09-3.76.08-5.65.03-4.87-.13-9.72-.25-14.38,1.39-.34.12-.83.48-.58.87s1.13.13,1.44.02c4.22-1.49,8.81-1.15,13.21-1.04,1.6.04,3.2.04,4.8-.03.79-.04,1.58-.08,2.37-.13.26-.01.54,0,.8-.04.32-.04.54.14-.02-.08.48.19,1.11.07,1.54-.2.26-.17.69-.65.19-.85h0Z"/>
    <path class="cls-24" d="M869.47,521.42c2.32.56,5.31-.49,7.34-1.54,2.76-1.42,5.2-3.73,7.26-6.03,2.17-2.41,3.93-5.17,5.57-7.96s3.32-5.61,4.18-8.81c.79-2.96.15-6-1.96-8.26s-5.26-3.64-8.15-4.39c-3.2-.83-6.53-1.17-9.69-2.18-3.31-1.06-6.08-3.01-9.21-4.43-3.34-1.51-6.69-2.08-10.28-1.2-1.7.42-3.36,1.04-4.9,1.88-1.07.58-2.58,1.53-2.77,2.84-.13.85,1.83.12,2.08-.17.18-.21.28-.52.45-.75.52-.71-1.63-.48-2,.03-.15.21-.29.56-.45.75.69-.06,1.39-.12,2.08-.17.19-1.26,1.78-1.99,2.81-2.47,1.38-.63,2.9-1.12,4.42-1.29,2.85-.32,5.88.93,8.33,2.27,2.51,1.38,4.94,2.79,7.69,3.67,2.65.85,5.44,1.26,8.16,1.84,5.08,1.1,11.45,3.83,11.57,9.91.05,2.79-1.37,5.84-2.75,8.2-1.43,2.44-2.83,4.9-4.45,7.22-1.69,2.43-3.64,4.65-5.9,6.57-1.31,1.12-2.7,2.2-4.32,2.82-1.09.42-2.59.85-3.76.57-.6-.15-2.53.79-1.36,1.07h0Z"/>
    <path class="cls-24" d="M870.32,520.63c-.15-1.46-.48-2.86-.86-4.27s-.7-2.97-1.06-4.45c-.7-2.86-1.42-5.84-2.59-8.54-.29-.67-2.42.02-2.17.58,1.17,2.7,1.89,5.68,2.59,8.54.36,1.48.67,2.97,1.06,4.45s.71,2.81.86,4.27c.06.6,2.25.15,2.17-.58h0Z"/>
    <path class="cls-24" d="M864.48,504.27c1.55-.38,2.7-1.69,3.34-3.12.49-1.1.01-2.5-.17-3.63l-2.17.58c.09.29.14.6.26.87.2.46.8.61,1.23.83,1.4.71,2.83,1.36,4.28,1.96,1,.42,2.01.84,3.04,1.2.81.28,1.57-.13,2.3-.45l-1.26-.46c-1.54,1.21-3.37,2.95-3.08,5.1.09.65,1.88,0,2.09-.32l.16-.24c.41-.63-.83-.51-1.12-.42-1.62.5-3.15,1.26-4.42,2.4-1.14,1.02-2.38,2.51-2.59,4.08-.1.71,2.07.31,2.16-.32.33-2.45,2.86-4.57,5.1-5.26l-1.12-.42-.16.24c.7-.11,1.39-.21,2.09-.32-.24-1.8,1.32-3.28,2.61-4.29.25-.2.33-.43.03-.59-.34-.18-.96-.02-1.28.12l-.88.38,1.28-.12c-2.87-1.12-5.7-2.29-8.43-3.72l.21.19-.31-1.01c-.19-.62-2.28-.08-2.17.58.14.89.43,1.83.35,2.74-.05.53-.33.96-.62,1.39-.2.29-.63,1.06-.97,1.14-.26.06-1.07.34-.97.74s.97.21,1.21.15h0Z"/>
    <path class="cls-24" d="M892.86,494.35c-.06.21-.09.42-.09.64-.07.79,1.94.19,2.16-.32,1.71-4.05,2.72-9.15,1.22-13.4-1.46-4.14-5.24-6.34-9.43-6.96-5.02-.74-10.13-1.09-15.19-1.6-4.55-.46-9.11-.93-13.67-1.33-4.45-.39-10.15-.93-13.83,2.21-.9.77,1.25.61,1.71.22,1.73-1.47,4.47-1.72,6.65-1.69,1.85.03,3.72.27,5.57.43,3.99.37,7.98.77,11.97,1.17,4.55.46,9.11.87,13.65,1.4,4.16.48,8.31,1.83,10.1,5.98,1.88,4.34.87,9.66-.92,13.89l2.16-.32c0-.22.04-.43.09-.64.14-.67-2.02-.32-2.16.32h0Z"/>
    <path class="cls-24" d="M901.16,474.59c-.82-3.58-3.34-6.82-6.05-9.21s-6.56-3.95-10.2-3.55c-.32.03-1.19.25-1.26.66-.07.44.66.36.9.33,1.66-.18,3.5.42,4.99,1.08s2.88,1.61,4.06,2.76c2.41,2.36,4.62,5.16,5.38,8.51.14.6,2.32.06,2.17-.58h0Z"/>
    <path class="cls-13" d="M769.47,738.05l13.43-9.47c2.28-1.59,4.95-2.53,7.73-2.72l27.08-1.73,29.59,23.69,8.61,3.63,2.54,38.04-18.32-1.07s-40.36,9.38-44.28,7.1c-3.92-2.28-11.04-8.91-11.04-8.91,0,0-21.71-5.53-23.92-7.26-8.36-6.59-5.28-8.48-5.28-8.48l-3.75-1.46c-.59,1.33-6.44-6.96-6.16-11.33.16-2.54-.58-2.48-.58-2.48-3.7-1.82-6.41-5.19-7.39-9.2-.55-2.55,11.11-6.6,11.11-6.6l24.98.73-4.35-2.48Z"/>
    <path class="cls-24" d="M780.54,756.54c-2.71.88-5.7,1.02-8.53,1.23-2.98.22-5.98.29-8.97.21s-5.7-.31-8.53-.67c-2.92-.37-5.84-.74-8.6-1.79-.61-.23-1.5.04-2.04.33-.32.18-.94.66-.32.9,2.92,1.11,6.03,1.5,9.12,1.89,3.26.41,6.54.64,9.83.7s6.53-.05,9.77-.34,6.28-.6,9.33-1.59c.37-.12,1.12-.49.83-.95-.27-.44-1.58-.01-1.89.09h0Z"/>
    <path class="cls-24" d="M788.52,769.9c-2.74.89-5.61,1.1-8.46,1.34-3.07.25-6.15.34-9.23.26-2.96-.07-5.92-.29-8.87-.66-2.94-.37-5.9-.74-8.69-1.81-1.04-.4-3.38,1.1-1.73,1.74,2.84,1.09,5.87,1.46,8.87,1.85,3.26.42,6.54.66,9.83.73,3.16.06,6.33-.03,9.49-.29,3.11-.26,6.26-.52,9.25-1.48.48-.16,1.4-.56,1.22-1.23-.17-.63-1.21-.6-1.67-.45h0Z"/>
    <path class="cls-24" d="M793.28,740.02c2.51-.25,5.05-.31,7.57-.15.64.04,1.47.12,2.19.24.14.02.27.05.41.08.1.02.43.14.1.02.05.02.14.03.18.06.1.09-.09-.06-.1-.07.07.06-.08-.19-.06-.11.22.91,3.13.16,2.9-.78-.11-.45-.95-.54-1.3-.61-.87-.17-1.75-.25-2.63-.31-2.94-.22-5.9-.13-8.83.17-.49.05-1.55.35-1.66.93-.12.62.88.57,1.23.53h0Z"/>
    <path class="cls-7" d="M798.08,738.9l-27.51-32.83c-2.02-2.42-5.08-3.74-8.23-3.53l-50.02,3.2c-2.01.13-3.53,1.86-3.4,3.87h0c.06.87.43,1.69,1.03,2.32l30.79,31.42h0l57.33-4.45Z"/>
    <path class="cls-20" d="M792.79,739.98c-.27-.21-.51-.44-.72-.7l-1.87-2.11-7.11-7.88-10.28-11.76-6.04-6.95c-1.06-1.14-2.41-1.96-3.91-2.38-.77-.21-1.56-.32-2.35-.32-.78.05-1.73.11-2.49.16l-34.65,2.07-10.52.53-2.86.18c-.34.03-.68.02-1.01-.02.32-.1.66-.15,1-.15l2.85-.27,10.5-.83,34.63-2.33c.87-.06,1.73-.11,2.56-.16.87,0,1.74.12,2.58.36,1.65.47,3.14,1.39,4.31,2.65l6.03,7.01,10.13,11.89c2.8,3.3,5.1,6.06,6.78,8.07.74.89,1.32,1.65,1.88,2.21.22.22.41.46.57.73Z"/>
    <path class="cls-24" d="M791.44,728.22c3.5-3.41,8.53-3.89,13.18-3.53,5.29.41,10.57,1.4,15.81,2.22,1.28.2,3-1.58,1.06-1.88-5.98-.94-12.12-2.26-18.19-2.33-5.16-.06-10.45,1.16-14.24,4.85-.48.46-.25,1.03.33,1.22.67.23,1.56-.07,2.05-.55h0Z"/>
    <path class="cls-21" d="M314.1,658.44c-7.02,3.73-13.69,4.95-20.93,8.09-.86.37-1.63,0-2.09-.59l9.73-49.52,66.54-246.01-32.52-7.35c-16.94,2.56-37.84,7.75-52.17,17.14-.88.58-1.76,1.17-2.63,1.78-11.26,7.84-19.86,18.09-28.73,28.51h0c-10.33,12.14-14.49,27.19-18.41,42.64-1.3,5.13-2.61,10.54-4.16,16.5-11.78,45.09-19.17,90.83-30.31,136.09-5.63,22.87-12.3,67.23-7.99,90.83,3.47,19,12.7,33.6,31.34,42.09,1.92.88,26.6,6.22,28.61,7.05,35.33,14.61,201.06,25.61,201.06,25.61l1.45-33.86-138.78-79Z"/>
    <path class="cls-3" d="M531.4,722.65c.25,1.58.5,3.17.75,4.75l1.17-1.13c-2.67.35-5.33.69-8,1.04-7.07.92-14.14,1.83-21.21,2.74-9.94,1.28-19.88,2.57-29.81,3.85-11.37,1.47-22.74,2.93-34.11,4.39s-22.69,2.91-34.04,4.35c-10.1,1.29-20.2,2.59-30.31,3.84-14.02,1.73-28.1,3.06-42.21,3.79-15.84.81-31.72.87-47.56-.08-8.38-.5-16.74-1.27-25.06-2.34s-16.66-2.58-24.98-3.96c-3.97-.66-7.95-1.44-11.69-2.98-1.28-.53-2.54-1.12-3.81-1.66-4.02-1.7-7.98-3.9-11.18-6.88-1.72-1.6-3.22-3.53-3.95-5.79-.34-1.04-2.51-.45-2.17.58,1.51,4.69,5.75,8.01,9.82,10.45,2.64,1.58,5.45,2.67,8.21,4,7.2,3.48,15.43,4.11,23.21,5.49,8.52,1.51,17.09,2.68,25.69,3.55,16.31,1.64,32.73,2.17,49.11,1.83,14.83-.32,29.64-1.36,44.39-2.92,11-1.16,21.96-2.63,32.93-4.02s22.34-2.85,33.5-4.28,23.24-2.98,34.86-4.48c10.62-1.37,21.23-2.74,31.84-4.11,8-1.03,16-2.07,24.01-3.1,3.94-.51,7.88-1.02,11.82-1.53.17-.02.35-.05.52-.07.58-.08,1.28-.44,1.17-1.13-.25-1.58-.5-3.17-.75-4.75-.17-1.06-2.35-.51-2.17.58h0Z"/>
    <path class="cls-3" d="M312.24,403.88c13.11,2.79,19.07,17.51,22.04,29.08,1.86,7.26,3.03,14.83,3.41,22.31.09,1.82-.05,3.64-.22,5.45-.56,6.08-1.61,12.11-2.69,18.11-1.52,8.42-3.23,16.8-5.02,25.17-2.09,9.83-4.29,19.64-6.55,29.43-2.37,10.31-4.81,20.61-7.29,30.9-2.38,9.87-4.79,19.73-7.23,29.59-2.11,8.5-4.23,16.99-6.38,25.48-1.57,6.2-3.14,12.39-4.73,18.58-.76,2.96-1.61,5.91-2.29,8.89-.03.13-.07.25-.1.38-.2.76,1.5.27,1.75.13.2-.11-.31.13-.1.05.14-.06.28-.11.42-.17.32-.13-.31.09.1-.03.15-.04.3-.09.46-.13.39-.11.78-.2,1.18-.28-.02,0-.15.03.15-.03.11-.02.23-.04.34-.06.33-.06.67-.11,1-.16.72-.11,1.44-.2,2.17-.27,2.03-.21,4.02-.31,6.11-.36,7.14-.17,14.3.26,21.42.88,12,1.04,23.94,2.7,35.83,4.6,21.58,3.45,43.2,6.48,64.89,9.14,20.29,2.49,40.61,4.77,60.94,6.91,7,.74,13.99,1.46,20.99,2.15,3.37.34,6.83.94,10.22,1,.15,0,.3.03.45.04l-.41-.26c.51,2.34,1.02,4.67,1.53,7.01.15.68,2.33.14,2.17-.58-.51-2.34-1.02-4.67-1.53-7.01-.03-.16-.28-.25-.41-.26-8.77-.83-17.54-1.73-26.31-2.64-19.87-2.06-39.72-4.26-59.55-6.65-21.72-2.62-43.43-5.4-65.03-8.89-20.26-3.27-40.82-6.62-61.4-6.62-4.07,0-8.2.12-12.23.77-1.43.23-3.04.48-4.36,1.12-.12.06-.24.11-.36.17l1.75.13c.54-2.07,1.07-4.14,1.61-6.21,1.43-5.55,2.85-11.09,4.26-16.64,2.06-8.12,4.1-16.24,6.13-24.36,2.41-9.67,4.79-19.35,7.14-29.04,2.51-10.36,4.99-20.73,7.4-31.11s4.61-20.04,6.8-30.09c1.91-8.8,3.76-17.62,5.43-26.46,1.24-6.56,2.43-13.15,3.22-19.79.26-2.17.48-4.36.54-6.55.13-5.02-.69-10.15-1.51-15.08-1.21-7.38-3.05-14.76-6.2-21.56-2.54-5.47-6.05-10.81-11.17-14.18-2.27-1.5-4.76-2.53-7.41-3.09-.64-.14-2.54.86-1.35,1.11h0Z"/>
    <path class="cls-13" d="M532.55,721.65l16.44-3.36s48.42,14.76,62.78,13.65c10.34-1.24,20.47-4.09,30.09-8.47l12.22,2.91c5.63,1.34,11.48.46,16.56-2.49l3.91-2.28s14.47,8.22,17.04,3.34c2.57-4.88-2.14-9.55-6.72-14.08-4.57-4.53-95.92-43.42-95.92-43.42,7.93-3.99,23.05-2.86,31.48-5.26,12.97-3.59,16.69-10.26,10.66-14.99-3.72-2.92-14.65-4.45-21.51-.36-6.83,4.07-41.56-2.32-54.17,3.36-12.61,5.68-20.64,24.46-20.64,24.46-1.03.63-10.2,1.06-10.2,1.06-.34,1.89,7.99,45.93,7.99,45.93Z"/>
    <path class="cls-22" d="M673.73,720.99c-5.6-2.52-11.62-4.23-17.46-6.09-7.17-2.28-14.36-4.47-21.46-6.95-2.86-1-5.76-2.01-8.47-3.35-.65-.32-2.22.57-1.38.99,5.51,2.73,11.56,4.49,17.39,6.37,7.25,2.34,14.55,4.54,21.77,6.97,2.89.97,5.8,1.95,8.58,3.2.7.31,2.05-.69,1.04-1.14h0Z"/>
    <path class="cls-22" d="M640.02,722.31c-9.7-2.29-19.4-4.57-29.1-6.86-1.37-.32-2.73-.64-4.1-.97-.92-.22-1.76,1.1-.59,1.37,9.7,2.29,19.4,4.57,29.1,6.86,1.37.32,2.73.64,4.1.97.92.22,1.76-1.1.59-1.37h0Z"/>
    <path class="cls-3" d="M297.99,645.53c-4.23-.3-7.99,1.63-11.66,3.48s-6.93,3.79-9.78,6.61c-5.37,5.31-8.57,12.34-11.62,19.13-.52,1.16,1.67,1.21,2.09.29,2.78-6.18,5.64-12.54,10.28-17.59,2.51-2.73,5.5-4.75,8.78-6.45s7.21-4.1,11.18-3.82c.51.04,1.21-.14,1.41-.68.18-.48-.17-.93-.68-.97h0Z"/>
  </g>
</svg>