<?xml version="1.0" encoding="UTF-8"?>
<svg xmlns="http://www.w3.org/2000/svg" xmlns:xlink="http://www.w3.org/1999/xlink" viewBox="0 0 1334 1000">
  <defs>
    <style>
      .cls-1 {
        fill: #622515;
      }

      .cls-2 {
        fill: #625422;
      }

      .cls-3 {
        fill: #271810;
      }

      .cls-4 {
        fill: #273339;
      }

      .cls-5 {
        fill: #132046;
      }

      .cls-6, .cls-7 {
        fill: #010101;
      }

      .cls-8 {
        fill: #653c29;
      }

      .cls-9 {
        fill: #ababab;
      }

      .cls-10 {
        fill: #f1edf6;
      }

      .cls-11 {
        fill: #4b6199;
      }

      .cls-12 {
        fill: #a66f53;
      }

      .cls-13 {
        fill: #f0e9d1;
      }

      .cls-14 {
        fill: #0a1928;
      }

      .cls-15 {
        fill: #100e0d;
      }

      .cls-16 {
        fill: #a66e53;
      }

      .cls-7 {
        stroke: #171413;
        stroke-miterlimit: 10;
        stroke-width: .13px;
      }

      .cls-17 {
        fill: url(#linear-gradient);
        opacity: .5;
      }

      .cls-18 {
        fill: #646464;
      }

      .cls-19 {
        fill: #ccb631;
      }

      .cls-20 {
        fill: #4f2f26;
      }

      .cls-21 {
        fill: #3f535a;
      }

      .cls-22 {
        fill: #552d23;
      }

      .cls-23 {
        fill: #8e6528;
      }

      .cls-24 {
        fill: #a53b23;
      }

      .cls-25 {
        fill: #4f4f80;
      }

      .cls-26 {
        fill: #4f2e25;
      }

      .cls-27 {
        fill: #89772e;
      }
    </style>
    <linearGradient id="linear-gradient" x1="2142.84" y1="-105.85" x2="3325.78" y2="-105.85" gradientTransform="translate(764.31 -2485.34) rotate(90) scale(1 -1)" gradientUnits="userSpaceOnUse">
      <stop offset="0" stop-color="#eeeadf"/>
      <stop offset=".18" stop-color="#ece7dc" stop-opacity=".99"/>
      <stop offset=".33" stop-color="#e6e0d3" stop-opacity=".97"/>
      <stop offset=".47" stop-color="#dcd3c4" stop-opacity=".93"/>
      <stop offset=".6" stop-color="#cec1af" stop-opacity=".88"/>
      <stop offset=".72" stop-color="#bcaa94" stop-opacity=".82"/>
      <stop offset=".84" stop-color="#a68d72" stop-opacity=".73"/>
      <stop offset=".96" stop-color="#8d6c4c" stop-opacity=".64"/>
      <stop offset="1" stop-color="#83603d" stop-opacity=".6"/>
    </linearGradient>
  </defs>
  <g id="Layer_1" data-name="Layer 1">
    <polyline class="cls-13" points="1452.38 842.19 1452.38 -332.17 -139.99 -332.17 -139.99 842.19"/>
    <polyline class="cls-17" points="1454.64 836.53 -137.72 836.53 -137.72 -346.41 1454.64 -346.41"/>
  </g>
  <g id="Layer_4" data-name="Layer 4">
    <path class="cls-21" d="M844.54,1526.75c.93-23.29,1.83-46.59,2.55-69.89,1.64-53.61,56.65-107.2,56.65-160.83l-12.44-775.16-720.16-2.03c-155.93.03-181.88,55.49-185.79,241.35-14.11-10.85-155.85-8.91-197.75-8.91-61.55,6.03-90.48,83.67-95.76,190.66l-3.57,141.76-2.01.76c-33.94,20.41-53.14,49.99-53.21,95.31v118.26c.13,29.41,16.66,55.13,40.45,62.91v165.81H844.54Z"/>
    <path class="cls-21" d="M1631.4,1085.56l-2.01-.76-3.57-141.76c-5.28-106.99-34.2-184.64-95.76-190.66-41.9,0-183.64-1.94-197.75,8.91-4.49-202.15,16.29-241.35-287.32-241.35l-334.68.81c-3.57,82.04-13.31,71.02-25.39,152.23-15.15,101.87,14.52,203.12-1,304.93-7.8,51.17,59.56,102.71,52.96,154.04-6.73,52.3-13.54,104.58-20.15,156.89-10.06,79.55-19.71,159.22-28,239.01h955.42v-165.81c23.79-7.78,40.32-33.5,40.45-62.91v-118.26c-.07-45.32-19.27-74.9-53.21-95.31Z"/>
    <path class="cls-19" d="M713.68,748.07c-2.68-6.58,4.63,3.43,3.57-3.6-.97-6.45,1.52-19.19,1.89-25.7.73-12.76,4.51-4.64,8.88-16.63,6.39-17.52,16.73-12.99,30.04-26.46-18.66-33.16-105.82-212.28-121.12-229.23-10.08-11.18-12.47-18.92-23.54-24.13l-49.21-30.97.26,30.13c-23.86,30.46-46.78,16.57-38.43,50.94,5.95,24.5,6.18,36.19,18.16,58.37,25.06,46.41,54.25,89.97,79.96,136.02,12.99,23.27,36.95,66.18,58.73,82.38,10.6,7.88,26.37,16.3,42.04,20.11-.66-1.44-10.62-19.75-11.22-21.23Z"/>
    <path class="cls-19" d="M712.77,660.41c-8.5,9.74,1.53,36.97-4.04,48.62-5.33,11.15-7.45,9.88-9.19,22.14-.96,6.74,9.15,4.02,9.78,10.81.64,6.96-8.8-9.08-6.69-2.42.08.24,6.99,24.47,7.07,24.71,8.49,2.93,19.79,7.09,27.61,5.89,25.78,2.4,78.78-11.74,80.76-13.82,59.83-19.07,147.22-23.02,189.92-40.28l16.6-25.69,3.76-21.06,12.37-32.9-1.62-8.27s-75.78,7.46-145.86,16.17c-59.88,7.45-156.88,5.52-156.88,5.52"/>
    <path class="cls-12" d="M755.27,802.64c9.72-31.92,4.33-58.17-9.31-87.17l-207.2-59.01-1.51,23.17-23.72,18.09c50.29,31.04,152.45,76.8,211.77,101.01,10.56,4.31,19.83,2.93,27.42,3.65.85.13,1.71.21,2.56.27Z"/>
    <path class="cls-12" d="M825.29,576.25l-29.33,50.72-56.73,88.98c7.81,31.52,4.03,54.54-10.86,84.35,16.03,7.48,37.58,4.81,45.19.55,20.72-11.57,39.84-34.43,51.59-51.31,1.89-2.72,33.32-58.97,33.32-58.97l-3.73.54c3.03-4.08,5.14-6.9,5.85-7.79,11.61-14.63,8.3-.87,36.5-47.99l-71.81-59.08Z"/>
    <path class="cls-12" d="M1027.18,424.78s-18.71,57.03-16.09,78.27c.63,5.15,24.36,24.9,24.36,24.9l-130.15,35.52-33.17-48.85s32.94-17.95,35.85-23.34c2.91-5.39,12.65-57.67,12.65-57.67"/>
    <path class="cls-22" d="M911.02,476.4s23.3,5.9,30.16,5.98c6.86.08,18.66-.07,55.3-16.79,0,0-17.83,25.46-53.04,24.58,0,0-32.01-3.08-33.55-8.58l1.12-5.19Z"/>
    <path class="cls-7" d="M887.83,299.08s0,0,0,0c-.69-12.11-.42-19.45,4.16-26.87,3.23-5.24,13.83-9.29,13.83-9.29,0,0,5.34-16.56,12.29-12.76,0,0,11.6-21.21,32.04-11.17,0,0,6.89-.44,9.74,4.5,0,0,13.9-17.49,29.85-.35,0,0,8.08-3.37,9.36,2.99,0,0,14.81-9.8,25.16,2.49,0,0,32.47-.26,36.2,21.55,0,0,16.68-5,21.61,11.46,0,0,7.72,2.19,5.57,13.48,0,0,11.02,5.87,10.67,13.48,0,0,5.66,6.87,2.92,18.59-.78,3.35-1.69,2.24-3.64,6.6,3.85,14.74-6.32,14.42-6.32,14.42,7.61,14.47-8.03,27.55-8.03,27.55,0,0,3.11,10.68-.83,16.34-5.38,7.74-22.9,13.96-22.9,13.96,0,0,.64-23.55,4.32-37.84,3.67-14.29-2.83-41.72-5.53-47.91-2.7-6.19-31.61-1.65-72.97-9.64-41.36-8-48.2-17.29-53.39-16.87-10.77.86-26.6,36.8-28.5,48.24-1.9,11.43-9.38,32.24-9.38,32.24,0,0-20.1-14-10.54-31.95,0,0-4.58-15.18-.17-22.93,0,0,.99-3.38,3.44-4.72-.03-.04-5.84-9.96,1.06-15.58Z"/>
    <path class="cls-12" d="M1005.26,459.28c-19.99,15.9-38.48,25.12-62.74,25.88-23.8.74-46.66-12.4-49.27-16.35-14.36-21.66-18-36.28-20.84-59.25-.77-6.23.14-12.67,1.67-19.15,2.29-9.72,7.38-28.23,8.85-37.64,3.75-23.97,10.12-45.19,26.74-63.02,34.62-37.14,99.84-25.05,122.1-9.35,26.03,18.36,34.11,47.94,30.85,77.36-1.07,9.59-3.56,18.31-7.34,26.13-4.79,3.76-9.12,8-12.96,12.62"/>
    <g>
      <path class="cls-6" d="M909.25,292.2s-2.22,1.53-20.02,30.82c4.75-9.48,8.95-24.21,19.19-36.81,35.74-44.01,120.66-22.52,142.61-4.88,25.66,20.62,30.77,53.94,26.72,88.17-1.64,13.9-4.41,29.76-10.16,40.53-3.81,9.92-14.56,12.4-14.56,12.4,0,0-13.09-16.23-24.45-.88l-1.61-7.64s-7.48-18.26.87-58.92c0,0,2.89-17.32,4-22.48,3.43-15.9-10.45-14.86-20.09-13.91-6,.59-18.56-.59-24.45-1.74-15.04-2.96-33.71-8.72-40.8-9.88-9.96-1.63-37.25-14.78-37.25-14.78Z"/>
      <path class="cls-6" d="M909.1,292.18c-.14.1-.26.26-.38.39-.51.59-.98,1.23-1.44,1.86-3.05,4.19-5.81,8.59-8.58,12.96-3.27,5.18-6.48,10.39-9.66,15.63l.37-.03c2.85-5.7,5.02-11.71,7.66-17.5,3.19-7.01,6.96-13.79,11.89-19.74,3.37-4.07,7.29-7.69,11.59-10.76,4.29-3.06,8.96-5.58,13.83-7.59,4.92-2.03,10.05-3.55,15.25-4.65,5.33-1.13,10.75-1.81,16.19-2.15,5.49-.34,10.99-.32,16.48,0,5.39.31,10.76.9,16.09,1.74,5.13.81,10.21,1.85,15.25,3.12,4.64,1.17,9.23,2.54,13.75,4.13,3.98,1.4,7.9,2.97,11.71,4.79,3.14,1.49,6.21,3.14,9.09,5.09,4.38,2.96,8.29,6.71,11.73,10.7,4.33,5.03,7.9,10.69,10.65,16.73,2.75,6.02,4.7,12.38,6.01,18.86,1.36,6.78,2.03,13.7,2.18,20.61.16,7.27-.24,14.55-1.04,21.77-.86,7.73-2,15.46-3.75,23.05-.85,3.67-1.85,7.31-3.1,10.86-1.14,3.23-2.58,6.33-4.07,9.41-2.27,4.71-6.53,8.15-11.32,10.08-.8.32-1.63.63-2.47.83h.2c-1.51-1.86-3.44-3.49-5.44-4.79-3.49-2.27-7.71-3.48-11.77-2.09-3.16,1.08-5.64,3.46-7.6,6.09l.37-.06c-.25-1.19-.5-2.38-.75-3.57-.28-1.32-.48-2.7-.84-4-.15-.54-.37-1.06-.53-1.6-1.34-4.51-1.94-9.25-2.28-13.92-.72-9.84-.07-19.77,1.27-29.53.45-3.29.99-6.57,1.6-9.84.3-1.62.66-3.24.93-4.87.56-3.32,1.12-6.63,1.7-9.95.65-3.74,1.29-7.48,2.05-11.2.75-3.62,1.31-7.86-1.07-11.03-1.93-2.58-5.26-3.49-8.33-3.81-3.5-.36-7.03-.05-10.52.29-4.83.47-9.77.06-14.59-.39-5.04-.47-9.97-1.27-14.9-2.37-10.81-2.4-21.41-5.61-32.2-8.09-1.54-.35-3.1-.61-4.64-.93-1.58-.33-3.14-.8-4.68-1.29-3.91-1.26-7.74-2.77-11.53-4.34-6.4-2.64-12.73-5.49-18.98-8.46-.36-.17-.71-.34-1.07-.51-.1-.05-.45.1-.31.17,4.69,2.26,9.45,4.41,14.23,6.49,3.95,1.72,7.92,3.38,11.95,4.9,3.28,1.24,6.63,2.47,10.07,3.2,1.51.32,3.03.57,4.54.91,2.22.51,4.42,1.07,6.63,1.64,5.58,1.45,11.14,2.95,16.73,4.35,5.38,1.35,10.8,2.73,16.29,3.58,4.99.78,10.04,1.24,15.09,1.43,2.23.08,4.47.12,6.69-.06,1.76-.15,3.51-.34,5.27-.43,3.43-.17,7.14-.18,10.36,1.18,1.42.6,2.7,1.5,3.61,2.75,1.06,1.45,1.51,3.25,1.61,5.02.12,2.17-.31,4.26-.74,6.37-.35,1.72-.66,3.45-.97,5.18-.72,4.01-1.42,8.02-2.1,12.04-.54,3.15-1.15,6.28-1.72,9.43-1.95,10.77-3.15,21.75-2.91,32.71.13,5.85.62,11.78,2.01,17.48.26,1.08.55,2.16.93,3.2.05.14.1.28.14.42.36,1.37.59,2.79.88,4.18.23,1.11.47,2.22.7,3.33.03.12.33,0,.37-.06,1.79-2.4,4.02-4.62,6.84-5.75,2.13-.85,4.45-.95,6.66-.41,3.43.84,6.47,2.96,8.98,5.39.56.55,1.12,1.11,1.61,1.72.04.05.16.02.2,0,2.93-.68,5.8-2.22,8.19-4.01,2.22-1.67,4.12-3.76,5.47-6.2.4-.72.71-1.47,1.04-2.22s.78-1.53,1.14-2.3c.75-1.59,1.42-3.22,2.03-4.88,2.7-7.32,4.31-15.02,5.54-22.71,1.2-7.45,2.1-14.96,2.5-22.49.38-7.16.3-14.36-.42-21.51s-1.97-13.61-4.03-20.16c-2-6.35-4.76-12.48-8.34-18.1-3.62-5.69-8.08-10.83-13.2-15.23-2.7-2.32-5.61-4.3-8.72-6.04-3.43-1.91-7.01-3.56-10.65-5.04-4.26-1.73-8.62-3.23-13.03-4.55-4.84-1.44-9.75-2.66-14.71-3.66-5.28-1.07-10.61-1.89-15.97-2.45-5.46-.57-10.95-.86-16.43-.83-5.48.03-10.97.38-16.4,1.13-5.34.74-10.63,1.86-15.78,3.45-5.01,1.56-9.89,3.56-14.48,6.1-4.6,2.54-8.91,5.6-12.76,9.18-4.82,4.48-8.82,9.74-12.15,15.41-3.68,6.27-6.49,12.96-9.3,19.65-1.13,2.68-2.26,5.37-3.56,7.98-.05.09.32.05.37-.03,4.73-7.78,9.48-15.55,14.5-23.14,1.6-2.43,3.18-4.94,5.05-7.17.13-.16.34-.41.44-.48.17-.12-.22-.1-.3-.04Z"/>
    </g>
    <path class="cls-12" d="M1017.62,438.81c9.96,14.52,23.94-.47,23.94-.47,14.1-12.09,16.64-27.09,17.95-37.42,1.31-10.33-10-12.09-10-12.09-9.76-.58-8.6.78-26.21,25.85"/>
    <path class="cls-6" d="M969.16,376.69c3.05-.83,6,1.09,7.45,3.07.34.46,1.25,1.78,1.39,3.7.18,2.45-1.3,4.87-3.09,6.15-2.39,1.71-5.69,1.38-7.92-.31-3.02-2.29-3.24-6.56-1.78-9.32.27-.5,1.48-2.61,3.94-3.29"/>
    <path class="cls-6" d="M952.07,385.38s12.51-11.01,22.76-8.87c14.42,3,16.11,11.36,18.37,16,0,0-7.28-11.29-18.48-13.36-10.16-1.88-22.64,6.24-22.64,6.24Z"/>
    <path class="cls-6" d="M898.48,361.47c-2.26-1.98-5.52-1.4-7.53-.17-.48.29-1.76,1.13-2.64,2.83-1.13,2.17-.82,4.97.19,6.85,1.35,2.51,4.28,3.53,6.83,2.88,3.46-.89,5.34-4.71,5.19-7.81-.03-.57-.22-2.98-2.04-4.58"/>
    <path class="cls-6" d="M914.03,377.48s-5.44-14.76-14.3-16.62c-12.46-2.62-17.08,4.42-20.67,7.83,0,0,10.15-7.65,19.72-5.38,8.69,2.06,15.24,14.16,15.24,14.16Z"/>
    <g>
      <path class="cls-6" d="M917.04,415.31c2.39,1.95,6.54,2.45,9.57,1.32.67-.25,2.59.51,1.65.87-4,1.49-9.9.51-12.99-2.01-.31-.25-.19-.5.27-.56.48-.06,1.18.11,1.5.38"/>
      <path class="cls-6" d="M929.58,416.96c1.97-.49,4.08-.53,6.12-.28.3.04.66.23.83.46.14.19.13.4-.11.48-1.03.35-2.26.33-3.35.09-.34-.08-.78-.25-.91-.59-.12-.31.24-.42.51-.36.89.2,1.85.21,2.7-.08.24.32.48.63.73.94-1.83-.23-3.71-.17-5.47.26-.35.09-.79-.1-1.04-.33-.19-.17-.36-.51,0-.6"/>
      <path class="cls-6" d="M937.52,418.83c2.37.42,5.34-.05,6.86-1.59,2.29-2.33,1.55-7.17-1.04-9.48-.28-.25-.06-.46.27-.46.44,0,.91.25,1.2.52,2.26,2.01,3.18,6.1,2.29,8.54-.83,2.28-3.42,3.47-6.37,3.58-.88.03-1.8-.01-2.68-.17-.36-.06-.98-.3-1.1-.62-.12-.32.23-.38.57-.32"/>
      <path class="cls-6" d="M912.97,413.23c.18-.25-.02-.47-.21-.51-.64-.11-1.25-.42-1.71-.97-.26.21-.52.43-.78.64,1.25.4,2.44,1.08,3.42,2.07.2.2.54.17.78.04.18-.1.4-.36.2-.56"/>
      <path class="cls-6" d="M914.69,413.94c-1.1-1.11-2.44-1.85-3.83-2.3-.2-.06-.5,0-.69.16-.15.13-.22.33-.08.48"/>
      <path class="cls-6" d="M908.02,412.56c-1.52-.37-3.11-1.76-3.51-3.69-.6-2.91,1.1-5.89,3.36-7.21.25-.14.18-.41-.01-.52-.26-.15-.61-.05-.87.1-1.97,1.16-3.53,3.37-3.79,5.93-.24,2.4.9,4.34,2.59,5.39.5.31,1.06.57,1.63.71.23.05.67.03.84-.22.17-.26-.02-.43-.23-.48"/>
    </g>
    <path class="cls-6" d="M960.99,342.57c-1.06,2.09-2.12,4.18-3.18,6.28-.81,1.6-1.61,3.2-2.4,4.79,5.38,1.04,12.36,3.35,15.68,4.32,6.59,1.91,13.22,4.38,18.79,8.49,2.67,1.96,4.81,4.07,6.42,6.91.51.9,1.46,4.15,2.89,4.17.59,0,1.12-2.95,1.18-3.26,1.06-5.98-1.95-10.22-6.35-14-8.96-7.71-19.4-12.67-30.52-16.54"/>
    <path class="cls-6" d="M881.84,347.99c.25-1.48.36-2.97.24-4.49,1.02-.63,2.1-1.22,3.26-1.74,10.59-4.84,21.82-6.62,33.41-7.16.43,2.3.85,4.61,1.28,6.92.32,1.76.64,3.52.96,5.28-5.37-.54-9.91-.69-13.32-.71-6.76-.04-13.71.43-20.1,2.78-1.85.68-3.53,1.48-5.08,2.49l-.64-3.37Z"/>
    <path class="cls-10" d="M922.26,431.37c4.9.77,19.57,3.51,19.57,3.51,0,0-6,4.35-20.7,2.05-14.7-2.3-18.77-8.02-18.77-8.02l19.9,2.46Z"/>
    <path class="cls-22" d="M1031.88,414.85c2.98-4.45,6.15-8.84,9.84-12.74,1.73-1.83,3.85-3.86,5.93-4.98.32-.17.65-.33.99-.47.36-.16-.05,0,.21-.08.14-.04.29-.08.43-.13.09-.03.18-.04.27-.06-.42.09-.07.02.03,0,.08-.01.16,0,.24-.02.09,0,.24-.05-.14,0,0,0,.12,0,.12,0,.05-.19.51.44,0-.02.19.17.19-.72-.29-.22.03-.03,1.24,1.74,1.29,1.84,2.62,4.49,2.51,9.88.56,14.6-.47,1.13,1.71,1.09,2.07.22,1.94-4.71,2.24-9.94-.01-14.59-.52-1.07-1.33-3.13-2.69-3.36-1.08-.18-2.27.22-3.24.64-2.32,1.02-4.32,2.77-6.13,4.51-4.46,4.32-8.12,9.47-11.56,14.61-.31.46.27.83.65.88.56.08,1.11-.2,1.42-.66h0Z"/>
    <path class="cls-22" d="M1031.55,418.49c4.23.66,2.61,5.1,1.58,7.86-.48,1.3-3.04,6.61-.1,6.87,3.81.34,6.12-5.31,7.34-7.97,1.38-3.01,2.33-5.69,2.54-8.97.25-3.97-.33-8.76-4.06-11.01-.52-.31-2.29.58-2.05.73,3.08,1.86,3.92,5.58,3.98,8.95.04,2.3-.15,4.68-.96,6.85-.93,2.5-2,4.96-3.35,7.27-.48.83-1,1.65-1.61,2.39-.24.29-.49.58-.77.82-.05.04-.33.21-.35.27-.32.19-.06.13.78-.17-.05-.02-.09-.05-.13-.08-.14-.45-.51-.68-.55-1.23-.05-.63.12-1.28.3-1.88.44-1.54,1.09-3,1.6-4.51.47-1.38,1.02-3,.74-4.49-.29-1.59-1.66-2.27-3.14-2.5-.48-.08-1.08.06-1.52.29-.15.08-.77.45-.28.53h0Z"/>
    <path class="cls-9" d="M453.87,109.44c9.17-9.08,21.83-14,33.38-8.6,3.64-23.79,29.05-33.73,52.86-30.23,12.14,2.35,23.68,10.03,35.87,8.03,7.61-1.24,14.01-5.9,20.96-9.52,28.99-14.5,65.39,14.66,83.03,41.87,17.65,27.22,7.66,52.36-8.72,80.32-7.61,13-8.11,20.72-12.3,35.31-3.96,13.76-17.02,38.33-19.63,52.22s16.59,32.3,2.34,30.93l-149.82-44.94c-23.53.49-36.83-8.95-44.94-31.03-5.19-14.95-2.55-15.13-.82-30.81,1.76-20.61-16.17-39.49-11.38-59.61,2.61-12.71,10.53-24.26,19.16-33.94Z"/>
    <path class="cls-24" d="M435.02,105.25s57.52-16.92,124.43,2.65c66.92,19.57,92.87,67.25,99.52,99.34,6.65,32.09-11.61,61.38-11.61,61.38,0,0,16.25,7.63,38.39-51.78,32.29-86.6-49.69-156.68-71.82-160.27-22.12-3.59-130.95-46.26-178.91,48.69Z"/>
    <path class="cls-16" d="M467.62,262.37s-6.89,63.07-33.18,88.6c-4.1,3.98-54.71,17.91-54.71,17.91l60.3,32.85c26.53,11.32,92.41,51.07,120.84,46.24l21.5-38.21s-26.8-19.61-27.01-26.34c-.21-6.73,13.55-54.94,13.55-54.94"/>
    <path class="cls-26" d="M556.39,379.55s-11.04-3.95-18.49-7.59c-7.44-3.64-20.97-5.63-51.4-43.62,0,0,3.56,40.51,48.22,57.22,0,0,11.48,4.68,19.67,4.21l2-10.21Z"/>
    <path class="cls-16" d="M639.84,152.47c.13.16.28.32.42.49-.12-.3-.24-.61-.3-.91l-.12.43ZM658.22,161.67c.21.34.46.69.71,1.04l.1-.35s-.69-1.11-.81-.68ZM482.47,323.03c13.21,23.53,32.3,49.07,73.47,58.98,10.38,2.5,20.52,3.85,31.19-6.91,10.79-10.88,19.07-14.23,30.28-24.01,10.75-9.37,16.04-15.58,23.01-27.98,7.21-12.82,8.15-16.46,10.34-30.61.98-6.32,3.02-15.75,5.05-21.53,2.34-6.67,12.61-32.69,17.43-48.29,4.82-15.6.33-48.69.33-48.69.25-4.51-6.22-3.85-7.6-7.89l-1.85-.51s.81.68.45,1.96c-2.25-1.01-4.24-2.93-5.64-4.84l-.02.07c-3.13.51-5.56-1.54-7.29-4.3-.12.43.11,1.4.57,1.53-2.9-.34-5.32-2.39-6.7-4.6-.12.43.11,1.4,0,1.83-2-.97-3.8-2.64-5.24-4.28.27.68,11.17,1.94,11.09,2.24-2.89-.34.03,1.46-1.7-1.3l-1.86-2.22c-2.44-.22-2.73,1.2-4.12-1.01.34.55.02-5.03-.1-4.61-2.78-.77-1.97-.74-3.93-2.66-.12.42-8.34.67-8.45,1.09-2.31-.64-2.29,1.65-3.67-.56.35.55,2.17-1.32,2.51-.77-2.89-.34-4.43,1.15-6.16-1.61.34.55-7.87-7.2-7.87-7.2-2.9-.35-2.67.66-4.51-1.68.69,1.11-12.6-4.34-12.38-3.36-2.31-.64,2.07,9.71.58,7.92-.12.43-4.97-2.75-4.97-2.75-2.44-.21.45,2.87-.93.66-.12.42,0,1.83.46,1.96-3.13.51-6.14-1.24-8.45-3.71.69,1.11.92,2.09,1.26,2.64-2.32-.64-4.28-.73-6.13-3.07-.12.42.45,1.96.92,2.08-2.55.21-5.21-.98-7.17-2.9-.12.42.57,1.53.91,2.08-1.96-.09-3.82-.6-5.32-2.39l.92,2.08c-1.85-.51-3.47-.05-6.02-1.67-.12.42.69,1.11.58,1.53-1.39-.38-3.24-.9-4.51-1.71-.12.43,1.04,1.66.57,1.53-1.85-.51-3.48-.05-5.55-1.54.34.55.57,1.53.92,2.08-1.85-.51-3.82-.6-5.44-1.96-.12.43.11,1.4.46,1.96-1.85-.51-3.48-.05-5.56-1.54-.12.42.57,1.53.92,2.08-1.86-.51-3.83-.6-5.56-1.54-.12.43.69,1.11,1.04,1.66-1.85-.51-3.82-.6-5.9-2.09-.24.85.11,1.4,0,1.83-1.39-.38-2.2-1.06-3.58-1.45l-2.55.21c-8.83,6.71-31.26-6.89-31.26-6.89-17.53,7.5-14.54,71.53-16.32,79.73-1.77,8.2-6.98,9.18-6.98,9.18-1.49-3.61-6.75,4.4-7.2.62-.57-3.36,1.42-6.93.85-10.29-2.28-7.95-12.13-8.39-18.4-5.55l-1.24,1.16c-9.74,7.65-10.25,39.65-7.43,49.97-3.43,18.49,9.87,32.35,22.39,21.75l.57,7.74"/>
    <g>
      <path class="cls-6" d="M588.6,303.06c-3.9.83-8.99-1.02-11.85-4.09-.63-.68-3.3-.93-2.41.03,3.77,4.05,11.17,6.38,16.21,5.31.5-.11.51-.46.02-.8-.52-.35-1.43-.56-1.96-.44"/>
      <path class="cls-6" d="M573.13,297.61c-2-1.71-4.41-2.99-6.92-3.9-.37-.13-.89-.13-1.24.04-.27.13-.39.38-.15.62,1,1,2.43,1.7,3.82,2.06.44.11,1.05.16,1.39-.14.32-.28-.04-.62-.38-.71-1.15-.3-2.26-.85-3.08-1.67-.46.22-.92.44-1.39.66,2.25.81,4.4,1.98,6.18,3.51.35.31.98.34,1.4.23.32-.09.71-.38.36-.69"/>
      <path class="cls-6" d="M562.85,295.11c-2.98-.91-6.15-3.18-7.01-5.84-1.29-4.01,2.27-8.81,6.62-9.94.47-.12.34-.49-.05-.69-.51-.26-1.2-.24-1.69-.11-3.79.99-7.13,4.82-7.52,8.14-.36,3.1,1.93,5.98,5.29,7.83,1,.55,2.09,1.04,3.2,1.38.45.14,1.31.23,1.63-.07.33-.3-.05-.57-.47-.7"/>
      <path class="cls-6" d="M594.53,303.07c-.07-.39.29-.53.53-.46.81.25,1.7.25,2.54-.12.18.4.35.79.53,1.19-1.67-.27-3.45-.19-5.17.37-.34.11-.72-.13-.92-.42-.15-.21-.25-.65.09-.76"/>
      <path class="cls-6" d="M592.13,302.87c1.92-.63,3.9-.69,5.77-.39.27.05.58.28.71.58.1.24.06.5-.18.61"/>
      <path class="cls-6" d="M600.65,305.2c1.97.47,4.63-.2,6.21-2.18,2.39-2.99,2.16-7.4.32-10.24-.2-.31.03-.58.32-.59.38-.02.74.3.95.62,1.6,2.48,2.13,5.93.93,9.03-1.12,2.89-3.57,4.45-6.14,4.67-.77.06-1.55.03-2.29-.14-.3-.07-.79-.35-.84-.75-.05-.4.27-.48.55-.41"/>
    </g>
    <path d="M636.53,252.62c2.94-.62,5.95,1.38,7.22,3.34.3.46.76,1.74.79,3.56.04,2.33-1.5,4.54-3.27,5.65-2.36,1.49-5.47.99-7.49-.73-2.73-2.33-2.71-6.4-1.17-8.93.28-.46,1.54-2.4,3.91-2.9"/>
    <path d="M611.21,254.84s15.24-6.39,21.81-5.25c9.59,1.65,19.66,10.01,21.69,15.56,0,0-13.08-11.95-19.87-12.92-6.49-.93-23.62,2.61-23.62,2.61Z"/>
    <path d="M558.36,232.02c-2.2-2.04-6.44-2.82-8.53-1.79-.49.24-1.83.94-2.8,2.5-1.23,1.98-1.05,4.67-.1,6.53,1.26,2.49,4.18,3.66,6.79,3.22,3.55-.6,5.61-4.09,5.59-7.06,0-.54.77-1.37-1-3.03"/>
    <path d="M572.69,243.39s-11.65-12.9-18.54-15.02c-10.06-3.1-23.81-.51-28.43,3.42,0,0,18.38-4.33,25.41-1.95,6.72,2.27,21.56,13.55,21.56,13.55Z"/>
    <path class="cls-9" d="M666.98,244.63c.03-.08.05-.15.07-.23-.31-.87-.57-1.43-.62-1.55,0,0-1.98-4.4-6.69-8.86-3.25-3.08-13.3-9.84-28.02-16.48-.99,1.69-1.98,3.4-2.97,5.1-.75,1.3-1.5,2.6-2.24,3.89,5.44,1.73,9.96,3.43,13.33,4.79,7.13,2.87,10.76,4.36,14.23,7.17,3.64,2.95,6.24,6.29,7.25,7.6.78,1.02,2.08,2.55,2.66,3.4,0,0,2.12-2.08,3.01-4.83Z"/>
    <path class="cls-9" d="M595.85,203.78c-.23,1.95-.47,3.9-.71,5.86-.18,1.49-.37,2.98-.56,4.46-6.46-2.01-12.01-3.47-16.22-4.5-8.89-2.17-13.44-3.25-18.76-3.18-5.59.07-10.44,1.08-12.32,1.49-2.65.57-4.43.92-6.61,1.8-4.72,1.92-6.86,4.44-7.56,4.12-.64-.29.73-2.57.87-2.8,3.48-5.72,10.11-8.59,10.61-8.82,0,0,4.99-2.24,12.67-2.83,5.3-.41,19.73.51,38.59,4.41"/>
    <path class="cls-26" d="M467.61,240.16c-1.21-6.11-2.7-12.23-5.09-18-1.2-2.9-2.63-5.84-4.7-8.23-.76-.88-1.71-1.87-2.82-2.29-1.49-.58-2.69.87-3.54,1.88-3.55,4.24-4.73,9.94-4.73,15.34,0,.57,2.17.2,2.17-.58,0-4.31.78-8.77,2.99-12.53.75-1.28,1.68-2.65,2.87-3.56l-1.54.41c-.44-.11.53.29.5.27.77.48,1.43,1.15,2.03,1.83,2.94,3.38,4.67,7.84,6.08,12.04,1.54,4.57,2.66,9.28,3.6,14.01.13.66,2.32.13,2.17-.58h0Z"/>
    <path class="cls-26" d="M462.86,241.1c-7.74-2.28-6,9.39-7.51,13.48-.08.22-.25.45-.32.67-.04.14-.5.37.05.15.47-.18.14.24.09-.24-.03-.32-.29-.73-.37-1.06-.63-2.44-.55-5.11-.46-7.61.12-3.45.43-6.54,1.59-9.77,1.24-3.44,3.32-8.28,7.39-8.96,1.39-.23.93-1.83-.43-1.6-4.07.68-6.6,4.56-8.16,8.04-1.19,2.66-2.05,5.43-2.33,8.33-.3,3.2-.45,6.45-.15,9.66.13,1.41.25,3.96,1.75,4.71,1.33.66,2.72-.45,3.28-1.61.63-1.31.75-2.89.9-4.31.2-1.89.1-9.34,3.45-8.35.52.15,1.2.06,1.54-.41.28-.39.23-.98-.3-1.13h0Z"/>
    <path class="cls-26" d="M648.24,198.33s-20.74-1.57-37.24-4.56c-16.51-2.99-31-14.45-31-14.45,0,0,18.15,9.83,31.2,12.27,13.04,2.44,37.05,6.75,37.05,6.75Z"/>
    <path class="cls-9" d="M668.34,153.19c-.15-.34.07.14,0,0-2.97-6.55-4.38-13.19-7.63-19.6-3.19-6.28-6.39-12.03-9.93-18.12-.21-.36-5.57-1.55-5.78-1.91-.04-.07-.18-.3-.23-.38-.11-.19-.23-.38-.34-.57-.27-.44-.54-.88-.8-1.32-23.39-16.09-53.95-23.65-83.45-20.49-57.31,6.13-98.8,57.55-92.67,114.86.52,4.91-3.33,9.98.7,13.47,4.03,3.49,4.82,2.3,9.71.14,4.73-2.46,8.83-5.98,11.98-10.29,16.08-20.08,25.82-55.1,25.29-80.82,2.1,5.24,23.87,4.43,27.91,8.37,15.98,15.58,41.57,15.26,57.15-.73,1.35,3.11,2.96,6.11,4.8,8.95,16.87,26.06,42.35,42.05,68.39,30.98.96-.41-3.25-18.42-5.1-22.57Z"/>
    <path class="cls-4" d="M523.45,219.21l.61,9.39c-.09,7.14,1.48,21.76,2.83,25.99,1.91,5.92,37.03,17.22,45.11,14.97,8.07-2.25,17.34-21.59,20.45-25.83l14.05,4.54c-.34,6.44-.97,26.95,1.05,30.28,2.02,3.32,18.5,7.15,20.35,7.58,1.55.34,3.71.82,6.09,1.24,6.3,1.17,14.07,2.1,16.98.42,4.32-2.49,11.48-14.46,17.92-25.87l1.03-1.78c.23-.43.47-.72.51-.85h0l1.16-2.06c-17.95-15.18-45.32-20.63-64.84-12.9l.07.25-13.69-4.49c-12.95-14.56-38.62-27.36-60.02-24.93h0l-62.95-5.78-1.59,5.3,54.87,4.55ZM609.74,277.01c-1.26-2.07-1.23-16.55-.86-27.73,16.89-6.42,41.54-1.47,57.86,11.05l-.08.27c-3.46,6.11-12.66,22.39-16.9,24.84-5.02,2.89-37.74-5.09-40.04-8.37l.02-.06ZM531.5,254.25c-2.25-11.13-3.49-22.44-3.71-33.79,19.35-3.32,48.29,8.97,61.03,22.9-4.7,7.88-11.71,21.96-17.5,23.55-8.32,2.32-38.64-8.93-39.83-12.67h0Z"/>
    <path class="cls-1" d="M438.76,210.89s-44.45-46.89-17.37-83.27c5.2-6.99,5.14-4.38,6.6-10.99,7.67-34.61-6.07-28.59,52.56-59.79,58.63-31.2,66-29.1,142.79-8.74,39.6,10.5,58.45,31.39,64.67,58.89,2.79,12.36,3.04,26.05,1.46,40.74,0,0-77.69-38.74-131.48-21.52-53.79,17.22-121.13,93.42-115.84,122.88,1.48,8.27-3.39-38.21-3.39-38.21Z"/>
    <path class="cls-24" d="M414.19,166.86s88.6-88.44,182.01-74.2c0,0-104.39-31.3-171.09,31.28-4.7,4.41-8.05,10.08-9.73,16.31l-.17.63c-1.59,5.91-2.15,12.04-1.66,18.14l.63,7.85Z"/>
    <path class="cls-15" d="M1326.8,765.76c-6.65,9.02-12.93,18.32-18.79,27.87-6.14,10-11.86,20.31-16.57,31.07-4.87,11.12-8.09,22.72-9.9,34.73-1.96,13-2.5,26.17-3.01,39.29-.7,17.98-1.15,35.97-1.57,53.95-.5,21.17-.93,42.34-1.35,63.51-.36,18.57-.71,37.14-1.11,55.72-.04,1.86-.08,3.72-.12,5.58-.02,1.03,2.17.64,2.19-.22.4-17.94.73-35.87,1.08-53.81.41-21.11.83-42.22,1.31-63.32.43-18.63.88-37.26,1.54-55.89.86-24.28,1.4-49.31,10.09-72.31,4.05-10.73,9.39-20.98,15.13-30.89,5.75-9.91,12-19.53,18.62-28.89,1.48-2.09,2.98-4.17,4.51-6.24.33-.44-.28-.74-.63-.79-.54-.07-1.11.21-1.42.63h0Z"/>
    <path class="cls-15" d="M-14.6,766.32c6.65,9.02,12.93,18.32,18.79,27.87,6.1,9.94,11.8,20.18,16.48,30.88,4.9,11.21,8.11,22.91,9.9,35,1.91,12.91,2.44,25.98,2.94,39,.69,17.97,1.14,35.95,1.57,53.93.5,21.05.92,42.1,1.34,63.15.36,18.57.71,37.14,1.11,55.72.04,1.86.08,3.72.12,5.58.03,1.16,2.23.84,2.2-.16-.4-18-.73-35.99-1.08-53.99-.41-21.17-.83-42.34-1.32-63.51-.43-18.69-.88-37.38-1.55-56.07-.87-24.25-1.48-49.19-10.15-72.16-4.03-10.67-9.32-20.86-15.01-30.72-5.8-10.04-12.13-19.79-18.83-29.25-1.48-2.09-2.98-4.17-4.51-6.24-.6-.81-2.66.05-1.99.97h0Z"/>
    <path class="cls-11" d="M1122.39,564.67c-5.22-12.21-34.27-36.04-46.73-42.14-32.45-15.85-53.08-24.93-53.08-24.93,0,0-39.1,44.81-89.06,35.48-49.97-9.33-28.53-37.25-28.53-37.25l-5.51-.6c-20.17,13.81-51.78,24.05-70.24,40.97-15.71,14.41-20.46,16.3-32.34,40.35-6.03,12.21-12.53,31.86-29.88,67.83-1.7,3.53-14,21.93-14.18,22.64-1.37,5.32,17.6,26.63,39.77,34.52,11.22,3.99,15.52,4.08,20.4,6.52.53,1.17,4.47,83.68,4.53,85.24.95,24.82,4.41,45.45,2.09,72.73-.05.61-6.41,36.62-6.46,37.24-2.93,6.8-2.57,26.22-.5,26.26,32.65.76,57.56,7.56,92.89,6.63,16.43-.43,27.85-.86,44.16,1.07,3.31.39,14.64-9.05,14.85-5.54.8,13.34,7.93-4.57,10.97-4.3,16.67,1.45,49.8,25.28,66.4,27.34,17.59,2.17,49.83,1.88,66.63,7.38,3.23,1.06,9.42-4.64,12.88-3.12,8.86-40.04-15.06-125.44-14.47-132.25,4.82-58.47-2.81-5.88-.82-113.79l5.4-11.19,26.13-22.59c1.67-66.99-2.28-84-15.31-114.5Z"/>
    <path class="cls-22" d="M882.16,942.44c.65,0,1.59-.18,1.9-.85.27-.6-.24-1.07-.84-1.07-.65,0-1.59.18-1.9.85-.27.6.24,1.07.84,1.07h0Z"/>
    <path class="cls-12" d="M1123.23,706.42c-.25-18.68,5.88-5.93-2.05-60.26l-92.99-.39,9.33,57.84,2.17,101.9-203.58,47.17,9.48,21.2-11.01,21.62c58.97,3.96,168.8-4.6,232.56-10.9,11.35-1.12,20.67-3.08,27.71-5.99,9.34-3.28,16.79-10.66,21.52-22.59,8.74-22.06,11.16-63.15,9.59-83.67-.25-3.3.2-58.97.2-58.97l-11.59,2.49c-.23-5.08,8.67-8.32,8.66-9.45Z"/>
    <path class="cls-11" d="M1133.73,612.56s4.22,68.67,3.42,110.72c0,0-64.55,10.83-107.95-1.73-46-13.31-15.86-122.41-15.86-122.41l120.39,13.42Z"/>
    <g>
      <path class="cls-11" d="M1065.35,556.34c3.25-.17-38.68,5.05-39.75,71.66-1.03,64.37,1,104.26,1,104.26l11.26,2.58s66.49,11.15,98.28-2.16l.1-11.44s-71.13,7.93-105.79-4.01"/>
      <path class="cls-5" d="M1065.21,556.98c-.1,0-.3-.04-.12,0-.35-.09-.95-.04-.44-.84.1-.16.33-.14.42-.27-.05.07-.53-.08.21-.07-.16,0-.39.12-.53.16-.84.26-1.68.53-2.5.84-2.85,1.05-5.59,2.43-8.16,4.04-9.21,5.75-16.21,14.48-20.81,24.24-3.57,7.56-5.82,15.68-7.14,23.91-1.87,11.59-1.7,23.35-1.81,35.06-.19,20.72-.11,41.45.35,62.16.13,6,.3,12,.51,18,.06,1.78.13,3.56.21,5.34.04.87-.02,1.81.12,2.67.02.11.01.22.02.33,0,.18.3.3.43.32,3.96.91,7.93,2.05,11.94,2.68,4.53.72,9.09,1.31,13.65,1.84,18.25,2.12,36.8,3.26,55.15,1.9,10.11-.75,20.48-2.23,29.9-6.15.21-.09.65-.33.65-.61.03-3.81.07-7.63.1-11.44,0-.49-.56-.55-.95-.51-8.58.96-17.22,1.52-25.84,1.96-17.44.88-35.03,1.05-52.42-.66-9.12-.9-18.32-2.31-27.01-5.28-.73-.25-2.54.81-1.32,1.23,7.66,2.62,15.72,3.99,23.75,4.94,9.07,1.07,18.22,1.51,27.35,1.64,15.34.22,30.7-.44,45.99-1.7,3.08-.25,6.16-.52,9.23-.86l-.95-.51c-.03,3.81-.07,7.63-.1,11.44l.65-.61c-8.23,3.42-17.24,4.83-26.07,5.62-9.76.88-19.59.9-29.37.51-13.51-.54-27.04-1.82-40.41-3.89-4.24-.66-8.41-1.83-12.6-2.79l.43.32c-.36-7.17-.56-14.36-.74-21.54-.5-19.92-.63-39.84-.51-59.77.13-21.11-.7-42.94,7.65-62.8,4.34-10.32,11.22-19.77,20.7-25.9,2.61-1.69,5.24-3.05,8.18-4.14.23-.08.46-.17.69-.25-.23.08.22-.07.44-.15.32-.1.64-.2.96-.3.49-.15,1.95-.49,1.48-1.22-.19-.29-.76-.22-1.05-.21-1.11.05-1.78,1.35-.28,1.27h0Z"/>
    </g>
    <path class="cls-22" d="M1039.6,804.87c6.93,1.71,13.83,3.77,20.3,6.82,6.03,2.84,11.9,6.62,15.86,12.1,2.17,3.01,3.57,6.46,4.13,10.13.12.79,2.31.28,2.17-.58-2.23-14.45-16.72-21.96-29.22-26.26-3.92-1.35-7.91-2.46-11.93-3.45-.75-.18-2.56.94-1.31,1.24h0Z"/>
    <path class="cls-27" d="M187.44,842.19s-82.04,98.82-22.87,210.88c28.19,53.36,177.91,33.71,177.91,33.71l21.18-89.21v-179.97l-176.22,24.59Z"/>
    <path class="cls-19" d="M635.58,452.22c-7.4-8.1-9.64-13.24-18.67-19.47l-8.84-16.45c-1.06-.44-16.4-10.61-17.5-10.98-2.34-.79-4.07-.95-4.93-2.49l-11.52-5.86-19.06-13.08c10.82,14.7,7.87,35.4-7.65,41.37-15.59,6-35.04.77-50.55-3.28-17-4.44-32.07-15.54-44.6-27.12-10.02-9.25-18.21-29.65-24.57-41.76-24.08,3.19-82.88,15.66-94.13,21.16-20.28,9.87-56.58,250.37-56.58,250.37,0,0-22.42,138.51-98.89,223.56-.5.56-2.88,4.72-3.23,5.39-1.1,2.08,68.56,23.02,135.5,8.47l9.68.78c17.87,3.72,37.13,3.56,54.64,8.17l212.05,25.12s16.21-16.69,12.33-62.97c-1.4.16-2.8-.52-3.14-2.32-3.72-20.12-3.3-41.26-4.91-61.64-.74-9.34-2.01-18.63-2.72-27.96-.57-7.49-.2-15.41,4.37-21.69.35-.48,3.14-3.64,3.58-3.87,16.67-8.52,18.08-14.77,18.08-14.77,4.1-2.93,16.83-26.72,24.42-55.02,1.82-15.93,8.25-29.84,10.15-45.76,3.06-25.63,14.79-47.97,15.48-73.82.65-24.42-11.13-54.74-28.78-74.07Z"/>
    <path class="cls-27" d="M728.5,1032.84c-4.37,131.07-13.53,289.57-34.35,423.36,0,0-100.91,50.14-115.84,20.81,0,0-36.31-273.59-85.97-434.24-43.73-141.48-339.1-159.84-303.46-165.26,64.5-9.81,369.49-51.43,483.27,2.24,41.91,19.77,59.25,66.18,56.35,153.09Z"/>
    <path class="cls-27" d="M666.2,902.4s-18.48-14.5-44.15-7.66c2.41-13.41,2.38-21.27,2.38-21.27-3.05-2.5-19.68,1.22-23.02-1.36-13.95,7.47-30.38,2.31-43.03,12.1-14.71,11.39-12.62,3.08-25.52,16.81-12.43,13.23-23.96,27.55-34.14,42.9-2.88,4.35-44.26,8.79-46.9,13.33.47.05.08,26.09.55,26.13-37.46,70.78,21.4,175.52,17.73,301.42-3.22,110.53-3.52,126.33-9.45,185.05,17.68,26.57,154.97,14.13,154.97,14.13,17.2-170.55,50.58-581.57,50.58-581.57Z"/>
    <line class="cls-23" x1="534.85" y1="615.35" x2="534.47" y2="617.46"/>
    <path class="cls-2" d="M650.03,531.11c-2.85,2.68-5.21,6-7.19,9.35-3.83,6.46-6.33,13.8-6.63,21.33-.23,5.64.25,11.31.64,16.93.54,7.83,1.13,15.66,1.44,23.51.76,18.79.19,37.88-4.34,56.22-2.37,9.63-5.94,19.03-10.3,27.93-2.94,6-6.39,11.88-10.91,16.83-2.64,2.89-5.68,5.34-9.09,7.28-2.33,1.32-4.84,2.38-7.01,3.97-.45.33-.88.69-1.27,1.07-.87.85,1.26.71,1.72.26,1.75-1.71,3.99-2.69,6.19-3.85,3.16-1.67,6.14-3.62,8.77-6.05,4.23-3.89,7.59-8.63,10.45-13.59,4.67-8.09,8.33-16.88,11.22-25.76,5.87-18.06,7.27-37.31,6.99-56.2-.12-8.37-.61-16.72-1.19-25.07-.45-6.46-1.02-12.93-1.17-19.41-.16-6.86.92-13.48,3.64-19.82,2.22-5.16,5.34-10.07,9.23-14.14.29-.3.37-.38.52-.52.88-.83-1.25-.7-1.72-.26h0Z"/>
    <g>
      <path class="cls-11" d="M808.31,618.83c-1.89,30.03,4.84,59.99,4.38,90.08,0,0-24.61-4.89-38.8-12.92-14.19-8.03-26.79-20.89-26.79-20.89l9.26-13.02s15.19,26.58,56.33,31.94"/>
      <path class="cls-5" d="M807.23,618.97c-1.44,23.5,2.28,46.84,3.8,70.23.43,6.65.67,13.32.58,19.99l1.76-.85c-7.74-1.54-15.42-3.64-22.9-6.17-5.73-1.94-11.39-4.17-16.63-7.22-6.14-3.58-11.86-7.9-17.26-12.51-2.91-2.48-5.78-5.04-8.46-7.77v.41c3.08-4.34,6.17-8.68,9.26-13.02-.7.1-1.39.19-2.09.29,2.01,3.5,4.85,6.63,7.69,9.46,7.21,7.19,16,12.75,25.41,16.6,7.56,3.09,15.55,5.07,23.64,6.14.48.06,1.18-.05,1.54-.41.28-.29.31-.64-.19-.7-13.01-1.72-25.75-5.88-36.78-13.09-6.36-4.16-12.22-9.28-16.86-15.32-.61-.8-1.2-1.61-1.75-2.44-.24-.36-.4-.61-.52-.82-.36-.63-1.76-.18-2.09.29-3.09,4.34-6.18,8.68-9.26,13.02-.09.13-.13.29,0,.41,7,7.14,14.99,13.59,23.45,18.9,10.21,6.41,21.94,10.02,33.55,12.98,2.96.75,5.93,1.47,8.93,2.07.53.11,1.75-.16,1.76-.85.33-23.39-3.61-46.54-4.53-69.88-.26-6.69-.26-13.38.15-20.06.05-.81-2.13-.37-2.17.3h0Z"/>
    </g>
    <path class="cls-27" d="M703.63,926.27c19.84,23.13,7.86,54.53,17.23,82.62-.9,5.18-1.63,10.4-2.13,15.64l-.02.02c-121.87,39.26-502.03,123.18-550.64-4.45-36.51-95.85,34.52-130.91,34.52-130.91,0,0,211.67-20.52,369.52-21.5,32.7-.2,64.71,8.43,91.34,24.99,13.92,8.66,28.32,19.76,40.18,33.58Z"/>
    <path class="cls-16" d="M663.71,1014.51c9.58-7.76,16.64-12.48,28.62-20.67,38.31,20.31,71.68,47.82,97.21,82.44l-9.75,3.9s20.12,56.17,25.8,86.89c5.68,30.72,10.07,232.22,10.07,232.22l-55.69,3.65s-69.31-195.15-96.41-287.98c-7.97-27.36-22.65-82.01.14-100.45Z"/>
    <path class="cls-14" d="M1081.91,926.28c-46.3-9.07-93.62-11.34-140.31-8.07-23.39,1.64-49.49,12.34-72.93,10.46-23.33-1.87-32.67-8.14-56.12-8.33l-105.59,64.3c-13.64,4.76-29.36,15.86-29.45,18.42,17.7,0,29.93,4.14,38.95,10.26,33.83,22.98,35.13,38.4,57.7,70.42l2.09,2.29s278.07,22.81,327.15-23.61c28.97-27.4,31.38-93.86,18.57-126.05-18-10.93-19.24-6-40.08-10.08Z"/>
    <path class="cls-25" d="M714.18,1011.11c-.99-1.34-1.98-2.69-2.97-4.03-1.28-1.74-1.52-3.6-.86-5.69.89-2.8,3.05-5.45,5.61-6.89,1.16-.66,2.46-.9,3.73-1.24s2.56-.71,3.83-1.09c11.24-3.37,22.12-7.96,32.73-12.96,11.29-5.32,22.32-11.19,33.16-17.37,9.42-5.37,18.7-10.99,27.8-16.89,5.6-3.63,11.26-7.28,16.51-11.41.34-.27.67-.53,1-.81,1.13-.94-.64-1.47-1.4-.84-4.74,3.96-10.05,7.33-15.21,10.71-8.95,5.87-18.08,11.46-27.35,16.81-11.01,6.36-22.22,12.38-33.7,17.86-10.85,5.18-21.96,9.96-33.47,13.45-2.53.77-5.3,1.2-7.72,2.25-2.64,1.14-4.87,3.28-6.37,5.71-1.32,2.12-2.31,4.95-1.41,7.42.59,1.62,1.97,3.04,2.97,4.41.37.5.74,1.01,1.11,1.51.52.7,2.61-.09,2-.91h0Z"/>
    <path class="cls-16" d="M708.78,1016.11c9.58-7.76,18.66-12.48,30.65-20.67,38.31,20.31,71.68,47.82,97.21,82.44l-9.75,3.9s20.12,56.17,25.8,86.89c5.68,30.72,10.07,232.22,10.07,232.22l-55.69,3.65s-76.05-232.77-103.15-325.6c-7.97-27.36-17.94-44.39,4.85-62.83Z"/>
    <path class="cls-14" d="M1126.18,964.23s1.58,84.48-20.46,95.02c-57.66,27.58-274.69,30.14-274.69,30.14l-14.91-23.01c-13.05-20.15-41.52-42.66-60.51-56.45l-42.95-13.45,207.55-48.63h143.28l62.7,16.39Z"/>
    <path class="cls-2" d="M745.17,650.15c-12.22,8.59-20.73,22.02-23.59,36.67-.82,4.21-1.15,8.5-.98,12.79.05,1.15,2.24.83,2.2-.16-.57-14.61,4.81-29.18,14.55-40.06,2.76-3.09,5.87-5.83,9.26-8.21,1.2-.85-.56-1.65-1.45-1.02h0Z"/>
    <path class="cls-8" d="M574.34,316.2c-12.84-4.16-33.4-10.87-33.4-10.87,0,0-5.9,32.15,23.86,41.79,29.76,9.64,40.26-22.05,40.26-22.05,0,0-17.88-4.71-30.71-8.87Z"/>
    <path class="cls-3" d="M574.47,316.24c-6.1-1.98-30.65-9.35-30.65-9.35,0,0,3.34,22.56,25.41,29.71,23.93,7.75,31.31-10.91,31.31-10.91l-26.07-9.44Z"/>
    <path class="cls-10" d="M574.38,317.41c-6.1-1.98-24.62-7.4-24.62-7.4,0,0,4.48,8.23,22.78,14.17,18.31,5.93,26.25,1.97,26.25,1.97l-24.41-8.74Z"/>
    <path class="cls-8" d="M606.18,324.11q-.6-.4-3.56-1.71c-4.95-2.17-6.44-4.84-10.04-6.37-6.14-2.61-11.1-1.01-13.85-1.9-2.75-.89-5.82-5.1-12.33-6.58-3.81-.87-13.83-.46-19.11-1.61-3.17-.69-5.5-1.1-6.22-1.13-1-.04-2.22,4.39,32.33,15.59,34.56,11.2,33.59,4.26,32.76,3.7Z"/>
    <path class="cls-8" d="M923.57,431.42c10.72,1.54,27.91,3.97,27.91,3.97,0,0-7.11,25.25-31.95,21.68-24.85-3.57-21.22-30.11-21.22-30.11,0,0,14.55,2.92,25.26,4.46Z"/>
    <path class="cls-3" d="M923.46,431.41c5.1.73,25.39,4.09,25.39,4.09,0,0-10.37,15.08-28.8,12.43-19.98-2.87-18.7-18.92-18.7-18.92l22.12,2.41Z"/>
    <path class="cls-10" d="M923.11,432.27c5.1.73,20.36,3.37,20.36,3.37,0,0-6.13,4.35-21.42,2.16-15.29-2.19-19.61-7.85-19.61-7.85l20.68,2.33Z"/>
    <path class="cls-8" d="M897.83,425.87c.57-.08.57-.08,3.17.03,4.33.19,6.35-1.21,9.48-1.04,5.35.29,8.35,3.19,10.65,3.52,2.3.33,6-1.61,11.21-.38,3.05.72,10.13,4.55,14.33,5.59,2.52.62,4.35,1.15,4.88,1.38.73.33.05,3.95-28.8-.19-28.85-4.14-25.71-8.8-24.91-8.91Z"/>
    <g>
      <path class="cls-11" d="M1011.28,489.24s-23.56,42.59-72.32,39.51c-48.77-3.08-31.52-35.46-31.52-35.46l.54-2-13.03,6.03s-5.49,16.74.3,27.13c5.79,10.39,27.82,17.42,59.07,15.14,18.33-1.34,33.35-6.72,48-18.7,17.54-14.34,21.51-23.86,21.51-23.86l-12.54-7.8Z"/>
      <path class="cls-5" d="M1010.25,489.13c-2.64,4.77-6.24,9.14-9.91,13.14-8.4,9.16-18.7,16.63-30.33,21.13-7.42,2.87-15.32,4.42-23.27,4.69-8.31.29-17.07-.54-24.97-3.23-4.92-1.68-9.73-4.32-12.83-8.6-2.14-2.96-3.26-6.55-3.35-10.2-.08-2.98.43-5.98,1.33-8.81.41-1.29,1.05-2.55,1.55-3.84.28-.7.41-1.48.61-2.21.22-.81-1.2-.69-1.57-.52-3.71,1.71-7.41,3.43-11.12,5.14-1,.46-2.24.75-2.62,1.85-.65,1.86-1.03,3.87-1.39,5.8-1.25,6.77-1.67,14.54,1.56,20.85,2.2,4.3,6.36,7.26,10.58,9.38,6.09,3.05,12.8,4.71,19.49,5.75,8.89,1.38,17.95,1.58,26.92,1.1,8.84-.47,17.66-1.74,26.07-4.58,8.16-2.75,15.79-6.86,22.69-12.01,6.83-5.1,13.29-10.97,18.78-17.5,2.29-2.73,4.68-5.69,6.2-8.94.06-.13.13-.26.18-.39.11-.27.07-.55-.19-.72-4.18-2.6-8.36-5.2-12.54-7.8-.78-.48-2.7.59-1.68,1.22,4.18,2.6,8.36,5.2,12.54,7.8l-.19-.72c-.65,1.54-1.63,2.99-2.58,4.36-2.97,4.29-6.55,8.16-10.3,11.78-10.85,10.49-23.37,19-38.07,22.93-7.29,1.95-14.78,2.79-22.31,3.11-7.65.33-15.34.12-22.93-.91-5.88-.8-11.75-2.09-17.27-4.32-4-1.61-8.03-3.79-10.98-7.01-3.64-3.99-4.69-9.54-4.66-14.79.02-4.71.79-9.47,2.09-13.99.06-.19.14-.4.18-.59.02-.13.11-.36.02-.07l-.56.5c4.34-2.01,8.69-4.02,13.03-6.03l-1.57-.52c-.14.52-.29,1.03-.42,1.55-.02.09-.22.64-.06.26,0,.01-.01.02-.02.03-.06.15-.15.3-.22.45-.35.74-.66,1.5-.94,2.27-.99,2.71-1.65,5.56-1.81,8.45-.2,3.71.46,7.41,2.21,10.7,2.32,4.37,6.39,7.46,10.79,9.54,7.25,3.42,15.53,4.58,23.46,4.95,8.41.4,16.88-.52,24.97-2.89,12.95-3.79,24.61-11.13,34.17-20.59,3.32-3.29,6.4-6.83,9.18-10.59,1.39-1.88,2.85-3.82,3.95-5.89.05-.09.11-.19.16-.28.58-1.04-1.62-1.02-2.07-.21Z"/>
    </g>
  </g>
  <g id="Layer_5" data-name="Layer 5">
    <path class="cls-12" d="M749.7,863.69l11.69-14.47c1.99-2.44,4.61-4.29,7.57-5.35l28.94-10.27,39.54,16.62,10.5,1.29,14.55,40.62-20.27,4.51s-41.03,22.72-46,21.45c-4.97-1.27-14.78-6.28-14.78-6.28,0,0-25.35.71-28.28-.49-11.14-4.58-8.38-7.6-8.38-7.6l-4.53-.43c-.24,1.63-9.17-5.58-10.22-10.43-.61-2.82-1.4-2.52-1.4-2.52-4.59-.84-8.58-3.67-10.89-7.72-1.39-2.6,10.05-10.62,10.05-10.62l27.18-11.47-5.27,3.17Z"/>
    <path class="cls-22" d="M767.11,877.75c-2.68,1.81-5.79,2.92-8.81,4.05s-6.34,2.18-9.57,3.03-6.39,1.53-9.63,2.04c-3.4.54-6.89,1.13-10.34.83-.68-.06-1.6.2-1.88.9-.26.65.24,1.2.89,1.26,3.65.32,7.26-.21,10.86-.77s7.14-1.28,10.65-2.21,6.81-1.99,10.14-3.24,6.67-2.51,9.63-4.51c.54-.37.68-1.12.14-1.54-.6-.47-1.52-.21-2.08.16h0Z"/>
    <path class="cls-22" d="M779.81,890.67c-2.65,1.78-5.63,2.89-8.6,4.02-3.12,1.19-6.31,2.2-9.53,3.05s-6.35,1.52-9.57,2.04c-3.38.54-6.89,1.17-10.32.86-.67-.06-1.54.06-2.05.55-.38.37-.41.88.25.94,3.62.32,7.18-.18,10.75-.72s7.26-1.3,10.83-2.23,6.93-2,10.31-3.26c3.34-1.25,6.73-2.5,9.7-4.5,1.62-1.09-.9-1.34-1.77-.76h0Z"/>
    <path class="cls-22" d="M776.71,856c2.64-1.04,5.36-1.89,8.13-2.5.26-.06.53-.11.79-.16s-.34.06.12-.02c.11-.02.23-.04.34-.06.39-.07.78-.13,1.18-.17.15-.02.31-.03.46-.05.24-.02.36-.02.07,0,.13,0,.31.07.11-.01s-.13-.02-.06,0c-.12-.04-.34-.12-.39-.2.31.55,1.5.27,1.93.08.51-.22,1.08-.67.75-1.25-.3-.54-1.53-.38-2-.34-1.04.08-2.07.28-3.08.49-3.25.66-6.44,1.68-9.52,2.9-.45.18-1.14.72-.75,1.25s1.45.26,1.93.08h0Z"/>
    <path class="cls-6" d="M777.07,857.73l-38.63-29.28c-2.84-2.16-6.54-2.84-9.96-1.81l-54.38,16.15c-2.18.65-3.43,2.94-2.78,5.13h0c.29.94.9,1.75,1.73,2.29l42.9,27.9h0l61.13-20.38Z"/>
    <path class="cls-18" d="M771.51,860.27c-.34-.16-.67-.36-.97-.59l-2.6-1.85-9.83-6.89-14.31-10.38-8.42-6.15c-1.46-.99-3.16-1.55-4.91-1.64-.9-.04-1.8.04-2.67.24-.85.25-1.88.56-2.71.81l-37.7,11.03-11.47,3.24-3.11.92c-.36.12-.74.19-1.12.23.33-.19.69-.33,1.06-.42l3.08-1.02,11.38-3.56,37.62-11.32,2.79-.83c.96-.22,1.95-.3,2.94-.26,1.94.11,3.81.74,5.42,1.83l8.42,6.21,14.18,10.56c3.92,2.93,7.16,5.39,9.51,7.19,1.04.8,1.88,1.49,2.63,1.96.3.19.57.41.81.66Z"/>
    <path class="cls-22" d="M738.21,713.14c5.41,8.89,7.92,19.33,7.13,29.71-.02.33,2.84.05,2.9-.78.79-10.38-1.72-20.82-7.13-29.71-.41-.67-3.1.45-2.9.78h0Z"/>
    <path class="cls-19" d="M353.65,695.09c-7.67,4.6-15.08,6.37-23.04,10.32-.94.47-1.83.1-2.38-.54l8.03-56.2,91.43-295.57-68.08,8.98c-18.87,3.87-42.05,10.93-57.6,22.32-.96.7-1.91,1.42-2.85,2.15-12.18,9.47-21.25,21.49-30.6,33.72h0c-10.89,14.24-14.68,31.39-18.18,48.98-1.16,5.83-2.31,11.99-3.71,18.78-10.59,51.35-16.2,103.16-26.06,154.65-4.98,26.02-7.54,75.7-1.32,101.95,5.01,21.14,16.34,37.96,37.78,46.41,2.21.87,27.82,5,30.12,5.82,40.55,14.33,227.35,16.97,227.35,16.97l-.36-38.12-160.53-80.6Z"/>
    <g>
      <path class="cls-19" d="M229.64,769.3l14.99,13.04c6.07,5.28,12.79,9.79,20.04,13.3,52.42,25.36,113.63,34.46,155.75,40.7,58.53,8.66,165.76,19.47,165.76,19.47l2.98-19.34c.05-4.47,1.52-8.82,2.51-13.18l4.56-32.76s-211.9-83.86-240.16-88.43l-19.44-6.12,2.88-15.19s34.89-184.73,33.97-210.77c-.98-27.55-8.44-54.25-27.04-58.75"/>
      <path class="cls-2" d="M228.62,769.66c5,4.34,9.99,8.7,14.99,13.03,13.25,11.48,29.65,18.23,45.89,24.33s32.57,10.88,49.24,14.93c15.6,3.79,31.36,6.87,47.18,9.55,13.26,2.24,26.57,4.25,39.89,6.14,12.48,1.78,24.98,3.39,37.48,4.95,13.47,1.67,26.96,3.26,40.45,4.81,12.57,1.44,25.15,2.83,37.73,4.2,9.62,1.04,19.24,2.07,28.86,3.07,4.78.5,9.56.99,14.33,1.48.21.02.42.04.63.06.44.04,1.9-.11,1.99-.69.6-3.92,1.21-7.83,1.81-11.75l1.01-6.57c.05-.34.13-.69.16-1.03.27-2.77.59-5.41,1.26-8.13.5-2.05,1.11-4.07,1.4-6.16.24-1.7.47-3.41.71-5.11.73-5.28,1.47-10.57,2.2-15.85.5-3.56.99-7.12,1.49-10.69l-.06-.07c-2.15-.85-4.3-1.7-6.45-2.55-5.85-2.31-11.71-4.6-17.56-6.9-8.63-3.38-17.26-6.75-25.89-10.11-10.57-4.11-21.14-8.2-31.73-12.28-11.59-4.46-23.19-8.91-34.8-13.32s-23.37-8.84-35.07-13.2c-10.92-4.07-21.85-8.09-32.81-12.04-9.3-3.35-18.61-6.65-27.98-9.81-6.74-2.28-13.51-4.52-20.36-6.44-2.15-.6-4.3-1.18-6.49-1.62-3.09-.61-6.09-1.76-9.09-2.71l-8.04-2.53-2.6-.82c-.21-.07-.47-.11-.67-.21-.32-.16,0,.1.01,0,.1-1.88.73-3.88,1.08-5.73.5-2.62.99-5.24,1.49-7.85s.98-5.2,1.47-7.8c1.25-6.68,2.49-13.36,3.72-20.04,1.84-10,3.66-20.01,5.47-30.01,2.15-11.93,4.27-23.86,6.36-35.79s4.3-24.86,6.37-37.3c1.93-11.6,3.81-23.2,5.57-34.83,1.43-9.43,2.8-18.87,3.92-28.33.69-5.8,1.48-11.71,1.41-17.57-.11-8.48-1.13-17.1-2.93-25.39-1.74-7.97-4.35-16.04-9-22.82-3.72-5.42-8.84-9.69-15.3-11.3-.45-.11-1.11.09-1.51.29-.18.09-.75.39-.28.5,15.22,3.78,21.35,21.4,24.17,35.03,2.12,10.25,3.21,20.89,2.37,31.35-.61,7.57-1.61,15.1-2.65,22.62-1.42,10.34-3.01,20.65-4.65,30.96-1.89,11.84-3.85,23.68-5.87,35.5-2.07,12.13-4.18,24.25-6.33,36.36-1.96,11.05-3.94,22.1-5.95,33.14-1.59,8.75-3.2,17.51-4.82,26.26-.96,5.19-1.93,10.38-2.9,15.56-.83,4.41-1.66,8.81-2.5,13.21-.29,1.54-.58,3.07-.87,4.61.04.07.1.11.19.11,5.33,1.68,10.66,3.35,16,5.03,1.4.44,2.79.95,4.23,1.22,1.22.23,2.43.52,3.63.82,8.33,2.11,16.49,4.91,24.62,7.66,12.2,4.14,24.33,8.5,36.44,12.91,14.35,5.23,28.66,10.57,42.95,15.96,14.73,5.56,29.44,11.17,44.14,16.82,13.35,5.13,26.69,10.29,40.01,15.48,10.2,3.97,20.39,7.95,30.57,11.95,5.27,2.07,10.54,4.14,15.81,6.22.22.09.87.21,1.03.41,0,0-.03.01-.05.27-.07.74-.21,1.49-.31,2.23-.91,6.51-1.81,13.02-2.72,19.53l-1.19,8.55c-.42,3-1.28,5.87-1.93,8.82-.7,3.16-.85,6.4-1.35,9.61-.53,3.43-1.06,6.85-1.58,10.28-.31,1.98-.61,3.96-.92,5.95l1.99-.69c-3.3-.33-6.61-.67-9.91-1.02-8.62-.89-17.24-1.8-25.86-2.73-12-1.29-23.99-2.6-35.98-3.95-13.38-1.51-26.75-3.06-40.11-4.68-12.94-1.57-25.87-3.19-38.78-4.96-12.59-1.72-25.16-3.58-37.71-5.57-15.38-2.44-30.72-5.18-45.93-8.52-16.63-3.65-33.13-8-49.28-13.43-8.25-2.77-16.41-5.83-24.42-9.22-8.06-3.41-16.16-6.97-23.49-11.8-8.18-5.38-15.37-12.27-22.74-18.68-.73-.64-1.47-1.28-2.2-1.92-.41-.36-2.32.49-2.05.72h0Z"/>
    </g>
    <path class="cls-12" d="M585.59,853.45l18.7,2.57s45.89,33.72,61.53,37.89c11.44,2.54,23.25,3.29,35.09,2.22l11.88,7.65c5.47,3.52,12.01,4.77,18.5,3.53l5-.96s12.29,14.11,16.84,9.89c4.54-4.22,1.29-10.93-1.88-17.45-3.17-6.51-85.61-81.84-85.61-81.84,9.9-1.28,25.53,5.56,35.37,6.15,15.11,1.02,21.54-4.66,16.9-11.94-2.86-4.49-13.89-10.18-22.69-8.4-8.77,1.77-43.24-17.96-58.75-16.63-15.5,1.33-31.03,12.26-31.03,12.26-1.33.29-11.22-.68-11.22-.68-1.07,1.88-8.65,55.73-8.65,55.73Z"/>
    <path class="cls-20" d="M755.99,911.32c1.15-2.39.36-5.13-.66-7.42-1.51-3.42-3.75-6.53-6.05-9.46-4.93-6.26-10.6-11.95-16.43-17.36-1.31-1.22-2.64-2.43-4-3.61-.48-.41-2.14.27-1.65.7,3.58,3.1,7.01,6.38,10.34,9.74,5.6,5.65,11.48,11.74,15.22,18.84,1.26,2.39,2.86,5.83,1.56,8.52-.37.77,1.4.58,1.65.04h0Z"/>
    <path class="cls-20" d="M736.1,905.44c-4.75-4.53-10.21-8.38-15.45-12.32-6.4-4.82-12.87-9.57-19.13-14.58-2.51-2.01-5.05-4.05-7.31-6.36-.44-.45-2.13.21-1.65.7,4.57,4.69,10.06,8.59,15.26,12.54,6.39,4.85,12.86,9.58,19.18,14.52,2.54,1.98,5.1,3.98,7.44,6.21.46.44,2.14-.23,1.65-.7h0Z"/>
    <path class="cls-20" d="M702.02,895.1c-8.91-5.7-17.83-11.41-26.74-17.11-1.26-.81-2.53-1.62-3.79-2.42-.5-.32-2.08.4-1.65.67,8.91,5.7,17.83,11.41,26.74,17.11,1.26.81,2.53,1.62,3.79,2.42.5.32,2.08-.4,1.65-.67h0Z"/>
    <path class="cls-2" d="M335.51,694.09c-14.19-.54-28.14,7.62-34.36,20.44-.54,1.12,1.65,1.15,2.08.27,5.7-11.73,18.45-19.59,31.54-19.1.49.02,1.23-.13,1.41-.67.16-.47-.15-.92-.67-.94h0Z"/>
  </g>
</svg>