<?xml version="1.0" encoding="UTF-8"?>
<svg xmlns="http://www.w3.org/2000/svg" xmlns:xlink="http://www.w3.org/1999/xlink" viewBox="0 0 1334 1000">
  <defs>
    <style>
      .cls-1 {
        fill: #622515;
      }

      .cls-2 {
        fill: #24170f;
      }

      .cls-3 {
        fill: #625422;
      }

      .cls-4 {
        fill: #273339;
      }

      .cls-5 {
        fill: #132046;
      }

      .cls-6, .cls-7 {
        fill: #010101;
      }

      .cls-8 {
        fill: #653c29;
      }

      .cls-9 {
        fill: #ababab;
      }

      .cls-10 {
        fill: #f1edf6;
      }

      .cls-11 {
        fill: #4b6199;
      }

      .cls-12 {
        fill: #a66f53;
      }

      .cls-13 {
        fill: #f0e9d1;
      }

      .cls-14 {
        fill: #0a1928;
      }

      .cls-15 {
        fill: #100e0d;
      }

      .cls-16 {
        fill: #a66e53;
      }

      .cls-7 {
        stroke: #171413;
        stroke-miterlimit: 10;
        stroke-width: .13px;
      }

      .cls-17 {
        fill: url(#linear-gradient);
        opacity: .5;
      }

      .cls-18 {
        fill: #fff;
      }

      .cls-19 {
        fill: #646464;
      }

      .cls-20 {
        fill: #ccb631;
      }

      .cls-21 {
        fill: #4f2f26;
      }

      .cls-22 {
        fill: #3f535a;
      }

      .cls-23 {
        fill: #552d23;
      }

      .cls-24 {
        fill: #8e6528;
      }

      .cls-25 {
        fill: #24180f;
      }

      .cls-26 {
        fill: #a53b23;
      }

      .cls-27 {
        fill: #4f4f80;
      }

      .cls-28 {
        fill: #4f2e25;
      }

      .cls-29 {
        fill: #89772e;
      }
    </style>
    <linearGradient id="linear-gradient" x1="-3211.47" y1="5327.13" x2="-2166.21" y2="5327.13" gradientTransform="translate(-4668.62 2947.59) rotate(90) scale(1 -1)" gradientUnits="userSpaceOnUse">
      <stop offset="0" stop-color="#eeeadf"/>
      <stop offset=".18" stop-color="#ece7dc" stop-opacity=".99"/>
      <stop offset=".33" stop-color="#e6e0d3" stop-opacity=".97"/>
      <stop offset=".47" stop-color="#dcd3c4" stop-opacity=".93"/>
      <stop offset=".6" stop-color="#cec1af" stop-opacity=".88"/>
      <stop offset=".72" stop-color="#bcaa94" stop-opacity=".82"/>
      <stop offset=".84" stop-color="#a68d72" stop-opacity=".73"/>
      <stop offset=".96" stop-color="#8d6c4c" stop-opacity=".64"/>
      <stop offset="1" stop-color="#83603d" stop-opacity=".6"/>
    </linearGradient>
  </defs>
  <g id="Layer_1" data-name="Layer 1">
    <polyline class="cls-13" points="1360.02 782.93 1360.02 -254.76 -47.01 -254.76 -47.01 782.93"/>
    <polyline class="cls-17" points="1362.02 777.92 -45.01 777.92 -45.02 -267.34 1362.02 -267.34"/>
  </g>
  <g id="Layer_4" data-name="Layer 4">
    <path class="cls-22" d="M822.93,1387.81c.83-20.58,1.62-41.17,2.25-61.76,1.45-47.37,50.06-94.73,50.06-142.11l-10.99-684.95-636.34-1.8c-137.78.02-160.71,49.03-164.17,213.26-12.47-9.59-137.71-7.87-174.73-7.87-54.39,5.33-79.95,73.93-84.61,168.47l-3.15,125.27-1.78.67c-29.99,18.03-46.95,44.17-47.02,84.21v104.5c.11,25.99,14.72,48.71,35.74,55.59v146.51H822.93Z"/>
    <path class="cls-22" d="M1518.21,997.97l-1.78-.67-3.15-125.27c-4.66-94.54-30.22-163.15-84.61-168.47-37.02,0-162.26-1.72-174.73,7.87-3.97-178.62,14.39-213.26-253.88-213.26l-295.72.71c-3.16,72.49-11.76,62.75-22.44,134.51-13.39,90.01,12.83,179.48-.88,269.44-6.89,45.21,52.63,90.75,46.79,136.11-5.95,46.21-11.96,92.41-17.81,138.63-8.89,70.29-17.42,140.69-24.74,211.2h844.23v-146.51c21.02-6.88,35.63-29.6,35.74-55.59v-104.5c-.06-40.04-17.03-66.18-47.02-84.21Z"/>
    <path class="cls-12" d="M1023.67,407.87s-12.56,51.53-8.79,70.06c.91,4.5,23.17,20.26,23.17,20.26l-112.21,40.24-32.8-39.36s29.83-15.65,32.02-20.6c2.19-4.95,5.37-55.49,5.37-55.49"/>
    <path class="cls-23" d="M927.59,461.7s18.23,3.23,24.27,2.83c6.05-.4,16.43-1.34,47.56-18.59,0,0-13.96,23.65-45.03,25.3,0,0-25.71-.15-27.44-4.89l.63-4.65Z"/>
    <path class="cls-7" d="M892.27,306.72s0,0,0,0c-1.44-10.62-1.7-17.1,1.82-23.96,2.48-4.84,11.54-9.14,11.54-9.14,0,0,3.57-14.96,9.95-12.09,0,0,8.76-19.49,27.46-12.05,0,0,6.04-.86,8.89,3.29,0,0,11.05-16.36,26.27-2.36,0,0,6.89-3.52,8.45,1.99,0,0,12.37-9.65,22.34.46,0,0,28.59-2.46,33.37,16.5,0,0,14.35-5.55,19.83,8.61,0,0,6.96,1.39,5.83,11.49,0,0,10.11,4.41,10.33,11.15,0,0,5.46,5.66,3.85,16.18-.46,3-1.34,2.09-2.75,6.07,4.4,12.72-4.57,13.14-4.57,13.14,7.7,12.22-5.18,24.82-5.18,24.82,0,0,3.47,9.19.39,14.45-4.21,7.18-19.22,13.88-19.22,13.88,0,0-1.05-20.79,1.2-33.63,2.25-12.84-5.36-36.56-8.17-41.83-2.8-5.27-27.96.72-64.95-3.48-36.99-4.2-43.65-11.91-48.19-11.19-9.43,1.5-20.9,34.25-21.79,44.45-.89,10.2-6.04,29.04-6.04,29.04,0,0-18.67-10.95-11.48-27.42,0,0-5.08-13.06-1.73-20.19,0,0,.64-3.05,2.7-4.4-.03-.04-5.83-8.37-.14-13.79Z"/>
    <path class="cls-12" d="M1006.73,439.77c-16.52,15.39-32.17,24.77-53.49,27.11-20.92,2.29-41.96-7.72-44.53-11.01-14.14-18.09-18.35-30.72-22.43-50.76-1.11-5.44-.75-11.17.15-16.98,1.35-8.72,4.56-25.38,5.21-33.77,1.65-21.38,5.81-40.51,19.22-57.35,27.95-35.1,86.23-28.93,106.92-16.63,24.19,14.38,33.35,39.89,32.49,66.03-.28,8.52-1.88,16.38-4.67,23.52-3.96,3.65-7.48,7.67-10.55,12"/>
    <g>
      <path class="cls-6" d="M910.67,299.19s-1.85,1.5-15.52,28.53c3.54-8.67,6.22-21.94,14.37-33.75,28.46-41.23,104.74-28.14,125.29-14.11,24.02,16.4,30.82,45.4,29.6,75.84-.49,12.36-1.84,26.52-6.16,36.41-2.68,9-11.98,11.93-11.98,11.93,0,0-12.65-13.4-21.6.91l-1.94-6.62s-7.84-15.57-3.28-51.97c0,0,1.35-15.46,1.98-20.08,1.93-14.24-10.23-12.37-18.66-10.87-5.24.93-16.39.76-21.66.15-13.45-1.57-30.29-5.36-36.62-5.9-8.89-.75-33.83-10.46-33.83-10.46Z"/>
      <path class="cls-6" d="M910.54,299.1c-.63.51-1.06,1.47-1.47,2.14-2.4,3.9-4.53,7.97-6.67,12.01-2.53,4.79-5,9.61-7.44,14.45l.37.05c2.22-5.48,3.78-11.2,5.84-16.74,2.39-6.43,5.35-12.71,9.43-18.26,5.47-7.44,12.84-13.26,21.09-17.35,8.47-4.2,17.74-6.66,27.08-7.93,9.41-1.29,18.97-1.41,28.43-.66,8.69.69,17.35,2.1,25.78,4.33,6.52,1.73,13.09,3.89,19,7.2,3.97,2.22,7.59,5.14,10.84,8.31,4.12,4.01,7.63,8.62,10.49,13.6,5.94,10.36,8.98,22.16,10.27,33.97.69,6.29.88,12.63.72,18.96-.17,6.95-.63,13.93-1.6,20.82-.48,3.4-1.1,6.78-1.95,10.11-.79,3.09-1.92,6.02-3.02,9-1.62,4.39-5.15,7.78-9.28,9.86-.71.36-1.45.7-2.21.94l.21.05c-3.81-4.03-10.18-7.3-15.67-4.95-2.72,1.17-4.74,3.46-6.3,5.92l.38-.03c-.64-2.18-1.17-4.43-1.93-6.57-.13-.36-.4-.92-.57-1.37-1.47-3.82-2.32-7.9-2.94-11.94-1.31-8.5-1.44-17.17-.96-25.75.16-2.88.39-5.75.69-8.62.17-1.62.4-3.23.54-4.84.26-2.9.52-5.8.79-8.69.32-3.38.63-6.77,1.05-10.15.4-3.25.69-7.01-1.55-9.72-1.8-2.18-4.72-2.86-7.43-2.97-3.11-.13-6.21.37-9.26.9-4.18.73-8.47.78-12.7.74-4.43-.05-8.8-.37-13.18-.98-9.82-1.36-19.51-3.48-29.31-4.97-2.8-.42-5.58-.65-8.34-1.29-3.6-.84-7.14-1.93-10.66-3.07-5.84-1.89-11.63-3.97-17.36-6.16-.33-.12-.65-.25-.97-.38-.17-.06-.45.17-.22.26,4.31,1.68,8.66,3.25,13.04,4.76,3.6,1.24,7.22,2.44,10.88,3.5,2.99.87,6.04,1.73,9.13,2.12,1.37.18,2.75.29,4.11.5,2,.3,3.99.65,5.97,1,5,.89,9.99,1.83,15,2.67,4.84.82,9.71,1.66,14.6,2.03,4.47.34,8.99.39,13.47.2,1.96-.08,3.94-.21,5.88-.54,1.54-.26,3.07-.54,4.62-.73,3-.38,6.27-.62,9.17.41,1.3.46,2.48,1.22,3.33,2.32.98,1.27,1.44,2.86,1.6,4.44.19,1.86-.07,3.69-.29,5.54-.19,1.61-.35,3.21-.52,4.82-.36,3.55-.69,7.1-1.01,10.66-.27,2.94-.62,5.86-.91,8.8-.93,9.5-1.18,19.12-.2,28.63.52,5.03,1.36,10.09,2.94,14.91.3.93.63,1.86,1.04,2.76.52,1.15.83,2.67,1.21,3.98.28.96.57,1.93.85,2.89.05.17.31.07.38-.03,1.4-2.22,3.2-4.31,5.59-5.49,1.75-.87,3.71-1.15,5.63-.89,3.13.43,6.01,2.11,8.42,4.08.55.45,1.1.93,1.6,1.45.05.06.14.07.21.05,2.63-.83,5.14-2.45,7.16-4.29,1.87-1.7,3.4-3.76,4.38-6.09.27-.65.46-1.34.74-1.99.32-.74.61-1.49.89-2.25.54-1.48,1-2.98,1.42-4.5,1.87-6.85,2.72-13.97,3.26-21.04.5-6.71.75-13.45.51-20.17-.42-12.14-2.35-24.41-7.03-35.68-4.52-10.89-11.71-20.5-21.3-27.43-5.26-3.8-11.35-6.25-17.5-8.21-8.06-2.57-16.41-4.27-24.8-5.31-9.41-1.17-18.96-1.49-28.42-.75-9.51.74-19,2.57-27.92,6.01-8.57,3.31-16.58,8.2-22.96,14.87-4,4.18-7.24,9-9.84,14.15-3.03,6-5.16,12.37-7.27,18.74-.83,2.51-1.67,5.03-2.66,7.49-.09.21.29.2.37.05,3.62-7.15,7.26-14.3,11.14-21.31,1.25-2.26,2.47-4.59,3.97-6.7.09-.13.19-.26.29-.39.03-.03.11-.11.05-.06.2-.17-.11-.3-.26-.18Z"/>
    </g>
    <path class="cls-12" d="M1016.22,420.89c9.77,12.11,21.05-2.06,21.05-2.06,11.59-11.62,12.79-25.01,13.24-34.2.45-9.19-9.64-9.96-9.64-9.96-8.64.16-7.52,1.28-21.31,24.57"/>
    <path class="cls-6" d="M969.25,369.5c2.63-.94,5.36.55,6.78,2.19.33.39,1.22,1.48,1.48,3.16.33,2.15-.81,4.38-2.3,5.63-1.99,1.67-4.92,1.61-6.99.28-2.82-1.81-3.31-5.55-2.21-8.08.2-.46,1.12-2.4,3.24-3.17"/>
    <path class="cls-6" d="M954.8,378.32s10.26-10.56,19.44-9.38c12.91,1.66,14.98,8.9,17.28,12.83,0,0-7.19-9.45-17.2-10.5-9.08-.96-19.51,7.05-19.51,7.05Z"/>
    <path class="cls-6" d="M905.94,360.95c-2.12-1.59-4.96-.85-6.65.37-.4.29-1.48,1.11-2.13,2.67-.84,1.99-.38,4.44.64,6.02,1.36,2.12,4.01,2.82,6.22,2.06,2.99-1.02,4.38-4.51,4.04-7.24-.07-.5-.4-2.61-2.11-3.89"/>
    <path class="cls-6" d="M920.74,373.99s-5.81-12.63-13.74-13.66c-11.16-1.45-14.74,5.07-17.67,8.32,0,0,8.41-7.43,17.01-6.09,7.8,1.22,14.4,11.42,14.4,11.42Z"/>
    <g>
      <path class="cls-6" d="M926,407.1c2.24,1.55,5.93,1.71,8.52.51.58-.27,2.32.27,1.51.65-3.43,1.59-8.69,1.13-11.58-.88-.29-.2-.2-.43.2-.51.42-.09,1.05.02,1.35.23"/>
      <path class="cls-6" d="M937.16,407.69c1.7-.57,3.56-.75,5.37-.66.27.01.6.15.77.35.14.15.15.34-.07.43-.89.38-1.97.44-2.94.31-.31-.04-.7-.17-.84-.45-.13-.26.18-.39.42-.35.8.11,1.64.05,2.37-.25.24.26.47.52.7.78-1.62-.07-3.28.1-4.8.61-.3.1-.7-.04-.94-.22-.18-.14-.35-.43-.05-.53"/>
      <path class="cls-6" d="M944.28,408.8c2.11.21,4.7-.41,5.93-1.87,1.85-2.21.88-6.42-1.57-8.28-.27-.2-.09-.4.21-.43.39-.04.82.16,1.1.37,2.13,1.62,3.22,5.16,2.6,7.37-.58,2.06-2.77,3.29-5.36,3.59-.77.09-1.59.11-2.38.04-.32-.03-.88-.2-1.01-.47-.13-.27.18-.35.48-.32"/>
      <path class="cls-6" d="M922.27,405.55c.14-.23-.05-.41-.22-.43-.57-.05-1.13-.29-1.57-.74-.21.21-.43.41-.64.62,1.12.26,2.22.78,3.16,1.59.19.16.49.11.69-.02.15-.1.33-.35.14-.51"/>
      <path class="cls-6" d="M923.83,406.06c-1.05-.9-2.28-1.46-3.53-1.76-.18-.04-.44.03-.6.18-.12.12-.17.3-.04.43"/>
      <path class="cls-6" d="M917.86,405.3c-1.36-.22-2.86-1.34-3.35-3.01-.73-2.53.56-5.26,2.46-6.59.21-.14.13-.37-.05-.46-.24-.11-.54,0-.76.14-1.65,1.15-2.88,3.21-2.93,5.49-.04,2.13,1.09,3.76,2.65,4.57.47.24.97.43,1.48.51.21.03.59-.02.72-.26.13-.24-.04-.38-.24-.41"/>
    </g>
    <path class="cls-6" d="M963.83,338.18c-1.06,1.77-2.12,3.56-3.18,5.34-.81,1.36-1.61,2.72-2.41,4.08,4.68,1.24,10.69,3.71,13.56,4.76,5.7,2.09,11.39,4.67,16.05,8.63,2.23,1.89,4,3.88,5.24,6.48.39.82,1.03,3.75,2.3,3.85.52.04,1.17-2.53,1.24-2.8,1.3-5.21-1.1-9.13-4.74-12.73-7.43-7.35-16.33-12.35-25.9-16.44"/>
    <path class="cls-6" d="M890.64,351.06c.05-1.32-.02-2.64-.3-3.96.82-.67,1.7-1.31,2.66-1.9,8.73-5.45,18.36-8.3,28.45-10.1.64,1.97,1.27,3.94,1.91,5.92.48,1.51.96,3.01,1.44,4.51-4.76.15-8.76.53-11.75.9-5.93.73-11.96,1.95-17.3,4.74-1.54.81-2.92,1.7-4.17,2.76l-.95-2.87Z"/>
    <path class="cls-10" d="M931.7,420.89c4.37.34,17.48,1.74,17.48,1.74,0,0-4.99,4.25-18.1,3.23-13.11-1.01-17.09-5.78-17.09-5.78l17.7.8Z"/>
    <path class="cls-23" d="M950.48,353.68c-2.49.32-4.81-2-5.64-4.13-1.13-2.89-.4-6.12.8-8.86.18-.41-.73-.35-.9-.32-.4.06-1.07.23-1.26.66-1.31,3.01-2.09,6.75-.49,9.81,1.39,2.67,4.14,4.2,7.13,3.82.32-.04,1.19-.25,1.26-.66.07-.43-.66-.35-.9-.32h0Z"/>
    <path class="cls-23" d="M1027.24,398.86c2.35-4.18,4.85-8.32,7.88-12.04,1.46-1.79,3.04-3.58,4.99-4.83.4-.26.22-.16.67-.37.11-.05.23-.1.35-.15.29-.13-.22.05.1-.04.09-.02.19-.05.29-.08.3-.1-.19.02-.01,0,.27-.03.31.03.09-.02.37.09-.31-.15-.33-.2.07.19.41.43.53.58.32.38.61.78.88,1.19,2.5,3.8,2.67,8.45,1.29,12.7-.3.91,1.91.66,2.19-.2,1.36-4.19,1.2-8.68-.96-12.57-.52-.94-1.45-2.8-2.69-2.95-.97-.12-2.03.27-2.87.71-2.02,1.05-3.71,2.7-5.2,4.39-3.66,4.12-6.56,8.92-9.25,13.71-.57,1.01,1.63.94,2.06.18h0Z"/>
    <path class="cls-23" d="M1027.15,402.05c6.6.52-2.42,12.76,2.22,12.87,3.68.08,5.3-5.23,6.26-7.91.95-2.67,1.53-4.97,1.47-7.78-.07-3.48-.93-7.61-4.33-9.32-.39-.2-1.01-.01-1.4.13-.09.03-.98.43-.65.6,2.84,1.44,3.83,4.64,4.12,7.61.19,1.94.22,4.05-.33,5.94-.65,2.26-1.41,4.51-2.42,6.64-.38.79-.79,1.57-1.28,2.3-.2.29-.46.54-.66.83-.06.08-.24.16-.26.24-.32.25-.02.2.88-.14-.04-.02-.09-.04-.12-.07-.13-.4-.47-.61-.52-1.11-.06-.58.06-1.18.18-1.75.29-1.34.74-2.63,1.08-3.96.32-1.28.72-2.83.28-4.13s-1.79-1.74-3.08-1.85c-.45-.04-1.19.11-1.54.41-.29.25-.34.42.12.46h0Z"/>
    <path class="cls-2" d="M929.49,419.37c7.91.49,25.03,7.16,28.32,10.92,0,0-8.52,10.92-26.86,9.78-18.34-1.13-21.91-12.8-21.91-12.8,0,0,10.37-8.53,20.44-7.91Z"/>
    <path class="cls-18" d="M950.6,425.89s-9.99-1.5-18-1.99c-8.01-.5-18.1-.24-18.1-.24,0,0-.89-6.57,13.64-5.67,14.52.9,22.46,7.91,22.46,7.91Z"/>
    <path class="cls-8" d="M928.46,435.45c8.68-.88,19.38-6.5,29.36-5.16,0,0-5.33,15.61-26.9,14.27-21.57-1.33-21.87-17.29-21.87-17.29,10.06-.1,10.91,6.23,19.41,8.18Z"/>
    <path class="cls-8" d="M920.42,413.83c4.55-.11,7.31,2.06,9.27,2.18,1.97.12,4.97-1.69,9.47-1.02,4.22.63,21.43,13.75,19.33,15.18-2.1,1.43-15.47-8.25-29.11-9.09-13.64-.84-19.07,7.67-20.98,5.99-1.91-1.68,7.75-13.14,12.02-13.24Z"/>
    <path class="cls-9" d="M339.05,138.97c7.15-8.88,17.79-14.44,28.47-10.83.85-21.25,22.19-32.48,43.45-31.75,10.89.87,21.78,6.48,32.29,3.52,6.56-1.84,11.72-6.56,17.47-10.42,24.03-15.59,58.86,6.43,77.04,28.6,18.17,22.16,11.88,45.22.25,71.38-5.4,12.17-5.08,18.99-7.33,32.21-2.12,12.47-11.17,35.33-12.09,47.79-.92,12.46,17.75,26.73,5.1,26.93l-135.98-24.72c-20.61,2.74-33.22-4.23-42.52-22.83-6.03-12.61-3.73-13.03-3.75-26.98-.48-18.27-18.09-33.08-15.86-51.22,1.04-11.42,6.86-22.34,13.49-31.69Z"/>
    <path class="cls-26" d="M322.09,137.15s48.84-20.52,109.53-9.92c60.69,10.6,88.17,49.91,97.16,77.44,8.99,27.52-4.16,55.04-4.16,55.04,0,0,15.02,5.1,28.62-49.25,19.83-79.23-59.06-132.7-78.84-133.67-19.78-.97-119.54-27.73-152.31,60.36Z"/>
    <path class="cls-16" d="M366.18,271.91s.16,56.06-20.42,81.07c-3.21,3.9-38.18,21.98-38.18,21.98l48.08,22.04c24.41,7.33,86.17,35.75,110.67,28.71l15.12-35.67s-25.47-14.58-26.31-20.47c-.85-5.89,6.49-49.58,6.49-49.58"/>
    <path class="cls-28" d="M455.67,366.07s-10.09-2.38-16.98-4.85c-6.89-2.47-18.96-2.88-49.43-33.25,0,0,7.12,35.23,47.98,45.5,0,0,10.54,2.98,17.68,1.76l.75-9.17Z"/>
    <path class="cls-16" d="M506.59,158.45c.13.13.28.26.42.39-.14-.25-.27-.52-.36-.77l-.06.38ZM523.64,164.72c.22.28.47.56.73.84l.05-.32s-.72-.9-.78-.52ZM385.19,323.72c13.92,19.36,33.19,39.91,70.32,44.55,9.36,1.17,18.39,1.36,26.71-9.14,8.41-10.62,15.35-14.38,24.23-24.06,8.52-9.29,12.55-15.26,17.45-26.83,5.07-11.97,5.53-15.26,6.06-27.9.24-5.65,1.1-14.12,2.32-19.4,1.4-6.09,7.86-29.95,10.55-44.12,2.69-14.17-4.5-42.79-4.5-42.79-.22-3.98-5.84-2.77-7.45-6.18l-1.68-.27s.78.52.59,1.67c-2.07-.66-4.01-2.16-5.43-3.69v.06c-2.71.75-5.04-.8-6.83-3.06-.06.39.23,1.22.65,1.29-2.58-.02-4.91-1.57-6.34-3.38-.06.39.24,1.22.18,1.61-1.85-.65-3.6-1.94-5.02-3.24.3.57,10,.61,9.96.87-2.57-.02.17,1.28-1.62-.98l-1.85-1.76c-2.16.05-2.28,1.33-3.71-.48.36.45-.48-4.42-.54-4.04-2.52-.4-1.8-.46-3.72-1.95-.06.38-7.25,1.41-7.31,1.79-2.09-.33-1.85,1.68-3.28-.13.36.45,1.77-1.37,2.13-.92-2.57-.02-3.78,1.45-5.57-.81.36.45-7.62-5.54-7.62-5.54-2.58-.02-2.28.84-4.13-1.03.72.9-11.49-2.57-11.2-1.73-2.09-.33,2.78,8.32,1.29,6.9-.06.39-4.64-1.93-4.64-1.93-2.16.05.68,2.48-.75.67-.06.38.17,1.61.6,1.67-2.7.75-5.51-.48-7.78-2.43.72.9,1.01,1.74,1.37,2.19-2.1-.34-3.83-.22-5.68-2.09-.06.38.59,1.67,1.01,1.74-2.22.43-4.67-.35-6.58-1.84-.06.38.65,1.29,1.01,1.74-1.73.12-3.41-.15-4.9-1.57l1.01,1.74c-1.68-.27-3.06.3-5.45-.87-.06.38.72.9.66,1.29-1.26-.2-2.94-.47-4.13-1.05-.06.39,1.07,1.35.65,1.29-1.68-.27-3.06.3-5.03-.8.36.45.65,1.29,1.01,1.74-1.68-.27-3.41-.15-4.97-1.19-.06.39.23,1.22.59,1.67-1.68-.27-3.06.3-5.03-.8-.06.38.65,1.29,1.01,1.74-1.68-.27-3.42-.15-5.03-.8-.06.39.72.91,1.07,1.36-1.68-.27-3.41-.15-5.39-1.25-.12.77.23,1.22.17,1.6-1.26-.2-2.03-.72-3.29-.92l-2.22.43c-7.1,6.76-28.13-2.97-28.13-2.97-14.65,8.31-5.73,64.25-6.48,71.62-.75,7.38-5.22,8.75-5.22,8.75-1.67-3.03-5.5,4.53-6.26,1.25-.83-2.89.56-6.22-.26-9.12-2.79-6.76-11.48-6.17-16.7-3.06l-.97,1.14c-7.8,7.67-5.09,35.83-1.61,44.61-1.19,16.58,11.85,27.44,21.8,16.9l1.26,6.74"/>
    <g>
      <path class="cls-6" d="M476.42,295.73c-3.35,1.12-8-.01-10.81-2.43-.62-.54-2.99-.49-2.12.26,3.71,3.19,10.43,4.51,14.75,3.06.43-.15.41-.46-.06-.7-.49-.25-1.31-.35-1.77-.2"/>
      <path class="cls-6" d="M462.3,292.47c-1.92-1.31-4.17-2.2-6.46-2.75-.34-.08-.8-.02-1.08.16-.22.14-.3.37-.07.55.97.78,2.3,1.26,3.56,1.43.4.06.93.04,1.21-.26.26-.28-.09-.54-.4-.59-1.04-.15-2.07-.52-2.87-1.17-.39.24-.77.48-1.16.71,2.05.49,4.06,1.3,5.77,2.47.34.23.89.2,1.25.06.27-.11.59-.4.25-.64"/>
      <path class="cls-6" d="M453.02,291.28c-2.71-.5-5.72-2.19-6.73-4.44-1.53-3.4,1.13-7.96,4.84-9.38.4-.15.25-.46-.11-.6-.47-.18-1.08-.09-1.5.07-3.23,1.24-5.79,4.93-5.8,7.89-.01,2.76,2.29,5.06,5.42,6.36.93.39,1.94.71,2.95.9.41.07,1.17.07,1.42-.22.26-.29-.1-.49-.48-.56"/>
      <path class="cls-6" d="M481.62,295.15c-.1-.34.21-.49.42-.46.73.14,1.51.05,2.22-.35.19.33.38.66.58.99-1.5-.08-3.05.17-4.5.83-.29.13-.65-.04-.85-.27-.15-.17-.29-.54,0-.68"/>
      <path class="cls-6" d="M479.5,295.22c1.63-.74,3.36-.99,5.03-.91.24.01.54.19.68.44.11.2.1.43-.1.55"/>
      <path class="cls-6" d="M487.21,296.42c1.78.22,4.05-.63,5.24-2.53,1.8-2.86,1.16-6.71-.73-9.03-.21-.25-.03-.51.22-.55.33-.05.68.19.9.45,1.65,2.02,2.45,5,1.7,7.84-.7,2.65-2.69,4.26-4.93,4.71-.67.13-1.36.18-2.03.1-.27-.03-.73-.23-.81-.57-.08-.35.19-.45.44-.42"/>
    </g>
    <path d="M513.54,246.72c2.52-.83,5.36.63,6.67,2.22.31.37.84,1.45,1.04,3.05.26,2.05-.87,4.14-2.31,5.29-1.93,1.54-4.71,1.41-6.64.1-2.63-1.78-3.01-5.35-1.91-7.72.2-.43,1.12-2.26,3.15-2.93"/>
    <path d="M491.52,251.16s12.75-7.11,18.63-6.76c8.59.51,18.25,6.86,20.57,11.53,0,0-12.66-9.21-18.72-9.39-5.79-.17-20.49,4.62-20.49,4.62Z"/>
    <path d="M442.87,236.33c-2.13-1.58-5.93-1.84-7.67-.74-.41.26-1.52,1.01-2.21,2.47-.89,1.86-.46,4.2.55,5.74,1.35,2.06,4.03,2.81,6.28,2.16,3.05-.87,4.53-4.15,4.22-6.75-.06-.48.54-1.28-1.18-2.56"/>
    <path d="M456.58,244.9s-11.5-10.18-17.76-11.37c-9.14-1.74-20.96,1.89-24.63,5.81,0,0,15.72-5.61,22.12-4.22,6.12,1.33,20.27,9.78,20.27,9.78Z"/>
    <path class="cls-9" d="M539.11,237.55c.02-.07.04-.14.05-.21-.32-.75-.58-1.22-.64-1.33,0,0-2-3.77-6.41-7.43-3.05-2.53-12.3-7.9-25.66-12.91-.77,1.55-1.55,3.11-2.32,4.67-.59,1.19-1.17,2.38-1.75,3.56,4.89,1.21,8.98,2.45,12.03,3.45,6.45,2.11,9.74,3.22,12.97,5.5,3.38,2.39,5.87,5.19,6.83,6.28.75.86,1.98,2.13,2.54,2.84,0,0,1.75-1.96,2.37-4.43Z"/>
    <path class="cls-9" d="M472.72,206.8c.05,1.73.1,3.47.15,5.21.04,1.33.07,2.65.1,3.97-5.91-.9-10.96-1.45-14.77-1.79-8.05-.72-12.17-1.06-16.81-.3-4.87.79-8.98,2.32-10.57,2.93-2.24.85-3.75,1.39-5.53,2.45-3.87,2.3-5.4,4.79-6.06,4.6-.6-.17.3-2.34.39-2.56,2.29-5.46,7.7-8.84,8.1-9.11,0,0,4.06-2.62,10.7-4.14,4.57-1.05,17.31-2.16,34.3-1.25"/>
    <path class="cls-28" d="M364.14,252.48c-1.69-5.3-3.62-10.59-6.33-15.47-1.32-2.37-2.83-4.76-4.84-6.62-.77-.72-1.7-1.47-2.73-1.77-1.49-.44-2.43.74-3.16,1.85-2.73,4.09-3.24,9.22-2.7,14,.07.63,2.26.17,2.17-.58-.42-3.79-.18-7.69,1.35-11.22.4-.94.89-1.83,1.5-2.65.17-.23.34-.44.52-.66.09-.11.33-.34.12-.14l-1.54.41c.19.02-.01-.01,0,0,.16.09.36.13.52.21.68.32,1.29.81,1.88,1.35,2.92,2.68,4.87,6.4,6.52,9.94,1.8,3.87,3.25,7.89,4.54,11.95.22.68,2.38.07,2.17-.58h0Z"/>
    <path class="cls-28" d="M359.8,253.6c-7.13-1.24-4.3,9.01-5.32,12.75-.04.16-.23.43-.24.59,0-.01-.12.13-.12.13-.1-.18.64-.08.65-.09-.01.02-.56-1.11-.65-1.4-.72-2.21-.94-4.61-1.08-6.91-.18-2.83-.16-5.33.48-8.07.7-2.99,2.06-7.55,5.41-8.52,1.34-.38.92-1.99-.43-1.6-3.55,1.02-5.44,4.48-6.51,7.77-.78,2.39-1.32,4.87-1.28,7.38.04,2.8.2,5.64.72,8.4.25,1.33.57,3.56,1.86,4.35,1.17.72,2.57-.13,3.1-1.25s.51-2.62.51-3.89c0-1.86-.13-3.75.14-5.6.18-1.3.49-2.64,2.03-2.37,1.13.2,2.18-1.42.73-1.68h0Z"/>
    <path class="cls-28" d="M528.48,197.9s-18.36.66-33.15-.34c-14.79-1-28.65-9.64-28.65-9.64,0,0,16.91,6.85,28.6,7.7,11.69.86,33.2,2.28,33.2,2.28Z"/>
    <path class="cls-9" d="M531.68,156.28c-.17-.28.07.12,0,0-3.26-5.46-5.14-11.15-8.63-16.46-3.42-5.2-6.8-9.93-10.5-14.93-.22-.29-5.04-.81-5.26-1.1-.04-.06-.19-.24-.23-.31-.12-.16-.24-.31-.36-.47-.28-.36-.56-.72-.84-1.08-22.12-11.83-49.7-15.45-75.3-9.78-49.72,11.02-81.09,60.26-70.07,109.98.94,4.26-1.94,9.1,1.94,11.76,3.89,2.67,4.46,1.54,8.54-.83,3.91-2.63,7.17-6.12,9.51-10.22,12.15-19.21,17.25-50.93,14.25-73.46,2.36,4.4,21.4,1.54,25.33,4.6,15.57,12.11,38.01,9.31,50.12-6.26,1.49,2.6,3.2,5.07,5.1,7.39,17.38,21.22,41.33,32.76,63.1,20.47.8-.45-4.67-15.86-6.7-19.32Z"/>
    <path class="cls-4" d="M410.95,228.52l1.46,8.19c.62,6.28,3.44,18.96,5.04,22.54,2.26,5.01,34.21,11.47,41.08,8.71,6.87-2.77,13.1-20.67,15.41-24.69l12.78,2.6c.34,5.69,1.81,23.76,3.9,26.48,2.1,2.72,16.94,4.45,18.62,4.65,1.39.14,3.34.35,5.47.49,5.64.41,12.56.46,14.95-1.3,3.55-2.61,8.66-13.83,13.19-24.48l.73-1.67c.16-.4.34-.68.36-.8h0l.82-1.92c-17.26-11.56-41.82-13.65-58.2-4.95l.09.21-12.46-2.6c-12.81-11.51-36.61-20.23-55.16-15.98h0l-55.84,1.12-.87,4.81,48.63-1.41ZM492.41,270.78c-1.31-1.69-2.71-14.41-3.48-24.26,14.2-7.3,36.33-5.38,51.9,4l-.04.24c-2.44,5.71-8.91,20.9-12.4,23.47-4.13,3.03-33.64-.75-35.98-3.41v-.05ZM421.47,258.49c-3.07-9.55-5.27-19.36-6.58-29.3,16.66-4.82,43.29,3.12,55.85,14.1-3.35,7.38-8.13,20.43-13.05,22.4-7.08,2.85-34.81-4.04-36.22-7.2h0Z"/>
    <path class="cls-1" d="M335.77,229.54s-43.65-36.8-23.45-71.41c3.88-6.65,4.08-4.35,4.72-10.3,3.33-31.15-8.14-24.51,40.27-57.68,48.41-33.17,55.09-32.05,124.52-21.73,35.81,5.32,54.42,21.81,62.58,45.35,3.67,10.58,5.23,22.58,5.3,35.63,0,0-72.04-26.37-117.57-5.95-45.54,20.42-97.17,93.96-89.63,119.31,2.12,7.12-6.74-33.22-6.74-33.22Z"/>
    <path class="cls-26" d="M309.86,193.3s69.1-86.38,152.52-83.07c0,0-94.75-17.21-147.16,44.31-3.69,4.34-6.08,9.64-6.94,15.28l-.09.57c-.81,5.34-.7,10.78.33,16.09l1.33,6.83Z"/>
    <path class="cls-25" d="M468.03,307.77c-9.17-2.05-30.87-.08-35.86,3.12,0,0,6.11,15.24,27.38,19.99,21.27,4.75,29.17-7.37,29.17-7.37,0,0-9-13.13-20.69-15.74Z"/>
    <path class="cls-18" d="M441.84,308.26s11.88,1.58,21.17,3.66c9.29,2.07,20.7,5.69,20.7,5.69,0,0,3.17-7.2-13.67-10.95-16.84-3.76-28.2,1.61-28.2,1.61Z"/>
    <path class="cls-8" d="M463.1,327.86c-9.6-3.86-19.13-15.21-30.93-16.97,0,0,.12,20.96,25.13,26.54,25.01,5.58,31.42-13.92,31.42-13.92-11.43-3.43-15.29,4.93-25.62,4.35Z"/>
    <path class="cls-8" d="M480.19,304.46c-5.15-1.62-9-.06-11.28-.57-2.28-.51-5.1-3.56-10.46-4.28-5.02-.68-28.94,8.6-27.02,10.93,1.93,2.33,20.34-4.3,36.16-.77,15.82,3.53,19.2,15.02,21.93,13.73,2.73-1.29-4.51-17.52-9.34-19.04Z"/>
    <path class="cls-20" d="M638.16,675.06c-3-5.51,4.4,2.56,2.78-3.51-1.49-5.57-.56-17-.87-22.75-.62-11.28,3.5-4.52,6.16-15.48,3.89-16.01,13.41-13.05,23.77-26.19-19.65-27.28-113.82-175.99-128.92-189.37-9.95-8.82-20.92-16.25-31.15-19.74l-46.26-22.35,3.2,26.43c-17.95,29.1-39.45,19.16-28.73,48.52,7.64,20.92,17.09,32.04,29.79,50.34,26.57,38.29,36.49,73.66,63.6,111.57,13.7,19.15,58.96,54.48,79.68,66.56,10.08,5.88,24.76,11.72,38.89,13.52-.72-1.2-11.27-16.3-11.94-17.54Z"/>
    <path class="cls-20" d="M628.72,598.17c-6.5,9.39,4.98,32.31,1.24,43.09-3.58,10.32-5.56,9.41-5.89,20.35-.18,6.02,8.43,2.63,9.65,8.53,1.25,6.05-8.62-7.11-6.11-1.47.09.2,8.55,20.8,8.64,21,7.74,1.74,18.08,4.28,24.82,2.45,22.87-.43,68.02-18.06,69.55-20.08,50.67-22.63,127.01-34.7,162.81-54.07l12.05-24.19,1.23-18.86,7.63-30.11-2.23-7.1s-65.81,14.01-126.49,28.56c-51.85,12.43-137.21,20.29-137.21,20.29"/>
    <path class="cls-12" d="M924.65,605.21l-69.19-44.33-20.43,47.57-42.23,86.06c10.71,10.78,38.86,16.66,50.89,25.89,6.96,5.34,6.65,3.16,13.35,8.83,3.7-5.02,37.56-73.16,40.59-78.09,8.66-14.05,7.19-1.63,27.01-45.92Z"/>
    <path class="cls-12" d="M896.53,657.71s-28.8,55.88-30.18,58.46c-8.54,16.05-20.35,36.23-37.32,48.55-22.79,16.54-45.5,3.5-60.58-26.54-16.68-33.23,47.6-58.73,47.6-58.73l80.47-21.74Z"/>
    <path class="cls-12" d="M797.38,763.86c-8.64-1.64-21.69-9.78-30.01-26.15-25.2-49.6-60.74-139.95-76.13-188.91l20.96,2.09,14.16-14.36,97.3,152.74"/>
    <path class="cls-15" d="M1248.94,715.38c-11.96,16.23-23.13,33.53-31.23,52.04-4.28,9.78-7.13,19.98-8.74,30.54-1.75,11.53-2.23,23.2-2.69,34.83-.62,15.91-1.02,31.83-1.39,47.74-.44,18.69-.82,37.38-1.19,56.07-.32,16.44-.63,32.88-.98,49.31-.03,1.64-.07,3.28-.11,4.92-.02,1.03,2.17.64,2.19-.22.35-15.88.65-31.77.96-47.65.36-18.56.73-37.13,1.16-55.69.38-16.54.78-33.09,1.37-49.62.76-21.38,1.24-43.44,8.87-63.7,3.57-9.48,8.27-18.52,13.34-27.27,5.1-8.8,10.65-17.34,16.52-25.65,1.31-1.85,2.63-3.68,3.97-5.5.33-.44-.28-.74-.63-.79-.54-.07-1.11.21-1.42.63h0Z"/>
    <path class="cls-15" d="M1315.48,715.64c-11.96,16.23-23.13,33.53-31.23,52.04-4.32,9.87-7.15,20.17-8.74,30.82-1.7,11.41-2.18,22.96-2.63,34.48-.62,15.91-1.02,31.83-1.39,47.74-.44,18.69-.82,37.38-1.19,56.07-.32,16.44-.63,32.88-.98,49.31-.03,1.64-.07,3.28-.11,4.92,0,.36,2.16.07,2.17-.58.35-15.88.65-31.77.96-47.65.36-18.56.73-37.13,1.16-55.69.38-16.54.78-33.09,1.37-49.62.76-21.43,1.27-43.47,8.92-63.78,3.57-9.48,8.27-18.52,13.34-27.27,5.1-8.8,10.65-17.34,16.52-25.65,1.31-1.85,2.63-3.68,3.97-5.5.24-.33-.8-.25-.88-.23-.44.07-.99.23-1.27.61h0Z"/>
    <path class="cls-15" d="M63.67,715.94c11.95,16.22,23.14,33.52,31.22,52.03,4.28,9.81,7.08,20.05,8.66,30.64,1.71,11.48,2.18,23.09,2.62,34.68.61,15.86,1.01,31.72,1.38,47.59.44,18.57.82,37.13,1.18,55.7.32,16.44.63,32.88.98,49.31.03,1.64.07,3.28.11,4.92.03,1.16,2.23.84,2.2-.16-.35-15.88-.65-31.77-.96-47.65-.36-18.69-.74-37.37-1.16-56.06-.38-16.56-.78-33.12-1.37-49.67-.77-21.46-1.31-43.53-9.01-63.86-3.56-9.41-8.23-18.41-13.26-27.11-5.13-8.87-10.71-17.47-16.63-25.83-1.31-1.85-2.63-3.68-3.97-5.5-.6-.81-2.66.05-1.99.97h0Z"/>
    <path class="cls-15" d="M-2.93,715.93c11.96,16.23,23.14,33.52,31.22,52.04,4.28,9.81,7.08,20.05,8.66,30.64,1.71,11.48,2.18,23.1,2.62,34.69.61,15.86,1.01,31.72,1.38,47.59.44,18.57.82,37.13,1.18,55.7.32,16.44.63,32.88.98,49.31.03,1.64.07,3.28.11,4.92.02,1.1,2.22.74,2.2-.19-.35-15.88-.65-31.77-.96-47.65-.36-18.69-.74-37.37-1.16-56.06-.38-16.56-.78-33.12-1.37-49.67-.77-21.46-1.31-43.52-9-63.84-3.56-9.41-8.23-18.4-13.26-27.09-5.13-8.87-10.71-17.47-16.63-25.83-1.31-1.85-2.63-3.68-3.97-5.5-.56-.76-2.64.07-1.99.94h0Z"/>
    <path class="cls-11" d="M1118.84,516.81c-5.78-10.21-35.67-23.61-47.21-27.75-30.05-10.74-49.85-20.84-49.85-20.84,0,0-27.66,45.59-72.46,42.29-44.79-3.3-24.99-28.55-24.99-28.55l-11.31.54c-19.87,9.57-44.41,24.3-58.96,40.97-12.39,14.19-10.5,21.96-18.58,44.25-4.1,11.31-5.77,23.22-17.49,56.51-1.15,3.27-13.27,31.17-13.36,31.82-.68,4.81,17.2,11.45,37.45,16.21,10.25,2.41,19.53,1.45,24.05,3.12.58.98,10.13,73.27,10.34,74.63,3.26,21.7,4.81,39.87,5.44,64.05.01.54-2.04,32.79-2.03,33.33-1.9,6.26.34,11.25,2.17,11.09,28.75-2.53,51.26,13.03,82.19,8.75,14.39-1.99,24.37-3.49,38.89-3.38,2.94.02,11.97-9.38,12.5-6.32,2.01,11.63,6.52-4.79,9.21-4.85,14.78-.36,46.21,17.33,60.99,17.51,15.66.19,43.94-3.23,59.24-.05,2.94.61,7.82-4.99,11-4,3.86-36.03-25.5-108.69-25.66-114.72-1.49-51.82-3.04-4.89-11.86-99.85l3.65-10.35,20.42-5.28c-5.09-59-9.35-93.6-23.77-119.12Z"/>
    <path class="cls-12" d="M1130.69,591.12h-82.17l8.46,51.08,10.87,95.24c14.83,3.3,41.71-6.94,56.82-5.66,8.74.74,3.31-.93,12.01.23.4-6.23-3.84-81.87-3.95-87.65-.29-16.5,5.18-5.26-2.03-53.24Z"/>
    <path class="cls-12" d="M1135.35,650.5s5.89,62.59,6.13,65.5c1.46,18.12,1.41,41.48-6.24,61.01-10.27,26.23-35.42,27.49-64.32,10.33-31.97-18.98,8.4-75.13,8.4-75.13l56.03-61.72Z"/>
    <path class="cls-12" d="M1127.63,788.29c-4.72,7.61-17.21,12.02-35.8,13.94-56.32,5.8-153.67,7.79-205.79,4.51l9.65-19.14-8.46-18.7,180.61-36.56"/>
    <path class="cls-11" d="M1132.93,560.7s9.06,57.59,12.48,94.6c0,0-55.63,15.83-94.97,9.05-41.7-7.19-24.54-103.65-24.54-103.65h107.04Z"/>
    <g>
      <path class="cls-11" d="M1067.73,516.19c2.84-.46-31.57,8.07-27.89,66.82,3.27,52.11,9.32,91.66,9.32,91.66l10.14,1.16s59.48,3.28,86.1-11.52l-1.03-10.06s-61.69,13.93-93.3,6.84"/>
      <path class="cls-5" d="M1067.59,516.83c.2-.03.01.02,0-.01-.03-.06-.94-1.13-.21-1.06-.1,0-.31.14-.4.18-.59.26-1.16.54-1.73.84-2.28,1.19-4.42,2.62-6.43,4.23-7.03,5.66-12.01,13.49-15.19,21.86-2.46,6.48-3.88,13.32-4.58,20.21-.98,9.53-.4,19.02.27,28.55,1.33,19.05,3.11,38.08,5.33,57.05.69,5.91,1.43,11.81,2.22,17.71.37,2.73.59,5.54,1.16,8.23.02.11.03.23.05.34.04.29.46.33.67.36,3.59.41,7.21,1.02,10.82,1.19,4.08.19,8.17.26,12.25.27,16.28.06,32.75-.75,48.77-3.8,8.77-1.67,17.64-3.98,25.5-8.33.24-.13.43-.36.4-.65-.34-3.35-.69-6.71-1.03-10.06-.05-.48-.99-.35-1.24-.29-7.4,1.67-14.88,3-22.36,4.22-15.19,2.47-30.59,4.36-45.99,4.55-8.06.1-16.24-.21-24.13-1.97-.74-.16-2.56.96-1.32,1.23,7.02,1.56,14.28,2,21.45,2.04,8.05.05,16.09-.45,24.1-1.22,13.59-1.31,27.11-3.42,40.5-6.03,2.69-.53,5.38-1.06,8.05-1.66l-1.24-.29c.34,3.35.69,6.71,1.03,10.06l.4-.65c-6.8,3.76-14.47,5.84-22.04,7.4-8.45,1.74-17.06,2.72-25.66,3.34-11.98.87-24.05,1.06-36.05.55-3.81-.16-7.61-.78-11.39-1.22l.67.36c-1.11-7.24-2.02-14.51-2.9-21.78-2.23-18.41-4.03-36.86-5.42-55.35-.77-10.28-1.72-20.6-1.01-30.92.5-7.29,1.73-14.58,4.09-21.51,3-8.82,7.95-17.12,15.19-23.1,1.1-.91,2.25-1.75,3.44-2.52.48-.31.97-.61,1.47-.9.21-.12.42-.24.64-.36.09-.05.19-.1.28-.15.28-.15.07-.04.16-.08.45-.23,3.36-1.29,2.64-2.02-.22-.22-.68-.18-.96-.13-.37.06-1.2.28-1.23.76s.58.57.95.51h0Z"/>
    </g>
    <path class="cls-23" d="M1067.11,731.89c6.12,1.48,12.2,3.29,17.92,5.95,5.33,2.48,10.51,5.79,14.03,10.59,1.95,2.67,3.21,5.73,3.73,8.99.11.67,2.29.17,2.17-.58-2.04-12.77-14.9-19.36-25.98-23.09-3.46-1.16-6.98-2.13-10.52-2.98-.65-.16-2.54.83-1.35,1.12h0Z"/>
    <path class="cls-12" d="M806.6,765.1l12.3-10.9c2.09-1.84,4.64-3.07,7.38-3.56l26.72-4.72,32.03,20.26,8.96,2.65,6.74,37.53-18.33.96s-39.07,13.8-43.22,11.97c-4.15-1.83-11.96-7.63-11.96-7.63,0,0-22.19-3.09-24.57-4.56-9.04-5.62-6.19-7.84-6.19-7.84l-3.89-1.04c-.44,1.39-7.18-6.21-7.38-10.58-.12-2.54-.85-2.4-.85-2.4-3.88-1.4-6.94-4.45-8.36-8.32-.83-2.47,10.31-7.79,10.31-7.79l24.91-2.05-4.6-1.98Z"/>
    <path class="cls-23" d="M819.37,782.34c-2.58,1.17-5.49,1.64-8.25,2.16-2.87.54-5.77.94-8.67,1.18-2.79.23-5.59.34-8.39.31-2.96-.03-5.97-.05-8.85-.79-.66-.17-1.45.01-2.04.33-.26.15-.99.72-.32.9,3.04.78,6.15.84,9.27.9,3.36.06,6.72-.07,10.07-.38,3.23-.3,6.44-.76,9.62-1.4,3.18-.64,6.31-1.29,9.28-2.64.42-.19.82-.6.32-.9s-1.56.12-2.04.33h0Z"/>
    <path class="cls-23" d="M828.53,795.2c-2.58,1.17-5.48,1.65-8.25,2.17-2.87.54-5.77.93-8.68,1.18-2.82.24-5.66.35-8.49.31-2.93-.04-5.9-.06-8.75-.8-.65-.17-1.45.03-2.03.34-.26.14-.99.69-.33.86,3.08.8,6.26.85,9.42.9,3.31.05,6.62-.08,9.92-.39,3.23-.3,6.44-.76,9.62-1.4,3.18-.64,6.31-1.3,9.28-2.64.41-.19.83-.57.33-.86s-1.57.13-2.03.34h0Z"/>
    <path class="cls-23" d="M830.79,764.32c2.37-.51,4.85-.84,7.19-.95.79-.04,1.59-.05,2.38-.01.35.01-.14-.03.17.01.1.01.21.03.31.04s.24.11.09.01c-.06-.04-.19-.03-.27-.23.34.93,3.21.08,2.9-.78-.17-.48-.96-.5-1.38-.53-.92-.08-1.83-.08-2.75-.04-3.03.11-6.03.54-8.99,1.18-.4.09-1.4.48-1.27,1.04s1.29.34,1.62.26h0Z"/>
    <path class="cls-29" d="M189.29,782.93s-72.5,87.32-20.21,186.34c24.91,47.15,157.21,29.79,157.21,29.79l18.71-78.83v-159.03l-155.71,21.73Z"/>
    <path class="cls-20" d="M573.01,490.68c-1.83-22.42-15.16-48.97-32.56-64.86-7.29-6.66-9.77-11.13-18.31-15.91l-17.48-15.06c-.97-.29-15.45-8.03-16.45-8.26-2.13-.48-3.67-.45-4.58-1.78l-10.69-4.18-18.03-10.02c10.95,12.35,10.4,31.6-2.65,38.66-13.1,7.09-30.69,4.31-44.71,2.19-15.36-2.32-29.69-10.93-41.84-20.25-9.71-7.44-18.91-25.27-25.69-35.71-20.83,5.39-63.14,23.75-72.47,29.94-16.84,11.11-25.03,235.01-25.03,235.01,0,0-7.8,87.37-66.58,173.08-.39.56-7.06,9.61-7.31,10.26-.76,2.02,21.92,10.33,36.56,8.19,6.21-.91,7.2,4.67,12.99,7.08,11.79,4.9,21.89,4.53,34.35,7.04,16.95,3.41,34.03,6.31,51.25,8,16.05,1.58,32.96-.55,48.78,1.88l188.67,1.23s17.1-22.95-1.11-81.7c-1.58-9.39-4.15-32.38-5.34-41.87-.69-5.5-.91-4.31-.95-3.88.02-.32.06-1.4.08-4.23.03-4.87.57-3.5.96-8.36.05-.6-11.6-12.69-11.51-13.28,1.71-10.34,3.2-11.33,6.1-21.39,0,0,5.51-6.83,16.32-16.95,3.31-3.1,12.6-16.08,16.48-42.77.03-14.77,4.31-28.16,4.41-42.93.16-23.78,8.26-45.43,6.32-69.17Z"/>
    <path class="cls-29" d="M667.38,951.38c-3.86,115.82-11.96,255.87-30.35,374.09,0,0-89.17,44.31-102.36,18.39,0,0-32.08-241.74-75.96-383.7-38.64-125.01-299.64-141.23-268.14-146.02,56.99-8.67,326.49-45.45,427.02,1.98,37.03,17.47,52.35,58.48,49.79,135.27Z"/>
    <path class="cls-29" d="M612.33,836.13s-16.33-12.81-39.02-6.77c2.13-11.85,2.1-18.79,2.1-18.79-2.69-2.21-17.39,1.08-20.34-1.2-12.32,6.6-26.84,2.04-38.02,10.69-13,10.06-11.15,2.72-22.55,14.85-10.98,11.69-21.17,24.34-30.16,37.91-2.55,3.84-39.11,7.77-41.44,11.78.41.04.07,23.05.48,23.09-33.1,62.54,18.91,155.1,15.67,266.34-2.85,97.67-3.11,111.63-8.35,163.51,15.62,23.48,136.93,12.48,136.93,12.48,15.2-150.7,44.7-513.88,44.7-513.88Z"/>
    <line class="cls-24" x1="468.06" y1="576.12" x2="467.93" y2="578"/>
    <path class="cls-3" d="M561.68,490.85c-2.39,2.8-4.21,6.24-5.66,9.59-2.65,6.13-3.91,12.86-3.31,19.53.48,5.41,1.58,10.77,2.56,16.11,1.33,7.23,2.65,14.46,3.68,21.74,2.44,17.16,3.5,34.82.33,51.95-2.49,13.45-7.17,27.54-16.45,37.9-2.58,2.88-5.52,5.35-8.48,7.83-2.22,1.86-4.53,3.79-6.03,6.3-.35.59-.67,1.21-.93,1.85-.24.59,1.89.35,2.16-.31,1.07-2.62,3.07-4.63,5.18-6.45,2.72-2.36,5.55-4.58,8.1-7.13,9.03-9.03,13.95-21.14,17.07-33.33,4.34-16.97,4.14-34.71,2.15-52.01-.89-7.71-2.14-15.36-3.52-22.99-1.08-5.97-2.29-11.93-3.16-17.95s-.81-12.02.89-17.99c1.42-5.01,3.74-9.89,6.91-14.03.17-.22.34-.44.51-.65.34-.4-.29-.53-.56-.55-.48-.02-1.12.19-1.44.57h0Z"/>
    <g>
      <path class="cls-11" d="M852.16,597.58c1.28,26.56,10.13,52.21,12.67,78.68,0,0-26.48-1.39-39.73-7.05-13.25-5.66-21.06-12.75-21.06-12.75l6.3-11.27s9.16,16.34,45.81,17.01"/>
      <path class="cls-5" d="M851.07,597.87c1.04,20.77,6.6,40.9,10.22,61.29,1.02,5.76,1.88,11.56,2.45,17.39l1.52-.87c-6.74-.36-13.5-1.12-20.17-2.17-5.2-.82-10.43-1.82-15.44-3.45-5.83-1.9-11.4-4.86-16.56-8.14-2.78-1.77-5.58-3.67-8.03-5.89v.41c2.09-3.76,4.19-7.51,6.29-11.27l-2.09.29c1.29,2.28,3.44,4.19,5.47,5.78,5.91,4.64,13.12,7.41,20.37,9.12,6.75,1.6,13.7,2.26,20.63,2.39.77.02,2.33-1.12.87-1.15-10.6-.21-21.47-1.67-31.21-6.06-4.63-2.09-9.13-4.89-12.5-8.76-.41-.47-.8-.95-1.15-1.46-.09-.13-.17-.28-.27-.41s.06.11-.02-.04c-.34-.6-1.81-.22-2.09.29-2.1,3.76-4.2,7.51-6.3,11.27-.07.13-.14.29,0,.41,2.06,1.86,4.37,3.48,6.68,5.01,5.16,3.42,10.73,6.52,16.56,8.63,9.61,3.49,20.12,4.74,30.24,5.71,2.62.25,5.25.48,7.88.62.44.02,1.58-.25,1.52-.87-2.01-20.68-7.79-40.73-10.87-61.24-.87-5.78-1.51-11.59-1.8-17.43-.03-.62-2.21-.2-2.17.58h0Z"/>
    </g>
    <path class="cls-23" d="M818.19,753.39c2.59-1.8,5.14-3.7,7.8-5.39,1.54-.97,3.07-1.56,4.9-1.72,1.67-.15,3.37-.12,5.04-.15,3.24-.06,6.48-.12,9.73-.18,2.98-.05,6.79-.74,9.46.9.51.31,2.28-.58,2.05-.72-2.87-1.77-6.89-1.07-10.09-1.01-4.07.07-8.15.14-12.22.22-3.31.06-6.47.38-9.42,2-3.23,1.77-6.19,4.15-9.21,6.25-.42.29.37.31.5.3.5-.03,1.05-.22,1.46-.5h0Z"/>
    <path class="cls-23" d="M823.44,724.53c4.1-10.14,3.67-21.61.88-32.03-1.26-4.69-3-9.27-5.3-13.54-1.51-2.82-3.42-5.29-5.24-7.89-1.66-2.38-3.33-4.77-4.99-7.15-.34-.49-2.45.2-2.03.79,1.44,2.07,2.89,4.13,4.33,6.2,1.68,2.41,3.52,4.69,4.99,7.24,4.98,8.64,7.85,18.79,8.18,28.74.21,6.13-.67,12.27-2.97,17.97-.21.53,1.9.3,2.16-.33h0Z"/>
    <g id="freepik--Character--inject-2">
      <path class="cls-12" d="M741.39,560.95l-12.89-18.98s-2.22-19.31-5.28-24.49c-3.06-5.18-20.34-21.74-21.4-22.22-1.06-.48-10.99-28.75-16.61-28.33-5.62.42-9.74,4.02-8.8,11.54.94,7.52,12.03,23.3,8.43,25.45-2.87,1.46-6,2.35-9.21,2.62,0,0-.68-7.04-5.11-10.16-4.43-3.12-9.2-1.2-9.2-1.2l.7,6.65-7.32-7.23s-3.66-16.73-11-17.24c-1.42-3.85-2.57-7.86-5.4-10.83-2.62-2.33-6.63-2.1-8.97.52-.41.46-.75.98-1.01,1.54h0l10,39.77,33,42.9s21.82,7.34,25.98,9.69c4.17,2.35,7.46,22.62,9.24,21.17,14.89-12.18,34.85-21.17,34.85-21.17Z"/>
    </g>
    <path class="cls-21" d="M724.7,540.72c-.92,1.54-1.88,2.89-3.54,3.68-2.19,1.04-4.64,1.49-7,1.95-.35.07-1.16.23-1.25.67s.68.4.91.35c2.89-.57,5.82-1.15,8.5-2.42.94-.45,1.81-1.01,2.55-1.74s1.3-1.64,1.84-2.54c.46-.77-1.68-.48-2,.05h0Z"/>
    <path class="cls-21" d="M693.02,545.44c-.46-4.21-2.6-7.76-5.25-10.96-1.38-1.66-2.84-3.24-4.24-4.88-1.52-1.78-3.32-3.72-3.99-6s-.81-4.69-1.19-6.99-.76-4.53-1.1-6.8c-.65-4.27-1.12-9.54-4.34-12.77-2.8-2.82-7.74-4.47-11.6-3.09-.31.11-.93.39-.9.83.41,7.37,1.28,14.71,1.82,22.07.26,3.53.4,7.03,1.13,10.5.73,3.47,1.91,6.81,3.44,10.01.45.95,2.6.31,2.17-.58-1.5-3.13-2.67-6.4-3.4-9.8-.73-3.39-.9-6.81-1.14-10.26-.52-7.38-1.41-14.72-1.82-22.11l-.9.83c3.26-1.16,7.73.57,9.81,3.24,2.8,3.59,3.08,8.7,3.75,13.03.32,2.02.66,4.03.99,6.05.36,2.19.49,4.52,1.16,6.64s2.14,3.81,3.5,5.45c1.27,1.53,2.61,2.99,3.91,4.49,2.96,3.43,5.51,7.08,6.01,11.69.11.99,2.29.46,2.17-.58h0Z"/>
    <path class="cls-21" d="M657.87,515.07c.33-10.91-1.36-22.19-5.95-32.16-.95-2.06-2-3.84-4.02-5-1.78-1.02-3.98-1.43-5.97-.84-.64.19-1.64.44-2.07,1-.38.5-.29,1.3-.29,1.89.01,2.4.22,4.8.35,7.19.36,7.13.72,14.25,1.08,21.38.03.57,2.21.17,2.17-.58-.28-5.55-.56-11.1-.84-16.65-.14-2.73-.28-5.47-.42-8.2-.04-.89-.1-1.77-.14-2.66-.02-.49-.28-1.93.06-2.31.5-.55,2.08-.15,2.63.02,1.07.32,2.11.91,2.93,1.66,1.58,1.41,2.4,3.74,3.19,5.65,1.83,4.42,3.1,9.07,3.93,13.78.96,5.42,1.33,10.94,1.16,16.44-.02.53,2.15.18,2.17-.58h0Z"/>
    <path class="cls-21" d="M697.66,501.65c-3.83.29-7.58,1.31-11.03,2.99-.37.18-.84.61-.53,1.04s1.08.3,1.46.12c3.1-1.51,6.44-2.42,9.88-2.68.45-.03,1.15-.32,1.21-.84s-.59-.67-.98-.64h0Z"/>
    <path class="cls-29" d="M645.4,857.22c17.53,20.44,6.95,48.19,15.22,73.01-.79,4.58-1.44,9.19-1.88,13.82l-.02.02c-107.69,34.69-443.6,108.84-486.55-3.93-32.26-84.7,30.5-115.68,30.5-115.68,0,0,187.03-18.13,326.51-19,28.9-.18,57.17,7.45,80.71,22.08,12.3,7.65,25.03,17.46,35.51,29.67Z"/>
    <path class="cls-16" d="M749.12,932.59c8.46-6.85,14.7-11.03,25.29-18.27,33.85,17.95,63.34,42.26,85.89,72.85l-8.61,3.45s17.78,49.63,22.8,76.78c5.02,27.15,8.9,205.19,8.9,205.19l-49.21,3.23s-61.25-172.44-85.19-254.46c-7.04-24.17-20.02-72.47.13-88.76Z"/>
    <path class="cls-14" d="M1119.66,857.23c-40.91-8.01-82.72-10.02-123.98-7.13-20.67,1.45-43.73,10.9-64.44,9.24-20.62-1.65-28.47-.69-49.19-.86l-95.21,47.71c-12.05,4.2-25.94,14.02-26.02,16.28,15.64,0,27.96,6.26,35.93,11.67,29.89,20.3,31.05,33.93,50.99,62.23l1.85,2.02s245.7,20.15,289.07-20.86c25.6-24.21,27.73-82.94,16.41-111.38-15.91-9.65-17-5.3-35.41-8.91Z"/>
    <path class="cls-23" d="M853.94,1212.37c-.64-1.94-1.28-3.88-1.91-5.82-1.75-5.35-3.5-10.7-5.25-16.05-2.63-8.05-5.24-16.11-7.85-24.16-3.25-10.05-6.5-20.1-9.72-30.15-3.64-11.33-7.26-22.67-10.86-34.02-3.78-11.92-7.54-23.84-11.27-35.77-3.68-11.79-7.34-23.59-10.95-35.4-3.35-10.96-6.66-21.92-9.89-32.91-1.74-5.89-3.52-11.76-5.37-17.61-1.71-5.42-3.45-10.91-4.15-16.57-.61-4.91-.22-9.93,1.84-14.48,2.2-4.84,6.15-9.4,10.52-12.4,1.32-.91,2.65-1.82,3.97-2.73,1.21-.83-.65-1.15-1.36-.67-3.58,2.45-6.97,4.84-9.93,8.07-3.57,3.91-6.27,8.55-7.15,13.81-.84,5-.12,10.11,1.04,14.99,1.43,6.01,3.48,11.86,5.31,17.75,3.43,11.04,6.57,22.17,9.92,33.23,3.54,11.7,7.14,23.38,10.77,35.05,3.76,12.08,7.55,24.15,11.36,36.22,3.68,11.64,7.38,23.26,11.1,34.89,3.39,10.57,6.79,21.14,10.2,31.71,2.81,8.7,5.63,17.39,8.46,26.08,2.01,6.17,4.03,12.35,6.05,18.52.94,2.88,1.81,5.8,2.84,8.64.04.12.08.24.12.36.26.77,2.42.16,2.17-.58h0Z"/>
    <path class="cls-27" d="M794.84,932.13c-1.33-2.29-2.7-4.56-3.99-6.87-2.39-4.29,2.39-10.01,6.46-11.06,10.13-2.61,20.05-5.96,29.84-9.66,19.37-7.33,38.39-15.85,56.7-25.52,3.51-1.86,7.01-3.76,10.42-5.8,2.08-1.24,4.21-2.5,6.07-4.05,1.13-.94-.64-1.47-1.4-.84-1.68,1.4-3.58,2.55-5.44,3.67-2.93,1.78-5.94,3.44-8.96,5.06-8.57,4.59-17.32,8.83-26.16,12.88-10.24,4.69-20.61,9.1-31.14,13.11-10.05,3.83-20.21,7.07-30.58,9.92-2.61.72-4.82,2.47-6.42,4.62-1.51,2.02-2.8,4.88-1.95,7.43.45,1.37,1.46,2.7,2.18,3.94.79,1.36,1.58,2.72,2.37,4.08.43.74,2.53,0,2-.91h0Z"/>
    <path class="cls-16" d="M789.95,936.6c8.46-6.85,16.49-11.03,27.08-18.27,33.85,17.95,63.34,42.26,85.89,72.85l-8.61,3.45s17.78,49.63,22.8,76.78c5.02,27.15,8.9,205.19,8.9,205.19l-49.21,3.23s-67.2-205.68-91.15-287.71c-7.04-24.17-15.85-39.22,4.29-55.51Z"/>
    <path class="cls-14" d="M1158.77,890.76s1.4,74.65-18.08,83.96c-50.95,24.37-242.72,26.63-242.72,26.63l-13.17-20.34c-11.53-17.81-36.69-37.69-53.47-49.88l-37.96-11.89,183.39-42.97h126.6l55.4,14.49Z"/>
    <path class="cls-6" d="M835.12,762.77l-30.98-29.58c-2.28-2.19-5.46-3.15-8.57-2.59l-49.36,8.72c-1.98.35-3.31,2.24-2.96,4.22h0c.16.86.61,1.63,1.29,2.19l34.08,27.82h0l56.49-10.77Z"/>
    <path class="cls-19" d="M829.99,764.44c-.29-.18-.55-.38-.8-.62l-2.1-1.89-7.94-7.04-11.52-10.55-6.78-6.24c-1.18-1.01-2.61-1.68-4.15-1.93-.78-.13-1.58-.15-2.37-.06l-2.46.43-34.21,5.9-10.4,1.7-2.82.5c-.33.07-.67.1-1.01.09.31-.13.64-.22.98-.26l2.8-.58,10.35-1.99,34.16-6.16,2.53-.45c.87-.09,1.74-.07,2.6.07,1.69.29,3.27,1.03,4.57,2.15l6.77,6.29,11.39,10.7c3.15,2.97,5.74,5.45,7.63,7.27.83.81,1.5,1.5,2.11,1.99.24.19.46.41.65.66Z"/>
    <path class="cls-3" d="M656.13,585.84c-9.97,8.83-16.22,21.52-17.23,34.8-.29,3.77-.13,7.56.43,11.29.15,1.02,2.33.48,2.17-.58-2.46-16.29,3.72-33.56,16.07-44.49,1.1-.97-.62-1.76-1.45-1.02h0Z"/>
    <path class="cls-21" d="M485.18,220.76c4.55-2.15,7.21-7.72,5.2-12.52-.3-.72-2.44-.06-2.17.58,1.62,3.87.07,9.24-3.87,11.1-.28.13-.89.45-.59.84.27.35,1.13.15,1.43,0h0Z"/>
    <g>
      <path class="cls-11" d="M1016.1,464.28s-16.13,43.36-60.16,44.55c-44.03,1.19-33.01-23.22-33.01-23.22l2.72-10.45-12.1,7.23s-3.41,16.15,2.78,25.98c6.19,9.84,26.63,14.91,54.44,9.92,16.31-2.93,29.26-9.6,41.24-22.8,14.35-15.8,16.99-25.63,16.99-25.63l-12.9-5.58Z"/>
      <path class="cls-5" d="M1015.06,464.17c-1.88,5.04-4.74,9.84-7.75,14.26-6.64,9.75-15.48,18.21-26.1,23.49-6.67,3.31-13.92,5.3-21.33,5.93-7.91.67-16.46.47-24.12-1.83-4.13-1.24-8.29-3.3-10.79-6.96-1.59-2.33-2.29-5.15-2.17-7.95.05-1.08.2-2.15.45-3.2.19-.82.31-1.18.55-1.82,1.08-2.94,1.66-6.13,2.45-9.17.16-.62.32-1.24.48-1.87.25-.96-1.45-.59-1.81-.38-3.31,1.98-6.62,3.95-9.92,5.93-.8.48-2.29,1-2.59,1.97-.45,1.49-.52,3.22-.66,4.76-.6,6.37-.4,13.36,2.36,19.25,2.17,4.64,6.09,7.72,10.67,9.84,5.87,2.72,12.42,3.89,18.83,4.34,8.64.62,17.35-.07,25.87-1.53,7.69-1.31,15.22-3.45,22.21-6.97,7.01-3.53,13.28-8.33,18.78-13.92,5.59-5.69,10.71-12.03,14.88-18.84,1.78-2.9,3.49-5.95,4.57-9.19.06-.19.13-.38.18-.57.08-.31-.23-.52-.46-.62-4.3-1.86-8.6-3.72-12.9-5.58-.87-.38-2.52.87-1.27,1.42,4.3,1.86,8.6,3.72,12.9,5.58l-.46-.62c-.03.1-.15.33-.04.14-.15.25-.21.6-.31.87-.43,1.13-.93,2.24-1.47,3.33-2.17,4.4-4.92,8.51-7.89,12.41-8.32,10.93-18.33,20.59-31.1,26.06-6.15,2.64-12.66,4.24-19.26,5.27-7.13,1.11-14.38,1.69-21.6,1.34-5.67-.28-11.39-1.08-16.77-2.97-3.88-1.36-7.76-3.33-10.56-6.42-3.51-3.88-4.75-9.37-5.11-14.46-.29-4.16-.03-8.42.7-12.53.04-.24.08-.48.13-.71l-.39.56c4.03-2.41,8.07-4.82,12.1-7.23-.6-.13-1.21-.25-1.81-.38-.55,2.1-1.09,4.2-1.64,6.3l-.9,3.48c-.06.22-.1.44-.17.66.02-.06.09-.28.03-.12-.53,1.45-.95,2.91-1.14,4.45-.34,2.8.01,5.68,1.25,8.23,1.82,3.73,5.22,6.24,8.95,7.88,6.67,2.95,14.34,3.48,21.54,3.5,8.22.02,16.3-1.14,24.03-4.03,12.06-4.51,22.34-12.91,30.11-23.08,4.13-5.41,7.97-11.45,10.42-17.84.04-.1.08-.2.12-.3.43-1.14-1.75-1.08-2.07-.21Z"/>
    </g>
    <path class="cls-20" d="M301.29,669.61c-6.38,4.73-12.8,6.94-19.49,11.12-.79.5-1.61.25-2.15-.28l2.24-50.42,60.87-275-65.02,19.41c-16.36,5.06-36.26,13.31-49.03,24.73-.79.71-1.57,1.42-2.34,2.15-9.96,9.43-16.94,20.85-24.16,32.48h0c-8.4,13.54-10.27,29.05-11.85,44.91-.52,5.26-1,10.81-1.66,16.94-4.92,46.35-5.41,92.67-9.68,139.08-2.16,23.45-2.13,68.31,5.64,91,6.26,18.27,11.75,34.05,31.46,39.67,2.03.58,33.04-.54,35.15-.02,37.12,9.17,202.63-4.66,202.63-4.66l-3.62-33.69-149.01-57.42Z"/>
    <path class="cls-3" d="M515.98,705.34c.48,1.53.97,3.06,1.45,4.59l.89-1.01c-2.68.81-5.37,1.61-8.06,2.42-7.09,2.13-14.17,4.25-21.26,6.36-9.9,2.96-19.8,5.9-29.7,8.84-11.27,3.34-22.55,6.68-33.83,9.99-11.02,3.24-22.04,6.46-33.08,9.64s-21.33,6.18-32.07,9c-13.85,3.65-27.83,6.83-41.94,9.36-15.69,2.81-31.55,4.8-47.47,5.75-8.41.5-16.84.72-25.26.61-8.4-.11-16.57-.76-24.67-3.13-.97-.28-1.93-.61-2.9-.91-.63-.19.14.09-.18-.05-.4-.18-.79-.39-1.18-.59-1.56-.79-3.1-1.62-4.63-2.48-4.39-2.48-8.76-5.21-12.51-8.6-1.6-1.44-3.2-3.1-4.16-5.04-.45-.92-2.6-.27-2.17.58,2.09,4.2,6.26,7.27,10.03,9.87s7.54,4.75,11.51,6.78c4.57,2.33,9.92,3.34,14.96,4.12,8.32,1.31,16.91,1.12,25.31.98,16.36-.26,32.7-1.68,48.89-4.03,14.86-2.16,29.61-5.1,44.21-8.61,11.87-2.86,23.62-6.15,35.35-9.51,10.84-3.1,21.66-6.24,32.47-9.41,11.49-3.36,22.97-6.74,34.45-10.14,10.52-3.11,21.03-6.24,31.54-9.37,8.07-2.41,16.14-4.82,24.21-7.24,3.99-1.2,7.99-2.4,11.98-3.6.18-.05.35-.11.53-.16.39-.12,1.06-.49.89-1.01-.48-1.53-.97-3.06-1.45-4.59-.31-.97-2.48-.37-2.17.58h0Z"/>
    <path class="cls-3" d="M256.97,413.02c14.31.86,22.51,16.38,27.05,28.11,3.15,8.14,5.82,16.68,6.21,25.44.29,6.48.13,12.98-.07,19.45-.27,9-.74,17.98-1.26,26.97-.62,10.49-1.33,20.98-2.1,31.46-.81,11.04-1.68,22.09-2.6,33.12-.87,10.52-1.77,21.04-2.71,31.55-.8,9.05-1.63,18.1-2.47,27.15-.62,6.6-1.24,13.2-1.88,19.79-.31,3.16-.65,6.31-.93,9.47-.01.14-.03.27-.04.41-.09.86,1.4.61,1.79.29.04-.03.08-.06.12-.08.26-.15.33-.19.18-.11.6-.31,1.23-.57,1.86-.81.1-.04.2-.07.3-.11-.02,0-.12.04.17-.06s.58-.19.87-.28c.71-.22,1.42-.42,2.14-.61,1.93-.5,3.88-.91,5.84-1.26,6.88-1.22,13.86-1.86,20.83-2.32,11.94-.79,23.91-.95,35.87-.86,22.02.16,44.01-.02,66.02-.61,20.54-.56,41.07-1.34,61.6-2.26,7.16-.32,14.33-.66,21.49-1.02,3.4-.17,6.87-.16,10.26-.53.15-.02.3-.02.45-.02l-.96-.4c.85,2.23,1.7,4.47,2.56,6.7.33.86,2.49.24,2.17-.58-.85-2.23-1.7-4.47-2.56-6.7-.15-.38-.61-.42-.96-.4-8.8.48-17.6.91-26.41,1.31-20.07.93-40.15,1.72-60.24,2.32-21.76.65-43.54,1.12-65.31.89-20.46-.22-41.24-.46-61.54,2.62-4,.61-8.03,1.32-11.89,2.56-1.17.38-3.19.83-4.12,1.75-.03.03-.07.05-.11.08l1.79.29c.22-2.2.43-4.4.65-6.61.58-5.93,1.14-11.87,1.7-17.8.81-8.65,1.61-17.31,2.39-25.96.93-10.36,1.84-20.73,2.71-31.1.93-11.06,1.82-22.13,2.66-33.2s1.58-21.51,2.25-32.27c.59-9.43,1.11-18.86,1.47-28.3.27-7.1.48-14.21.32-21.31-.05-2.39-.14-4.79-.38-7.18-.42-4.18-1.66-8.28-2.84-12.3-2.26-7.68-5.19-15.28-9.39-22.12-3.39-5.53-7.85-10.85-13.78-13.76-2.62-1.29-5.44-2.03-8.35-2.21-.94-.06-2.27,1.31-.8,1.4h0Z"/>
    <path class="cls-12" d="M516.66,705.37l16.39-3.62s48.65,13.99,62.98,12.66c10.32-1.4,20.4-4.41,29.95-8.95l12.27,2.72c5.65,1.25,11.48.28,16.52-2.75l3.88-2.34s14.6,7.99,17.09,3.07c2.49-4.92-2.29-9.51-6.94-13.97-4.65-4.46-96.59-41.9-96.59-41.9,7.86-4.12,23-3.22,31.39-5.76,12.91-3.8,16.53-10.52,10.42-15.16-3.77-2.86-14.72-4.21-21.51-.02-6.77,4.17-41.59-1.66-54.11,4.22-12.52,5.88-20.26,24.79-20.26,24.79-1.02.65-10.18,1.22-10.18,1.22-.31,1.9,8.71,45.8,8.71,45.8Z"/>
    <path class="cls-21" d="M657.83,702.48c-5.64-2.44-11.68-4.05-17.56-5.81-7.2-2.16-14.43-4.24-21.57-6.61-2.87-.95-5.79-1.91-8.53-3.22-.65-.31-2.22.58-1.38.99,5.55,2.64,11.62,4.31,17.49,6.1,7.29,2.22,14.62,4.31,21.88,6.63,2.9.93,5.83,1.86,8.63,3.07.7.3,2.06-.7,1.04-1.14h0Z"/>
    <path class="cls-21" d="M624.4,704.57c-9.74-2.13-19.47-4.27-29.21-6.4-1.37-.3-2.74-.6-4.11-.9-.52-.11-2.08.69-1.1.9,9.74,2.13,19.47,4.27,29.21,6.4,1.37.3,2.74.6,4.11.9.52.11,2.08-.69,1.1-.9h0Z"/>
    <path class="cls-3" d="M278.59,664.11c-4.05.32-7.37,2.65-10.59,4.92-3.27,2.3-6.4,4.75-8.83,7.96-4.64,6.13-6.78,13.65-8.82,20.94-.29,1.04,1.94.8,2.2-.16,1.88-6.72,3.84-13.74,7.96-19.49,2.15-3,4.87-5.35,7.85-7.49s6.21-4.78,10.03-5.08c1.23-.1,1.67-1.72.19-1.61h0Z"/>
  </g>
</svg>