<?xml version="1.0" encoding="UTF-8"?>
<svg xmlns="http://www.w3.org/2000/svg" xmlns:xlink="http://www.w3.org/1999/xlink" viewBox="0 0 1334 1000">
  <defs>
    <style>
      .cls-1 {
        fill: #3c5c2c;
      }

      .cls-2 {
        fill: #622515;
      }

      .cls-3 {
        fill: #13110f;
      }

      .cls-4 {
        fill: #1b1b1b;
      }

      .cls-5 {
        fill: #0e4559;
      }

      .cls-6 {
        fill: #6c8e4e;
      }

      .cls-7 {
        fill: #273339;
      }

      .cls-8 {
        fill: #476c34;
      }

      .cls-9 {
        fill: #c7cd8b;
      }

      .cls-10 {
        fill: #010101;
      }

      .cls-11 {
        fill: #4e5868;
      }

      .cls-12 {
        fill: #5f6161;
      }

      .cls-13 {
        fill: url(#linear-gradient-3);
      }

      .cls-14 {
        fill: url(#linear-gradient-2);
      }

      .cls-15 {
        fill: #653c29;
      }

      .cls-16 {
        fill: #231f20;
      }

      .cls-17 {
        fill: #ababab;
      }

      .cls-18 {
        fill: #a63d2e;
      }

      .cls-19 {
        fill: #5c1a0c;
      }

      .cls-20 {
        fill: #f1eef7;
      }

      .cls-21 {
        fill: #4d2f15;
      }

      .cls-22 {
        fill: #a67352;
      }

      .cls-23 {
        fill: none;
        stroke: #4f2f26;
      }

      .cls-23, .cls-24 {
        stroke-miterlimit: 10;
      }

      .cls-25 {
        fill: #a66f53;
      }

      .cls-26 {
        fill: #f0e9d1;
      }

      .cls-27 {
        fill: #0a1928;
      }

      .cls-28 {
        fill: #100e0d;
      }

      .cls-29 {
        fill: #a66e53;
      }

      .cls-30 {
        fill: url(#linear-gradient);
        opacity: .5;
      }

      .cls-31 {
        fill: #898989;
      }

      .cls-32 {
        fill: #1e572b;
      }

      .cls-33 {
        fill: #1b120c;
      }

      .cls-34 {
        fill: #fff;
      }

      .cls-35 {
        fill: #0b2f42;
      }

      .cls-36 {
        fill: #d2d2d1;
      }

      .cls-37 {
        fill: #4f2f26;
      }

      .cls-38 {
        fill: #3f535a;
      }

      .cls-39 {
        fill: #f2ebd1;
      }

      .cls-40 {
        fill: #24180f;
      }

      .cls-41 {
        fill: #bb997a;
      }

      .cls-42 {
        fill: #28160e;
      }

      .cls-43 {
        fill: #a53b23;
      }

      .cls-44 {
        fill: #343535;
      }

      .cls-24 {
        stroke: #161311;
        stroke-width: .13px;
      }

      .cls-45 {
        fill: #a38166;
      }

      .cls-46 {
        fill: #87654d;
      }

      .cls-47 {
        fill: #4f2e25;
      }
    </style>
    <linearGradient id="linear-gradient" x1="-4372.49" y1="6771.72" x2="-3329.87" y2="6771.72" gradientTransform="translate(-6097.43 4376.39) rotate(90) scale(1 -1)" gradientUnits="userSpaceOnUse">
      <stop offset="0" stop-color="#f0ebe0"/>
      <stop offset=".18" stop-color="#eee8dd" stop-opacity=".99"/>
      <stop offset=".33" stop-color="#e8e1d4" stop-opacity=".97"/>
      <stop offset=".46" stop-color="#ded4c5" stop-opacity=".93"/>
      <stop offset=".59" stop-color="#d0c2b0" stop-opacity=".88"/>
      <stop offset=".72" stop-color="#bdab95" stop-opacity=".82"/>
      <stop offset=".84" stop-color="#a78e73" stop-opacity=".73"/>
      <stop offset=".96" stop-color="#8d6d4d" stop-opacity=".64"/>
      <stop offset="1" stop-color="#83603d" stop-opacity=".6"/>
    </linearGradient>
    <linearGradient id="linear-gradient-2" x1="1003.8" y1="848.98" x2="1041.4" y2="-43.83" gradientUnits="userSpaceOnUse">
      <stop offset=".29" stop-color="#bbe5f5"/>
      <stop offset=".81" stop-color="#76c7db"/>
    </linearGradient>
    <linearGradient id="linear-gradient-3" x1="1059.88" y1="956.38" x2="1066.21" y2="806.01" gradientUnits="userSpaceOnUse">
      <stop offset=".01" stop-color="#769a3e"/>
      <stop offset=".98" stop-color="#496b33"/>
    </linearGradient>
  </defs>
  <g id="Layer_2" data-name="Layer 2">
    <polyline class="cls-39" points="1366.65 1028.4 1366.65 -11.31 -18.06 -11.31 -18.06 1028.4"/>
    <polyline class="cls-30" points="1366.65 1043.08 -18.06 1043.08 -18.06 .46 1366.65 .46"/>
    <path class="cls-18" d="M564.66,276.16s45.06,19.36,51.31,32.66c9.5,20.21,14.57,39.79,14.57,39.79l-23.45,17.05-42.43-89.5Z"/>
    <rect class="cls-14" x="854.18" y="76.63" width="333.2" height="738.01"/>
    <rect class="cls-41" x="847.26" y="59.79" width="435.98" height="21.46"/>
    <path class="cls-8" d="M1140.51,840.07c4.09-4.42,8.42-9.42,8.54-15.44.12-6.02-6.81-12.03-11.83-8.7,1.46-3.62.09-8.16-3.12-10.37-3.21-2.22-7.94-1.88-10.8.76-1.63-8.73-14.97-12.18-20.62-5.32.53-3.41-4.29-5.7-7.28-3.99-3,1.71-4.02,5.6-3.79,9.05-1.96-4.03-6.56-6.6-11.02-6.16-4.46.44-8.47,3.86-9.61,8.19-.43-3.81-1.06-8.01-4-10.47-2.94-2.46-8.79-1.07-8.71,2.77.88-5.42-2.13-11.24-7.07-13.64-4.93-2.4-11.38-1.19-15.1,2.85-.72-5.31-2.71-10.84-7.11-13.89-4.41-3.05-11.62-2.25-13.86,2.61-2.54-4.15-6.6-7.95-11.47-7.94-4.86,0-9.38,5.77-6.75,9.86-3.6-6-14.81-3.64-15.67,3.31-2.59-4.01-7.98-5.96-12.53-4.54-4.55,1.42-7.87,6.1-7.71,10.87-4.53-2.79-10.82-2.34-14.91,1.06-4.09,3.4-5.67,9.51-3.75,14.47-13.61,1.09-23.56,17.44-18.26,30.02"/>
    <path class="cls-1" d="M929.29,804.12c1.96-5.44.41-12.1-3.67-15.79s-10.37-4.15-14.93-1.07c.19-5.22-3.11-10.31-7.66-11.84s-9.97.64-12.58,5.04c-.82-7.58-12.04-10.1-15.68-3.52,2.67-4.49-1.82-10.76-6.7-10.74-4.87.03-8.97,4.2-11.54,8.76-1.03-2.46-3.13-3.94-5.53-4.51v69.24l96.4-2.86c5.38-13.8-4.48-31.61-18.11-32.71Z"/>
    <path class="cls-13" d="M1256.21,943.63h-386.95v-110.37l119.93-1.51c15.4-.83,133.77-.5,149.17.31l117.84,1.2v110.37Z"/>
    <polyline class="cls-31" points="-15.81 1065.72 1360.76 1065.72 1360.76 943.82 -15.81 943.82"/>
    <rect class="cls-41" x="1256.21" y="76.63" width="27.03" height="867.26"/>
    <rect class="cls-41" x="847.26" y="76.63" width="22.01" height="867.26"/>
    <polygon class="cls-45" points="1026.3 48.05 1261.8 77.91 1261.8 944.18 1026.3 976.49 1026.3 48.05"/>
    <rect class="cls-46" x="1000.94" y="48.02" width="25.36" height="927.69"/>
    <g>
      <path class="cls-12" d="M1064.84,518h40.68c2.69,0,4.87,3.04,4.87,6.78h0c0,3.75-2.18,6.78-4.87,6.78h-40.68c-2.69,0-4.87-3.04-4.87-6.78h0c0-3.75,2.18-6.78,4.87-6.78Z"/>
      <path class="cls-12" d="M1064.74,532.87c-.3,0-.6-.02-.89-.06-1.77-.2-3.62-1.06-4.67-2.98-.59-1.08-.88-2.4-1.02-3.72-.16-1.51-.12-3.09.3-4.5.76-2.57,2.81-3.74,4.7-4.29.45-.13,6.04-.83,6.04-.44v-24.33c0-7.05-4.27-12.77-9.54-12.77h-.02c-5.27,0-9.54,5.72-9.54,12.77v87.99c0,7.05,4.27,12.77,9.54,12.77h.02c5.27,0,9.54-5.72,9.54-12.77v-41.7c0-2.06,0-4.11-.01-6.17-1.48-.02-2.96.23-4.44.2ZM1061.85,569.25v4.99c0,1.08-.66,1.96-1.46,1.96-.8-.02-1.44-.89-1.44-1.96v-4.99c-1.17-.72-1.9-2.3-1.88-4.01.04-2.38,1.51-4.27,3.3-4.22s3.19,2.03,3.16,4.41c.01,1.59-.63,3.06-1.67,3.83Z"/>
    </g>
    <rect class="cls-12" x="1009.26" y="488.16" width="9.86" height="93.21"/>
    <path class="cls-44" d="M1061.85,569.25v4.99c0,1.08-.66,1.96-1.46,1.96-.8-.02-1.44-.89-1.44-1.96v-4.99c-1.17-.72-1.9-2.3-1.88-4.01.04-2.38,1.51-4.27,3.3-4.22s3.19,2.03,3.16,4.41c.01,1.59-.63,3.06-1.67,3.83Z"/>
    <polygon class="cls-42" points="267.74 894.74 226.19 894.74 234.82 946.87 267.74 946.87 267.74 894.74"/>
    <path class="cls-38" d="M-222.79,922.26c-.39-9.77-.77-19.55-1.07-29.32-.69-22.49-23.77-44.98-23.77-67.48l5.22-325.22,302.14-.85c65.42.01,76.31,23.28,77.95,101.26,5.92-4.55,65.39-3.74,82.96-3.74,25.82,2.53,37.96,35.1,40.17,79.99l1.5,59.48.84.32c14.24,8.56,22.29,20.97,22.32,39.98v49.62c-.05,12.34-6.99,27.44-16.97,30.71v65.25H-222.79Z"/>
    <g>
      <rect class="cls-34" x="129.57" y="120.12" width="160.41" height="137.71"/>
      <path class="cls-22" d="M290.86,118.49c-46.85,0-93.7,0-140.55,0-6.62,0-13.24,0-19.86,0-.95,0-3.32.43-3.32,1.85,0,40.11,0,80.22,0,120.33,0,5.79,0,11.59,0,17.38,0,.85.73,1.4,1.57,1.4,46.85,0,93.7,0,140.55,0,6.62,0,13.24,0,19.86,0,.95,0,3.32-.43,3.32-1.85,0-40.11,0-80.22,0-120.33,0-5.79,0-11.59,0-17.38,0-2.36-4.89-1.52-4.89.45,0,40.11,0,80.22,0,120.33,0,5.79,0,11.59,0,17.38l3.32-1.85c-46.85,0-93.7,0-140.55,0-6.62,0-13.24,0-19.86,0,.52.47,1.05.93,1.57,1.4,0-40.11,0-80.22,0-120.33,0-5.79,0-11.59,0-17.38-1.11.62-2.22,1.24-3.32,1.85,46.85,0,93.7,0,140.55,0,6.62,0,13.24,0,19.86,0,2.15,0,5.02-3.25,1.75-3.25Z"/>
    </g>
    <rect class="cls-9" x="167.66" y="146.79" width="83.63" height="87.42" transform="translate(418.94 380.99) rotate(-180)"/>
    <path class="cls-26" d="M251.59,174.94c-4.28.19-8.51,1-12.31,2.41-10.27,3.82-17.02,11.6-27.9,14.47-8.29,2.19-17.75,1.09-25.75-1.58-6.48-2.16-12.18-5.27-17.68-8.52v-37.53h83.63v30.76Z"/>
    <g>
      <rect class="cls-34" x="-59.43" y="120.12" width="160.41" height="137.71"/>
      <path class="cls-22" d="M-60.33,259.38c46.85,0,93.7,0,140.55,0,6.62,0,13.24,0,19.86,0,.9,0,3.34-.44,3.34-1.8,0-40.11,0-80.22,0-120.33,0-5.79,0-11.59,0-17.38,0-.84-.73-1.3-1.54-1.3-46.85,0-93.7,0-140.55,0-6.62,0-13.24,0-19.86,0-.9,0-3.34.44-3.34,1.8,0,40.11,0,80.22,0,120.33,0,5.79,0,11.59,0,17.38,0,2.26,4.88,1.36,4.88-.5,0-40.11,0-80.22,0-120.33,0-5.79,0-11.59,0-17.38-1.11.6-2.22,1.2-3.34,1.8,46.85,0,93.7,0,140.55,0,6.62,0,13.24,0,19.86,0l-1.54-1.3c0,40.11,0,80.22,0,120.33,0,5.79,0,11.59,0,17.38,1.11-.6,2.22-1.2,3.34-1.8-46.85,0-93.7,0-140.55,0-6.62,0-13.24,0-19.86,0-2.06,0-5.06,3.11-1.79,3.11Z"/>
    </g>
    <rect class="cls-9" x="-20.73" y="143.74" width="83.63" height="87.42"/>
    <path class="cls-26" d="M-21.04,203.01c4.28-.19,8.51-1,12.31-2.41,10.27-3.82,17.02-11.6,27.9-14.47,8.29-2.19,17.75-1.09,25.75,1.58,6.48,2.16,12.18,5.27,17.68,8.52v37.53H-21.04v-30.76Z"/>
    <path class="cls-28" d="M263.52,738.57c-.43,0-.85,0-1.28,0-1.25,0-2.5,0-3.76-.01l-6.07-.02c-2.77-.01-5.54-.02-8.31-.03l-10.41-.04c-4.13-.02-8.25-.03-12.38-.05l-14.15-.05c-5.31-.02-10.61-.04-15.92-.06-5.84-.02-11.67-.04-17.51-.07-6.32-.02-12.64-.05-18.97-.07-6.73-.03-13.47-.05-20.2-.08l-21.5-.08-22.57-.08c-7.84-.03-15.68-.06-23.53-.09-8.12-.03-16.23-.06-24.35-.09s-16.62-.06-24.93-.09l-25.61-.1c-8.68-.03-17.37-.07-26.05-.1-8.79-.03-17.58-.07-26.37-.1l-26.43-.1-26.62-.1c-8.85-.03-17.7-.07-26.55-.1-8.79-.03-17.57-.07-26.36-.1l-25.92-.1c-8.53-.03-17.06-.06-25.6-.1-8.34-.03-16.68-.06-25.02-.09-8.11-.03-16.21-.06-24.32-.09-7.83-.03-15.66-.06-23.49-.09-7.48-.03-14.96-.06-22.43-.08-7.15-.03-14.31-.05-21.46-.08-6.75-.03-13.5-.05-20.25-.08-6.3-.02-12.61-.05-18.91-.07-5.79-.02-11.58-.04-17.37-.07l-15.87-.06c-4.72-.02-9.43-.04-14.15-.05l-12.3-.05-10.29-.04c-2.75-.01-5.5-.02-8.24-.03-2.01,0-4.01-.02-6.02-.02h-3.66c-.4-.02-.79-.02-1.19-.02-.48,0-1.17.07-1.54.41-.25.24-.36.53.14.53.43,0,.85,0,1.28,0,1.25,0,2.5,0,3.76.01l6.07.02c2.77.01,5.54.02,8.31.03l10.41.04,12.38.05c4.72.02,9.43.04,14.15.05,5.31.02,10.61.04,15.92.06,5.84.02,11.67.04,17.51.07,6.32.02,12.64.05,18.97.07,6.73.03,13.47.05,20.2.08l21.5.08,22.57.08c7.84.03,15.68.06,23.53.09s16.23.06,24.35.09,16.62.06,24.93.09c8.54.03,17.07.06,25.61.1,8.68.03,17.37.07,26.05.1,8.79.03,17.58.07,26.37.1l26.43.1,26.62.1c8.85.03,17.7.07,26.55.1,8.79.03,17.57.07,26.36.1,8.64.03,17.28.06,25.92.1,8.53.03,17.06.06,25.6.1,8.34.03,16.68.06,25.02.09,8.11.03,16.21.06,24.32.09,7.83.03,15.66.06,23.49.09,7.48.03,14.96.06,22.43.08,7.15.03,14.31.05,21.46.08,6.75.03,13.5.05,20.25.08,6.3.02,12.61.05,18.91.07,5.79.02,11.58.04,17.37.07,5.29.02,10.58.04,15.87.06,4.72.02,9.43.04,14.15.05l12.3.05,10.29.04c2.75.01,5.5.02,8.24.03,2.01,0,4.01.02,6.02.02h3.66c.4.02.79.02,1.19.02.48,0,1.17-.07,1.54-.41.25-.24.36-.53-.14-.53h0Z"/>
    <path class="cls-28" d="M268.16,855.64c-.44,0-.87,0-1.31,0h-3.81c-2.07-.02-4.14-.03-6.21-.04-2.81-.01-5.62-.02-8.43-.03-3.53-.01-7.07-.03-10.6-.04l-12.55-.05-14.48-.05c-5.38-.02-10.76-.04-16.15-.06l-17.84-.07-19.23-.07c-6.89-.03-13.78-.05-20.68-.08-7.27-.03-14.53-.05-21.8-.08-7.67-.03-15.33-.06-23-.08l-23.86-.09c-8.27-.03-16.54-.06-24.8-.09-8.47-.03-16.93-.06-25.4-.09l-26.09-.1c-8.85-.03-17.7-.07-26.54-.1-8.91-.03-17.83-.07-26.74-.1-9.02-.03-18.04-.07-27.06-.1l-26.99-.1c-9.02-.03-18.03-.07-27.05-.1l-26.73-.1-26.53-.1c-8.65-.03-17.3-.06-25.95-.1-8.5-.03-16.99-.06-25.49-.09-8.22-.03-16.44-.06-24.66-.09l-23.93-.09-22.86-.08-21.86-.08c-6.85-.03-13.69-.05-20.54-.08-6.42-.02-12.85-.05-19.27-.07-5.9-.02-11.8-.04-17.7-.07-5.39-.02-10.78-.04-16.16-.06l-14.35-.05c-4.18-.02-8.36-.03-12.54-.05-3.51-.01-7.02-.03-10.53-.04-2.78-.01-5.57-.02-8.35-.03-2.04,0-4.09-.02-6.13-.02-1.24,0-2.48,0-3.72-.01-.4,0-.81,0-1.21,0-.42,0-1.24.14-1.43.6s.15.67.6.67.87,0,1.31,0h3.81c2.07.02,4.14.03,6.21.04,2.81.01,5.62.02,8.43.03,3.53.01,7.07.03,10.6.04,4.18.02,8.37.03,12.55.05,4.83.02,9.65.04,14.48.05l16.15.06,17.84.07c6.41.02,12.82.05,19.23.07,6.89.03,13.78.05,20.68.08,7.27.03,14.53.05,21.8.08,7.67.03,15.33.06,23,.08,7.95.03,15.9.06,23.86.09,8.27.03,16.54.06,24.8.09,8.47.03,16.93.06,25.4.09,8.7.03,17.39.06,26.09.1,8.85.03,17.7.07,26.54.1,8.91.03,17.83.07,26.74.1,9.02.03,18.04.07,27.06.1,9,.03,18,.07,26.99.1,9.02.03,18.03.07,27.05.1s17.82.07,26.73.1l26.53.1c8.65.03,17.3.06,25.95.1,8.5.03,16.99.06,25.49.09,8.22.03,16.44.06,24.66.09,7.98.03,15.96.06,23.93.09,7.62.03,15.24.06,22.86.08l21.86.08c6.85.03,13.69.05,20.54.08,6.42.02,12.85.05,19.27.07l17.7.07c5.39.02,10.78.04,16.16.06,4.78.02,9.57.04,14.35.05,4.18.02,8.36.03,12.54.05l10.53.04c2.78.01,5.57.02,8.35.03l6.13.02c1.24,0,2.48,0,3.72.01.4,0,.81,0,1.21,0,.42,0,1.24-.14,1.43-.6s-.15-.67-.6-.67h0Z"/>
    <path class="cls-28" d="M136.34,602.75c-5.99,8.15-11.66,16.85-15.53,26.23-4.13,10.01-4.57,20.82-4.95,31.51-.61,16.96-.86,33.93-1.18,50.89-.16,8.64-.31,17.27-.5,25.91-.02,1.07,2.17.71,2.19-.2.37-16.5.61-33,.96-49.5.17-8.1.35-16.2.62-24.3.33-10.19.38-20.72,3.58-30.5,1.73-5.3,4.36-10.32,7.16-15.13,2.88-4.95,6.06-9.74,9.45-14.35.8-1.09-1.25-1.3-1.8-.56h0Z"/>
    <path class="cls-28" d="M167.83,602.97c-6.02,8.18-11.71,16.95-15.54,26.4-4.03,9.94-4.44,20.67-4.82,31.26-.61,16.91-.86,33.84-1.17,50.76-.16,8.64-.31,17.27-.5,25.91-.02.99,2.17.58,2.18-.23.37-16.5.61-33,.96-49.5.17-8.14.36-16.29.62-24.43.33-10.2.4-20.74,3.63-30.53,1.77-5.38,4.46-10.46,7.31-15.34,2.86-4.89,6.01-9.61,9.37-14.17.32-.44-.28-.7-.62-.74-.52-.06-1.12.2-1.43.62h0Z"/>
    <path class="cls-18" d="M597.31,412.05c5.68,11.65,13.86,29.61,24,38.06,8.16,6.8,26.17,12.64,39.67,10.18,7.8-1.42,17.95-3.31,35.99-8.51,20.21-5.83,81.37-29.94,81.37-29.94l-13.05-30.26-93.11,14.17-11.1,1.26-42.52-92.16s-5.9-15.09-17.6-18.03"/>
    <path class="cls-29" d="M576.1,908.44l36.9,19.15c2.72,2.3-34.06,22.8-70.59-9.62l4.1-9.97,29.59.43Z"/>
    <g>
      <path class="cls-21" d="M639.78,943.64s1.93-4.92-1.94-6.43c-3.88-1.51-24.57-11.56-26.66-11.16.04,1.49-1.87,3.45-6.32,4.79-4.46,1.34-9.4,3.04-20.81.85-8.56-1.64-26.15-4.62-33.88-9.12-2.58-1.51-6.33-6.57-6.49-7.31-9.02,10.29-6.31,21.21-2.19,23.9,4.11,2.69,28.41,4.48,28.41,4.48l21.51,5.13,20.29.95,8.54-.19,10.23-1.51,9.32-4.38Z"/>
      <path class="cls-33" d="M540.42,938.12c2.64.91,11.13,2.34,18.39,2.49,19.5.4,26.04,2.89,32.65,4.9,3.33,1.01,6.81,2.09,11.57,2.86,22.76,3.86,36.06-4.4,36.53-4.74.32.3.47.62.61,1.11-.22.19-1.97,1.87-4.71,3.1-6.42,2.88-15.6,6.19-33.23,3.56-5-.74-8-1.1-11.3-2.11-4.95-1.5-10.04-3.05-21-3.85l.04,3.31s-20.69.77-30.02-3.26c-.67-5.09.47-7.38.47-7.38Z"/>
      <path class="cls-33" d="M539.74,942.53c12.41,3.2,25.9,3.29,30.19,3.31l.03,2.91s-20.69.77-30.02-3.26c-.15-1.13-.21-2.11-.21-2.96Z"/>
    </g>
    <g id="freepik--character-1--inject-1332">
      <path class="cls-29" d="M481.09,867.52s3.08,43.3,2.89,45.83l20.79,5.84,8.87-5.29,8.97-46.43-41.52.05Z"/>
    </g>
    <path class="cls-29" d="M513.72,911.88l36.9,19.15c2.72,2.3-34.06,22.8-70.59-9.62l4.1-9.97,29.59.43Z"/>
    <g>
      <path class="cls-21" d="M577.39,947.08s1.93-4.92-1.94-6.43c-3.88-1.51-24.57-11.56-26.66-11.16.04,1.49-1.87,3.45-6.32,4.79-4.46,1.34-9.4,3.04-20.81.85-8.56-1.64-26.15-4.62-33.88-9.12-2.58-1.51-6.33-6.57-6.49-7.31-9.02,10.29-6.31,21.21-2.19,23.9,4.11,2.69,28.41,4.48,28.41,4.48l21.51,5.13,20.29.95,8.54-.19,10.23-1.51,9.32-4.38Z"/>
      <path class="cls-33" d="M478.04,941.55c2.64.91,11.13,2.34,18.39,2.49,19.5.4,26.04,2.89,32.65,4.9,3.33,1.01,6.81,2.09,11.57,2.86,22.76,3.86,36.06-4.4,36.53-4.74.32.3.47.62.61,1.11-.22.19-1.97,1.87-4.71,3.1-6.42,2.88-15.6,6.19-33.23,3.56-5-.74-8-1.1-11.3-2.11-4.95-1.5-10.04-3.05-21-3.85l.04,3.31s-20.69.77-30.02-3.26c-.67-5.09.47-7.38.47-7.38Z"/>
      <path class="cls-33" d="M477.36,945.96c12.41,3.2,25.9,3.29,30.19,3.31l.03,2.91s-20.69.77-30.02-3.26c-.15-1.13-.21-2.11-.21-2.96Z"/>
    </g>
    <path class="cls-29" d="M542.49,885.65s3.89,23.26,3.71,25.8l6.86.82h25.67s4.38-24.89,4.38-24.89l-40.61-1.72Z"/>
    <path class="cls-17" d="M493.77,155.6c3.46-5,8.9-8.37,14.72-6.87-.37-11.33,10.54-18.13,21.87-18.57,5.82.04,11.83,2.6,17.31.61,3.42-1.23,5.98-3.95,8.88-6.22,12.17-9.23,31.55,1.13,42.08,12.21,10.53,11.08,8.08,23.58,2.91,37.95-2.4,6.68-1.96,10.3-2.64,17.42-.64,6.71-4.57,19.22-4.57,25.89s10.48,13.52,3.76,14.12l-73.28-7.85c-10.85,2.26-17.83-.96-23.5-10.48-3.7-6.47-2.49-6.78-3.05-14.2-.97-9.7-10.91-16.89-10.43-26.62.11-6.11,2.78-12.15,5.94-17.38Z"/>
    <path class="cls-43" d="M484.68,155.28s25.18-12.81,57.86-9.54c32.68,3.27,48.83,23.11,54.69,37.4,5.85,14.29-.07,29.43-.07,29.43,0,0,8.18,2.13,13.3-27.3,7.46-42.9-36.57-68.27-47.13-68.01-10.56.25-64.65-10.09-78.65,38.03Z"/>
    <path class="cls-29" d="M513.55,227.69s-.94,25.82-7.7,43.91c-.94,2.52-20.87,14.02-20.87,14.02l27.63,5.93c13.27,2.95,47.22,15.66,59.97,10.96l6.88-16.49s-14.11-6.76-14.79-9.86c-.68-3.1,1.52-26.62,1.52-26.62"/>
    <path class="cls-5" d="M605.22,902.6l25.79-293.18-13.9-83.99h-170.64l-22.94,80.8,35.25,300.03s25.35,12.61,72.44,10.17c58.67-3.04,74-13.83,74-13.83Z"/>
    <path class="cls-18" d="M635.45,504c-4.52-33.65-5.56-34.11-5.56-34.11l-3.19-15.92-3.31-58.35c2.97-15.22,8.66-26.43,4.77-32.56l-26.99-64.33-36.59-22c1.28,2.28,16.94,18.16-6.04,24.29-.02,0-5.66.09-5.67.1-29.66-1.21-47.02-29.52-47.02-29.52l-51.72,24.55-1.82,134.52s-37.26,65.99-38.41,94.07c-1.41,34.48.28,70.43,12.19,100.39,1.22,3.06,46.56,8.3,51.28,8.77,17.71,1.76,35.55,2.24,53.34,1.46,34.95-1.54,68.66-9.7,102.66-16.6,0,0,6.61-81.1,2.09-114.76Z"/>
    <path class="cls-47" d="M564.63,271.82s-5.46-.87-9.22-1.92c-3.76-1.04-10.2-.79-27.58-15.76,0,0,5.16,18.46,27.28,22.33,0,0,5.72,1.17,9.47.25l.04-4.9Z"/>
    <path class="cls-29" d="M583.62,159.43c.08.06.16.13.24.19-.08-.13-.16-.26-.22-.4l-.02.21ZM592.93,162.1c.13.14.27.28.42.42v-.17s-.4-.45-.42-.25ZM525.5,252.04c8.15,9.75,25.1,20.42,39.13,20.96,5.03.19,9.83,0,13.85-5.9,4.06-5.97,7.6-8.24,11.95-13.74,4.17-5.27,6.08-8.6,8.24-14.95,2.23-6.56,2.35-8.33,2.14-15.07-.09-3.01.03-7.55.48-10.41.51-3.29,3.01-16.23,3.89-23.87.88-7.64-4.06-22.58-4.06-22.58-.27-2.11-3.22-1.25-4.2-3l-.9-.08s.43.25.38.87c-1.13-.27-2.22-.99-3.03-1.75v.03c-1.41.51-2.71-.23-3.75-1.36-.02.21.17.64.4.66-1.37.09-2.67-.65-3.5-1.55-.02.21.17.64.16.85-1.01-.28-1.99-.89-2.8-1.53.18.29,5.34-.07,5.33.08-1.37.09.14.67-.9-.46l-1.05-.87c-1.15.11-1.16.79-1.99-.11.21.23-.43-2.33-.44-2.13-1.35-.12-.98-.17-2.05-.89-.02.21-3.8,1.03-3.82,1.24-1.13-.1-.92.96-1.75.06.21.23.89-.8,1.1-.57-1.37.09-1.95.92-2.99-.21.21.23-4.27-2.65-4.27-2.65-1.37.09-1.18.54-2.24-.39.42.45-6.21-.92-6.02-.49-1.13-.1,1.8,4.32.95,3.62-.02.21-2.54-.84-2.54-.84-1.15.11.46,1.29-.37.39-.02.21.16.85.38.87-1.41.51-2.95-.04-4.23-.99.42.45.61.89.81,1.11-1.13-.1-2.05.03-3.1-.89-.02.21.38.87.61.89-1.16.32-2.5,0-3.57-.72-.02.21.4.66.6.88-.92.13-1.82.05-2.67-.64l.6.89c-.9-.08-1.61.28-2.93-.25-.02.21.42.45.4.66-.68-.06-1.58-.14-2.24-.4-.02.21.62.68.4.66-.9-.08-1.61.28-2.7-.23.21.23.4.66.61.89-.9-.08-1.82.05-2.69-.44-.02.21.17.64.38.87-.9-.08-1.61.28-2.71-.23-.02.21.4.66.61.88-.9-.08-1.82.05-2.71-.23-.02.21.42.45.62.68-.9-.08-1.82.05-2.92-.46-.04.41.17.64.15.85-.68-.06-1.11-.3-1.79-.36l-1.16.32c-3.51,3.87-15.07-.48-15.07-.48-7.47,4.99-.54,34.39-.66,38.34-.11,3.95-2.44,4.86-2.44,4.86-1-1.54-2.75,2.62-3.28.91-.55-1.51.06-3.33-.5-4.84-1.75-3.49-6.35-2.84-9-.98l-.47.65c-3.85,4.39-1.31,19.25.88,23.79.01,8.86,7.37,14.13,12.25,8.14l.93,3.53"/>
    <g>
      <path class="cls-10" d="M572.92,233.61c-1.74.72-4.25.3-5.84-.87-.35-.26-1.61-.15-1.12.22,2.1,1.55,5.72,1.99,7.97,1.05.22-.09.2-.26-.06-.37-.27-.12-.71-.14-.95-.04"/>
      <path class="cls-10" d="M565.29,232.43c-1.07-.62-2.3-1.01-3.54-1.21-.18-.03-.42.02-.57.13-.11.08-.15.21-.01.3.55.38,1.27.58,1.95.62.21.01.5-.01.63-.19.13-.16-.07-.28-.24-.3-.56-.04-1.12-.2-1.57-.51-.2.14-.39.28-.59.43,1.11.18,2.21.54,3.17,1.09.19.11.48.07.67-.02.14-.07.3-.24.11-.35"/>
      <path class="cls-10" d="M560.31,232.15c-1.46-.16-3.13-.94-3.75-2.1-.94-1.75.29-4.28,2.21-5.18.21-.1.12-.26-.08-.32-.26-.08-.58,0-.79.09-1.67.79-2.89,2.85-2.78,4.42.1,1.47,1.41,2.6,3.13,3.17.51.17,1.06.3,1.6.36.22.02.63,0,.75-.17.12-.17-.07-.26-.28-.28"/>
      <path class="cls-10" d="M575.67,233.1c-.06-.17.09-.27.21-.26.39.04.81-.03,1.17-.27.12.17.23.34.35.5-.8.02-1.61.21-2.36.62-.15.08-.35,0-.46-.11-.09-.09-.17-.28-.02-.36"/>
      <path class="cls-10" d="M574.54,233.22c.84-.46,1.75-.66,2.64-.68.13,0,.29.08.38.21.07.1.07.23-.03.3"/>
      <path class="cls-10" d="M578.69,233.56c.95.05,2.13-.49,2.69-1.55.85-1.59.36-3.61-.74-4.77-.12-.13-.04-.27.1-.3.18-.04.37.07.49.2.96,1.01,1.5,2.56,1.21,4.1-.27,1.44-1.27,2.37-2.44,2.69-.35.1-.72.15-1.07.13-.14,0-.4-.1-.45-.27-.06-.18.08-.25.22-.24"/>
    </g>
    <path class="cls-3" d="M591.8,206.1c1.31-.54,2.88.12,3.63.92.18.19.5.74.67,1.58.22,1.08-.3,2.23-1.02,2.9-.96.89-2.45.93-3.53.31-1.47-.84-1.81-2.73-1.31-4.03.09-.24.51-1.24,1.56-1.68"/>
    <path class="cls-3" d="M580.26,209.32s6.5-4.28,9.65-4.32c4.59-.06,9.97,2.94,11.39,5.33,0,0-7.09-4.4-10.32-4.26-3.09.13-10.71,3.25-10.71,3.25Z"/>
    <path class="cls-3" d="M552.77,203.33c-1.2-.76-3.22-.75-4.11-.09-.21.15-.77.6-1.08,1.4-.4,1.03-.08,2.25.52,3.03.8,1.04,2.25,1.33,3.43.91,1.59-.58,2.25-2.38,1.98-3.75-.05-.25.24-.7-.73-1.31"/>
    <path class="cls-3" d="M560.39,207.35s-6.51-4.96-9.89-5.35c-4.93-.57-11.07,1.82-12.87,4.05,0,0,8.14-3.6,11.6-3.1,3.31.47,11.16,4.41,11.16,4.41Z"/>
    <path class="cls-17" d="M602.86,202.76s.04-.06.06-.09c.01-.02.02-.02.03-.04,0-.01,0-.02.02-.04.05-.08.1-.16.15-.24.05-.08.09-.16.13-.25,0,0,0,0,0,0,.1-.34.2-.66.27-1.01,0,0,0-.01,0-.02,0-.09.02-.17.03-.26.02-.19.03-.38.03-.57,0-.15,0-.3,0-.45-.34-.62-.63-1.02-.68-1.09,0,0-1.39-1.95-4.14-3.75-1.9-1.24-7.5-3.78-15.4-5.97-.33.86-.66,1.73-.99,2.6-.25.66-.5,1.32-.75,1.98,2.85.47,5.24.98,7.04,1.4,3.79.89,5.73,1.36,7.71,2.47,2.08,1.16,3.68,2.57,4.3,3.12.87.78,1.46,1.28,2.09,2.09.03.04.06.08.09.13Z"/>
    <path class="cls-17" d="M565.85,186.76c.09.92.18,1.84.27,2.77.07.7.13,1.41.2,2.11-3.11-.27-5.75-.38-7.74-.42-4.21-.1-6.37-.13-8.75.44-2.5.6-4.58,1.56-5.39,1.93-1.13.53-1.9.87-2.79,1.5-1.93,1.36-2.63,2.74-2.98,2.66-.32-.07.07-1.26.11-1.38.98-2.99,3.67-4.98,3.87-5.14,0,0,2.02-1.54,5.41-2.59,2.34-.72,8.92-1.77,17.79-1.89"/>
    <path class="cls-37" d="M512.05,214.89c-1.1-2.75-2.33-5.48-3.94-7.97-.84-1.3-1.79-2.56-3-3.54-.49-.4-1.06-.77-1.68-.93-1.12-.29-1.82.45-2.32,1.33-1.34,2.35-1.41,5.21-.93,7.81.17.94,2.35.39,2.17-.58-.36-1.91-.4-3.96.26-5.81.18-.5.4-.98.68-1.43.05-.08.1-.15.15-.22-.1.15-.04.09,0,0,.02-.05.07-.09.11-.13-.43.15-.86.31-1.29.46.17,0-.14-.02-.14-.03.03.04.24.08.29.09.24.07-.1-.07.03,0,.08.05.17.09.25.13.22.13.43.28.63.44.07.05.34.28.23.19.14.13.29.27.42.4.31.32.61.66.89,1,.81,1.01,1.51,2.11,2.14,3.23,1.11,1.97,2.03,4.04,2.87,6.14.37.92,2.52.29,2.17-.58h0Z"/>
    <path class="cls-37" d="M508.81,215.76c-.93-.09-2.14.15-2.85.81-.48.44-.61,1.07-.67,1.69-.13,1.53.4,3.12.14,4.63-.02.13-.06.24-.1.36-.02.06-.07.1-.08.16v.02c-.35.44.17.33,1.54-.33-.19-.28-.4-.48-.54-.82-.45-1.07-.65-2.26-.82-3.4-.24-1.6-.37-3.06-.12-4.64.15-.95.38-1.9.77-2.79.29-.68.8-1.69,1.52-1.95.2-.07.89-.33.65-.63-.23-.27-1.17.03-1.4.12-1.95.72-2.91,2.39-3.4,4.32-.32,1.24-.54,2.58-.44,3.87.12,1.51.32,3.04.7,4.51.17.65.4,1.78,1.05,2.16.75.43,2.23-.1,2.66-.81.33-.55.26-1.32.23-1.93-.05-.98-.2-1.95-.18-2.93,0-.42.03-.85.18-1.25.06-.15.19-.3.24-.44.19-.56.05-.02.05-.05-.02.28-1.17.18-.52.24.49.05,1.14-.13,1.54-.41.34-.24.3-.44-.13-.49h0Z"/>
    <path class="cls-47" d="M591.48,179.95s-9.74,1.07-17.64,1.11c-7.9.04-15.61-4.01-15.61-4.01,0,0,9.26,2.98,15.51,2.98s17.74-.08,17.74-.08Z"/>
    <path class="cls-17" d="M596.88,157.3c-.1-.14.04.06,0,0-1.94-2.78-3.17-5.73-5.23-8.42-2.02-2.63-4-5.02-6.17-7.53-.13-.15-2.71-.24-2.84-.38-.02-.03-.11-.12-.14-.16-.07-.08-.14-.16-.21-.23-.16-.18-.32-.36-.49-.54-12.23-5.43-27.03-6.28-40.42-2.27-26.01,7.8-40.78,35.2-32.98,61.22.67,2.23-.68,4.91,1.49,6.18,2.17,1.27,2.43.65,4.51-.77,1.98-1.55,3.57-3.54,4.66-5.8,5.71-10.69,7.19-27.75,4.72-39.62,1.42,2.25,11.44-.01,13.65,1.46,8.75,5.83,20.57,3.47,26.41-5.28.9,1.32,1.9,2.57,3,3.73,10.07,10.61,23.26,15.81,34.35,8.43.41-.27-3.1-8.25-4.31-10.01Z"/>
    <path class="cls-7" d="M535.49,200.41l1.09,4.3c.58,3.32,2.57,9.95,3.56,11.79,1.4,2.58,18.64,4.77,22.19,3.03,3.54-1.74,6.16-11.5,7.23-13.73l6.9.89c.4,3.01,1.89,12.57,3.11,13.93,1.22,1.36,9.18,1.71,10.08,1.75.75.02,1.79.06,2.93.05,3.02,0,6.7-.25,7.9-1.28,1.79-1.53,4.06-7.69,6.06-13.53l.33-.91c.07-.22.15-.37.16-.44h0l.36-1.05c-9.63-5.48-22.77-5.63-31.14-.37l.05.11-6.73-.9c-7.26-5.62-20.25-9.33-29.96-6.35h0l-29.65,2.77-.28,2.59,25.81-2.64ZM580.46,219.72c-.76-.85-2-7.56-2.8-12.77,7.27-4.44,19.11-4.28,27.76.11v.13c-1.09,3.13-3.94,11.46-5.69,12.97-2.08,1.77-17.92.91-19.27-.41v-.03ZM542.25,215.94c-2-4.96-3.56-10.09-4.64-15.33,8.67-3.21,23.14-.02,30.25,5.33-1.49,4.05-3.53,11.18-6.07,12.42-3.65,1.79-18.67-.79-19.54-2.42h0Z"/>
    <path class="cls-2" d="M495.55,203.89s-24.65-17.87-15.25-37.06c1.8-3.69,2-2.47,2.11-5.66.56-16.69-5.28-12.72,19.17-32.24,24.45-19.52,28.05-19.19,65.37-16.4,19.25,1.44,29.79,9.48,35.05,21.68,2.36,5.48,3.66,11.8,4.2,18.74,0,0-39.33-11.22-62.76,1.41-23.42,12.63-48.01,53.75-43.02,66.94,1.4,3.7-4.88-17.4-4.88-17.4Z"/>
    <path class="cls-43" d="M480.36,185.62s33.38-48.63,77.88-50.11c0,0-54.96-5.88-79.29,33.38l-.36,4.61c-.22,2.87.05,5.76.8,8.54l.97,3.58Z"/>
    <path class="cls-19" d="M617.09,327.59c-.99,1.82-1.83,3.76-2.46,5.73-.46,1.44-.93,2.98-.51,4.47.8,2.83,2.17,5.55,3.34,8.24,4.23,9.72,8.47,19.46,11.72,29.55,1.66,5.15,3.11,10.42,3.87,15.78.81,5.72.32,11.22-1.02,16.84-1.32,5.57-3.59,10.71-6.22,15.77-1.98,3.82-4.01,7.71-4.53,12.05-.67,5.65.16,11.59.96,17.19.64,4.45,1.43,8.89,2.38,13.29.05.25.11.5.17.76.18.82,2.36.26,2.17-.58-.72-3.19-1.31-6.4-1.85-9.62-.99-5.89-1.86-11.9-1.82-17.88.03-4.61,1.28-8.6,3.33-12.69,2.31-4.6,4.73-9.1,6.33-14.01,1.82-5.59,3.02-11.61,2.69-17.51-.28-5.16-1.45-10.26-2.85-15.22-2.97-10.49-7.2-20.58-11.54-30.57-1.46-3.35-2.99-6.69-4.31-10.1-.31-.81-.71-1.68-.81-2.55-.02-.19-.02-.18.02-.57.09-.75.25-1.49.46-2.22.42-1.47.99-2.89,1.63-4.27.28-.6.57-1.19.88-1.77.52-.95-1.67-.78-2.04-.1h0Z"/>
    <path class="cls-18" d="M596.36,419.86l-87.29,8.57-23.22-76.18-9.6-65.26s-52.83,11.56-47.13,59.31c4.05,25.8,3.91,68.08,15.35,98.83.56,9.75,11.34,12.93,14.26,19.71,2.77,11.04,15.14,24.03,24.21,24.61,21.74,1.37,42.67-10.93,42.67-10.93,0,0,9.23-3.82,9.63-3.96,20.87-6.52,34.07-11.21,70.67-29.84l7.09-2.05c-5.61-9.46-11.88-12.9-16.63-22.82Z"/>
    <path class="cls-29" d="M615.7,468.83l5.6-1.78s23.98,11.15,31.6,11.41c5.53-.06,11.11-1.02,16.56-2.87l6.13,2.36c2.82,1.09,5.97.96,8.91-.37l2.26-1.02s6.81,5.44,8.61,2.89c1.8-2.55-.23-5.43-2.2-8.23-1.97-2.79-46.17-29.96-46.17-29.96,4.53-1.73,12.34-.18,16.98-1,7.13-1.2,9.71-4.68,6.99-7.67-1.68-1.85-7.26-3.36-11.23-1.51-3.96,1.84-21.55-3.82-28.69-1.44-7.14,2.39-13.11,12.32-13.11,12.32-3.69,1.82-6.39,1.01-6.39,1.01-.64,2.81,4.15,25.86,4.15,25.86Z"/>
    <path class="cls-37" d="M686.93,475.91c-3.67-2.36-7.8-4.07-11.72-5.95-3.9-1.87-8.09-3.6-11.65-6.09-.59-.41-2.59.46-1.73,1.06,3.56,2.49,7.74,4.22,11.65,6.09,3.92,1.88,8.06,3.59,11.72,5.95.61.39,2.61-.5,1.73-1.06h0Z"/>
    <path class="cls-37" d="M669.03,474.53c-4.86-1.86-9.72-3.72-14.59-5.58-.69-.26-1.38-.53-2.07-.79-.82-.31-2.54.87-1.29,1.35,4.86,1.86,9.72,3.72,14.59,5.58.69.26,1.38.53,2.07.79.82.31,2.54-.87,1.29-1.35h0Z"/>
    <g>
      <path class="cls-18" d="M443.61,441.17c2.81,12.65,6.29,30.88,14.18,41.46,6.35,8.52,18.51,15.39,32.21,16.14,7.91.43,24.09-.96,41.98-4.89,20.55-4.51,84.1-20.16,84.1-20.16l-5.65-32.47-97.85,2.09-11.09,1.64-15.89-112.53s-2.22-16.05-12.92-21.63"/>
      <path class="cls-19" d="M442.52,441.46c1.91,8.58,3.66,17.23,6.46,25.57,2.67,7.95,6.29,15.69,12.7,21.31,6.83,5.99,15.58,9.68,24.56,10.83,7.75,1,15.8.13,23.51-.81,14.39-1.74,28.46-5.15,42.53-8.49,13.28-3.15,26.55-6.36,39.82-9.6,7.93-1.93,15.89-3.74,23.78-5.82.12-.03.25-.06.37-.09.41-.1,1-.45.91-.95-1.64-9.46-3.29-18.91-4.93-28.37-.24-1.37-.48-2.73-.71-4.1-.07-.41-.67-.43-.97-.42-3.96.08-7.93.17-11.89.25-9.2.2-18.4.39-27.6.59-10.4.22-20.8.45-31.2.67-7.56.16-15.12.32-22.68.49-1.45.03-2.92,0-4.36.09-3.22.23-6.46.94-9.65,1.41l-1.55.23.97.42c-.7-4.99-1.41-9.98-2.11-14.97-1.61-11.42-3.23-22.84-4.84-34.26-1.75-12.37-3.49-24.75-5.24-37.12-1.13-7.98-2.25-15.97-3.38-23.95-1.06-7.5-3.43-15.29-8.93-20.77-1.35-1.34-2.87-2.49-4.54-3.38-.74-.4-2.7.64-1.7,1.17,8.01,4.28,11.64,13.99,12.85,22.54,1.01,7.18,2.03,14.36,3.04,21.54,1.71,12.08,3.41,24.16,5.12,36.24,1.66,11.74,3.31,23.47,4.97,35.21l1.72,12.15c.27,1.91.32,4.06.84,5.92.02.08.02.17.04.26.05.38.69.46.97.42,4.64-.69,9.24-1.6,13.93-1.7,6.92-.15,13.84-.3,20.76-.44,10.26-.22,20.53-.44,30.79-.66,9.57-.2,19.14-.41,28.71-.61,3.26-.07,6.53-.14,9.79-.21,1.51-.03,3.23.16,4.73-.1.07-.01.14,0,.21,0l-.97-.42c1.64,9.46,3.29,18.91,4.93,28.37.24,1.37.48,2.73.71,4.1l.91-.95c-6.42,1.58-12.84,3.15-19.26,4.72-12.9,3.15-25.8,6.28-38.71,9.36s-25.32,6.27-38.15,8.4c-8.65,1.43-17.47,2.58-26.25,2.59s-17.41-2.29-24.85-6.99c-3.5-2.21-6.7-4.93-9.28-8.17s-4.51-6.99-6.11-10.81c-3.42-8.21-5.44-16.94-7.34-25.6-.42-1.89-.83-3.78-1.25-5.67-.2-.9-2.38-.34-2.17.58h0Z"/>
    </g>
    <path class="cls-19" d="M502.66,445.28c-3.1.14-5.45,2.61-7.04,5.04-2.61,3.98-3.94,8.72-4.56,13.39-.03.25,2.09.07,2.17-.58.55-4.19,1.73-8.38,3.83-12.07.75-1.31,1.62-2.58,2.71-3.64.4-.39.82-.76,1.3-1.04.17-.1.33-.18.48-.24,0,0-.11,0,.15,0,.37-.02,1.24-.16,1.46-.52.22-.37-.19-.36-.51-.35h0Z"/>
    <path class="cls-37" d="M570.4,192.54c2.02-.22,4-1.16,5.18-2.86s1.31-4.1.35-5.97c-.18-.35-1.56.17-1.45.39.83,1.61.88,3.56.06,5.19-.67,1.32-1.99,2.51-3.51,2.68-.28.03-.79.1-.97.34s.15.25.34.23h0Z"/>
  </g>
  <g id="Layer_4" data-name="Layer 4">
    <path class="cls-25" d="M804.63,409.56l-32.89-26.89-15.19,26.5-52.49,68.43c5.55,7.04,13.34,11.81,19.77,18.03,1.86,1.8,5.21,1.81,9.02,1.04,7.03-1.42,13.3-5.36,17.92-10.84,12.15-14.4,37.93-45.3,39.59-47.41,6.02-7.65-.34-4.25,14.27-28.87Z"/>
    <path class="cls-25" d="M693.32,377.28l-5.74-16.41s-.92-9.82-2.24-12.92c-1.33-3.1-9.74-13.55-10.29-13.9-.55-.34-4.03-16.78-7.19-16.95s-5.71,1.53-5.73,5.78c-.02,4.25,5,13.82,2.85,14.76-1.7.6-3.51.87-5.31.79,0,0,.16-4.86-2.08-6.91-2.24-2.05-5.7-.18-5.7-.18l-.5,2.01-2.04-2.86s-.66-9.96-4.7-10.78c-.51-2.24-1.48-4.36-2.84-6.21-1.29-1.49-3.54-1.65-5.02-.36-.26.23-.49.49-.67.78h0l2.69,22.83,15.25,26.23s12.99,6.87,15.14,8.48l3.03,6.99,21.11-1.17Z"/>
    <path class="cls-47" d="M664.27,360.74c1.1-3.44.02-6.93-1.57-10.03-.75-1.45-2.14-3.02-2.22-4.7-.05-1.01.24-2.12.36-3.13s.21-2.03.29-3.04c.22-2.99.52-6.46-2.18-8.47-2.05-1.53-4.8-1.69-7.11-.69-.28.12-.69.33-.67.69.42,7.05-5.35,14.26-1.72,21.14.36.69,2.46-.03,2.17-.58-3.59-6.81,2.14-14.11,1.72-21.14l-.67.69c2.25-.97,5.02.65,5.92,2.79.61,1.47.53,3.14.45,4.7-.09,1.64-.24,3.28-.45,4.92-.18,1.43-.53,2.82.12,4.19s1.56,2.64,2.22,4.03c1.34,2.81,2.16,5.9,1.19,8.95-.22.68,1.95.39,2.17-.3h0Z"/>
    <path class="cls-47" d="M650.61,340.01c.55-4.96,1.11-10.15-.6-14.96-.69-1.94-1.77-4.05-3.36-5.4s-4.57-.46-6.42.02c-.47.12-.93.45-.91.97.14,2.56,1.06,4.98,1.21,7.52.09,1.5-.08,3.03-.04,4.54.04,1.64.15,3.27.33,4.9.1.9,2.28.39,2.17-.58-.19-1.7-.3-3.4-.32-5.11-.02-1.44.13-2.89.03-4.33-.18-2.54-1.07-4.96-1.21-7.52l-.91.97c1.01-.26,2.04-.46,3.08-.56,1.11-.1,1.66.73,2.27,1.55,1.15,1.55,1.9,3.34,2.38,5.2,1.08,4.26.58,8.68.1,12.98-.12,1.03,2.09.7,2.19-.2h0Z"/>
    <path class="cls-47" d="M677.04,365.61c2.26.89,4.84-.08,6.73-1.37.87-.59,1.75-1.2,2.51-1.93s1.55-1.7,1.65-2.81-2.11-.86-2.21.15c-.07.75-.65,1.4-1.18,1.89-.61.58-1.34,1.04-2.03,1.52-.57.4-1.29.82-1.92,1.01-.73.22-1.56.32-2.31.03-.5-.2-1.2,0-1.54.41s-.19.9.29,1.09h0Z"/>
    <path class="cls-47" d="M665.71,338.45s.36-.13.22-.08.19-.05.22-.06c.24-.07-.18.03.08-.02.09-.02.19-.04.28-.05-.21.04.07,0,.11-.01.11-.01.22-.02.33-.03.06,0,.06,0,0,0,.06,0,.13,0,.19,0,.1,0,.19,0,.29,0,.78.01,1.57.17,2.3.45.42.16.99,0,1.39-.15.21-.08.44-.16.61-.31.06-.05.19-.2.05-.25-2.2-.83-4.63-.67-6.83.12-.12.05-.94.33-.66.56.12.1.42.06.55.04.29-.03.57-.1.85-.19h0Z"/>
    <path class="cls-29" d="M736.51,462.9l-47.62-98.8-9.55,7.44-10.85-1.52c9.16,25.24,13.53,63.39,26.21,93.81,0,0,6.9,17.44,9.4,21.39,7.84,12.37,23.19,11.93,23.19,11.93"/>
  </g>
  <g id="Layer_5" data-name="Layer 5">
    <path class="cls-29" d="M815.47,752.3c.72,5.21,1.65,14.43,1.7,19.74.12,14.37,3.08,32.81,2.35,40.09-1.24,12.33-5.69,44.13-6.22,48.45l-5.52,55.32c-7.18-.12-6.55,5.32-24.88-.39-.21-23.3-12.88-127.44-14.68-171.85-1.44-35.46-1.89-72.81-1.89-72.81l53.39-4.64-5.62,76.11,1.38,9.97Z"/>
    <path class="cls-36" d="M808.8,913.05l2.54-32.86s-4.36,1.39-16.33,1.39c-11.98,0-14.87-1.39-14.87-1.39l3.03,42.11s11.71,8.58,19.92,5.58c8.21-3.01,5.72-14.82,5.72-14.82Z"/>
    <path class="cls-29" d="M860.33,754.96c.73,5.21,1.67,14.43,1.72,19.74.13,14.37,3.11,32.81,2.38,40.09-1.25,12.33-5.76,44.13-6.29,48.45l-5.58,55.32c-7.27-.12-6.63,5.32-25.18-.39-.21-23.3-13.03-127.44-14.86-171.85-1.45-35.46-1.91-72.81-1.91-72.81l54.02-4.64-5.69,76.11,1.39,9.97Z"/>
    <path class="cls-29" d="M857.01,319.99s-8.02,26.89-6.53,36.78c.36,2.4,12.86,11.65,12.86,11.65l-60.37,18.25-21.54-21.63s21.41-10.61,22.7-13.17c1.29-2.56,4.35-26.08,4.35-26.08"/>
    <path class="cls-27" d="M885.82,567.76l2.61,18.15c2.19,15.22,4.6,33.15,2.47,48.38l-10.7,87.28s2.89,36.17,3.43,69.24c-12.73,15.48-62.19,16.94-81.92,8.91l-3.69-65.32,1.74-108.41-16.37-54.66,102.45-3.56Z"/>
    <path class="cls-27" d="M788.14,794.82c-5.49.08-20.66-1.98-26.05-2.48l-2.88-20.41c-2.47-7.73-5.71-43.74-5.39-51.88l-1.99-156.36,58.59.65,9.59,228.29c-12.34-.17-19.52,1.99-31.87,2.18Z"/>
    <path class="cls-11" d="M801.3,792.05c-.84-5.35-1.34-10.77-1.92-16.15-.9-8.32-1.74-16.64-2.53-24.97-.86-9.15-1.87-18.33-1.9-27.53-.03-11.6-.06-23.2-.09-34.8-.03-13.06-.07-26.12-.1-39.17,0-2.55.14-5.15-.02-7.7-.1-1.64-.71-3.35-1.23-4.89-1.13-3.35-2.78-6.74-5.49-9.1-1.41-1.23-3.04-2.01-4.87-2.37-1.03-.2-2.21,1.24-.77,1.52,3.79.74,6.28,4.31,7.79,7.6,1.08,2.35,1.84,4.85,2.35,7.39.07.36.02-.23.02.24,0,.37,0,.73,0,1.1,0,1.51,0,3.02.01,4.53.03,12.47.07,24.95.1,37.42l.1,36.59c.02,8.17.69,16.26,1.43,24.39,1.33,14.7,2.7,29.42,4.61,44.06.1.81.21,1.61.34,2.42.15.95,2.33.42,2.17-.58h0Z"/>
    <path class="cls-6" d="M734.11,454.93c-1.8-6.24-6.27-14.68-6.27-14.68,3.08-1.69,8.81-12.7,14.5-23.11,4.65-8.51,5.9-18.33,9.19-25.66,5.07-11.3,6.37-13.48,14.68-19.51,12.38-8.98,9.16-7.06,21.03-13.4l15.84-7.48s-9.74,12.4,9.16,15.01c22.91,3.17,38.59-15.58,38.59-15.58,0,0,8.14,6.3,22.88,14.28,5.66,3.07,25.79,18.46,28.17,24.68,5.5,14.38,8.37,13.16,10.41,52.99l-25.4,15.66-5.94,3.24c1.32,19.06-1.89,57.99-4.02,87.87-.3,4.01-.6,8.01-.93,12.02-.19,2.38,4.23,38.98,2.91,40.86-1.25,1.78-10.93.36-13.14,1.04-23.7,7.29-85.57,4.27-85.57,4.27-9.67-1.76-17.72-2.9-26.14-7.76-5.96-3.44-4.85-5.37-8.03-8.47,1.98-8.48,3.18-43.95,3.82-52.62,1.03-13.94.55-24.15,1.3-38.12.04-.8.17-28.62-.07-29.22-2.22-1.23-14.77-8.68-16.97-16.32Z"/>
    <path class="cls-29" d="M905.45,451.32s6.87,55.99,6.79,62.83c-.29,23.11-20.73,95.1-20.73,95.1l-21.79-2.48s1.01-84.71,6.64-96.91l-9.58-51.29,38.67-7.26Z"/>
    <g>
      <path class="cls-6" d="M753.39,409.88c-.57,13.13-2.66,49-2.33,62.13,0,0-20.03-9.19-24.16-29.06l3.86-5.8s7.84,18.12,18.04,23.7"/>
      <path class="cls-32" d="M752.31,410.18c-.73,16.88-1.8,33.76-2.24,50.65-.1,3.82-.18,7.65-.09,11.48l1.97-.74c-3.23-1.49-7.06-4.18-10.01-6.68-6.34-5.38-11.42-12.37-13.55-20.49-.2-.75-.57-1.38-.13-2.04s.91-1.37,1.37-2.06c.74-1.1,1.47-2.21,2.21-3.31l-2.16.47c1.48,3.42,3.31,6.72,5.27,9.88,3.28,5.28,7.3,10.82,12.84,13.91.41.23,1,.07,1.41-.09.11-.04,1-.48.63-.68-5.56-3.1-9.58-8.66-12.86-13.97-1.9-3.09-3.67-6.3-5.12-9.63-.28-.64-1.91.09-2.16.47-.64.97-1.29,1.93-1.93,2.9l-1.28,1.91c-.18.27-.56.66-.66.98-.11.37.21,1.12.31,1.5.14.56.3,1.12.47,1.68.36,1.19.79,2.36,1.27,3.5.88,2.08,1.96,4.07,3.2,5.96,3.89,5.93,9.27,10.85,15.28,14.57,1.24.76,2.5,1.5,3.82,2.11.42.19,1.99-.14,1.97-.74-.18-7.65.18-15.32.48-22.96.37-9.23.83-18.46,1.29-27.69.19-3.83.39-7.65.55-11.48.02-.41-2.14-.11-2.17.58h0Z"/>
    </g>
    <path class="cls-6" d="M909.2,412.04l6.82,62.83s-3.78,8.85-51.18,8.01c-9.7-.17-9.99-32.99-9.99-32.99l54.34-37.85Z"/>
    <g>
      <path class="cls-6" d="M857.42,412.26c-.26,33.64,6.36,71.2,6.36,71.2l4.44.61c3.03.42,6.1.55,9.15.38,9.78-.55,31.77-2.05,35.92-4.68l2.83-.69-.44-7.2s-23.19,6.82-48.92,4.31"/>
      <path class="cls-32" d="M856.34,412.55c-.15,22.15,2.15,44.39,5.56,66.26.26,1.65.52,3.3.81,4.94.04.07.1.1.19.11,3.46.48,6.9,1.01,10.4,1.07,4.01.06,8.06-.33,12.06-.62,7.96-.58,16.12-1.08,23.93-2.86,1.39-.32,2.8-.68,4.1-1.28.15-.07.3-.14.44-.22.46-.27.02.22-.41.11.2.05.63-.15.82-.2l1.99-.49c.21-.05,1.03-.26,1.01-.58-.15-2.4-.29-4.8-.44-7.2-.02-.29-1.09-.02-1.16,0-10.16,2.98-21.06,4.28-31.6,4.66-5.45.19-10.91.06-16.34-.46-.5-.05-1.07.07-1.51.29-.13.06-.78.45-.28.5,15.54,1.48,31.45.07,46.61-3.57,1.1-.26,2.2-.53,3.29-.85h-1.16c.15,2.4.29,4.8.44,7.2l1.01-.58c-1.17.29-2.48.45-3.58.98-.92.45-1.85.74-2.85.97-3.78.89-7.68,1.32-11.53,1.73-4.48.48-8.98.84-13.47,1.15-4.93.34-9.85.74-14.78.14-1.41-.17-2.81-.38-4.22-.58-.23-.03-.56-.03-.79-.11-.28-.1.06.12.03.07-.04-.08-.06-.28-.06-.36,0-.64-.23-1.34-.33-1.96-.19-1.16-.37-2.32-.55-3.48-1.3-8.45-2.38-16.93-3.26-25.43-1.37-13.27-2.26-26.61-2.16-39.95,0-.27-2.17,0-2.17.58h0Z"/>
    </g>
    <g>
      <path class="cls-34" d="M805.62,910.46s3.77-.53,5.14,3.37c1.37,3.9,6.17,10.46,3.43,22.68,0,0,2.06,5.85,1.54,8.51-.51,2.66,2.23,3.72-17.13,4.43-19.36.71-54.64,4.78-69.2,0-14.56-4.78-7.37-15.95-6.34-16.66s20.55-6.56,20.55-6.56l28.6-18.78,5.99-7.97s7.88,5.85,6.51,9.92l-1.37,4.08s6.34,8.51,13.53,6.03c7.19-2.48,5.14-8.68,8.74-9.04Z"/>
      <path class="cls-16" d="M805.6,910.65c1.35-.18,2.84.38,3.77,1.36.72.76,1.02,1.71,1.41,2.66.3.72.63,1.43.95,2.14,1.97,4.37,3.17,8.89,2.98,13.73-.07,1.62-.26,3.24-.57,4.84-.08.41-.28.89-.2,1.3.05.26.17.52.25.78.65,2.07,1.31,4.3,1.33,6.49,0,.75-.13,1.52-.18,2.28-.03.41-.09.79-.38,1.08-.48.48-1.3.65-1.94.8-1.66.37-3.38.51-5.07.64-5.34.43-10.71.51-16.06.82-11.19.65-22.36,1.55-33.56,1.86-5.38.15-10.77.18-16.15-.16-4.19-.27-8.48-.69-12.5-1.98-4.01-1.3-8.34-3.82-8.93-8.39-.33-2.53.51-5.28,1.96-7.35.4-.57.56-.68,1.18-.92,1.27-.49,2.57-.89,3.86-1.31,3.66-1.18,7.33-2.31,11-3.43,1.34-.41,2.67-.81,4.01-1.21.38-.11.8-.19,1.14-.39,1.64-.97,3.21-2.11,4.8-3.15,6.11-4.01,12.22-8.03,18.34-12.04,1.73-1.13,3.47-2.25,5.18-3.4.44-.3.71-.78,1.02-1.2,1.08-1.44,2.17-2.89,3.25-4.33.66-.87,1.31-1.74,1.97-2.62l-.46.08c2.17,1.62,4.32,3.64,5.69,5.99.44.75.8,1.58.89,2.45.11,1.09-.41,2.14-.75,3.15l-.64,1.92c-.03.09-.1.21-.1.31,0,.2.14.32.27.48.33.4.68.79,1.04,1.17,1.17,1.22,2.47,2.34,3.92,3.23,1.67,1.03,3.58,1.77,5.56,1.82,2.14.06,4.33-.71,6.04-1.99,1.54-1.15,2.47-2.75,3.2-4.49.5-1.2.98-2.83,2.48-3.01.31-.04.45-.44.06-.4-1.21.14-1.97.9-2.49,1.96-.67,1.36-1.1,2.81-2,4.04-1.28,1.75-3.33,2.95-5.45,3.36-2.17.42-4.37-.17-6.27-1.21-1.57-.86-2.98-1.99-4.24-3.26-.41-.41-.81-.84-1.18-1.29-.1-.12-.19-.27-.3-.37s-.07-.22-.09.02c0-.09.07-.2.1-.29.21-.62.42-1.24.63-1.86.32-.94.81-1.93.83-2.94.01-.78-.22-1.54-.55-2.25-.84-1.8-2.23-3.33-3.66-4.69-.8-.76-1.64-1.5-2.53-2.16-.12-.09-.38-.03-.46.08-1.81,2.4-3.61,4.81-5.42,7.21-.14.19-.3.38-.43.58-.03.04-.21.25-.09.15-.09.08-.22.15-.33.21l-2.18,1.43c-6.04,3.97-12.08,7.93-18.12,11.9-2.33,1.53-4.66,3.06-6.98,4.59l-.76.5c-.1.07-.39.19-.11.09-.72.25-1.46.44-2.19.66-3.6,1.09-7.21,2.19-10.8,3.32-1.68.53-3.36,1.06-5.03,1.62-.84.28-1.89.5-2.64,1-.55.36-.93,1.09-1.24,1.65-.62,1.1-1.09,2.3-1.35,3.54-.74,3.51.54,6.8,3.36,9,3.53,2.76,8.25,3.72,12.59,4.3,5.02.67,10.1.81,15.16.81,11.58,0,23.14-.87,34.69-1.61,5.37-.34,10.73-.58,16.11-.83,2.59-.12,5.18-.25,7.76-.53,1.34-.15,2.74-.3,4.03-.72.6-.2,1.25-.47,1.61-1.01.25-.37.28-.81.3-1.24.05-1.05.22-2.04.11-3.1-.21-2.08-.79-4.13-1.45-6.11-.08-.25-.09-.28-.06-.53.12-.97.38-1.92.51-2.89.21-1.58.3-3.17.26-4.76-.07-2.55-.49-5.08-1.26-7.52-.58-1.85-1.37-3.6-2.17-5.37-.76-1.67-1.2-3.59-2.83-4.66-.96-.63-2.25-.95-3.39-.8-.31.04-.45.45-.06.4Z"/>
    </g>
    <path class="cls-16" d="M814.51,937.19c-3.01.28-6.03.53-9.05.78-6.63.55-13.25,1.05-19.89,1.49s-13.19.83-19.79.91c-3.5.04-7-.04-10.49-.1-4.35-.07-8.69-.17-13.03-.37-3.95-.18-7.91-.42-11.84-.91-2.73-.34-5.63-.69-8.18-1.78-.39-.17-.78-.37-1.13-.61-.22-.15-.72.15-.44.34,1.87,1.31,4.45,1.7,6.65,2.07,3.67.62,7.39.91,11.1,1.13,8.33.51,16.7.62,25.04.67,6.37.04,12.75-.34,19.1-.73,6.89-.42,13.77-.93,20.65-1.49,3.69-.3,7.41-.51,11.08-.95.05,0,.11,0,.16-.01.33-.03.44-.47.05-.44h0Z"/>
    <path class="cls-16" d="M720.34,941.78c8.66,1.8,17.54,2.89,26.36,3.51,7.48.53,14.92.38,22.4.1,6.98-.26,13.96-.6,20.94-1,3.56-.2,7.11-.41,10.67-.66.15-.01.63-.25.25-.23-9.42.65-18.85,1.14-28.28,1.53-7.65.31-15.3.61-22.95.19-6.45-.36-12.88-1.06-19.27-2.01-3.22-.48-6.45-1-9.63-1.66-.13-.03-.63.19-.48.22h0Z"/>
    <path class="cls-16" d="M822.28,923.08c-1.01-.48-2.16-.72-3.25-.87-2.58-.36-5.22-.02-7.64.92-3.45,1.34-6.31,3.89-8.73,6.64-1.61,1.83-3.06,3.88-3.91,6.18-.32.86-.64,1.87-.58,2.81.01.21.59.09.58-.15-.03-.54.16-1.39.34-1.99.59-1.98,1.71-3.79,2.97-5.42,2.18-2.82,4.94-5.53,8.14-7.15,2.43-1.23,5.16-1.8,7.88-1.56,1.25.11,2.6.35,3.75.89.19.09.71-.18.45-.3h0Z"/>
    <path class="cls-16" d="M744.9,925.31c.57.66,1.4,1.15,2.18,1.52,1.93.92,4.19,1.18,6.3.94,2.37-.27,4.71-1.4,6.87-2.34,6.38-2.78,12.55-6.06,18.66-9.37,1.54-.84,3.08-1.68,4.61-2.53.05-.03.13-.07.12-.14-.23-1.59-1.32-3.12-2.48-4.17-1.3-1.17-2.96-1.97-4.65-2.41-1.07-.28-2.23-.41-3.31-.09-.43.13-.95.35-1.24.72-.14.18.43.12.53-.01.34-.44,1.04-.57,1.55-.61,1.89-.12,3.98.75,5.52,1.77,1.64,1.09,3.22,2.92,3.51,4.94l.12-.14c-3.87,2.17-7.78,4.26-11.72,6.3-3.18,1.64-6.37,3.25-9.63,4.74-2.41,1.1-4.9,2.28-7.49,2.91-1.97.47-4.21.25-6.09-.47-1-.38-2.1-.95-2.82-1.78-.11-.13-.66.07-.54.21h0Z"/>
    <path class="cls-16" d="M795.59,929.44c-1.94-1.5-3.88-3.01-5.81-4.51-3.07-2.39-6.15-4.77-9.22-7.16-.71-.55-1.41-1.1-2.12-1.65-.21-.17-.71.14-.44.34,1.94,1.5,3.88,3.01,5.81,4.51,3.07,2.39,6.15,4.77,9.22,7.16.71.55,1.41,1.1,2.12,1.65.21.17.71-.14.44-.34h0Z"/>
    <path class="cls-16" d="M776.41,939.6c-2-1.55-3.99-3.1-5.99-4.65-3.17-2.46-6.33-4.92-9.5-7.38-.73-.57-1.46-1.13-2.19-1.7-.19-.15-.7.12-.45.32,2,1.55,3.99,3.1,5.99,4.65,3.17,2.46,6.33,4.92,9.5,7.38.73.57,1.46,1.13,2.19,1.7.19.15.7-.12.45-.32h0Z"/>
    <path class="cls-4" d="M775.93,914.91l.05-.06c.43-.45.16-1.32-.58-1.95l-5.39-4.54c-.75-.63-1.71-.78-2.13-.33l-.05.06c-.43.45-.16,1.32.58,1.95l5.39,4.54c.75.63,1.71.78,2.13.33Z"/>
    <path class="cls-4" d="M769.27,917.23l.21-.22c.39-.41.16-1.21-.52-1.78l-4.03-3.36c-.68-.57-1.55-.69-1.95-.27l-.21.22c-.39.41-.16,1.21.52,1.78l4.03,3.36c.68.57,1.55.69,1.95.27Z"/>
    <path class="cls-4" d="M763.12,919.45l.27-.27c.27-.27,0-.91-.61-1.43l-2.85-2.43c-.6-.51-1.32-.71-1.59-.44l-.27.27c-.27.27,0,.91.61,1.43l2.85,2.43c.6.51,1.32.71,1.59.44Z"/>
    <path class="cls-4" d="M758.16,922.12l.32-.33c.32-.33.09-1.02-.52-1.53l-2.86-2.42c-.61-.51-1.36-.66-1.68-.33l-.32.33c-.32.33-.09,1.02.52,1.53l2.86,2.42c.61.51,1.36.66,1.68.33Z"/>
    <path class="cls-35" d="M818.67,915.96c-2.96.27-6,1.17-8.67,2.45-2.14,1.03-4.16,2.42-5.63,4.31-1.01,1.29-1.77,2.8-2.49,4.27-.63,1.29-1.2,2.61-1.67,3.97s-.91,2.76-1.01,4.17c-.02.23.56.12.58-.07.07-1.05.37-2.1.66-3.1.86-2.88,2.17-5.66,3.76-8.22,2.39-3.87,6.91-5.87,11.18-6.89,1.06-.25,2.14-.47,3.22-.57.28-.03.48-.35.08-.31h0Z"/>
    <path class="cls-36" d="M853.68,914.79l2.57-32.86s-4.41,1.39-16.53,1.39c-12.12,0-15.05-1.39-15.05-1.39l3.32,41.03s11.59,9.67,19.89,6.66c8.31-3.01,5.79-14.82,5.79-14.82Z"/>
    <g>
      <path class="cls-34" d="M852.98,914.79s3.77-.53,5.14,3.37c1.37,3.9,6.17,10.46,3.43,22.68,0,0,2.06,5.85,1.54,8.51-.51,2.66,2.23,3.72-17.13,4.43-19.36.71-54.64,4.78-69.2,0-14.56-4.78-7.37-15.95-6.34-16.66,1.03-.71,20.55-6.56,20.55-6.56l28.6-18.78,5.99-7.97s7.88,5.85,6.51,9.92l-1.37,4.08s6.34,8.51,13.53,6.03c7.19-2.48,5.14-8.68,8.74-9.04Z"/>
      <path class="cls-16" d="M852.93,914.9c-.13.02.25-.01.32-.01.32,0,.65.03.97.09.95.18,1.83.64,2.5,1.35.73.78,1.03,1.76,1.44,2.72.29.71.62,1.4.94,2.1,1.95,4.33,3.15,8.8,2.99,13.59-.06,1.76-.28,3.51-.62,5.23-.07.34-.23.71-.16,1.05.05.26.17.53.25.78.66,2.09,1.31,4.33,1.33,6.54,0,.74-.14,1.5-.18,2.25-.03.41-.1.82-.39,1.13-.48.52-1.32.69-1.98.83-1.67.36-3.38.5-5.08.63-5.4.42-10.82.51-16.23.83-11.17.65-22.33,1.55-33.52,1.85-5.4.14-10.81.17-16.2-.19-4.19-.28-8.5-.72-12.5-2.07-3.97-1.34-8.18-3.92-8.71-8.46-.3-2.53.54-5.25,1.99-7.33.4-.58.62-.73,1.24-.97,1.26-.47,2.55-.88,3.83-1.3,3.7-1.2,7.42-2.33,11.14-3.47,1.28-.39,2.57-.78,3.85-1.17.38-.11.8-.2,1.14-.39,1.65-.95,3.21-2.11,4.8-3.15,6.14-4.03,12.28-8.06,18.42-12.1,1.71-1.12,3.42-2.23,5.12-3.36.44-.29.7-.79,1.02-1.21,1.08-1.44,2.17-2.89,3.25-4.33.66-.87,1.31-1.74,1.97-2.62l-.56.15c2.18,1.62,4.34,3.65,5.72,6.01.43.73.79,1.53.9,2.38.14,1.06-.3,2.02-.63,3.01-.24.72-.48,1.44-.72,2.15-.03.09-.15.3-.13.4.02.12.17.25.24.34.32.39.65.77,1,1.14,1.17,1.24,2.49,2.36,3.94,3.26,1.66,1.02,3.55,1.75,5.52,1.81,2.08.05,4.21-.66,5.91-1.84,1.6-1.11,2.6-2.68,3.34-4.44.48-1.14.98-3.04,2.46-3.21.15-.02.62-.28.25-.23-1.17.13-1.98.76-2.52,1.79-.66,1.26-1.05,2.64-1.83,3.84-1.25,1.92-3.34,3.27-5.58,3.72-2.13.42-4.32-.16-6.2-1.16-1.57-.84-2.99-1.96-4.25-3.21-.43-.43-.85-.88-1.25-1.34-.11-.13-.43-.4-.47-.58.01.04.06-.16.07-.21.19-.56.38-1.13.57-1.69.33-.97.83-1.99.88-3.03.04-.78-.19-1.55-.51-2.25-.81-1.78-2.2-3.29-3.59-4.63-.81-.78-1.67-1.54-2.58-2.21-.13-.1-.47.04-.56.15-1.81,2.4-3.61,4.81-5.42,7.21-.14.19-.3.38-.43.58-.04.05-.23.25-.08.13-.1.08-.22.14-.33.21l-2.18,1.43c-6.04,3.97-12.08,7.93-18.12,11.9-2.33,1.53-4.66,3.06-6.98,4.59l-.76.5c-.19.13-.36.13-.05.08-.73.13-1.48.44-2.19.66-3.59,1.08-7.18,2.18-10.76,3.31-1.69.53-3.38,1.07-5.06,1.63-.86.29-1.91.52-2.69,1.01-.53.34-.9,1.04-1.2,1.57-.63,1.1-1.1,2.3-1.36,3.54-.31,1.47-.32,3.02.11,4.47.55,1.84,1.79,3.38,3.3,4.53,3.57,2.73,8.31,3.66,12.67,4.22,5.04.65,10.14.79,15.21.78,11.54-.02,23.06-.89,34.57-1.62,5.38-.34,10.76-.58,16.15-.83,2.56-.12,5.12-.26,7.66-.54,1.34-.15,2.72-.31,4.01-.73.58-.19,1.25-.45,1.61-.97.25-.36.28-.79.3-1.21.05-1.04.22-2.03.12-3.08-.21-2.08-.79-4.13-1.45-6.11-.08-.25-.11-.3-.07-.55.13-.9.36-1.79.48-2.7.22-1.59.33-3.19.3-4.79-.05-2.6-.48-5.17-1.26-7.65-.58-1.85-1.37-3.6-2.17-5.37-.76-1.68-1.21-3.63-2.89-4.66-.96-.59-2.19-.86-3.31-.7-.23.03-.51.27-.11.21Z"/>
    </g>
    <path class="cls-16" d="M861.97,941.63c-3.01.28-6.03.53-9.05.78-6.63.55-13.25,1.05-19.89,1.49-6.6.43-13.22.83-19.84.9-3.52.04-7.04-.04-10.56-.1-4.31-.07-8.62-.17-12.92-.37-3.99-.18-7.98-.43-11.94-.92-2.71-.34-5.61-.69-8.14-1.8-.39-.17-.76-.37-1.11-.61-.13-.09-.62.14-.54.19,1.88,1.31,4.49,1.69,6.69,2.06,3.64.6,7.34.89,11.02,1.12,8.34.51,16.72.62,25.07.67,6.35.03,12.72-.34,19.06-.73,6.89-.42,13.77-.93,20.65-1.49,3.69-.3,7.4-.55,11.08-.95.05,0,.11,0,.16-.01.15-.01.63-.26.25-.23h0Z"/>
    <path class="cls-16" d="M767.7,948.75c8.66,1.8,17.54,2.9,26.36,3.52,7.48.53,14.92.39,22.4.11,6.98-.26,13.96-.6,20.94-1,3.56-.2,7.11-.41,10.67-.66.16-.01.63-.27.25-.24-9.42.65-18.85,1.14-28.28,1.53-7.65.31-15.3.62-22.95.19-6.45-.36-12.88-1.06-19.27-2.01-3.22-.48-6.45-1-9.63-1.66-.14-.03-.64.19-.47.23h0Z"/>
    <path class="cls-16" d="M861.95,927.46c-1.01-.48-2.15-.72-3.25-.87-2.53-.34-5.12-.02-7.51.87-3.49,1.31-6.36,3.82-8.81,6.57-1.64,1.85-3.14,3.93-4.01,6.26-.32.85-.65,1.86-.59,2.79,0,.11.59,0,.58-.15-.04-.67.15-1.38.34-2.01.57-1.92,1.64-3.68,2.84-5.27,3.83-5.04,9.41-9.48,16.07-8.89,1.26.11,2.63.36,3.78.9.15.07.61-.17.54-.2h0Z"/>
    <path class="cls-16" d="M792.26,929.65c.57.66,1.41,1.15,2.18,1.52,1.94.93,4.19,1.18,6.3.95.98-.11,1.93-.42,2.85-.74,1.36-.47,2.7-1.03,4.02-1.6,6.38-2.78,12.55-6.06,18.66-9.37,1.54-.84,3.08-1.68,4.61-2.53.05-.03.12-.08.11-.15-.23-1.59-1.32-3.13-2.48-4.17-1.29-1.16-2.92-1.94-4.59-2.39-1.09-.29-2.28-.44-3.38-.11-.44.13-.95.35-1.24.73-.15.19.43.14.53,0,.32-.42,1.04-.57,1.55-.6,1.89-.13,3.98.74,5.52,1.77,1.64,1.09,3.22,2.92,3.51,4.94l.11-.15c-3.87,2.17-7.78,4.26-11.72,6.3-3.18,1.64-6.37,3.25-9.63,4.74-2.41,1.1-4.9,2.28-7.49,2.91-1.97.47-4.21.26-6.09-.46-1.01-.38-2.1-.95-2.82-1.78-.12-.14-.67.06-.54.22h0Z"/>
    <path class="cls-16" d="M842.95,933.78c-1.94-1.5-3.88-3.01-5.81-4.51-3.07-2.39-6.15-4.77-9.22-7.16-.71-.55-1.41-1.1-2.12-1.65-.19-.15-.7.12-.45.32,1.94,1.5,3.88,3.01,5.81,4.51,3.07,2.39,6.15,4.77,9.22,7.16.71.55,1.41,1.1,2.12,1.65.19.15.7-.12.45-.32h0Z"/>
    <path class="cls-16" d="M823.76,943.92c-2-1.55-3.99-3.1-5.99-4.65-3.17-2.46-6.33-4.92-9.5-7.38-.73-.57-1.46-1.13-2.19-1.7-.22-.17-.71.14-.44.35,2,1.55,3.99,3.1,5.99,4.65,3.17,2.46,6.33,4.92,9.5,7.38.73.57,1.46,1.13,2.19,1.7.22.17.71-.14.44-.35h0Z"/>
    <path class="cls-4" d="M823.29,919.24l.05-.06c.43-.45.16-1.32-.58-1.95l-5.39-4.54c-.75-.63-1.71-.78-2.13-.33l-.05.06c-.43.45-.16,1.32.58,1.95l5.39,4.54c.75.63,1.71.78,2.13.33Z"/>
    <path class="cls-4" d="M816.63,921.56l.21-.22c.39-.41.16-1.21-.52-1.78l-4.03-3.36c-.68-.57-1.55-.69-1.95-.27l-.21.22c-.39.41-.16,1.21.52,1.78l4.03,3.36c.68.57,1.55.69,1.95.27Z"/>
    <path class="cls-4" d="M810.47,923.79l.27-.27c.27-.27,0-.91-.61-1.43l-2.85-2.43c-.6-.51-1.32-.71-1.59-.44l-.27.27c-.27.27,0,.91.61,1.43l2.85,2.43c.6.51,1.32.71,1.59.44Z"/>
    <path class="cls-4" d="M805.51,926.45l.32-.33c.32-.33.09-1.02-.52-1.53l-2.86-2.42c-.61-.51-1.36-.66-1.68-.33l-.32.33c-.32.33-.09,1.02.52,1.53l2.86,2.42c.61.51,1.36.66,1.68.33Z"/>
    <g>
      <path class="cls-6" d="M855.67,353.29s-13.92,22.41-43.07,19.62c-23.71-2.27-16.1-18.72-16.1-18.72l6.59-3.11s-9.61,13.1,9.16,15.01c18.77,1.91,30.91-8.39,33.48-10.67,2.57-2.28,5.11-4.91,5.11-4.91l4.84,2.78Z"/>
      <path class="cls-32" d="M854.6,353.5c-1.62,2.59-3.8,4.91-6.01,7-5.25,4.95-11.63,8.77-18.6,10.7-10.45,2.89-36.01,3.16-33.39-13.76.12-.8.32-1.6.57-2.37.03-.1.44-.97.39-1.05-.03-.05-.66.28-.35.24.2-.03.45-.21.63-.3l2.13-1.01c1.25-.59,2.49-1.18,3.74-1.77l-1.68.1c-1.11,1.52-1.93,3.38-2.29,5.23-.73,3.67,1.06,6.65,4.41,8.22,2.95,1.38,6.33,1.77,9.55,1.94,3.69.2,7.41-.06,11.05-.75,5.79-1.1,11.38-3.28,16.37-6.43,4-2.52,7.44-5.71,10.72-9.09-.67.15-1.34.31-2,.46,1.61.93,3.23,1.85,4.84,2.78.52.3,2.25-.6,2.05-.72-1.61-.93-3.23-1.85-4.84-2.78-.45-.26-1.66.11-2,.46-2.69,2.78-5.5,5.49-8.67,7.72-4.19,2.96-8.93,5.17-13.9,6.41-3.43.86-6.97,1.22-10.5,1.16-3.34-.06-6.89-.36-10.01-1.64-3.29-1.35-5.48-4.01-4.99-7.68.27-2.01,1.17-4.08,2.37-5.72.24-.33-1.54.03-1.68.1-1.14.54-2.27,1.07-3.41,1.61-1.03.49-2.49.89-3.39,1.61-.67.54-.85,1.86-1.03,2.65-1.05,4.6.13,9.26,3.97,12.22,3.46,2.67,8.03,3.68,12.28,4.16,5.16.58,10.41.42,15.51-.57,7.97-1.55,15.49-5.08,21.75-10.26,3.2-2.64,6.38-5.76,8.59-9.31.19-.31-.78-.17-.85-.15-.37.07-1.06.2-1.28.56Z"/>
    </g>
    <path class="cls-11" d="M868.43,795.98c-1.19-11.31-1.44-22.71-1.4-34.07.04-13.09.5-26.17,1.05-39.24.57-13.63,1.25-27.25,1.78-40.88.51-12.96.9-25.92.82-38.89-.07-11.03-.43-22.11-1.8-33.06-.15-1.21-.32-2.43-.5-3.63-.14-.92-2.32-.39-2.17.58,1.61,10.77,2.08,21.69,2.24,32.57.18,12.83-.16,25.66-.63,38.48-.5,13.62-1.17,27.23-1.76,40.84-.57,13.19-1.08,26.38-1.2,39.58-.11,11.48.04,23,1.02,34.44.11,1.29.24,2.58.37,3.86.1.91,2.28.4,2.17-.58h0Z"/>
    <path class="cls-11" d="M868.79,650.1c-5.22-2.6-11.58-3.8-16.03-7.76-2.81-2.5-4.36-6.47-5.94-9.8-1.91-4.02-3.81-8.04-5.52-12.15-1.92-4.61-3.59-9.32-4.77-14.18-.11-.46-2.29.09-2.17.58,2.12,8.67,5.79,16.81,9.59,24.85,1.71,3.61,3.29,7.55,5.94,10.6,1.9,2.19,4.79,3.49,7.39,4.63,3.13,1.37,6.41,2.43,9.47,3.96.4.2,1.01.01,1.4-.13.09-.03.98-.44.65-.6h0Z"/>
    <path class="cls-47" d="M817.86,820.87c-.78-6.09-1.55-12.17-2.33-18.26-.09-.72-2.28-.23-2.17.58l2.33,18.26c.09.72,2.28.23,2.17-.58h0Z"/>
    <path class="cls-47" d="M804.35,346.02s9.41,1.86,12.62,1.82,8.72-.27,25.63-8.55c0,0-8.01,12.12-24.47,12.16,0,0-13.45-.44-14.24-2.99l.46-2.44Z"/>
    <path class="cls-24" d="M791.46,263.35s0,0,0,0c-.48-5.65-.44-9.08,1.6-12.61,1.44-2.49,6.34-4.52,6.34-4.52,0,0,2.29-7.81,5.58-6.12,0,0,5.15-10.06,14.83-5.63,0,0,3.22-.29,4.61,1.98,0,0,6.27-8.35,13.94-.54,0,0,3.73-1.68,4.41,1.28,0,0,6.8-4.77,11.79.84,0,0,15.17-.53,17.19,9.61,0,0,7.73-2.55,10.24,5.08,0,0,3.64.92,2.77,6.23,0,0,5.22,2.6,5.16,6.17,0,0,2.73,3.14,1.6,8.65-.32,1.58-.76,1.07-1.62,3.13,1.98,6.84-2.77,6.82-2.77,6.82,3.74,6.66-3.4,12.97-3.4,12.97,0,0,1.59,4.95-.18,7.65-2.42,3.68-10.53,6.82-10.53,6.82,0,0,0-11.01,1.54-17.74,1.54-6.72-1.85-19.46-3.19-22.32-1.34-2.86-14.79-.37-34.22-3.58-19.43-3.21-22.74-7.47-25.16-7.21-5.02.54-11.96,17.53-12.71,22.9-.74,5.37-3.97,15.18-3.97,15.18,0,0-9.57-6.29-5.33-14.79,0,0-2.33-7.03-.37-10.71,0,0,.42-1.59,1.55-2.25-.01-.02-2.86-4.58.3-7.29Z"/>
    <path class="cls-29" d="M847.38,335.63c-9.14,7.69-19.39,12.26-30.72,12.92-11.11.65-19.24-4.15-20.52-5.96-6.99-9.94-8.87-16.72-10.49-27.42-.44-2.9-.1-5.92.54-8.97.95-4.57,3.09-13.28,3.66-17.7,1.45-11.25,4.16-21.25,11.7-29.79,15.71-17.79,46.33-12.97,56.94-5.92,12.4,8.25,16.55,21.97,15.39,35.76-.38,4.5-1.43,8.6-3.1,12.3-2.19,1.82-4.16,3.85-5.89,6.06"/>
    <g>
      <path d="M801.38,259.86s-1.02.74-8.97,14.66c2.1-4.49,3.88-11.43,8.5-17.44,16.14-21.02,56.09-12.05,66.58-4.09,12.25,9.31,15.06,24.81,13.61,40.86-.59,6.52-.6,15.96-3.15,21.07-.09.06-7.73,3.98-7.73,3.98,0,0-6.32-7.42-11.44-.1l-.85-3.55s-3.72-8.44-.34-27.54c0,0,1.13-8.13,1.59-10.56,1.4-7.47-5.07-6.81-9.57-6.24-2.79.35-8.68-.04-11.45-.5-7.06-1.19-15.86-3.65-19.19-4.1-4.68-.64-17.59-6.44-17.59-6.44Z"/>
      <path d="M801.21,259.88c-.34.25-.59.75-.82,1.08-1.36,1.98-2.59,4.05-3.81,6.11-1.47,2.48-2.92,4.97-4.35,7.47l.38-.07c1.32-2.84,2.3-5.82,3.54-8.69,1.45-3.35,3.19-6.6,5.51-9.44,3.29-4.02,7.67-7,12.47-8.93,4.93-1.98,10.24-2.91,15.54-3.18,5.26-.27,10.55.11,15.74.98,4.61.77,9.17,1.91,13.55,3.55,3.42,1.28,6.73,2.86,9.55,5.22,4.98,4.16,8.47,9.76,10.44,15.91s2.55,13.25,2.25,19.95c-.15,3.32-.47,6.63-.7,9.94s-.48,6.96-1.19,10.36c-.3,1.45-.69,2.9-1.29,4.26-.14.32-.16.45-.43.61s-.58.3-.86.45c-1.8.93-3.61,1.86-5.41,2.79-.4.2-.8.41-1.19.61l.29-.04c-1.13-1.32-2.69-2.44-4.34-3-1.19-.4-2.46-.46-3.66-.08-1.62.51-2.85,1.72-3.82,3.07l.38-.09c-.34-1.43-.65-2.86-1.11-4.26-.69-2.09-1.02-4.3-1.24-6.48-.85-8.48.64-16.85,1.86-25.21.26-1.79.52-3.59.83-5.37s.54-3.71-.62-5.18c-.89-1.13-2.36-1.54-3.74-1.67-1.64-.16-3.29.02-4.91.22-2.21.27-4.46.19-6.68.06-2.39-.15-4.75-.44-7.1-.89-5.11-.98-10.13-2.34-15.22-3.38-1.47-.3-2.94-.49-4.38-.91-1.89-.54-3.74-1.22-5.58-1.92-3.04-1.16-6.04-2.41-9.02-3.73-.17-.07-.33-.15-.5-.22-.1-.05-.4.11-.37.13,2.24,1,4.5,1.96,6.77,2.87,3.33,1.34,6.78,2.82,10.32,3.49,4.39.83,8.72,1.89,13.08,2.86,2.54.56,5.1,1.14,7.68,1.48,2.33.3,4.69.46,7.04.49,1.88.02,3.7-.21,5.57-.37,1.65-.14,3.44-.2,5,.43,3.68,1.49,2.29,5.95,1.84,8.94-.51,3.34-.99,6.69-1.51,10.04-.79,5.11-1.21,10.3-.95,15.47.14,2.7.44,5.42,1.15,8.03.14.51.3,1.01.48,1.5.24.7.37,1.44.54,2.16.12.51.24,1.02.37,1.53.02.09.35-.04.38-.09,1.04-1.45,2.45-2.85,4.31-3.08,1.22-.15,2.44.2,3.51.75,1.21.62,2.36,1.5,3.25,2.53.05.05.25-.02.29-.04,1.39-.71,2.77-1.43,4.16-2.14.88-.45,1.76-.91,2.64-1.36.49-.25.93-.37,1.17-.87,1.32-2.85,1.76-6.11,2.1-9.21.38-3.47.53-6.96.8-10.44.55-6.96.71-13.91-.75-20.78-1.35-6.36-4.06-12.44-8.48-17.27-1.72-1.88-3.66-3.62-5.83-4.96-1.49-.92-3.07-1.68-4.67-2.37-4.17-1.78-8.57-3.03-13.01-3.93-5.14-1.04-10.39-1.6-15.64-1.57-5.25.03-10.54.65-15.57,2.19-4.83,1.47-9.42,3.82-13.16,7.23-5.04,4.61-7.77,10.81-10.2,17.06-.53,1.37-1.06,2.73-1.68,4.06-.03.05.33.02.38-.07,2.11-3.69,4.23-7.37,6.47-10.98.72-1.16,1.42-2.36,2.28-3.43.07-.08.12-.17.2-.23.07-.06-.27-.02-.35.03Z"/>
    </g>
    <path class="cls-29" d="M853.88,326.99c4.84,6.66,11.18-.52,11.18-.52,6.44-5.83,7.43-12.87,7.91-17.71.48-4.84-4.83-5.52-4.83-5.52-4.57-.15-4.01.47-11.92,12.41"/>
    <path d="M830.45,298.58c1.41-.43,2.82.43,3.52,1.34.17.21.61.81.7,1.71.12,1.14-.55,2.29-1.37,2.91-1.09.83-2.64.72-3.7-.04-1.44-1.03-1.6-3.02-.95-4.33.12-.24.66-1.24,1.8-1.59"/>
    <path d="M822.57,302.86s5.71-5.3,10.52-4.43c6.78,1.22,7.67,5.11,8.78,7.24,0,0-3.55-5.18-8.81-6.01-4.77-.75-10.5,3.2-10.5,3.2Z"/>
    <path d="M797.23,292.37c-1.08-.9-2.6-.58-3.52.02-.22.14-.81.55-1.2,1.35-.5,1.03-.32,2.33.17,3.2.66,1.16,2.04,1.6,3.23,1.26,1.61-.46,2.44-2.27,2.33-3.72-.02-.27-.14-1.39-1.01-2.11"/>
    <path d="M804.69,299.65s-2.73-6.83-6.89-7.58c-5.86-1.06-7.93,2.28-9.56,3.92,0,0,4.64-3.7,9.15-2.76,4.09.85,7.3,6.42,7.3,6.42Z"/>
    <g>
      <path class="cls-10" d="M806.58,317.29c1.14.88,3.09,1.06,4.49.5.31-.13,1.22.21.78.38-1.85.75-4.62.36-6.1-.77-.15-.11-.1-.23.12-.26.22-.03.55.04.71.16"/>
      <path class="cls-10" d="M812.46,317.9c.91-.25,1.9-.3,2.86-.21.14.01.31.1.4.21.07.09.07.18-.05.22-.48.18-1.05.18-1.56.08-.16-.03-.37-.11-.43-.26-.06-.14.11-.2.23-.17.42.08.87.07,1.26-.07.12.14.23.29.35.43-.86-.08-1.74-.03-2.55.19-.16.05-.37-.04-.49-.14-.09-.08-.17-.24-.01-.28"/>
      <path class="cls-10" d="M816.2,318.67c1.11.17,2.5-.09,3.18-.83,1.04-1.12.64-3.37-.61-4.42-.14-.11-.04-.21.12-.22.21,0,.43.11.57.23,1.08.91,1.56,2.81,1.18,3.96-.36,1.08-1.55,1.66-2.93,1.75-.41.03-.84.02-1.26-.04-.17-.03-.46-.13-.52-.27-.06-.15.1-.18.26-.16"/>
      <path class="cls-10" d="M804.65,316.37c.08-.12-.01-.22-.1-.23-.3-.04-.59-.18-.81-.43-.12.1-.24.21-.35.31.59.17,1.15.47,1.63.92.09.09.26.07.36,0,.08-.05.18-.17.09-.26"/>
      <path class="cls-10" d="M805.46,316.68c-.53-.51-1.16-.83-1.82-1.02-.1-.03-.23,0-.32.08-.07.06-.1.16-.03.23"/>
      <path class="cls-10" d="M802.33,316.12c-.71-.15-1.48-.78-1.69-1.68-.32-1.35.44-2.76,1.48-3.41.11-.07.08-.19-.01-.24-.12-.07-.29-.02-.41.06-.9.57-1.61,1.62-1.7,2.82-.08,1.12.47,2.02,1.28,2.49.24.14.5.25.77.31.11.02.31,0,.39-.12.08-.12-.01-.2-.11-.22"/>
    </g>
    <path d="M826.95,283.48c-.44,1-.87,2.01-1.31,3.02-.33.77-.66,1.54-.99,2.3,2.54.33,5.86,1.22,7.44,1.57,3.13.71,6.29,1.67,9.01,3.43,1.3.84,2.36,1.76,3.19,3.04.26.4.8,1.9,1.47,1.86.27-.01.44-1.41.46-1.55.33-2.82-1.2-4.71-3.35-6.36-4.4-3.35-9.41-5.37-14.71-6.86"/>
    <path d="M789.58,286.68c.08-.69.1-1.4.01-2.1.46-.32.96-.61,1.48-.89,4.84-2.5,10.04-3.58,15.44-4.09.25,1.06.5,2.13.75,3.2.19.81.38,1.63.56,2.44-2.52-.13-4.64-.1-6.23-.03-3.16.13-6.39.51-9.32,1.75-.85.36-1.61.77-2.32,1.28l-.38-1.56Z"/>
    <path class="cls-15" d="M809.43,324.32c4.84.62,12.6,1.6,12.6,1.6,0,0-2.81,11.95-14.02,10.51-11.22-1.44-9.98-13.97-9.98-13.97,0,0,6.57,1.24,11.41,1.86Z"/>
    <path class="cls-40" d="M809.38,324.31c2.3.3,11.46,1.68,11.46,1.68,0,0-4.32,7.19-12.64,6.12-9.02-1.16-8.8-8.72-8.8-8.72l9.98.92Z"/>
    <path class="cls-20" d="M809.23,324.73c2.3.3,9.19,1.39,9.19,1.39,0,0-2.75,2.11-9.65,1.22-6.9-.89-8.87-3.51-8.87-3.51l9.33.9Z"/>
    <path class="cls-15" d="M797.8,321.95c.26-.04.26-.04,1.43-.02,1.95.05,2.86-.63,4.27-.58,2.41.08,3.78,1.42,4.81,1.56,1.04.13,2.7-.82,5.05-.29,1.38.31,4.58,2.05,6.48,2.5,1.14.27,1.97.5,2.2.6.33.15.04,1.86-12.99.19-13.02-1.67-11.62-3.9-11.27-3.96Z"/>
    <path class="cls-37" d="M861.14,315.84c1.41-2.51,2.96-5.04,4.99-7.11.5-.51,1.03-.99,1.62-1.38.06-.04.36-.22.22-.14.09-.05.19-.1.28-.15.23-.12-.08.01.11-.05.04-.01.07-.03.11-.04.16-.07-.08.03-.04.01.16-.06.13-.03,0,0,.14-.03.13,0-.04,0,.17,0-.05,0-.04,0l-.26-.12c.36.52.56,1.19.69,1.8.38,1.74.13,3.54-.42,5.22-.11.33,1.3.16,1.43-.24.65-2,.91-4.25.17-6.26-.1-.28-.22-.68-.43-.9-.15-.15-.34-.14-.54-.12-1.91.14-3.55,1.72-4.74,3.06-1.79,2.01-3.23,4.33-4.55,6.68-.14.25.51.19.59.18.27-.04.69-.15.84-.42h0Z"/>
    <path class="cls-37" d="M861.15,317.67c.62.02.73.32.65.89-.09.65-.35,1.27-.43,1.93-.15,1.27.89,2.26,2.14,1.65,1.54-.75,2.01-2.92,2.37-4.41.21-.89.43-1.78.5-2.7.12-1.61-.13-3.38-1.69-4.2-.62-.33-1.65.58-.83,1.01,1.07.56,1.12,2.14,1.05,3.18-.04.57-.12,1.13-.24,1.69-.04.19-.08.37-.13.56,0,.04-.02.08-.03.12-.02.09.04-.13,0-.02,0,.04-.02.07-.03.11-.22.83-.39,1.66-.74,2.46-.13.3-.28.6-.47.86-.08.1-.16.21-.25.3.01-.01-.23.2-.12.11-.11.1-.07.02-.02.02.13,0,.16-.02.13-.01.09-.02.05.06,0-.02s.08.11-.02-.03c-.06-.08-.09-.14-.12-.21-.17-.47.07-1.09.19-1.54.15-.59.38-1.28.16-1.88-.29-.81-1.2-.95-1.95-.97-.32,0-.76.26-.79.6-.04.39.38.5.68.51h0Z"/>
    <g>
      <path class="cls-29" d="M728.16,476.2c4.25-5.98,6.37-10.25,5.18-17.49"/>
      <path class="cls-47" d="M729.07,476.52c1.89-2.67,3.77-5.45,4.8-8.58,1.02-3.11,1.07-6.31.56-9.52-.16-1-2.34-.45-2.17.58.47,2.98.45,6.04-.54,8.92-.99,2.9-2.7,5.48-4.46,7.97-.8,1.12,1.24,1.45,1.82.64h0Z"/>
    </g>
    <path class="cls-25" d="M857.29,659.84c3.11-4.21,7.2-9.93,7.12-10.87s.34-7.27.71-12.81c.31-2.81-1.49-5.44-4.02-5.87-.66-.11-5.14,12.39-10.23,9.75l1.73-11.43c1.04-3.6,2.5-7.01,4.33-10.17,2.5-3.77,12.78-11.66,12.78-11.66l1.9-14.62,23.19,6.16-4.32,13.9,1.54,14.62s-2.57,26.82-4.96,29.66c-2.39,2.84-9.92,5.12-9.92,5.12-2.55,4.31-9.01,3.55-9.01,3.55-6.33,5.5-6.78-.26-6.78-.26-.17.24-.41.43-.67.53-2.87,1.12-5.27-3.1-3.4-5.59Z"/>
    <path class="cls-23" d="M873.18,642.94c.28,3.86-.25,7.7-1.55,11.24-1.59,3.37-3.96,6.19-6.87,8.18-1.09.96-2.31,1.71-3.63,2.24"/>
    <path class="cls-23" d="M878.99,644.9c.05,1.58,0,3.15-.17,4.71-.14,1.97-.64,3.87-1.47,5.58-.95,1.57-2.07,3-3.33,4.27l-2.96,3.1c-.85,1.04-1.84,1.93-2.93,2.64"/>
    <path class="cls-23" d="M884.52,646.43c.45.06.28,2.39-.59,8.08-.14.78-.45,1.51-.92,2.1-.36.53-.75,1.03-1.18,1.51-.69.81-1.45,1.55-2.27,2.19-1.41,1.1-2.46,1.46-2.51,1.31"/>
    <path d="M864.65,358.45s-20.33,9.76-24.39,36.22c-4.07,26.45,11.71,53.19,19,62.71,0,0-3.05-29.04-1.83-42.12,1.22-13.08-1.07-37.97,29.44-41.25,0,0-7.55-13.32-22.22-15.55Z"/>
    <path d="M784.68,359.57s-10.36,5.34-18.43,27.1c-5.43,14.63-11.9,35.89-15.48,62.63,0,0-5.48-30.28.76-57.83,5.09-22.46,33.15-31.9,33.15-31.9Z"/>
    <path class="cls-37" d="M819.43,289.6c-2.14-1.76-2.63-5.09-1.12-7.4.16-.24-.52-.19-.59-.18-.29.05-.67.16-.84.42-1.57,2.4-1.02,5.86,1.19,7.68.22.18.71.03.94-.06.11-.04.64-.28.42-.45h0Z"/>
    <path class="cls-15" d="M567.08,241.11c-6.81-.96-17.73-2.51-17.73-2.51,0,0-.26,15.94,15.54,18.16,15.79,2.22,18.41-13.92,18.41-13.92,0,0-9.4-.76-16.21-1.72Z"/>
    <path class="cls-40" d="M567.14,241.11c-3.24-.45-16.22-1.98-16.22-1.98,0,0,3.57,10.03,15.29,11.67,12.7,1.78,14.85-7.22,14.85-7.22l-13.92-2.47Z"/>
    <path class="cls-20" d="M567.2,241.73c-3.24-.45-13.02-1.53-13.02-1.53,0,0,2.95,3.89,12.67,5.26,9.72,1.36,13.38-1.47,13.38-1.47l-13.03-2.25Z"/>
    <path class="cls-15" d="M583.77,242.21c-.33-.15-.33-.16-1.94-.56-2.67-.67-3.65-1.92-5.59-2.38-3.31-.79-5.67.53-7.13.32-1.46-.2-3.36-2.12-6.76-2.27-1.99-.09-7,1.08-9.75.98-1.65-.06-2.86-.05-3.22,0-.5.08-.75,2.52,17.59,5.09,18.34,2.58,17.26-.97,16.8-1.18Z"/>
  </g>
</svg>