<?xml version="1.0" encoding="UTF-8"?>
<svg xmlns="http://www.w3.org/2000/svg" xmlns:xlink="http://www.w3.org/1999/xlink" viewBox="0 0 1334 1000">
  <defs>
    <style>
      .cls-1 {
        fill: #622515;
      }

      .cls-2 {
        fill: #24170f;
      }

      .cls-3 {
        fill: #625422;
      }

      .cls-4 {
        fill: #271810;
      }

      .cls-5 {
        fill: #273339;
      }

      .cls-6 {
        fill: #132046;
      }

      .cls-7, .cls-8 {
        fill: #010101;
      }

      .cls-9 {
        fill: #653c29;
      }

      .cls-10 {
        fill: #ababab;
      }

      .cls-11 {
        fill: #f1edf6;
      }

      .cls-12 {
        fill: #4b6199;
      }

      .cls-13 {
        fill: #a66f53;
      }

      .cls-14 {
        fill: #f0e9d1;
      }

      .cls-15 {
        fill: #0a1928;
      }

      .cls-16 {
        fill: #100e0d;
      }

      .cls-17 {
        fill: #a66e53;
      }

      .cls-8 {
        stroke: #171413;
        stroke-miterlimit: 10;
        stroke-width: .13px;
      }

      .cls-18 {
        fill: url(#linear-gradient);
        opacity: .5;
      }

      .cls-19 {
        fill: #fff;
      }

      .cls-20 {
        fill: #646464;
      }

      .cls-21 {
        fill: #ccb631;
      }

      .cls-22 {
        fill: #4f2f26;
      }

      .cls-23 {
        fill: #3f535a;
      }

      .cls-24 {
        fill: #552d23;
      }

      .cls-25 {
        fill: #8e6528;
      }

      .cls-26 {
        fill: #a53b23;
      }

      .cls-27 {
        fill: #4f4f80;
      }

      .cls-28 {
        fill: #4f2e25;
      }

      .cls-29 {
        fill: #89772e;
      }
    </style>
    <linearGradient id="linear-gradient" x1="362.51" y1="1753.14" x2="1407.78" y2="1753.14" gradientTransform="translate(-1094.63 -626.4) rotate(90) scale(1 -1)" gradientUnits="userSpaceOnUse">
      <stop offset="0" stop-color="#eeeadf"/>
      <stop offset=".18" stop-color="#ece7dc" stop-opacity=".99"/>
      <stop offset=".33" stop-color="#e6e0d3" stop-opacity=".97"/>
      <stop offset=".47" stop-color="#dcd3c4" stop-opacity=".93"/>
      <stop offset=".6" stop-color="#cec1af" stop-opacity=".88"/>
      <stop offset=".72" stop-color="#bcaa94" stop-opacity=".82"/>
      <stop offset=".84" stop-color="#a68d72" stop-opacity=".73"/>
      <stop offset=".96" stop-color="#8d6c4c" stop-opacity=".64"/>
      <stop offset="1" stop-color="#83603d" stop-opacity=".6"/>
    </linearGradient>
  </defs>
  <g id="Layer_1" data-name="Layer 1">
    <polyline class="cls-14" points="1360.02 782.93 1360.02 -254.76 -47.01 -254.76 -47.01 782.93"/>
    <polyline class="cls-18" points="1362.02 777.92 -45.01 777.92 -45.02 -267.34 1362.02 -267.34"/>
  </g>
  <g id="Layer_4" data-name="Layer 4">
    <path class="cls-23" d="M822.93,1387.81c.83-20.58,1.62-41.17,2.25-61.76,1.45-47.37,50.06-94.73,50.06-142.11l-10.99-684.95-636.34-1.8c-137.78.02-160.71,49.03-164.17,213.26-12.47-9.59-137.71-7.87-174.73-7.87-54.39,5.33-79.95,73.93-84.61,168.47l-3.15,125.27-1.78.67c-29.99,18.03-46.95,44.17-47.02,84.21v104.5c.11,25.99,14.72,48.71,35.74,55.59v146.51H822.93Z"/>
    <path class="cls-23" d="M1518.21,997.97l-1.78-.67-3.15-125.27c-4.66-94.54-30.22-163.15-84.61-168.47-37.02,0-162.26-1.72-174.73,7.87-3.97-178.62,14.39-213.26-253.88-213.26l-295.72.71c-3.16,72.49-11.76,62.75-22.44,134.51-13.39,90.01,12.83,179.48-.88,269.44-6.89,45.21,52.63,90.75,46.79,136.11-5.95,46.21-11.96,92.41-17.81,138.63-8.89,70.29-17.42,140.69-24.74,211.2h844.23v-146.51c21.02-6.88,35.63-29.6,35.74-55.59v-104.5c-.06-40.04-17.03-66.18-47.02-84.21Z"/>
    <path class="cls-13" d="M1073.08,416.79s-18.21,49.81-16.54,68.65c.41,4.57,20.78,22.71,20.78,22.71l-115.99,27.5-29.54-41.61s33.44-14.1,36.17-18.78c2.73-4.67,10.77-53.83,10.77-53.83"/>
    <path class="cls-24" d="M972.18,458.53s17.19,6.3,23.24,6.58c6.05.28,16.48.5,49.34-13.18,0,0-16.5,21.95-47.57,20.13,0,0-25.15-1.92-26.35-6.83l1.34-6.7Z"/>
    <path class="cls-8" d="M953.76,301.64s0,0,0,0c-.25-10.71.21-17.18,4.47-23.61,3.01-4.54,12.49-7.8,12.49-7.8,0,0,5.21-14.47,11.23-10.91,0,0,10.88-18.39,28.63-8.91,0,0,6.1-.18,8.46,4.26,0,0,12.8-15.03,26.37.58,0,0,7.24-2.73,8.18,2.91,0,0,13.37-8.21,22.15,2.95,0,0,28.69.73,31.33,20.11,0,0,14.88-3.92,18.74,10.76,0,0,6.76,2.16,4.52,12.07,0,0,9.56,5.51,9.02,12.23,0,0,4.8,6.23,2.03,16.5-.79,2.93-1.56,1.93-3.41,5.72,2.96,13.13-6.01,12.55-6.01,12.55,6.29,13-7.91,24.09-7.91,24.09,0,0,2.43,9.52-1.22,14.41-4.98,6.67-20.64,11.65-20.64,11.65,0,0,1.27-20.78,4.94-33.29,3.67-12.51-1.26-36.93-3.46-42.48-2.2-5.55-27.87-2.39-64.16-10.68-36.29-8.29-42.05-16.7-46.65-16.49-9.54.44-24.59,31.71-26.6,41.75-2.02,10.04-9.24,28.19-9.24,28.19,0,0-17.34-12.96-8.35-28.52,0,0-3.6-13.54.53-20.26,0,0,.98-2.96,3.17-4.07-.02-.04-4.86-8.97,1.4-13.72Z"/>
    <path class="cls-13" d="M1052.7,446.6c-18.13,13.45-34.73,21.04-56.18,20.99-21.04-.05-40.84-12.34-43.03-15.9-12.04-19.55-14.82-32.57-16.64-52.94-.49-5.53.5-11.18,2.04-16.86,2.31-8.51,7.36-24.71,8.94-32.98,4.02-21.06,10.28-39.61,25.49-54.86,31.68-31.77,88.91-19.16,108.11-4.63,22.44,16.98,28.7,43.35,24.94,69.24-1.23,8.44-3.69,16.07-7.26,22.85-4.34,3.18-8.29,6.79-11.82,10.76"/>
    <g>
      <path class="cls-7" d="M972.89,296.2s-2.01,1.29-18.6,26.62c4.48-8.23,8.63-21.12,18.04-31.94,32.87-37.8,107.22-16.3,126.09-.07,22.05,18.98,25.57,48.55,20.98,78.66-1.86,12.22-4.78,26.15-10.18,35.49-3.66,8.65-13.23,10.52-13.23,10.52,0,0-11.08-14.72-21.57-1.5l-1.19-6.79s-6.06-16.35,2.52-52.01c0,0,3.07-15.21,4.2-19.74,3.5-13.94-8.79-13.43-17.33-12.88-5.31.34-16.38-1.07-21.54-2.27-13.19-3.06-29.51-8.7-35.74-9.94-8.75-1.74-32.45-14.16-32.45-14.16Z"/>
      <path class="cls-7" d="M972.74,296.2c-.67.43-1.2,1.33-1.68,1.94-2.82,3.61-5.39,7.41-7.96,11.19-3.05,4.48-6.04,9-9,13.53l.38-.07c2.64-4.87,4.71-10.03,7.17-15,3-6.06,6.48-11.93,10.95-17.04,6.2-7.09,14.22-12.33,23.01-15.65,8.98-3.39,18.6-4.88,28.17-5.14s19.28.68,28.73,2.51c8.67,1.67,17.23,4.08,25.46,7.31,6.27,2.46,12.55,5.36,18.02,9.33,3.87,2.81,7.27,6.34,10.24,10.07,3.6,4.54,6.52,9.59,8.73,14.94,4.6,11.12,6.16,23.27,5.99,35.24-.09,6.41-.67,12.82-1.6,19.16-.99,6.77-2.22,13.52-3.99,20.13-.85,3.16-1.82,6.29-3.01,9.33-1.1,2.81-2.47,5.48-3.85,8.15-2.13,4.11-5.99,7.05-10.28,8.63-.71.26-1.45.51-2.19.66l.16.02c-3.4-4.5-9.42-8.41-15.2-6.54-2.76.9-4.97,2.89-6.76,5.12l.38-.09c-.39-2.23-.66-4.52-1.18-6.72-.11-.48-.29-.95-.42-1.43-1.05-4.01-1.44-8.21-1.6-12.34-.34-8.68.52-17.4,1.98-25.95.49-2.9,1.06-5.78,1.7-8.65.32-1.45.69-2.9.99-4.36.58-2.88,1.17-5.76,1.78-8.63.69-3.3,1.37-6.6,2.16-9.88.77-3.2,1.43-6.98-.63-9.87-1.64-2.31-4.53-3.2-7.21-3.56-3.1-.42-6.24-.24-9.35-.05-4.33.27-8.76-.26-13.05-.81s-8.71-1.43-13.01-2.55c-9.44-2.44-18.68-5.58-28.11-8.08-1.33-.35-2.68-.62-4.01-.95s-2.71-.79-4.04-1.26c-3.46-1.24-6.83-2.71-10.17-4.22-5.55-2.51-11.02-5.2-16.43-8-.31-.16-.62-.32-.93-.48-.1-.05-.41.11-.37.13,4.05,2.12,8.16,4.15,12.29,6.12,3.44,1.64,6.91,3.23,10.42,4.69,2.87,1.2,5.79,2.38,8.81,3.14,1.32.33,2.66.59,3.98.94,1.9.5,3.8,1.05,5.68,1.61,4.85,1.43,9.68,2.91,14.54,4.31s9.55,2.77,14.42,3.7c4.39.84,8.85,1.4,13.3,1.73,1.95.14,3.92.24,5.88.16,1.6-.07,3.2-.2,4.8-.23,3.07-.05,6.39.05,9.22,1.39,2.84,1.35,4.26,3.98,4.31,7.07.03,1.89-.41,3.7-.84,5.53-.36,1.51-.69,3.03-1.01,4.54-.76,3.52-1.49,7.04-2.21,10.57-.57,2.77-1.2,5.52-1.8,8.29-2.04,9.45-3.42,19.1-3.54,28.77-.06,5.17.2,10.41,1.25,15.48.2.97.42,1.94.73,2.88.42,1.31.53,2.75.77,4.1.17.99.35,1.98.52,2.97.02.1.35-.04.38-.09,1.66-2.07,3.69-3.97,6.23-4.87,1.9-.68,3.95-.66,5.87-.11,2.97.85,5.56,2.79,7.68,4.98.49.51.97,1.03,1.4,1.59.03.04.11.03.16.02,2.58-.51,5.14-1.74,7.29-3.22,1.96-1.35,3.68-3.06,4.95-5.08.37-.59.7-1.2,1-1.83.33-.72.73-1.39,1.1-2.09.7-1.35,1.34-2.74,1.93-4.14,2.6-6.26,4.26-12.89,5.59-19.52,1.32-6.57,2.36-13.22,2.97-19.9,1.13-12.37.78-25.05-2.49-37.09-3.14-11.57-9.14-22.21-17.96-30.39-4.96-4.6-10.91-7.85-17.05-10.58-7.81-3.48-16-6.11-24.31-8.07-9.41-2.22-19.05-3.59-28.73-3.84s-19.33.62-28.61,3.21c-8.9,2.49-17.38,6.64-24.36,12.75-4.4,3.85-8.08,8.43-11.18,13.37-3.38,5.39-6.02,11.17-8.68,16.94-1.05,2.28-2.11,4.57-3.31,6.78-.03.05.33.02.38-.07,4.39-6.71,8.81-13.4,13.45-19.94,1.5-2.11,2.98-4.3,4.71-6.23.1-.11.37-.39.4-.42.16-.1-.23-.05-.3,0Z"/>
    </g>
    <path class="cls-13" d="M1064.23,428.9c8.37,13.12,21.15.3,21.15.3,12.82-10.26,15.5-23.43,16.96-32.51,1.47-9.08-8.47-10.97-8.47-10.97-8.6-.8-7.62.43-23.92,22.05"/>
    <path class="cls-7" d="M1023.28,372.6c2.72-.64,5.26,1.14,6.49,2.93.29.42,1.05,1.61,1.12,3.31.09,2.17-1.29,4.26-2.91,5.34-2.16,1.44-5.07,1.05-6.98-.51-2.6-2.11-2.67-5.89-1.29-8.28.25-.44,1.38-2.26,3.58-2.79"/>
    <path class="cls-7" d="M1007.93,379.76s11.37-9.35,20.36-7.16c12.64,3.08,13.89,10.52,15.74,14.67,0,0-6.09-10.19-15.93-12.35-8.92-1.96-20.18,4.84-20.18,4.84Z"/>
    <path class="cls-7" d="M961.31,357.06c-1.93-1.81-4.83-1.4-6.65-.37-.43.24-1.59.94-2.42,2.42-1.06,1.88-.88,4.37-.04,6.06,1.12,2.26,3.67,3.24,5.95,2.74,3.09-.68,4.86-4,4.82-6.74,0-.5-.1-2.64-1.66-4.1"/>
    <path class="cls-7" d="M974.57,371.66s-4.37-13.19-12.13-15.1c-10.93-2.68-15.22,3.4-18.48,6.3,0,0,9.19-6.45,17.58-4.16,7.61,2.08,13.04,12.96,13.04,12.96Z"/>
    <g>
      <path class="cls-7" d="M976.11,405.15c2.06,1.79,5.7,2.36,8.41,1.45.6-.2,2.27.53,1.43.81-3.58,1.19-8.76.15-11.41-2.16-.26-.23-.15-.45.25-.48.42-.04,1.04.14,1.32.38"/>
      <path class="cls-7" d="M987.13,406.98c1.75-.37,3.62-.35,5.41-.06.26.04.57.22.72.44.12.17.11.36-.11.42-.92.28-2.01.22-2.96-.02-.3-.08-.68-.25-.79-.55-.1-.28.23-.36.46-.3.78.2,1.63.24,2.39.01.21.29.41.57.61.86-1.61-.25-3.27-.26-4.84.07-.31.07-.7-.12-.91-.33-.16-.16-.3-.47.01-.53"/>
      <path class="cls-7" d="M994.09,408.87c2.08.44,4.72.12,6.1-1.2,2.09-1.99,1.59-6.29-.64-8.4-.24-.23-.04-.41.26-.4.39,0,.79.25,1.05.49,1.94,1.85,2.63,5.48,1.77,7.61-.8,1.99-3.12,2.96-5.73,2.97-.78,0-1.59-.06-2.36-.23-.31-.07-.85-.3-.95-.58-.1-.29.22-.33.51-.26"/>
      <path class="cls-7" d="M972.57,403.2c.17-.21,0-.42-.17-.45-.56-.12-1.09-.41-1.48-.91-.24.18-.47.36-.7.54,1.09.39,2.12,1.02,2.96,1.93.17.18.47.16.69.05.16-.08.36-.31.2-.49"/>
      <path class="cls-7" d="M974.07,403.87c-.94-1.01-2.1-1.71-3.32-2.14-.18-.06-.44-.02-.61.12-.14.11-.2.28-.09.43"/>
      <path class="cls-7" d="M968.22,402.46c-1.33-.37-2.7-1.65-2.99-3.37-.44-2.59,1.15-5.17,3.18-6.27.22-.12.17-.36,0-.46-.22-.14-.54-.07-.77.06-1.77.96-3.22,2.87-3.52,5.13-.28,2.11.66,3.86,2.13,4.84.44.29.92.53,1.41.67.2.06.59.05.75-.17.16-.22,0-.38-.19-.43"/>
    </g>
    <path class="cls-7" d="M1009,357.03c.46,2.02.93,4.04,1.39,6.06.36,1.54.71,3.08,1.08,4.61,4.24-2.33,10.29-4.71,13.09-5.93,5.56-2.43,11.46-4.5,17.56-4.86,2.92-.17,5.57.04,8.27,1.06.85.32,3.34,2,4.32,1.19.4-.33-.9-2.64-1.04-2.88-2.66-4.66-7.1-5.84-12.23-5.93-10.44-.18-20.34,2.35-30.08,6.01"/>
    <path class="cls-7" d="M950.42,330.78c1.16-.64,2.24-1.4,3.22-2.32,1,.35,2,.78,3.01,1.28,9.2,4.61,16.65,11.36,23.44,19.03-1.35,1.57-2.7,3.14-4.06,4.71-1.03,1.2-2.07,2.39-3.1,3.58-2.61-3.99-5.01-7.2-6.89-9.56-3.71-4.68-7.89-9.2-13.05-12.3-1.49-.9-2.97-1.61-4.53-2.12l1.96-2.31Z"/>
    <path class="cls-11" d="M980.24,419.49c4.31.82,17.18,3.68,17.18,3.68,0,0-5.43,3.66-18.34,1.2-12.92-2.47-16.34-7.64-16.34-7.64l17.5,2.77Z"/>
    <path class="cls-24" d="M1002.85,363.66c-2.43.04-4.39-2.23-5-4.4-.83-2.92.27-5.99,1.73-8.52.28-.48-.25-.88-.67-.94-.55-.08-1.14.19-1.41.67-1.68,2.91-2.87,6.64-1.63,9.93,1.08,2.86,3.69,4.93,6.8,4.88.48,0,1.14-.37,1.19-.89.06-.57-.57-.74-1.01-.74h0Z"/>
    <path class="cls-24" d="M1077.69,407.83c2.78-3.86,5.71-7.67,9.1-11.02,1.58-1.56,3.47-3.26,5.34-4.22.16-.08.31-.15.47-.23.07-.03.15-.06.22-.09-.26.11-.02.01.03,0,.09-.04.46-.17.09-.04.1-.04.56-.2.15-.05.07-.03.47-.11.06-.02.07-.02.17-.03.24-.02-.44-.02.39,0,0,0,.18,0,.29.13.14.01.34.27.81,1.17,1.07,1.67,2.22,4.19,1.98,9,.05,13.25-.14.31,1.89.16,2.14-.39,1.86-4.1,2.22-8.76.26-12.89-.34-.72-.91-2.28-1.81-2.48-1.16-.26-2.56.23-3.6.67-2.08.87-3.89,2.3-5.55,3.81-4.02,3.65-7.38,8.04-10.55,12.44-.23.31.79.21.87.19.42-.07,1.01-.22,1.28-.58h0Z"/>
    <path class="cls-24" d="M1077.05,411.45c6.78,1.31-3.55,12.23.76,13.03,3.39.63,5.78-4.44,6.93-6.72,1.36-2.68,2.33-5.1,2.62-8.07.34-3.51-.03-7.76-3.26-9.87-.51-.33-2.33.55-2.05.73,2.7,1.76,3.3,5.13,3.23,8.14-.05,2.1-.34,4.18-1.15,6.12-.88,2.11-1.87,4.19-3.1,6.11-.47.74-.97,1.48-1.56,2.12-.2.21-.49.4-.66.63-.13.17-.64.23.24.04,1.03-.22.31.03.24-.22-.12-.43-.38-.65-.38-1.15,0-.57.19-1.14.37-1.68.43-1.28,1.01-2.5,1.49-3.75s1.02-2.71.79-4.06-1.44-2-2.71-2.24c-.48-.09-1.09.06-1.52.28-.16.09-.76.45-.27.55h0Z"/>
    <path class="cls-2" d="M978.22,417.73c7.81,1.37,24.07,9.9,26.93,14.01,0,0-9.68,9.9-27.78,6.73-18.1-3.17-20.34-15.16-20.34-15.16,0,0,11.25-7.32,21.2-5.58Z"/>
    <path class="cls-19" d="M998.47,426.56s-9.76-2.6-17.67-3.99c-7.91-1.38-17.96-2.25-17.96-2.25,0,0-.15-6.63,14.18-4.12,14.33,2.51,21.44,10.36,21.44,10.36Z"/>
    <path class="cls-9" d="M975.4,433.6c8.72.09,19.99-4.3,29.75-1.86,0,0-7.04,14.92-28.32,11.19-21.28-3.73-19.81-19.62-19.81-19.62,10.01,1.02,10.15,7.41,18.38,10.29Z"/>
    <path class="cls-9" d="M969.82,411.22c4.54.4,7.03,2.86,8.97,3.2,1.94.34,5.12-1.12,9.53.04,4.13,1.09,19.77,16.05,17.52,17.24-2.25,1.19-14.46-9.92-27.92-12.27-13.46-2.36-19.81,5.5-21.52,3.62-1.71-1.88,9.17-12.19,13.42-11.82Z"/>
    <path class="cls-10" d="M339.05,138.97c7.15-8.88,17.79-14.44,28.47-10.83.85-21.25,22.19-32.48,43.45-31.75,10.89.87,21.78,6.48,32.29,3.52,6.56-1.84,11.72-6.56,17.47-10.42,24.03-15.59,58.86,6.43,77.04,28.6,18.17,22.16,11.88,45.22.25,71.38-5.4,12.17-5.08,18.99-7.33,32.21-2.12,12.47-11.17,35.33-12.09,47.79-.92,12.46,17.75,26.73,5.1,26.93l-135.98-24.72c-20.61,2.74-33.22-4.23-42.52-22.83-6.03-12.61-3.73-13.03-3.75-26.98-.48-18.27-18.09-33.08-15.86-51.22,1.04-11.42,6.86-22.34,13.49-31.69Z"/>
    <path class="cls-26" d="M322.09,137.15s48.84-20.52,109.53-9.92c60.69,10.6,88.17,49.91,97.16,77.44,8.99,27.52-4.16,55.04-4.16,55.04,0,0,15.02,5.1,28.62-49.25,19.83-79.23-59.06-132.7-78.84-133.67-19.78-.97-119.54-27.73-152.31,60.36Z"/>
    <path class="cls-17" d="M366.18,271.91s.16,56.06-20.42,81.07c-3.21,3.9-38.18,21.98-38.18,21.98l48.08,22.04c24.41,7.33,86.17,35.75,110.67,28.71l15.12-35.67s-25.47-14.58-26.31-20.47c-.85-5.89,6.49-49.58,6.49-49.58"/>
    <path class="cls-28" d="M455.67,366.07s-10.09-2.38-16.98-4.85c-6.89-2.47-18.96-2.88-49.43-33.25,0,0,7.12,35.23,47.98,45.5,0,0,10.54,2.98,17.68,1.76l.75-9.17Z"/>
    <path class="cls-17" d="M506.59,158.45c.13.13.28.26.42.39-.14-.25-.27-.52-.36-.77l-.06.38ZM523.64,164.72c.22.28.47.56.73.84l.05-.32s-.72-.9-.78-.52ZM385.19,323.72c13.92,19.36,33.19,39.91,70.32,44.55,9.36,1.17,18.39,1.36,26.71-9.14,8.41-10.62,15.35-14.38,24.23-24.06,8.52-9.29,12.55-15.26,17.45-26.83,5.07-11.97,5.53-15.26,6.06-27.9.24-5.65,1.1-14.12,2.32-19.4,1.4-6.09,7.86-29.95,10.55-44.12,2.69-14.17-4.5-42.79-4.5-42.79-.22-3.98-5.84-2.77-7.45-6.18l-1.68-.27s.78.52.59,1.67c-2.07-.66-4.01-2.16-5.43-3.69v.06c-2.71.75-5.04-.8-6.83-3.06-.06.39.23,1.22.65,1.29-2.58-.02-4.91-1.57-6.34-3.38-.06.39.24,1.22.18,1.61-1.85-.65-3.6-1.94-5.02-3.24.3.57,10,.61,9.96.87-2.57-.02.17,1.28-1.62-.98l-1.85-1.76c-2.16.05-2.28,1.33-3.71-.48.36.45-.48-4.42-.54-4.04-2.52-.4-1.8-.46-3.72-1.95-.06.38-7.25,1.41-7.31,1.79-2.09-.33-1.85,1.68-3.28-.13.36.45,1.77-1.37,2.13-.92-2.57-.02-3.78,1.45-5.57-.81.36.45-7.62-5.54-7.62-5.54-2.58-.02-2.28.84-4.13-1.03.72.9-11.49-2.57-11.2-1.73-2.09-.33,2.78,8.32,1.29,6.9-.06.39-4.64-1.93-4.64-1.93-2.16.05.68,2.48-.75.67-.06.38.17,1.61.6,1.67-2.7.75-5.51-.48-7.78-2.43.72.9,1.01,1.74,1.37,2.19-2.1-.34-3.83-.22-5.68-2.09-.06.38.59,1.67,1.01,1.74-2.22.43-4.67-.35-6.58-1.84-.06.38.65,1.29,1.01,1.74-1.73.12-3.41-.15-4.9-1.57l1.01,1.74c-1.68-.27-3.06.3-5.45-.87-.06.38.72.9.66,1.29-1.26-.2-2.94-.47-4.13-1.05-.06.39,1.07,1.35.65,1.29-1.68-.27-3.06.3-5.03-.8.36.45.65,1.29,1.01,1.74-1.68-.27-3.41-.15-4.97-1.19-.06.39.23,1.22.59,1.67-1.68-.27-3.06.3-5.03-.8-.06.38.65,1.29,1.01,1.74-1.68-.27-3.42-.15-5.03-.8-.06.39.72.91,1.07,1.36-1.68-.27-3.41-.15-5.39-1.25-.12.77.23,1.22.17,1.6-1.26-.2-2.03-.72-3.29-.92l-2.22.43c-7.1,6.76-28.13-2.97-28.13-2.97-14.65,8.31-5.73,64.25-6.48,71.62-.75,7.38-5.22,8.75-5.22,8.75-1.67-3.03-5.5,4.53-6.26,1.25-.83-2.89.56-6.22-.26-9.12-2.79-6.76-11.48-6.17-16.7-3.06l-.97,1.14c-7.8,7.67-5.09,35.83-1.61,44.61-1.19,16.58,11.85,27.44,21.8,16.9l1.26,6.74"/>
    <g>
      <path class="cls-7" d="M476.42,295.73c-3.35,1.12-8-.01-10.81-2.43-.62-.54-2.99-.49-2.12.26,3.71,3.19,10.43,4.51,14.75,3.06.43-.15.41-.46-.06-.7-.49-.25-1.31-.35-1.77-.2"/>
      <path class="cls-7" d="M462.3,292.47c-1.92-1.31-4.17-2.2-6.46-2.75-.34-.08-.8-.02-1.08.16-.22.14-.3.37-.07.55.97.78,2.3,1.26,3.56,1.43.4.06.93.04,1.21-.26.26-.28-.09-.54-.4-.59-1.04-.15-2.07-.52-2.87-1.17-.39.24-.77.48-1.16.71,2.05.49,4.06,1.3,5.77,2.47.34.23.89.2,1.25.06.27-.11.59-.4.25-.64"/>
      <path class="cls-7" d="M453.02,291.28c-2.71-.5-5.72-2.19-6.73-4.44-1.53-3.4,1.13-7.96,4.84-9.38.4-.15.25-.46-.11-.6-.47-.18-1.08-.09-1.5.07-3.23,1.24-5.79,4.93-5.8,7.89-.01,2.76,2.29,5.06,5.42,6.36.93.39,1.94.71,2.95.9.41.07,1.17.07,1.42-.22.26-.29-.1-.49-.48-.56"/>
      <path class="cls-7" d="M481.62,295.15c-.1-.34.21-.49.42-.46.73.14,1.51.05,2.22-.35.19.33.38.66.58.99-1.5-.08-3.05.17-4.5.83-.29.13-.65-.04-.85-.27-.15-.17-.29-.54,0-.68"/>
      <path class="cls-7" d="M479.5,295.22c1.63-.74,3.36-.99,5.03-.91.24.01.54.19.68.44.11.2.1.43-.1.55"/>
      <path class="cls-7" d="M487.21,296.42c1.78.22,4.05-.63,5.24-2.53,1.8-2.86,1.16-6.71-.73-9.03-.21-.25-.03-.51.22-.55.33-.05.68.19.9.45,1.65,2.02,2.45,5,1.7,7.84-.7,2.65-2.69,4.26-4.93,4.71-.67.13-1.36.18-2.03.1-.27-.03-.73-.23-.81-.57-.08-.35.19-.45.44-.42"/>
    </g>
    <path d="M513.54,246.72c2.52-.83,5.36.63,6.67,2.22.31.37.84,1.45,1.04,3.05.26,2.05-.87,4.14-2.31,5.29-1.93,1.54-4.71,1.41-6.64.1-2.63-1.78-3.01-5.35-1.91-7.72.2-.43,1.12-2.26,3.15-2.93"/>
    <path d="M491.52,251.16s12.75-7.11,18.63-6.76c8.59.51,18.25,6.86,20.57,11.53,0,0-12.66-9.21-18.72-9.39-5.79-.17-20.49,4.62-20.49,4.62Z"/>
    <path d="M442.87,236.33c-2.13-1.58-5.93-1.84-7.67-.74-.41.26-1.52,1.01-2.21,2.47-.89,1.86-.46,4.2.55,5.74,1.35,2.06,4.03,2.81,6.28,2.16,3.05-.87,4.53-4.15,4.22-6.75-.06-.48.54-1.28-1.18-2.56"/>
    <path d="M456.58,244.9s-11.5-10.18-17.76-11.37c-9.14-1.74-20.96,1.89-24.63,5.81,0,0,15.72-5.61,22.12-4.22,6.12,1.33,20.27,9.78,20.27,9.78Z"/>
    <path class="cls-10" d="M539.49,236.71c.01-.07.03-.14.04-.21-.36-.73-.64-1.2-.7-1.3,0,0-2.17-3.67-6.75-7.13-3.16-2.38-12.65-7.33-26.23-11.72-.7,1.58-1.4,3.18-2.1,4.77-.53,1.21-1.06,2.43-1.59,3.64,4.94.98,9.08,2.04,12.18,2.9,6.54,1.81,9.88,2.77,13.21,4.9,3.49,2.23,6.1,4.91,7.11,5.96.79.82,2.08,2.03,2.67,2.72,0,0,1.66-2.03,2.16-4.54Z"/>
    <path class="cls-10" d="M473.01,207.84c-.01,1.73-.03,3.47-.05,5.21-.02,1.33-.03,2.65-.06,3.97-5.87-1.13-10.89-1.87-14.69-2.35-8.02-1.03-12.12-1.53-16.79-.95-4.9.61-9.06,1.98-10.68,2.52-2.27.76-3.8,1.24-5.62,2.23-3.96,2.15-5.58,4.57-6.23,4.36-.59-.19.39-2.33.49-2.55,2.49-5.37,8.03-8.54,8.45-8.79,0,0,4.16-2.46,10.85-3.73,4.61-.88,17.38-1.49,34.32.07"/>
    <path class="cls-28" d="M364.14,252.48c-1.69-5.3-3.62-10.59-6.33-15.47-1.32-2.37-2.83-4.76-4.84-6.62-.77-.72-1.7-1.47-2.73-1.77-1.49-.44-2.43.74-3.16,1.85-2.73,4.09-3.24,9.22-2.7,14,.07.63,2.26.17,2.17-.58-.42-3.79-.18-7.69,1.35-11.22.4-.94.89-1.83,1.5-2.65.17-.23.34-.44.52-.66.09-.11.33-.34.12-.14-.51.14-1.02.27-1.54.41.19.02-.01-.01,0,0,.16.09.36.13.52.21.68.32,1.29.81,1.88,1.35,2.92,2.68,4.87,6.4,6.52,9.94,1.8,3.87,3.25,7.89,4.54,11.95.22.68,2.38.07,2.17-.58h0Z"/>
    <path class="cls-28" d="M359.8,253.6c-7.13-1.24-4.3,9.01-5.32,12.75-.04.16-.23.43-.24.59,0-.01-.12.13-.12.13-.1-.18.64-.08.65-.09-.01.02-.56-1.11-.65-1.4-.72-2.21-.94-4.61-1.08-6.91-.18-2.83-.16-5.33.48-8.07.7-2.99,2.06-7.55,5.41-8.52,1.34-.38.92-1.99-.43-1.6-3.55,1.02-5.44,4.48-6.51,7.77-.78,2.39-1.32,4.87-1.28,7.38.04,2.8.2,5.64.72,8.4.25,1.33.57,3.56,1.86,4.35,1.17.72,2.57-.13,3.1-1.25s.51-2.62.51-3.89c0-1.86-.13-3.75.14-5.6.18-1.3.49-2.64,2.03-2.37,1.13.2,2.18-1.42.73-1.68h0Z"/>
    <path class="cls-28" d="M518.48,197.9s-18.36.66-33.15-.34c-14.79-1-28.65-9.64-28.65-9.64,0,0,16.91,6.85,28.6,7.7,11.69.86,33.2,2.28,33.2,2.28Z"/>
    <path class="cls-10" d="M531.68,156.28c-.17-.28.07.12,0,0-3.26-5.46-5.14-11.15-8.63-16.46-3.42-5.2-6.8-9.93-10.5-14.93-.22-.29-5.04-.81-5.26-1.1-.04-.06-.19-.24-.23-.31-.12-.16-.24-.31-.36-.47-.28-.36-.56-.72-.84-1.08-22.12-11.83-49.7-15.45-75.3-9.78-49.72,11.02-81.09,60.26-70.07,109.98.94,4.26-1.94,9.1,1.94,11.76,3.89,2.67,4.46,1.54,8.54-.83,3.91-2.63,7.17-6.12,9.51-10.22,12.15-19.21,17.25-50.93,14.25-73.46,2.36,4.4,21.4,1.54,25.33,4.6,15.57,12.11,38.01,9.31,50.12-6.26,1.49,2.6,3.2,5.07,5.1,7.39,17.38,21.22,41.33,32.76,63.1,20.47.8-.45-4.67-15.86-6.7-19.32Z"/>
    <path class="cls-5" d="M410.95,228.52l1.46,8.19c.62,6.28,3.44,18.96,5.04,22.54,2.26,5.01,34.21,11.47,41.08,8.71,6.87-2.77,13.1-20.67,15.41-24.69l12.78,2.6c.34,5.69,1.81,23.76,3.9,26.48,2.1,2.72,16.94,4.45,18.62,4.65,1.39.14,3.34.35,5.47.49,5.64.41,12.56.46,14.95-1.3,3.55-2.61,8.66-13.83,13.19-24.48l.73-1.67c.16-.4.34-.68.36-.8h0l.82-1.92c-17.26-11.56-41.82-13.65-58.2-4.95l.09.21-12.46-2.6c-12.81-11.51-36.61-20.23-55.16-15.98h0l-55.84,1.12-.87,4.81,48.63-1.41ZM492.41,270.78c-1.31-1.69-2.71-14.41-3.48-24.26,14.2-7.3,36.33-5.38,51.9,4l-.04.24c-2.44,5.71-8.91,20.9-12.4,23.47-4.13,3.03-33.64-.75-35.98-3.41v-.05ZM421.47,258.49c-3.07-9.55-5.27-19.36-6.58-29.3,16.66-4.82,43.29,3.12,55.85,14.1-3.35,7.38-8.13,20.43-13.05,22.4-7.08,2.85-34.81-4.04-36.22-7.2h0Z"/>
    <path class="cls-1" d="M335.77,229.54s-43.65-36.8-23.45-71.41c3.88-6.65,4.08-4.35,4.72-10.3,3.33-31.15-8.14-24.51,40.27-57.68,48.41-33.17,55.09-32.05,124.52-21.73,35.81,5.32,54.42,21.81,62.58,45.35,3.67,10.58,5.23,22.58,5.3,35.63,0,0-72.04-26.37-117.57-5.95-45.54,20.42-97.17,93.96-89.63,119.31,2.12,7.12-6.74-33.22-6.74-33.22Z"/>
    <path class="cls-26" d="M309.86,193.3s69.1-86.38,152.52-83.07c0,0-94.75-17.21-147.16,44.31-3.69,4.34-6.08,9.64-6.94,15.28l-.09.57c-.81,5.34-.7,10.78.33,16.09l1.33,6.83Z"/>
    <path class="cls-21" d="M638.16,675.06c-3-5.51,4.4,2.56,2.78-3.51-1.49-5.57-.56-17-.87-22.75-.62-11.28,3.5-4.52,6.16-15.48,3.89-16.01,13.41-13.05,23.77-26.19-19.65-27.28-113.82-175.99-128.92-189.37-9.95-8.82-20.92-16.25-31.15-19.74l-46.26-22.35,3.2,26.43c-17.95,29.1-39.45,19.16-28.73,48.52,7.64,20.92,17.09,32.04,29.79,50.34,26.57,38.29,26.49,73.66,53.6,111.57,13.7,19.15,68.96,54.48,89.68,66.56,10.08,5.88,24.76,11.72,38.89,13.52-.72-1.2-11.27-16.3-11.94-17.54Z"/>
    <path class="cls-21" d="M628.72,598.17c-6.5,9.39,4.98,32.31,1.24,43.09-3.58,10.32-5.56,9.41-5.89,20.35-.18,6.02,8.43,2.63,9.65,8.53,1.25,6.05-8.62-7.11-6.11-1.47.09.2,8.55,20.8,8.64,21,7.74,1.74,18.08,4.28,24.82,2.45,22.87-.43,68.02-18.06,69.55-20.08,50.67-22.63,127.01-34.7,162.81-54.07l12.05-24.19,1.23-18.86,7.63-30.11-2.23-7.1s-65.81,14.01-126.49,28.56c-51.85,12.43-137.21,20.29-137.21,20.29"/>
    <path class="cls-13" d="M961.51,604.16l-63.85-51.72-25.57,45.01-51.51,80.85c9.45,11.9,36.78,20.87,47.71,31.37,6.33,6.08,6.26,3.88,12.29,10.25,4.23-4.58,45.44-68.55,49-73.11,10.16-13.01,7.33-.83,31.93-42.65Z"/>
    <path class="cls-13" d="M927.75,653.23s-34.82,52.34-36.47,54.75c-10.27,15-24.24,33.75-42.47,44.11-24.48,13.92-45.61-1.56-57.26-33.09-12.89-34.87,53.82-53.09,53.82-53.09l82.39-12.69Z"/>
    <path class="cls-13" d="M809.93,749.45c-8.38-3.14-20.06-13.55-25.58-31.4-16.71-54.09-36.75-150.83-43.74-202.58l22.88-14.16,14.46,7.92,71.21,169.96"/>
    <path class="cls-16" d="M1248.94,715.38c-11.96,16.23-23.13,33.53-31.23,52.04-4.28,9.78-7.13,19.98-8.74,30.54-1.75,11.53-2.23,23.2-2.69,34.83-.62,15.91-1.02,31.83-1.39,47.74-.44,18.69-.82,37.38-1.19,56.07-.32,16.44-.63,32.88-.98,49.31-.03,1.64-.07,3.28-.11,4.92-.02,1.03,2.17.64,2.19-.22.35-15.88.65-31.77.96-47.65.36-18.56.73-37.13,1.16-55.69.38-16.54.78-33.09,1.37-49.62.76-21.38,1.24-43.44,8.87-63.7,3.57-9.48,8.27-18.52,13.34-27.27,5.1-8.8,10.65-17.34,16.52-25.65,1.31-1.85,2.63-3.68,3.97-5.5.33-.44-.28-.74-.63-.79-.54-.07-1.11.21-1.42.63h0Z"/>
    <path class="cls-16" d="M1315.48,715.64c-11.96,16.23-23.13,33.53-31.23,52.04-4.32,9.87-7.15,20.17-8.74,30.82-1.7,11.41-2.18,22.96-2.63,34.48-.62,15.91-1.02,31.83-1.39,47.74-.44,18.69-.82,37.38-1.19,56.07-.32,16.44-.63,32.88-.98,49.31-.03,1.64-.07,3.28-.11,4.92,0,.36,2.16.07,2.17-.58.35-15.88.65-31.77.96-47.65.36-18.56.73-37.13,1.16-55.69.38-16.54.78-33.09,1.37-49.62.76-21.43,1.27-43.47,8.92-63.78,3.57-9.48,8.27-18.52,13.34-27.27,5.1-8.8,10.65-17.34,16.52-25.65,1.31-1.85,2.63-3.68,3.97-5.5.24-.33-.8-.25-.88-.23-.44.07-.99.23-1.27.61h0Z"/>
    <path class="cls-16" d="M63.67,715.94c11.95,16.22,23.14,33.52,31.22,52.03,4.28,9.81,7.08,20.05,8.66,30.64,1.71,11.48,2.18,23.09,2.62,34.68.61,15.86,1.01,31.72,1.38,47.59.44,18.57.82,37.13,1.18,55.7.32,16.44.63,32.88.98,49.31.03,1.64.07,3.28.11,4.92.03,1.16,2.23.84,2.2-.16-.35-15.88-.65-31.77-.96-47.65-.36-18.69-.74-37.37-1.16-56.06-.38-16.56-.78-33.12-1.37-49.67-.77-21.46-1.31-43.53-9.01-63.86-3.56-9.41-8.23-18.41-13.26-27.11-5.13-8.87-10.71-17.47-16.63-25.83-1.31-1.85-2.63-3.68-3.97-5.5-.6-.81-2.66.05-1.99.97h0Z"/>
    <path class="cls-16" d="M-2.93,715.93c11.96,16.23,23.14,33.52,31.22,52.04,4.28,9.81,7.08,20.05,8.66,30.64,1.71,11.48,2.18,23.1,2.62,34.69.61,15.86,1.01,31.72,1.38,47.59.44,18.57.82,37.13,1.18,55.7.32,16.44.63,32.88.98,49.31.03,1.64.07,3.28.11,4.92.02,1.1,2.22.74,2.2-.19-.35-15.88-.65-31.77-.96-47.65-.36-18.69-.74-37.37-1.16-56.06-.38-16.56-.78-33.12-1.37-49.67-.77-21.46-1.31-43.52-9-63.84-3.56-9.41-8.23-18.4-13.26-27.09-5.13-8.87-10.71-17.47-16.63-25.83-1.31-1.85-2.63-3.68-3.97-5.5-.56-.76-2.64.07-1.99.94h0Z"/>
    <path class="cls-12" d="M1156.77,538.47c-4.61-10.79-31.63-32.07-42.64-37.47-28.68-14.01-46.91-25.21-46.91-25.21,0,0-34.54,42.25-78.7,34-44.15-8.24-21.67-31.15-21.67-31.15l-11.84.03c-20.8,7.3-38.31,13.92-54.62,28.88-13.88,12.73-16.08,19.4-26.57,40.65-5.33,10.79-8.07,28.15-23.4,59.94-1.5,3.12-13.37,27.45-13.53,28.08-1.21,4.7,7.55,15.46,27.14,22.43,9.92,3.53,19.24,3.61,23.56,5.76.47,1.04,1.95,73.94,2,75.32.84,21.93.37,40.16-1.69,64.26-.05.54-5.66,32.36-5.71,32.9-2.59,6.01-2.95,27.6-1.11,27.65,28.85.67,51.54,2.24,82.75,1.42,14.52-.38,24.61-.76,39.02.95,2.92.35,12.94-8,13.12-4.89.71,11.78,7.01-4.04,9.69-3.8,14.73,1.28,44,22.34,58.67,24.16,15.54,1.92,44.03,1.66,58.88,6.52,2.86.93,8.32-4.1,11.38-2.75,7.83-35.38-13.3-110.84-12.79-116.86,4.26-51.66-2.48-5.19-.72-100.55l4.77-9.89,23.09-19.96c1.47-59.2-.67-73.45-12.18-100.41Z"/>
    <g>
      <path class="cls-12" d="M1059.06,470.87s-20.56,41.44-64.47,38.04c-43.92-3.41-30.41-26.54-30.41-26.54l3.79-10.11-12.79,5.93s-5.07,15.7.06,26.13c5.14,10.43,24.93,17.6,53.11,15.53,16.53-1.22,30.1-6.5,43.39-18.38,15.92-14.22,19.57-23.72,19.57-23.72l-12.24-6.89Z"/>
      <path class="cls-6" d="M1058.04,470.84c-2.43,4.88-5.82,9.41-9.33,13.54-7.69,9.04-17.42,16.5-28.62,20.6-7.09,2.6-14.68,3.71-22.22,3.45-7.85-.27-16.23-1.37-23.48-4.56-3.87-1.7-7.7-4.24-9.68-8.11-1.29-2.52-1.66-5.39-1.23-8.17.26-1.71.85-3.5,1.52-4.86,1.39-2.82,2.29-5.95,3.4-8.89.21-.57.43-1.14.64-1.71.26-.71-1.29-.45-1.52-.34-3.5,1.62-6.99,3.24-10.49,4.86-.85.39-2.54.84-2.98,1.74-.68,1.41-.88,3.29-1.19,4.8-1.29,6.46-1.81,13.73.64,19.98,1.77,4.52,5.41,7.79,9.53,10.19,5.49,3.19,11.77,4.97,17.98,6.06,8.19,1.44,16.56,1.67,24.85,1.2,8.03-.45,15.98-1.79,23.53-4.6s14.42-7.02,20.6-12.12c6.15-5.08,11.89-10.86,16.74-17.2,2.04-2.66,4.03-5.49,5.41-8.56.08-.17.16-.34.22-.52s-.1-.34-.23-.41c-4.08-2.3-8.16-4.59-12.24-6.89-.64-.36-2.63.56-1.72,1.08,4.08,2.3,8.16,4.59,12.24,6.89l-.23-.41c-.13.35-.23.53-.46,1-.54,1.08-1.16,2.13-1.81,3.15-2.59,4.1-5.71,7.86-9.02,11.4-9.52,10.16-20.68,18.89-34.19,22.92-6.54,1.95-13.31,2.81-20.12,3.1-7.01.3-14.08.07-21.01-1.04-5.43-.87-10.85-2.24-15.85-4.58-3.67-1.71-7.21-3.98-9.75-7.19-3.3-4.16-4.1-9.81-3.97-14.97.11-4.35.81-8.74,2.02-12.93.07-.23.13-.47.21-.7l-.65.6c4.26-1.98,8.53-3.95,12.79-5.93l-1.52-.34c-.73,1.96-1.47,3.91-2.2,5.87-.43,1.16-.87,2.31-1.3,3.47-.09.25-.17.5-.28.74-.04.09.11-.24.03-.09-.65,1.36-1.22,2.72-1.57,4.19-.63,2.69-.62,5.58.31,8.2,1.35,3.85,4.44,6.71,7.9,8.71,6.3,3.64,13.85,4.97,20.99,5.74,8.16.89,16.34.59,24.31-1.46,12.55-3.24,23.71-10.49,32.58-19.85,4.7-4.97,9.15-10.59,12.29-16.71.05-.1.1-.2.15-.3.47-.95-1.7-.73-2.03-.07Z"/>
    </g>
    <path class="cls-24" d="M853.04,871.42c.56,0,1.63-.2,1.92-.77.29-.57-.25-.76-.76-.76-.56,0-1.63.2-1.92.77s.25.76.76.76h0Z"/>
    <path class="cls-13" d="M1160.85,612.05l-81.66-9.11,2.75,51.7.25,95.86c14.38,4.93,42.22-2.27,57.09.67,8.61,1.7,3.39-.56,11.91,1.56,1.09-6.14,5.25-81.79,5.79-87.55,1.54-16.43,5.73-4.65,3.88-53.13Z"/>
    <path class="cls-13" d="M1158.89,671.58s-4.05,62.41-4.14,65.33c-.55,18.17-1.21,41.6-10.97,60.17-13.11,24.93-37.26,23.62-64.09,3.36-29.67-22.41,16.68-73.73,16.68-73.73l62.53-55.13Z"/>
    <path class="cls-13" d="M1135.96,807.67c-5.53,7.04-18.44,10.04-37.12,9.88-56.61-.47-153.58-9.29-205.02-18.32l11.71-17.96-6.33-19.52,183.55-16.33"/>
    <path class="cls-12" d="M1165.44,580.02s3.73,58.31,3.02,95.46c0,0-57.04,9.57-95.39-1.53-40.64-11.77-14.02-105.79-14.02-105.79l106.38,11.86Z"/>
    <g>
      <path class="cls-12" d="M1106.02,531.57c2.87-.15-25.31-2.03-33.12,56.32-5.07,37.88.29,71.42-1.12,96.22t9.95,2.28s58.75,9.85,86.84-1.91l.09-10.11s-62.86,7.01-93.48-3.54"/>
      <path class="cls-6" d="M1105.88,532.21c.53-.03,2.03-.62,1.2-1.21-.3-.21-.91-.11-1.24-.07-1.42.14-2.81.55-4.15,1.04-5.53,2.02-10.14,6.06-13.78,10.6-7.2,8.99-11.1,20.4-13.62,31.5-4.17,18.34-4.93,37.43-4.67,56.17.22,16.29,1.63,32.59,1.27,48.88-.04,1.71-.1,3.42-.2,5.13-.02.28.17.43.43.49,3.5.8,7,1.81,10.54,2.37,3.98.64,7.99,1.15,12,1.62,16.18,1.88,32.62,2.9,48.89,1.69,8.96-.66,18.13-1.99,26.47-5.45.21-.09.65-.33.65-.61.03-3.37.06-6.74.09-10.11,0-.49-.56-.55-.95-.51-7.62.85-15.29,1.35-22.94,1.74-15.35.77-30.84.92-46.15-.59-8.06-.79-16.19-2.04-23.87-4.67-.73-.25-2.54.81-1.32,1.23,6.75,2.31,13.85,3.52,20.92,4.36,8,.95,16.05,1.34,24.1,1.46,13.62.2,27.25-.38,40.82-1.5,2.72-.22,5.44-.46,8.16-.76-.32-.17-.63-.34-.95-.51-.03,3.37-.06,6.74-.09,10.11l.65-.61c-7.25,3.01-15.18,4.25-22.96,4.95-8.59.78-17.23.8-25.84.46-11.96-.47-23.94-1.6-35.77-3.44-3.75-.58-7.43-1.62-11.13-2.46l.43.49c.82-14.72-.38-29.51-.84-44.22-.57-18.17-.36-36.43,2.31-54.44,1.88-12.68,5-25.71,11.6-36.84,3.38-5.69,7.82-11.03,13.7-14.24,1.49-.82,2.95-1.41,4.54-1.8.14-.03.28-.07.42-.1.38-.09,0,0,.16-.04.22-.04.44-.07.65-.1.14-.02.29-.02.43-.04-.7.11-.12-.02-.12,0,0-.04-.24.04-.27-.06-.05-.2.5-1.29.83-1.2-.03,0-.1,0-.13,0-1.1.06-1.78,1.35-.28,1.27h0Z"/>
    </g>
    <path class="cls-24" d="M1081.92,744.93c5.89,2.14,11.71,4.59,17.09,7.83,5.11,3.08,10.1,7.06,13.06,12.35,1.59,2.85,2.49,6,2.64,9.26.03.63,2.21.21,2.17-.58-.61-12.84-12.55-20.77-23.08-25.71-3.31-1.55-6.71-2.9-10.14-4.15-.47-.17-1.12-.06-1.53.22-.23.16-.71.61-.21.79h0Z"/>
    <path class="cls-13" d="M819.47,749.05l13.43-9.47c2.28-1.59,4.95-2.53,7.73-2.72l27.08-1.73,29.59,23.69,8.61,3.63,2.54,38.04-18.32-1.07s-40.36,9.38-44.28,7.1c-3.92-2.28-11.04-8.91-11.04-8.91,0,0-21.71-5.53-23.92-7.26-8.36-6.59-5.28-8.48-5.28-8.48l-3.75-1.46c-.59,1.33-6.44-6.96-6.16-11.33.16-2.54-.58-2.48-.58-2.48-3.7-1.82-6.41-5.19-7.39-9.2-.55-2.55,11.11-6.6,11.11-6.6l24.98.73-4.35-2.48Z"/>
    <path class="cls-24" d="M830.54,767.54c-2.71.88-5.7,1.02-8.53,1.23-2.98.22-5.98.29-8.97.21-2.85-.08-5.7-.31-8.53-.67-2.92-.37-5.84-.74-8.6-1.79-.61-.23-1.5.04-2.04.33-.32.18-.94.66-.32.9,2.92,1.11,6.03,1.5,9.12,1.89,3.26.41,6.54.64,9.83.7,3.26.06,6.53-.05,9.77-.34,3.18-.29,6.28-.6,9.33-1.59.37-.12,1.12-.49.83-.95-.27-.44-1.58-.01-1.89.09h0Z"/>
    <path class="cls-24" d="M838.52,780.9c-2.74.89-5.61,1.1-8.46,1.34-3.07.25-6.15.34-9.23.26-2.96-.07-5.92-.29-8.87-.66s-5.9-.74-8.69-1.81c-1.04-.4-3.38,1.1-1.73,1.74,2.84,1.09,5.87,1.46,8.87,1.85,3.26.42,6.54.66,9.83.73,3.16.06,6.33-.03,9.49-.29,3.11-.26,6.26-.52,9.25-1.48.48-.16,1.4-.56,1.22-1.23-.17-.63-1.21-.6-1.67-.45h0Z"/>
    <path class="cls-24" d="M843.28,751.02c2.51-.25,5.05-.31,7.57-.15.64.04,1.47.12,2.19.24.14.02.27.05.41.08.1.02.43.14.1.02.05.02.14.03.18.06.1.09-.09-.06-.1-.07.07.06-.08-.19-.06-.11.22.91,3.13.16,2.9-.78-.11-.45-.95-.54-1.3-.61-.87-.17-1.75-.25-2.63-.31-2.94-.22-5.9-.13-8.83.17-.49.05-1.55.35-1.66.93-.12.62.88.57,1.23.53h0Z"/>
    <path class="cls-29" d="M189.29,782.93s-72.5,87.32-20.21,186.34c24.91,47.15,157.21,29.79,157.21,29.79l18.71-78.83v-159.03l-155.71,21.73Z"/>
    <path class="cls-21" d="M573.01,490.68c-1.83-22.42-15.16-48.97-32.56-64.86-7.29-6.66-9.77-11.13-18.31-15.91l-17.48-15.06c-.97-.29-15.45-8.03-16.45-8.26-2.13-.48-3.67-.45-4.58-1.78l-10.69-4.18-18.03-10.02c10.95,12.35,10.4,31.6-2.65,38.66-13.1,7.09-30.69,4.31-44.71,2.19-15.36-2.32-29.69-10.93-41.84-20.25-9.71-7.44-18.91-25.27-25.69-35.71-20.83,5.39-63.14,23.75-72.47,29.94-16.84,11.11-25.03,235.01-25.03,235.01,0,0-7.8,87.37-66.58,173.08-.39.56-9.45,16.4-9.7,17.05-.76,2.02,11.94,5.2,21.68,3.67,6.2-.97,24.46,2.4,30.25,4.8,11.79,4.9,21.89,4.53,34.35,7.04,16.95,3.41,34.03,6.31,51.25,8,16.05,1.58,32.96-.55,48.78,1.88l188.67,1.23s17.1-22.95-1.11-81.7c-1.58-9.39-4.15-32.38-5.34-41.87-.69-5.5-.91-4.31-.95-3.88.02-.32.06-1.4.08-4.23.03-4.87-1.2-3.99.96-8.36,20.47-41.39,5.88-26.84,5.97-27.43,1.71-10.34-14.28,2.83-11.38-7.24,0,0,5.51-6.83,16.32-16.95,3.31-3.1,12.6-16.08,16.48-42.77.03-14.77,4.31-28.16,4.41-42.93.16-23.78,8.26-45.43,6.32-69.17Z"/>
    <path class="cls-29" d="M667.38,951.38c-3.86,115.82-11.96,255.87-30.35,374.09,0,0-89.17,44.31-102.36,18.39,0,0-32.08-241.74-75.96-383.7-38.64-125.01-299.64-141.23-268.14-146.02,56.99-8.67,326.49-45.45,427.02,1.98,37.03,17.47,52.35,58.48,49.79,135.27Z"/>
    <path class="cls-29" d="M612.33,836.13s-16.33-12.81-39.02-6.77c2.13-11.85,2.1-18.79,2.1-18.79-2.69-2.21-17.39,1.08-20.34-1.2-12.32,6.6-26.84,2.04-38.02,10.69-13,10.06-11.15,2.72-22.55,14.85-10.98,11.69-21.17,24.34-30.16,37.91-2.55,3.84-39.11,7.77-41.44,11.78.41.04.07,23.05.48,23.09-33.1,62.54,18.91,155.1,15.67,266.34-2.85,97.67-3.11,111.63-8.35,163.51,15.62,23.48,136.93,12.48,136.93,12.48,15.2-150.7,44.7-513.88,44.7-513.88Z"/>
    <line class="cls-25" x1="468.06" y1="576.12" x2="467.93" y2="578"/>
    <path class="cls-21" d="M298.57,670.08c-6.38,4.73-12.8,6.94-19.49,11.12-.79.5-1.61.25-2.15-.28l2.24-50.42,60.87-275-65.02,19.41c-16.36,5.06-36.26,13.31-49.03,24.73-.79.71-1.57,1.42-2.34,2.15-9.96,9.43-16.94,20.85-24.16,32.48h0c-8.4,13.54-10.27,29.05-11.85,44.91-.52,5.26-1,10.81-1.66,16.94-4.92,46.35-5.41,92.67-9.68,139.08-2.16,23.45-2.13,68.31,5.64,91,6.26,18.27,17.57,31.33,37.27,36.95,2.03.58,27.23,2.18,29.34,2.7,37.12,9.17,202.63-4.66,202.63-4.66l-3.62-33.69-149.01-57.42Z"/>
    <path class="cls-3" d="M561.68,490.85c-2.39,2.8-4.21,6.24-5.66,9.59-2.65,6.13-3.91,12.86-3.31,19.53.48,5.41,1.58,10.77,2.56,16.11,1.33,7.23,2.65,14.46,3.68,21.74,2.44,17.16,3.5,34.82.33,51.95-2.49,13.45-7.17,27.54-16.45,37.9-2.58,2.88-5.52,5.35-8.48,7.83-2.22,1.86-4.53,3.79-6.03,6.3-.35.59-.67,1.21-.93,1.85-.24.59,1.89.35,2.16-.31,1.07-2.62,3.07-4.63,5.18-6.45,2.72-2.36,5.55-4.58,8.1-7.13,9.03-9.03,13.95-21.14,17.07-33.33,4.34-16.97,4.14-34.71,2.15-52.01-.89-7.71-2.14-15.36-3.52-22.99-1.08-5.97-2.29-11.93-3.16-17.95-.88-6.08-.81-12.02.89-17.99,1.42-5.01,3.74-9.89,6.91-14.03.17-.22.34-.44.51-.65.34-.4-.29-.53-.56-.55-.48-.02-1.12.19-1.44.57h0Z"/>
    <g>
      <path class="cls-12" d="M882.32,585.55c-1.67,26.53,4.28,53.01,3.87,79.59,0,0-26.16-4.32-38.7-11.41-12.54-7.09-14.99-15.47-14.99-15.47l7.51-10.5s2.77,17.72,39.12,22.45"/>
      <path class="cls-6" d="M881.23,585.7c-1.27,20.75,2,41.35,3.35,62,.38,5.9.6,11.82.52,17.74l1.76-.85c-9.87-1.63-19.81-3.94-29.24-7.3-6.95-2.47-13.57-5.9-18.73-11.29-1.74-1.82-3.31-3.84-4.47-6.08-.27-.51-.43-1.12-.73-1.61-.05-.09-.07-.21-.11-.31.07.2-.23.3.03.08.62-.52,1.1-1.54,1.57-2.19.83-1.16,1.66-2.32,2.49-3.48,1.11-1.55,2.21-3.1,3.32-4.64l-2.09.29c.37,2.31,1.82,4.59,3.19,6.41,4.15,5.53,10.49,9.17,16.84,11.62,6.26,2.41,12.87,3.81,19.51,4.68.48.06,1.18-.05,1.54-.41.28-.29.31-.64-.19-.7-10.01-1.32-20.51-3.78-28.92-9.65-3.75-2.62-7.25-6.05-9.07-10.32-.3-.7-.59-1.45-.72-2.21s-1.86-.04-2.09.29c-2.34,3.28-4.69,6.55-7.03,9.83-.6.84-.59,1.02-.17,1.97.82,1.87,1.98,3.61,3.26,5.2,9.1,11.35,24.47,15.28,38.01,18.41,4.12.96,8.28,1.83,12.45,2.53.53.09,1.75-.15,1.76-.85.29-20.64-3.18-41.06-4-61.64-.24-5.94-.24-11.88.12-17.81.05-.81-2.13-.37-2.17.3h0Z"/>
    </g>
    <path class="cls-24" d="M832.13,738.69c2.82-1.53,5.61-3.18,8.5-4.56,3.33-1.59,6.91-.9,10.45-.57,3.31.31,6.62.62,9.93.92,2.84.26,6.37.07,8.73,1.92.44.35,2.31-.52,2.05-.72-2.6-2.04-6.61-1.79-9.73-2.08-4.06-.38-8.11-.76-12.17-1.13-3.3-.3-6.41-.3-9.53.99-3.42,1.42-6.64,3.45-9.89,5.21-.41.22-.22.36.11.42.46.09,1.14-.2,1.54-.41h0Z"/>
    <path class="cls-24" d="M842.81,714.3c5.73-9.23,7.32-20.51,6.46-31.2-.4-4.91-1.3-9.79-2.79-14.49-1.02-3.22-2.51-6.11-3.94-9.14-1.31-2.78-2.61-5.56-3.92-8.35-.25-.54-2.35.2-2.17.58,1.16,2.47,2.32,4.93,3.47,7.4,1.31,2.79,2.77,5.46,3.81,8.37,3.38,9.51,4.45,20.14,2.97,30.12-.89,6.02-2.81,11.89-6.03,17.08-.21.34.78.24.87.22.4-.07,1.04-.22,1.27-.6h0Z"/>
    <path class="cls-29" d="M645.4,857.22c17.53,20.44,6.95,48.19,15.22,73.01-.79,4.58-1.44,9.19-1.88,13.82l-.02.02c-107.69,34.69-443.6,108.84-486.55-3.93-32.26-84.7,30.5-115.68,30.5-115.68,0,0,187.03-18.13,326.51-19,28.9-.18,57.17,7.45,80.71,22.08,12.3,7.65,25.03,17.46,35.51,29.67Z"/>
    <path class="cls-17" d="M751.12,932.59c8.46-6.85,14.7-11.03,25.29-18.27,33.85,17.95,63.34,42.26,85.89,72.85l-8.61,3.45s17.78,49.63,22.8,76.78c5.02,27.15,8.9,205.19,8.9,205.19l-49.21,3.23s-61.25-172.44-85.19-254.46c-7.04-24.17-20.02-72.47.13-88.76Z"/>
    <path class="cls-15" d="M1119.66,857.23c-40.91-8.01-82.72-10.02-123.98-7.13-20.67,1.45-43.73,10.9-64.44,9.24-20.62-1.65-28.86-1.19-49.58-1.36l-96.81,43.14c-12.05,4.2-25.94,22.71-26.02,24.97,15.64,0,29.95,2.63,37.92,8.04,29.89,20.3,31.05,33.93,50.99,62.23l1.85,2.02s245.7,20.15,289.07-20.86c25.6-24.21,27.73-82.94,16.41-111.38-15.91-9.65-17-5.3-35.41-8.91Z"/>
    <path class="cls-24" d="M853.94,1212.37c-.64-1.94-1.28-3.88-1.91-5.82-1.75-5.35-3.5-10.7-5.25-16.05-2.63-8.05-5.24-16.11-7.85-24.16-3.25-10.05-6.5-20.1-9.72-30.15-3.64-11.33-7.26-22.67-10.86-34.02-3.78-11.92-7.54-23.84-11.27-35.77-3.68-11.79-7.34-23.59-10.95-35.4-3.35-10.96-6.66-21.92-9.89-32.91-1.74-5.89-3.52-11.76-5.37-17.61-1.71-5.42-3.45-10.91-4.15-16.57-.61-4.91-.22-9.93,1.84-14.48,2.2-4.84,6.15-9.4,10.52-12.4,1.32-.91,2.65-1.82,3.97-2.73,1.21-.83-.65-1.15-1.36-.67-3.58,2.45-6.97,4.84-9.93,8.07-3.57,3.91-6.27,8.55-7.15,13.81-.84,5-.12,10.11,1.04,14.99,1.43,6.01,3.48,11.86,5.31,17.75,3.43,11.04,6.57,22.17,9.92,33.23,3.54,11.7,7.14,23.38,10.77,35.05,3.76,12.08,7.55,24.15,11.36,36.22,3.68,11.64,7.38,23.26,11.1,34.89,3.39,10.57,6.79,21.14,10.2,31.71,2.81,8.7,5.63,17.39,8.46,26.08,2.01,6.17,4.03,12.35,6.05,18.52.94,2.88,1.81,5.8,2.84,8.64.04.12.08.24.12.36.26.77,2.42.16,2.17-.58h0Z"/>
    <path class="cls-27" d="M794.84,932.13c-1.33-2.29-2.72-4.55-3.99-6.88s-.31-4.95,1.07-6.97c1.57-2.3,3.6-3.61,6.24-4.29,10.23-2.63,20.25-6.04,30.14-9.71,19.79-7.33,39.28-15.74,58.09-25.3,3.63-1.84,7.24-3.74,10.76-5.78,2.12-1.22,4.31-2.47,6.2-4.04,1.13-.94-.64-1.47-1.4-.84-1.66,1.38-3.56,2.49-5.41,3.58-3.02,1.78-6.12,3.42-9.23,5.03-8.78,4.53-17.75,8.72-26.79,12.72-10.47,4.64-21.07,9.01-31.8,13.02-10.14,3.79-20.42,7.31-30.9,10-2.8.72-5.12,1.96-7.01,4.2-1.71,2.04-3.2,4.86-2.64,7.61.3,1.48,1.45,2.97,2.19,4.26.83,1.43,1.66,2.86,2.49,4.29.43.74,2.53,0,2-.91h0Z"/>
    <path class="cls-17" d="M789.95,936.6c8.46-6.85,16.49-11.03,27.08-18.27,33.85,17.95,63.34,42.26,85.89,72.85l-8.61,3.45s17.78,49.63,22.8,76.78c5.02,27.15,8.9,205.19,8.9,205.19l-49.21,3.23s-67.2-205.68-91.15-287.71c-7.04-24.17-15.85-39.22,4.29-55.51Z"/>
    <path class="cls-15" d="M1158.77,890.76s1.4,74.65-18.08,83.96c-50.95,24.37-242.72,26.63-242.72,26.63l-13.17-20.34c-11.53-17.81-36.69-37.69-53.47-49.88l-37.96-11.89,183.39-42.97h126.6l55.4,14.49Z"/>
    <path class="cls-7" d="M848.08,749.9l-27.51-32.83c-2.02-2.42-5.08-3.74-8.23-3.53l-50.02,3.2c-2.01.13-3.53,1.86-3.4,3.87h0c.06.87.43,1.69,1.03,2.32l30.79,31.42h0l57.33-4.45Z"/>
    <path class="cls-20" d="M842.79,750.98c-.27-.21-.51-.44-.72-.7l-1.87-2.11-7.11-7.88-10.28-11.76-6.04-6.95c-1.06-1.14-2.41-1.96-3.91-2.38-.77-.21-1.56-.32-2.35-.32-.78.05-1.73.11-2.49.16l-34.65,2.07-10.52.53-2.86.18c-.34.03-.68.02-1.01-.02.32-.1.66-.15,1-.15l2.85-.27,10.5-.83,34.63-2.33c.87-.06,1.73-.11,2.56-.16.87,0,1.74.12,2.58.36,1.65.47,3.14,1.39,4.31,2.65l6.03,7.01,10.13,11.89c2.8,3.3,5.1,6.06,6.78,8.07.74.89,1.32,1.65,1.88,2.21.22.22.41.46.57.73Z"/>
    <path class="cls-3" d="M656.13,585.84c-9.97,8.83-16.22,21.52-17.23,34.8-.29,3.77-.13,7.56.43,11.29.15,1.02,2.33.48,2.17-.58-2.46-16.29,3.72-33.56,16.07-44.49,1.1-.97-.62-1.76-1.45-1.02h0Z"/>
    <path class="cls-9" d="M465.19,308.68c-11.68-2.39-30.4-6.25-30.4-6.25,0,0-2.02,28.81,25.06,34.35,27.08,5.54,33.18-23.33,33.18-23.33,0,0-16.16-2.38-27.84-4.76Z"/>
    <path class="cls-4" d="M465.3,308.7c-5.55-1.14-27.83-5.2-27.83-5.2,0,0,5.15,19.48,25.23,23.59,21.78,4.45,26.42-12.66,26.42-12.66l-23.82-5.72Z"/>
    <path class="cls-11" d="M465.35,309.73c-5.55-1.14-22.35-4.08-22.35-4.08,0,0,4.74,6.79,21.4,10.2,16.66,3.41,23.25-.85,23.25-.85l-22.3-5.27Z"/>
    <path class="cls-9" d="M493.93,312.48q-.56-.29-3.29-1.15c-4.56-1.42-6.13-3.61-9.44-4.6-5.65-1.69-9.84.2-12.34-.31-2.5-.51-5.62-3.9-11.48-4.56-3.43-.39-12.19.95-16.93.47-2.85-.29-4.94-.43-5.57-.38-.88.07-1.52,4.08,29.92,10.5,31.45,6.43,29.91.43,29.13.03Z"/>
    <path class="cls-17" d="M780.79,427.65c-4.24.39-7.88,3.19-9.34,7.19,0,0-12.27-8.29-18.24,4.38,0,0-12.94-4.08-16.06,7.98-7.43,1.27-13.03,7.45-13.55,14.97-1.01,13.17,17.17,53.73,17.17,53.73l35.92,6.53s16.81-43.91,16.39-59.43c-.03-2.9-1.99-18.77-3-27.08-.57-4.7-4.55-8.24-9.29-8.27Z"/>
    <path class="cls-28" d="M777.84,512.75c-5.37,2.15-11.26,2.62-16.92,1.49-1.09-.22-2.19,1.33-.74,1.61,6.25,1.25,12.73.58,18.64-1.78.43-.17.8-.71.51-1.14-.32-.47-1.04-.35-1.48-.18h0Z"/>
    <path class="cls-28" d="M790.72,458.71c-1.36-2.66-2.73-5.32-4.09-7.98-1.15-2.24-2.21-4.3-4.77-5.11s-5.45-.86-8.1-.97c-2.86-.12-5.73-.07-8.59.1-3.02.18-6.03.49-9.03.87-2.19.28-5.05.25-6.81,1.8-1.4,1.23-1.58,3.24-.85,4.89.85,1.94,2.76,2.99,4.73,3.53,2.84.78,5.89.96,8.81,1.35,3.44.46,6.88.93,10.31,1.39l-.32-1.18c-3.4,2.02-7.2,3.18-10.17,5.91-2.52,2.32-4.29,5.38-5.38,8.61-2.77,8.15-1,16.82.72,24.98.2.92,2.37.37,2.17-.58-1.65-7.79-3.39-16.06-.94-23.87,1.01-3.22,2.72-6.3,5.22-8.58,2.81-2.56,6.56-3.66,9.78-5.58.68-.41.36-1.09-.32-1.18-4.99-.67-9.99-1.35-14.98-2.02-2.07-.28-4.36-.47-6.11-1.74-1.36-.99-2.46-3.3-1.38-4.88.61-.89,1.88-.94,2.84-1.07,1.3-.18,2.59-.35,3.89-.5,2.44-.29,4.88-.52,7.33-.67,4.91-.3,10.14-.45,14.99.53,2.84.58,3.84,2.73,5.05,5.1,1.33,2.59,2.65,5.17,3.98,7.76.4.78,2.49.03,2-.92h0Z"/>
    <path class="cls-28" d="M770.75,436.21c.78,2.59,1.11,5.32.93,8.02-.03.45.61.41.91.37.29-.04,1.22-.26,1.25-.68.19-2.8-.11-5.6-.92-8.29-.2-.66-2.37-.06-2.17.58h0Z"/>
    <path class="cls-28" d="M755.91,455.84c-.19,1.61-.63,3.15-.99,4.72-.37,1.61-.43,3.27-.78,4.88-.33,1.5-1.01,3.29-2.61,3.82-1.6.53-3.41-.26-4.65-1.26-2.81-2.26-4.42-6.14-5.66-9.42-1.35-3.59-2.16-7.36-2.45-11.18-.06-.85-2.25-.36-2.17.58.27,3.5.97,6.96,2.12,10.28,1.08,3.1,2.49,6.35,4.52,8.95,1.82,2.33,4.53,3.96,7.57,3.56,2.92-.39,4.76-2.48,5.44-5.24.4-1.6.44-3.27.79-4.88.37-1.68.86-3.31,1.06-5.03.12-1-2.09-.65-2.19.22h0Z"/>
    <path class="cls-28" d="M741.44,465.03c-.86,2.73-.5,5.87-2,8.39-.54.91-1.43,1.92-2.58,1.9-1.22-.02-2.3-.98-3.06-1.83-3.75-4.18-5.37-10.07-6.55-15.42-.2-.93-2.38-.37-2.17.58,1.12,5.11,2.69,10.28,5.78,14.58,1.28,1.78,3.04,3.5,5.36,3.57s4.24-1.37,5.35-3.3c1.51-2.64,1.17-5.83,2.07-8.66.29-.93-1.92-.67-2.19.2h0Z"/>
    <path class="cls-28" d="M756.99,446.09c.18-.61.06-1.26-.12-1.86-.19-.63-.4-1.25-.6-1.87-.41-1.29-.83-2.58-1.24-3.87-.16-.49-.86-.51-1.27-.39-.36.11-1.07.47-.9.97.4,1.24.8,2.49,1.2,3.73.2.61.39,1.21.59,1.82.18.56.33,1.08.16,1.66-.15.51.65.68.98.64.52-.06,1.05-.31,1.21-.84h0Z"/>
    <path class="cls-3" d="M517.83,706.02c.48,1.53.97,3.06,1.45,4.59l.89-1.01c-2.68.81-5.37,1.61-8.06,2.42-7.09,2.13-14.17,4.25-21.26,6.36-9.9,2.96-19.8,5.9-29.7,8.84-11.27,3.34-22.55,6.68-33.83,9.99-11.02,3.24-22.04,6.46-33.08,9.64-10.67,3.08-21.33,6.18-32.07,9-13.85,3.65-27.83,6.83-41.94,9.36-15.69,2.81-31.55,4.8-47.47,5.75-8.41.5-16.84.72-25.26.61-8.4-.11-16.57-.76-24.67-3.13-.97-.28-1.93-.61-2.9-.91-.63-.19.14.09-.18-.05-.4-.18-.79-.39-1.18-.59-1.56-.79-3.1-1.62-4.63-2.48-4.39-2.48-8.76-5.21-12.51-8.6-1.6-1.44-3.2-3.1-4.16-5.04-.45-.92-2.6-.27-2.17.58,2.09,4.2,6.26,7.27,10.03,9.87s7.54,4.75,11.51,6.78c4.57,2.33,9.92,3.34,14.96,4.12,8.32,1.31,16.91,1.12,25.31.98,16.36-.26,32.7-1.68,48.89-4.03,14.86-2.16,29.61-5.1,44.21-8.61,11.87-2.86,23.62-6.15,35.35-9.51,10.84-3.1,21.66-6.24,32.47-9.41,11.49-3.36,22.97-6.74,34.45-10.14,10.52-3.11,21.03-6.24,31.54-9.37,8.07-2.41,16.14-4.82,24.21-7.24,3.99-1.2,7.99-2.4,11.98-3.6.18-.05.35-.11.53-.16.39-.12,1.06-.49.89-1.01-.48-1.53-.97-3.06-1.45-4.59-.31-.97-2.48-.37-2.17.58h0Z"/>
    <path class="cls-3" d="M258.82,413.71c14.31.86,22.51,16.38,27.05,28.11,3.15,8.14,5.82,16.68,6.21,25.44.29,6.48.13,12.98-.07,19.45-.27,9-.74,17.98-1.26,26.97-.62,10.49-1.33,20.98-2.1,31.46-.81,11.04-1.68,22.09-2.6,33.12-.87,10.52-1.77,21.04-2.71,31.55-.8,9.05-1.63,18.1-2.47,27.15-.62,6.6-1.24,13.2-1.88,19.79-.31,3.16-.65,6.31-.93,9.47-.01.14-.03.27-.04.41-.09.86,1.4.61,1.79.29.04-.03.08-.06.12-.08.26-.15.33-.19.18-.11.6-.31,1.23-.57,1.86-.81.1-.04.2-.07.3-.11-.02,0-.12.04.17-.06s.58-.19.87-.28c.71-.22,1.42-.42,2.14-.61,1.93-.5,3.88-.91,5.84-1.26,6.88-1.22,13.86-1.86,20.83-2.32,11.94-.79,23.91-.95,35.87-.86,22.02.16,44.01-.02,66.02-.61,20.54-.56,41.07-1.34,61.6-2.26,7.16-.32,14.33-.66,21.49-1.02,3.4-.17,6.87-.16,10.26-.53.15-.02.3-.02.45-.02l-.96-.4c.85,2.23,1.7,4.47,2.56,6.7.33.86,2.49.24,2.17-.58-.85-2.23-1.7-4.47-2.56-6.7-.15-.38-.61-.42-.96-.4-8.8.48-17.6.91-26.41,1.31-20.07.93-40.15,1.72-60.24,2.32-21.76.65-43.54,1.12-65.31.89-20.46-.22-41.24-.46-61.54,2.62-4,.61-8.03,1.32-11.89,2.56-1.17.38-3.19.83-4.12,1.75-.03.03-.07.05-.11.08l1.79.29c.22-2.2.43-4.4.65-6.61.58-5.93,1.14-11.87,1.7-17.8.81-8.65,1.61-17.31,2.39-25.96.93-10.36,1.84-20.73,2.71-31.1.93-11.06,1.82-22.13,2.66-33.2.81-10.75,1.58-21.51,2.25-32.27.59-9.43,1.11-18.86,1.47-28.3.27-7.1.48-14.21.32-21.31-.05-2.39-.14-4.79-.38-7.18-.42-4.18-1.66-8.28-2.84-12.3-2.26-7.68-5.19-15.28-9.39-22.12-3.39-5.53-7.85-10.85-13.78-13.76-2.62-1.29-5.44-2.03-8.35-2.21-.94-.06-2.27,1.31-.8,1.4h0Z"/>
    <path class="cls-13" d="M518.51,706.05l16.39-3.62s48.65,13.99,62.98,12.66c10.32-1.4,20.4-4.41,29.95-8.95l12.27,2.72c5.65,1.25,11.48.28,16.52-2.75l3.88-2.34s14.6,7.99,17.09,3.07c2.49-4.92-2.29-9.51-6.94-13.97-4.65-4.46-96.59-41.9-96.59-41.9,7.86-4.12,23-3.22,31.39-5.76,12.91-3.8,16.53-10.52,10.42-15.16-3.77-2.86-14.72-4.21-21.51-.02-6.77,4.17-41.59-1.66-54.11,4.22-12.52,5.88-20.26,24.79-20.26,24.79-1.02.65-10.18,1.22-10.18,1.22-.31,1.9,8.71,45.8,8.71,45.8Z"/>
    <path class="cls-22" d="M659.68,703.17c-5.64-2.44-11.68-4.05-17.56-5.81-7.2-2.16-14.43-4.24-21.57-6.61-2.87-.95-5.79-1.91-8.53-3.22-.65-.31-2.22.58-1.38.99,5.55,2.64,11.62,4.31,17.49,6.1,7.29,2.22,14.62,4.31,21.88,6.63,2.9.93,5.83,1.86,8.63,3.07.7.3,2.06-.7,1.04-1.14h0Z"/>
    <path class="cls-22" d="M626.25,705.26c-9.74-2.13-19.47-4.27-29.21-6.4-1.37-.3-2.74-.6-4.11-.9-.52-.11-2.08.69-1.1.9,9.74,2.13,19.47,4.27,29.21,6.4,1.37.3,2.74.6,4.11.9.52.11,2.08-.69,1.1-.9h0Z"/>
    <path class="cls-3" d="M280.44,664.8c-4.05.32-7.37,2.65-10.59,4.92s-6.4,4.75-8.83,7.96c-4.64,6.13-6.78,13.65-8.82,20.94-.29,1.04,1.94.8,2.2-.16,1.88-6.72,3.84-13.74,7.96-19.49,2.15-3,4.87-5.35,7.85-7.49s6.21-4.78,10.03-5.08c1.23-.1,1.67-1.72.19-1.61h0Z"/>
  </g>
</svg>