<?xml version="1.0" encoding="UTF-8"?>
<svg xmlns="http://www.w3.org/2000/svg" xmlns:xlink="http://www.w3.org/1999/xlink" viewBox="0 0 1334 1000">
  <defs>
    <style>
      .cls-1 {
        fill: #622515;
      }

      .cls-2 {
        fill: #13110f;
      }

      .cls-3 {
        fill: #6c8e4e;
      }

      .cls-4 {
        fill: #273339;
      }

      .cls-5 {
        fill: #010101;
      }

      .cls-6 {
        fill: #653c29;
      }

      .cls-7 {
        fill: #ababab;
      }

      .cls-8 {
        fill: #a63d2e;
      }

      .cls-9 {
        fill: #5c1a0c;
      }

      .cls-10 {
        fill: #f1eef7;
      }

      .cls-11 {
        fill: #a66f53;
      }

      .cls-12 {
        fill: #a66e53;
      }

      .cls-13 {
        fill: url(#linear-gradient);
        opacity: .5;
      }

      .cls-14 {
        fill: #1e572b;
      }

      .cls-15 {
        fill: #4f2f26;
      }

      .cls-16 {
        fill: #552d23;
      }

      .cls-17 {
        fill: #f2ebd1;
      }

      .cls-18 {
        fill: #24180f;
      }

      .cls-19 {
        fill: #a53b23;
      }

      .cls-20 {
        stroke: #161311;
        stroke-miterlimit: 10;
        stroke-width: .13px;
      }

      .cls-21 {
        fill: #4f2e25;
      }
    </style>
    <linearGradient id="linear-gradient" x1="-7034.7" y1="9407.32" x2="-5958.94" y2="9407.32" gradientTransform="translate(-8741.51 7020.48) rotate(90) scale(1 -1)" gradientUnits="userSpaceOnUse">
      <stop offset="0" stop-color="#f0ebe0"/>
      <stop offset=".18" stop-color="#eee8dd" stop-opacity=".99"/>
      <stop offset=".33" stop-color="#e8e1d4" stop-opacity=".97"/>
      <stop offset=".46" stop-color="#ded4c5" stop-opacity=".93"/>
      <stop offset=".59" stop-color="#d0c2b0" stop-opacity=".88"/>
      <stop offset=".72" stop-color="#bdab95" stop-opacity=".82"/>
      <stop offset=".84" stop-color="#a78e73" stop-opacity=".73"/>
      <stop offset=".96" stop-color="#8d6d4d" stop-opacity=".64"/>
      <stop offset="1" stop-color="#83603d" stop-opacity=".6"/>
    </linearGradient>
  </defs>
  <g id="Layer_1" data-name="Layer 1">
    <polyline class="cls-17" points="1366.65 1042.01 1366.65 -27.56 -35.03 -27.56 -35.03 1042.01"/>
    <polyline class="cls-13" points="1366.65 1057.99 -35.03 1057.99 -35.03 -17.78 1366.65 -17.78"/>
  </g>
  <g id="Layer_2" data-name="Layer 2">
    <path class="cls-8" d="M578.64,684.37c7.05,26.33,16.72,66.72,34.26,88.24,14.12,17.33,48.97,36.63,77.83,36.96,16.67.19,38.4.39,77.75-3.1,44.08-3.91,180.06-29.11,180.06-29.11l-14.79-67.73-197.98-8.17-23.42-1.87-50.77-207.41s-6.12-33.53-29.1-44.31"/>
    <path class="cls-12" d="M694.05,761.23l-214.16-117.27-7.65,25.85-21.61,11.3c49.28,33.85,106.58,97.28,168.94,135.96,0,0,35.07,22.65,44.73,26.56,30.22,12.24,57.44-8.42,57.44-8.42"/>
    <path class="cls-8" d="M564.66,389.17s85.27,58.08,92.84,88.07c11.49,45.54,14.09,88.04,14.09,88.04l-55.28,25.78-51.64-201.88Z"/>
    <path class="cls-7" d="M465.07,107.73c9.15-8.93,21.74-13.72,33.15-8.27,3.78-23.56,29.05-33.21,52.63-29.57,12.01,2.42,23.4,10.12,35.5,8.23,7.55-1.17,13.93-5.75,20.84-9.28,28.85-14.16,64.71,15.02,81.99,42.13,17.29,27.11,7.21,51.95-9.24,79.55-7.64,12.83-8.19,20.48-12.46,34.9-4.02,13.61-17.16,37.86-19.84,51.62-2.69,13.76,16.2,32.14,2.09,30.67l-148.17-45.66c-23.32.31-36.44-9.14-44.32-31.1-5.03-14.85-2.41-15.01-.58-30.55,1.9-20.41-15.74-39.26-10.84-59.17,2.68-12.58,10.61-23.97,19.25-33.5Z"/>
    <path class="cls-19" d="M446.41,103.43s57.14-16.34,123.32,3.55c66.18,19.89,91.55,67.35,97.9,99.21,6.35,31.86-11.97,60.75-11.97,60.75,0,0,16.05,7.68,38.44-51.04,32.65-85.6-48.09-155.68-69.99-159.4-21.9-3.72-129.45-46.83-177.7,46.93Z"/>
    <path class="cls-12" d="M476.93,264.56s-12.32,52.95-33.55,87.57c-2.96,4.83-48.74,20.56-48.74,20.56l54.67,23.36c26.21,11.42,91.21,51.31,119.44,46.74l20.83-31.29s-26.42-19.64-26.58-26.31c-.16-6.67,13.84-54.36,13.84-54.36"/>
    <path class="cls-8" d="M617.61,884.17c-3.58-28.11-4.8-74.05-4.8-74.05l2.54-56.68c-.31-10.91,5.82-23.51,12.27-32.32h0c26.85-35.45,54.07-76.61,48.51-90.83l-46.79-183.83-66.72-60.13c1.73,5.22,27.68,44.3-22.25,47.74-.04,0-11.72-2.08-11.76-2.08-60.77-14.42-85.23-79.86-85.23-79.86l-116.68,29.91-57.82,287.08s-103.46,121.3-117.13,178.84c-16.78,70.64-27.74,135.57-15.18,202.21,1.28,6.81,92.81,35.85,102.36,38.72,35.87,10.75,72.52,18.92,109.56,24.46,72.8,10.88,168.09,8.04,241.08,7.46,0,0,37.07-165.76,28.03-236.62Z"/>
    <path class="cls-21" d="M564.67,376.23s-10.92-4-18.27-7.66c-7.35-3.67-20.74-5.74-50.62-43.62,0,0,3.23,40.19,47.37,57.07,0,0,11.34,4.72,19.46,4.32l2.06-10.11Z"/>
    <path class="cls-12" d="M649.08,151.76c.13.16.27.32.42.49-.12-.3-.23-.61-.3-.91l-.12.42ZM667.23,161.02c.21.34.45.69.7,1.03l.1-.35s-.68-1.1-.8-.68ZM491.82,319.66c12.92,23.42,43.62,52.26,72.38,59,10.31,2.42,20.31,3.97,30.97-6.62,10.78-10.7,19.01-13.97,30.19-23.57,10.73-9.21,16.02-15.32,23.02-27.56,7.24-12.66,8.2-16.25,10.47-30.27,1.02-6.26,3.11-15.59,5.17-21.3,2.37-6.6,12.75-32.31,17.64-47.73,4.89-15.42.69-48.26.69-48.26.28-4.47-6.14-3.86-7.47-7.88l-1.83-.52s.79.68.44,1.94c-2.22-1.02-4.18-2.94-5.55-4.84l-.02.07c-3.11.48-5.5-1.57-7.19-4.32-.12.42.1,1.39.56,1.52-2.87-.36-5.26-2.41-6.61-4.61-.12.42.1,1.39-.02,1.81-1.97-.98-3.75-2.65-5.16-4.28.26.67,11.06,2.01,10.97,2.3-2.86-.36.02,1.45-1.67-1.3l-1.83-2.21c-2.41-.23-2.72,1.17-4.07-1.03.34.55.06-4.99-.06-4.57-2.75-.78-1.95-.75-3.88-2.67-.12.42-8.27.6-8.39,1.02-2.29-.65-2.28,1.62-3.64-.58.34.55,2.16-1.29,2.49-.74-2.87-.36-4.4,1.11-6.09-1.64.34.55-7.75-7.19-7.75-7.19-2.87-.36-2.65.64-4.46-1.7.68,1.1-12.46-4.4-12.24-3.42-2.29-.65,1.98,9.64.51,7.86-.12.42-4.91-2.76-4.91-2.76-2.41-.23.43,2.85-.93.65-.12.42-.02,1.81.44,1.94-3.11.48-6.08-1.27-8.34-3.74.68,1.1.9,2.08,1.23,2.62-2.29-.65-4.24-.75-6.05-3.09-.12.42.44,1.94.89,2.07-2.53.19-5.16-1.01-7.09-2.93-.12.42.56,1.52.89,2.07-1.95-.1-3.78-.62-5.25-2.4l.89,2.07c-1.83-.52-3.44-.07-5.95-1.7-.12.42.68,1.1.56,1.52-1.38-.39-3.21-.91-4.46-1.73-.12.42,1.01,1.65.56,1.52-1.83-.52-3.44-.07-5.49-1.56.34.55.56,1.52.89,2.07-1.83-.52-3.78-.62-5.38-1.99-.12.42.1,1.39.44,1.94-1.83-.52-3.45-.08-5.5-1.57-.12.42.56,1.52.9,2.07-1.84-.52-3.79-.62-5.5-1.57-.12.42.68,1.1,1.02,1.65-1.83-.52-3.78-.62-5.84-2.12-.24.84.1,1.39-.02,1.81-1.37-.39-2.17-1.07-3.54-1.46l-2.53.19c-8.81,6.58-30.93-7.06-30.93-7.06-17.43,7.31-14.95,70.8-16.77,78.91-1.82,8.12-6.99,9.05-6.99,9.05-1.45-3.59-6.73,4.32-7.14.56-.54-3.33,1.46-6.86.92-10.19-2.2-7.9-11.96-8.41-18.2-5.64l-1.23,1.14c-9.72,7.51-10.45,39.23-7.74,49.48-3.54,18.31,9.54,32.14,22.03,21.73l.51,7.68"/>
    <g>
      <path class="cls-5" d="M597.17,300.65c-3.88.8-8.91-1.08-11.71-4.14-.62-.68-3.26-.95-2.39,0,3.71,4.05,11.02,6.41,16.02,5.38.5-.1.51-.46.02-.79-.51-.35-1.41-.57-1.94-.46"/>
      <path class="cls-5" d="M581.87,295.13c-1.96-1.71-4.35-3-6.83-3.92-.36-.13-.89-.13-1.23.03-.27.13-.39.37-.15.61.98,1,2.39,1.7,3.77,2.07.43.12,1.03.17,1.38-.13.32-.28-.03-.62-.37-.71-1.14-.3-2.23-.85-3.04-1.68-.46.21-.92.43-1.38.64,2.22.82,4.34,1.99,6.1,3.53.35.31.97.35,1.39.24.32-.08.71-.37.36-.68"/>
      <path class="cls-5" d="M571.7,292.57c-2.95-.92-6.08-3.2-6.9-5.84-1.25-3.99,2.32-8.72,6.64-9.81.47-.12.34-.48-.04-.68-.5-.27-1.19-.25-1.68-.13-3.76.95-7.1,4.72-7.52,8.01-.38,3.07,1.87,5.94,5.18,7.8.99.55,2.06,1.05,3.17,1.39.45.14,1.29.23,1.61-.05.32-.29-.04-.56-.46-.69"/>
      <path class="cls-5" d="M603.04,300.7c-.06-.39.3-.52.53-.45.8.25,1.68.26,2.52-.1.17.39.34.79.51,1.18-1.66-.28-3.42-.22-5.12.33-.34.11-.72-.13-.91-.42-.15-.21-.25-.64.1-.76"/>
      <path class="cls-5" d="M600.67,300.49c1.91-.61,3.87-.66,5.73-.34.27.05.57.28.7.58.1.23.06.5-.19.6"/>
      <path class="cls-5" d="M609.1,302.86c1.95.48,4.59-.16,6.18-2.12,2.39-2.95,2.19-7.32.39-10.15-.2-.31.03-.57.32-.58.38-.02.73.3.94.62,1.57,2.47,2.07,5.9.85,8.96-1.13,2.86-3.57,4.39-6.12,4.58-.76.06-1.54.02-2.27-.16-.3-.07-.78-.36-.83-.75-.04-.4.27-.47.55-.41"/>
    </g>
    <path class="cls-2" d="M647.2,251.43c2.92-.59,5.89,1.41,7.13,3.36.29.46.74,1.73.75,3.54.02,2.31-1.52,4.49-3.28,5.58-2.35,1.46-5.43.94-7.41-.78-2.69-2.33-2.64-6.36-1.09-8.86.29-.46,1.55-2.36,3.9-2.84"/>
    <path class="cls-2" d="M622.09,253.44s15.15-6.22,21.66-5.04c9.49,1.71,19.42,10.07,21.38,15.59,0,0-12.88-11.94-19.6-12.95-6.43-.97-23.44,2.41-23.44,2.41Z"/>
    <path class="cls-2" d="M567.72,230.01c-2.17-2.04-6.36-2.84-8.44-1.84-.49.23-1.82.92-2.79,2.46-1.24,1.96-1.07,4.62-.15,6.47,1.23,2.48,4.12,3.66,6.71,3.25,3.52-.56,5.59-4.01,5.6-6.95,0-.54.78-1.36-.97-3.01"/>
    <path class="cls-2" d="M581.85,241.39s-11.45-12.87-18.26-15.03c-9.95-3.15-23.6-.69-28.21,3.18,0,0,18.26-4.16,25.2-1.75,6.64,2.3,21.27,13.59,21.27,13.59Z"/>
    <path class="cls-7" d="M675.34,241.11c.05-.09.13-.23.14-.26.09-.17.18-.33.26-.5.15-.3.29-.6.42-.9.13-.3.25-.61.35-.93.03-.09.26-.66.07-.22.07-.16.09-.37.12-.54.02-.1.02-.2.03-.3-.01-.17-.02-.34-.04-.51-.83-1.24-1.5-2.03-1.62-2.17,0,0-3.25-3.85-9.33-7.15-4.19-2.28-16.37-6.64-33.31-9.87-.54,1.87-1.09,3.74-1.63,5.62-.41,1.43-.82,2.86-1.22,4.29,6.05.49,11.17,1.15,15,1.73,8.11,1.22,12.25,1.87,16.59,3.85,4.56,2.07,8.15,4.75,9.55,5.8,1.58,1.19,2.75,2.07,3.91,3.19.24-.37.49-.74.7-1.12Z"/>
    <path class="cls-7" d="M601.86,206.57c-.52,1.87-1.05,3.75-1.58,5.63-.41,1.43-.81,2.86-1.23,4.28-5.88-2.91-10.98-5.15-14.85-6.76-8.19-3.41-12.38-5.13-17.49-5.84-5.36-.75-10.17-.46-12.04-.33-2.63.17-4.39.26-6.61.81-4.82,1.19-7.25,3.35-7.87,2.93-.57-.38,1.09-2.41,1.27-2.62,4.21-5.1,11-6.94,11.52-7.1,0,0,5.13-1.47,12.58-.93,5.14.37,18.83,3.37,36.3,9.92"/>
    <path class="cls-15" d="M477.72,237.39c-1.16-6.07-2.59-12.16-4.92-17.91-1.17-2.89-2.56-5.82-4.59-8.22-.81-.96-1.81-2-3-2.49-1.4-.57-2.51.9-3.31,1.85-3.51,4.2-4.78,9.85-4.82,15.21,0,1.16,2.2.86,2.21-.15.03-4.26.8-8.55,2.97-12.27.75-1.29,1.76-2.67,2.82-3.46l-1.35.23c.46.11.22.04.56.27.76.52,1.29,1.01,1.87,1.69,2.86,3.33,4.53,7.67,5.89,11.78,1.52,4.59,2.6,9.3,3.51,14.04.2,1.04,2.38.48,2.17-.58h0Z"/>
    <path class="cls-15" d="M471.2,238.26c-1.4-.42-3.02-.24-4.28.53-1.14.7-1.67,1.94-2,3.17-.83,3.07-.48,6.43-1.51,9.44-.09.28-.2.56-.36.81-.09.14-.43.4-.45.52l1.16-.29s-.1-.05-.14-.08c-.01-.05-.19-.2-.24-.26-.21-.27-.32-.64-.42-.96-.69-2.18-.62-4.68-.58-6.94.08-3.63.34-7.09,1.54-10.51.67-1.93,1.51-3.82,2.61-5.55,1.02-1.58,2.53-3.58,4.52-3.9.84-.13,1.96-.97.43-.72-4.1.65-6.68,3.83-8.39,7.39-1.22,2.55-2.18,5.28-2.49,8.1-.34,3.14-.54,6.34-.32,9.5.08,1.18.1,3.99,1.42,4.65,1.07.53,2.8-.33,3.42-1.24.77-1.13.88-2.79,1.03-4.11.25-2.02.35-4.08.85-6.05.2-.79.46-1.6.92-2.28.2-.29.42-.51.7-.72-.42.32-.38-.02-.04.11.24.1.56.11.81.19.43.13,1.13-.1,1.52-.29.2-.1.73-.37.28-.51h0Z"/>
    <path class="cls-21" d="M657.06,197.29s-20.54-1.71-36.88-4.8c-16.34-3.09-30.62-14.56-30.62-14.56,0,0,17.92,9.88,30.83,12.39,12.91,2.51,36.68,6.96,36.68,6.96Z"/>
    <path class="cls-7" d="M677.32,152.69c-.15-.34.06.14,0,0-2.9-6.51-4.24-13.11-7.42-19.48-3.12-6.25-6.25-11.97-9.71-18.03-.2-.36-5.51-1.58-5.71-1.93-.04-.07-.17-.3-.22-.38-.11-.19-.22-.38-.34-.57-.26-.44-.52-.87-.79-1.31-23.07-16.13-53.3-23.84-82.56-20.93-56.85,5.65-98.36,56.31-92.71,113.16.48,4.87-3.38,9.87.6,13.36,3.97,3.49,4.76,2.31,9.62.22,4.71-2.4,8.8-5.86,11.95-10.11,16.09-19.78,26-54.43,25.67-79.92,2.04,5.21,23.63,4.57,27.6,8.51,15.73,15.56,41.09,15.43,56.66-.29,1.32,3.09,2.89,6.07,4.69,8.91,16.53,25.96,41.67,42,67.56,31.22.95-.4-3.08-18.28-4.88-22.41Z"/>
    <path class="cls-4" d="M533.21,217.05l.53,9.31c-.14,7.08,1.31,21.58,2.61,25.78,1.85,5.88,36.58,17.34,44.6,15.18,8.02-2.17,17.35-21.28,20.46-25.45l13.89,4.6c-.38,6.38-1.16,26.71.82,30.02,1.97,3.31,18.28,7.22,20.12,7.66,1.53.35,3.67.84,6.03,1.27,6.23,1.21,13.93,2.19,16.82.54,4.3-2.44,11.48-14.25,17.96-25.51l1.04-1.76c.23-.43.47-.71.51-.84h0l1.16-2.03c-17.68-15.18-44.77-20.79-64.17-13.27l.07.25-13.53-4.56c-12.73-14.53-38.08-27.41-59.31-25.16h0l-62.35-6.2-1.61,5.24,54.36,4.91ZM618.31,274.98c-1.24-2.06-1.1-16.41-.64-27.49,16.79-6.24,41.19-1.15,57.27,11.38l-.08.27c-3.48,6.03-12.71,22.09-16.94,24.49-5,2.82-37.37-5.32-39.63-8.59l.02-.06ZM540.93,251.84c-2.15-11.05-3.29-22.26-3.42-33.52,19.21-3.15,47.8,9.25,60.33,23.16-4.72,7.77-11.78,21.68-17.52,23.21-8.27,2.23-38.24-9.14-39.38-12.85h0Z"/>
    <path class="cls-1" d="M449.33,208.17s-43.71-46.81-16.6-82.67c5.21-6.89,5.13-4.3,6.63-10.84,7.86-34.25-5.8-28.38,52.55-58.87,58.35-30.49,65.63-28.35,141.6-7.6,39.18,10.7,57.71,31.55,63.66,58.85,2.68,12.27,2.82,25.85,1.15,40.39,0,0-76.72-38.98-130.17-22.31-53.45,16.67-120.76,91.7-115.74,120.94,1.41,8.21-3.08-37.9-3.08-37.9Z"/>
    <path class="cls-19" d="M425.3,164.34s88.48-87.01,180.97-72.19c0,0-111.14-34.24-177.15,37.06l-2.6,9.38c-1.62,5.84-2.22,11.92-1.78,17.96l.57,7.78Z"/>
    <path class="cls-9" d="M651.47,512.55c-2.22,2.69-4.23,5.59-6.05,8.56-1.41,2.32-2.72,4.74-3.6,7.31-.26.75-.56,1.52-.58,2.32-.07,2.64.76,5.44,1.3,8,2.46,11.54,5.16,23.01,7.35,34.61,3.09,16.39,5.47,32.95,6.41,49.61.98,17.36.51,35.06-3.36,52.07-3.51,15.45-10.21,30.66-21.91,41.66-1.4,1.32-2.86,2.56-4.38,3.74s.77,2.28,1.93,1.37c12.8-10,20.94-24.42,25.44-39.83,4.85-16.63,6.01-34.16,5.54-51.4-.46-17.06-2.55-34.05-5.48-50.85-2.21-12.68-4.99-25.24-7.78-37.81-.75-3.36-1.59-6.74-2.03-10.16-.03-.22-.05-.45-.08-.67-.04-.36,0,.17,0-.09,0-.09-.01-.19-.01-.28,0-.59.13-1.04.32-1.63,1.57-4.84,4.56-9.26,7.59-13.3.59-.79,1.19-1.58,1.82-2.34,1.17-1.42-1.57-1.94-2.44-.89h0Z"/>
    <path class="cls-8" d="M570.7,694.7l-183.71-17.39-17.34-166.65,6.41-138.62s-113.74,2.64-121.17,103.55c-2.01,54.91-5.57,178.61-1.83,211.47-2.76,20.36,12.02,30.06,15.32,45.22,1.28,23.9,21.61,55.72,40.1,60.55,44.34,11.56,92.51-5.42,92.51-5.42,0,0,20.6-4.18,21.48-4.3,45.71-5.07,74.86-9.46,157.94-33.22l15.46-1.38c-7.78-21.78-19.35-31.43-25.16-53.81Z"/>
    <g>
      <path class="cls-8" d="M251.72,683.17c6.45,53.68,12.81,104.24,74.21,120.47,27.04,7.15,79.93-8.73,122.79-18.76,64.19-15.01,198.57-52.02,198.57-52.02l-11.26-67.84-230.09,9.76c-22.62,3.13-24.4,1.26-35.22,8.38l2-30,4.7-189.42s-2.99-33.96-24.88-46.81"/>
      <path class="cls-9" d="M250.27,683.55c2.07,17.22,4.07,34.56,8.43,51.39,3.95,15.22,10.06,30.14,20.37,42.2,11.5,13.46,27.26,21.93,44.16,26.61,7.8,2.16,15.89,2.46,23.94,2.05,9.94-.5,19.81-2,29.59-3.82,22.27-4.14,44.17-10.06,66.19-15.34,15.09-3.62,30.18-7.24,45.22-11.05,16.84-4.27,33.66-8.65,50.46-13.07s32.81-8.7,49.2-13.1c12.99-3.49,25.97-7.01,38.95-10.55,6.58-1.79,13.15-3.59,19.73-5.4.29-.08.58-.16.88-.24.24-.07,1.41-.36,1.35-.77-1.27-7.63-2.53-15.26-3.8-22.89-2.02-12.17-4.04-24.35-6.06-36.52-.47-2.81-.93-5.62-1.4-8.43-.03-.16-.43-.16-.5-.15-2.51.11-5.03.21-7.54.32-6.7.28-13.4.57-20.11.85-9.77.41-19.55.83-29.32,1.24-11.66.49-23.33.99-34.99,1.48-12.39.53-24.78,1.05-37.16,1.58s-23.9,1.01-35.84,1.52c-10.31.44-20.62.88-30.94,1.31-7.6.32-15.2.65-22.81.97-3.63.15-7.26.3-10.9.46-.21,0-.43.01-.64.03-4.68.38-9.37,1.18-14.04,1.68-5.44.58-10.96,1.08-16.03,3.29-2.47,1.07-4.79,2.48-7.04,3.95l2.55-.39c.62-9.36,1.25-18.71,1.87-28.07.18-2.73.22-5.46.28-8.2.18-7.33.36-14.65.55-21.98.27-10.77.53-21.53.8-32.3.31-12.47.62-24.94.93-37.41.31-12.31.61-24.63.92-36.94.26-10.33.51-20.66.77-30.99.16-6.52.32-13.04.49-19.55.03-1.25.11-2.52.09-3.77-.02-1.57-.36-3.17-.63-4.71-2.17-12.63-6.8-25.68-15.59-35.25-2.56-2.79-5.48-5.21-8.74-7.14-.47-.28-1.39.05-1.85.21-.14.05-1.27.51-.89.74,12.65,7.5,19.36,21.88,22.79,35.65,1.03,4.14,2.08,8.45,1.97,12.75-.13,5.36-.27,10.72-.4,16.08-.24,9.57-.48,19.14-.71,28.71-.3,12.01-.6,24.02-.89,36.03-.31,12.6-.63,25.2-.94,37.79-.28,11.32-.56,22.65-.84,33.97-.21,8.3-.41,16.6-.62,24.9-.08,3.41-.1,6.82-.25,10.23-.4,8.93-1.19,17.86-1.78,26.78-.07,1.08-.14,2.17-.22,3.25-.03.5,2.33-.25,2.55-.39,2.23-1.46,4.52-2.89,7-3.89,1.98-.8,3.88-1.2,6.06-1.52,3.25-.48,6.53-.76,9.8-1.12,3.45-.38,6.9-.96,10.36-1.3,2.81-.27,5.68-.24,8.49-.36,6.88-.29,13.77-.58,20.65-.88,9.81-.42,19.62-.83,29.43-1.25,11.65-.49,23.29-.99,34.94-1.48,12.31-.52,24.62-1.04,36.93-1.57s23.59-1,35.39-1.5c10.22-.43,20.45-.87,30.67-1.3,7.47-.32,14.93-.63,22.4-.95,3.55-.15,7.15-.13,10.69-.45.15-.01.31-.01.46-.02l-.5-.15c1.27,7.63,2.53,15.26,3.8,22.89,2.02,12.17,4.04,24.35,6.06,36.52.47,2.81.93,5.62,1.4,8.43l1.35-.77c-4.54,1.25-9.08,2.49-13.62,3.73-11.55,3.15-23.1,6.29-34.66,9.41-15.65,4.22-31.3,8.42-46.97,12.57-16.93,4.49-33.88,8.94-50.84,13.29-15.08,3.87-30.17,7.69-45.31,11.32-20.13,4.82-40.2,10-60.4,14.52-10.52,2.36-21.11,4.52-31.79,5.97-8.94,1.22-18.07,2.07-27.09,1.33s-17.25-3.51-25.24-6.99-15.15-7.87-21.57-13.47c-11.93-10.41-19.82-24.34-24.87-39.2-5.43-15.96-7.95-32.78-10.08-49.45-.54-4.25-1.06-8.49-1.57-12.74-.05-.45-2.98.1-2.9.78h0Z"/>
    </g>
    <path class="cls-9" d="M371.65,681.92c-4.52-.05-8.52,2.84-11.48,5.99-4.58,4.89-7.78,11.05-10.12,17.28-1.68,4.48-2.9,9.12-3.75,13.83-.03.19,2.75.06,2.9-.78,1.3-7.23,3.52-14.33,6.92-20.86,2.4-4.6,5.43-9.25,9.57-12.47.77-.59,1.58-1.15,2.46-1.55.73-.34.83-.37,1.58-.37.63,0,1.53-.16,2.05-.55.39-.29.47-.53-.14-.54h0Z"/>
  </g>
  <g id="Layer_4" data-name="Layer 4">
    <path class="cls-11" d="M862.96,664.34l-68.89-64.8-37.84,56.51-127.16,143.86c11.23,16.5,27.81,28.3,41.12,43.1,3.85,4.29,11.28,4.83,19.86,3.71,15.83-2.07,33.53-9.62,44.65-21.08,29.2-30.11,88.08-94.97,92.09-99.4,14.56-16.06-.09-9.48,36.16-61.9Z"/>
  </g>
  <g id="Layer_5" data-name="Layer 5">
    <path class="cls-12" d="M997.75,483.31s-28.67,55.49-29.51,77.75c-.2,5.4,23.29,30.82,23.29,30.82l-139.6,14.92-35.95-51.06s51.23-14.34,55.11-19.4c3.88-5.06,18.12-60.4,18.12-60.4"/>
    <path class="cls-3" d="M699.33,754.2c-3.03-14.14-14.15-27.69-14.15-27.69,7.11-3.28,24.02-32.71,38.27-54.95,11.65-18.19,15.93-39.8,24.37-55.58,13.02-24.31,16.22-28.95,35.63-41.07,28.88-18.03,21.43-14.27,48.78-26.51l36.07-10.38s-23.28,22.25,18.28,30.97c50.39,10.59,88.12-28.64,88.12-28.64,0,0,17.09,15.25,48.6,35.25,12.09,7.7,46.34,25.69,61.01,57.2,14.47,31.07,15.4,41.97,9.62,125.01l-55.78,27.1-13.69,6.28c-.02,42.53,18.54,130.71,9.18,196.74-1.28,8.85-2.58,17.71-3.92,26.55-.79,5.25,3.36,87.22.14,91.2-3.04,3.76-56.02-3.1-61.03-1.93-53.77,12.52-190.71-3.75-190.71-3.75-21.21-5.41-38.91-9.18-56.86-21.27-12.71-8.57-9.95-12.68-16.53-20.04,5.7-18.52,13.86-97.11,16.63-116.27,4.44-30.8,4.96-53.55,8.78-84.47.22-1.77,4.65-61.83,4.21-63.19-4.74-3.07-31.3-23.26-35.01-40.57Z"/>
    <g>
      <path class="cls-3" d="M749.12,657.14c-3.29,29.07-13.48,108.41-14.78,137.63,0,0-43.07-23.52-49.17-68.27l9.48-12.27s14.62,41.46,36.41,55.42"/>
      <path class="cls-14" d="M747.67,657.35c-1.94,17.1-4.07,34.17-6.09,51.26-2.4,20.33-4.77,40.67-6.72,61.05-.81,8.42-1.58,16.86-1.96,25.32l2.61-.86c-1.94-1.06-4.4-2.7-6.47-4.15-5.26-3.68-10.21-7.79-14.81-12.27-13.46-13.12-23.76-29.7-27.1-48.38-.14-.77-.26-1.54-.38-2.31-.05-.35-.21-.47-.16-.63.1-.34.58-.75.79-1.02l3.27-4.24c1.78-2.31,3.56-4.61,5.34-6.92l-2.78.41c1.8,5.09,3.99,10.07,6.28,14.95,4.64,9.86,10.04,19.52,16.87,28.04,3.83,4.78,8.18,9.25,13.35,12.58.54.35,1.33.18,1.9-.05.2-.08,1.33-.69.81-1.03-9.29-6-16.14-15.44-21.77-24.78-4.85-8.04-8.97-16.53-12.5-25.21-.71-1.75-1.41-3.5-2.04-5.28-.32-.9-2.41-.07-2.78.41-1.53,1.98-3.06,3.96-4.59,5.94l-3.23,4.19c-.49.64-1.3,1.38-1.64,2.13s.12,2.06.25,2.88c.24,1.4.51,2.79.83,4.18.58,2.58,1.3,5.13,2.14,7.63,1.6,4.77,3.66,9.39,6.09,13.79,7.68,13.93,18.95,25.81,31.8,35.09,2.64,1.9,5.35,3.77,8.21,5.34.51.28,2.57-.08,2.61-.86.77-17.16,2.79-34.3,4.67-51.37,2.24-20.36,4.69-40.69,7.13-61.02,1.01-8.41,2.03-16.82,2.98-25.24.11-.99-2.78-.44-2.88.42h0Z"/>
    </g>
    <g>
      <path class="cls-3" d="M985,547.27s-34.38,47.61-98.69,36.92c-52.31-8.7-30.44-42.62-30.44-42.62l15.11-5.89s-25.81,26.17,15.58,33.32c41.39,7.15,69.95-13.86,76-18.52,6.06-4.66,12.12-10.12,12.12-10.12l10.32,6.91Z"/>
      <path class="cls-14" d="M983.65,547.24c-3.35,4.64-7.56,8.65-11.91,12.45-10.25,8.94-22.24,15.99-35.17,20.26-18.31,6.04-38.43,6.55-57.12,1.85-11.6-2.91-25.08-9.28-26.53-22.65-.41-3.78.22-7.61,1.41-11.2.75-2.27,1.75-3.96,2.73-6.07.04-.1.11-.19.17-.28l-.78.57c5.04-1.96,10.07-3.93,15.11-5.89l-1.74-.84c-2.97,3.01-5.45,6.77-6.97,10.71-1.14,2.95-1.69,6.25-.9,9.36,1,3.95,4,6.89,7.4,8.93,6.11,3.67,13.55,5.08,20.51,5.99,8.2,1.07,16.5,1.16,24.72.19,12.79-1.51,25.23-5.55,36.54-11.7,8.45-4.59,15.88-10.55,23.1-16.87.55-.48,1.09-.96,1.63-1.44l-2.32.46c3.44,2.3,6.88,4.61,10.32,6.91.79.53,3.46-.63,2.3-1.41-3.44-2.3-6.88-4.61-10.32-6.91-.61-.41-1.84.04-2.32.46-6.6,5.93-13.18,11.43-20.69,15.92-9.75,5.83-20.56,9.98-31.74,12.04-7.56,1.39-15.27,1.85-22.95,1.38s-15.68-1.56-22.78-4.57c-3.87-1.64-7.88-4.1-9.75-8.03-1.36-2.86-1.36-6.03-.54-9.04.76-2.79,2.14-5.38,3.77-7.75.62-.91,1.29-1.79,1.99-2.65.26-.31.52-.62.78-.92s-.05.05.13-.15c.07-.08.15-.16.22-.24.06-.07.13-.13.19-.2,1.11-1.13-1.13-1.08-1.74-.84-2.44.95-4.88,1.9-7.32,2.86s-5.26,1.85-7.74,3.02c-.81.38-1.07.98-1.48,1.72-.68,1.25-1.27,2.54-1.79,3.86-1.56,3.95-2.42,8.22-2.13,12.48.38,5.63,3.05,10.73,7.18,14.53,6.79,6.22,16.22,9.1,25.06,10.85,11.55,2.29,23.5,2.84,35.2,1.4,17.78-2.19,34.79-9.1,49.23-19.67,4.81-3.52,9.35-7.41,13.51-11.68,2.09-2.15,4.24-4.37,5.99-6.82.08-.11.16-.21.24-.31.41-.56-.35-.84-.79-.86-.65-.04-1.52.24-1.91.79Z"/>
    </g>
    <path class="cls-21" d="M877.66,518.74s13.95,7.67,20.98,8.89c7.03,1.22,19.18,3.02,59.6-8.08,0,0-23.55,21.72-59.57,14.98,0,0-21.96-3.77-23.51-8.39l2.5-7.4Z"/>
    <path class="cls-20" d="M877.82,332.26s0,0,0,0c1.29-12.55,2.8-20.05,8.73-26.92,4.19-4.85,15.75-7.26,15.75-7.26,0,0,8.24-16.13,14.74-11.07,0,0,15.44-19.87,34.77-6.17,0,0,7.16.69,9.26,6.24,0,0,17.18-15.66,30.72,4.59,0,0,8.86-2.12,9.12,4.62,0,0,16.84-7.61,25.44,6.73,0,0,33.41,5.12,33.62,28.15,0,0,17.96-2.37,20.3,15.36,0,0,7.57,3.53,3.49,14.77,0,0,10.35,7.86,8.73,15.62,0,0,4.68,8-.08,19.58-1.36,3.31-2.11,2.02-4.83,6.18,1.51,15.78-8.88,13.77-8.88,13.77,5.42,16.13-12.82,26.97-12.82,26.97,0,0,1.42,11.49-3.57,16.65-6.81,7.05-25.85,10.55-25.85,10.55,0,0,4.57-24.09,10.71-38.16,6.14-14.07,4.01-43.33,2.26-50.14-1.75-6.81-32.2-6.93-73.37-22.01-41.17-15.07-46.65-25.75-52.05-26.18-11.21-.9-33.43,33.4-37.28,44.83-3.85,11.43-14.98,31.56-14.98,31.56,0,0-18.33-17.72-5.53-34.57,0,0-2.19-16.35,3.62-23.59,0,0,1.58-3.31,4.31-4.28-.02-.05-4.35-11.2,3.67-15.83Z"/>
    <path class="cls-12" d="M970.2,513.54c-23.18,13.02-47.49,18.78-72.54,15.53-24.58-3.18-40.38-17.05-42.41-21.54-11.16-24.63-12.48-40.25-11.58-64.32.24-6.53,2.24-12.99,4.89-19.39,3.96-9.6,12.26-27.78,15.34-37.21,7.82-24.01,17.89-44.75,37.92-60.31,41.73-32.41,106.72-9.18,127,10.64,23.7,23.17,27.1,54.91,18.86,84.6-2.68,9.68-6.7,18.23-11.87,25.62-5.55,3.07-10.69,6.71-15.4,10.81"/>
    <g>
      <path d="M900.97,328.74s-2.54,1.21-25.68,28.35c6.45-8.95,13.21-23.39,25.82-34.64,44.01-39.29,127.69-3.13,147.32,18.63,22.95,25.44,22.67,60.52,12.84,95.02-3.99,14.01-7.93,34.66-15.62,44.77-.23.09-18.56,5.52-18.56,5.52,0,0-10.76-18.84-24.98-4.96l-.39-8.11s-4.65-20,10.67-60.39c0,0,5.84-17.32,7.84-22.44,6.16-15.77-8.27-16.99-18.34-17.62-6.26-.39-18.98-3.68-24.83-5.84-14.96-5.53-33.19-14.55-40.28-16.91-9.96-3.33-35.81-21.36-35.81-21.36Z"/>
      <path d="M900.86,328.72c-.17.08-.32.22-.47.35-.63.52-1.21,1.1-1.79,1.68-3.85,3.82-7.44,7.91-11.02,11.97-4.2,4.76-8.34,9.56-12.46,14.39l.37-.05c3.74-5.19,6.87-10.8,10.39-16.14,4.31-6.53,9.12-12.76,14.92-18.04,4.46-4.06,9.5-7.47,14.92-10.12,5.32-2.6,10.97-4.47,16.75-5.71,5.87-1.26,11.86-1.87,17.86-1.99,6.1-.12,12.2.28,18.24,1.07,6.03.79,12.02,1.98,17.91,3.48,5.81,1.48,11.54,3.28,17.17,5.35,5.26,1.94,10.44,4.13,15.5,6.57,4.54,2.19,9,4.59,13.29,7.23,3.62,2.23,7.14,4.63,10.42,7.33,3.59,2.94,6.69,6.3,9.49,10.01,4.41,5.85,7.87,12.38,10.31,19.28,2.43,6.87,3.84,14.07,4.43,21.32.61,7.54.35,15.14-.52,22.66-.92,7.93-2.52,15.77-4.57,23.48-.91,3.41-1.89,6.79-2.77,10.21s-1.78,6.93-2.71,10.39c-1.84,6.82-3.81,13.69-6.78,20.12-.65,1.42-1.36,2.81-2.15,4.15-.36.62-.74,1.23-1.14,1.82-.19.29-.39.57-.59.85-.09.12-.24.42-.29.46-.19.15-.75.23-1.03.31-.75.23-1.51.45-2.26.67-4.18,1.24-8.36,2.48-12.54,3.72-.88.26-1.76.52-2.65.78h.21c-1.22-2.13-2.9-4.09-4.7-5.75-3.27-3-7.52-5-12.02-4.12-3.34.65-6.22,2.64-8.63,4.98l.37-.07c-.06-1.23-.12-2.46-.18-3.68-.07-1.44-.05-2.91-.21-4.34-.06-.57-.2-1.14-.27-1.72-.63-4.8-.47-9.73-.05-14.54.87-10.11,3.13-20.08,6.06-29.78.99-3.27,2.06-6.51,3.2-9.73.63-1.78,1.33-3.53,1.94-5.32,1.09-3.21,2.18-6.42,3.29-9.63,1.3-3.76,2.58-7.52,3.98-11.24s2.85-8,.93-11.78c-1.55-3.04-4.86-4.55-8.01-5.39-3.66-.98-7.45-1.18-11.21-1.45-5.1-.37-10.19-1.66-15.12-2.95-5.08-1.34-9.98-3.01-14.86-4.96-5.88-2.35-11.67-4.9-17.46-7.46-4.66-2.07-9.31-4.19-14.04-6.1-1.49-.6-3.01-1.09-4.5-1.68-1.57-.62-3.09-1.36-4.59-2.13-3.79-1.94-7.45-4.12-11.07-6.35-6.1-3.76-12.1-7.71-18-11.77-.33-.23-.65-.45-.98-.68-.09-.06-.41.1-.37.13,4.4,3.07,8.87,6.03,13.38,8.93,3.78,2.43,7.6,4.81,11.5,7.05,3.18,1.83,6.43,3.66,9.85,4.99,1.5.59,3.04,1.09,4.53,1.69,2.17.88,4.31,1.81,6.45,2.75,5.42,2.38,10.82,4.82,16.27,7.16s10.72,4.63,16.25,6.45c4.99,1.64,10.11,2.96,15.26,4,2.27.46,4.57.87,6.88,1.07,1.92.16,3.84.25,5.76.46,3.6.4,7.47,1.03,10.57,3.02,1.39.9,2.57,2.11,3.27,3.63.79,1.72.9,3.66.66,5.51-.29,2.2-1.09,4.24-1.86,6.3-.65,1.75-1.28,3.51-1.9,5.27-1.39,3.95-2.75,7.91-4.1,11.88-1.1,3.24-2.3,6.45-3.43,9.68-3.74,10.69-6.75,21.71-8.29,32.94-.81,5.96-1.27,12.05-.79,18.06.09,1.13.21,2.27.42,3.39.03.16.06.31.07.48.13,1.5.14,3.02.22,4.52.05,1.15.11,2.29.16,3.44,0,.09.34-.04.37-.07,2.25-2.18,4.94-4.13,8.07-4.78,2.28-.47,4.63-.18,6.77.71,3.4,1.42,6.2,4.11,8.38,7.03.5.66.98,1.35,1.39,2.07.03.05.17.02.21,0,3.06-.91,6.13-1.82,9.19-2.72,2.12-.63,4.25-1.26,6.37-1.89.72-.21,1.43-.43,2.15-.64.28-.08.64-.13.9-.27.39-.21.69-.84.94-1.2.42-.61.81-1.23,1.19-1.87.79-1.34,1.5-2.72,2.16-4.12,1.47-3.14,2.67-6.4,3.75-9.69,2.3-6.98,4.05-14.12,5.89-21.22,1.92-7.38,4.08-14.68,5.53-22.17,1.48-7.64,2.43-15.39,2.6-23.17.16-7.49-.41-15.01-1.97-22.34-1.53-7.18-4.03-14.15-7.56-20.58-3.04-5.54-6.82-10.88-11.36-15.31-2.76-2.7-5.84-5.07-9.01-7.27-3.93-2.73-8.05-5.18-12.26-7.44-4.82-2.59-9.77-4.91-14.82-7.01-5.42-2.25-10.95-4.24-16.56-5.95-5.87-1.78-11.83-3.26-17.86-4.38-6.02-1.11-12.11-1.86-18.22-2.15-6.02-.28-12.06-.12-18.04.62-5.78.72-11.5,1.98-16.99,3.9-5.49,1.92-10.76,4.51-15.58,7.78-5.84,3.97-10.92,8.93-15.34,14.42-4.59,5.69-8.43,11.91-12.3,18.1-1.54,2.46-3.09,4.92-4.78,7.28-.03.04.31.02.37-.05,6.13-7.19,12.29-14.36,18.68-21.32,2.06-2.24,4.11-4.57,6.42-6.57.15-.13.3-.25.45-.37-.03.02.16-.09.06-.05.23-.11-.13-.09-.22-.05Z"/>
    </g>
    <path class="cls-12" d="M988,497.34c7.83,16.57,24.67,3.49,24.67,3.49,16.5-10.08,21.59-25.08,24.65-35.47,3.06-10.39-8.27-14.08-8.27-14.08-9.93-2.21-8.96-.63-31.21,22.21"/>
    <path d="M948.51,425.48c3.27-.35,5.98,2.11,7.15,4.39.28.53.99,2.03.82,4.03-.22,2.55-2.14,4.79-4.19,5.8-2.74,1.36-6.07.47-8.08-1.63-2.72-2.85-2.24-7.28-.28-9.87.36-.47,1.95-2.44,4.59-2.72"/>
    <path d="M929.52,431.57s14.68-9.23,24.85-5.34c14.32,5.48,14.67,14.35,16.22,19.48,0,0-5.61-12.81-16.77-16.8-10.13-3.62-24.29,2.66-24.29,2.66Z"/>
    <path d="M878.42,398.13c-1.99-2.41-5.44-2.35-7.71-1.42-.54.22-2,.86-3.18,2.47-1.52,2.04-1.67,4.97-.94,7.07.97,2.81,3.81,4.34,6.54,4.09,3.71-.34,6.27-3.95,6.63-7.16.06-.59.27-3.1-1.34-5.04"/>
    <path d="M891.74,417.15s-3.15-16.06-11.94-19.44c-12.37-4.75-18.28,1.71-22.53,4.62,0,0,11.69-6.17,21.15-2.25,8.58,3.56,13.31,17.07,13.31,17.07Z"/>
    <g>
      <path class="cls-5" d="M888.57,456.51c2.14,2.4,6.31,3.6,9.61,2.94.73-.14,2.58.96,1.55,1.16-4.36.86-10.26-1.12-13.01-4.22-.27-.31-.11-.55.37-.53.5.02,1.19.31,1.48.64"/>
      <path class="cls-5" d="M901.17,460.29c2.1-.18,4.28.13,6.33.73.3.09.64.34.78.62.11.21.07.43-.2.47-1.12.18-2.38-.04-3.45-.46-.34-.13-.76-.39-.84-.75-.08-.34.32-.39.58-.29.89.35,1.86.52,2.79.37.2.36.39.73.59,1.09-1.84-.53-3.79-.79-5.67-.64-.37.03-.79-.24-1.02-.52-.16-.21-.28-.59.09-.62"/>
      <path class="cls-5" d="M909.02,463.53c2.36.82,5.5.84,7.31-.5,2.74-2.01,2.78-7.11.5-9.91-.25-.31.01-.48.36-.43.45.07.89.41,1.15.73,1.99,2.44,2.25,6.8.94,9.16-1.23,2.2-4.08,2.99-7.14,2.62-.91-.11-1.85-.31-2.73-.62-.36-.13-.95-.47-1.02-.82-.07-.35.3-.35.64-.23"/>
      <path class="cls-5" d="M884.73,453.71c.23-.22.06-.49-.13-.55-.64-.22-1.22-.64-1.59-1.28-.3.18-.6.35-.9.53,1.21.61,2.33,1.51,3.17,2.69.17.24.53.26.79.17.2-.07.47-.3.3-.54"/>
      <path class="cls-5" d="M886.37,454.71c-.95-1.32-2.2-2.31-3.56-2.99-.2-.1-.51-.09-.73.05-.18.11-.28.3-.17.48"/>
      <path class="cls-5" d="M879.75,452.19c-1.5-.63-2.91-2.33-2.99-4.38-.13-3.09,2.11-5.87,4.64-6.85.28-.11.26-.39.07-.54-.24-.19-.62-.16-.91-.05-2.21.86-4.19,2.87-4.88,5.47-.64,2.43.2,4.61,1.77,5.97.47.4.99.76,1.55,1,.23.09.68.14.9-.09.22-.24.05-.44-.16-.53"/>
    </g>
    <path d="M942.72,396.04c-.83,2.29-1.65,4.59-2.48,6.89-.63,1.75-1.25,3.51-1.87,5.26,5.68.39,13.19,1.88,16.75,2.46,7.05,1.13,14.21,2.84,20.49,6.37,3,1.69,5.49,3.59,7.52,6.32.64.86,2.04,4.1,3.52,3.93.61-.07.78-3.19.8-3.52.33-6.31-3.32-10.31-8.34-13.65-10.24-6.83-21.65-10.61-33.64-13.19"/>
    <path d="M863.74,380.28c.85-1.31,1.57-2.69,2.08-4.19,1.23-.19,2.51-.3,3.84-.33,12.12-.27,23.59,2.64,34.89,6.89-.54,2.37-1.08,4.75-1.63,7.14-.42,1.82-.83,3.63-1.26,5.44-4.91-2.72-9.19-4.73-12.44-6.15-6.45-2.82-13.28-5.22-20.36-5.61-2.05-.11-3.98-.04-5.88.29l.77-3.48Z"/>
    <path class="cls-6" d="M891.88,473.08c10.32,3.36,26.89,8.72,26.89,8.72,0,0-11.07,24.87-35.01,17.07-23.94-7.8-16.06-34.58-16.06-34.58,0,0,13.86,5.43,24.18,8.79Z"/>
    <path class="cls-18" d="M891.78,473.05c4.91,1.6,24.37,8.43,24.37,8.43,0,0-12.41,13.82-30.16,8.04-19.25-6.27-15.66-22.61-15.66-22.61l21.45,6.15Z"/>
    <path class="cls-10" d="M891.27,473.88c4.91,1.6,19.53,6.85,19.53,6.85,0,0-6.89,3.48-21.61-1.32-14.72-4.8-17.95-11.36-17.95-11.36l20.04,5.83Z"/>
    <path class="cls-6" d="M867.43,463.08c.58.01.58,0,3.13.55,4.25.91,6.51-.2,9.58.5,5.24,1.18,7.67,4.68,9.89,5.4,2.21.72,6.24-.67,11.17,1.46,2.89,1.25,9.18,6.38,13.15,8.15,2.38,1.06,4.09,1.91,4.57,2.24.66.46-.69,4.09-28.48-4.97-27.8-9.06-23.81-13.34-23.01-13.32Z"/>
    <path class="cls-15" d="M1007.47,476.06c3.34-3.97,6.87-7.83,10.84-11.18,2.12-1.78,4.41-3.5,6.96-4.62.67-.29,1.35-.54,2.06-.7.25-.06.88-.12.99-.12.09,0,.25.05.33.02-.16.06-.03-.07,0,0-.2-.62-.23-.24-.26-.17-.02.04.08.18.09.23.05.4.25.81.34,1.21,1.05,4.76-.47,9.74-2.76,13.91-.35.64,1.11.53,1.36.07,2.26-4.11,3.74-8.88,2.99-13.6-.14-.9-.19-2.42-1.28-2.54s-2.38.24-3.43.63c-2.45.89-4.67,2.36-6.72,3.93-4.74,3.64-8.84,8.09-12.68,12.66-.56.67.83.71,1.18.3h0Z"/>
    <path class="cls-15" d="M1007.71,479.21c1.68.37,2.63,1.18,2.1,2.94-.41,1.39-1.24,2.63-1.72,4-.37,1.05-.54,2.27.18,3.22.55.72,1.47.87,2.31.67,3.14-.76,5.09-4.83,6.26-7.47.89-2,1.82-3.98,2.43-6.1.9-3.15,1.38-7.21-1.49-9.49-.46-.37-1.75.3-1.13.8,2.38,1.88,2.02,5.36,1.39,7.98-.48,1.96-1.27,3.76-2.1,5.59-.76,1.66-1.46,3.31-2.48,4.83-.67,1.01-1.66,2.46-2.88,2.87-.71.24-1.13-.34-1.29-.99-.29-1.18.41-2.46.9-3.49.55-1.17,1.34-2.52,1.25-3.86-.11-1.53-1.57-2.14-2.89-2.43-.57-.12-1.71.73-.85.92h0Z"/>
    <path d="M1004.15,560.12s-46.65,18.54-59.77,76.66c-13.12,58.12,19.14,120.04,33.87,142.3,0,0-3.56-65.05,1.18-93.92,4.73-28.87,4.76-88.64,73.02-91.21,0,0-16.05-26.61-48.29-33.83Z"/>
    <path d="M827.43,550.32s-23.84,10.26-45.13,57.33c-14.31,31.64-25.04,88.82-41.85,136.86,0,0-9.71-68.25,8.42-128.46,14.78-49.1,78.57-65.73,78.57-65.73Z"/>
    <path class="cls-6" d="M582.08,313.78c-13.68-4.71-35.61-12.32-35.61-12.32,0,0-6.94,32.82,24.78,43.74,31.72,10.93,43.61-21.36,43.61-21.36,0,0-19.1-5.36-32.78-10.07Z"/>
    <path class="cls-18" d="M582.22,313.82c-6.51-2.24-32.7-10.61-32.7-10.61,0,0,3.35,22.14,26.88,30.25,25.51,8.79,33.57-8.95,33.57-8.95l-27.75-10.69Z"/>
    <path class="cls-10" d="M582.09,315.12c-6.51-2.24-26.27-8.4-26.27-8.4,0,0,4.53,9.23,24.05,15.95,19.52,6.72,28.22,2.34,28.22,2.34l-26-9.89Z"/>
    <path class="cls-6" d="M616.12,322.77q-.63-.45-3.77-1.92c-5.25-2.45-6.77-5.44-10.59-7.17-6.52-2.95-11.92-1.19-14.85-2.2-2.93-1.01-6.09-5.73-13.05-7.42-4.08-.99-14.88-.59-20.53-1.9-3.39-.78-5.89-1.26-6.66-1.29-1.07-.04-2.55,4.9,34.29,17.59,36.84,12.69,36.04,4.93,35.17,4.31Z"/>
    <path class="cls-12" d="M645.12,724.5l14.19-3.51s53.48,22.99,70.29,23.38c12.19-.23,24.41-2.38,36.3-6.39l13.64,4.85c6.28,2.24,13.2,1.89,19.6-.97l4.93-2.21s15.32,11.33,19.14,5.91c3.82-5.42-.82-11.44-5.33-17.29-4.51-5.85-103.47-62.16-103.47-62.16,9.87-3.74,27.18-.64,37.35-2.47,15.64-2.68,21.11-10.06,14.95-16.32-3.8-3.86-16.18-6.93-24.83-2.96-8.61,3.96-47.7-7.61-63.29-2.43-15.59,5.18-28.16,26.24-28.16,26.24-8.01,3.91-14.01,2.27-14.01,2.27-1.24,5.94,8.7,54.04,8.7,54.04Z"/>
    <path class="cls-15" d="M803.37,738.8c-6.04-3.62-12.68-6.33-19.1-9.18-7.96-3.54-15.98-6.98-23.84-10.76-3.14-1.51-6.32-3.05-9.25-4.96-.81-.53-2.71.59-1.67,1.26,5.88,3.84,12.57,6.59,18.95,9.46,7.95,3.58,15.97,7,23.88,10.68,3.17,1.47,6.36,2.95,9.36,4.75.83.49,2.73-.63,1.67-1.26h0Z"/>
    <path class="cls-15" d="M764.14,736.44c-10.82-3.82-21.64-7.63-32.46-11.45-1.54-.54-3.07-1.08-4.61-1.62-.94-.33-2.55,1.02-1.25,1.48,10.82,3.82,21.64,7.63,32.46,11.45,1.54.54,3.07,1.08,4.61,1.62.94.33,2.55-1.02,1.25-1.48h0Z"/>
    <path class="cls-15" d="M673.15,749.54c1.88,2.66,3.65,5.36,4.71,8.46,1.54,4.5,1.72,9.33,1.45,14.04-.24,4.27-.86,8.51-1.62,12.71-.18,1,2.03.69,2.19-.2,1.83-10.16,3.52-21.86-1.74-31.32-.89-1.6-1.94-3.11-2.99-4.6-.52-.73-2.6.07-2,.92h0Z"/>
    <path class="cls-11" d="M1088.86,719.14l-99.07,13.7-.21,29.67-8.05,111.4c16.28,6.97,53.13.29,70.16,5,9.85,2.73,8.57.51,18.28,3.71,1.8-7.04,8.63-95.43,9.76-102.08,3.22-18.96,7.06-4.91,9.13-61.4Z"/>
    <path class="cls-11" d="M1079.44,787.82s-6.72,72.94-7.08,76.32c-2.22,21.06-2.33,56.8-15.29,77.51-17.4,27.82-85.76,16.51-90.43,1.96-13.24-41.25,35.36-97.18,35.36-97.18l77.44-58.61Z"/>
    <path class="cls-11" d="M1045.85,949.16c-6.91,7.81-20.71,15.61-42.48,15.96-84.35,1.34-179.39-25.02-238.62-38.96l14.82-20.11-6.06-23.13,214.61-6.72"/>
    <path class="cls-16" d="M981.48,874.77c5.77,4.53,11.34,9.38,16.13,14.96,4.5,5.24,8.47,11.3,9.91,18.16.79,3.81.67,7.68-.37,11.42-.22.79,1.97.48,2.17-.27,3.99-14.42-6.23-27.52-16.09-36.82-3.1-2.93-6.38-5.67-9.73-8.3-.61-.48-2.62.38-2.02.86h0Z"/>
    <path class="cls-3" d="M1096.39,700.59l-5.85,140.59s-26.75,14.42-115.32-.21c-7.68-1.27,7.99-124.4,7.99-124.4l113.17-15.98Z"/>
    <g>
      <path class="cls-3" d="M981.4,682.94c-12.3,73.88-8.71,158.92-8.71,158.92l9.54,2.89c6.52,1.98,13.22,3.33,20,4.02,21.7,2.21,70.56,6.57,80.62,2.23l6.47-.54,1.55-15.99s-53.37,6.91-109.07-7.57"/>
      <path class="cls-14" d="M979.93,683.03c-2.41,14.5-4.18,29.1-5.52,43.73-1.29,14.04-2.18,28.11-2.78,42.2-.5,11.98-.79,23.98-.87,35.97-.06,8.57-.02,17.13.15,25.7.07,3.68-.09,7.5.31,11.17,0,.05,0,.1,0,.15.02.42.21.8.65.94,7.08,2.15,14.12,4.44,21.41,5.78,8.87,1.64,18.01,2.18,26.99,2.95s18.84,1.5,28.28,1.94c8.18.38,16.42.69,24.6.18,2.96-.18,6.04-.41,8.89-1.28.29-.09.57-.19.85-.29.12-.04.3-.09.41-.16.4-.26-.8.01-.48.11.48.15,1.46-.12,1.94-.16,1.48-.12,2.97-.25,4.45-.37.66-.06,1.51-.47,1.58-1.22.52-5.33,1.04-10.66,1.55-15.99.07-.71-.75-1.12-1.36-1.04-7.06.91-14.23,1.25-21.34,1.48-17.2.55-34.45-.17-51.53-2.28-12.07-1.49-24.05-3.7-35.82-6.75-1.5-.39-2.86,1.74-.97,2.23,20.03,5.19,40.65,7.95,61.3,8.87,13.64.61,27.34.5,40.96-.59,2.4-.19,4.8-.39,7.18-.7l-1.36-1.04c-.52,5.33-1.04,10.66-1.55,15.99l1.58-1.22c-1.24.1-2.49.21-3.73.31s-2.54.08-3.72.52c-.26.1,0,0,.04-.02-.12.04-.24.08-.36.12-.22.06-.43.13-.65.19-.54.15-1.09.26-1.64.37-1.09.21-2.44.36-3.7.48-7.7.71-15.52.46-23.24.15-9.36-.37-18.7-1.03-28.03-1.8-8.25-.68-16.55-1.28-24.76-2.36-8.97-1.18-17.51-3.85-26.13-6.46l.65.94c-.13-2.99-.2-5.98-.26-8.97-.18-8.07-.24-16.14-.22-24.21.04-11.65.27-23.29.7-34.93.51-13.84,1.31-27.67,2.48-41.47,1.24-14.7,2.89-29.38,5.15-43.96.28-1.8.57-3.59.87-5.39.25-1.53-2.72-1.21-2.95.18h0Z"/>
    </g>
    <path class="cls-12" d="M694.33,937.23c-.87.01-6.76.61-7.58.32-2.97-1.07-4.56-2.56-5.41-5.06-.3-1.05-1.59-5.4-1.53-6.47.11-2.08-.1-.69-2.04-1.45l-2.49-.98c-.96-.38-1.82-1.02-2.37-1.89-1.14-1.81-2-3.78-2.55-5.85-.76-3.56,3.66-9.6,3.66-9.6l-2.79-.64c-3.06-1.32-3.99-2.56-4.4-5.87l-.14-1.57c.11-1.57.46-3.11,1.02-4.56.91-2.31,0-4.91-2.12-6.2-1.78-1.09-3.48-2.49-3.82-3.99-.71-5.93,2.07-11.73,7.11-14.88.33-.2.68-.37,1.04-.5,9.75-3.61,19.73-6.58,29.87-8.87.71-.16,11.35-5.48,11.95-5.82,5.27,2.3.9,8.02,6.8,7.55,5.46-.43,10.82-1.64,16.23-2.39,1.75-.24,3.5.51,4.6,1.89,0,0,.01.02.02.03.31.39.68.73,1.1,1.02l27.91,22.16c1.63,1.12,10.33-.71,10.52,1.26,2.03,21.52-1.28,43.55-.64,43.54.72-.01-16.58-3.1-21.68.29,0,0-34.57,8.21-62.29,8.55Z"/>
    <path class="cls-12" d="M705.35,862.45c.53-1.07,4.49-7.34,4.38-8.62-.03-.36-.09-.71-.18-1.06-2.65-9.67-3.83-19.68-3.49-29.7.96-10.82,6.76-14.02,10.7-14.99,1.67-.4,3.35.63,3.75,2.31.04.17.07.35.08.53.29,6.98,1.02,13.94,2.18,20.83.87,3.42,10.09,19.09,15.84,28.66-10.11.17-24.32,6.71-33.26,2.03Z"/>
    <path class="cls-15" d="M708.08,841.91c-.93-3.43-1.82-6.86-1.68-10.44.07-1.71.24-3.41.34-5.11.15-2.47.2-4.91.8-7.33.81-3.3,2.48-6.47,5.32-8.44.92-.64,1.96-1.13,3.03-1.47.78-.24,1.52-.4,2.26.09,1.15.75,1.07,2.04,1.14,3.25.33,6.57,1.05,13.11,2.13,19.59.18,1.08,2.36.52,2.17-.58-1.12-6.67-1.79-13.37-2.14-20.12-.11-2.16-1.31-3.91-3.6-4.17-1.47-.17-3.11.51-4.42,1.13-2.99,1.42-5.3,3.88-6.72,6.85-2.18,4.53-2.04,9.57-2.4,14.47-.13,1.79-.21,3.57-.03,5.35.26,2.55.95,5.05,1.62,7.51.29,1.07,2.47.49,2.17-.58h0Z"/>
  </g>
</svg>