<svg width="146" height="115" viewBox="0 0 146 115" fill="none" xmlns="http://www.w3.org/2000/svg" xmlns:xlink="http://www.w3.org/1999/xlink">
<mask id="path-1-inside-1_128_1549" fill="white">
<path d="M62 53.3537C62 57.8707 60.8678 62.2226 58.8281 65.5457C56.7885 68.8687 53.9904 70.92 50.9893 71.2924C47.9882 71.6648 45.0035 70.3311 42.6275 67.556C40.2515 64.7809 38.658 60.7672 38.1631 56.3116C37.6683 51.856 38.3083 47.2842 39.9562 43.5035C41.6041 39.7229 44.1394 37.0098 47.0589 35.9027C49.9784 34.7956 53.0687 35.3755 55.7164 37.5272C58.3641 39.679 60.3757 43.2453 61.3519 47.5183L58.4791 48.9951C57.7499 45.8034 56.2474 43.1396 54.2698 41.5324C52.2921 39.9252 49.9839 39.4921 47.8032 40.319C45.6225 41.1459 43.7288 43.1724 42.498 45.9963C41.2671 48.8202 40.789 52.235 41.1586 55.563C41.5283 58.8911 42.7185 61.889 44.4933 63.9619C46.268 66.0347 48.4974 67.0309 50.739 66.7527C52.9806 66.4746 55.0705 64.9424 56.594 62.4603C58.1175 59.9782 58.9632 56.7276 58.9632 53.3537H62Z"/>
</mask>
<path d="M62 53.3537C62 57.8707 60.8678 62.2226 58.8281 65.5457C56.7885 68.8687 53.9904 70.92 50.9893 71.2924C47.9882 71.6648 45.0035 70.3311 42.6275 67.556C40.2515 64.7809 38.658 60.7672 38.1631 56.3116C37.6683 51.856 38.3083 47.2842 39.9562 43.5035C41.6041 39.7229 44.1394 37.0098 47.0589 35.9027C49.9784 34.7956 53.0687 35.3755 55.7164 37.5272C58.3641 39.679 60.3757 43.2453 61.3519 47.5183L58.4791 48.9951C57.7499 45.8034 56.2474 43.1396 54.2698 41.5324C52.2921 39.9252 49.9839 39.4921 47.8032 40.319C45.6225 41.1459 43.7288 43.1724 42.498 45.9963C41.2671 48.8202 40.789 52.235 41.1586 55.563C41.5283 58.8911 42.7185 61.889 44.4933 63.9619C46.268 66.0347 48.4974 67.0309 50.739 66.7527C52.9806 66.4746 55.0705 64.9424 56.594 62.4603C58.1175 59.9782 58.9632 56.7276 58.9632 53.3537H62Z" fill="#F1C25F" stroke="#47493B" stroke-width="2" mask="url(#path-1-inside-1_128_1549)"/>
<mask id="path-2-inside-2_128_1549" fill="white">
<path d="M91 52.3537C91 56.8707 92.1794 61.2226 94.304 64.5457C96.4287 67.8687 99.3433 69.92 102.469 70.2924C105.596 70.6648 108.705 69.3311 111.18 66.556C113.655 63.7809 115.315 59.7672 115.83 55.3116C116.346 50.856 115.679 46.2842 113.962 42.5035C112.246 38.7229 109.605 36.0098 106.564 34.9027C103.523 33.7956 100.303 34.3755 97.5454 36.5272C94.7874 38.679 92.692 42.2453 91.6751 46.5183L94.6676 47.9951C95.4271 44.8034 96.9923 42.1396 99.0523 40.5324C101.112 38.9252 103.517 38.4921 105.788 39.319C108.06 40.1459 110.032 42.1724 111.315 44.9963C112.597 47.8202 113.095 51.235 112.71 54.563C112.325 57.8911 111.085 60.889 109.236 62.9619C107.388 65.0347 105.065 66.0309 102.73 65.7527C100.395 65.4746 98.2182 63.9424 96.6312 61.4603C95.0442 58.9782 94.1633 55.7276 94.1633 52.3537H91Z"/>
</mask>
<path d="M91 52.3537C91 56.8707 92.1794 61.2226 94.304 64.5457C96.4287 67.8687 99.3433 69.92 102.469 70.2924C105.596 70.6648 108.705 69.3311 111.18 66.556C113.655 63.7809 115.315 59.7672 115.83 55.3116C116.346 50.856 115.679 46.2842 113.962 42.5035C112.246 38.7229 109.605 36.0098 106.564 34.9027C103.523 33.7956 100.303 34.3755 97.5454 36.5272C94.7874 38.679 92.692 42.2453 91.6751 46.5183L94.6676 47.9951C95.4271 44.8034 96.9923 42.1396 99.0523 40.5324C101.112 38.9252 103.517 38.4921 105.788 39.319C108.06 40.1459 110.032 42.1724 111.315 44.9963C112.597 47.8202 113.095 51.235 112.71 54.563C112.325 57.8911 111.085 60.889 109.236 62.9619C107.388 65.0347 105.065 66.0309 102.73 65.7527C100.395 65.4746 98.2182 63.9424 96.6312 61.4603C95.0442 58.9782 94.1633 55.7276 94.1633 52.3537H91Z" fill="#F1C25F" stroke="#47493B" stroke-width="2" mask="url(#path-2-inside-2_128_1549)"/>
<mask id="path-3-inside-3_128_1549" fill="white">
<path d="M51 25.3537H103V59.3537C103 73.7131 91.3594 85.3537 77 85.3537C62.6406 85.3537 51 73.7131 51 59.3537V25.3537Z"/>
</mask>
<path d="M51 25.3537H103V59.3537C103 73.7131 91.3594 85.3537 77 85.3537C62.6406 85.3537 51 73.7131 51 59.3537V25.3537Z" fill="url(#paint0_linear_128_1549)"/>
<path d="M51 25.3537H103H51ZM104 59.3537C104 74.2654 91.9117 86.3537 77 86.3537C62.0883 86.3537 50 74.2654 50 59.3537H52C52 73.1608 63.1929 84.3537 77 84.3537C90.8071 84.3537 102 73.1608 102 59.3537H104ZM77 86.3537C62.0883 86.3537 50 74.2654 50 59.3537V25.3537H52V59.3537C52 73.1608 63.1929 84.3537 77 84.3537V86.3537ZM104 25.3537V59.3537C104 74.2654 91.9117 86.3537 77 86.3537V84.3537C90.8071 84.3537 102 73.1608 102 59.3537V25.3537H104Z" fill="#47493B" mask="url(#path-3-inside-3_128_1549)"/>
<g filter="url(#filter0_d_128_1549)">
<rect x="48" y="22.3537" width="58" height="6" rx="1" fill="#F6D614"/>
<rect x="48.5" y="22.8537" width="57" height="5" rx="0.5" stroke="#47493B"/>
</g>
<g filter="url(#filter1_d_128_1549)">
<path d="M88.4492 82.8566C88.4672 82.8575 88.4842 82.8602 88.5 82.8615V89.8537H65.5V82.9767C65.7858 82.9879 66.2135 83.0444 66.7539 83.1398C67.841 83.3318 69.3001 83.6669 70.7705 84.0305C72.2384 84.3934 73.708 84.7817 74.8105 85.0803C75.3614 85.2294 75.8203 85.3563 76.1416 85.4455C76.3023 85.4901 76.4287 85.5259 76.5146 85.55C76.5574 85.562 76.5902 85.5711 76.6123 85.5773C76.6234 85.5804 76.6321 85.5826 76.6377 85.5842C76.6403 85.5849 76.6422 85.5857 76.6436 85.5861H76.6455L76.7871 85.6262L76.9287 85.5832L76.9307 85.5822C76.932 85.5818 76.934 85.581 76.9365 85.5803C76.9423 85.5785 76.9515 85.5759 76.9629 85.5724C76.9858 85.5655 77.0202 85.5556 77.0645 85.5422C77.1534 85.5152 77.2839 85.4757 77.4502 85.426C77.7831 85.3264 78.259 85.185 78.8301 85.0197C79.9727 84.6889 81.4945 84.2615 83.0146 83.8732C84.5388 83.4839 86.0469 83.1377 87.167 82.966C87.7325 82.8793 88.1682 82.8423 88.4492 82.8566Z" fill="#F1C25F" stroke="#47493B"/>
<mask id="path-8-inside-4_128_1549" fill="white">
<path d="M60 95.3537C60 92.04 62.6863 89.3537 66 89.3537H87C90.3137 89.3537 93 92.04 93 95.3537H60Z"/>
</mask>
<path d="M60 95.3537C60 92.04 62.6863 89.3537 66 89.3537H87C90.3137 89.3537 93 92.04 93 95.3537H60Z" fill="#D6BB81"/>
<path d="M59 95.3537C59 91.4877 62.134 88.3537 66 88.3537H87C90.866 88.3537 94 91.4877 94 95.3537H92C92 92.5923 89.7614 90.3537 87 90.3537H66C63.2386 90.3537 61 92.5923 61 95.3537H59ZM93 95.3537H60H93ZM59 95.3537C59 91.4877 62.134 88.3537 66 88.3537V90.3537C63.2386 90.3537 61 92.5923 61 95.3537H59ZM87 88.3537C90.866 88.3537 94 91.4877 94 95.3537H92C92 92.5923 89.7614 90.3537 87 90.3537V88.3537Z" fill="#47493B" mask="url(#path-8-inside-4_128_1549)"/>
<path d="M56 95.8537H97C101.142 95.8537 104.5 99.2116 104.5 103.354V105.854H48.5V103.354C48.5 99.2116 51.8579 95.8537 56 95.8537Z" fill="#CA6A4F" stroke="#47493B"/>
</g>
<path d="M75.5732 38.3625C76.0223 36.9805 77.9777 36.9805 78.4268 38.3625L80.5654 44.9455C80.9001 45.9756 81.8603 46.673 82.9434 46.673H89.8662C91.319 46.6734 91.9225 48.5329 90.7471 49.3869L85.1475 53.4562C84.2712 54.0928 83.9046 55.2211 84.2393 56.2512L86.3779 62.8342C86.827 64.2161 85.2449 65.366 84.0693 64.5119L78.4697 60.4426C77.5935 59.806 76.4065 59.806 75.5303 60.4426L69.9307 64.5119C68.7551 65.366 67.173 64.2161 67.6221 62.8342L69.7607 56.2512C70.0954 55.2211 69.7288 54.0928 68.8525 53.4562L63.2529 49.3869C62.0775 48.5329 62.681 46.6734 64.1338 46.673H71.0566C72.1397 46.673 73.0999 45.9756 73.4346 44.9455L75.5732 38.3625Z" fill="#D8A60C" stroke="#B48A31"/>
<path d="M120.039 5.88089C120.226 4.80317 121.774 4.80317 121.961 5.88089C122.084 6.58582 122.898 6.92325 123.483 6.51145C124.378 5.88188 125.472 6.97588 124.842 7.87044C124.43 8.45556 124.768 9.27019 125.473 9.39275C126.551 9.58012 126.551 11.1273 125.473 11.3146C124.768 11.4372 124.43 12.2518 124.842 12.837C125.472 13.7315 124.378 14.8255 123.483 14.1959C122.898 13.7841 122.084 14.1216 121.961 14.8265C121.774 15.9042 120.226 15.9042 120.039 14.8265C119.916 14.1216 119.102 13.7841 118.517 14.1959C117.622 14.8255 116.528 13.7315 117.158 12.837C117.57 12.2518 117.232 11.4372 116.527 11.3146C115.449 11.1273 115.449 9.58012 116.527 9.39275C117.232 9.27019 117.57 8.45556 117.158 7.87044C116.528 6.97588 117.622 5.88188 118.517 6.51145C119.102 6.92325 119.916 6.58582 120.039 5.88089Z" fill="white"/>
<path d="M120.531 5.96698C120.623 5.44173 121.377 5.44173 121.469 5.96698C121.654 7.03293 122.887 7.5429 123.771 6.9201C124.207 6.614 124.74 7.14645 124.434 7.58221C123.811 8.46714 124.321 9.69927 125.387 9.88495C125.912 9.97627 125.912 10.7311 125.387 10.8224C124.321 11.0081 123.811 12.2403 124.434 13.1252C124.74 13.5609 124.207 14.0934 123.771 13.7873C122.887 13.1645 121.654 13.6745 121.469 14.7404C121.377 15.2657 120.623 15.2657 120.531 14.7404C120.346 13.6745 119.113 13.1645 118.229 13.7873C117.793 14.0934 117.26 13.5609 117.566 13.1252C118.189 12.2403 117.679 11.0081 116.613 10.8224C116.088 10.7311 116.088 9.97627 116.613 9.88495C117.679 9.69927 118.189 8.46714 117.566 7.58221C117.26 7.14645 117.793 6.614 118.229 6.9201C119.113 7.5429 120.346 7.03293 120.531 5.96698Z" stroke="#F6D614" stroke-opacity="0.8"/>
<path d="M23.1608 14.052C23.7103 12.9448 25.2897 12.9448 25.8392 14.052C26.1715 14.7215 26.9471 15.0427 27.6554 14.8043C28.8269 14.41 29.9437 15.5267 29.5494 16.6983C29.311 17.4066 29.6322 18.1822 30.3017 18.5145C31.4089 19.064 31.4089 20.6434 30.3017 21.1929C29.6322 21.5252 29.311 22.3008 29.5494 23.0091C29.9437 24.1806 28.8269 25.2974 27.6554 24.9031C26.9471 24.6647 26.1715 24.9859 25.8392 25.6554C25.2897 26.7626 23.7103 26.7626 23.1608 25.6554C22.8285 24.9859 22.0529 24.6647 21.3446 24.9031C20.1731 25.2974 19.0563 24.1806 19.4506 23.0091C19.689 22.3008 19.3678 21.5252 18.6983 21.1929C17.5911 20.6434 17.5911 19.064 18.6983 18.5145C19.3678 18.1822 19.689 17.4066 19.4506 16.6983C19.0563 15.5267 20.1731 14.41 21.3446 14.8043C22.0529 15.0427 22.8285 14.7215 23.1608 14.052Z" fill="white"/>
<path d="M23.6084 14.2746C23.9742 13.5377 25.0258 13.5377 25.3916 14.2746C25.8351 15.1677 26.8703 15.5966 27.8154 15.2785C28.5949 15.0164 29.3373 15.7588 29.0752 16.5383C28.7571 17.4834 29.186 18.5186 30.0791 18.9621C30.816 19.3279 30.816 20.3795 30.0791 20.7453C29.186 21.1888 28.7571 22.224 29.0752 23.1691C29.3373 23.9486 28.5949 24.691 27.8154 24.4289C26.8703 24.1108 25.8351 24.5397 25.3916 25.4328C25.0258 26.1697 23.9742 26.1697 23.6084 25.4328C23.1649 24.5397 22.1297 24.1108 21.1846 24.4289C20.4051 24.691 19.6627 23.9486 19.9248 23.1691C20.2429 22.224 19.814 21.1888 18.9209 20.7453C18.184 20.3795 18.184 19.3279 18.9209 18.9621C19.814 18.5186 20.2429 17.4834 19.9248 16.5383C19.6627 15.7588 20.4051 15.0164 21.1846 15.2785C22.1297 15.5966 23.1649 15.1677 23.6084 14.2746Z" stroke="#036695" stroke-opacity="0.8"/>
<path d="M114.039 83.8809C114.226 82.8032 115.774 82.8032 115.961 83.8809C116.084 84.5858 116.898 84.9232 117.483 84.5115C118.378 83.8819 119.472 84.9759 118.842 85.8704C118.43 86.4556 118.768 87.2702 119.473 87.3927C120.551 87.5801 120.551 89.1273 119.473 89.3146C118.768 89.4372 118.43 90.2518 118.842 90.837C119.472 91.7315 118.378 92.8255 117.483 92.1959C116.898 91.7841 116.084 92.1216 115.961 92.8265C115.774 93.9042 114.226 93.9042 114.039 92.8265C113.916 92.1216 113.102 91.7841 112.517 92.1959C111.622 92.8255 110.528 91.7315 111.158 90.837C111.57 90.2518 111.232 89.4372 110.527 89.3146C109.449 89.1273 109.449 87.5801 110.527 87.3927C111.232 87.2702 111.57 86.4556 111.158 85.8704C110.528 84.9759 111.622 83.8819 112.517 84.5115C113.102 84.9232 113.916 84.5858 114.039 83.8809Z" fill="white"/>
<path d="M114.531 83.967C114.623 83.4417 115.377 83.4417 115.469 83.967C115.654 85.0329 116.887 85.5429 117.771 84.9201C118.207 84.614 118.74 85.1464 118.434 85.5822C117.811 86.4671 118.321 87.6993 119.387 87.8849C119.912 87.9763 119.912 88.7311 119.387 88.8224C118.321 89.0081 117.811 90.2403 118.434 91.1252C118.74 91.5609 118.207 92.0934 117.771 91.7873C116.887 91.1645 115.654 91.6745 115.469 92.7404C115.377 93.2657 114.623 93.2657 114.531 92.7404C114.346 91.6745 113.113 91.1645 112.229 91.7873C111.793 92.0934 111.26 91.5609 111.566 91.1252C112.189 90.2403 111.679 89.0081 110.613 88.8224C110.088 88.7311 110.088 87.9763 110.613 87.8849C111.679 87.6993 112.189 86.4671 111.566 85.5822C111.26 85.1464 111.793 84.614 112.229 84.9201C113.113 85.5429 114.346 85.0329 114.531 83.967Z" stroke="#669F4B" stroke-opacity="0.8"/>
<path d="M71.5895 -1.70842e-05C71.4823 0.0642949 71.3752 0.128607 71.268 0.192919C71.2822 0.297689 71.3001 0.400316 71.3215 0.5008C71.4072 0.902732 71.55 1.27037 71.75 1.6037C72.45 2.77037 73.2278 3.89035 74.0834 4.96364C74.1445 5.04031 74.2061 5.11673 74.268 5.19292C74.3752 5.12861 74.4823 5.0643 74.5895 4.99998C74.5514 4.9095 74.5129 4.81926 74.4741 4.72926C73.9297 3.46922 73.3075 2.25587 72.6075 1.0892C72.4075 0.75587 72.1503 0.456836 71.836 0.192102C71.7574 0.125919 71.6753 0.0618789 71.5895 -1.70842e-05Z" fill="#DF4848"/>
<path d="M0.589526 38C0.48234 38.0643 0.375153 38.1286 0.267967 38.1929C0.282238 38.2977 0.300082 38.4003 0.321499 38.5008C0.407166 38.9027 0.55 39.2704 0.75 39.6037C1.45 40.7704 2.22781 41.8903 3.08343 42.9636C3.14454 43.0403 3.20606 43.1167 3.26797 43.1929C3.37515 43.1286 3.48234 43.0643 3.58953 43C3.55144 42.9095 3.51295 42.8193 3.47406 42.7293C2.92968 41.4692 2.30749 40.2559 1.60749 39.0892C1.40749 38.7559 1.15033 38.4568 0.835994 38.1921C0.757411 38.1259 0.675255 38.0619 0.589526 38Z" fill="#DF4848"/>
<path d="M23.6875 41.3537C23.5625 41.3537 23.4375 41.3537 23.3125 41.3537C23.2708 41.4204 23.2333 41.487 23.2 41.5537C23.0667 41.8204 23 42.087 23 42.3537C23 43.287 23.0907 44.2204 23.2722 45.1537C23.2852 45.2204 23.2986 45.287 23.3125 45.3537C23.4375 45.3537 23.5625 45.3537 23.6875 45.3537C23.7014 45.287 23.7148 45.2204 23.7278 45.1537C23.9093 44.2204 24 43.287 24 42.3537C24 42.087 23.9333 41.8204 23.8 41.5537C23.7667 41.487 23.7292 41.4204 23.6875 41.3537Z" fill="#B02929"/>
<path d="M145.688 63.3537C145.562 63.3537 145.438 63.3537 145.312 63.3537C145.271 63.4204 145.233 63.487 145.2 63.5537C145.067 63.8204 145 64.087 145 64.3537C145 65.287 145.091 66.2204 145.272 67.1537C145.285 67.2204 145.299 67.287 145.312 67.3537C145.438 67.3537 145.562 67.3537 145.688 67.3537C145.701 67.287 145.715 67.2204 145.728 67.1537C145.909 66.2204 146 65.287 146 64.3537C146 64.087 145.933 63.8204 145.8 63.5537C145.767 63.487 145.729 63.4204 145.688 63.3537Z" fill="#B02929"/>
<path d="M3.61492 86.6612C3.50312 86.6053 3.39131 86.5494 3.27951 86.4935C3.20891 86.5415 3.14203 86.5914 3.07889 86.6431C2.8263 86.8502 2.63333 87.087 2.5 87.3537C2.03333 88.287 1.64783 89.2609 1.34348 90.2754C1.32174 90.3479 1.30042 90.4206 1.27951 90.4935C1.39131 90.5494 1.50312 90.6053 1.61492 90.6612C1.66067 90.6007 1.70602 90.54 1.75094 90.4792C2.37993 89.627 2.92776 88.7342 3.39443 87.8009C3.52776 87.5342 3.60147 87.2378 3.61554 86.9115C3.61906 86.8299 3.61885 86.7465 3.61492 86.6612Z" fill="#B02929"/>
<path d="M97.9805 13.3157C97.8581 13.341 97.7357 13.3664 97.6133 13.3917C97.5931 13.5 97.5771 13.6076 97.5651 13.7142C97.5172 14.1409 97.5346 14.5541 97.6173 14.9538C97.704 15.3732 97.7988 15.791 97.9015 16.2071L97.9237 16.3397L98.0446 16.4602C98.8054 17.1106 99.5963 17.7284 100.417 18.3134C100.501 18.3731 100.585 18.4325 100.67 18.4915C100.754 18.3996 100.839 18.3078 100.924 18.2159C100.859 18.1365 100.793 18.0574 100.726 17.9787C100.078 17.2069 99.3988 16.4678 98.6897 15.7614L98.8329 16.0145C98.7621 15.5917 98.6833 15.1706 98.5965 14.7512C98.5139 14.3515 98.3659 13.9654 98.1527 13.5927C98.0994 13.4995 98.042 13.4072 97.9805 13.3157Z" fill="#036695"/>
<path d="M134.98 27.3157C134.858 27.341 134.736 27.3664 134.613 27.3917C134.593 27.5 134.577 27.6076 134.565 27.7142C134.517 28.1409 134.535 28.5541 134.617 28.9538C134.704 29.3732 134.799 29.791 134.902 30.2071L134.924 30.3397L135.045 30.4602C135.805 31.1106 136.596 31.7284 137.417 32.3134C137.501 32.3731 137.585 32.4325 137.67 32.4915C137.754 32.3996 137.839 32.3078 137.924 32.2159C137.859 32.1365 137.793 32.0574 137.726 31.9787C137.078 31.2069 136.399 30.4678 135.69 29.7614L135.833 30.0145C135.762 29.5917 135.683 29.1706 135.597 28.7512C135.514 28.3515 135.366 27.9654 135.153 27.5927C135.099 27.4995 135.042 27.4072 134.98 27.3157Z" fill="#036695"/>
<path d="M24.9805 77.3157C24.8581 77.341 24.7357 77.3664 24.6133 77.3917C24.5931 77.5 24.5771 77.6076 24.5651 77.7142C24.5172 78.1409 24.5346 78.5541 24.6173 78.9538C24.704 79.3732 24.7988 79.791 24.9015 80.2071L24.9237 80.3397L25.0446 80.4602C25.8054 81.1106 26.5963 81.7284 27.4175 82.3134C27.5012 82.3731 27.5853 82.4325 27.6697 82.4915C27.7545 82.3996 27.8393 82.3078 27.9241 82.2159C27.8585 82.1365 27.7926 82.0574 27.7265 81.9787C27.0777 81.2069 26.3988 80.4678 25.6897 79.7614L25.8329 80.0145C25.7621 79.5917 25.6833 79.1706 25.5965 78.7512C25.5139 78.3515 25.3659 77.9654 25.1527 77.5927C25.0994 77.4995 25.042 77.4072 24.9805 77.3157Z" fill="#036695"/>
<path d="M16.3935 98.3032C16.2731 98.3369 16.1527 98.3705 16.0323 98.4042C16.0647 98.6765 16.1069 98.9782 16.1453 99.2547C16.3052 100.39 16.5137 101.512 16.7312 102.616C16.8513 103.248 16.9971 104.03 16.9517 104.462C16.9495 104.478 16.9455 104.477 16.9633 104.444C16.9777 104.406 17.0975 104.271 17.2592 104.265C17.5339 104.291 17.4224 104.317 17.4106 104.28C17.3366 104.214 17.2351 104.085 17.1497 103.965C16.9647 103.703 16.8016 103.435 16.6213 103.125C16.5335 102.973 16.4562 102.836 16.388 102.709C16.3032 102.55 16.2464 102.44 16.1767 102.289C16.115 102.155 16.0579 102.01 16.0346 101.915C16.017 101.867 16.0373 101.815 16.0079 101.918C15.9995 101.971 15.8725 102.094 15.8044 102.1C15.7314 102.117 15.7163 102.104 15.7206 102.106C16.0763 102.213 16.6941 102.701 17.1739 103.086C18.1797 103.906 19.1533 104.79 20.1204 105.68C20.3259 105.87 20.5461 106.075 20.7434 106.26C20.8336 106.173 20.9238 106.087 21.014 106C20.8339 105.793 20.6327 105.569 20.4443 105.36C19.5555 104.38 18.6492 103.421 17.6668 102.515C17.1308 102.067 16.7989 101.611 15.8908 101.263C15.8271 101.25 15.7113 101.228 15.5656 101.268C15.4259 101.291 15.2259 101.482 15.1932 101.61C15.112 101.863 15.1547 101.969 15.172 102.097C15.2144 102.306 15.2819 102.481 15.3492 102.647C15.4256 102.829 15.483 102.953 15.5701 103.13C15.639 103.27 15.7165 103.42 15.8045 103.582C15.9849 103.914 16.1466 104.201 16.3581 104.515C16.4618 104.664 16.5647 104.817 16.7449 104.993C16.8483 105.059 16.8833 105.22 17.3317 105.242C17.5801 105.228 17.7621 105.041 17.8242 104.916C17.8766 104.821 17.9017 104.727 17.9165 104.656C18.0142 103.731 17.8289 103.131 17.7127 102.425C17.4874 101.282 17.1455 100.178 16.7255 99.1019C16.622 98.84 16.5072 98.557 16.3935 98.3032Z" fill="#036695"/>
<path d="M133.393 95.3032C133.273 95.3369 133.153 95.3705 133.032 95.4042C133.065 95.6765 133.107 95.9782 133.145 96.2547C133.305 97.3901 133.514 98.5123 133.731 99.616C133.851 100.248 133.997 101.03 133.952 101.462C133.949 101.478 133.945 101.477 133.963 101.444C133.978 101.406 134.097 101.271 134.259 101.265C134.534 101.291 134.422 101.317 134.411 101.28C134.337 101.214 134.235 101.085 134.15 100.965C133.965 100.703 133.802 100.435 133.621 100.125C133.533 99.9734 133.456 99.8355 133.388 99.7092C133.303 99.5497 133.246 99.4402 133.177 99.2885C133.115 99.1546 133.058 99.0098 133.035 98.9148C133.017 98.8673 133.037 98.8153 133.008 98.9178C132.999 98.9709 132.873 99.0938 132.804 99.0999C132.731 99.1173 132.716 99.1045 132.721 99.106C133.076 99.2133 133.694 99.7011 134.174 100.086C135.18 100.906 136.153 101.79 137.12 102.68C137.326 102.87 137.546 103.075 137.743 103.26C137.834 103.173 137.924 103.087 138.014 103C137.834 102.793 137.633 102.569 137.444 102.36C136.556 101.38 135.649 100.421 134.667 99.5149C134.131 99.0671 133.799 98.6113 132.891 98.2631C132.827 98.2502 132.711 98.2282 132.566 98.2679C132.426 98.2905 132.226 98.4818 132.193 98.6096C132.112 98.8627 132.155 98.9695 132.172 99.0972C132.214 99.3064 132.282 99.4806 132.349 99.6466C132.426 99.8294 132.483 99.9531 132.57 100.13C132.639 100.27 132.717 100.42 132.804 100.582C132.985 100.914 133.147 101.201 133.358 101.515C133.462 101.664 133.565 101.817 133.745 101.993C133.848 102.059 133.883 102.22 134.332 102.242C134.58 102.228 134.762 102.041 134.824 101.916C134.877 101.821 134.902 101.727 134.916 101.656C135.014 100.731 134.829 100.131 134.713 99.4246C134.487 98.2818 134.146 97.1784 133.725 96.1019C133.622 95.84 133.507 95.557 133.393 95.3032Z" fill="#930395"/>
<path d="M125.413 44.8394C125.329 44.9318 125.245 45.0241 125.161 45.1165C125.44 45.4261 125.746 45.7453 126.044 46.0466C127.307 47.2398 128.361 48.4681 130.266 49.2457C130.331 49.2603 130.405 49.2746 130.503 49.2777C130.593 49.279 130.708 49.2755 130.853 49.2136C130.991 49.1571 131.133 49.0246 131.199 48.881C131.26 48.7512 131.274 48.6511 131.279 48.5454C131.282 48.2177 131.193 48.0049 131.126 47.8144C130.968 47.4071 130.802 47.0974 130.6 46.7354C130.527 46.6103 130.482 46.5327 130.368 46.4013C130.305 46.3339 130.257 46.284 130.148 46.2151C130.025 46.1425 129.87 46.0862 129.666 46.1206C129.259 46.228 129.199 46.4422 129.12 46.5471C129.04 46.6891 129.007 46.7814 128.963 46.9018C128.817 47.3385 128.753 47.7225 128.686 48.1206C128.557 48.9178 128.474 49.6876 128.382 50.4636C128.29 51.2385 128.205 52.0023 128.061 52.7475C127.991 53.102 127.888 53.5142 127.769 53.6965C127.741 53.7431 127.736 53.7046 127.845 53.693C127.946 53.6977 127.932 53.7296 127.892 53.6865C127.818 53.6183 127.722 53.4744 127.631 53.3035C127.51 53.0774 127.419 52.875 127.382 52.688C127.364 52.6012 127.376 52.5345 127.375 52.5364C127.37 52.5417 127.363 52.5266 127.439 52.5074C127.769 52.4449 128.316 52.6054 128.774 52.7641C129.726 53.1034 130.662 53.5615 131.576 54.0349C131.952 54.2309 132.33 54.4351 132.689 54.6379C132.754 54.5315 132.82 54.4252 132.886 54.3188C132.533 54.0871 132.167 53.8591 131.799 53.6376C130.903 53.1022 129.987 52.5864 128.997 52.1757C128.49 51.99 128.024 51.7484 127.307 51.8161C127.126 51.8441 126.868 51.9535 126.739 52.1973C126.619 52.4228 126.632 52.6389 126.653 52.802C126.709 53.1479 126.816 53.3804 126.945 53.6533C126.998 53.7616 127.05 53.8587 127.104 53.9462C127.165 54.0452 127.238 54.151 127.331 54.2468C127.389 54.3062 127.453 54.3597 127.529 54.4039C127.614 54.455 127.751 54.5029 127.884 54.4953C128.193 54.4719 128.336 54.291 128.428 54.1733C128.732 53.7114 128.791 53.3268 128.895 52.9266C129.075 52.1277 129.181 51.3596 129.293 50.5811C129.403 49.805 129.502 49.0399 129.636 48.2836C129.704 47.9122 129.778 47.5401 129.888 47.2281C129.917 47.1472 129.943 47.0879 129.97 47.0426C129.981 46.9986 130.045 47.0255 129.84 47.0915C129.617 47.1106 129.603 47.017 129.63 47.0602C129.658 47.0927 129.69 47.1392 129.735 47.2194C129.92 47.5564 130.072 47.8509 130.192 48.1651C130.245 48.2991 130.287 48.4842 130.281 48.5061C130.281 48.5087 130.278 48.49 130.301 48.4421C130.324 48.388 130.397 48.3183 130.452 48.2977C130.573 48.2587 130.529 48.2871 130.491 48.2714C129.234 47.7601 127.782 46.547 126.436 45.5924C126.099 45.3447 125.744 45.0827 125.413 44.8394Z" fill="#75A75E"/>
<path d="M10.4134 59.8394C10.3292 59.9318 10.245 60.0241 10.1608 60.1165C10.4403 60.4261 10.7465 60.7453 11.0444 61.0466C12.3069 62.2398 13.3608 63.4681 15.2661 64.2457C15.3307 64.2603 15.4052 64.2746 15.5031 64.2777C15.5935 64.279 15.7077 64.2755 15.8531 64.2136C15.9907 64.1571 16.1328 64.0246 16.1991 63.881C16.2603 63.7512 16.2739 63.6511 16.2793 63.5454C16.2824 63.2177 16.1929 63.0049 16.1263 62.8144C15.9684 62.4071 15.8016 62.0974 15.5998 61.7354C15.5273 61.6103 15.4816 61.5327 15.3677 61.4013C15.3051 61.3339 15.2572 61.284 15.1475 61.2151C15.0252 61.1425 14.8695 61.0862 14.6661 61.1206C14.259 61.228 14.199 61.4422 14.1204 61.5471C14.0404 61.6891 14.0066 61.7814 13.9634 61.9018C13.8175 62.3385 13.7534 62.7225 13.6856 63.1206C13.557 63.9178 13.4741 64.6876 13.3825 65.4636C13.2903 66.2385 13.2046 67.0023 13.0606 67.7475C12.9911 68.102 12.8876 68.5142 12.7688 68.6965C12.7414 68.7431 12.736 68.7046 12.8449 68.693C12.9463 68.6977 12.9318 68.7296 12.8916 68.6865C12.8178 68.6183 12.7216 68.4744 12.6305 68.3035C12.5104 68.0774 12.4194 67.875 12.3823 67.688C12.3639 67.6012 12.3756 67.5345 12.3755 67.5364C12.3702 67.5417 12.3627 67.5266 12.4386 67.5074C12.7687 67.4449 13.316 67.6054 13.7738 67.7641C14.726 68.1034 15.6623 68.5615 16.5765 69.0349C16.9521 69.2309 17.3303 69.4351 17.6885 69.6379C17.7542 69.5315 17.8199 69.4252 17.8856 69.3188C17.5331 69.0871 17.1674 68.8591 16.7994 68.6376C15.9031 68.1022 14.9871 67.5864 13.9972 67.1757C13.4905 66.99 13.0238 66.7484 12.307 66.8161C12.1255 66.8441 11.8685 66.9535 11.7391 67.1973C11.6193 67.4228 11.6325 67.6389 11.6533 67.802C11.7094 68.1479 11.8157 68.3804 11.9448 68.6533C11.9979 68.7616 12.0504 68.8587 12.1039 68.9462C12.165 69.0452 12.2383 69.151 12.3311 69.2468C12.3894 69.3062 12.4531 69.3597 12.5288 69.4039C12.6138 69.455 12.7514 69.5029 12.8845 69.4953C13.1934 69.4719 13.3357 69.291 13.4284 69.1733C13.7321 68.7114 13.791 68.3268 13.8949 67.9266C14.0751 67.1277 14.1814 66.3596 14.293 65.5811C14.4032 64.805 14.5016 64.0399 14.6358 63.2836C14.7037 62.9122 14.7778 62.5401 14.8876 62.2281C14.9169 62.1472 14.9432 62.0879 14.9698 62.0426C14.9809 61.9986 15.0453 62.0255 14.8404 62.0915C14.6167 62.1106 14.6034 62.017 14.6301 62.0602C14.6579 62.0927 14.6898 62.1392 14.7345 62.2194C14.9201 62.5564 15.0723 62.8509 15.1921 63.1651C15.2454 63.2991 15.2874 63.4842 15.2806 63.5061C15.2811 63.5087 15.2784 63.49 15.3008 63.4421C15.3237 63.388 15.3971 63.3183 15.4519 63.2977C15.5726 63.2587 15.5294 63.2871 15.4914 63.2714C14.234 62.7601 12.782 61.547 11.4364 60.5924C11.0985 60.3447 10.7439 60.0827 10.4134 59.8394Z" fill="#F4BC49"/>
<path d="M50.8164 11.3157C50.9388 11.341 51.0612 11.3664 51.1836 11.3917C51.2037 11.5 51.2198 11.6076 51.2318 11.7142C51.2797 12.1409 51.2623 12.5541 51.1796 12.9538C51.0928 13.3732 50.9981 13.791 50.8954 14.2071L50.8731 14.3397L50.7522 14.4602C49.9915 15.1106 49.2005 15.7284 48.3794 16.3134C48.2957 16.3731 48.2116 16.4325 48.1272 16.4915C48.0424 16.3996 47.9576 16.3078 47.8728 16.2159C47.9384 16.1365 48.0042 16.0574 48.0704 15.9787C48.7192 15.2069 49.3981 14.4678 50.1071 13.7614L49.964 14.0145C50.0348 13.5917 50.1136 13.1706 50.2003 12.7512C50.283 12.3515 50.431 11.9654 50.6442 11.5927C50.6975 11.4995 50.7549 11.4072 50.8164 11.3157Z" fill="#75A75E"/>
<path d="M123.816 66.3157C123.939 66.341 124.061 66.3664 124.184 66.3917C124.204 66.5 124.22 66.6076 124.232 66.7142C124.28 67.1409 124.262 67.5541 124.18 67.9538C124.093 68.3732 123.998 68.791 123.895 69.2071L123.873 69.3397L123.752 69.4602C122.991 70.1106 122.201 70.7284 121.379 71.3134C121.296 71.3731 121.212 71.4325 121.127 71.4915C121.042 71.3996 120.958 71.3078 120.873 71.2159C120.938 71.1365 121.004 71.0574 121.07 70.9787C121.719 70.2069 122.398 69.4678 123.107 68.7614L122.964 69.0145C123.035 68.5917 123.114 68.1706 123.2 67.7512C123.283 67.3515 123.431 66.9654 123.644 66.5927C123.698 66.4995 123.755 66.4072 123.816 66.3157Z" fill="#F4BC49"/>
<path d="M27.0027 108.069C27.838 108.066 28.8716 108.023 29.6981 108.036C29.7097 108.036 29.7213 108.036 29.7329 108.036C30.0707 108.042 30.4149 108.051 30.8314 108.062C30.8845 108.063 30.9388 108.064 30.9944 108.066C31.4881 108.079 32.0945 108.094 32.9209 108.109C35.6957 108.161 37.8824 108.089 38.5626 108.066C39.9268 108.021 41.3823 108.006 43.3684 107.987C43.55 107.985 43.7362 107.983 43.927 107.981C44.0816 107.98 44.2099 108.005 44.2137 108.037C44.2175 108.07 44.0953 108.098 43.9406 108.099C43.7538 108.101 43.5716 108.103 43.3942 108.105C43.3934 108.105 43.3926 108.105 43.3918 108.105C41.3932 108.125 39.9693 108.139 38.6372 108.183C37.9422 108.206 35.7018 108.28 32.8585 108.227C32.0234 108.211 31.4101 108.196 30.9134 108.183C30.859 108.182 30.806 108.18 30.7545 108.179C30.7533 108.179 30.7521 108.179 30.7509 108.179C30.3317 108.168 30.0019 108.159 29.6786 108.154C29.6718 108.154 29.6649 108.154 29.658 108.154C28.8222 108.141 27.8083 108.185 26.9982 108.187C26.8435 108.188 26.719 108.161 26.7203 108.129C26.7217 108.096 26.8481 108.069 27.0027 108.069ZM83.3961 107.149C84.2021 107.098 85.2749 107.093 86.2224 107.103C87.1764 107.114 88.04 107.14 88.4465 107.158C88.8439 107.175 89.2852 107.178 89.8117 107.177C89.9325 107.177 90.0577 107.176 90.1873 107.176C90.6151 107.175 91.0912 107.173 91.6138 107.178C93.5335 107.194 94.7849 107.184 95.6786 107.172C95.8624 107.17 96.0334 107.167 96.1935 107.165C96.1937 107.165 96.194 107.165 96.1943 107.165C96.7985 107.156 97.2492 107.15 97.664 107.159C98.4022 107.176 99.005 107.192 99.7326 107.226C100.736 107.274 102.165 107.254 103.094 107.206C103.145 107.203 103.197 107.2 103.25 107.198C103.924 107.163 104.753 107.119 105.997 107.081C107.031 107.05 107.932 107.043 108.729 107.042C108.958 107.041 109.176 107.041 109.385 107.041C109.914 107.042 110.387 107.042 110.832 107.035C113.595 106.992 115.189 106.998 116.191 107.021C116.961 107.039 117.392 107.066 117.702 107.086C117.796 107.092 117.879 107.098 117.957 107.102C118.653 107.139 119.292 107.153 120.06 107.169C120.23 107.173 120.408 107.176 120.593 107.18C121.213 107.194 121.675 107.187 122.037 107.175C122.195 107.17 122.335 107.164 122.466 107.158C122.469 107.158 122.471 107.158 122.473 107.158C122.492 107.157 122.51 107.156 122.528 107.156C122.542 107.155 122.555 107.154 122.569 107.154C122.574 107.153 122.579 107.153 122.582 107.152C122.585 107.152 122.588 107.152 122.589 107.152C122.589 107.152 122.589 107.152 122.59 107.152C122.616 107.149 122.638 107.148 122.642 107.148C122.65 107.147 122.657 107.147 122.661 107.147C122.68 107.146 122.704 107.146 122.721 107.145C122.763 107.145 122.835 107.143 122.948 107.142C123.046 107.139 123.14 107.135 123.257 107.131C123.265 107.13 123.272 107.13 123.28 107.13C123.394 107.125 123.528 107.12 123.697 107.114C123.85 107.109 123.991 107.131 124.012 107.163C124.033 107.195 123.926 107.225 123.772 107.231C123.614 107.236 123.488 107.241 123.373 107.246C123.366 107.246 123.359 107.246 123.351 107.247C123.232 107.252 123.118 107.256 122.996 107.259C122.955 107.26 122.913 107.261 122.874 107.262C122.803 107.264 122.722 107.267 122.626 107.272C122.606 107.272 122.586 107.273 122.566 107.274C122.435 107.28 122.282 107.286 122.11 107.292C121.706 107.305 121.195 107.313 120.521 107.298C120.344 107.294 120.172 107.29 120.005 107.287C119.233 107.27 118.547 107.256 117.808 107.217C117.707 107.211 117.61 107.205 117.506 107.198C117.198 107.179 116.83 107.155 116.118 107.139C115.163 107.117 113.608 107.11 110.86 107.153C110.393 107.16 109.888 107.16 109.351 107.16C109.146 107.16 108.935 107.16 108.721 107.16C107.935 107.161 107.063 107.168 106.065 107.198C104.849 107.236 104.042 107.277 103.371 107.312C103.348 107.314 103.325 107.315 103.301 107.316C103.273 107.318 103.244 107.319 103.216 107.321C102.226 107.372 100.706 107.394 99.5971 107.342C98.9014 107.309 98.3244 107.294 97.5903 107.277C97.2293 107.268 96.8436 107.274 96.2516 107.283C96.0854 107.285 95.9026 107.287 95.6999 107.29C94.7902 107.302 93.5197 107.312 91.5785 107.296C91.0724 107.292 90.617 107.293 90.1916 107.294C90.0595 107.295 89.9298 107.295 89.8028 107.295C89.2737 107.296 88.7812 107.294 88.3219 107.274C87.9444 107.258 87.1086 107.231 86.1807 107.221C85.2461 107.211 84.254 107.218 83.5455 107.262C83.4719 107.267 83.3976 107.272 83.3233 107.276C82.6842 107.316 82.0325 107.357 81.5081 107.419C79.1587 107.803 74.8958 107.705 72.0844 107.71C72.0475 107.71 72.0106 107.71 71.9737 107.71C68.7287 107.716 66.3706 107.741 65.5668 107.75C65.5293 107.75 65.4952 107.751 65.4645 107.751C65.4371 107.751 65.4124 107.752 65.3905 107.752C65.0631 107.755 64.7734 107.762 64.4699 107.769C64.4533 107.77 64.4368 107.77 64.4202 107.771C64.0995 107.778 63.7629 107.786 63.3649 107.789C61.8853 107.802 60.6792 107.819 59.6356 107.834C59.4424 107.837 59.2546 107.84 59.0714 107.843C59.0709 107.843 59.0703 107.843 59.0698 107.843C58.2661 107.855 57.553 107.866 56.8764 107.872C55.6424 107.884 54.809 107.899 54.1608 107.913C53.9575 107.918 53.7702 107.922 53.5934 107.926C53.2111 107.935 52.8773 107.943 52.5329 107.948C51.8853 107.957 51.2892 107.971 50.7022 107.984C50.6498 107.985 50.5976 107.986 50.5454 107.988C49.9089 108.002 49.2787 108.016 48.6123 108.022C48.4576 108.024 48.3291 107.999 48.3256 107.966C48.3222 107.933 48.4449 107.906 48.5995 107.904C49.2467 107.898 49.8615 107.885 50.4978 107.87C50.5502 107.869 50.603 107.868 50.6558 107.866C51.2414 107.853 51.8483 107.839 52.508 107.83C52.84 107.825 53.1553 107.818 53.53 107.809C53.7089 107.805 53.9014 107.8 54.1156 107.796C54.7737 107.781 55.6181 107.766 56.8639 107.754C57.5325 107.748 58.2363 107.737 59.0396 107.725C59.2239 107.722 59.4135 107.719 59.609 107.716C60.6552 107.701 61.8676 107.684 63.3553 107.671C63.7313 107.668 64.0504 107.661 64.3698 107.653C64.3877 107.653 64.4056 107.652 64.4235 107.652C64.7244 107.645 65.0302 107.637 65.3761 107.634C65.4223 107.633 65.4813 107.633 65.5523 107.632C66.3573 107.623 68.725 107.598 71.9819 107.592C71.992 107.592 72.0021 107.592 72.0122 107.592C74.1945 107.588 75.4256 107.586 76.3523 107.548C77.0837 107.519 77.6304 107.507 78.0791 107.5C78.1646 107.499 78.2456 107.498 78.3228 107.497C78.6563 107.492 78.9199 107.488 79.1832 107.477C79.9798 107.445 80.5509 107.399 81.2416 107.317C81.8271 107.247 82.5448 107.202 83.1735 107.163C83.1745 107.163 83.1754 107.163 83.1763 107.163C83.2509 107.158 83.3244 107.154 83.3961 107.149ZM125.916 107.014C126.071 107.014 126.195 107.04 126.194 107.073C126.193 107.105 126.066 107.132 125.911 107.133C125.543 107.134 125.174 107.135 124.806 107.136C124.651 107.137 124.527 107.111 124.528 107.078C124.529 107.045 124.656 107.018 124.81 107.018C125.179 107.017 125.547 107.016 125.916 107.014ZM82.7455 106.567C82.8963 106.559 83.0468 106.579 83.0814 106.61C83.1158 106.642 83.0214 106.674 82.8707 106.682C82.791 106.686 82.6599 106.694 82.4836 106.704C81.2139 106.777 77.5883 106.987 73.7434 107.075C73.4196 107.082 73.1295 107.089 72.8531 107.096C71.6709 107.124 70.7225 107.217 68.461 107.235C58.9517 107.31 49.4486 107.25 39.9557 107.443C37.214 107.498 34.4806 107.528 31.7365 107.552C29.4493 107.572 25.2563 107.551 24.2698 107.554C24.1151 107.555 23.9907 107.529 23.9919 107.496C23.9933 107.463 24.1197 107.437 24.2743 107.436C25.2539 107.433 29.4329 107.454 31.7115 107.434C34.4504 107.41 37.1781 107.38 39.9146 107.325C49.4185 107.132 58.9508 107.049 68.471 106.974C70.7106 106.956 71.6227 107.007 72.8007 106.978C73.0777 106.972 73.3694 106.965 73.6962 106.957C77.4872 106.871 81.0577 106.664 82.3427 106.59C82.5246 106.58 82.6612 106.572 82.7455 106.567ZM89.9392 106.549C91.6659 106.524 94.1208 106.516 96.2661 106.51C97.3124 106.507 98.2849 106.504 99.0636 106.5C100.27 106.493 101.03 106.514 101.783 106.535C101.791 106.535 101.799 106.535 101.807 106.535C102.56 106.556 103.314 106.577 104.539 106.57C105.774 106.562 107.484 106.527 109.207 106.491C109.209 106.491 109.21 106.491 109.212 106.491C110.926 106.456 112.665 106.36 113.922 106.353C118.303 106.327 121.005 106.383 122.371 106.434C124.761 106.523 127.47 106.372 129.912 106.49C130.181 106.519 129.728 106.613 129.231 106.592C129.214 106.591 129.196 106.591 129.178 106.59C129.007 106.585 128.858 106.581 128.647 106.578C128.342 106.578 128.116 106.579 127.909 106.581C127.366 106.586 123.596 106.6 122.262 106.55C120.965 106.502 118.321 106.589 113.912 106.614C112.678 106.621 110.973 106.573 109.249 106.609C109.244 106.609 109.24 106.609 109.235 106.609C107.523 106.645 105.798 106.68 104.542 106.688C103.272 106.695 102.484 106.674 101.722 106.653C101.714 106.652 101.707 106.652 101.699 106.652C100.953 106.631 100.228 106.611 99.0664 106.618C98.2706 106.623 97.2866 106.625 96.2337 106.629C94.0976 106.635 91.6769 106.642 89.965 106.667C89.8105 106.669 89.6793 106.644 89.6722 106.612C89.6652 106.579 89.7848 106.551 89.9392 106.549ZM89.9678 105.812C94.8187 105.636 99.6983 105.626 104.484 105.72C105.733 105.712 107.476 105.705 109.216 105.698C109.236 105.698 109.255 105.698 109.275 105.698C110.997 105.691 112.711 105.684 113.941 105.676C118.322 105.651 121.033 105.647 122.4 105.698C123.674 105.745 124.027 105.742 124.551 105.737C124.566 105.737 124.58 105.737 124.594 105.737C124.595 105.737 124.596 105.737 124.597 105.737C124.615 105.735 124.63 105.734 124.638 105.734C124.654 105.733 124.667 105.732 124.671 105.732C124.683 105.732 124.692 105.732 124.695 105.732C124.709 105.731 124.724 105.731 124.734 105.731C124.828 105.731 125.12 105.732 125.352 105.734C125.589 105.737 125.758 105.742 125.937 105.747C125.955 105.748 125.973 105.748 125.991 105.749C126.152 105.754 126.327 105.759 126.579 105.764C126.732 105.768 126.842 105.796 126.823 105.829C126.805 105.861 126.665 105.885 126.512 105.882C126.246 105.877 126.06 105.871 125.899 105.866C125.881 105.865 125.863 105.865 125.845 105.864C125.674 105.859 125.525 105.855 125.314 105.853C125.009 105.852 124.783 105.854 124.576 105.855C124.033 105.86 123.625 105.864 122.291 105.814C120.994 105.766 118.353 105.769 113.944 105.795C112.711 105.802 110.995 105.809 109.275 105.816C109.255 105.816 109.235 105.816 109.214 105.816C107.473 105.823 105.733 105.83 104.487 105.838C99.6304 105.866 94.875 105.97 89.994 105.93C89.096 105.943 88.2753 105.953 87.5148 105.962C85.2769 105.988 83.5595 106.008 81.9229 106.095C81.5641 106.114 80.6233 106.136 79.2638 106.166C78.8654 106.175 78.4283 106.184 77.956 106.194C76.7981 106.219 75.4262 106.248 73.8807 106.283C73.5569 106.29 73.2668 106.297 72.9904 106.304C71.8081 106.333 70.8749 106.355 68.6133 106.373C65.8306 106.395 61.168 106.41 58.6743 106.411C57.4254 106.411 56.7203 106.408 56.2214 106.404C56.0825 106.402 55.9604 106.401 55.8483 106.4C55.5555 106.398 55.3281 106.396 55.0301 106.396C52.8843 106.396 51.3822 106.424 48.9215 106.476C48.7673 106.479 48.6326 106.455 48.6206 106.423C48.6088 106.39 48.7241 106.361 48.8783 106.358C51.3427 106.306 52.8677 106.278 55.0427 106.277C55.3539 106.277 55.5973 106.28 55.8953 106.282C56.0058 106.283 56.1238 106.284 56.2555 106.285C56.746 106.289 57.4437 106.293 58.6861 106.293C61.1753 106.292 65.8312 106.277 68.6053 106.255C70.8449 106.237 71.76 106.215 72.9379 106.187C73.2149 106.18 73.5064 106.173 73.8331 106.165C75.3808 106.13 76.7563 106.101 77.9149 106.076C78.3866 106.066 78.8226 106.057 79.2194 106.048C80.6064 106.018 81.4903 105.997 81.7977 105.981C83.4917 105.89 85.2838 105.869 87.5424 105.843C88.2945 105.834 89.0986 105.825 89.9678 105.812ZM40.0518 106.533C40.2061 106.53 40.3402 106.554 40.3514 106.586C40.3626 106.619 40.2468 106.648 40.0925 106.651C39.2776 106.667 38.6918 106.68 38.2339 106.69C37.3863 106.709 36.9766 106.718 36.3631 106.723C34.7791 106.735 33.2497 106.749 31.8737 106.761C29.5866 106.78 27.7226 106.797 26.7361 106.8C26.5814 106.8 26.457 106.774 26.4582 106.742C26.4596 106.709 26.5861 106.682 26.7406 106.682C27.7202 106.679 29.5702 106.663 31.8488 106.643C33.2264 106.631 34.7608 106.617 36.3547 106.605C36.9498 106.6 37.3365 106.591 38.1653 106.573C38.6228 106.563 39.2152 106.55 40.0518 106.533Z" fill="black"/>
<use xlink:href="#stroke0_128_1549" transform="translate(23.1099 108.306) scale(0.00552515) rotate(3.01094)"/>
<use xlink:href="#stroke0_128_1549" transform="translate(23.5687 108.309) scale(0.00552515) rotate(2.54874)"/>
<use xlink:href="#stroke0_128_1549" transform="translate(23.8101 108.551) scale(0.00552515) rotate(-11.4862)"/>
<use xlink:href="#stroke0_128_1549" transform="translate(24.1537 108.758) scale(0.00552515) rotate(-21.7564)"/>
<use xlink:href="#stroke0_128_1549" transform="translate(24.8701 108.39) scale(0.00552515) rotate(-3.23347)"/>
<use xlink:href="#stroke0_128_1549" transform="translate(25.304 108.422) scale(0.00552515) rotate(-5.28519)"/>
<use xlink:href="#stroke0_128_1549" transform="translate(25.4902 108.911) scale(0.00552515) rotate(-29.2174)"/>
<use xlink:href="#stroke0_128_1549" transform="translate(26.1041 108.592) scale(0.00552515) rotate(-14.6524)"/>
<use xlink:href="#stroke0_128_1549" transform="translate(26.7186 108.394) scale(0.00552515) rotate(-4.47802)"/>
<use xlink:href="#stroke0_128_1549" transform="translate(27.4081 108.195) scale(0.00552515) rotate(7.93507)"/>
<use xlink:href="#stroke0_128_1549" transform="translate(27.3501 108.922) scale(0.00552515) rotate(-30.4923)"/>
<use xlink:href="#stroke0_128_1549" transform="translate(28.4818 108.1) scale(0.00552515) rotate(14.7913)"/>
<use xlink:href="#stroke0_128_1549" transform="translate(28.8376 108.162) scale(0.00552515) rotate(9.35095)"/>
<use xlink:href="#stroke0_128_1549" transform="translate(28.952 108.499) scale(0.00552515) rotate(-11.3119)"/>
<use xlink:href="#stroke0_128_1549" transform="translate(30.1659 107.973) scale(0.00552515) rotate(27.5611)"/>
<use xlink:href="#stroke0_128_1549" transform="translate(30.5795 107.985) scale(0.00552515) rotate(25.2182)"/>
<use xlink:href="#stroke0_128_1549" transform="translate(30.3567 108.482) scale(0.00552515) rotate(-11.0923)"/>
<use xlink:href="#stroke0_128_1549" transform="translate(30.7862 108.532) scale(0.00552515) rotate(-13.8862)"/>
<use xlink:href="#stroke0_128_1549" transform="translate(31.8766 108.01) scale(0.00552515) rotate(20.5528)"/>
<use xlink:href="#stroke0_128_1549" transform="translate(31.591 108.777) scale(0.00552515) rotate(-25.8245)"/>
<use xlink:href="#stroke0_128_1549" transform="translate(32.69 108.058) scale(0.00552515) rotate(14.9423)"/>
<use xlink:href="#stroke0_128_1549" transform="translate(32.9487 108.191) scale(0.00552515) rotate(4.47736)"/>
<use xlink:href="#stroke0_128_1549" transform="translate(33.8295 107.961) scale(0.00552515) rotate(24.3115)"/>
<use xlink:href="#stroke0_128_1549" transform="translate(33.4502 108.785) scale(0.00552515) rotate(-26.9839)"/>
<use xlink:href="#stroke0_128_1549" transform="translate(33.9038 108.82) scale(0.00552515) rotate(-28.7294)"/>
<use xlink:href="#stroke0_128_1549" transform="translate(34.5586 108.446) scale(0.00552515) rotate(-11.311)"/>
<use xlink:href="#stroke0_128_1549" transform="translate(35.1262 108.318) scale(0.00552515) rotate(-4.62843)"/>
<use xlink:href="#stroke0_128_1549" transform="translate(35.4051 108.577) scale(0.00552515) rotate(-18.229)"/>
<use xlink:href="#stroke0_128_1549" transform="translate(36.2002 108.176) scale(0.00552515) rotate(3.45358)"/>
<use xlink:href="#stroke0_128_1549" transform="translate(37.1255 107.922) scale(0.00552515) rotate(25.434)"/>
<use xlink:href="#stroke0_128_1549" transform="translate(36.7441 108.694) scale(0.00552515) rotate(-24.2856)"/>
<use xlink:href="#stroke0_128_1549" transform="translate(37.9414 107.957) scale(0.00552515) rotate(20.1391)"/>
<use xlink:href="#stroke0_128_1549" transform="translate(37.9735 108.245) scale(0.00552515) rotate(-1.9616)"/>
<use xlink:href="#stroke0_128_1549" transform="translate(38.3573 108.332) scale(0.00552515) rotate(-7.14599)"/>
<use xlink:href="#stroke0_128_1549" transform="translate(39.089 108.084) scale(0.00552515) rotate(7.95352)"/>
<use xlink:href="#stroke0_128_1549" transform="translate(39.3939 108.214) scale(0.00552515) rotate(-0.864071)"/>
<use xlink:href="#stroke0_128_1549" transform="translate(39.6074 108.543) scale(0.00552515) rotate(-18.4654)"/>
<use xlink:href="#stroke0_128_1549" transform="translate(40.2289 108.311) scale(0.00552515) rotate(-6.96857)"/>
<use xlink:href="#stroke0_128_1549" transform="translate(41.1125 107.972) scale(0.00552515) rotate(15.5365)"/>
<use xlink:href="#stroke0_128_1549" transform="translate(40.9694 108.608) scale(0.00552515) rotate(-22.1731)"/>
<use xlink:href="#stroke0_128_1549" transform="translate(42.2942 107.864) scale(0.00552515) rotate(26.7141)"/>
<use xlink:href="#stroke0_128_1549" transform="translate(42.436 108.003) scale(0.00552515) rotate(11.7787)"/>
<use xlink:href="#stroke0_128_1549" transform="translate(42.7809 108.083) scale(0.00552515) rotate(5.57187)"/>
<use xlink:href="#stroke0_128_1549" transform="translate(42.7791 108.742) scale(0.00552515) rotate(-28.9763)"/>
<use xlink:href="#stroke0_128_1549" transform="translate(43.9367 107.935) scale(0.00552515) rotate(16.5192)"/>
<use xlink:href="#stroke0_128_1549" transform="translate(44.1149 108.125) scale(0.00552515) rotate(1.90723)"/>
<use xlink:href="#stroke0_128_1549" transform="translate(44.3044 108.455) scale(0.00552515) rotate(-16.3597)"/>
<use xlink:href="#stroke0_128_1549" transform="translate(45.6078 107.821) scale(0.00552515) rotate(28.5816)"/>
<use xlink:href="#stroke0_128_1549" transform="translate(46.055 107.822) scale(0.00552515) rotate(27.7128)"/>
<use xlink:href="#stroke0_128_1549" transform="translate(45.8741 108.214) scale(0.00552515) rotate(-4.51864)"/>
<use xlink:href="#stroke0_128_1549" transform="translate(46.7371 107.91) scale(0.00552515) rotate(16.3797)"/>
<use xlink:href="#stroke0_128_1549" transform="translate(46.9766 108.05) scale(0.00552515) rotate(5.08086)"/>
<use xlink:href="#stroke0_128_1549" transform="translate(46.981 108.712) scale(0.00552515) rotate(-29.4064)"/>
<use xlink:href="#stroke0_128_1549" transform="translate(47.7164 108.227) scale(0.00552515) rotate(-6.19275)"/>
<use xlink:href="#stroke0_128_1549" transform="translate(48.6703 107.863) scale(0.00552515) rotate(19.3563)"/>
<use xlink:href="#stroke0_128_1549" transform="translate(48.8447 108.033) scale(0.00552515) rotate(5.04068)"/>
<use xlink:href="#stroke0_128_1549" transform="translate(49.2475 108.082) scale(0.00552515) rotate(1.53014)"/>
<use xlink:href="#stroke0_128_1549" transform="translate(50.2326 107.79) scale(0.00552515) rotate(26.521)"/>
<use xlink:href="#stroke0_128_1549" transform="translate(49.9903 108.282) scale(0.00552515) rotate(-10.3591)"/>
<use xlink:href="#stroke0_128_1549" transform="translate(50.3627 108.425) scale(0.00552515) rotate(-17.6738)"/>
<use xlink:href="#stroke0_128_1549" transform="translate(50.8948 108.316) scale(0.00552515) rotate(-12.5237)"/>
<use xlink:href="#stroke0_128_1549" transform="translate(51.7798 107.916) scale(0.00552515) rotate(11.7482)"/>
<use xlink:href="#stroke0_128_1549" transform="translate(52.0899 108.023) scale(0.00552515) rotate(3.67607)"/>
<use xlink:href="#stroke0_128_1549" transform="translate(52.1582 108.559) scale(0.00552515) rotate(-24.7492)"/>
<use xlink:href="#stroke0_128_1549" transform="translate(53.2956 107.84) scale(0.00552515) rotate(17.1938)"/>
<use xlink:href="#stroke0_128_1549" transform="translate(53.4462 108.048) scale(0.00552515) rotate(1.17455)"/>
<use xlink:href="#stroke0_128_1549" transform="translate(54.1548 107.871) scale(0.00552515) rotate(13.635)"/>
<use xlink:href="#stroke0_128_1549" transform="translate(54.3695 108.05) scale(0.00552515) rotate(0.546737)"/>
<use xlink:href="#stroke0_128_1549" transform="translate(55.1974 107.807) scale(0.00552515) rotate(18.7163)"/>
<use xlink:href="#stroke0_128_1549" transform="translate(55.1822 108.168) scale(0.00552515) rotate(-6.82422)"/>
<use xlink:href="#stroke0_128_1549" transform="translate(56.3464 107.722) scale(0.00552515) rotate(28.2567)"/>
<use xlink:href="#stroke0_128_1549" transform="translate(56.7291 107.743) scale(0.00552515) rotate(24.5624)"/>
<use xlink:href="#stroke0_128_1549" transform="translate(56.88 107.892) scale(0.00552515) rotate(9.80476)"/>
<use xlink:href="#stroke0_128_1549" transform="translate(56.9503 108.286) scale(0.00552515) rotate(-13.9095)"/>
<use xlink:href="#stroke0_128_1549" transform="translate(57.3458 108.405) scale(0.00552515) rotate(-19.9055)"/>
<use xlink:href="#stroke0_128_1549" transform="translate(57.9852 108.142) scale(0.00552515) rotate(-6.84189)"/>
<use xlink:href="#stroke0_128_1549" transform="translate(58.8672 107.805) scale(0.00552515) rotate(15.5499)"/>
<use xlink:href="#stroke0_128_1549" transform="translate(59.0019 108.044) scale(0.00552515) rotate(-1.76021)"/>
<use xlink:href="#stroke0_128_1549" transform="translate(59.2249 108.368) scale(0.00552515) rotate(-18.9858)"/>
<use xlink:href="#stroke0_128_1549" transform="translate(60.3599 107.748) scale(0.00552515) rotate(19.7682)"/>
<use xlink:href="#stroke0_128_1549" transform="translate(60.9624 107.694) scale(0.00552515) rotate(25.8083)"/>
<use xlink:href="#stroke0_128_1549" transform="translate(61.4689 107.678) scale(0.00552515) rotate(27.5251)"/>
<use xlink:href="#stroke0_128_1549" transform="translate(61.9194 107.678) scale(0.00552515) rotate(26.7972)"/>
<use xlink:href="#stroke0_128_1549" transform="translate(62.2956 107.704) scale(0.00552515) rotate(22.7834)"/>
<use xlink:href="#stroke0_128_1549" transform="translate(61.94 108.547) scale(0.00552515) rotate(-28.3346)"/>
<use xlink:href="#stroke0_128_1549" transform="translate(62.7961 107.955) scale(0.00552515) rotate(1.48477)"/>
<use xlink:href="#stroke0_128_1549" transform="translate(63.4199 107.831) scale(0.00552515) rotate(9.74814)"/>
<use xlink:href="#stroke0_128_1549" transform="translate(63.5535 108.136) scale(0.00552515) rotate(-9.40208)"/>
<use xlink:href="#stroke0_128_1549" transform="translate(64.4238 107.779) scale(0.00552515) rotate(13.1591)"/>
<use xlink:href="#stroke0_128_1549" transform="translate(64.3595 108.329) scale(0.00552515) rotate(-19.4211)"/>
<use xlink:href="#stroke0_128_1549" transform="translate(64.7929 108.394) scale(0.00552515) rotate(-22.6555)"/>
<use xlink:href="#stroke0_128_1549" transform="translate(65.3475 108.227) scale(0.00552515) rotate(-14.9064)"/>
<use xlink:href="#stroke0_128_1549" transform="translate(66.4354 107.69) scale(0.00552515) rotate(19.842)"/>
<use xlink:href="#stroke0_128_1549" transform="translate(66.4833 107.967) scale(0.00552515) rotate(-1.41413)"/>
<use xlink:href="#stroke0_128_1549" transform="translate(67.0124 107.906) scale(0.00552515) rotate(2.11091)"/>
<use xlink:href="#stroke0_128_1549" transform="translate(67.2744 108.124) scale(0.00552515) rotate(-10.5833)"/>
<use xlink:href="#stroke0_128_1549" transform="translate(68.3397 107.658) scale(0.00552515) rotate(21.4473)"/>
<use xlink:href="#stroke0_128_1549" transform="translate(68.7979 107.657) scale(0.00552515) rotate(21.0409)"/>
<use xlink:href="#stroke0_128_1549" transform="translate(68.7416 108.028) scale(0.00552515) rotate(-6.18064)"/>
<use xlink:href="#stroke0_128_1549" transform="translate(69.4866 107.778) scale(0.00552515) rotate(9.38457)"/>
<use xlink:href="#stroke0_128_1549" transform="translate(69.9943 107.748) scale(0.00552515) rotate(11.3972)"/>
<use xlink:href="#stroke0_128_1549" transform="translate(70.2279 107.925) scale(0.00552515) rotate(-1.01263)"/>
<use xlink:href="#stroke0_128_1549" transform="translate(71.251 107.594) scale(0.00552515) rotate(26.234)"/>
<use xlink:href="#stroke0_128_1549" transform="translate(71.0398 108.052) scale(0.00552515) rotate(-8.675)"/>
<use xlink:href="#stroke0_128_1549" transform="translate(71.2922 108.436) scale(0.00552515) rotate(-27.3398)"/>
<use xlink:href="#stroke0_128_1549" transform="translate(72.5539 107.615) scale(0.00552515) rotate(21.8603)"/>
<use xlink:href="#stroke0_128_1549" transform="translate(72.4225 108.063) scale(0.00552515) rotate(-9.97096)"/>
<use xlink:href="#stroke0_128_1549" transform="translate(72.859 108.102) scale(0.00552515) rotate(-12.1665)"/>
<use xlink:href="#stroke0_128_1549" transform="translate(73.2125 108.294) scale(0.00552515) rotate(-21.6997)"/>
<use xlink:href="#stroke0_128_1549" transform="translate(73.922 107.934) scale(0.00552515) rotate(-3.62026)"/>
<use xlink:href="#stroke0_128_1549" transform="translate(74.1322 108.318) scale(0.00552515) rotate(-23.1896)"/>
<use xlink:href="#stroke0_128_1549" transform="translate(75.4899 107.545) scale(0.00552515) rotate(27.7136)"/>
<use xlink:href="#stroke0_128_1549" transform="translate(75.0312 108.398) scale(0.00552515) rotate(-27.191)"/>
<use xlink:href="#stroke0_128_1549" transform="translate(75.9516 107.771) scale(0.00552515) rotate(5.46579)"/>
<use xlink:href="#stroke0_128_1549" transform="translate(75.9907 108.324) scale(0.00552515) rotate(-24.289)"/>
<use xlink:href="#stroke0_128_1549" transform="translate(76.6585 107.984) scale(0.00552515) rotate(-7.86691)"/>
<use xlink:href="#stroke0_128_1549" transform="translate(77.5565 107.628) scale(0.00552515) rotate(15.5721)"/>
<use xlink:href="#stroke0_128_1549" transform="translate(77.8618 107.723) scale(0.00552515) rotate(7.61804)"/>
<use xlink:href="#stroke0_128_1549" transform="translate(77.8315 108.38) scale(0.00552515) rotate(-27.5733)"/>
<use xlink:href="#stroke0_128_1549" transform="translate(79.1782 107.524) scale(0.00552515) rotate(25.5514)"/>
<use xlink:href="#stroke0_128_1549" transform="translate(79.11 107.837) scale(0.00552515) rotate(-0.73053)"/>
<use xlink:href="#stroke0_128_1549" transform="translate(79.7862 107.668) scale(0.00552515) rotate(10.4211)"/>
<use xlink:href="#stroke0_128_1549" transform="translate(79.7347 108.274) scale(0.00552515) rotate(-23.627)"/>
<use xlink:href="#stroke0_128_1549" transform="translate(80.1553 108.394) scale(0.00552515) rotate(-29.191)"/>
<use xlink:href="#stroke0_128_1549" transform="translate(80.6467 108.321) scale(0.00552515) rotate(-26.1253)"/>
<use xlink:href="#stroke0_128_1549" transform="translate(81.1117 108.322) scale(0.00552515) rotate(-26.3904)"/>
<use xlink:href="#stroke0_128_1549" transform="translate(81.9368 107.788) scale(0.00552515) rotate(0.614812)"/>
<use xlink:href="#stroke0_128_1549" transform="translate(82.7745 107.542) scale(0.00552515) rotate(19.2184)"/>
<use xlink:href="#stroke0_128_1549" transform="translate(82.5696 108.18) scale(0.00552515) rotate(-20.4846)"/>
<use xlink:href="#stroke0_128_1549" transform="translate(83.241 107.874) scale(0.00552515) rotate(-5.19052)"/>
<use xlink:href="#stroke0_128_1549" transform="translate(84.0448 107.596) scale(0.00552515) rotate(13.0506)"/>
<use xlink:href="#stroke0_128_1549" transform="translate(83.9456 108.221) scale(0.00552515) rotate(-23.0031)"/>
<use xlink:href="#stroke0_128_1549" transform="translate(85.0359 107.556) scale(0.00552515) rotate(15.7531)"/>
<use xlink:href="#stroke0_128_1549" transform="translate(84.8401 108.313) scale(0.00552515) rotate(-27.5347)"/>
<use xlink:href="#stroke0_128_1549" transform="translate(85.3954 108.11) scale(0.00552515) rotate(-18.4435)"/>
<use xlink:href="#stroke0_128_1549" transform="translate(86.279 107.639) scale(0.00552515) rotate(7.98729)"/>
<use xlink:href="#stroke0_128_1549" transform="translate(87.1238 107.448) scale(0.00552515) rotate(25.6781)"/>
<use xlink:href="#stroke0_128_1549" transform="translate(87.2097 107.632) scale(0.00552515) rotate(7.79278)"/>
<use xlink:href="#stroke0_128_1549" transform="translate(87.67 107.633) scale(0.00552515) rotate(7.43947)"/>
<use xlink:href="#stroke0_128_1549" transform="translate(88.0587 107.689) scale(0.00552515) rotate(3.28466)"/>
<use xlink:href="#stroke0_128_1549" transform="translate(88.2239 108.039) scale(0.00552515) rotate(-16.3118)"/>
<use xlink:href="#stroke0_128_1549" transform="translate(88.6566 108.097) scale(0.00552515) rotate(-19.2772)"/>
<use xlink:href="#stroke0_128_1549" transform="translate(89.2213 107.934) scale(0.00552515) rotate(-11.4775)"/>
<use xlink:href="#stroke0_128_1549" transform="translate(89.91 107.686) scale(0.00552515) rotate(2.31735)"/>
<use xlink:href="#stroke0_128_1549" transform="translate(90.2658 107.79) scale(0.00552515) rotate(-4.16729)"/>
<use xlink:href="#stroke0_128_1549" transform="translate(90.6746 107.853) scale(0.00552515) rotate(-7.90455)"/>
<use xlink:href="#stroke0_128_1549" transform="translate(90.9504 108.163) scale(0.00552515) rotate(-23.3767)"/>
<use xlink:href="#stroke0_128_1549" transform="translate(92.1865 107.426) scale(0.00552515) rotate(22.2778)"/>
<use xlink:href="#stroke0_128_1549" transform="translate(92.7445 107.391) scale(0.00552515) rotate(26.2936)"/>
<use xlink:href="#stroke0_128_1549" transform="translate(93.2401 107.378) scale(0.00552515) rotate(27.5305)"/>
<use xlink:href="#stroke0_128_1549" transform="translate(93.4624 107.468) scale(0.00552515) rotate(16.5285)"/>
<use xlink:href="#stroke0_128_1549" transform="translate(93.3479 108.018) scale(0.00552515) rotate(-17.6046)"/>
<use xlink:href="#stroke0_128_1549" transform="translate(93.8137 108.016) scale(0.00552515) rotate(-17.7223)"/>
<use xlink:href="#stroke0_128_1549" transform="translate(94.3212 107.944) scale(0.00552515) rotate(-14.4351)"/>
<use xlink:href="#stroke0_128_1549" transform="translate(94.744 108.014) scale(0.00552515) rotate(-18.0826)"/>
<use xlink:href="#stroke0_128_1549" transform="translate(95.7772 107.457) scale(0.00552515) rotate(15.525)"/>
<use xlink:href="#stroke0_128_1549" transform="translate(95.8346 107.779) scale(0.00552515) rotate(-6.55452)"/>
<use xlink:href="#stroke0_128_1549" transform="translate(96.1231 108.044) scale(0.00552515) rotate(-20.1032)"/>
<use xlink:href="#stroke0_128_1549" transform="translate(97.0471 107.522) scale(0.00552515) rotate(9.10586)"/>
<use xlink:href="#stroke0_128_1549" transform="translate(97.1384 107.896) scale(0.00552515) rotate(-13.3681)"/>
<use xlink:href="#stroke0_128_1549" transform="translate(97.7622 107.697) scale(0.00552515) rotate(-2.89844)"/>
<use xlink:href="#stroke0_128_1549" transform="translate(98.8661 107.32) scale(0.00552515) rotate(28.3684)"/>
<use xlink:href="#stroke0_128_1549" transform="translate(99.2268 107.348) scale(0.00552515) rotate(23.7036)"/>
<use xlink:href="#stroke0_128_1549" transform="translate(99.0655 107.797) scale(0.00552515) rotate(-9.19009)"/>
<use xlink:href="#stroke0_128_1549" transform="translate(99.7862 107.542) scale(0.00552515) rotate(5.79813)"/>
<use xlink:href="#stroke0_128_1549" transform="translate(99.915 107.912) scale(0.00552515) rotate(-15.4499)"/>
<use xlink:href="#stroke0_128_1549" transform="translate(100.574 107.662) scale(0.00552515) rotate(-2.40713)"/>
<use xlink:href="#stroke0_128_1549" transform="translate(101.354 107.42) scale(0.00552515) rotate(14.0987)"/>
<use xlink:href="#stroke0_128_1549" transform="translate(101.503 107.658) scale(0.00552515) rotate(-2.70284)"/>
<use xlink:href="#stroke0_128_1549" transform="translate(101.731 107.989) scale(0.00552515) rotate(-20.0222)"/>
<use xlink:href="#stroke0_128_1549" transform="translate(102.613 107.498) scale(0.00552515) rotate(7.00189)"/>
<use xlink:href="#stroke0_128_1549" transform="translate(103.131 107.458) scale(0.00552515) rotate(9.59532)"/>
<use xlink:href="#stroke0_128_1549" transform="translate(103.085 108.079) scale(0.00552515) rotate(-24.7779)"/>
<use xlink:href="#stroke0_128_1549" transform="translate(104.084 107.437) scale(0.00552515) rotate(10.5178)"/>
<use xlink:href="#stroke0_128_1549" transform="translate(104.228 107.72) scale(0.00552515) rotate(-7.667)"/>
<use xlink:href="#stroke0_128_1549" transform="translate(104.486 108.068) scale(0.00552515) rotate(-24.8749)"/>
<use xlink:href="#stroke0_128_1549" transform="translate(105 107.961) scale(0.00552515) rotate(-20.1309)"/>
<use xlink:href="#stroke0_128_1549" transform="translate(105.417 108.067) scale(0.00552515) rotate(-25.2323)"/>
<use xlink:href="#stroke0_128_1549" transform="translate(106.191 107.598) scale(0.00552515) rotate(-1.75802)"/>
<use xlink:href="#stroke0_128_1549" transform="translate(106.895 107.406) scale(0.00552515) rotate(10.9189)"/>
<use xlink:href="#stroke0_128_1549" transform="translate(107.035 107.689) scale(0.00552515) rotate(-7.37981)"/>
<use xlink:href="#stroke0_128_1549" transform="translate(107.261 108.117) scale(0.00552515) rotate(-28.2264)"/>
<use xlink:href="#stroke0_128_1549" transform="translate(108.618 107.245) scale(0.00552515) rotate(25.7731)"/>
<use xlink:href="#stroke0_128_1549" transform="translate(109.133 107.226) scale(0.00552515) rotate(27.8583)"/>
<use xlink:href="#stroke0_128_1549" transform="translate(109.004 107.562) scale(0.00552515) rotate(-1.18708)"/>
<use xlink:href="#stroke0_128_1549" transform="translate(109.263 107.817) scale(0.00552515) rotate(-15.1438)"/>
<use xlink:href="#stroke0_128_1549" transform="translate(109.681 107.899) scale(0.00552515) rotate(-19.3183)"/>
<use xlink:href="#stroke0_128_1549" transform="translate(110.05 108.136) scale(0.00552515) rotate(-30.228)"/>
<use xlink:href="#stroke0_128_1549" transform="translate(110.91 107.51) scale(0.00552515) rotate(0.920399)"/>
<use xlink:href="#stroke0_128_1549" transform="translate(111.53 107.386) scale(0.00552515) rotate(9.04602)"/>
<use xlink:href="#stroke0_128_1549" transform="translate(111.824 107.52) scale(0.00552515) rotate(-0.240965)"/>
<use xlink:href="#stroke0_128_1549" transform="translate(112.087 107.758) scale(0.00552515) rotate(-13.5405)"/>
<use xlink:href="#stroke0_128_1549" transform="translate(112.591 107.701) scale(0.00552515) rotate(-10.8434)"/>
<use xlink:href="#stroke0_128_1549" transform="translate(113.341 107.41) scale(0.00552515) rotate(6.08522)"/>
<use xlink:href="#stroke0_128_1549" transform="translate(113.989 107.29) scale(0.00552515) rotate(15.0803)"/>
<use xlink:href="#stroke0_128_1549" transform="translate(114.057 107.606) scale(0.00552515) rotate(-6.49007)"/>
<use xlink:href="#stroke0_128_1549" transform="translate(114.49 107.644) scale(0.00552515) rotate(-8.74612)"/>
<use xlink:href="#stroke0_128_1549" transform="translate(115.705 107.157) scale(0.00552515) rotate(29.1674)"/>
<use xlink:href="#stroke0_128_1549" transform="translate(115.249 107.926) scale(0.00552515) rotate(-23.0242)"/>
<use xlink:href="#stroke0_128_1549" transform="translate(115.775 107.805) scale(0.00552515) rotate(-17.5521)"/>
<use xlink:href="#stroke0_128_1549" transform="translate(116.738 107.294) scale(0.00552515) rotate(12.4615)"/>
<use xlink:href="#stroke0_128_1549" transform="translate(117.274 107.252) scale(0.00552515) rotate(15.7624)"/>
<use xlink:href="#stroke0_128_1549" transform="translate(117.125 107.893) scale(0.00552515) rotate(-22.3178)"/>
<use xlink:href="#stroke0_128_1549" transform="translate(117.89 107.47) scale(0.00552515) rotate(-0.695746)"/>
<use xlink:href="#stroke0_128_1549" transform="translate(118.076 107.85) scale(0.00552515) rotate(-20.7177)"/>
<use xlink:href="#stroke0_128_1549" transform="translate(118.626 107.7) scale(0.00552515) rotate(-13.7029)"/>
<use xlink:href="#stroke0_128_1549" transform="translate(119.588 107.241) scale(0.00552515) rotate(14.708)"/>
<use xlink:href="#stroke0_128_1549" transform="translate(119.659 107.559) scale(0.00552515) rotate(-6.80702)"/>
<use xlink:href="#stroke0_128_1549" transform="translate(120.017 107.704) scale(0.00552515) rotate(-14.5698)"/>
<use xlink:href="#stroke0_128_1549" transform="translate(120.452 107.753) scale(0.00552515) rotate(-17.1631)"/>
<use xlink:href="#stroke0_128_1549" transform="translate(121.057 107.551) scale(0.00552515) rotate(-7.07726)"/>
<use xlink:href="#stroke0_128_1549" transform="translate(121.275 107.992) scale(0.00552515) rotate(-28.574)"/>
<use xlink:href="#stroke0_128_1549" transform="translate(122.286 107.278) scale(0.00552515) rotate(9.55496)"/>
<use xlink:href="#stroke0_128_1549" transform="translate(122.52 107.469) scale(0.00552515) rotate(-3.22041)"/>
<use xlink:href="#stroke0_128_1549" transform="translate(122.669 108.003) scale(0.00552515) rotate(-29.6354)"/>
<use xlink:href="#stroke0_128_1549" transform="translate(123.171 107.903) scale(0.00552515) rotate(-25.3523)"/>
<use xlink:href="#stroke0_128_1549" transform="translate(124.138 107.272) scale(0.00552515) rotate(8.70465)"/>
<use xlink:href="#stroke0_128_1549" transform="translate(125.005 107.08) scale(0.00552515) rotate(27.2592)"/>
<use xlink:href="#stroke0_128_1549" transform="translate(125.087 107.253) scale(0.00552515) rotate(9.46119)"/>
<use xlink:href="#stroke0_128_1549" transform="translate(125.526 107.268) scale(0.00552515) rotate(8.01416)"/>
<use xlink:href="#stroke0_128_1549" transform="translate(125.818 107.41) scale(0.00552515) rotate(-1.57602)"/>
<use xlink:href="#stroke0_128_1549" transform="translate(126.233 107.46) scale(0.00552515) rotate(-4.71544)"/>
<use xlink:href="#stroke0_128_1549" transform="translate(126.513 107.718) scale(0.00552515) rotate(-18.2634)"/>
<use xlink:href="#stroke0_128_1549" transform="translate(127.451 107.213) scale(0.00552515) rotate(10.8387)"/>
<use xlink:href="#stroke0_128_1549" transform="translate(128.004 107.159) scale(0.00552515) rotate(14.9828)"/>
<use xlink:href="#stroke0_128_1549" transform="translate(128.328 107.243) scale(0.00552515) rotate(7.91359)"/>
<use xlink:href="#stroke0_128_1549" transform="translate(128.643 107.363) scale(0.00552515) rotate(-0.316263)"/>
<use xlink:href="#stroke0_128_1549" transform="translate(129.074 107.337) scale(0.00552515) rotate(1.01118)"/>
<defs>
<filter id="filter0_d_128_1549" x="40" y="18.3537" width="74" height="22" filterUnits="userSpaceOnUse" color-interpolation-filters="sRGB">
<feFlood flood-opacity="0" result="BackgroundImageFix"/>
<feColorMatrix in="SourceAlpha" type="matrix" values="0 0 0 0 0 0 0 0 0 0 0 0 0 0 0 0 0 0 127 0" result="hardAlpha"/>
<feOffset dy="4"/>
<feGaussianBlur stdDeviation="4"/>
<feComposite in2="hardAlpha" operator="out"/>
<feColorMatrix type="matrix" values="0 0 0 0 0 0 0 0 0 0 0 0 0 0 0 0 0 0 0.18 0"/>
<feBlend mode="normal" in2="BackgroundImageFix" result="effect1_dropShadow_128_1549"/>
<feBlend mode="normal" in="SourceGraphic" in2="effect1_dropShadow_128_1549" result="shape"/>
</filter>
<filter id="filter1_d_128_1549" x="44" y="82.3537" width="65" height="32" filterUnits="userSpaceOnUse" color-interpolation-filters="sRGB">
<feFlood flood-opacity="0" result="BackgroundImageFix"/>
<feColorMatrix in="SourceAlpha" type="matrix" values="0 0 0 0 0 0 0 0 0 0 0 0 0 0 0 0 0 0 127 0" result="hardAlpha"/>
<feOffset dy="4"/>
<feGaussianBlur stdDeviation="2"/>
<feComposite in2="hardAlpha" operator="out"/>
<feColorMatrix type="matrix" values="0 0 0 0 0 0 0 0 0 0 0 0 0 0 0 0 0 0 0.25 0"/>
<feBlend mode="normal" in2="BackgroundImageFix" result="effect1_dropShadow_128_1549"/>
<feBlend mode="normal" in="SourceGraphic" in2="effect1_dropShadow_128_1549" result="shape"/>
</filter>
<linearGradient id="paint0_linear_128_1549" x1="56.6333" y1="25.3537" x2="103.646" y2="68.1355" gradientUnits="userSpaceOnUse">
<stop stop-color="#F6D614"/>
<stop offset="1" stop-color="#E0AE16"/>
</linearGradient>
<g id="stroke0_128_1549" data-figma-scatter-ref="stroke0_128_1549_ref" data-figma-scatter="f0.25_w0_aj30_sj0_r0_s9145886464827917158_sw2">
<path d="M144.904 352.362C147.954 349.312 149.763 349.672 150.203 353.416C150.707 357.707 148.541 361.981 145.862 361.981C141.689 361.981 141.109 356.157 144.904 352.362ZM233.557 300.848C235.222 299.793 235.148 299.79 239.626 301.034C246.137 302.842 242.834 311.43 236.149 310.074C232.526 309.339 230.657 302.687 233.557 300.848ZM115.043 291.648C115.876 290.814 121.675 290.775 123.794 291.588C127.87 293.152 123.8 300.981 118.911 300.981C115.434 300.981 112.584 294.106 115.043 291.648ZM175 267.844C177.951 264.584 182.797 265.664 183.185 269.669C183.542 273.361 180.116 276.366 176.184 275.808C173.174 275.381 172.468 270.643 175 267.844ZM300.599 259.538C303.26 257.674 305.545 257.551 307.176 259.181C310.959 262.964 304.966 270.3 300.126 267.811C297.566 266.494 297.854 261.461 300.599 259.538ZM65.0379 258.053C67.3289 254.782 73.1336 255.171 74.0077 258.652C74.8097 261.846 70.4911 266.288 67.0751 265.785C64.3022 265.377 63.1012 260.818 65.0379 258.053ZM1.62975 232.231C4.06261 229.617 7.57057 229.306 9.42565 231.541C12.2486 234.942 6.98636 241.476 2.39147 240.275C-0.416467 239.54 -0.856054 234.902 1.62975 232.231ZM227.315 227.042C231.346 223.011 237.247 225.557 235.37 230.516C234.195 233.619 231.794 235.16 228.686 234.803C225.023 234.383 224.265 230.092 227.315 227.042ZM178.376 211.732C181.51 210.534 185.325 212.743 185.361 215.776C185.383 217.706 180.74 221.981 178.621 221.981C173.248 221.981 173.051 213.767 178.376 211.732ZM137.582 210.262C140.566 207.086 142.799 207.702 143.195 211.81C143.572 215.732 141.11 219.981 138.46 219.981C134.822 219.981 134.264 213.794 137.582 210.262ZM104.68 201.937C111.231 197.943 114.57 200.054 112.52 206.893C111.161 211.43 108.789 213.748 104.661 214.574C98.8111 215.744 98.826 205.507 104.68 201.937ZM156.506 182.543C159.544 178.68 163.042 179.112 164.254 183.5C165.996 189.811 163.107 195.981 158.409 195.981C152.055 195.981 151.122 189.388 156.506 182.543ZM332.126 178.425C334.334 175.356 337.748 175.58 338.208 178.826C338.634 181.835 336.64 186.667 334.658 187.427C330.706 188.943 328.979 182.801 332.126 178.425ZM134.324 176.981C140.114 176.981 141.992 179.238 139.609 183.334C135.805 189.874 127.938 186.852 129.768 179.555C130.324 177.339 130.958 176.981 134.324 176.981ZM180.774 170.492C187.383 163.883 194.419 171.193 189.887 179.96C188.034 183.542 185.237 184.501 181.642 182.786C177.638 180.875 177.16 174.106 180.774 170.492ZM112.139 167.546C117.116 164.845 119.376 165.47 119.376 169.547C119.376 175.831 115.282 180.917 110.189 180.959C104.909 181.002 106.413 170.653 112.139 167.546ZM33.1649 171.731C33.7239 169.528 40.0954 169.319 42.9354 171.41C44.8492 172.819 44.8486 172.89 42.9686 176.41C39.2236 183.42 31.175 179.578 33.1649 171.731ZM267.696 168.981C273.426 168.981 275.119 170.774 273.371 174.993C270.77 181.273 264.078 180.001 263.569 173.129C263.261 168.981 263.261 168.981 267.696 168.981ZM159.448 152.616C163.233 147.805 167.376 150.326 167.376 157.442C167.376 162.776 164.86 166.231 160.976 166.231C154.714 166.231 153.968 159.584 159.448 152.616ZM219.499 156.351C222.081 153.602 224.581 153.329 226.805 155.553C229.465 158.213 227.98 162.421 223.824 164.001C218.528 166.014 215.482 160.626 219.499 156.351ZM132.138 146.054C136.16 143.711 141.73 146.765 142.866 151.935C144.745 160.488 132.178 162.971 129.413 154.593C128.136 150.724 129.053 147.852 132.138 146.054ZM184.272 140.085C189.178 135.179 197.376 139.426 197.376 146.875C197.376 151.373 188.322 153.789 185.043 150.165C182.218 147.044 181.87 142.487 184.272 140.085ZM103.265 136.643C106.172 135.867 106.971 135.965 108.832 137.325C112.7 140.153 107.295 147.407 102.187 146.243C98.8774 145.488 99.7655 137.579 103.265 136.643ZM62.4491 135.616C65.764 131.401 68.3758 132.603 68.3758 138.341C68.3755 143.269 62.4813 147.303 60.9833 143.399C59.9033 140.585 60.3321 138.306 62.4491 135.616ZM158.258 128.107C163.297 122.713 167.571 126.799 165.946 135.459C165.2 139.434 163.282 141.231 159.784 141.231C153.605 141.231 152.763 133.99 158.258 128.107ZM121.831 124.436C124.74 121.526 129.132 122.159 129.998 125.613C130.635 128.147 129.291 130.422 126.17 132.092C121.221 134.74 117.713 128.553 121.831 124.436ZM262.467 115.114C264.971 112.426 267.759 112.682 268.182 115.639C268.678 119.104 265.754 124.981 263.534 124.981C259.887 124.981 259.199 118.621 262.467 115.114ZM219.09 113.601C220.466 112.224 227.646 113.439 228.774 115.24C231.457 119.521 223.801 125.239 219.816 121.931C218.332 120.7 217.823 114.868 219.09 113.601ZM186.626 107.037C189.254 106.009 193.302 106.693 195.224 108.488C197.466 110.583 193.061 116.981 189.376 116.981C184.556 116.981 182.277 108.737 186.626 107.037ZM143.089 101.602C145.174 99.5174 152.875 101.476 153.187 104.17C153.806 109.534 145.807 113.524 143.411 109.047C142.221 106.823 142.041 102.651 143.089 101.602ZM311.489 95.5642C314.286 92.0082 316.785 92.5543 317.195 96.8103C317.572 100.732 315.11 104.981 312.46 104.981C308.888 104.981 308.331 99.5791 311.489 95.5642ZM108.031 95.8103C111.186 92.3234 116.376 94.073 116.376 98.6238C116.376 101.384 112.875 103.981 109.153 103.981C105.832 103.981 105.147 98.9973 108.031 95.8103ZM175.774 83.3865C176.469 81.5745 182.402 81.5484 184.862 83.3474C188.912 86.3095 183.355 92.8823 177.705 91.8113C175.831 91.4563 174.652 86.3105 175.774 83.3865ZM38.5047 74.3435C41.9087 70.7215 43.895 71.6512 43.786 76.8172C43.676 81.981 41.2662 85.0278 38.6073 83.3631C35.9104 81.6751 35.8591 77.1605 38.5047 74.3435ZM257.376 69.9812C259.645 67.7122 260.694 67.5464 263.442 69.0164C268.436 71.6895 262.915 80.2395 257.338 78.4695C254.707 77.6344 254.729 72.6282 257.376 69.9812ZM112.217 45.325C116.782 43.296 117.771 44.0962 117.562 49.6482C117.204 59.1642 105.376 64.0357 105.376 54.6668C105.376 49.9811 107.13 47.5859 112.217 45.325ZM215.774 47.3865C216.895 44.4646 226.393 46.547 226.354 49.7058C226.271 56.3407 216.176 58.6121 215.556 52.1365C215.379 50.2967 215.478 48.1587 215.774 47.3865ZM161.376 36.7224C163.823 35.7714 164.281 35.8862 166.376 37.9812C170.527 42.1322 164.797 48.6148 158.958 46.3738C155.842 45.1776 157.591 38.1946 161.376 36.7224ZM128 2.8445C130.951 -0.416408 135.797 0.664004 136.185 4.66872C136.542 8.36057 133.116 11.3661 129.184 10.8084C126.174 10.3814 125.468 5.64253 128 2.8445ZM209.576 1.18141C212.244 -1.48652 219.392 0.727986 219.344 4.20582C219.236 11.9387 208.439 12.6541 208.391 4.93141C208.383 3.52851 208.916 1.84151 209.576 1.18141Z" fill="black"/>
</g>
<path id="stroke0_128_1549_ref" d="M23.9906 109.354L129.991 108.354"/>
</defs>
</svg>
