<?xml version="1.0" encoding="UTF-8" standalone="no"?><!DOCTYPE svg PUBLIC "-//W3C//DTD SVG 1.1//EN" "http://www.w3.org/Graphics/SVG/1.1/DTD/svg11.dtd"><svg width="100%" height="100%" viewBox="0 0 584 584" version="1.1" xmlns="http://www.w3.org/2000/svg" xmlns:xlink="http://www.w3.org/1999/xlink" xml:space="preserve" xmlns:serif="http://www.serif.com/" style="fill-rule:evenodd;clip-rule:evenodd;stroke-linejoin:round;stroke-miterlimit:2;"><g><g><path d="M291.667,546.875c-29.167,-27.546 -62.595,-48.611 -100.269,-63.194c-37.657,-14.583 -77.162,-21.875 -118.481,-21.875l0,-267.361c40.914,0 80.208,7.389 117.882,22.183c37.674,14.778 71.296,36.15 100.868,64.102c29.572,-27.951 63.194,-49.324 100.868,-64.102c37.674,-14.794 76.968,-22.183 117.882,-22.183l0,267.361c-41.725,0 -81.326,7.292 -118.789,21.875c-37.479,14.583 -70.794,35.648 -99.961,63.194Zm0,-63.194c25.521,-19.039 52.662,-34.222 81.424,-45.565c28.762,-11.359 58.333,-18.845 88.715,-22.491l0,-167.708c-29.572,5.266 -58.641,15.896 -87.192,31.905c-28.567,15.993 -56.211,37.366 -82.947,64.102c-26.736,-26.736 -54.38,-48.109 -82.947,-64.102c-28.551,-16.009 -57.62,-26.639 -87.192,-31.905l0,167.708c30.382,3.646 59.954,11.132 88.715,22.491c28.762,11.343 55.903,26.525 81.424,45.565Zm0,-264.931c-26.736,0 -49.616,-9.528 -68.671,-28.551c-19.023,-19.056 -28.551,-41.935 -28.551,-68.671c0,-26.736 9.528,-49.616 28.551,-68.655c19.056,-19.056 41.935,-28.567 68.671,-28.567c26.736,0 49.616,9.512 68.671,28.567c19.039,19.039 28.551,41.919 28.551,68.655c0,26.736 -9.512,49.616 -28.551,68.671c-19.056,19.023 -41.935,28.551 -68.671,28.551Zm0,-48.611c13.368,0 24.808,-4.764 34.336,-14.275c9.512,-9.528 14.275,-20.968 14.275,-34.336c0,-13.368 -4.764,-24.808 -14.275,-34.336c-9.528,-9.512 -20.968,-14.275 -34.336,-14.275c-13.368,0 -24.808,4.764 -34.336,14.275c-9.512,9.528 -14.275,20.968 -14.275,34.336c0,13.368 4.764,24.808 14.275,34.336c9.528,9.512 20.968,14.275 34.336,14.275Z" style="fill:#fff;fill-rule:nonzero;"/></g></g></svg>