<?xml version="1.0" encoding="UTF-8" standalone="no"?><!DOCTYPE svg PUBLIC "-//W3C//DTD SVG 1.1//EN" "http://www.w3.org/Graphics/SVG/1.1/DTD/svg11.dtd"><svg width="100%" height="100%" viewBox="0 0 140 140" version="1.1" xmlns="http://www.w3.org/2000/svg" xmlns:xlink="http://www.w3.org/1999/xlink" xml:space="preserve" xmlns:serif="http://www.serif.com/" style="fill-rule:evenodd;clip-rule:evenodd;stroke-linejoin:round;stroke-miterlimit:2;"><g><g><path d="M53.962,128.333l-2.333,-18.667c-1.264,-0.486 -2.454,-1.069 -3.574,-1.75c-1.12,-0.681 -2.213,-1.412 -3.282,-2.186l-17.352,7.288l-16.042,-27.704l15.019,-11.379c-0.097,-0.681 -0.144,-1.334 -0.144,-1.968l0,-3.936c0,-0.634 0.047,-1.287 0.144,-1.968l-15.019,-11.379l16.042,-27.704l17.352,7.288c1.069,-0.774 2.189,-1.505 3.356,-2.186c1.167,-0.681 2.333,-1.264 3.5,-1.75l2.333,-18.667l32.083,-0l2.333,18.667c1.264,0.486 2.454,1.069 3.574,1.75c1.116,0.681 2.209,1.412 3.278,2.186l17.356,-7.288l16.042,27.704l-15.023,11.379c0.097,0.681 0.148,1.334 0.148,1.968l0,3.936c0,0.634 -0.097,1.287 -0.292,1.968l15.019,11.379l-16.042,27.704l-17.208,-7.288c-1.069,0.774 -2.186,1.505 -3.352,2.186c-1.167,0.681 -2.333,1.264 -3.5,1.75l-2.333,18.667l-32.083,0Zm10.208,-11.667l11.519,0l2.042,-15.458c3.014,-0.778 5.81,-1.921 8.388,-3.426c2.574,-1.509 4.931,-3.329 7.07,-5.468l14.439,5.977l5.686,-9.917l-12.542,-9.477c0.486,-1.361 0.828,-2.796 1.023,-4.305c0.194,-1.505 0.292,-3.037 0.292,-4.593c0,-1.556 -0.097,-3.088 -0.292,-4.593c-0.194,-1.509 -0.537,-2.944 -1.023,-4.301l12.542,-9.481l-5.686,-9.917l-14.439,6.125c-2.139,-2.236 -4.496,-4.107 -7.07,-5.616c-2.578,-1.505 -5.374,-2.648 -8.388,-3.426l-1.894,-15.458l-11.523,0l-2.042,15.458c-3.014,0.778 -5.806,1.921 -8.384,3.426c-2.578,1.509 -4.935,3.333 -7.074,5.468l-14.436,-5.977l-5.689,9.917l12.542,9.333c-0.486,1.458 -0.824,2.917 -1.019,4.375c-0.194,1.458 -0.292,3.014 -0.292,4.667c0,1.556 0.097,3.064 0.292,4.523c0.194,1.458 0.533,2.917 1.019,4.375l-12.542,9.477l5.689,9.917l14.436,-6.125c2.139,2.236 4.496,4.107 7.074,5.616c2.578,1.505 5.371,2.648 8.384,3.426l1.898,15.458Zm6.125,-26.25c5.639,0 10.449,-1.991 14.436,-5.981c3.986,-3.982 5.981,-8.797 5.981,-14.436c0,-5.639 -1.995,-10.453 -5.981,-14.439c-3.986,-3.986 -8.797,-5.977 -14.436,-5.977c-5.736,0 -10.574,1.991 -14.509,5.977c-3.939,3.986 -5.907,8.801 -5.907,14.439c0,5.639 1.968,10.453 5.907,14.436c3.936,3.99 8.773,5.981 14.509,5.981Z" style="fill:#fff;fill-rule:nonzero;"/></g></g></svg>