<?xml version="1.0" encoding="UTF-8"?>
<svg id="Layer_6" data-name="Layer 6" xmlns="http://www.w3.org/2000/svg" xmlns:xlink="http://www.w3.org/1999/xlink" viewBox="0 0 278.14 278.14">
  <defs>
    <style>
      .cls-1, .cls-2 {
        fill: none;
      }

      .cls-3 {
        fill: #010101;
      }

      .cls-4 {
        fill: #e8b48f;
      }

      .cls-5 {
        fill: #6e472d;
      }

      .cls-6 {
        fill: #f2eef7;
      }

      .cls-7 {
        fill: #914a3b;
      }

      .cls-8 {
        fill: #804841;
      }

      .cls-2 {
        stroke: #a16e29;
        stroke-width: .18px;
      }

      .cls-2, .cls-9 {
        stroke-miterlimit: 10;
      }

      .cls-10 {
        clip-path: url(#clippath-1);
      }

      .cls-11 {
        fill: #050505;
      }

      .cls-12 {
        fill: #020202;
      }

      .cls-13 {
        fill: #fff;
      }

      .cls-14 {
        fill: #d94f3b;
      }

      .cls-15 {
        fill: #e4bd22;
      }

      .cls-16 {
        fill: #b6812c;
      }

      .cls-17 {
        fill: #ce932a;
      }

      .cls-9 {
        fill: #dbf1f9;
        stroke: #fff;
        stroke-width: .5px;
      }

      .cls-18 {
        fill: #241f20;
      }

      .cls-19 {
        fill: #4b2c1d;
      }

      .cls-20 {
        clip-path: url(#clippath);
      }

      .cls-21 {
        fill: #fbca42;
      }

      .cls-22 {
        fill: #ae745b;
      }
    </style>
    <clipPath id="clippath">
      <circle class="cls-1" cx="137.94" cy="138.93" r="136.76"/>
    </clipPath>
    <clipPath id="clippath-1">
      <path class="cls-1" d="M191.29,278.41c.12-.07-.93-6.74-.8-6.82-1.36-14.05-2.17-28.29-3.42-37.78-12.83,1.91-26.14,5.19-39,5.03-10.63-.13-34.94-1.96-45.38-4.15-8.69-1.82-2.68-2.25-11.53-2.98-.44,3.72-2.01,18.65-4.04,38.43,3.97.28,7.73,3.21,11.48,6.16-3.12-.67-6.26-1.22-9.43-1.44-10.56,31.76-11.34,132.35-12.92,148.93,7.36,6.19,8.27-2.41,18.85,1.38,10.59,3.78,13.81,4.13,21.07,0,7.26-4.13,13.31-2.75,22.68,1.38,9.38,4.13,16.94-.34,22.38-.69,5.44-.34,12.7,3.44,22.38,3.78,9.68.34,6.03-4.59,11.77-4.24-.21-5.67.35-95.92-4.1-147Z"/>
    </clipPath>
  </defs>
  <g class="cls-20">
    <circle class="cls-9" cx="139.07" cy="139.07" r="136.76"/>
    <circle class="cls-1" cx="139.23" cy="142.18" r="136.76"/>
    <circle class="cls-1" cx="139.07" cy="142.07" r="136.76"/>
    <path class="cls-19" d="M175.17,124.14c3.91,5.03,7.56,10.62,7.69,16.73.08,3.73-1.16,7.37-1.65,11.08s-.09,7.81,2.73,10.57c-.83-.02-1.62-.31-2.38-.6-4.69-1.77-9.39-3.54-14.08-5.31-1.68-.63-3.39-1.28-4.79-2.32-2.83-2.1-3.98-5.44-4.95-8.6-.38-1.24-.76-2.53-.58-3.8.18-1.28.9-2.44,1.61-3.56,2.92-4.64,5.83-9.27,8.75-13.91"/>
    <path class="cls-4" d="M174.22,165.79c1.7.54,16.34,7.09,19.79,17.55,3.45,10.46,1.31,42.36,2.92,51.54,1.82,9.48,1.6,18.52,2.75,30.38.3,3.09.3,14.33.13,17.43l.02,13-10.79-1.99s-8.21-59.09-14.39-73.73c-6.17-14.64-.42-54.18-.42-54.18Z"/>
    <path class="cls-21" d="M91.36,236.74c7.71.97,17.79,3.68,25.41,5.36,10.38,2.29,20.77-1.59,31.36-1.43,12.97.2,26.22.14,39.15-1.8-.22-1.15-.43-2.05-.65-2.64-.31-11.09.04-29.68.04-29.68,0,0,10.35,3.49,11.11-10.22-1.89-5.54,1.08-28.15-18.49-40.07-2.77-1.69-11.63-5.44-15.97-5.63,1.06,1.9-.32,7.73-.63,9.09-.89,3.91-1.46,4.74-4.42,6.59-2.62,1.64-10.25-.21-13.27-.91-9.44-2.2-21.02-11.66-24.34-18.01-8.28,2.54-15.85.66-22.07,4.03-27.36,14.81-22.85,49.61-22.85,49.61,4.19,2.77,26.46,12.31,26.46,12.31-1.55,8.42-8.18,19.52-10.84,23.41Z"/>
    <path class="cls-17" d="M191.5,277.5c.12-.07.25-.13.38-.21-1.36-14.05-3.35-28.97-4.6-38.46-12.83,1.91-26.14,5.19-39,5.03-10.63-.13-34.94-1.96-45.38-4.15-8.69-1.82-2.68-2.25-11.53-2.98-.44,3.72-2.01,12.72-4.04,32.51,3.97.28,7.73,3.21,11.48,6.16-3.12-.67-6.26-1.22-9.43-1.44-8.92,27.51-11.34,132.35-12.92,148.93,7.36,6.19,8.27-2.41,18.85,1.38,10.59,3.78,13.81,4.13,21.07,0,7.26-4.13,13.31-2.75,22.68,1.38,9.38,4.13,16.94-.34,22.38-.69,5.44-.34,12.7,3.44,22.38,3.78,9.68.34,6.03-4.59,11.77-4.24-.21-5.67.35-95.92-4.1-147Z"/>
    <path class="cls-16" d="M191.79,277.72c.14-.33-.08-1-.12-1.34-.13-1-.27-2-.4-3-.25-1.83-.43-3.66-.61-5.49-.63-6.48-1.23-12.95-1.95-19.42-.35-3.16-.73-6.31-1.15-9.46-.01-.1-.19-.1-.25-.09-8.72,1.31-17.35,3.16-26.1,4.23-6.84.83-13.63.88-20.5.53-6.28-.31-12.55-.78-18.81-1.37-5.8-.55-11.63-1.15-17.37-2.21-2.35-.44-4.88-.83-6.97-2.07-1.78-1.06-4.1-1.04-6.1-1.21-.11,0-.38.06-.4.21-.41,3.42-.96,6.82-1.42,10.23-1,7.41-1.85,14.84-2.62,22.28-.01.1.1.13.18.14,4.37.41,8.01,3.5,11.33,6.11l.44-.28c-3.14-.67-6.29-1.21-9.49-1.45-.14-.01-.35.06-.4.21-2.16,5.58-3.14,11.64-4.07,17.52-1.35,8.61-2.26,17.3-3.04,25.98-.89,9.98-1.58,19.98-2.18,29.98-.59,9.96-1.08,19.93-1.53,29.91-.38,8.58-.72,17.17-1.08,25.75-.24,5.72-.44,11.44-.82,17.14-.05.74-.32,1.76-.19,2.49.12.65,1.34,1.28,1.92,1.61.79.46,1.65.82,2.56.94,1.47.21,2.86-.25,4.23-.75,2.05-.74,4.04-1.29,6.24-1.09,3.44.32,6.69,1.98,9.99,2.91,2.31.65,4.7,1.15,7.11.97,5.62-.41,9.81-4.84,15.42-5.36,3.44-.32,6.87.56,10.08,1.71,3.58,1.28,6.91,3.15,10.73,3.66,2.98.39,5.97.07,8.89-.55,2.63-.56,5.24-1.5,7.93-1.69s5.56.59,8.21,1.27c3.22.82,6.44,1.65,9.74,2.11,3.94.55,9.43,1.37,12.37-2.04,1.14-1.32,2.06-1.89,3.9-1.8.14,0,.41-.07.4-.25-.14-4.07-.06-8.15-.08-12.22-.03-8.66-.08-17.33-.16-25.99-.11-11.31-.26-22.62-.5-33.93-.26-12.32-.6-24.63-1.1-36.94-.46-11.4-1.05-22.81-1.95-34.19-.1-1.25-.2-2.49-.31-3.73-.02-.2-.6-.07-.58.16.97,11.14,1.58,22.3,2.08,33.47.54,12.3.91,24.6,1.19,36.9.26,11.69.44,23.38.56,35.07.09,9.03.15,18.07.19,27.1.02,4.63-.02,9.27.07,13.9,0,.18,0,.37.01.55l.4-.25c-1.32-.06-2.65.09-3.66,1.01s-1.62,2.03-2.94,2.6c-3.02,1.3-7.04.64-10.17.16-3.31-.51-6.53-1.38-9.78-2.19-2.39-.6-4.87-1.22-7.35-1.13s-4.73.84-7.04,1.4c-3.4.82-6.89,1.35-10.38.82-3.82-.58-7.23-2.54-10.86-3.79-5.64-1.94-11.26-2.25-16.64.59-2.48,1.31-4.88,2.73-7.7,3.14-2.61.38-5.23-.15-7.73-.86-3.16-.89-6.22-2.41-9.48-2.86-1.99-.27-3.94-.05-5.84.57-1.56.51-3.14,1.34-4.82,1.24-1.08-.07-2.09-.51-2.99-1.08-.44-.27-1.39-.73-1.56-1.21-.05-.12.04-.41.05-.54.42-4.96.58-9.94.79-14.92.34-8.04.66-16.09,1-24.13.42-9.69.87-19.38,1.4-29.07.55-10.07,1.19-20.13,2.01-30.18.73-8.99,1.58-17.98,2.78-26.92.9-6.64,1.89-13.36,3.78-19.81.32-1.1.68-2.19,1.09-3.26l-.4.21c3.16.24,6.27.77,9.36,1.44.09.02.64-.13.44-.28-3.14-2.47-6.54-5.36-10.59-6.09-.53-.09-.65.03-.82-.49-.14-.42.15-1.48.2-1.92.12-1.14.24-2.28.37-3.42.22-1.98.44-3.96.68-5.94.64-5.43,1.35-10.85,2.13-16.26.21-1.49.44-2.98.62-4.47l-.4.21c1.69.14,3.73.1,5.31.84.76.35,1.41.82,2.21,1.11,3.47,1.23,7.3,1.69,10.94,2.19,9.1,1.25,18.29,2,27.46,2.55,3.82.23,7.64.43,11.46.45,6.25.04,12.48-.71,18.65-1.67,3.23-.51,6.45-1.08,9.68-1.65,1.49-.26,2.97-.52,4.46-.78,1.57-.27,3.3-.76,4.9-.8.89-.02.75.29.85,1.1.07.54.14,1.08.21,1.63.13,1.06.26,2.12.39,3.18.26,2.24.51,4.49.75,6.73.63,5.96,1.31,11.94,1.76,17.92.1,1.28.28,2.56.46,3.83.12.85.24,1.71.34,2.56.05.36.29,1.1.14,1.45-.08.19.5.13.58-.07Z"/>
    <path class="cls-21" d="M85.92,159.35s-1.25-3.1-11.34,20.94c-9.09,21.64-1.15,25.42-1.15,25.42,0,0,5.67,9.16,32.76,9.16,12.29,0,9.19-58.62,9.19-58.62"/>
    <path class="cls-16" d="M198.01,198.18c.46-5.1,0-10.43-.92-15.45-1.73-9.58-5.89-19.06-13.66-25.25-2.25-1.79-4.7-2.8-7.39-3.78-3.6-1.31-7.24-2.55-10.67-4.29-.51-.26-1.35.26-1.07.84.62,1.29-.34,3.46-.76,4.67-.49,1.41-1.12,2.78-1.6,4.2-.22.64-.29,1.35-.59,1.96-.28.57-.5.45-1.1.51-1.49.14-2.57,1.05-3.98,1.39-3.51.86-7.74.22-11.22-.55-4.72-1.05-9.3-3.13-13.42-5.63-4.01-2.44-8.23-5.52-10.5-9.74-.13-.25-.57-.27-.8-.2-3.23.95-6.44.8-9.74.36-2.53-.34-5.1-.78-7.65-.39-2.68.41-4.98,1.89-7.24,3.31-2.82,1.77-5.52,3.73-8.04,5.91-2.23,1.92-4.35,4.01-6.17,6.33-1.59,2.03-2.64,4.15-3.68,6.48-1.68,3.74-2.82,7.64-4,11.58-2.31,7.72-7.33,16.39-2.94,24.32.8,1.45,1.89,2.61,3.21,3.58-.24-.17-.15-.22.02.18.2.48.51.91.84,1.31,1.65,1.99,4.11,3.25,6.48,4.17,5.51,2.14,11.57,2.78,17.43,3.08l-.45-.65c-1.19,3.89-2.47,7.76-3.91,11.57-1.09,2.88-2.2,5.94-3.92,8.51-.24.36-.07.73.37.79,5.78.75,11.48,2.1,17.15,3.44,5.7,1.34,11.24,2.83,17.15,2.63,6.51-.22,12.89-1.71,19.39-2.06,3.17-.17,6.35-.02,9.53,0,3.39.02,6.78,0,10.17-.08,7.6-.18,15.19-.68,22.71-1.8.37-.05.87-.29.78-.75-.2-1.02-.58-2.06-.65-3.1-.05-.73-.03-1.47-.04-2.2-.03-1.7-.04-3.4-.04-5.1,0-3.37.03-6.74.08-10.11.06-3.89.14-7.78.25-11.66l-1.15.56c1.53.8,3.51,1,5.18.61,4.27-1,5.88-5.65,6.59-9.48.14-.75-1.35-.59-1.47.1-.58,3.19-1.89,7.75-5.66,8.39-1.25.21-2.68-.04-3.81-.63-.37-.19-1.14.09-1.15.56-.12,4-.2,8-.25,12-.05,3.49-.08,6.99-.07,10.48,0,1.68.02,3.36.05,5.04.01.71-.04,1.46.05,2.16.12.92.48,1.87.66,2.79l.78-.75c-13.24,1.97-26.51,1.79-39.85,1.8-6.38,0-12.63,1.4-18.96,1.94-3.22.28-6.47.33-9.67-.16-2.77-.43-5.51-1.18-8.23-1.83-6.29-1.49-12.59-3.05-19-3.88l.37.79c1.72-2.56,2.85-5.54,3.95-8.41,1.5-3.93,2.82-7.93,4.06-11.95.1-.32-.09-.63-.45-.65-5.29-.27-10.71-.82-15.76-2.51-2.39-.8-4.86-1.88-6.71-3.65-.68-.65-1.07-1.45-1.46-2.04-.52-.8-1.56-1.34-2.18-2.12-1.93-2.42-2.66-5.54-2.59-8.59.11-4.94,2.3-9.18,3.76-13.78,1.27-4.02,2.29-8.13,3.8-12.07,1.67-4.36,4.03-8.17,7.31-11.52,2.45-2.51,5.2-4.75,8.06-6.77,1.41-.99,2.85-1.93,4.33-2.81,1.42-.84,2.84-1.71,4.47-2.07,2.9-.64,5.92.08,8.81.42,3.18.38,6.33.36,9.43-.55l-.8-.2c2.19,4.07,6.21,7.13,10.05,9.54,4.45,2.8,9.38,5.06,14.51,6.24,3.75.86,8.13,1.4,11.94.6.81-.17,1.49-.48,2.2-.87.77-.42,1.43-.46,2.27-.55,1.54-.17,1.99-1.26,2.37-2.63.48-1.78,1.3-3.45,1.9-5.19.53-1.55,1.36-3.65.6-5.24l-1.07.84c2.98,1.51,6.12,2.65,9.26,3.78,2.32.84,4.88,1.55,6.94,2.96,4.29,2.93,7.67,7.07,10.11,11.63,3.94,7.36,5.57,15.91,5.78,24.2.04,1.76.05,3.53-.11,5.28-.07.78,1.41.6,1.47-.1Z"/>
    <g>
      <path class="cls-21" d="M186.66,187.35c.49,6.17,0,26.13,0,26.13,0,0,6.67.69,9.48-2.28l-.83-7.79s-1.94,2.63-8.38,1.27"/>
      <path class="cls-16" d="M185.94,187.54c.39,5.11.24,10.3.18,15.42-.04,3.53-.1,7.07-.18,10.6,0,.17.1.28.28.29,1.43.14,2.88.11,4.31-.05,1.15-.13,2.29-.37,3.37-.77.86-.32,2.33-.89,2.82-1.74.21-.35.11-.64.07-1.05l-.3-2.77c-.15-1.42-.3-2.84-.46-4.26-.06-.53-1.24-.03-1.4.18-1.42,1.86-5.29,1.29-7.26.89-.45-.09-1.7.61-.89.78,2.76.55,7.48,1,9.49-1.65l-1.4.18c.12,1.09.23,2.18.35,3.27.09.84.18,1.69.27,2.53.06.53.25,1.21.19,1.74-.03.23-.04.17-.03.14-.24.4-.97.72-1.36.91-.98.47-2.07.69-3.14.82-.88.11-1.76.14-2.65.13-.27,0-.54-.02-.81-.03-.08,0-.59-.05-.3-.02l.28.29c.09-3.63.15-7.26.18-10.89.05-5.1.2-10.25-.18-15.34-.03-.46-1.49-.16-1.45.39h0Z"/>
    </g>
    <path class="cls-16" d="M103.98,214.67c2.52-.09,5.02-1.73,6.6-3.59,5.12-6.02,3.91-15.41,2.76-22.54-1.09-6.79-2.49-13.31-6.06-19.28-.33-.56-1.72-.01-1.33.64,2.99,4.99,4.48,10.42,5.46,16.11.86,5.04,1.74,10.15,1.28,15.28-.4,4.51-2,9.77-6.5,11.76-.74.33-1.44.53-2.09.55-.82.03-1.12,1.1-.13,1.06h0Z"/>
    <path class="cls-19" d="M99.18,107.24c2.59,5.2,9.77,10.26,14.43,13.76,4.77,3.59,6.89,4.38,12.63,4.7,11.19.62,22.66-1.51,32.44-7.27,10.09-5.94,17.53-15.5,21.08-26.85,2.48-7.93,3.42-15.98,2.97-23.96-.17-.83-.45-2.16-.63-2.98-5.68-15.45-10.36-23.79-25.41-26.78-9.24-1.93-25.09-4.13-39.59,1.19-3.13,1.14-7.72,9.46-11.73,11.36-6.04,2.87-3.53,3.53-6.15,8.6-3.81,7.42-4.14,17.54-4.51,27.11-.28,7.26,1.16,14.5,4.39,21,.02.04.04.08.06.12Z"/>
    <path class="cls-19" d="M94.62,112.6c2.65,5.33,5.95,10.71,10.78,14.34,4.94,3.71,8.18,18.97,14.18,19.37,11.69.76,26.8-15.85,37.09-21.61,10.61-5.95,18.5-15.61,22.35-27.14,2.84-8.51,3.87-17.18,3.31-25.77-.18-.56-.35-1.14-.54-1.68-5.75-15.83-10.61-23.36-26.3-26.58-9.64-2.08-24.32-.9-39.54,4.35-3.28,1.13-.37.59-4.59,2.48-6.35,2.85-13.32,7.9-16.11,13.04-5.3,9.8-4.47,24.35-5.59,36.22,1.06,4.47,2.88,8.76,4.97,12.97Z"/>
    <path class="cls-4" d="M182.95,113.63c.49-4.74-.86-9.02-1.5-11.88.05-2.2.09-4.75.12-7.82,0-.89,0-1.75-.03-2.6-.05-.44-.07-.87-.04-1.31-.63-14.98-5.65-22.77-5.65-22.77-6.41-9.87-17.57-15.57-29.31-14.98-13.82.41-26.21,8.93-32.64,17.45-3.19,4.22-4.72,9.47-4.28,14.74.36,4.51,1.46,9.56,2.72,14.44-4.83-.18-9.55,1.6-7.71,10.48,2.54,12.25,10.19,13.95,14.51,10.37,2.12,1.24,2.39,6.54,2.62,9.1.43,4.9.2,13.13-2.18,17.45l.14,1.4c10.58,16.7,32.73,22.13,47.75,8.9l-6.94-9.03-.14-5.51q2.7-.21,6.01-.92c11.1-2.98,15.97-21.93,16.54-27.52Z"/>
    <path class="cls-7" d="M160.32,142.09s-13.15,1.18-25.07-6.51c0,0,1.47,3.95,9.93,6.85,8.46,2.9,15.17,1.8,15.17,1.8l-.02-2.14Z"/>
    <path class="cls-19" d="M116.33,106.71c-.02-.07-.02-.15-.05-.22-.68-1.71-1.47-3.29-2.9-4.51-.65-.56-1.43-1.17-2.26-1.53-.82-.36-1.71-.77-2.61-.87-1.27-.29-2.53-.25-3.77.13-.21.1-.42.19-.63.29-3.44-10.44-5.07-21.63,2.36-34.64,2.15-3.75,7.9-7.95,9.66-9.29,10.66-8.07,20.31-8.81,32.22-7.85,13.8,1.11,26.84,9.72,30.26,23.58.83,3.34.95.56.69,3.98,0,0,1.04,1.1-5.68-2.75-6.72-3.85-11.17-6.67-20.57-6.29-10.89.4-14.58-5.45-23.23-.74-7.9,4.32-7.13,7.46-7.13,7.46-.48,2.02-1.65,3.76-2.43,5.65s-1.05,3.82-1.15,5.83c-.2,4.1-.56,8.21-.18,12.32.24,2.55.87,7.46-1.54,9.2-1.08.78.11.63-1.06.25Z"/>
    <path class="cls-8" d="M108.58,109.13c-.55-1.55-.94-3.76.03-5.25l-.61.33c-.24.02-.03-.02-.03,0,0,.01-.1-.03.03,0,.07.02.13.03.2.05.1.03.25.1.43.2.26.14.51.31.74.49,2.03,1.56,3.49,3.91,4.78,6.07l.99-.54c-.62-.44-1.43-.72-2.18-.53-.89.22-1.29,1.04-1.31,1.9-.05,2.18,1.95,3.21,3.87,3.39.49.05,1.22-.65.43-.72-1.46-.14-2.9-.88-3.11-2.46-.05-.37-.06-1.16.28-1.44.08-.07-.12.01.02,0,.07,0,.17.03.23.04.14.04.28.1.41.16.15.08.31.16.45.26.29.21,1.26-.1.99-.54-.99-1.65-2.06-3.28-3.35-4.71-.65-.72-1.39-1.43-2.24-1.92-.38-.22-.81-.41-1.25-.44-.57-.04-.88.28-1.08.77-.7,1.65-.47,3.54.11,5.18.16.45,1.31.12,1.16-.31h0Z"/>
    <path class="cls-22" d="M161.27,121.44c-3.67.02-9.63-.34-9.63-.34,0,0-.44,8.35,9.75,8.14,8.52-.18,8.64-8.07,8.64-8.07,0,0-5.08.25-8.76.27Z"/>
    <path class="cls-3" d="M161.57,121.43c-1.78.01-8.43-.01-8.43-.01,0,0,2.02,4.29,8.47,4.25,6.99-.04,7.59-3.92,7.59-3.92l-7.63-.31Z"/>
    <path class="cls-6" d="M162.05,122.05c-1.87.01-7.55-.22-7.55-.22,0,0,2.06,1.75,7.65,1.71,5.6-.03,7.36-1.75,7.36-1.75l-7.47.27Z"/>
    <path class="cls-22" d="M170.66,121.1c0-.18-.39-.26-1.29-.32-1.5-.11-1.99-.6-3.08-.66-1.86-.12-3.03.54-3.84.55s-1.99-.64-3.84-.5c-1.09.08-3.77.45-5.27.57-.9.07-1.96-.23-2.15-.19-.27.06.37,2.32,10.51,2.26,10.14-.06,8.97-1.46,8.97-1.71Z"/>
    <path class="cls-19" d="M149.48,91.68c.09,0,.18,0,.27-.02,0,0,.01,0,.02,0,.08-.02.18-.03.24-.05.1-.02.19-.06.28-.08.08-.04.15-.08.22-.12.02-.01.03-.02.05-.03.08-.08.16-.16.23-.23.01-.01,0,0,.01-.01.03-.04.05-.08.08-.12,0-.49.04-.98.11-1.48-.03-.12-.07-.25-.11-.37-.1-.04-.21-.08-.21-.13-5.64-1.52-9.97-1.8-11.56-1.59-1.21.16-2.4.56-3.53,1.12,0,0-3.13,1.5-3.53,2.13s1.88-.25,1.88-.25c.49-.12.82-.27,1.31-.33,2.71-.3,5.32-.95,8.02-.5,1.82.29,4.1,1.23,6.06,2.07.05,0,.1,0,.15,0Z"/>
    <path class="cls-19" d="M181.8,91.41c.01-.18.02-.36.03-.53h0s0-.05,0-.07c-.01-.06,0-.11,0-.17-.47-.33-.84-.57-.84-.57-.94-.64-1.94-1.11-2.97-1.35-1.31-.31-4.83-.31-9.47.7-.03.02-.06.04-.09.06,0,.01,0,.02,0,.03,0-.01,0-.02,0-.03h0c0,.07-.02.14-.02.21-.02.21-.03.41-.04.62-.01.37,0,.75.03,1.12,0,.07.01.13.02.2.02.12.04.26.09.37,0,0,0,0,0,0,.02.05.05.09.07.14.02.03.04.07.07.1.04.04.08.08.13.14,1.78-.73,3.91-1.58,5.57-1.76,2.34-.27,4.54.55,6.85,1.03.22.05.41.12.59.2.01,0,.02-.02.03-.03,0-.01.02-.02.02-.03-.03-.12-.06-.24-.05-.37Z"/>
    <path class="cls-19" d="M144.77,59.55s-1.75,14.7-15.12,22.82c-13.37,8.12-12.89,21.16-12.89,21.16,0,0-5.39-7.69-12.14-6.49-6.75,1.2-10.17,2.11-10.26,7.52-.09,5.41,1.02,17.34,16.51,20.32,0,0,7.87-2.06,8.07,6.84.2,8.9,2,9.25-3.14,21.02-5.14,11.77-5.92,28.59-.42,33.27,0,0-10.75-1.92-13.83-12.55-3.07-10.62-2.99-14.19-2.99-14.19,0,0,.2,8.32-6.54,12.26,0,0,3.84-8.66-.23-12.47-1.95-1.83-8.09,5.58-8.09,5.58,0,0-11.34-17.6-8.47-30.23,2.87-12.63,10.62-16.58,9.48-30.97-1.15-14.39-5.33-27.19-.16-36.43,5.17-9.24,10.12-22.65,26.51-21.2,16.39,1.45,33.73,13.73,33.73,13.73Z"/>
    <path class="cls-14" d="M109.3,98.54s1.98-45.24,37.18-43.28c0,0,16.23-2.12,30.88,9.9,0,0-4.38-8.89-12.33-13.46,0,0-26.18-11.24-46.25,4.9-20.07,16.14-13,43.28-13,43.28l3.51-1.34Z"/>
    <g>
      <ellipse class="cls-13" cx="107.92" cy="81.21" rx="2.53" ry="4.73"/>
      <path class="cls-18" d="M110.35,81.23c-.01,1.44-.31,3.34-1.51,4.31-1.32,1.07-2.5-.54-2.92-1.67-.58-1.56-.61-3.39-.13-4.98.35-1.17,1.42-3.07,2.88-2.11,1.36.89,1.67,2.97,1.68,4.45,0,.04.19.01.19-.05-.01-1.51-.36-3.84-1.91-4.59-1.18-.57-2.22.47-2.7,1.45-.85,1.76-.88,4.06-.21,5.88.4,1.08,1.33,2.41,2.65,1.97,1.76-.58,2.14-3.16,2.16-4.71,0-.04-.19-.01-.19.05Z"/>
    </g>
    <g>
      <ellipse class="cls-13" cx="107.92" cy="90.13" rx="2.53" ry="4.73"/>
      <path class="cls-18" d="M110.35,90.16c-.01,1.44-.3,3.34-1.51,4.31-1.32,1.06-2.5-.53-2.92-1.67-.58-1.56-.61-3.39-.13-4.98.35-1.16,1.42-3.07,2.88-2.11,1.36.89,1.67,2.97,1.68,4.45,0,.05.19.02.19-.05-.01-1.51-.36-3.84-1.91-4.59-1.18-.57-2.22.47-2.7,1.45-.85,1.76-.88,4.06-.21,5.88.4,1.07,1.33,2.42,2.65,1.97,1.76-.58,2.14-3.17,2.16-4.72,0-.05-.19-.02-.19.05Z"/>
    </g>
    <g>
      <ellipse class="cls-13" cx="112.38" cy="85.94" rx="4.73" ry="2.53"/>
      <path class="cls-18" d="M112.42,88.43c-1.44-.01-3.33-.31-4.29-1.52-.95-1.18.11-2.36,1.23-2.87,1.63-.75,3.69-.78,5.38-.23,1.03.33,2.57,1.17,2.24,2.5-.18.7-.84,1.18-1.46,1.48-.96.47-2.03.63-3.09.64-.06,0-.21.1-.08.1,1.51-.01,3.51-.33,4.5-1.62s-.18-2.42-1.32-2.94c-1.7-.77-3.82-.81-5.58-.24-1.06.34-2.69,1.21-2.34,2.59.19.73.88,1.23,1.53,1.54.99.48,2.12.65,3.22.66.07,0,.21-.1.08-.1Z"/>
    </g>
    <g>
      <ellipse class="cls-13" cx="103.45" cy="85.94" rx="4.73" ry="2.53"/>
      <path class="cls-18" d="M103.49,88.41c-1.44-.01-3.32-.3-4.29-1.51s.13-2.34,1.23-2.85c1.6-.73,3.59-.77,5.26-.27,1.05.31,2.7,1.15,2.35,2.52-.19.72-.88,1.2-1.51,1.49-.95.45-2.01.61-3.04.62-.08,0-.2.13-.07.13,1.52-.01,3.55-.33,4.52-1.65.91-1.24-.23-2.41-1.35-2.93-1.69-.77-3.83-.82-5.58-.25-1.07.35-2.69,1.23-2.33,2.61.19.73.88,1.24,1.53,1.55,1,.48,2.12.66,3.22.67.08,0,.2-.13.07-.13Z"/>
    </g>
    <g>
      <ellipse class="cls-13" cx="111.34" cy="89.1" rx="2.53" ry="4.73" transform="translate(-30.39 104.82) rotate(-45)"/>
      <path class="cls-18" d="M109.64,90.85c-1.02-1.03-2.15-2.59-1.98-4.14.06-.59.4-1.12,1-1.3.65-.19,1.37,0,1.98.26,1.61.66,3.03,2.03,3.84,3.56.5.95,1.06,2.67-.1,3.39-.68.43-1.63.18-2.32-.11-.91-.38-1.72-.98-2.41-1.67-.04-.04-.22.03-.18.07,1.09,1.07,2.8,2.3,4.44,1.96,1.42-.29,1.51-1.78,1.11-2.93-.64-1.8-2.17-3.38-3.87-4.21-1-.49-2.7-.9-3.43.26-.41.65-.27,1.5-.04,2.18.36,1.04,1.03,1.96,1.79,2.73.04.04.22-.03.18-.07Z"/>
    </g>
    <g>
      <ellipse class="cls-13" cx="105.03" cy="82.78" rx="2.53" ry="4.73" transform="translate(-27.77 98.51) rotate(-45)"/>
      <path class="cls-18" d="M103.33,84.54c-1.02-1.03-2.15-2.59-1.98-4.14.07-.59.4-1.12,1-1.3.65-.19,1.37,0,1.98.26,1.61.66,3.03,2.03,3.83,3.56.5.95,1.07,2.72-.13,3.41-.68.4-1.6.15-2.28-.13-.91-.38-1.71-.98-2.41-1.67-.04-.04-.22.03-.18.07,1.09,1.07,2.8,2.3,4.44,1.97,1.42-.29,1.51-1.78,1.11-2.93-.64-1.8-2.17-3.38-3.87-4.21-1-.49-2.7-.9-3.43.26-.4.65-.27,1.5-.04,2.18.36,1.04,1.03,1.96,1.79,2.73.04.04.22-.03.18-.07Z"/>
    </g>
    <g>
      <ellipse class="cls-13" cx="104.49" cy="89.1" rx="4.73" ry="2.53" transform="translate(-32.39 99.98) rotate(-45)"/>
      <path class="cls-18" d="M102.78,87.33c.65-.64,1.38-1.2,2.21-1.57.63-.28,1.38-.5,2.08-.34,1.4.34,1.22,2,.8,3.03-.67,1.63-2.05,3.06-3.62,3.85-1,.51-2.81.99-3.34-.41-.26-.69-.06-1.5.21-2.15.38-.91.97-1.71,1.66-2.41.08-.09-.1-.12-.16-.06-.69.69-1.29,1.5-1.67,2.4-.27.64-.46,1.39-.29,2.08.35,1.41,1.98,1.34,3.07.93,1.77-.66,3.33-2.18,4.16-3.87.51-1.05.93-2.86-.47-3.44-.68-.29-1.49-.12-2.16.12-1.01.37-1.89,1.03-2.65,1.77-.09.08.1.12.16.06Z"/>
    </g>
    <g>
      <ellipse class="cls-13" cx="110.8" cy="82.78" rx="4.73" ry="2.53" transform="translate(-26.08 102.6) rotate(-45)"/>
      <path class="cls-18" d="M109.09,81.01c.65-.64,1.38-1.2,2.21-1.57.63-.28,1.38-.51,2.08-.33,1.4.35,1.22,2,.8,3.04-.67,1.63-2.05,3.06-3.61,3.86-1.01.51-2.81.98-3.34-.42-.26-.69-.06-1.5.21-2.15.38-.91.97-1.71,1.66-2.41.08-.08-.1-.1-.16-.05-.69.69-1.29,1.49-1.67,2.4-.27.64-.47,1.39-.29,2.08.35,1.41,1.98,1.33,3.07.92,1.77-.66,3.34-2.17,4.16-3.86.51-1.05.93-2.86-.46-3.43-.68-.28-1.47-.13-2.13.12-1.02.37-1.91,1.03-2.68,1.78-.08.08.1.1.16.05Z"/>
    </g>
    <g>
      <circle class="cls-15" cx="108.07" cy="86.34" r="2.38"/>
      <path class="cls-18" d="M110.35,86.35c-.01.95-.58,1.83-1.49,2.16s-1.97.02-2.57-.74-.66-1.77-.2-2.59c.48-.86,1.48-1.31,2.44-1.1,1.06.23,1.8,1.19,1.82,2.27,0,.1.2.06.19-.02-.01-1.03-.65-1.95-1.63-2.3s-2.07-.04-2.74.73-.78,1.94-.24,2.83,1.57,1.33,2.57,1.14c1.16-.21,2.02-1.23,2.03-2.41,0-.1-.19-.07-.19.02Z"/>
    </g>
    <g>
      <ellipse class="cls-13" cx="114.22" cy="62.82" rx="2.53" ry="4.73"/>
      <path class="cls-18" d="M116.66,62.83c-.01,1.44-.29,3.32-1.5,4.29-1.27,1.02-2.43-.38-2.88-1.5-.63-1.57-.67-3.46-.18-5.08.32-1.08,1.26-2.89,2.67-2.24,1.54.7,1.87,3.07,1.89,4.53,0,.1.2.08.2-.01-.01-1.52-.35-3.75-1.83-4.58-1.2-.67-2.27.37-2.77,1.4-.84,1.73-.88,3.97-.26,5.78.38,1.09,1.31,2.57,2.68,2.14.67-.21,1.15-.83,1.46-1.43.53-1.01.71-2.18.72-3.31,0-.1-.19-.08-.2.01Z"/>
    </g>
    <g>
      <ellipse class="cls-13" cx="114.22" cy="71.75" rx="2.53" ry="4.73"/>
      <path class="cls-18" d="M116.66,71.75c-.01,1.44-.29,3.32-1.49,4.29-1.27,1.02-2.43-.38-2.88-1.51-.62-1.54-.66-3.37-.22-4.96.3-1.1,1.25-3.03,2.71-2.36,1.54.71,1.87,3.07,1.89,4.54,0,.1.2.07.2-.01-.01-1.52-.35-3.75-1.83-4.58-1.2-.67-2.27.37-2.77,1.4-.84,1.73-.88,3.97-.26,5.78.38,1.09,1.31,2.57,2.68,2.14.67-.21,1.15-.82,1.46-1.43.53-1.01.71-2.18.72-3.31,0-.1-.19-.07-.2.01Z"/>
    </g>
    <g>
      <ellipse class="cls-13" cx="118.69" cy="67.55" rx="4.73" ry="2.53"/>
      <path class="cls-18" d="M118.75,70.05c-1.44-.01-3.25-.3-4.25-1.45-.92-1.05-.2-2.22.86-2.81,1.62-.9,3.79-.94,5.54-.42,1.02.31,2.58,1.08,2.4,2.38-.09.69-.67,1.2-1.24,1.53-1,.57-2.18.76-3.32.77-.04,0-.22.08-.13.08,1.49-.01,3.39-.31,4.43-1.5s-.02-2.49-1.22-3.03c-1.66-.75-3.72-.8-5.46-.28-1.07.32-2.76,1.14-2.5,2.53.15.77.87,1.3,1.53,1.62.99.48,2.11.65,3.21.66.04,0,.22-.08.13-.08Z"/>
    </g>
    <g>
      <ellipse class="cls-13" cx="109.76" cy="67.55" rx="4.73" ry="2.53"/>
      <path class="cls-18" d="M109.82,70.05c-1.43-.01-3.25-.3-4.25-1.45s-.14-2.29.95-2.86c1.62-.84,3.73-.88,5.45-.37,1.04.31,2.64,1.12,2.39,2.46-.13.67-.71,1.16-1.28,1.47-.99.55-2.15.73-3.27.74-.04,0-.22.08-.12.08,1.5-.01,3.43-.32,4.46-1.54,1.04-1.23-.07-2.47-1.25-3-1.66-.75-3.72-.8-5.46-.28-1.07.32-2.76,1.14-2.5,2.54.15.77.87,1.3,1.53,1.62.99.48,2.11.65,3.21.66.04,0,.22-.08.12-.08Z"/>
    </g>
    <g>
      <ellipse class="cls-13" cx="117.65" cy="70.71" rx="2.53" ry="4.73" transform="translate(-15.54 103.9) rotate(-45)"/>
      <path class="cls-18" d="M115.94,72.46c-1.02-1.03-2.15-2.59-1.98-4.14.07-.59.4-1.12,1-1.3.65-.19,1.37,0,1.98.26,1.61.66,3.03,2.03,3.83,3.56.5.95,1.07,2.72-.13,3.41-.68.4-1.6.15-2.28-.13-.91-.38-1.71-.98-2.41-1.67-.04-.04-.22.03-.18.07,1.09,1.07,2.8,2.3,4.44,1.97,1.42-.29,1.51-1.78,1.11-2.93-.64-1.8-2.17-3.38-3.87-4.21-1-.49-2.7-.9-3.43.26-.4.65-.27,1.5-.04,2.18.36,1.04,1.03,1.96,1.79,2.73.04.04.22-.03.18-.07Z"/>
    </g>
    <g>
      <ellipse class="cls-13" cx="111.33" cy="64.39" rx="2.53" ry="4.73" transform="translate(-12.93 97.59) rotate(-45)"/>
      <path class="cls-18" d="M109.63,66.15c-1.02-1.03-2.15-2.59-1.98-4.14.07-.6.41-1.12,1-1.29.65-.19,1.37,0,1.98.25,1.61.66,3.02,2.03,3.83,3.56.5.95,1.07,2.72-.13,3.41-.69.39-1.6.16-2.28-.12-.91-.38-1.71-.98-2.41-1.67-.05-.05-.23.03-.18.07,1.09,1.07,2.8,2.31,4.44,1.97,1.42-.29,1.51-1.79,1.1-2.94-.64-1.8-2.17-3.38-3.87-4.22-1.02-.5-2.75-.91-3.45.31-.37.65-.24,1.47-.01,2.15.36,1.04,1.03,1.96,1.79,2.73.05.05.23-.02.18-.07Z"/>
    </g>
    <g>
      <ellipse class="cls-13" cx="110.8" cy="70.71" rx="4.73" ry="2.53" transform="translate(-17.55 99.06) rotate(-45)"/>
      <path class="cls-18" d="M109.09,68.91c.66-.66,1.43-1.23,2.29-1.6.64-.28,1.41-.48,2.1-.26,1.31.43,1.1,2.03.69,3.04-.67,1.63-2.06,3.07-3.63,3.86-1.03.52-2.86.95-3.34-.51-.23-.69-.03-1.47.23-2.11.38-.91.98-1.71,1.67-2.41.05-.05-.14-.04-.18,0-.68.69-1.28,1.49-1.66,2.39-.27.65-.47,1.42-.27,2.12.4,1.39,2.07,1.23,3.13.81,1.74-.68,3.27-2.16,4.09-3.83.52-1.07.92-2.95-.57-3.44-.68-.23-1.46-.06-2.11.19-.99.38-1.86,1.02-2.61,1.76-.05.05.14.04.18,0Z"/>
    </g>
    <g>
      <ellipse class="cls-13" cx="117.11" cy="64.39" rx="4.73" ry="2.53" transform="translate(-11.23 101.67) rotate(-45)"/>
      <path class="cls-18" d="M115.4,62.62c.65-.64,1.38-1.2,2.21-1.57.63-.28,1.38-.51,2.08-.33,1.4.35,1.22,2,.8,3.04-.67,1.63-2.05,3.06-3.61,3.86-1.01.51-2.81.98-3.34-.42-.26-.69-.06-1.5.21-2.16.37-.91.97-1.71,1.66-2.41.08-.08-.11-.1-.16-.04-.69.69-1.29,1.49-1.67,2.4-.27.64-.47,1.39-.29,2.08.35,1.41,1.98,1.33,3.07.92,1.77-.66,3.34-2.17,4.16-3.86.51-1.04.93-2.86-.46-3.43-.68-.28-1.47-.13-2.13.12-1.02.37-1.91,1.03-2.68,1.78-.08.08.1.1.16.04Z"/>
    </g>
    <g>
      <circle class="cls-15" cx="114.38" cy="67.95" r="2.38"/>
      <path class="cls-18" d="M116.66,67.97c-.01.96-.6,1.87-1.52,2.19s-2.03-.06-2.6-.87c-.52-.74-.58-1.74-.13-2.53.5-.89,1.55-1.35,2.54-1.07s1.7,1.23,1.72,2.28c0,.04.19,0,.19-.05-.01-1.05-.71-1.99-1.72-2.29-.94-.28-2.01.04-2.65.78-.69.81-.77,2-.18,2.89s1.6,1.23,2.59,1.01c1.13-.25,1.94-1.22,1.96-2.38,0-.03-.19,0-.19.05Z"/>
    </g>
    <g>
      <ellipse class="cls-13" cx="128" cy="49.45" rx="2.53" ry="4.73" transform="translate(-9.22 48.47) rotate(-20.72)"/>
      <path class="cls-18" d="M130.27,48.58c.51,1.38.95,3.41.02,4.71s-2.43.24-3.19-.62c-1.12-1.28-1.81-3.04-1.9-4.74-.06-1.15.28-3.15,1.85-2.91s2.7,2.2,3.22,3.56c.03.08.22.03.19-.05-.54-1.41-1.57-3.21-3.16-3.6-1.37-.34-2.13.9-2.27,2.1-.22,1.92.52,4.05,1.73,5.54.71.88,2.02,1.95,3.19,1.25.62-.38.89-1.13.99-1.81.17-1.17-.08-2.38-.48-3.47-.03-.09-.22-.03-.19.05Z"/>
    </g>
    <g>
      <ellipse class="cls-13" cx="131.15" cy="57.8" rx="2.53" ry="4.73" transform="translate(-11.97 50.13) rotate(-20.72)"/>
      <path class="cls-18" d="M133.43,56.93c.51,1.38.93,3.33.06,4.66s-2.45.33-3.24-.56c-1.1-1.25-1.77-2.97-1.89-4.62-.08-1.17.23-3.37,1.9-3.04s2.64,2.2,3.16,3.56c.02.06.22,0,.19-.05-.54-1.4-1.56-3.2-3.15-3.59-1.36-.33-2.14.89-2.28,2.09-.22,1.92.52,4.04,1.72,5.53.7.87,1.96,1.9,3.13,1.27.66-.36.95-1.13,1.05-1.83.17-1.17-.08-2.37-.48-3.47-.02-.06-.21,0-.19.05Z"/>
    </g>
    <g>
      <ellipse class="cls-13" cx="133.84" cy="52.3" rx="4.73" ry="2.53" transform="translate(-9.85 50.73) rotate(-20.72)"/>
      <path class="cls-18" d="M134.72,54.6c-1.37.5-3.48.98-4.75-.04-1.14-.92-.25-2.36.58-3.12,1.27-1.16,3.07-1.87,4.79-1.96,1.17-.06,3.15.32,2.9,1.91s-2.18,2.69-3.54,3.22c-.12.05-.01.16.09.12,1.4-.54,3.17-1.56,3.6-3.12.39-1.43-.99-2.15-2.2-2.26-1.87-.17-3.91.54-5.38,1.68-.89.69-2.09,2.04-1.36,3.23.4.65,1.22.9,1.93.99,1.14.14,2.31-.11,3.38-.5.11-.04.08-.18-.04-.14Z"/>
    </g>
    <g>
      <ellipse class="cls-13" cx="125.49" cy="55.45" rx="4.73" ry="2.53" transform="translate(-11.5 47.98) rotate(-20.72)"/>
      <path class="cls-18" d="M126.35,57.77c-.91.34-1.89.55-2.87.51-.69-.03-1.47-.18-1.98-.68-1-.99-.02-2.38.8-3.1,1.3-1.14,3.11-1.84,4.84-1.88,1.16-.03,2.99.39,2.76,1.92-.25,1.63-2.18,2.69-3.54,3.22-.12.05-.01.15.08.11,1.4-.54,3.15-1.54,3.6-3.09s-1.07-2.21-2.32-2.29c-1.87-.12-3.9.59-5.35,1.77-.87.7-2.02,2.07-1.21,3.22.44.63,1.28.85,2.01.92,1.12.1,2.24-.14,3.28-.52.12-.05.01-.15-.08-.11Z"/>
    </g>
    <g>
      <ellipse class="cls-13" cx="133.99" cy="55.62" rx="2.53" ry="4.73" transform="translate(28.19 154.88) rotate(-65.72)"/>
      <path class="cls-18" d="M133.04,57.9c-1.26-.58-2.63-1.49-3.2-2.82-.2-.48-.28-1.03-.03-1.5.38-.73,1.29-.93,2.05-.94,1.72-.03,3.5.7,4.83,1.76.83.66,1.96,1.86,1.57,3.04-.29.89-1.31,1.15-2.14,1.16-1.06.02-2.11-.28-3.08-.7-.05-.02-.2.06-.18.06,1.41.62,3.41,1.15,4.86.3,1.31-.76.76-2.27-.05-3.19-1.26-1.43-3.26-2.36-5.15-2.5-1.09-.08-2.84.14-3.04,1.49-.12.78.35,1.53.85,2.09.69.79,1.59,1.37,2.54,1.8.05.02.2-.06.18-.06Z"/>
    </g>
    <g>
      <ellipse class="cls-13" cx="125.85" cy="51.95" rx="2.53" ry="4.73" transform="translate(26.74 145.3) rotate(-65.72)"/>
      <path class="cls-18" d="M124.89,54.21c-1.27-.59-2.69-1.53-3.22-2.89-.2-.51-.23-1.09.09-1.55.43-.62,1.28-.79,1.99-.8,1.75-.03,3.57.73,4.9,1.83.81.67,1.9,1.88,1.45,3.03-.33.84-1.33,1.07-2.14,1.08-1.06.02-2.11-.28-3.07-.71-.05-.02-.22.05-.16.08,1.41.62,3.51,1.18,4.93.25,1.23-.8.64-2.26-.14-3.15-1.27-1.44-3.31-2.38-5.22-2.5-1.13-.07-2.9.21-2.98,1.65-.04.73.4,1.43.87,1.95.69.79,1.6,1.37,2.55,1.8.05.02.22-.05.16-.08Z"/>
    </g>
    <g>
      <ellipse class="cls-13" cx="127.58" cy="58.04" rx="4.73" ry="2.53" transform="translate(22.21 150.46) rotate(-65.72)"/>
      <path class="cls-18" d="M125.36,57.01c.59-1.28,1.58-2.8,3-3.25,1.52-.48,2.15,1.11,2.14,2.35-.01,1.71-.74,3.48-1.83,4.79-.69.84-2.14,2.11-3.26,1.22-.62-.49-.76-1.4-.76-2.15,0-1.03.29-2.03.7-2.96.04-.1-.15-.1-.18-.02-.43.98-.73,2.05-.72,3.13.01.69.15,1.47.66,1.98.93.94,2.32.22,3.12-.51,1.4-1.28,2.32-3.27,2.44-5.16.08-1.2-.3-2.96-1.83-2.88-1.75.09-3.02,2.05-3.67,3.45-.05.1.15.1.18.02Z"/>
    </g>
    <g>
      <ellipse class="cls-13" cx="131.25" cy="49.9" rx="4.73" ry="2.53" transform="translate(31.79 149.02) rotate(-65.72)"/>
      <path class="cls-18" d="M129.03,48.87c.59-1.28,1.57-2.8,3-3.25,1.53-.48,2.15,1.12,2.14,2.36-.01,1.71-.74,3.48-1.83,4.8-.71.85-2.21,2.15-3.31,1.17-.58-.51-.71-1.38-.7-2.11,0-1.02.29-2.03.7-2.96.04-.09-.15-.08-.18-.01-.43.98-.73,2.04-.72,3.12.01.69.15,1.47.66,1.98.91.91,2.25.25,3.05-.46,1.44-1.27,2.39-3.31,2.51-5.22.08-1.2-.3-2.96-1.83-2.87-1.75.1-3.03,2.04-3.67,3.45-.04.09.15.08.18.01Z"/>
    </g>
    <g>
      <circle class="cls-15" cx="129.96" cy="54.19" r="2.38"/>
      <path class="cls-18" d="M132.08,53.38c.32.88.11,1.88-.56,2.53-.74.71-1.87.8-2.73.27-.79-.49-1.23-1.44-1.09-2.37s.9-1.78,1.87-1.93c1.08-.17,2.12.5,2.51,1.5.02.05.21-.01.19-.05-.38-.96-1.32-1.58-2.35-1.55s-1.91.64-2.28,1.56c-.39.99-.06,2.15.79,2.79.79.59,1.89.63,2.75.15,1.04-.58,1.49-1.84,1.09-2.95-.02-.05-.21,0-.19.05Z"/>
    </g>
    <g>
      <ellipse class="cls-13" cx="146.91" cy="47.56" rx="2.53" ry="4.73" transform="translate(-7.32 55.04) rotate(-20.72)"/>
      <path class="cls-18" d="M149.19,46.69c.5,1.37.9,3.25.11,4.59-.86,1.46-2.47.43-3.28-.49-1.1-1.25-1.77-2.97-1.89-4.62-.09-1.19.25-3.45,1.96-3.03,1.56.38,2.57,2.18,3.1,3.55.02.05.21,0,.19-.05-.54-1.4-1.6-3.27-3.22-3.6-1.33-.27-2.07.93-2.21,2.1-.22,1.92.52,4.04,1.72,5.53.7.87,1.96,1.89,3.13,1.26.66-.35.95-1.13,1.05-1.83.17-1.17-.08-2.37-.48-3.46-.02-.05-.21,0-.19.05Z"/>
    </g>
    <g>
      <ellipse class="cls-13" cx="150.07" cy="55.91" rx="2.53" ry="4.73" transform="translate(-10.07 56.7) rotate(-20.72)"/>
      <path class="cls-18" d="M152.35,55.04c.5,1.37.9,3.25.11,4.59-.86,1.46-2.47.43-3.28-.49-1.1-1.25-1.77-2.97-1.89-4.62-.09-1.18.24-3.41,1.93-3.04,1.58.35,2.6,2.19,3.13,3.56.02.06.21,0,.19-.05-.54-1.4-1.58-3.24-3.19-3.59-1.35-.3-2.11.91-2.24,2.1-.22,1.92.52,4.04,1.72,5.53.7.87,1.96,1.89,3.13,1.26.66-.35.95-1.13,1.05-1.83.17-1.17-.08-2.37-.48-3.46-.02-.06-.21,0-.19.05Z"/>
    </g>
    <g>
      <ellipse class="cls-13" cx="152.76" cy="50.41" rx="4.73" ry="2.53" transform="translate(-7.95 57.3) rotate(-20.72)"/>
      <path class="cls-18" d="M153.64,52.71c-1.37.5-3.48.98-4.75-.04-1.14-.92-.25-2.36.58-3.12,1.27-1.16,3.07-1.87,4.79-1.96,1.18-.06,3.15.32,2.9,1.91s-2.17,2.69-3.54,3.22c-.12.05-.01.16.09.12,1.4-.54,3.17-1.55,3.6-3.12.39-1.43-.99-2.15-2.2-2.26-1.87-.17-3.91.54-5.38,1.68-.89.69-2.09,2.04-1.36,3.23.4.65,1.22.9,1.93.98,1.14.14,2.31-.11,3.38-.5.11-.04.08-.18-.04-.14Z"/>
    </g>
    <g>
      <ellipse class="cls-13" cx="144.41" cy="53.56" rx="4.73" ry="2.53" transform="translate(-9.61 54.55) rotate(-20.72)"/>
      <path class="cls-18" d="M145.27,55.9c-1.37.51-3.66,1.01-4.85-.18-.97-.96-.08-2.32.72-3.05,1.32-1.21,3.23-1.94,5.02-1.96,1.16,0,2.87.46,2.66,1.95-.24,1.63-2.17,2.71-3.54,3.24-.13.05,0,.1.07.06,1.39-.54,3.15-1.53,3.6-3.08.43-1.49-1.08-2.19-2.32-2.26-1.84-.12-3.82.58-5.27,1.7-.89.69-2.13,2.09-1.3,3.26.46.65,1.36.86,2.11.92,1.08.07,2.16-.16,3.17-.53.13-.05,0-.1-.07-.06Z"/>
    </g>
    <g>
      <ellipse class="cls-13" cx="152.91" cy="53.73" rx="2.53" ry="4.73" transform="translate(41.05 171.01) rotate(-65.72)"/>
      <path class="cls-18" d="M151.94,56c-1.27-.59-2.69-1.53-3.22-2.89-.19-.48-.23-1.04.05-1.49.42-.67,1.3-.85,2.03-.86,1.75-.03,3.57.73,4.9,1.84.81.67,1.89,1.88,1.45,3.03-.33.84-1.33,1.07-2.14,1.09-1.06.02-2.11-.28-3.07-.71-.05-.02-.22.05-.16.08,1.41.62,3.5,1.18,4.93.25,1.23-.8.64-2.26-.14-3.15-1.27-1.44-3.31-2.38-5.22-2.5-1.1-.07-2.84.19-2.97,1.58-.07.76.38,1.48.86,2.02.69.79,1.6,1.37,2.55,1.8.05.02.22-.05.16-.08Z"/>
    </g>
    <g>
      <ellipse class="cls-13" cx="144.77" cy="50.05" rx="2.53" ry="4.73" transform="translate(39.61 161.43) rotate(-65.72)"/>
      <path class="cls-18" d="M143.8,52.32c-1.27-.59-2.69-1.52-3.22-2.89-.2-.5-.23-1.08.09-1.54.43-.62,1.28-.78,1.99-.79,1.74-.03,3.57.72,4.9,1.83.81.67,1.89,1.87,1.45,3.02-.32.84-1.34,1.06-2.14,1.08-1.06.02-2.11-.28-3.07-.7-.06-.03-.23.06-.15.09,1.42.62,3.58,1.22,4.99.22,1.16-.82.56-2.26-.2-3.13-1.25-1.42-3.23-2.34-5.11-2.5-1.15-.1-3.01.16-3.09,1.64-.04.74.4,1.43.87,1.96.69.79,1.6,1.37,2.55,1.81.06.03.23-.06.15-.09Z"/>
    </g>
    <g>
      <ellipse class="cls-13" cx="146.5" cy="56.15" rx="4.73" ry="2.53" transform="translate(35.07 166.59) rotate(-65.72)"/>
      <path class="cls-18" d="M144.28,55.12c.59-1.28,1.58-2.8,3-3.25,1.52-.48,2.15,1.11,2.14,2.35-.01,1.71-.74,3.48-1.83,4.79-.69.84-2.15,2.11-3.26,1.22-.62-.49-.76-1.4-.76-2.15,0-1.03.29-2.03.7-2.96.04-.1-.15-.1-.18-.02-.43.98-.73,2.05-.72,3.13.01.69.15,1.47.66,1.98.93.94,2.32.22,3.12-.51,1.4-1.28,2.32-3.27,2.44-5.16.08-1.2-.3-2.96-1.83-2.88-1.75.09-3.02,2.05-3.67,3.45-.05.1.15.1.18.02Z"/>
    </g>
    <g>
      <ellipse class="cls-13" cx="150.17" cy="48.01" rx="4.73" ry="2.53" transform="translate(44.65 165.15) rotate(-65.72)"/>
      <path class="cls-18" d="M147.96,46.98c.59-1.28,1.58-2.8,3-3.25,1.52-.48,2.15,1.11,2.14,2.35-.01,1.71-.74,3.48-1.83,4.79-.69.84-2.15,2.11-3.26,1.22-.62-.49-.76-1.4-.76-2.14,0-1.03.29-2.03.7-2.96.04-.1-.15-.1-.18-.02-.43.98-.73,2.05-.72,3.13.01.69.15,1.47.66,1.98.93.94,2.32.22,3.12-.51,1.4-1.28,2.32-3.27,2.44-5.16.08-1.2-.3-2.97-1.83-2.89-1.75.09-3.02,2.05-3.67,3.45-.05.1.15.1.18.02Z"/>
    </g>
    <g>
      <circle class="cls-15" cx="148.88" cy="52.3" r="2.38"/>
      <path class="cls-18" d="M151,51.49c.32.88.11,1.88-.56,2.53-.74.71-1.87.8-2.73.27-.79-.49-1.23-1.44-1.08-2.36.15-.96.9-1.77,1.87-1.92,1.08-.17,2.12.49,2.51,1.49.02.06.21,0,.19-.05-.38-.96-1.32-1.59-2.35-1.56s-1.91.64-2.28,1.57c-.39.99-.06,2.16.79,2.79.79.59,1.89.64,2.75.15,1.03-.59,1.49-1.84,1.09-2.96-.02-.06-.21,0-.19.05Z"/>
    </g>
    <g>
      <ellipse class="cls-13" cx="165.29" cy="51.2" rx="2.53" ry="4.73" transform="translate(-7.42 61.78) rotate(-20.72)"/>
      <path class="cls-18" d="M167.56,50.33c.5,1.37.9,3.25.11,4.59-.86,1.46-2.47.43-3.28-.49-1.1-1.25-1.77-2.97-1.89-4.62-.09-1.19.25-3.45,1.96-3.03,1.56.38,2.57,2.19,3.1,3.55.02.05.21-.01.19-.05-.54-1.4-1.6-3.27-3.22-3.6-1.28-.26-2.03.85-2.2,1.99-.28,1.95.49,4.13,1.71,5.64.71.88,1.95,1.88,3.13,1.26.67-.35.95-1.12,1.06-1.83.17-1.17-.08-2.37-.48-3.46-.02-.05-.21.01-.19.05Z"/>
    </g>
    <g>
      <ellipse class="cls-13" cx="168.44" cy="59.55" rx="2.53" ry="4.73" transform="translate(-10.17 63.43) rotate(-20.72)"/>
      <path class="cls-18" d="M170.72,58.68c.5,1.37.9,3.25.11,4.59-.86,1.46-2.47.43-3.28-.49-1.1-1.25-1.77-2.97-1.89-4.62-.09-1.17.24-3.41,1.93-3.04,1.58.35,2.6,2.19,3.13,3.56.02.06.21,0,.19-.05-.54-1.4-1.58-3.24-3.19-3.59-1.35-.3-2.11.91-2.24,2.1-.22,1.92.52,4.04,1.72,5.53.7.87,1.96,1.89,3.13,1.26.66-.35.95-1.13,1.05-1.83.17-1.17-.08-2.37-.48-3.46-.02-.05-.21,0-.19.05Z"/>
    </g>
    <g>
      <ellipse class="cls-13" cx="171.13" cy="54.05" rx="4.73" ry="2.53" transform="translate(-8.05 64.03) rotate(-20.72)"/>
      <path class="cls-18" d="M172.01,56.35c-1.37.5-3.48.98-4.75-.04-1.14-.92-.25-2.36.58-3.12,1.27-1.16,3.07-1.87,4.79-1.96,1.17-.06,3.15.32,2.9,1.91-.25,1.62-2.17,2.69-3.54,3.22-.12.05-.01.16.09.12,1.4-.54,3.17-1.56,3.6-3.12.39-1.43-.99-2.15-2.2-2.26-1.87-.17-3.91.54-5.38,1.68-.89.69-2.09,2.04-1.36,3.23.4.65,1.22.9,1.93.99,1.14.14,2.31-.11,3.38-.5.11-.04.08-.18-.04-.14Z"/>
    </g>
    <g>
      <ellipse class="cls-13" cx="162.78" cy="57.2" rx="4.73" ry="2.53" transform="translate(-9.71 61.28) rotate(-20.72)"/>
      <path class="cls-18" d="M163.64,59.53c-.91.34-1.89.55-2.87.51-.69-.03-1.47-.18-1.98-.68-.97-.96-.07-2.31.72-3.04,1.32-1.21,3.24-1.94,5.02-1.95,1.15,0,2.88.45,2.65,1.94-.25,1.63-2.17,2.7-3.54,3.23-.12.05-.01.13.08.1,1.4-.54,3.15-1.54,3.6-3.09.43-1.49-1.08-2.2-2.32-2.28-1.87-.12-3.9.6-5.35,1.77-.87.7-2.02,2.06-1.21,3.21.44.63,1.28.85,2,.92,1.11.1,2.24-.14,3.28-.52.13-.05.01-.13-.08-.1Z"/>
    </g>
    <g>
      <ellipse class="cls-13" cx="171.28" cy="57.37" rx="2.53" ry="4.73" transform="translate(48.55 189.9) rotate(-65.72)"/>
      <path class="cls-18" d="M170.29,59.61c-1.28-.59-2.74-1.56-3.23-2.96-.19-.53-.17-1.13.23-1.57.47-.52,1.25-.66,1.92-.67,1.74-.03,3.56.73,4.89,1.83.82.68,1.97,1.98,1.37,3.13-.39.74-1.35.92-2.11.94-1.06.02-2.1-.28-3.06-.7-.08-.04-.22.08-.11.13,1.41.62,3.68,1.25,5.04.16,1.11-.88.42-2.33-.36-3.17-1.29-1.4-3.28-2.31-5.17-2.44-1.16-.08-2.95.25-2.96,1.74,0,.75.46,1.44.95,1.97.69.75,1.57,1.31,2.49,1.73.08.04.22-.08.11-.13Z"/>
    </g>
    <g>
      <ellipse class="cls-13" cx="163.14" cy="53.69" rx="2.53" ry="4.73" transform="translate(47.1 180.32) rotate(-65.72)"/>
      <path class="cls-18" d="M162.19,55.97c-1.26-.58-2.63-1.49-3.2-2.82-.2-.48-.28-1.03-.03-1.5.37-.69,1.22-.9,1.95-.93,1.75-.07,3.58.68,4.93,1.75.83.66,1.95,1.86,1.57,3.04-.28.85-1.24,1.12-2.04,1.16-1.1.05-2.19-.26-3.18-.7-.05-.02-.21.06-.18.07,1.41.62,3.42,1.15,4.86.31,1.27-.74.79-2.19.01-3.11-1.24-1.47-3.26-2.41-5.16-2.58-1.12-.1-2.96.12-3.11,1.56-.07.72.34,1.41.79,1.94.7.83,1.63,1.43,2.61,1.88.05.02.21-.06.18-.07Z"/>
    </g>
    <g>
      <ellipse class="cls-13" cx="164.87" cy="59.79" rx="4.73" ry="2.53" transform="translate(42.57 185.48) rotate(-65.72)"/>
      <path class="cls-18" d="M162.66,58.73c.59-1.28,1.62-2.88,3.08-3.27s2.07,1.22,2.06,2.42c-.02,1.72-.75,3.49-1.84,4.8-.73.88-2.28,2.18-3.37,1.09-.52-.53-.65-1.36-.64-2.07,0-1.03.3-2.04.71-2.97.02-.05-.17-.03-.19.03-.43.98-.73,2.04-.71,3.12.01.71.17,1.52.72,2.02.95.85,2.3.11,3.07-.6,1.41-1.29,2.33-3.31,2.43-5.21.07-1.22-.37-2.93-1.91-2.78-1.72.18-2.95,2.03-3.6,3.45-.02.05.17.03.19-.03Z"/>
    </g>
    <g>
      <ellipse class="cls-13" cx="168.54" cy="51.65" rx="4.73" ry="2.53" transform="translate(52.15 184.04) rotate(-65.72)"/>
      <path class="cls-18" d="M166.33,50.62c.59-1.28,1.57-2.8,3-3.25,1.53-.48,2.15,1.12,2.14,2.36-.01,1.71-.74,3.48-1.83,4.8-.71.86-2.21,2.15-3.31,1.17-.58-.51-.71-1.38-.7-2.11,0-1.02.29-2.03.7-2.96.04-.09-.15-.08-.18-.01-.43.98-.73,2.04-.72,3.12.01.69.15,1.47.66,1.98.91.91,2.25.25,3.05-.46,1.44-1.27,2.39-3.31,2.51-5.22.08-1.2-.3-2.96-1.83-2.87-1.75.1-3.02,2.04-3.67,3.45-.04.09.15.08.18.01Z"/>
    </g>
    <g>
      <circle class="cls-15" cx="167.25" cy="55.94" r="2.38"/>
      <path class="cls-18" d="M169.37,55.13c.32.89.11,1.9-.6,2.54s-1.82.76-2.66.27-1.26-1.44-1.12-2.37.91-1.75,1.87-1.91c1.07-.17,2.11.47,2.51,1.47.03.08.22.03.19-.05-.37-.95-1.29-1.59-2.32-1.58s-1.97.66-2.32,1.62-.04,2.1.78,2.75,1.92.69,2.79.19c1.03-.59,1.49-1.86,1.08-2.97-.03-.08-.22-.03-.19.05Z"/>
    </g>
    <g class="cls-10">
      <path class="cls-2" d="M55.83,184.28s-3.18-6.29-1.1-9.85c2.09-3.56,4.78-.98,4.54,1.47-.25,2.45-2.62,8.38-2.62,8.38,0,0,2.86-7.89,6.05-7.64,3.19.25,3.31,2.53,2.33,4.33-.98,1.8-7.73,4.13-7.73,4.13,0,0,7.36-2.45,8.95-2.45s3.8,2.82,2.09,5.03c-1.72,2.21-11.28-1.47-11.28-1.47,0,0,7.85,1.47,8.09,4.66.25,3.19-4.05,4.78-5.89,2.82-1.84-1.96-3.07-6.5-3.07-6.5,0,0,2.33,6.62,1.23,8.46-1.1,1.84-5.64,2.45-6.01,0-.37-2.45,3.68-8.46,3.68-8.46,0,0-2.73,6.41-5.45,6.47-2.72.05-4.54-2.46-3.68-4.43.85-1.98,8.65-2.88,8.65-2.88,0,0-8.54,2.51-9.93.16-1.39-2.35,1.33-4.19,2.4-4.35,1.07-.16,7.48,2.82,7.48,2.82,0,0-8.28-2.21-7.58-6.17.69-3.95,5.32-2.79,6.25-1.28.93,1.51,2.6,6.75,2.6,6.75Z"/>
      <circle class="cls-2" cx="55.89" cy="185.84" r="1.7"/>
      <path class="cls-2" d="M55.83,220.07s-3.18-6.29-1.1-9.85c2.09-3.56,4.78-.98,4.54,1.47-.25,2.45-2.62,8.38-2.62,8.38,0,0,2.86-7.89,6.05-7.64,3.19.25,3.31,2.53,2.33,4.33-.98,1.8-7.73,4.13-7.73,4.13,0,0,7.36-2.45,8.95-2.45s3.8,2.82,2.09,5.03c-1.72,2.21-11.28-1.47-11.28-1.47,0,0,7.85,1.47,8.09,4.66.25,3.19-4.05,4.78-5.89,2.82-1.84-1.96-3.07-6.5-3.07-6.5,0,0,2.33,6.62,1.23,8.46-1.1,1.84-5.64,2.45-6.01,0-.37-2.45,3.68-8.46,3.68-8.46,0,0-2.73,6.41-5.45,6.47-2.72.05-4.54-2.46-3.68-4.43.85-1.98,8.65-2.88,8.65-2.88,0,0-8.54,2.51-9.93.16-1.39-2.35,1.33-4.19,2.4-4.35,1.07-.16,7.48,2.82,7.48,2.82,0,0-8.28-2.21-7.58-6.17.69-3.95,5.32-2.79,6.25-1.28.93,1.51,2.6,6.75,2.6,6.75Z"/>
      <circle class="cls-2" cx="55.89" cy="221.64" r="1.7"/>
      <path class="cls-2" d="M75.14,203.15s-1.68-3.84-.84-5.28c.84-1.44,3.6-2.28,3.96,0s-2.1,5.28-2.1,5.28c0,0,2.22-1.89,4.26-3.35,2.04-1.46,3.96,1.79,2.16,4.07-1.8,2.28-6.13,0-6.13,0,0,0,4.32,1.2,3.84,3.84-.48,2.64-3.24,3.12-3.96,2.16-.72-.96-.72-5.28-.72-5.28,0,0,1.45,5.24-1.56,5.74-3.01.5-3.97-2.74-2.65-4.42,1.32-1.68,2.88-1.92,2.88-1.92,0,0-4.56,2.28-5.16.36-.6-1.92.6-5.52,2.4-4.44,1.8,1.08,3.6,3.24,3.6,3.24Z"/>
      <circle class="cls-2" cx="75.51" cy="203.9" r="1.7"/>
      <path class="cls-2" d="M98.43,220.07s-3.18-6.29-1.1-9.85c2.09-3.56,4.78-.98,4.54,1.47-.25,2.45-2.62,8.38-2.62,8.38,0,0,2.86-7.89,6.05-7.64,3.19.25,3.31,2.53,2.33,4.33-.98,1.8-7.73,4.13-7.73,4.13,0,0,7.36-2.45,8.95-2.45s3.8,2.82,2.09,5.03c-1.72,2.21-11.28-1.47-11.28-1.47,0,0,7.85,1.47,8.09,4.66.25,3.19-4.05,4.78-5.89,2.82-1.84-1.96-3.07-6.5-3.07-6.5,0,0,2.33,6.62,1.23,8.46-1.1,1.84-5.64,2.45-6.01,0-.37-2.45,3.68-8.46,3.68-8.46,0,0-2.73,6.41-5.45,6.47-2.72.05-4.54-2.46-3.68-4.43.85-1.98,8.65-2.88,8.65-2.88,0,0-8.54,2.51-9.93.16-1.39-2.35,1.33-4.19,2.4-4.35,1.07-.16,7.48,2.82,7.48,2.82,0,0-8.28-2.21-7.58-6.17s5.32-2.79,6.25-1.28c.93,1.51,2.6,6.75,2.6,6.75Z"/>
      <path class="cls-2" d="M76.92,238.94s-1.68-3.84-.84-5.28c.84-1.44,3.6-2.28,3.96,0,.36,2.28-2.1,5.28-2.1,5.28,0,0,2.22-1.89,4.26-3.35s3.96,1.79,2.16,4.07c-1.8,2.28-6.13,0-6.13,0,0,0,4.32,1.2,3.84,3.84-.48,2.64-3.24,3.12-3.96,2.16-.72-.96-.72-5.28-.72-5.28,0,0,1.45,5.24-1.56,5.74-3.01.5-3.97-2.74-2.65-4.42,1.32-1.68,2.88-1.92,2.88-1.92,0,0-4.56,2.28-5.16.36-.6-1.92.6-5.52,2.4-4.44,1.8,1.08,3.6,3.24,3.6,3.24Z"/>
      <circle class="cls-2" cx="98.48" cy="221.64" r="1.7"/>
      <path class="cls-2" d="M98.43,255.87s-3.18-6.29-1.1-9.85c2.09-3.56,4.78-.98,4.54,1.47s-2.62,8.38-2.62,8.38c0,0,2.86-7.89,6.05-7.64,3.19.25,3.31,2.53,2.33,4.33-.98,1.8-7.73,4.13-7.73,4.13,0,0,7.36-2.45,8.95-2.45s3.8,2.82,2.09,5.03c-1.72,2.21-11.28-1.47-11.28-1.47,0,0,7.85,1.47,8.09,4.66.25,3.19-4.05,4.78-5.89,2.82-1.84-1.96-3.07-6.5-3.07-6.5,0,0,2.33,6.62,1.23,8.46-1.1,1.84-5.64,2.45-6.01,0-.37-2.45,3.68-8.46,3.68-8.46,0,0-2.73,6.41-5.45,6.47-2.72.05-4.54-2.46-3.68-4.43.85-1.98,8.65-2.88,8.65-2.88,0,0-8.54,2.51-9.93.16-1.39-2.35,1.33-4.19,2.4-4.35,1.07-.16,7.48,2.82,7.48,2.82,0,0-8.28-2.21-7.58-6.17s5.32-2.79,6.25-1.28,2.6,6.75,2.6,6.75Z"/>
      <circle class="cls-2" cx="98.48" cy="257.43" r="1.7"/>
      <circle class="cls-2" cx="77.3" cy="239.7" r="1.7"/>
      <path class="cls-2" d="M117.73,238.94s-1.68-3.84-.84-5.28c.84-1.44,3.6-2.28,3.96,0,.36,2.28-2.1,5.28-2.1,5.28,0,0,2.22-1.89,4.26-3.35,2.04-1.46,3.96,1.79,2.16,4.07-1.8,2.28-6.13,0-6.13,0,0,0,4.32,1.2,3.84,3.84-.48,2.64-3.24,3.12-3.96,2.16s-.72-5.28-.72-5.28c0,0,1.45,5.24-1.56,5.74s-3.97-2.74-2.65-4.42c1.32-1.68,2.88-1.92,2.88-1.92,0,0-4.56,2.28-5.16.36-.6-1.92.6-5.52,2.4-4.44,1.8,1.08,3.6,3.24,3.6,3.24Z"/>
      <circle class="cls-2" cx="118.11" cy="239.7" r="1.7"/>
      <path class="cls-2" d="M100.28,147.44s-3.18-6.29-1.1-9.85c2.09-3.56,4.78-.98,4.54,1.47-.25,2.45-2.62,8.38-2.62,8.38,0,0,2.86-7.89,6.05-7.64,3.19.25,3.31,2.53,2.33,4.33-.98,1.8-7.73,4.13-7.73,4.13,0,0,7.36-2.45,8.95-2.45s3.8,2.82,2.09,5.03c-1.72,2.21-11.28-1.47-11.28-1.47,0,0,7.85,1.47,8.09,4.66.25,3.19-4.05,4.78-5.89,2.82-1.84-1.96-3.07-6.5-3.07-6.5,0,0,2.33,6.62,1.23,8.46s-5.64,2.45-6.01,0c-.37-2.45,3.68-8.46,3.68-8.46,0,0-2.73,6.41-5.45,6.47-2.72.05-4.54-2.46-3.68-4.43.85-1.98,8.65-2.88,8.65-2.88,0,0-8.54,2.51-9.93.16-1.39-2.35,1.33-4.19,2.4-4.35,1.07-.16,7.48,2.82,7.48,2.82,0,0-8.28-2.21-7.58-6.17.69-3.95,5.32-2.79,6.25-1.28.93,1.51,2.6,6.75,2.6,6.75Z"/>
      <path class="cls-2" d="M78.78,166.31s-1.68-3.84-.84-5.28c.84-1.44,3.6-2.28,3.96,0,.36,2.28-2.1,5.28-2.1,5.28,0,0,2.22-1.89,4.26-3.35,2.04-1.46,3.96,1.79,2.16,4.07-1.8,2.28-6.13,0-6.13,0,0,0,4.32,1.2,3.84,3.84-.48,2.64-3.24,3.12-3.96,2.16-.72-.96-.72-5.28-.72-5.28,0,0,1.45,5.24-1.56,5.74-3.01.5-3.97-2.74-2.65-4.42,1.32-1.68,2.88-1.92,2.88-1.92,0,0-4.56,2.28-5.16.36-.6-1.92.6-5.52,2.4-4.44,1.8,1.08,3.6,3.24,3.6,3.24Z"/>
      <circle class="cls-2" cx="100.34" cy="149" r="1.7"/>
      <path class="cls-2" d="M100.28,183.23s-3.18-6.29-1.1-9.85c2.09-3.56,4.78-.98,4.54,1.47-.25,2.45-2.62,8.38-2.62,8.38,0,0,2.86-7.89,6.05-7.64,3.19.25,3.31,2.53,2.33,4.33-.98,1.8-7.73,4.13-7.73,4.13,0,0,7.36-2.45,8.95-2.45s3.8,2.82,2.09,5.03c-1.72,2.21-11.28-1.47-11.28-1.47,0,0,7.85,1.47,8.09,4.66.25,3.19-4.05,4.78-5.89,2.82-1.84-1.96-3.07-6.5-3.07-6.5,0,0,2.33,6.62,1.23,8.46-1.1,1.84-5.64,2.45-6.01,0-.37-2.45,3.68-8.46,3.68-8.46,0,0-2.73,6.41-5.45,6.47-2.72.05-4.54-2.46-3.68-4.43.85-1.98,8.65-2.88,8.65-2.88,0,0-8.54,2.51-9.93.16-1.39-2.35,1.33-4.19,2.4-4.35,1.07-.16,7.48,2.82,7.48,2.82,0,0-8.28-2.21-7.58-6.17.69-3.95,5.32-2.79,6.25-1.28.93,1.51,2.6,6.75,2.6,6.75Z"/>
      <circle class="cls-2" cx="100.34" cy="184.8" r="1.7"/>
      <circle class="cls-2" cx="79.16" cy="167.06" r="1.7"/>
      <path class="cls-2" d="M119.59,166.31s-1.68-3.84-.84-5.28c.84-1.44,3.6-2.28,3.96,0,.36,2.28-2.1,5.28-2.1,5.28,0,0,2.22-1.89,4.26-3.35,2.04-1.46,3.96,1.79,2.16,4.07-1.8,2.28-6.13,0-6.13,0,0,0,4.32,1.2,3.84,3.84-.48,2.64-3.24,3.12-3.96,2.16-.72-.96-.72-5.28-.72-5.28,0,0,1.45,5.24-1.56,5.74-3.01.5-3.97-2.74-2.65-4.42,1.32-1.68,2.88-1.92,2.88-1.92,0,0-4.56,2.28-5.16.36-.6-1.92.6-5.52,2.4-4.44,1.8,1.08,3.6,3.24,3.6,3.24Z"/>
      <path class="cls-2" d="M141.09,185.35s-3.18-6.29-1.1-9.85c2.09-3.56,4.78-.98,4.54,1.47-.25,2.45-2.62,8.38-2.62,8.38,0,0,2.86-7.89,6.05-7.64,3.19.25,3.31,2.53,2.33,4.33-.98,1.8-7.73,4.13-7.73,4.13,0,0,7.36-2.45,8.95-2.45s3.8,2.82,2.09,5.03c-1.72,2.21-11.28-1.47-11.28-1.47,0,0,7.85,1.47,8.09,4.66s-4.05,4.78-5.89,2.82c-1.84-1.96-3.07-6.5-3.07-6.5,0,0,2.33,6.62,1.23,8.46-1.1,1.84-5.64,2.45-6.01,0-.37-2.45,3.68-8.46,3.68-8.46,0,0-2.73,6.41-5.45,6.47s-4.54-2.46-3.68-4.43c.85-1.98,8.65-2.88,8.65-2.88,0,0-8.54,2.51-9.93.16s1.33-4.19,2.4-4.35c1.07-.16,7.48,2.82,7.48,2.82,0,0-8.28-2.21-7.58-6.17s5.32-2.79,6.25-1.28,2.6,6.75,2.6,6.75Z"/>
      <path class="cls-2" d="M119.59,204.22s-1.68-3.84-.84-5.28c.84-1.44,3.6-2.28,3.96,0s-2.1,5.28-2.1,5.28c0,0,2.22-1.89,4.26-3.35,2.04-1.46,3.96,1.79,2.16,4.07-1.8,2.28-6.13,0-6.13,0,0,0,4.32,1.2,3.84,3.84-.48,2.64-3.24,3.12-3.96,2.16-.72-.96-.72-5.28-.72-5.28,0,0,1.45,5.24-1.56,5.74-3.01.5-3.97-2.74-2.65-4.42,1.32-1.68,2.88-1.92,2.88-1.92,0,0-4.56,2.28-5.16.36-.6-1.92.6-5.52,2.4-4.44,1.8,1.08,3.6,3.24,3.6,3.24Z"/>
      <circle class="cls-2" cx="141.15" cy="186.91" r="1.7"/>
      <path class="cls-2" d="M141.09,221.14s-3.18-6.29-1.1-9.85c2.09-3.56,4.78-.98,4.54,1.47s-2.62,8.38-2.62,8.38c0,0,2.86-7.89,6.05-7.64,3.19.25,3.31,2.53,2.33,4.33-.98,1.8-7.73,4.13-7.73,4.13,0,0,7.36-2.45,8.95-2.45s3.8,2.82,2.09,5.03c-1.72,2.21-11.28-1.47-11.28-1.47,0,0,7.85,1.47,8.09,4.66s-4.05,4.78-5.89,2.82c-1.84-1.96-3.07-6.5-3.07-6.5,0,0,2.33,6.62,1.23,8.46-1.1,1.84-5.64,2.45-6.01,0-.37-2.45,3.68-8.46,3.68-8.46,0,0-2.73,6.41-5.45,6.47-2.72.05-4.54-2.46-3.68-4.43.85-1.98,8.65-2.88,8.65-2.88,0,0-8.54,2.51-9.93.16-1.39-2.35,1.33-4.19,2.4-4.35,1.07-.16,7.48,2.82,7.48,2.82,0,0-8.28-2.21-7.58-6.17.69-3.95,5.32-2.79,6.25-1.28s2.6,6.75,2.6,6.75Z"/>
      <circle class="cls-2" cx="141.15" cy="222.71" r="1.7"/>
      <path class="cls-2" d="M160.39,204.22s-1.68-3.84-.84-5.28c.84-1.44,3.6-2.28,3.96,0,.36,2.28-2.1,5.28-2.1,5.28,0,0,2.22-1.89,4.26-3.35s3.96,1.79,2.16,4.07-6.13,0-6.13,0c0,0,4.32,1.2,3.84,3.84-.48,2.64-3.24,3.12-3.96,2.16s-.72-5.28-.72-5.28c0,0,1.45,5.24-1.56,5.74-3.01.5-3.97-2.74-2.65-4.42,1.32-1.68,2.88-1.92,2.88-1.92,0,0-4.56,2.28-5.16.36-.6-1.92.6-5.52,2.4-4.44,1.8,1.08,3.6,3.24,3.6,3.24Z"/>
      <circle class="cls-2" cx="160.77" cy="204.97" r="1.7"/>
      <path class="cls-2" d="M183.68,221.14s-3.18-6.29-1.1-9.85c2.09-3.56,4.78-.98,4.54,1.47-.25,2.45-2.62,8.38-2.62,8.38,0,0,2.86-7.89,6.05-7.64,3.19.25,3.31,2.53,2.33,4.33-.98,1.8-7.73,4.13-7.73,4.13,0,0,7.36-2.45,8.95-2.45s3.8,2.82,2.09,5.03c-1.72,2.21-11.28-1.47-11.28-1.47,0,0,7.85,1.47,8.09,4.66s-4.05,4.78-5.89,2.82c-1.84-1.96-3.07-6.5-3.07-6.5,0,0,2.33,6.62,1.23,8.46-1.1,1.84-5.64,2.45-6.01,0-.37-2.45,3.68-8.46,3.68-8.46,0,0-2.73,6.41-5.45,6.47-2.72.05-4.54-2.46-3.68-4.43.85-1.98,8.65-2.88,8.65-2.88,0,0-8.54,2.51-9.93.16-1.39-2.35,1.33-4.19,2.4-4.35,1.07-.16,7.48,2.82,7.48,2.82,0,0-8.28-2.21-7.58-6.17.69-3.95,5.32-2.79,6.25-1.28.93,1.51,2.6,6.75,2.6,6.75Z"/>
      <path class="cls-2" d="M162.18,240.01s-1.68-3.84-.84-5.28,3.6-2.28,3.96,0c.36,2.28-2.1,5.28-2.1,5.28,0,0,2.22-1.89,4.26-3.35,2.04-1.46,3.96,1.79,2.16,4.07-1.8,2.28-6.13,0-6.13,0,0,0,4.32,1.2,3.84,3.84-.48,2.64-3.24,3.12-3.96,2.16s-.72-5.28-.72-5.28c0,0,1.45,5.24-1.56,5.74-3.01.5-3.97-2.74-2.65-4.42,1.32-1.68,2.88-1.92,2.88-1.92,0,0-4.56,2.28-5.16.36-.6-1.92.6-5.52,2.4-4.44,1.8,1.08,3.6,3.24,3.6,3.24Z"/>
      <circle class="cls-2" cx="183.74" cy="222.71" r="1.7"/>
      <path class="cls-2" d="M183.68,256.94s-3.18-6.29-1.1-9.85c2.09-3.56,4.78-.98,4.54,1.47-.25,2.45-2.62,8.38-2.62,8.38,0,0,2.86-7.89,6.05-7.64,3.19.25,3.31,2.53,2.33,4.33-.98,1.8-7.73,4.13-7.73,4.13,0,0,7.36-2.45,8.95-2.45s3.8,2.82,2.09,5.03c-1.72,2.21-11.28-1.47-11.28-1.47,0,0,7.85,1.47,8.09,4.66.25,3.19-4.05,4.78-5.89,2.82-1.84-1.96-3.07-6.5-3.07-6.5,0,0,2.33,6.62,1.23,8.46-1.1,1.84-5.64,2.45-6.01,0-.37-2.45,3.68-8.46,3.68-8.46,0,0-2.73,6.41-5.45,6.47s-4.54-2.46-3.68-4.43c.85-1.98,8.65-2.88,8.65-2.88,0,0-8.54,2.51-9.93.16-1.39-2.35,1.33-4.19,2.4-4.35,1.07-.16,7.48,2.82,7.48,2.82,0,0-8.28-2.21-7.58-6.17.69-3.95,5.32-2.79,6.25-1.28.93,1.51,2.6,6.75,2.6,6.75Z"/>
      <circle class="cls-2" cx="183.74" cy="258.5" r="1.7"/>
      <circle class="cls-2" cx="162.56" cy="240.77" r="1.7"/>
      <path class="cls-2" d="M202.99,240.01s-1.68-3.84-.84-5.28c.84-1.44,3.6-2.28,3.96,0s-2.1,5.28-2.1,5.28c0,0,2.22-1.89,4.26-3.35,2.04-1.46,3.96,1.79,2.16,4.07-1.8,2.28-6.13,0-6.13,0,0,0,4.32,1.2,3.84,3.84-.48,2.64-3.24,3.12-3.96,2.16s-.72-5.28-.72-5.28c0,0,1.45,5.24-1.56,5.74-3.01.5-3.97-2.74-2.65-4.42,1.32-1.68,2.88-1.92,2.88-1.92,0,0-4.56,2.28-5.16.36-.6-1.92.6-5.52,2.4-4.44,1.8,1.08,3.6,3.24,3.6,3.24Z"/>
      <circle class="cls-2" cx="203.36" cy="240.77" r="1.7"/>
      <path class="cls-2" d="M185.54,148.51s-3.18-6.29-1.1-9.85c2.09-3.56,4.78-.98,4.54,1.47-.25,2.45-2.62,8.38-2.62,8.38,0,0,2.86-7.89,6.05-7.64,3.19.25,3.31,2.53,2.33,4.33-.98,1.8-7.73,4.13-7.73,4.13,0,0,7.36-2.45,8.95-2.45s3.8,2.82,2.09,5.03c-1.72,2.21-11.28-1.47-11.28-1.47,0,0,7.85,1.47,8.09,4.66.25,3.19-4.05,4.78-5.89,2.82-1.84-1.96-3.07-6.5-3.07-6.5,0,0,2.33,6.62,1.23,8.46s-5.64,2.45-6.01,0c-.37-2.45,3.68-8.46,3.68-8.46,0,0-2.73,6.41-5.45,6.47-2.72.05-4.54-2.46-3.68-4.43s8.65-2.88,8.65-2.88c0,0-8.54,2.51-9.93.16-1.39-2.35,1.33-4.19,2.4-4.35s7.48,2.82,7.48,2.82c0,0-8.28-2.21-7.58-6.17.69-3.95,5.32-2.79,6.25-1.28.93,1.51,2.6,6.75,2.6,6.75Z"/>
      <path class="cls-2" d="M164.04,167.38s-1.68-3.84-.84-5.28c.84-1.44,3.6-2.28,3.96,0,.36,2.28-2.1,5.28-2.1,5.28,0,0,2.22-1.89,4.26-3.35,2.04-1.46,3.96,1.79,2.16,4.07-1.8,2.28-6.13,0-6.13,0,0,0,4.32,1.2,3.84,3.84-.48,2.64-3.24,3.12-3.96,2.16s-.72-5.28-.72-5.28c0,0,1.45,5.24-1.56,5.74-3.01.5-3.97-2.74-2.65-4.42,1.32-1.68,2.88-1.92,2.88-1.92,0,0-4.56,2.28-5.16.36-.6-1.92.6-5.52,2.4-4.44,1.8,1.08,3.6,3.24,3.6,3.24Z"/>
      <circle class="cls-2" cx="185.6" cy="150.07" r="1.7"/>
      <path class="cls-2" d="M185.54,184.3s-3.18-6.29-1.1-9.85c2.09-3.56,4.78-.98,4.54,1.47-.25,2.45-2.62,8.38-2.62,8.38,0,0,2.86-7.89,6.05-7.64,3.19.25,3.31,2.53,2.33,4.33-.98,1.8-7.73,4.13-7.73,4.13,0,0,7.36-2.45,8.95-2.45s3.8,2.82,2.09,5.03c-1.72,2.21-11.28-1.47-11.28-1.47,0,0,7.85,1.47,8.09,4.66.25,3.19-4.05,4.78-5.89,2.82-1.84-1.96-3.07-6.5-3.07-6.5,0,0,2.33,6.62,1.23,8.46-1.1,1.84-5.64,2.45-6.01,0-.37-2.45,3.68-8.46,3.68-8.46,0,0-2.73,6.41-5.45,6.47-2.72.05-4.54-2.46-3.68-4.43.85-1.98,8.65-2.88,8.65-2.88,0,0-8.54,2.51-9.93.16-1.39-2.35,1.33-4.19,2.4-4.35s7.48,2.82,7.48,2.82c0,0-8.28-2.21-7.58-6.17.69-3.95,5.32-2.79,6.25-1.28.93,1.51,2.6,6.75,2.6,6.75Z"/>
      <circle class="cls-2" cx="185.6" cy="185.87" r="1.7"/>
      <circle class="cls-2" cx="164.42" cy="168.13" r="1.7"/>
      <path class="cls-2" d="M204.84,167.38s-1.68-3.84-.84-5.28c.84-1.44,3.6-2.28,3.96,0,.36,2.28-2.1,5.28-2.1,5.28,0,0,2.22-1.89,4.26-3.35,2.04-1.46,3.96,1.79,2.16,4.07-1.8,2.28-6.13,0-6.13,0,0,0,4.32,1.2,3.84,3.84-.48,2.64-3.24,3.12-3.96,2.16-.72-.96-.72-5.28-.72-5.28,0,0,1.45,5.24-1.56,5.74-3.01.5-3.97-2.74-2.65-4.42,1.32-1.68,2.88-1.92,2.88-1.92,0,0-4.56,2.28-5.16.36s.6-5.52,2.4-4.44c1.8,1.08,3.6,3.24,3.6,3.24Z"/>
      <path class="cls-2" d="M209.52,205.29s-1.68-3.84-.84-5.28c.84-1.44,3.6-2.28,3.96,0,.36,2.28-2.1,5.28-2.1,5.28,0,0,2.22-1.89,4.26-3.35,2.04-1.46,3.96,1.79,2.16,4.07-1.8,2.28-6.13,0-6.13,0,0,0,4.32,1.2,3.84,3.84-.48,2.64-3.24,3.12-3.96,2.16-.72-.96-.72-5.28-.72-5.28,0,0,1.45,5.24-1.56,5.74-3.01.5-3.97-2.74-2.65-4.42,1.32-1.68,2.88-1.92,2.88-1.92,0,0-4.56,2.28-5.16.36s.6-5.52,2.4-4.44c1.8,1.08,3.6,3.24,3.6,3.24Z"/>
      <path class="cls-2" d="M55.29,256.82s-3.18-6.29-1.1-9.85c2.09-3.56,4.78-.98,4.54,1.47-.25,2.45-2.62,8.38-2.62,8.38,0,0,2.86-7.89,6.05-7.64s3.31,2.53,2.33,4.33c-.98,1.8-7.73,4.13-7.73,4.13,0,0,7.36-2.45,8.95-2.45s3.8,2.82,2.09,5.03c-1.72,2.21-11.28-1.47-11.28-1.47,0,0,7.85,1.47,8.09,4.66.25,3.19-4.05,4.78-5.89,2.82s-3.07-6.5-3.07-6.5c0,0,2.33,6.62,1.23,8.46-1.1,1.84-5.64,2.45-6.01,0-.37-2.45,3.68-8.46,3.68-8.46,0,0-2.73,6.41-5.45,6.47-2.72.05-4.54-2.46-3.68-4.43.85-1.98,8.65-2.88,8.65-2.88,0,0-8.54,2.51-9.93.16-1.39-2.35,1.33-4.19,2.4-4.35,1.07-.16,7.48,2.82,7.48,2.82,0,0-8.28-2.21-7.58-6.17.69-3.95,5.32-2.79,6.25-1.28.93,1.51,2.6,6.75,2.6,6.75Z"/>
      <circle class="cls-2" cx="55.35" cy="258.38" r="1.7"/>
      <path class="cls-2" d="M74.59,275.69s-1.68-3.84-.84-5.28c.84-1.44,3.6-2.28,3.96,0,.36,2.28-2.1,5.28-2.1,5.28,0,0,2.22-1.89,4.26-3.35,2.04-1.46,3.96,1.79,2.16,4.07-1.8,2.28-6.13,0-6.13,0,0,0,4.32,1.2,3.84,3.84-.48,2.64-3.24,3.12-3.96,2.16-.72-.96-.72-5.28-.72-5.28,0,0,1.45,5.24-1.56,5.74-3.01.5-3.97-2.74-2.65-4.42s2.88-1.92,2.88-1.92c0,0-4.56,2.28-5.16.36-.6-1.92.6-5.52,2.4-4.44,1.8,1.08,3.6,3.24,3.6,3.24Z"/>
      <path class="cls-2" d="M142.13,259.91s-3.18-6.29-1.1-9.85c2.09-3.56,4.78-.98,4.54,1.47-.25,2.45-2.62,8.38-2.62,8.38,0,0,2.86-7.89,6.05-7.64,3.19.25,3.31,2.53,2.33,4.33-.98,1.8-7.73,4.13-7.73,4.13,0,0,7.36-2.45,8.95-2.45s3.8,2.82,2.09,5.03c-1.72,2.21-11.28-1.47-11.28-1.47,0,0,7.85,1.47,8.09,4.66.25,3.19-4.05,4.78-5.89,2.82-1.84-1.96-3.07-6.5-3.07-6.5,0,0,2.33,6.62,1.23,8.46-1.1,1.84-5.64,2.45-6.01,0s3.68-8.46,3.68-8.46c0,0-2.73,6.41-5.45,6.47s-4.54-2.46-3.68-4.43c.85-1.98,8.65-2.88,8.65-2.88,0,0-8.54,2.51-9.93.16-1.39-2.35,1.33-4.19,2.4-4.35,1.07-.16,7.48,2.82,7.48,2.82,0,0-8.28-2.21-7.58-6.17.69-3.95,5.32-2.79,6.25-1.28.93,1.51,2.6,6.75,2.6,6.75Z"/>
      <path class="cls-2" d="M120.63,278.78s-1.68-3.84-.84-5.28c.84-1.44,3.6-2.28,3.96,0,.36,2.28-2.1,5.28-2.1,5.28,0,0,2.22-1.89,4.26-3.35,2.04-1.46,3.96,1.79,2.16,4.07-1.8,2.28-6.13,0-6.13,0,0,0,4.32,1.2,3.84,3.84-.48,2.64-3.24,3.12-3.96,2.16-.72-.96-.72-5.28-.72-5.28,0,0,1.45,5.24-1.56,5.74-3.01.5-3.97-2.74-2.65-4.42s2.88-1.92,2.88-1.92c0,0-4.56,2.28-5.16.36-.6-1.92.6-5.52,2.4-4.44,1.8,1.08,3.6,3.24,3.6,3.24Z"/>
      <circle class="cls-2" cx="142.19" cy="261.48" r="1.7"/>
      <circle class="cls-2" cx="121.01" cy="279.54" r="1.7"/>
      <path class="cls-2" d="M161.44,278.78s-1.68-3.84-.84-5.28c.84-1.44,3.6-2.28,3.96,0,.36,2.28-2.1,5.28-2.1,5.28,0,0,2.22-1.89,4.26-3.35,2.04-1.46,3.96,1.79,2.16,4.07-1.8,2.28-6.13,0-6.13,0,0,0,4.32,1.2,3.84,3.84-.48,2.64-3.24,3.12-3.96,2.16-.72-.96-.72-5.28-.72-5.28,0,0,1.45,5.24-1.56,5.74-3.01.5-3.97-2.74-2.65-4.42,1.32-1.68,2.88-1.92,2.88-1.92,0,0-4.56,2.28-5.16.36-.6-1.92.6-5.52,2.4-4.44,1.8,1.08,3.6,3.24,3.6,3.24Z"/>
      <path class="cls-2" d="M231.01,256.49s-3.18-6.29-1.1-9.85c2.09-3.56,4.78-.98,4.54,1.47-.25,2.45-2.62,8.38-2.62,8.38,0,0,2.86-7.89,6.05-7.64,3.19.25,3.31,2.53,2.33,4.33s-7.73,4.13-7.73,4.13c0,0,7.36-2.45,8.95-2.45s3.8,2.82,2.09,5.03c-1.72,2.21-11.28-1.47-11.28-1.47,0,0,7.85,1.47,8.09,4.66.25,3.19-4.05,4.78-5.89,2.82-1.84-1.96-3.07-6.5-3.07-6.5,0,0,2.33,6.62,1.23,8.46s-5.64,2.45-6.01,0c-.37-2.45,3.68-8.46,3.68-8.46,0,0-2.73,6.41-5.45,6.47-2.72.05-4.54-2.46-3.68-4.43.85-1.98,8.65-2.88,8.65-2.88,0,0-8.54,2.51-9.93.16-1.39-2.35,1.33-4.19,2.4-4.35,1.07-.16,7.48,2.82,7.48,2.82,0,0-8.28-2.21-7.58-6.17.69-3.95,5.32-2.79,6.25-1.28.93,1.51,2.6,6.75,2.6,6.75Z"/>
      <path class="cls-2" d="M209.5,275.36s-1.68-3.84-.84-5.28c.84-1.44,3.6-2.28,3.96,0,.36,2.28-2.1,5.28-2.1,5.28,0,0,2.22-1.89,4.26-3.35,2.04-1.46,3.96,1.79,2.16,4.07-1.8,2.28-6.13,0-6.13,0,0,0,4.32,1.2,3.84,3.84-.48,2.64-3.24,3.12-3.96,2.16s-.72-5.28-.72-5.28c0,0,1.45,5.24-1.56,5.74-3.01.5-3.97-2.74-2.65-4.42,1.32-1.68,2.88-1.92,2.88-1.92,0,0-4.56,2.28-5.16.36-.6-1.92.6-5.52,2.4-4.44,1.8,1.08,3.6,3.24,3.6,3.24Z"/>
      <circle class="cls-2" cx="231.06" cy="258.05" r="1.7"/>
      <circle class="cls-2" cx="209.88" cy="276.11" r="1.7"/>
    </g>
    <g>
      <path class="cls-21" d="M99.42,227.8c15.22,3.09,30.75,4.68,46.28,4.74,13.96.06,25.22.05,37.98-5.62l3.24-1.69c.44,4.58.88,9.15,1.32,13.73.07.74.14,1.52-.19,2.19-.39.81-1.24,1.27-2.05,1.64-9.92,4.62-21.19,5.22-32.14,5.36-20.06.25-36.64.36-59.01-6.06"/>
      <path class="cls-16" d="M98.99,228.23c13.06,2.64,26.33,4.21,39.65,4.64,6.26.2,12.55.24,18.8,0,5.55-.21,11.1-.79,16.49-2.14,4.67-1.17,9.03-2.94,13.29-5.16l-1.02-.15c.39,4,.77,8.01,1.16,12.01.19,1.96.69,3.78-1.34,4.87-1.65.88-3.48,1.52-5.25,2.09-6.92,2.25-14.23,2.94-21.46,3.19-13.26.45-26.73.54-39.92-1.02-8.15-.96-16.19-2.65-24.08-4.91-.51-.15-1.71.61-.87.85,14.26,4.07,28.82,5.91,43.62,6.13,7.17.11,14.36.08,21.52-.19s15.1-1.06,22.24-3.53c1.77-.61,3.62-1.26,5.26-2.19,1.38-.78,2.02-1.82,1.94-3.41-.25-4.76-.91-9.54-1.37-14.29-.04-.39-.84-.24-1.02-.15-3.52,1.83-7.06,3.38-10.89,4.48-5.36,1.55-10.9,2.25-16.46,2.54-12.47.63-25.12.17-37.53-1.16-7.35-.78-14.65-1.92-21.9-3.38-.51-.1-1.71.68-.87.85h0Z"/>
    </g>
    <path class="cls-4" d="M102.22,217.33c-4.01.3-7.58.2-11.39-.69-5.17-1.21-9.91-.84-14.47-3.68-.05.43-.09.83-.14,1.27l-1.39,11.37c-2.03,16.17-2.12,28.6-2.14,31.98-.06,14.92,15.67,54.47,15.67,54.47l10.62-3.34s0-36.53-2.35-51.69l5.58-39.69Z"/>
    <g>
      <path class="cls-21" d="M115.8,152.75s19.32,16.48,39.18,13.98c17.17-2.16,11.91-15.79,11.91-15.79l-6.35-3.36s7.73,10.54-8.67,12.7c-16.39,2.16-32.44-15.85-32.44-15.85"/>
      <path class="cls-16" d="M115.12,153.03c2.81,2.39,5.97,4.44,9.15,6.29,6.59,3.84,13.89,6.85,21.51,7.77,6.37.77,14.95.53,19.75-4.45,2.62-2.71,3.27-6.54,2.55-10.14-.16-.81-.22-1.66-.95-2.09-1.96-1.14-4.03-2.13-6.03-3.19-.31-.16-1.61.14-1.25.63.89,1.23,1.51,2.78,1.71,4.28.49,3.77-2.49,5.99-5.78,6.97-10.85,3.2-21.61-2.64-29.76-9.4-2.08-1.72-4.12-3.55-5.92-5.56-.33-.37-1.71.15-1.35.56,5.23,5.85,12.12,10.97,19.39,13.91,5.57,2.25,11.5,2.91,17.35,1.34,3.38-.91,7.35-2.89,7.57-6.85.11-2.02-.67-4.18-1.86-5.81l-1.25.63c1.67.88,3.34,1.77,5.02,2.65.34.18.7.42,1.06.56.3.12.21.16.14.03.12.21.17.5.23.74.82,2.96.75,6.35-.89,9.03-3.46,5.63-11.85,6.02-17.69,5.5-7.45-.66-14.61-3.46-21.1-7.07-3.58-1.99-7.13-4.24-10.26-6.9-.38-.33-1.73.23-1.35.56h0Z"/>
    </g>
    <path class="cls-13" d="M151.01,101.9s-7.79,3.29-13.96.52c-2.22-.99-3.27-2.32-2.39-4.28,1.76-3.89,7.39-3.97,10.6-2.97,3.48,1.08,6.04,3,5.75,6.73Z"/>
    <g>
      <path class="cls-5" d="M148.2,98.07c.7,2.5-1.09,4.1-4.08,4.59-2.99.5-6.03-.3-6.73-2.8-.7-2.5.48-4.72,3.47-5.21,2.99-.5,6.64.92,7.35,3.42Z"/>
      <path class="cls-11" d="M145.58,98.26c.39,1.38-.64,2.73-2.3,3.01-1.66.28-3.31-.62-3.7-2.01-.39-1.38.64-2.73,2.3-3.01,1.66-.28,3.31.62,3.7,2.01Z"/>
    </g>
    <ellipse class="cls-13" cx="141.57" cy="97.78" rx=".43" ry=".49" transform="translate(40.98 237.36) rotate(-88.85)"/>
    <path class="cls-3" d="M150.88,99.64s-3.69-4.34-10.44-3.74c-6.74.6-6.06,3.92-6.06,3.92,0,0-1.16-3.97,3.69-5.42,3.49-1.05,10.44-1.35,12.8,5.24Z"/>
    <path class="cls-13" d="M181.52,101.34s-6.04,3.75-11.8.61c-2.07-1.13-2.48-1.92-1.5-3.82,1.95-3.77,6.85-4.1,9.87-2.91,3.28,1.3,3.95,2.41,3.43,6.12Z"/>
    <g>
      <path class="cls-5" d="M179.61,98.22c.52,2.53-1.32,4.02-4.22,4.33-2.91.31-5.79-.67-6.31-3.21-.52-2.53.77-4.68,3.68-4.99,2.91-.31,6.34,1.33,6.86,3.86Z"/>
      <path class="cls-11" d="M177.08,98.26c.29,1.41-.79,2.68-2.4,2.86-1.61.17-3.15-.83-3.44-2.23-.29-1.41.79-2.68,2.4-2.86,1.61-.17,3.15.83,3.44,2.23Z"/>
    </g>
    <ellipse class="cls-13" cx="173.25" cy="97.52" rx=".43" ry=".47" transform="translate(60.26 261.11) rotate(-84.74)"/>
    <path class="cls-3" d="M181.68,99.35s-.9-3.87-7.43-3.69c-6.53.18-6.51,4.36-6.51,4.36,0,0-.65-4.67,4.12-5.83,3.43-.83,10.49.01,9.82,5.16Z"/>
    <g>
      <path class="cls-21" d="M104.05,214.14c-.42,2.82-1.45,7.09-1.45,7.09l-5.73-.13s-14.46,1.55-23.44-6.03c0,0,.17-4.25,1.24-7.14,0,0,7.92,5.74,22.69,6.85,2.39.18,8.71-1.2,8.71-1.2"/>
      <path class="cls-16" d="M103.33,214.26c-.37,2.38-.88,4.75-1.45,7.09l1.18-.44c-2.81-.06-5.58-.05-8.38,0-6.09.1-12.55-.97-17.83-4.14-.76-.45-1.93-1.02-2.47-1.73-.31-.4-.21-.71-.16-1.26.17-2.02.48-4.06,1.16-5.98l-1.4.37c2.14,1.54,4.7,2.62,7.15,3.55,2.86,1.08,5.82,1.88,8.82,2.46s6.18,1.14,9.25.82c2.26-.23,4.52-.65,6.74-1.13.59-.13,1.26-.81.26-.59-1.74.38-3.49.7-5.24.95-3.16.45-6.29,0-9.42-.57-4.85-.89-9.69-2.36-14.04-4.71-.73-.39-1.47-.8-2.14-1.29-.29-.21-1.27.02-1.4.37-.59,1.67-.89,3.43-1.08,5.19-.06.53-.24,1.24-.15,1.77.08.5.42.65.87.99,2.87,2.17,6.27,3.56,9.74,4.41,4.36,1.06,8.76,1.23,13.21,1.01-.29.01.47.01.62.02l1.86.04,3.11.07c.27,0,1.1-.08,1.18-.44.56-2.34,1.08-4.71,1.45-7.09.06-.39-1.38-.14-1.43.24h0Z"/>
    </g>
    <g>
      <path class="cls-12" d="M164.26,115.59c-1.02.59-2.62.53-3.7-.09-.24-.14-1.01.04-.68.23,1.42.81,3.71.8,5.03.03.13-.08.1-.18-.07-.23-.18-.05-.45-.03-.59.05"/>
      <path class="cls-12" d="M159.43,115.45c-.71-.3-1.51-.45-2.3-.48-.12,0-.26.05-.34.12-.06.06-.07.14.01.19.37.19.83.26,1.26.24.13,0,.31-.05.38-.17.07-.11-.07-.17-.17-.17-.35.02-.71-.03-1.02-.19-.11.1-.22.21-.33.31.7.03,1.41.16,2.05.43.13.05.31,0,.41-.06.08-.05.17-.17.04-.23"/>
      <path class="cls-12" d="M156.31,115.67c-.92.01-2.01-.34-2.49-1.02-.72-1.02-.15-2.8.97-3.52.12-.08.05-.17-.08-.19-.17-.03-.36.04-.49.12-.98.62-1.57,2.11-1.39,3.09.18.91,1.08,1.52,2.19,1.74.33.07.68.11,1.02.1.14,0,.39-.05.45-.17.06-.11-.06-.16-.19-.15"/>
      <path class="cls-12" d="M165.93,115.05c-.05-.1.04-.18.11-.18.25,0,.5-.08.7-.26.09.1.17.19.25.29-.49.07-.99.26-1.42.57-.09.06-.21.03-.3-.03-.06-.05-.13-.16-.04-.22"/>
      <path class="cls-12" d="M165.24,115.21c.48-.35,1.03-.55,1.59-.63.08-.01.19.03.25.1.05.06.06.14,0,.19"/>
      <path class="cls-12" d="M167.81,115.1c.48-.04,1.03-.47,1.24-1.17.32-1.06-.06-2.29-.69-2.94-.07-.07-.04-.17.03-.2.09-.04.19.02.26.09.55.56.92,1.5.88,2.48-.04.92-.48,1.58-1.04,1.87-.17.09-.35.15-.53.16-.07,0-.21-.03-.25-.14-.04-.11.02-.16.09-.17"/>
    </g>
  </g>
</svg>