<?xml version="1.0" encoding="UTF-8"?>
<svg id="Layer_6" data-name="Layer 6" xmlns="http://www.w3.org/2000/svg" xmlns:xlink="http://www.w3.org/1999/xlink" viewBox="0 0 278.14 278.14">
  <defs>
    <style>
      .cls-1 {
        fill: none;
      }

      .cls-2 {
        fill: #010101;
      }

      .cls-3 {
        fill: #e8b48f;
      }

      .cls-4 {
        fill: #6e472d;
      }

      .cls-5 {
        fill: #3c2a17;
      }

      .cls-6 {
        fill: #f2eef7;
      }

      .cls-7 {
        fill: #914a3b;
      }

      .cls-8 {
        fill: #804841;
      }

      .cls-9 {
        fill: #050505;
      }

      .cls-10 {
        fill: #fff;
      }

      .cls-11 {
        fill: #0a0808;
      }

      .cls-12 {
        fill: #858280;
      }

      .cls-13 {
        fill: #dbf1f9;
        stroke: #fff;
        stroke-miterlimit: 10;
        stroke-width: .5px;
      }

      .cls-14 {
        clip-path: url(#clippath);
      }

      .cls-15 {
        fill: #ae745b;
      }
    </style>
    <clipPath id="clippath">
      <circle class="cls-1" cx="139.94" cy="140.18" r="136.76"/>
    </clipPath>
  </defs>
  <g class="cls-14">
    <circle class="cls-13" cx="139.07" cy="139.07" r="136.76"/>
    <circle class="cls-1" cx="139.23" cy="142.18" r="136.76"/>
    <circle class="cls-1" cx="139.07" cy="142.07" r="136.76"/>
    <circle class="cls-1" cx="139.94" cy="137.93" r="136.76"/>
    <circle class="cls-1" cx="138.72" cy="137.69" r="136.76"/>
    <path class="cls-3" d="M189.55,126.18c.57-5.5-1.15-11.93-1.9-15.24.06-2.55.1-5.5.14-9.07.01-1.03,0-2.03-.03-3.01-.06-.5-.08-1.01-.05-1.52-.73-17.37-6.55-26.4-6.55-26.4-7.43-11.44-20.37-18.05-33.98-17.36-16.02.48-30.39,10.36-37.83,20.23-3.7,4.89-5.47,10.97-4.97,17.08.42,5.22,1.69,11.08,3.15,16.74-5.6-.2-11.07,1.86-8.94,12.15,2.94,14.21,12.16,18.53,16.44,14.58,1,.17,3.02,4.46,3.28,7.43.5,5.68,2.96,19.06.21,24.06l-2.43-1.66c12.26,19.36,19.48,30.56,60.68,18.65l-13.38-18.8-2.65-6.15c3.13-.25,6.52-.09,9.4-1.29,12.87-3.46,18.73-23.96,19.4-30.44Z"/>
    <path class="cls-7" d="M163.16,157.69s-15.25,1.37-29.06-7.55c0,0,1.7,4.57,11.51,7.94,9.81,3.36,17.58,2.08,17.58,2.08l-.03-2.48Z"/>
    <path class="cls-15" d="M166.16,132.96c-5.1.03-13.38-.47-13.38-.47,0,0-.61,11.69,13.54,11.39,11.83-.25,10.56-11.4,10.56-11.4,0,0-5.62.45-10.73.48Z"/>
    <path class="cls-11" d="M166.21,132.96c-2.43.01-11.46-.02-11.46-.02,0,0,2.14,5.99,10.92,5.94,9.52-.06,10.37-5.21,10.37-5.21l-9.82-.71Z"/>
    <path class="cls-6" d="M166.32,134.03c-2.43.01-9.81-.32-9.81-.32,0,0,2.91,1.9,10.19,1.86,7.28-.04,9.33-1.91,9.33-1.91l-9.72.37Z"/>
    <path class="cls-15" d="M178.27,132.5c0-.25-.53-.36-1.73-.45-2.01-.15-2.67-.83-4.12-.93-2.49-.16-4.06.76-5.14.76s-2.66-.89-5.15-.7c-1.45.11-5.05.62-7.06.8-1.2.1-2.62-.32-2.88-.26-.36.08.5,3.25,14.07,3.17,13.58-.08,12.01-2.05,12.01-2.39Z"/>
    <g>
      <path class="cls-5" d="M154.19,95.01h0v-.1s-.24-.06-.24-.06c-6.45-1.73-11.73-1.94-13.91-1.41-1.4.35-2.81,1.04-4.2,2.06-.37.27-3.68,2.63-4.13,3.68-.16.37-.02.56.07.65.13.11.49.42,2.52-.77.21-.08.4-.17.57-.25.31-.14.57-.27.91-.34.79-.17,1.57-.37,2.35-.57,2.37-.62,4.59-1.2,6.98-.87,2.31.31,5.38,1.74,7.84,2.89.42.19.81.38,1.19.55l.42.19.02-.46c.03-.7,0-1.39-.02-2.05-.03-.9-.07-1.75.03-2.64v-.02c.02-.3-.27-.41-.41-.46Z"/>
      <path class="cls-5" d="M187.98,98.7s.02-.02.03-.03c0,0,0,0,0,0,.02-.04.05-.08.07-.12.05-.13.07-.26.1-.39-.12-.49-.24-.98-.31-1.48-.78-.54-1.48-.97-1.52-.99-1.21-.76-2.42-1.26-3.6-1.47-1.83-.34-6.21.09-11.5,1.8l-.24.07v.08c-.11.05-.34.18-.3.45.12.71.13,1.39.14,2.11.01.54.02,1.1.08,1.67l.05.45.4-.21c1.94-1,5.83-1.86,8.76-2.41,2.6-.51,3.69-.47,6.35-.06.28.04.5.13.76.23.15.06.31.12.44.16,0,0,.12.06.27.13Z"/>
    </g>
    <path class="cls-5" d="M187.34,78.27c.09.11.16.2.16.2-.82-32.2-31.88-38.27-31.88-38.27,0,0-33.88-1.7-46.19,10.67-6.32,6.35-8.67,13.52-8.67,13.52l-2.12,1.98c-2.27,2.12-5.72,4.45-6.69,7.4-7.82,23.76,4.52,34.9,6.52,36.52h0c.23.7,1.54.46,1.76-.14.79-2.17,3.41-1.76,5.38-1.49,2.41.32,3.74,1.57,5.32,3.33,1.49,1.66,1.66,3.53,2.56,5.46.32.7.3.98.89,1.2.05.03.12.06.19.08,0,0,0,0,0,0,0,0,0,0,0,0,.07.02.12.04.2.05,1.66.12,4.77-1.24,4.33-3.29-.12-.56-.78-.93-1.07-1.38-.82-1.29-.73-2.4-.77-3.95-.06-2.46-.16-4.95-.61-7.36-.57-3.02-1.56-5.8-1.29-8.93.23-2.7,1.26-5.26,2.02-7.84.64-2.19,1.27-4.03,2.49-5.99,2.58-4.15,6.45-7.66,10.92-9.68,4.45-2.01,8.51-1.2,13.04,0,4.1,1.09,8.17,1.82,12.42,1.69,3.82-.12,7.63-1.01,11.44-.98,7.66.06,15.63,7.3,18.09,14.31.26.75,1.74.43,1.81-.31.2-2.35.09-4.61-.25-6.79Z"/>
    <path class="cls-8" d="M159.93,120.73c-.74-.02-1.35.33-1.66,1.01-.25.55-.31,1.2-.28,1.79.03.64.16,1.2.62,1.67.62.62,1.53.86,2.38.96.58.07,1.14.03,1.7-.15s1.1-.44,1.68-.57c.24-.05.54-.3.47-.57-.08-.29-.45-.31-.69-.26-.78.17-1.52.67-2.33.7-.6.03-1.36-.12-1.88-.44-.88-.54-.88-1.62-.7-2.52.03-.14.04-.21.1-.35.02-.05.04-.11.07-.16.03-.07.05-.1.05-.1.03-.04.06-.08.1-.12-.07.08.04-.02.06-.04,0,0-.09.04-.04.03.08-.03-.11.02-.03,0,.05,0,.07-.05.03-.01-.03.03.04,0-.04,0,.28,0,.63-.07.75-.36.11-.25-.1-.5-.36-.51h0Z"/>
    <path class="cls-10" d="M217.2,296.48c-2.09-15.88-.77-77.19-5.54-95.2-3.5-13.23-27.66-29.54-34.54-32.67l-12.12-4.99s-2.45,3.3-16.4,5.38c-14.4,2.14-6.33.83-15.93-2.62,0,0-9.68-2.05-10.83-7.11l-2.66,1.33c-4.18,1.14-8.95,4.78-20.56,8.78-4.07,1.71-10.5,5.75-15.52,9.5-1.15.82-3.79,2.15-4.63,2.94-3.82,3.34-9.63,8.03-11.69,12.85-6.85,19.22-14.66,96.05-14.66,108.69,0,38.26,6.23,43.25,15.47,82.4l-.13,5.31c-.06,18.77-.07,32.46,5.16,50.86l.33,90.1s1.88,25.77-1.58,54.61c-2.2,18.22-1.45,60.15.64,74.42,3.5,6.12,48.57,5.08,54.29,5.23,22.86.61,48.51-6.97,71.09-10.29l.37-31.16,1.17-57.7c3.18-33.68,4.98-75.44,4.99-82.43l2.62-94.69h12.1l.46-35.89c-.25-4.59.81-39.14-1.88-57.65Z"/>
    <path class="cls-12" d="M123.01,162.57c-1.19-.5-2.77-1.57-4.05-1.65-.61-.04-1.23.36-1.76.58-1.57.67-3.16,1.29-4.75,1.92-6.61,2.61-13.47,5.05-19.72,8.47-5.66,3.1-11.13,6.93-16.22,10.9-1.94,1.51-3.57,3.42-5.27,5.18-1.88,1.95-3.71,3.63-4.88,6.14-3.89,8.32-5.47,17.52-6.95,26.51-1.92,11.68-3.33,23.44-4.56,35.2-2.14,20.42-4.14,40.91-2.9,61.45.74,12.27,3.03,24.15,6.14,36.02,1.83,7.02,3.75,14.01,5.52,21.05.86,3.41,2.04,6.94,2.48,10.42.27,2.14.35,4.32.52,6.47.51,6.4.03,12.88.18,19.29.18,7.36.94,14.66,2.54,21.85.8,3.63,2.55,7.32,2.57,11.04l.03,6.8c.09,17.96.17,35.92.26,53.88.05,10.43.16,20.86-.02,31.28-.48,28.8-2.26,57.57-2.37,86.37-.05,12.25-.16,24.66,1.15,36.85.2,1.87.07,2.73,1.84,3.52,1.57.7,3.3,1.09,4.97,1.44,4.94,1.02,10.01,1.49,15.03,1.88,9.19.73,18.44,1.12,27.65,1.18,16.77.12,33.54-2.28,50.03-5.15,9.07-1.58,18.09-3.37,27.1-5.25.17-.04.86-.17.86-.45-.01-12.58-.08-25.14.17-37.72.37-18.03.73-36.05,1.1-54.08.12-5.76.98-11.56,1.45-17.3.78-9.54,1.48-19.08,2.1-28.63.73-11.18,1.5-22.39,1.71-33.6.28-14.68.78-29.35,1.17-44.03.28-10.42.56-20.84.83-31.25.1-3.93.21-7.85.31-11.78.06-2.15.43-4.56.18-6.7-.03-.28.02-.6.02-.88l-1.2.48h12.33c.25,0,1.19-.11,1.2-.48.11-12.18.5-24.39.3-36.56-.15-9.47.09-18.94-.07-28.41-.11-6.32-.32-12.65-.78-18.95-.32-4.39-1-8.74-1.36-13.13-1.71-20.87-1.24-41.92-2.33-62.84-.47-9.06-.82-18.39-2.79-27.28-2.47-11.11-11.51-19.52-20.43-25.89-3.86-2.76-7.93-5.27-12.16-7.41-2.72-1.38-5.63-2.3-8.49-3.35l-5.74-2.11c-.66-.24-1.34-.6-2.05-.65-2.24-.15-4.87.65-7.07.96-3.6.51-7.19,1.04-10.79,1.57-.57.09-1.3.66-.28.51,5.37-.8,10.75-1.6,16.14-2.31.31-.04,1.8-.07,1.03-.2,1.17.2,2.4.88,3.5,1.29,3.41,1.25,6.89,2.38,10.25,3.77s6.7,3.44,9.82,5.42c9.6,6.09,20.02,14.35,23.89,25.46,2.75,7.9,2.89,17.02,3.41,25.27,1.35,21.36,1.13,42.78,2.36,64.14.55,9.5,1.89,18.88,2.22,28.41.38,10.88.28,21.76.26,32.65-.03,12.82-.15,25.64-.27,38.46,0,.52,0,1.05-.01,1.57l1.2-.48h-12.33c-.26,0-1.19.11-1.2.48-.38,14.11-.75,28.21-1.13,42.32-.45,17.03-.91,34.05-1.36,51.08-.7,26.17-2.72,52.35-5.14,78.41-.55,5.92-.34,11.98-.46,17.92-.22,10.57-.43,21.14-.65,31.72-.28,13.95-.33,27.88-.31,41.84v2.69c.29-.15.58-.3.87-.45-17.69,3.69-35.49,7.13-53.48,9.04-11.65,1.24-23.24,1.41-34.93.98-10.26-.38-20.84-.64-30.91-2.82-1.62-.35-3.56-.69-4.98-1.58s-1.21-3.56-1.35-5.19c-.48-5.42-.66-10.86-.79-16.29-.68-28.38,1.02-56.68,1.77-85.04.34-12.65.58-25.28.52-37.93-.08-17.47-.17-34.93-.25-52.4-.03-6.58-.06-13.17-.1-19.75,0-.98.11-2.05-.01-3.03-.27-2.1-1.24-4.29-1.76-6.35s-.99-4.13-1.39-6.21c-.68-3.5-1.18-7.03-1.49-10.58-1.01-11.44.56-23.11-1.18-34.48-.56-3.68-1.75-7.37-2.66-10.98-.91-3.57-1.84-7.14-2.79-10.71-1.6-6.01-3.25-12-4.66-18.06-4.74-20.32-5.08-41.12-3.54-61.83,1.65-22.19,3.78-44.5,7.7-66.42.75-4.21,1.58-8.42,2.7-12.55,1.26-4.65,2.83-10.18,6.23-13.7,3.79-3.93,7.55-7.44,12.01-10.59,5.5-3.89,11.02-7.38,17.18-10.11s12.88-5.08,19.22-7.87l-1.1.16c1.28.53,2.56,1.07,3.84,1.6.39.16,1.49-.44,1.37-.49h0Z"/>
    <path class="cls-12" d="M97.42,193.39c7.63,5.33,6.96,16.75,6.23,24.9-1.19,13.31-4.16,26.4-5.97,39.63-.48,3.48-.79,6.98-1.34,10.46-.5,3.13-.99,6.25-1.49,9.38-.99,6.24-2.13,12.47-2.97,18.72-.25,1.82.27,3.88.45,5.69.55,5.42,1.1,10.84,1.65,16.25,1.54,15.2,3.08,30.39,4.62,45.59.64,6.36,1.29,12.72,1.93,19.09.22,2.16.44,4.33.66,6.49.12,1.15.13,2.38.36,3.52.03.14.03.29.04.44l.78-.74c-10.81,1.68-21.73,2.93-32.64,3.68l.67.36c-.97-4.3-1.94-8.59-2.9-12.89-.16-.7-1.61-.32-1.45.39.97,4.3,1.94,8.59,2.9,12.89.06.28.42.37.67.36,10.92-.75,21.83-2,32.64-3.68.4-.06.83-.28.78-.74-.83-8.19-1.66-16.38-2.49-24.57-1.55-15.33-3.11-30.67-4.66-46-.61-6.02-1.22-12.03-1.83-18.05-.19-1.84-.37-3.68-.56-5.51-.08-.75-.24-1.55-.23-2.31,0-.11,0,.23.02.02.03-.27.08-.53.13-.8l.52-3.25c.56-3.55,1.13-7.1,1.69-10.64.86-5.39,1.97-10.81,2.55-16.23,1.49-13.87,4.4-27.52,6.23-41.34.72-5.45,1.31-10.99.99-16.5-.24-4.02-.96-8.2-3.18-11.64-.97-1.5-2.23-2.79-3.69-3.81-.55-.38-1.8.38-1.11.86h0Z"/>
    <path class="cls-12" d="M206.49,209.39c-.62,4.85-.73,9.78-.81,14.67-.12,6.95-.05,13.9.07,20.85.26,15.47.81,30.93,1.25,46.4.27,9.39.59,18.8.34,28.2-.27,10.18-.52,20.36-.75,30.55-.26,11.8-.6,23.6-.58,35.4,0,.74,0,1.48.02,2.23,0,.36,1.46.11,1.45-.39-.17-10.82.22-21.67.45-32.48.24-11.26.52-22.53.81-33.79.21-8.21.08-16.4-.14-24.61-.4-15.28-.96-30.56-1.29-45.84-.28-12.8-.76-25.77.32-38.55.08-.95.18-1.9.3-2.84.06-.48-1.39-.21-1.44.21h0Z"/>
    <g>
      <path class="cls-10" d="M118.08,160.99c.13-2.86.43-5.71.88-8.54,25.32,15.37,36.83,9.42,46.53,6.08.15,2.4.67,1.91.82,4.31.02.31.3,2.52.23,2.82-.13.49-.66.48-1.05.82-1.57,1.36-1.74,1.05-3.68,1.8-6.93,2.68-17.58,3.09-24.84,1.48-7.26-1.61-13.82-3.42-18.98-8.77"/>
      <path class="cls-12" d="M118.8,160.8c.14-2.84.43-5.66.87-8.47l-1.4.37c7.52,4.54,15.75,8.59,24.55,9.77,5.36.72,10.7.18,15.86-1.37,2.38-.71,4.7-1.6,7.05-2.41l-.97.03c.12,1.5.67,2.86.82,4.35.05.54.12,1.09.17,1.63.08.85.1,1.04-.58,1.57-.61.48-1.2.99-1.94,1.26s-1.55.53-2.32.8c-1.91.68-3.91,1.12-5.91,1.44-8.27,1.32-16.55.38-24.5-2.13-4.45-1.41-8.54-3.56-11.83-6.92-.26-.26-1.59.27-1.37.49,3.15,3.21,7.04,5.33,11.28,6.75,4.1,1.37,8.42,2.4,12.73,2.8,4.52.42,9.13.25,13.61-.49,2.03-.33,4.04-.8,5.99-1.45,1.42-.47,3.07-.86,4.32-1.71.47-.32.93-.66,1.39-.98.26-.18.49-.31.61-.63.2-.55-.06-1.44-.12-2-.09-.8-.11-1.63-.31-2.42-.24-.95-.53-1.78-.6-2.78-.02-.26-.9,0-.97.03-4.08,1.41-8.1,2.99-12.41,3.57-6.27.85-12.59-.34-18.49-2.48-5.15-1.86-10.02-4.43-14.69-7.25-.24-.15-1.34.03-1.4.37-.45,2.85-.75,5.72-.89,8.6-.01.21,1.43.04,1.45-.39h0Z"/>
    </g>
    <path class="cls-12" d="M151.92,161.67c.09,2.52.19,5.05.28,7.57.06,1.64-.14,3.53.29,5.12,1.86,6.81,3.85,13.55,5.28,20.47.94,4.58,1.77,9.22,2.04,13.89.2,3.44.19,6.91.28,10.35.23,8.41.49,16.83.75,25.24.17,5.36.34,10.72.52,16.09.01.38.34.49.67.49h8.4c.3,0,.78-.25.8-.59.45-13.25.77-26.52.53-39.77-.06-3.34-.14-6.7-.45-10.03-.39-4.2-1.15-8.38-1.9-12.53-1.39-7.74-2.98-15.44-4.68-23.12-.17-.77-.14-.51-.2-1.3-.1-1.59-.21-3.19-.31-4.78-.2-3.06-.4-6.13-.6-9.19-.05-.77-1.51-.55-1.47.1.17,2.57.33,5.15.5,7.72.15,2.35.12,4.8.47,7.13.32,2.15.94,4.29,1.39,6.41.93,4.4,1.83,8.8,2.67,13.22,1.5,7.86,2.81,15.67,3.04,23.69.24,8.52.12,17.06-.04,25.58-.11,5.66-.24,11.32-.43,16.98l.8-.59h-8.4l.67.49c-.43-12.85-.84-25.7-1.2-38.55-.22-7.81-.26-15.53-1.63-23.25-1.4-7.86-3.39-15.62-5.68-23.26-.12-.41-.23-.82-.37-1.22-.03-.09-.16-.56-.11-.27-.18-1.1-.09-2.32-.13-3.44-.11-2.91-.22-5.83-.33-8.74-.03-.77-1.49-.56-1.47.1h0Z"/>
    <path class="cls-12" d="M164.22,190.66c0,.49-.13.99-.4,1.38-.07.1-.15.2-.23.29-.1.11-.09.1-.2.19-.19.15-.34.24-.53.31s-.35.1-.58.11c-.18,0-.41-.02-.61-.08-.45-.14-.85-.41-1.15-.79-.62-.79-.71-1.88-.22-2.76.1-.18.25-.36.41-.52.13-.12.34-.26.51-.33.05-.02.09-.04.14-.06-.14.05.09-.03.1-.03.05-.01.1-.03.15-.04.23-.06-.07,0,.07-.01.28-.03.43-.03.72.03.43.09.91.38,1.23.77.37.44.58.99.59,1.56,0,.36.35.5.67.48.28-.02.8-.23.8-.59-.02-1.41-.88-2.65-2.22-3.13-1.44-.51-3.15-.05-4.15,1.11-.92,1.08-1.07,2.63-.34,3.85.77,1.29,2.33,1.79,3.76,1.53,1.6-.3,2.92-1.71,2.95-3.36,0-.36-.36-.5-.67-.48-.29.02-.79.23-.8.59Z"/>
    <path class="cls-12" d="M160.46,164.5c0,.52-.14,1.03-.44,1.46-.11.15-.28.34-.39.42-.21.17-.36.25-.53.31-.19.07-.35.1-.58.1-.15,0-.41-.03-.61-.09-.46-.14-.86-.43-1.16-.81-.63-.79-.72-1.92-.23-2.8.11-.2.25-.36.41-.52.13-.12.37-.28.51-.35.3-.14.67-.21,1.08-.12,1.11.22,1.91,1.28,1.93,2.4,0,.35.35.45.66.42.25-.02.81-.22.81-.56-.02-1.41-.87-2.61-2.21-3.09-1.42-.5-3.17-.04-4.15,1.11-.92,1.07-1.08,2.59-.35,3.81.77,1.29,2.33,1.76,3.75,1.49,1.59-.3,2.93-1.67,2.96-3.33,0-.35-.36-.45-.66-.42-.26.02-.8.21-.81.56Z"/>
    <path class="cls-12" d="M165.82,220.07c-.13,0-.38-.05-.56-.11-.25-.08-.44-.19-.65-.35-.37-.28-.66-.68-.82-1.11-.33-.93-.07-2.04.62-2.63.22-.19.29-.21.54-.33.12-.06.37-.11.55-.12.39-.03.84.08,1.23.33.85.54,1.28,1.54,1.12,2.53-.08.5-.37,1.01-.68,1.29-.25.23-.37.3-.66.41.12-.05-.03,0-.06.02-.09.03-.17.05-.26.06.04,0,.11,0-.03,0-.11,0-.21.02-.32.02-.31,0-.76.24-.8.58-.04.37.39.47.67.47,1.44-.02,2.9-.9,3.42-2.28s.11-2.83-1-3.74-2.88-.97-4.14-.24-2.02,2.12-1.75,3.58c.14.75.57,1.42,1.15,1.91.66.55,1.48.76,2.32.77.31,0,.76-.24.8-.58.04-.38-.39-.46-.67-.47Z"/>
    <path class="cls-12" d="M166.77,246.01c-2.19-.03-3.2-3.01-1.66-4.49.09-.08.19-.17.29-.23,0,0,.23-.13.16-.09.22-.11.31-.13.48-.14.4-.04.9.1,1.29.33.89.53,1.4,1.61,1.26,2.64-.08.56-.32,1.1-.73,1.5-.09.09-.19.17-.3.24-.07.05-.18.11-.22.12.02,0-.21.08-.12.05.04-.02-.16.04-.2.05.04,0,.11,0-.03,0-.09,0-.09.01-.21.01-.31,0-.77.11-.96.38s.16.37.38.37c1.48-.02,3-.77,3.62-2.17.54-1.22.18-2.71-.86-3.55-2.29-1.86-6.49,0-6.02,3.12.24,1.6,1.71,2.58,3.26,2.61.31,0,.78-.11.96-.38s-.16-.37-.38-.37Z"/>
    <path class="cls-12" d="M205.95,264.95c-4.92,1.44-10.12,1.49-15.16.66-1.54-.25-3.06-.58-4.56-1-.32-.09-1.61-.41-1.65-.49-.07-.12.06-1.57.06-1.91v-44.48l-1.32.47c3.41.52,6.83,1.04,10.24,1.56,4.61.7,10.17.75,14.24-1.87.59-.38-.85-.2-1.11-.03-3.84,2.48-8.99,1.8-13.29,1.15-2.96-.45-5.93-.9-8.89-1.35-.27-.04-1.32.07-1.32.47v46.43c.03.05.07.08.13.08,7.1,2.57,15.53,2.86,22.75.75.83-.24.73-.68-.12-.43h0Z"/>
    <path class="cls-12" d="M183.33,225.91c1.65.76,3.63,1.03,5.41,1.25,5.79.72,11.7.28,17.46-.53.69-.1,1.2-.94.2-.8-5.59.79-11.35,1.24-16.97.52-1.63-.21-3.44-.44-4.95-1.14-.42-.2-1.75.42-1.15.7h0Z"/>
    <path class="cls-8" d="M103.7,120.05c-.6-1.88-1.09-4.51-.03-6.35l-.61.33c-.2.02-.09-.04-.01.01-.14-.09.12.04.23.08.31.11.89.52,1.24.82,2.24,1.95,3.8,4.75,5.2,7.33l1.12-.39c-.62-.49-1.41-.89-2.22-.75-1.06.19-1.47,1.15-1.5,2.13-.08,2.46,1.87,3.89,4.14,4.16.49.06,1.21-.63.43-.72-1.7-.2-3.12-1.23-3.38-2.99-.07-.51-.08-1.25.2-1.71.12-.2.06-.16.28-.15.17,0,.36.13.51.21.12.06.23.14.34.21.04.02.24.18.12.09.23.19,1.35.04,1.12-.39-1.06-1.97-2.2-3.93-3.6-5.69-.71-.89-1.5-1.76-2.45-2.4-.4-.27-.87-.52-1.36-.56-.63-.05-.91.32-1.11.85-.74,1.98-.44,4.23.19,6.19.14.45,1.3.13,1.16-.31h0Z"/>
    <path class="cls-10" d="M154.16,110.38s-7.83,3.85-14.34,1.37c-2.34-.89-3.51-2.19-2.71-4.26,1.58-4.11,7.37-4.53,10.73-3.7,3.64.91,6.4,2.73,6.33,6.58Z"/>
    <g>
      <path class="cls-4" d="M151.04,106.6c.87,2.53-.88,4.29-3.92,4.98-3.04.69-6.23.05-7.1-2.48-.87-2.53.21-4.88,3.26-5.57,3.04-.69,6.9.55,7.77,3.07Z"/>
      <path class="cls-9" d="M148.35,106.96c.48,1.4-.49,2.85-2.18,3.23-1.69.38-3.45-.44-3.93-1.85-.48-1.4.49-2.85,2.18-3.23,1.69-.38,3.45.44,3.93,1.84Z"/>
    </g>
    <path class="cls-2" d="M153.89,108.06s-4.06-4.24-10.97-3.22c-6.91,1.02-6,4.4-6,4.4,0,0-1.44-4.01,3.48-5.81,3.53-1.29,10.67-2.02,13.5,4.63Z"/>
    <ellipse class="cls-10" cx="144" cy="106.62" rx=".67" ry=".63" transform="translate(-3.99 5.6) rotate(-2.2)"/>
    <path class="cls-10" d="M187.54,109.95s-5.99,4.35-12.51,1.87c-2.34-.89-3.51-2.19-2.71-4.26,1.58-4.11,7.37-4.53,10.73-3.7,3.64.91,4.57,2.22,4.49,6.08Z"/>
    <g>
      <path class="cls-4" d="M184.76,106.6c.87,2.53-.88,4.29-3.92,4.98-3.04.69-6.23.05-7.1-2.48-.87-2.53.21-4.88,3.26-5.57,3.04-.69,6.9.55,7.77,3.07Z"/>
      <path class="cls-9" d="M182.07,106.96c.48,1.4-.49,2.85-2.18,3.23-1.69.38-3.45-.44-3.93-1.85-.48-1.4.49-2.85,2.18-3.23,1.69-.38,3.45.44,3.93,1.84Z"/>
    </g>
    <path class="cls-2" d="M187.54,108.11s-2.51-4.22-9.41-3.19c-6.91,1.02-6,4.4-6,4.4,0,0-1.44-4.01,3.48-5.81,3.53-1.29,12.17-1.78,11.94,4.6Z"/>
    <ellipse class="cls-10" cx="177.72" cy="106.62" rx=".67" ry=".63" transform="translate(-3.96 6.9) rotate(-2.2)"/>
    <path class="cls-8" d="M170.78,105.17c-.37,5.74,1.59,11.27,3.97,16.4.21.45.61,1.02.67,1.52.13,1.08-1.13,1.85-1.99,2.11-2.19.67-5.38.98-7.49-.08-.31-.16-1.26.32-1.09.4,1.87.94,4.34.8,6.35.55,1.56-.19,3.58-.55,4.7-1.75s.53-1.94-.03-3.15c-.96-2.06-1.84-4.15-2.53-6.32-1.02-3.23-1.63-6.6-1.41-10,.01-.19-1.14-.05-1.16.31h0Z"/>
  </g>
</svg>