<?xml version="1.0" encoding="UTF-8"?>
<svg xmlns="http://www.w3.org/2000/svg" xmlns:xlink="http://www.w3.org/1999/xlink" viewBox="0 0 278.14 278.14">
  <defs>
    <style>
      .cls-1 {
        fill: none;
      }

      .cls-2 {
        fill: #070707;
      }

      .cls-3 {
        fill: #9d6446;
      }

      .cls-4 {
        fill: #010101;
      }

      .cls-5 {
        fill: #030303;
      }

      .cls-6 {
        fill: #e8b48f;
      }

      .cls-7 {
        fill: #231f20;
      }

      .cls-8 {
        fill: #6e472d;
      }

      .cls-9 {
        fill: #f2eef7;
      }

      .cls-10 {
        fill: #804841;
      }

      .cls-11 {
        fill: #e7ab65;
      }

      .cls-12 {
        clip-path: url(#clippath-1);
      }

      .cls-13 {
        fill: #050505;
      }

      .cls-14 {
        fill: #8a5534;
      }

      .cls-15 {
        fill: #fff;
      }

      .cls-16 {
        fill: #858280;
      }

      .cls-17 {
        fill: #dbf1f9;
        stroke: #fff;
        stroke-miterlimit: 10;
        stroke-width: .5px;
      }

      .cls-18 {
        fill: #cf9c7c;
      }

      .cls-19 {
        clip-path: url(#clippath);
      }

      .cls-20 {
        fill: #14162c;
      }
    </style>
    <clipPath id="clippath">
      <circle class="cls-1" cx="139.23" cy="-291.34" r="136.76"/>
    </clipPath>
    <clipPath id="clippath-1">
      <circle class="cls-1" cx="138.98" cy="139.07" r="136.76"/>
    </clipPath>
  </defs>
  <g id="Layer_2" data-name="Layer 2">
    <g class="cls-19">
      <path class="cls-6" d="M221.21,17.82l4.32,26.27-4.94,12.17-6.96,11.2-18.76,14.1s-3.08-.77.09-5.65c3.09-4.26,6.53-8.34,10.3-12.2l2.48-13.32-3.07-6.05-3.85.49s.31,16.87-2.43,20.14c-.48.57-.88,1.04-1.22,1.43-.96,1.09-2.64,1.12-3.64.07l-1.48-1.55.41-25.05s2.05-10.94,2.91-13.51c1.15-2.52,3.09-6.16,4.68-8.51l.5-3.45h19.93l.74,3.42Z"/>
      <path class="cls-6" d="M169.81-268.65c2.78,1.13,47.03,22.4,52.64,44.5,5.62,22.09-.18,103.26,2.41,122.68,3.33,22.63.39,54.04.7,59.65l-5.81,59.75-13.23-.5s-2.27-139.08-12.32-170c-10.05-30.92-24.39-116.08-24.39-116.08Z"/>
      <path class="cls-15" d="M214.47-2.78c-.04-.58.19-27.12,0-28.02-.68-21.05,2.44-57.41,1.52-89.7,0,0,2.1-80.58,2.1-80.58-1.25-7.16-2.5-14.33-3.75-21.49-1.15-6.6-.11-21.26-5.51-25.31-12.71-9.54-30.99-19.98-44.82-27.41,0,0,5.56,14.71-11.62,17.81-14.31,2.58-20.82,1.66-34.29-9.27,0,0-9.4-4.75-10.83-11.33-10.89,5.11-39.75,18.01-47.24,27.86-8.83,11.54,18.28,46.06,30.97,63.9l-16.61,3.17s-19.72,76.4-22.36,99.47c-2.64,23.07-1.69,53.53.08,68.3C53.88-.62,138.48,7.43,168.38,4.04c29.9-3.39,46.09-6.82,46.09-6.82Z"/>
      <path class="cls-6" d="M81.56-174.78l-8.49-52.6s-25.5-18.68-33.64,3.71c-7.08,23.95-7.21,126.63-6.31,142.07,2.01,34.53,22.62,90.84,24.74,109.18l25.46,2.26-9.6-109.93,7.84-94.69Z"/>
      <path class="cls-6" d="M57.53,25.77l-1.24,27.47,7.46,11.91,9.65,10.68,23.7,12.26s3.45-1.16-.91-5.79c-4.18-4.01-8.74-7.79-13.65-11.3l-4.77-13.38,2.68-6.57,4.52.05s.56,17.33,4.2,20.37c3.64,3.04,5.56,3.08,5.56,3.08l3.26-3.87-4.05-25.66s-3.94-10.99-5.29-13.52c-1.69-2.45-4.45-5.95-6.63-8.18"/>
      <path class="cls-16" d="M80.16-1.07c20.88,4.3,42.41,6.28,63.71,6.76,8.64.19,17.29.08,25.88-.92,10.58-1.22,21.13-2.63,31.64-4.35,4.24-.69,8.48-1.39,12.68-2.28.32-.07.62-.32.6-.66.01.21,0-.33,0-.42,0-.39,0-.77,0-1.16,0-1.27.01-2.53.02-3.8.02-3.48.04-6.95.05-10.43.02-5.21-.08-10.41-.14-15.61-.23-20.14,1.12-40.3,1.7-60.42.36-12.28.61-24.58.26-36.87-.02-.72-1.48-.48-1.46.13.62,22.26-.5,44.56-1.3,66.8-.34,9.39-.69,18.79-.68,28.18,0,5.25.17,10.38.16,15.67-.01,4.01-.03,8.03-.05,12.04-.01,2.08-.13,4.19-.01,6.27l.6-.66c-12.91,2.73-26.11,4.4-39.2,6-8.92,1.08-17.74,1.64-26.73,1.54-10.5-.12-21.01-.74-31.46-1.72-11.87-1.1-23.74-2.63-35.42-5.04-.58-.12-1.71.75-.85.93h0Z"/>
    </g>
  </g>
  <g id="Layer_7" data-name="Layer 7">
    <g class="cls-12">
      <circle class="cls-17" cx="139.07" cy="139.07" r="136.76"/>
      <circle class="cls-1" cx="139.43" cy="138.93" r="136.76"/>
      <circle class="cls-1" cx="138.89" cy="139.58" r="136.76"/>
      <path class="cls-15" d="M197.13,57.12s2.26,46.44,5.66,63.49c3.4,17.05-.07,40.81,1.84,52.11,1.9,11.3,7.73,29.6,9.99,32.15,2.26,2.55-22.77,2.4-34.85-9.26-12.08-11.66-22.64-54.3-22.64-54.3V49.46l40,7.65Z"/>
      <path class="cls-16" d="M196.09,57.25c.44,8.95,1.01,17.9,1.66,26.83.53,7.19,1.12,14.39,1.89,21.56.34,3.19.72,6.39,1.17,9.57.43,3,1.07,5.96,1.51,8.95,1.39,9.46,1.15,19.11,1,28.64-.07,4.3-.16,8.6-.03,12.9.11,3.55.6,6.99,1.14,10.5,1.22,8.02,1.93,16.2,3.8,24.1.27,1.14.56,2.3,1.05,3.37.16.34.33.65.56.94.14.18.08.1.1.08-.1.12-.98.32-1.43.38-1.1.16-2.22.17-3.32.13-7.17-.21-14.62-2.44-20.64-6.35-5.47-3.56-8.9-8.69-11.84-14.41-5.96-11.62-9.95-24.33-13.47-36.87-.48-1.69-.94-3.39-1.38-5.09-.1-.38-.21-.76-.29-1.14-.06-.31,0,.14-.02-.08-.14-1.77,0-3.61,0-5.39V49.5l-.98.6c11.68,2.23,23.35,4.47,35.03,6.7,1.66.32,3.32.63,4.97.95.75.14,1.45-.93.49-1.11-11.68-2.23-23.35-4.47-35.03-6.7-1.66-.32-3.32-.63-4.97-.95-.34-.06-.98.17-.98.6v90.69c0,1.25.25,2.23.57,3.46,3.09,11.68,6.72,23.31,11.5,34.41,2.46,5.72,5.2,11.67,9.3,16.42,4.84,5.63,12.07,8.94,19.18,10.61,3.01.71,6.1,1.14,9.2,1.15,1.5,0,3.87.1,5.11-.95.44-.37.58-.79.33-1.31-.37-.76-.8-1.4-1.06-2.24-1.02-3.26-1.5-6.72-2.02-10.08-.69-4.44-1.27-8.89-1.92-13.33-.54-3.71-1.24-7.38-1.43-11.13-.46-9.08.16-18.2.04-27.29-.06-4.73-.26-9.47-.83-14.18-.4-3.35-1.13-6.64-1.63-9.97-1.01-6.7-1.66-13.46-2.25-20.21-1.06-12.1-1.85-24.23-2.49-36.36-.04-.71-.08-1.43-.11-2.14-.04-.79-1.51-.6-1.47.09Z"/>
      <path class="cls-18" d="M110.83,130.55s2.51,9.31,2.13,21.07c-.54,16.97-13.98,26.7-13.98,26.7l66.52,28.3,21.1-26s-15.08-6.55-15.75-9.84c-.67-3.3,2.78-28.77,2.78-28.77"/>
      <path class="cls-15" d="M242.81,352.7c-2.85-21.39-7.89-104.12-12.31-128.83-5.69-31.81-32.88-39.13-42.26-43.34l-16.5-6.72s6.63,6.68-12.36,9.47c-19.61,2.88-16.83,5.55-31.66-5.76,0,0-12.96,2.02-14.53-4.79h-2.83c-5.7,1.53-10.7,4.47-26.52,9.85-5.55,2.3-16.8,6.71-23.64,11.77-1.56,1.11-5.16,2.89-6.3,3.96-5.2,4.5-13.12,10.82-15.91,17.3-9.32,25.88-19.96,129.33-19.96,146.36,0,51.52,8.48,58.23,21.07,110.95l-.18,7.15c-.08,25.27-.1,43.71,7.02,68.48l6.38,122.41s-3.14,41.44-2.71,86.64c.23,24.71-1.4,66.79,1.44,86,4.76,8.24,60.19,6.84,67.98,7.04,31.12.82,75.74-5.56,106.48-10.03l-.35-43.2-.63-78.74c-.64-38.39.17-103.12.18-112.54l4.12-123.12,9.7.48,7.09-.48-.24-52.72c-.34-6.18,1.1-52.7-2.57-77.62Z"/>
      <path class="cls-16" d="M243.99,352.5c-1.73-13.16-2.49-26.48-3.52-39.71-1.38-17.73-2.72-35.46-4.45-53.15-1.41-14.42-2.28-29.72-7.05-43.52-5.03-14.54-15.07-25.55-29.13-31.7-9.58-4.19-19.6-7.48-29.43-11.05-.25-.09-1.6.3-1.27.56,2.58,1.99,2.68,4.89-.3,6.61-4.53,2.62-10.76,2.66-15.81,3.57-2.95.53-5.99,1.33-9,1.35-2.64.02-4.92-.98-7.13-2.36-1.56-.97-3.05-2.07-4.53-3.17-1.13-.84-2.56-2.45-3.91-2.74-1.59-.34-3.92.34-5.59.23-3.45-.21-7.43-1.16-8.52-4.9-.03-.09-.19-.13-.26-.13-1.77-.03-3.86-.41-5.59-.03-3.7.81-7.57,3.05-11.1,4.42-8.99,3.5-17.99,7.11-26.63,11.43-7.13,3.57-15.28,7.41-21.13,12.92-5.45,5.14-10.63,10.07-13.4,17.14-4.6,11.75-6.77,24.12-8.73,36.56-2.5,15.9-4.37,31.9-6,47.91-2.85,27.99-5.4,55.97-2.99,84.1,1.4,16.31,5.14,32.06,9.38,47.83,4.27,15.89,9.63,31.77,10.34,48.3.46,10.72.28,21.38,1.39,32.08.55,5.35,1.3,10.68,2.19,15.98.99,5.89,2.67,11.79,3.39,17.7.64,5.21.61,10.59.91,15.83,1.41,24.65,2.83,49.31,4.24,73.96.43,7.47.93,14.95,1.29,22.42.35,7.27-.13,14.65-.27,21.92-.81,39.92-3.35,79.8-3.04,119.74.07,8.65.23,17.31.67,25.96.18,3.5.41,7.01.75,10.5.23,2.33-.14,4.56,2.08,5.72,4.84,2.53,10.98,3.1,16.31,3.79,7.53.96,15.11,1.48,22.69,1.86,15.96.8,31.98,1.05,47.95.59,12.24-.35,24.46-1.15,36.64-2.46s24.82-3.71,37.24-5.79c4.22-.71,8.48-1.22,12.71-1.83.22-.03.85-.18.85-.5-.15-18.66-.3-37.33-.45-55.99-.19-23.35-.37-46.71-.56-70.06-.14-18.05-.72-36.08-.55-54.15.17-17.7.94-35.39,1.2-53.09.27-18.67,1.09-37.34,1.65-56,.42-14.08.84-28.15,1.26-42.23.16-5.2.31-10.41.47-15.61.09-2.96.64-6.31.28-9.26-.05-.39.02-.82.04-1.22l-1.31.49c5.92,1.16,11.36.9,17.26,0,.22-.03.85-.18.85-.5.11-29.06.5-58.15.14-87.21-.17-14.37-.45-28.89-2.5-43.13-.05-.34-1.51-.03-1.45.39,3.38,23.44,2.6,47.49,2.51,71.11-.05,13.08-.03,26.16-.08,39.23-.03,6.66-.05,13.33-.08,19.99l.85-.5c-5.56.84-10.76,1.1-16.33,0-.32-.06-1.3.04-1.31.49-.57,19.17-1.14,38.34-1.72,57.5-.65,21.64-1.42,43.28-1.94,64.92-.3,12.39-.7,24.78-.96,37.17-.48,23.2-.14,46.34.25,69.54.35,20.55.33,41.12.49,61.68.11,13.88.22,27.75.33,41.63l.12,15.1c.02,2.84-.38,6.07.07,8.88.06.37,0,.79,0,1.16l.85-.5c-20.15,2.9-40.04,6.92-60.37,8.61-21.57,1.79-43.21,1.95-64.82,1.21-7.92-.27-15.83-.67-23.72-1.39-7.21-.66-15-1.19-21.84-3.77-.82-.31-2.32-.71-2.9-1.44-.87-1.09-.67-3.83-.8-5.17-.37-3.78-.6-7.57-.78-11.37-.47-9.68-.6-19.38-.64-29.07-.14-42.43,2.62-84.8,3.28-127.21.26-16.48-1.24-32.94-2.19-49.39-1.36-23.65-2.71-47.29-4.07-70.94-.34-5.9-2.12-11.71-3.13-17.53-1.99-11.39-3.25-22.86-3.7-34.41-.34-8.66-.37-17.22-1.07-25.86-.36-4.47-1.81-8.85-2.9-13.19-1.46-5.8-2.99-11.59-4.54-17.37-4.72-17.61-9.51-35.1-11.26-53.31-1.48-15.45-1.62-30.98-.62-46.46,2.15-33.3,5.3-66.93,11.45-99.75,1.14-6.08,2.37-12.19,4.24-18.09,1.16-3.67,2.56-7.53,4.39-10.92,2.06-3.79,5.6-6.68,8.6-9.74,6.93-7.07,16.07-11.76,24.91-16.06,10.08-4.9,20.57-8.83,30.98-12.96,1.34-.53,3.23-1.59,4.35-1.81.82-.16,3.59-.32,4.31.08.52.29,1.2,2.19,2,2.84,1.19.99,2.75,1.49,4.23,1.8,2.74.59,5.32.03,8.03.25,1.4.11,1.57.7,2.88,1.68,1.67,1.26,3.34,2.52,5.1,3.65,4.91,3.17,9.12,3.01,14.71,2,4.84-.87,9.81-1.42,14.59-2.57,2.47-.6,5.75-1.42,7.47-3.48s.56-4.39-1.29-5.81l-1.27.56c8.53,3.1,17.07,6.18,25.53,9.46,13.82,5.35,24.73,14.34,30.82,28.14s6.98,28.88,8.47,43.35c1.8,17.47,3.15,34.99,4.51,52.5,1.18,15.14,1.98,30.4,3.96,45.47.04.34,1.5.04,1.45-.39Z"/>
      <path class="cls-16" d="M228.49,236.1c-.89,6.89-1.01,13.9-1.12,20.84-.15,9.69-.04,19.39.14,29.08.2,11.01.5,22.02.82,33.03.31,10.53.65,21.06.94,31.6.24,8.53.47,17.06.5,25.6.01,3.69-.07,7.39-.15,11.08-.13,5.96-.26,11.92-.38,17.89-.19,8.94-.36,17.88-.53,26.82s-.33,18.54-.46,27.81c-.09,6.8-.19,13.6-.17,20.4,0,.99,0,1.99.02,2.98,0,.46,1.46.18,1.45-.39-.09-5.87,0-11.74.08-17.61.11-8.91.26-17.82.41-26.73s.34-18.49.53-27.74c.14-6.9.29-13.81.44-20.71.07-3.17.17-6.35.2-9.52.08-7.65-.11-15.31-.3-22.96-.25-10.16-.57-20.32-.88-30.48-.33-11.01-.66-22.01-.91-33.02-.23-10.27-.4-20.54-.36-30.81.03-7.76.11-15.54.75-23.28.11-1.35.25-2.7.42-4.05.07-.58-1.39-.32-1.45.18h0Z"/>
      <g>
        <path class="cls-15" d="M108.52,173.7c.18-3.89.58-7.78,1.2-11.62,34.47,20.93,51,11.48,64.21,6.93.21,3.26.05,3.95.26,7.21.03.42.41,3.43.31,3.84-.18.67-.9.66-1.42,1.11-2.14,1.86-2.37,1.43-5.01,2.45-9.44,3.64-23.94,4.21-33.82,2.02-9.88-2.19-18.81-4.65-25.84-11.94"/>
        <path class="cls-16" d="M109.26,173.65c.19-3.9.59-7.77,1.2-11.62l-1.29.48c10.15,6.14,21.3,11.44,33.21,12.82,7.53.88,15-.1,22.19-2.42,3.2-1.03,6.32-2.29,9.5-3.39l-.87-.47c.15,2.48.06,4.97.28,7.44.06.75.17,1.49.24,2.24.03.31.17.84.07,1.16-.15.48-.79.63-1.19.92-.83.62-1.48,1.21-2.48,1.55-1.11.37-2.2.76-3.31,1.14-2.56.89-5.22,1.51-7.89,1.95-11.25,1.86-22.49.7-33.34-2.64-6.17-1.9-11.94-4.79-16.49-9.45-.47-.49-1.84.12-1.32.65,4.18,4.28,9.33,7.2,14.96,9.14s11.23,3.31,16.94,3.92c6.09.65,12.31.51,18.36-.4,2.78-.42,5.55-1,8.23-1.86,1.19-.38,2.35-.86,3.55-1.24.86-.27,1.69-.54,2.45-1.04.69-.45,1.3-.97,2-1.4.41-.25.8-.51.95-.99.24-.77-.03-1.83-.12-2.6-.3-2.86-.24-5.72-.41-8.59-.03-.43-.49-.6-.87-.47-5.8,2-11.45,4.37-17.53,5.42-8.73,1.5-17.58.26-25.91-2.58-7.05-2.41-13.71-5.83-20.08-9.68-.43-.26-1.2-.08-1.29.48-.61,3.85-1.01,7.73-1.2,11.62-.04.77,1.44.58,1.47-.1h0Z"/>
      </g>
      <path class="cls-16" d="M154.83,174.7v10.37c0,.93-.14,1.98.01,2.9.12.75.47,1.52.68,2.25,3.01,10.08,5.64,20.3,7.54,30.65,1.06,5.77,1.87,11.59,2,17.45.1,4.51.22,9.01.34,13.52.31,11.12.65,22.23,1,33.35.14,4.46.28,8.92.43,13.37.05,1.48.1,2.97.15,4.45.03.78-.05,1.65.08,2.42.02.1,0,.22.01.32,0,.17.33.19.44.19h11.43c.22,0,1-.14,1.01-.48.21-6.06.36-12.12.49-18.18.25-11.54.43-23.08.26-34.62-.07-4.63-.16-9.28-.53-13.9-.42-5.26-1.33-10.49-2.24-15.68-1.93-11.01-4.18-21.96-6.57-32.87-.14-.64-.37-1.32-.43-1.98-.12-1.19,0-2.47.01-3.67l.04-13.24v-.94c0-.4-1.44-.14-1.45.39-.01,3.55-.02,7.1-.03,10.65l-.02,6.08c0,.56-.02,1.05.1,1.59,2.08,9.74,4.17,19.47,5.98,29.26,1.11,5.98,2.18,11.97,2.89,18.01.49,4.16.62,8.36.73,12.55.28,11.46.13,22.93-.09,34.38-.09,4.85-.21,9.71-.34,14.56-.04,1.61-.09,3.22-.14,4.83-.03.84-.19,1.8-.08,2.63.01.11,0,.23-.01.34l1.01-.48h-11.43l.44.19c-.19-5.59-.37-11.19-.54-16.78-.35-11.04-.7-22.08-1.01-33.12-.29-10.1-.11-20.26-1.65-30.27-1.72-11.19-4.51-22.23-7.67-33.09-.47-1.61-1.36-3.43-1.36-5.12v-12.66c0-.4-1.45-.14-1.45.39h0Z"/>
      <path class="cls-16" d="M170.96,210.77c-.02,1.33-.79,2.84-2.12,3.28-1.26.42-2.74-.39-3.47-1.4-.87-1.19-.96-2.82-.24-4.1.33-.59.85-1.12,1.47-1.39.52-.23,1.13-.19,1.67-.04,1.63.46,2.68,1.99,2.7,3.64,0,.28,1.45.06,1.45-.39-.02-1.77-1.22-3.33-2.92-3.83-1.81-.53-4.07.1-5.31,1.54-1.15,1.35-1.34,3.35-.34,4.84,1.06,1.58,2.97,2.11,4.77,1.71,2.08-.46,3.76-2.05,3.79-4.26,0-.27-1.44-.06-1.45.39Z"/>
      <path class="cls-16" d="M165.6,177.66c-.02,1.34-.74,2.74-2.07,3.2s-2.67-.15-3.48-1.17c-.88-1.12-1.03-2.72-.33-3.97.63-1.12,1.84-1.78,3.12-1.5,1.58.34,2.72,1.83,2.74,3.44,0,.67,1.46.4,1.46-.15-.03-1.84-1.14-3.41-2.89-4.03s-4.03-.04-5.28,1.41-1.41,3.38-.46,4.98,2.96,2.31,4.77,1.97c2.09-.4,3.83-2.14,3.86-4.33,0-.67-1.45-.4-1.46.15Z"/>
      <path class="cls-16" d="M173.03,250.96c-1.41-.02-2.67-.91-3.17-2.23s-.21-2.91.86-3.89c.97-.89,2.36-.93,3.47-.27,1.22.73,1.89,2.17,1.7,3.57s-1.33,2.79-2.86,2.81c-.33,0-.78.09-.95.42-.15.29.13.51.41.51,1.89-.03,3.79-1.01,4.54-2.82.71-1.7.26-3.69-1.17-4.86s-3.64-1.32-5.31-.42-2.65,2.66-2.36,4.53c.32,2.09,2.24,3.54,4.3,3.57.32,0,.79-.1.95-.42.15-.3-.13-.5-.41-.51Z"/>
      <path class="cls-16" d="M227.47,312.2c-6.64,1.96-13.67,2.09-20.49,1.05-3.05-.47-6.15-1.11-9.05-2.16l.29.35v-63.22l-1,.53,9.89,1.5c4.02.61,7.88,1.27,11.97,1.06,3.63-.19,7.54-.81,10.64-2.83.82-.54-.41-.85-.92-.52-2.82,1.84-6.44,2.31-9.74,2.46-2.09.09-4.18.02-6.25-.3l-11.32-1.72-3.72-.57c-.26-.04-1,.16-1,.53v63.22c0,.21.11.28.29.35,3.15,1.14,6.52,1.8,9.82,2.28,6.93,1,14.07.79,20.81-1.2.87-.26.66-1.08-.22-.82h0Z"/>
      <path class="cls-16" d="M196.81,258.93c1.38.64,2.95.95,4.43,1.24,4.56.87,9.25,1.01,13.88.87,4.27-.13,8.51-.57,12.74-1.16.59-.08,1.29-.68.27-.54-6.46.91-13.02,1.43-19.54,1.02-3.07-.19-6.19-.57-9.14-1.47-.43-.13-.86-.26-1.26-.45s-1.52.42-1.37.49h0Z"/>
      <rect class="cls-11" x="152.04" y="51.21" width="8.9" height="23.74" rx="1.89" ry="1.89" transform="translate(-6.47 19.36) rotate(-6.93)"/>
      <rect class="cls-11" x="129.52" y="79.54" width="8.9" height="23.74" rx="1.89" ry="1.89" transform="translate(53.31 -49.3) rotate(25.87)"/>
      <path class="cls-14" d="M108.82,132.35c0,.06.02.11.02.17-.03-.07-.04-.13-.02-.17Z"/>
      <path class="cls-18" d="M151.53,165.38l17.08.82,7.61-.45c3.37-.2,5.97-1.93,7.31-5.03,2.81-6.5,3.64-9.8,4.01-10.59,1.94-4.06,4.66-11.35,5.78-15.73,1.19-4.69,2.68-7.49,3.14-13.09.34-4.1.23-6.96-2.24-13.51-.63-1.66-.72-3.35-.38-5.18.72-3.86.85-8.34,1.7-13.51.07-.41.46-2.37.28-2.8,0,0,0-21.39-4.19-28.86-4.19-7.47-8.27-15.1-13.95-16.31-5.68-1.21-24.04,4.88-24.04,4.88l-23.05-2.31-19.06,10.46-8.88,24.07,2.59,27.39,3.59,26.7"/>
      <path class="cls-4" d="M108.43,73.03c-2.06-12.13,8.62-17.2,13.08-19.52,3.77-1.96,14.51-5.95,22.54-5.13,3.46.36,2.16,7.65,4.08,8.86.6.11,7.66,1.38,10.45,1.66,3.73.39,7.14.69,10.62-.26.45-.2,2.74-1.14,5.86-.82,3.58.37,4.71-8.46,12.34-.53l.34-.39c-9.76-11.7-21.82-10.95-36.38-12.45-1.54-.16-3.13-.26-4.71-.3-23.08-.62-22.33-.48-36.58,15.41-8.28,9.23-13.01,17.93-12.65,23.26l.08,1.2c.36,5.56-4.6,20.9-2.5,23.86,1.34,1.89,5.69,10.28,9.31,17.4l10.98-.27c-.33-2.06-2-19.71-2.2-21.82"/>
      <path class="cls-18" d="M109.33,132.72c-8.51,9.01-10.88-5.63-10.88-5.63-6.42-7.26-6.66-15.19-6.59-20.63.06-5.43,6.03-5.53,6.03-5.53,5.09.4,7.97,1.56,12.72,18.53"/>
      <path class="cls-4" d="M171.65,53.12c-8.24.24-30.11-4.46-41.32-4.65-4.64-.08-19.47,12.08-21.34,14.77-4.3,6.18,6.91,19.41-.11,38.81-2.32,6.41-6.49-4.43-9.6-.16-3.11,4.27-4.29,5.99-4.29,5.99-3.28-18.11-3.18-17.48.01-35.66,3.18-18.13,22.39-26.89,31.8-28.84,9.41-1.95,39.96-.35,48.35,3.1"/>
      <path class="cls-20" d="M105.61,118.01c-1.22-2.42-2.56-4.82-4.21-6.98-.87-1.13-1.83-2.25-3.02-3.07-.44-.3-.96-.62-1.5-.7-.47-.07-.62.33-.81.71-1.11,2.23-.94,4.9-.29,7.24.03.1.39,0,.36-.1-.52-1.89-.72-3.9-.22-5.81.18-.67.43-1.42.86-1.98l-.24.09c.38-.01,1.06.37,1.44.63,1.64,1.1,2.9,2.77,3.99,4.37,1.23,1.81,2.29,3.73,3.27,5.68.05.11.4-.02.36-.1h0Z"/>
      <path class="cls-20" d="M103.83,119.09c-3.3-.03-.85,4.89-1.27,6.6-.06.24-.13.5-.38.38-.29-.14-.48-.63-.6-.89-.5-1.05-.79-2.21-1.05-3.34-.33-1.45-.51-2.72-.39-4.19.14-1.74.55-4.12,2.31-4.95.22-.1-.11-.12-.22-.08-1.54.72-2.09,2.52-2.34,4.08-.18,1.13-.27,2.34-.08,3.47.24,1.43.55,2.86,1.03,4.22.19.55.49,1.6,1.09,1.88,1.16.53,1.01-1.54.94-2.07-.16-1.18-1.34-4.96.8-4.94.12,0,.39-.17.15-.17h0Z"/>
      <path class="cls-4" d="M159.32,85.64v-.07c-.03-.1-.05-.21-.08-.31-.03-.13-.13-.31-.15-.45-.01-.02-.02-.05-.04-.07-.04-.07-.07-.14-.12-.2-.03-.05-.07-.1-.1-.15-.01-.02-.03-.03-.04-.05-.03-.04-.07-.07-.11-.1-6.94-.84-13.81-1-20.65.49-3.46.75-6.29,2.07-7.39,5.28-.06.16-.59,1.76-.27,1.9.79.36,2.22-1,2.75-1.32,1.68-.99,3.44-1.48,5.44-1.77,4.19-.61,8.42.42,12.55,1.14,1.47.26,3.35.96,5.46,1.66,1.35.44,2.74-.57,2.72-1.99,0-.56-.01-1.07,0-1.42,0-.85.01-1.7.02-2.55Z"/>
      <path class="cls-4" d="M196.2,87.12c.01-.24.01-.48,0-.72-.04-.15-.08-.3-.12-.45-.08-.15-.16-.3-.25-.45-5.29-1.11-10.01-1.28-15.26-.96-1.7.1-3.04,1.48-3.07,3.18,0,.31,0,.62-.01.94-.01.99-.11,2.77-.11,3.76,1.94.62,5-1.72,7.11-2,3.58-.48,7.32-.95,10.96-.61.29-.89.56-1.78.75-2.7Z"/>
      <path class="cls-3" d="M169.33,135.04c-6.45-.01-16.9-.78-16.9-.78,0,0,.9,14.07,15.85,14.09,14.95.02,14.87-13.85,14.87-13.85,0,0-7.37.55-13.82.54Z"/>
      <path class="cls-2" d="M169.39,135.04c-3.07,0-15.43-.54-15.43-.54,0,0,4.41,8.91,15.5,8.93,12.03.02,11.54-8.71,11.54-8.71l-11.62.32Z"/>
      <path class="cls-9" d="M169.52,135.5c-3.07,0-12.4-.54-12.4-.54,0,0,3.35,3.36,12.55,3.37,9.2.01,12.13-3.24,12.13-3.24l-12.28.4Z"/>
      <path class="cls-3" d="M183.65,133.42c-.33-.08-.85-.19-.85-.19-2.54-.22-3.65-.38-5.49-.52-3.14-.25-5.14.99-6.5.99-1.37,0-3.36-1.24-6.5-1.01-1.84.14-6.39.8-8.93,1.01-1.52.13-3.31-.47-3.63-.39-.45.11.42,3.43,17.58,3.46,17.16.03,14.78-3.24,14.32-3.35Z"/>
      <path class="cls-4" d="M172.88,129.25v1.77c.11.44.43.77.81.83,2.63.42,11.57.8,11.52,3.15-.07,2.93,1.21,4.32,1.27,4.31l.87-4.71c.53-2.88-.78-4.11-1.64-4.49-2.62-1.15-3.25-1.58-4.69-1.96-1.79-.48-5.61-1.65-7.73-1.62-.56,0-.55,2.08-.4,2.72Z"/>
      <path class="cls-4" d="M169.6,129.39v1.79c-.11.43-.49.74-.94.77-3.13.19-15.34-.29-16.69,2.77-1.2,2.72-5.05,6.6-5.12,6.59l.52-7.05c.64-4.61,5.27-5.14,6.29-5.45,3.12-.93,3.62-.88,5.33-1.14,2.14-.32,7.51-1.34,10.05-1.12.67.06.73,2.21.56,2.84Z"/>
      <path class="cls-4" d="M92.08,111.9s-5.11-9.05-5.77-24.05c-.66-15-.48-35.21,16.56-43.86,4.99-2.53,9.62-3.23,9.62-3.23,0,0,10.91-12.39,43.22-7.57,22.68,3.39,31.92,12.19,34.69,29.36,0,0-6.61-8.71-8.47-7.79-1.87.92-3.35,5.51-10.9,6.5-7.55.98-19.67.33-24.77-2.63-5.1-2.95-14.28-5.83-19.43-4.91-12.52,2.24-13.52,11.82-14.34,17.44-.82,5.61-3.04,25.44-9.11,28.39-6.07,2.95-6.05,8.34-6.05,8.34l-.99.43c-1.73.76-3.21,2-4.25,3.57h0Z"/>
      <g>
        <path class="cls-15" d="M86.19,84.64s-2.84,51.13-11.45,62.1C9.75,229.54,18.03,293.78,18.03,293.78c0,0,53.67,6.56,53.67,43.52,0,32.85,15.53,41.09,27.28,49.8,21.38,15.84,17.67,69.27,17.67,69.27,0,0,27.36-127.97,4.12-218.9-14.75-57.7,2.94-124.43,2.73-132.72-.47-18.73-1.42-28.33-1.42-28.33,0,0,13.94,1.58,27.21-5.26,13.27-6.84,17.83-10.33,28.73-7.58,10.9,2.75,22.24,2.33,24.47,1.31,4.55-2.07-8.83-15.45-8.83-15.45,0,0,.35-15.48-4.86-20.7-5.21-5.21-14.45-8.09-29.62-7.2-15.17.88-25.46.47-40.15,4.58-14.69,4.11-36.25,26.03-38.14,33.41-1.9,7.38,5.31,25.13,5.31,25.13Z"/>
        <path class="cls-16" d="M85.45,84.7c-.65,11.64-1.82,23.31-3.6,34.83-1.16,7.51-2.41,15.3-5.26,22.38-1.64,4.07-4.54,7.23-7.15,10.71-4.23,5.63-8.28,11.4-12.14,17.29-12.6,19.22-23.17,39.87-30.45,61.69-4.69,14.04-8.08,28.61-9.37,43.37-.38,4.28-.58,8.58-.51,12.87.02,1.27.06,2.55.14,3.82.04.58-.06,1.5.17,2.05.03.07.02.17.03.24.03.21.3.31.47.34,8.5,1.05,17.06,3.63,24.88,7.05,13.64,5.96,26.33,16.39,28.09,32.07.64,5.67.27,11.35,1.17,17.02.76,4.81,2.05,9.55,4.12,13.97,3.11,6.65,7.9,12.08,13.61,16.62s11.41,7.67,15.36,13.59c4.64,6.94,7.03,15.25,8.6,23.37,2.42,12.5,2.63,25.09,2.35,37.76,0,.22-.02.44-.04.66-.05.78,1.34.51,1.47-.11,2.5-11.69,4.35-23.54,6.06-35.37,3.97-27.47,6.55-55.18,7.24-82.93.78-31.62-.69-63.73-7.72-94.66-1.96-8.62-4.1-17.12-5.3-25.89-1.26-9.21-1.88-18.49-2.01-27.78-.24-16.33,1-32.66,3.13-48.84,1.38-10.53,3.35-20.96,4.95-31.46.68-4.49.4-8.87.23-13.42-.22-5.85-.51-11.71-.97-17.55-.06-.73-.12-1.47-.19-2.2l-.97.72c9.03.99,18.95-1.02,27.04-4.99,5.57-2.73,10.96-6.38,17-8.05s11.26.31,17.08,1.28,11.7,1.51,17.39.72c2.22-.31,4.32-1.04,3.68-3.69-.78-3.24-3.54-6.22-5.64-8.68-1-1.17-2.03-2.3-3.09-3.42-.26-.27-.57-.52-.79-.82-.32-.43,0,.32-.1-.13-.24-1.09-.03-2.48-.08-3.6-.1-1.98-.28-3.96-.57-5.92-.59-4.01-1.57-8.56-4.57-11.5-7-6.87-18.33-7.56-27.55-7.25-13.61.45-27.51.76-40.76,4.19-9.72,2.52-18.01,8.74-25.35,15.4-3.63,3.3-7.1,6.81-10.19,10.62-1.94,2.39-4.17,5.12-5.08,8.12-1.11,3.66-.1,8.01.74,11.62.95,4.05,2.23,8.03,3.68,11.93.26.69.52,1.38.79,2.07s1.7.24,1.45-.39c-2.44-6.03-4.57-12.47-5.39-18.93-.44-3.47-.16-6.35,1.66-9.34,2.07-3.39,4.76-6.44,7.47-9.32,6.69-7.09,14.5-13.88,23.3-18.2,5.15-2.53,10.96-3.66,16.58-4.54,6.13-.96,12.32-1.29,18.51-1.57,11.24-.5,24.11-2.41,34.49,3.15,3.63,1.95,6.16,4.59,7.45,8.54s1.72,8.07,1.88,12.15c.06,1.52-.33,2.86.72,3.97,2.06,2.19,4.09,4.41,5.9,6.83.91,1.22,4.78,5.97,2.57,7.29-1.35.81-3.93.58-5.44.62-3.1.08-6.21-.1-9.3-.44-5.58-.63-11.08-2.75-16.72-2.56-4.46.15-8.59,1.91-12.52,3.87-6.07,3.03-11.81,6.54-18.43,8.29-4.9,1.3-10.04,1.9-15.11,1.75-.74-.02-1.48-.05-2.22-.14-.44-.05-1.02.22-.97.72.31,3.2.5,6.41.68,9.61.22,3.9.39,7.8.53,11.71.1,2.72.38,5.5.14,8.22-.76,8.66-2.83,17.28-4.12,25.87-4.91,32.65-6.96,66.58-.06,99.1,1.69,7.97,3.82,15.82,5.28,23.84s2.5,15.58,3.33,23.43c1.71,16.19,2.34,32.48,2.26,48.75-.15,28.74-2.48,57.46-6.3,85.93-1.29,9.65-2.76,19.27-4.43,28.86-.53,3.05-1.09,6.09-1.67,9.13-.29,1.51-.92,3.25-.95,4.79,0,.19-.08.41-.13.6l1.47-.11c.73-10.56.22-21.38-1.21-31.86-1.13-8.32-2.95-16.73-6.48-24.38-1.56-3.37-3.46-6.61-5.9-9.42-2.24-2.57-4.95-4.49-7.7-6.47-5.77-4.15-11.33-8.55-15.37-14.49-5.87-8.61-7.92-19.14-8.24-29.39-.14-4.43-.16-8.68-1.43-12.98-1.05-3.54-2.71-6.9-4.85-9.91-4.18-5.89-10.04-10.42-16.32-13.89-9.33-5.16-19.88-8.47-30.4-10.1-.34-.05-.72-.17-1.06-.16s.29.42.33.24c.1-.43-.11-1.15-.14-1.59-.21-3.01-.22-6.03-.13-9.04.37-12.79,2.57-25.53,5.82-37.89,5.44-20.65,14.04-40.41,24.61-58.93,7.03-12.31,14.95-24.09,23.55-35.36,2.23-2.93,4.31-5.49,5.65-8.92,1.26-3.22,2.14-6.58,2.91-9.95,3.31-14.48,4.7-29.48,5.72-44.28.07-.99.13-1.97.19-2.96.04-.75-1.43-.55-1.47.11Z"/>
      </g>
      <path class="cls-5" d="M194.8,49.2s-17.59-1.83-43.31,4.05c-25.3,5.78-33.23,8.14-47.72,16.52-14.5,8.38-20.42,12.32-20.42,12.32,0,0-2.49-3.85,1.13-4.98,3.62-1.13,30.78-24.3,62.76-30.13,16.78-3.06,39.66-4.09,45.55-2.51,5.89,1.59,2.01,4.72,2.01,4.72Z"/>
      <path class="cls-5" d="M194.61,42.74s-21.4-4.03-46.88,2.81c-25.06,6.73-31.63,8.54-45.8,17.46-14.17,8.92-19.84,15.44-19.84,15.44,0,0-3.84-5.91-.26-7.18,3.58-1.27,30.78-23.26,62.51-30.28,16.65-3.68,42.13-4.25,48.08-2.89,5.94,1.36,2.19,4.64,2.19,4.64Z"/>
      <g>
        <path class="cls-15" d="M195.58,137.96s-3.43,47.12,1.71,64.57c5.14,17.45,12.31,54,15.88,72.82,3.57,18.81,3.88,59.78,1.39,91.93-2.49,32.14-6.46,70.2-4.09,82.37,0,0,11.43-55.56,22.89-71.6,11.46-16.04,11.9-49.08,9.87-78.66-2.73-39.66-5.47-78.5-18.41-96.86-12.94-18.36-18.24-43.32-21.03-67.09"/>
        <path class="cls-16" d="M194.86,138.16c-.98,13.58-1.4,27.28-.99,40.89.24,8.23.68,16.62,2.97,24.57,2.9,10.09,5.14,20.38,7.34,30.63,2.4,11.16,4.64,22.36,6.8,33.57,1.8,9.3,3.13,18.51,3.72,27.98,1.6,25.8.77,51.77-1.31,77.52-1.1,13.61-2.32,27.21-3.27,40.83-.71,10.29-1.59,20.77-.9,31.09.1,1.54.25,3.08.54,4.59.05.29,1.38-.06,1.44-.33,2.44-11.86,5.37-23.65,8.67-35.3,2.47-8.71,5.16-17.42,8.69-25.77,1.35-3.2,2.83-6.38,4.71-9.31,2.44-3.81,4.6-7.49,6.12-11.78,3.98-11.25,5.03-23.51,5.4-35.36.43-13.73-.43-27.42-1.4-41.11-1.01-14.34-2.08-28.69-4.04-42.94-1.59-11.55-3.64-23.28-7.88-34.19-1.76-4.54-4.04-8.63-6.76-12.65-3.61-5.35-6.55-11.13-8.97-17.1-5.01-12.36-7.89-25.51-9.87-38.67-.5-3.35-.94-6.72-1.34-10.08-.03-.26-1.49.02-1.45.39,1.58,13.38,3.85,26.76,7.94,39.63,1.96,6.18,4.36,12.24,7.36,17.99,2.58,4.95,6.05,9.34,8.65,14.26,5.07,9.6,7.51,20.53,9.37,31.14,2.38,13.61,3.63,27.4,4.7,41.16,1.1,14.11,2.23,28.26,2.35,42.42.11,12.66-.4,25.58-3.33,37.95-1.19,5.04-2.82,10.06-5.33,14.61-1.72,3.12-3.88,5.93-5.47,9.14-3.81,7.67-6.49,15.92-8.97,24.09-4.1,13.49-7.51,27.22-10.41,41.02-.05.25-.1.5-.16.75l1.44-.33c-.67-3.55-.72-7.22-.72-10.83-.01-5.31.22-10.62.52-15.92.74-13.27,1.91-26.51,3.01-39.75,2.19-26.33,3.57-52.67,2.55-79.1-.38-9.92-.98-19.9-2.84-29.67-2.02-10.62-4.11-21.22-6.3-31.81-2.28-10.96-4.62-21.92-7.41-32.77-1-3.88-2.28-7.72-3-11.66s-1.12-8.27-1.38-12.43c-.96-15.55-.42-31.27.62-46.81.02-.32.04-.63.06-.95.01-.18-1.42-.03-1.45.39h0Z"/>
      </g>
      <path class="cls-16" d="M108.11,82.59c-.32,27.81-4.04,55.37-6.77,83-1.38,13.99-2.61,28.08-2.68,42.15-.07,14.2,1.22,28.38,3.23,42.43,2.28,16,5.48,31.85,8.69,47.68.14.69,1.59.32,1.45-.39-5.7-28.18-11.46-56.59-11.87-85.44-.2-14.05.92-28.12,2.23-42.1,1.27-13.52,2.87-27,4.23-40.51,1.57-15.6,2.78-31.25,2.97-46.94,0-.78-1.46-.58-1.47.1h0Z"/>
      <path class="cls-16" d="M71.58,326.83c1.1-18.13-.78-36.15-1.56-54.25-.03-.78-1.5-.57-1.47.1.77,18.1,2.66,36.11,1.56,54.25-.05.77,1.43.58,1.47-.1h0Z"/>
      <path class="cls-10" d="M174.95,101.38c-.52,1.73-.09,3.7.32,5.41.59,2.45,1.44,4.83,2.34,7.18.73,1.9,1.52,3.77,2.29,5.65.16.4.48.93.51,1.37.09,1.2-1.46,1.95-2.41,2.21-1.4.39-2.85.55-4.3.6-1.69.06-3.59.09-5.17-.59-.31-.13-1.2.35-1.09.39,2.6,1.11,6.05.81,8.77.35,1.07-.18,2.19-.42,3.19-.86.84-.37,2.21-1.21,2.19-2.29,0-.42-.3-.92-.46-1.3-.37-.92-.76-1.84-1.14-2.75-1.06-2.57-2.07-5.17-2.89-7.83-.71-2.31-1.75-5.32-1.01-7.75.07-.22-1.05-.08-1.14.21h0Z"/>
      <path class="cls-10" d="M162.97,118.7c-.94.16-1.88.66-2.35,1.52-.42.78-.49,2,.03,2.75.56.81,1.63,1.03,2.55,1.13,1.17.12,2.34.17,3.5-.1.16-.04.56-.19.51-.42s-.51-.15-.65-.11c-.83.19-1.7.13-2.53.05-.76-.08-1.59-.2-2.13-.79s-.52-1.58-.28-2.28c.18-.51.63-1.04,1.19-1.14.2-.03.62-.13.66-.38s-.35-.25-.49-.22h0Z"/>
      <path class="cls-15" d="M154.67,101.48s-7.48,2.95-14.03.99c-2.41-.72-4.93-1.88-4.1-3.93,1.65-4.08,8.88-4.76,12.13-3.83,3.53,1.01,6.18,2.91,6,6.77Z"/>
      <g>
        <path class="cls-8" d="M151.71,97.61c.79,2.56-.97,4.27-3.96,4.88-2.99.61-6.08-.12-6.87-2.67-.79-2.56.33-4.89,3.32-5.5,2.99-.61,6.72.74,7.5,3.29Z"/>
        <path class="cls-13" d="M149.08,97.89c.44,1.42-.55,2.84-2.21,3.18-1.66.34-3.36-.54-3.79-1.96-.44-1.42.55-2.84,2.21-3.18,1.66-.34,3.36.54,3.79,1.96Z"/>
      </g>
      <path class="cls-4" d="M154.46,99.14s-3.86-4.36-10.62-3.53c-6.77.84-7.47,3.75-7.47,3.75,0,0,.2-3.57,5.04-5.23,3.48-1.2,10.46-1.73,13.05,5.01Z"/>
      <ellipse class="cls-15" cx="144.81" cy="97.27" rx=".66" ry=".62" transform="translate(-4.07 6.35) rotate(-2.48)"/>
      <path class="cls-15" d="M193.87,102.34s-6.21,2.52-12.76.56c-2.41-.72-4.93-1.88-4.1-3.93,1.65-4.08,8.88-4.76,12.13-3.83,3.53,1.01,5.7,2.15,4.73,7.2Z"/>
      <g>
        <path class="cls-8" d="M190.89,97.89c.79,2.56-.97,4.27-3.96,4.88-2.99.61-6.08-.12-6.87-2.67-.79-2.56.33-4.89,3.32-5.5,2.99-.61,6.72.74,7.5,3.29Z"/>
        <path class="cls-13" d="M188.26,98.17c.44,1.42-.55,2.84-2.21,3.18-1.66.34-3.36-.54-3.79-1.96-.44-1.42.55-2.84,2.21-3.18,1.66-.34,3.36.54,3.79,1.96Z"/>
      </g>
      <path class="cls-4" d="M194.07,99.08s-2.98-3.86-9.75-3.03c-6.77.84-7.47,3.75-7.47,3.75,0,0,.2-3.57,5.04-5.23,3.48-1.2,12.61-.72,12.17,4.51Z"/>
      <ellipse class="cls-15" cx="183.99" cy="97.55" rx=".66" ry=".62" transform="translate(-4.04 8.04) rotate(-2.48)"/>
      <path class="cls-7" d="M186.6,136.13c-.16.2-.5,9.44-2.17,13.9-.14-.01-6.9,5.51-7.02,5.44-2.26-1.3-2.77-7.68-3.85-7.87-.25-.04-3.12.8-3.89.74-3.08-.23,1.97,1.39-5.89,7.13-.16.12-13.29-5.65-13.5-5.66l-2.47-11.85c-.96-.52-26.22-14.98-26.22-14.98-.09-.14-1.05,5.29-1.63,9.68-.34,2.02-.83,4.52-.99,6.56,2.69,2.24,11.66,23.34,25.36,26.44.57.11,6.92.8,11.63.89,8.84.18,16.21,1.94,24.7-1.14,2.21-.8,4.09-5.4,4.86-7.56,2.2-6.17,6.66-18.26,8.09-24.87-.38-.75-7.02,3.16-7.02,3.16Z"/>
    </g>
  </g>
</svg>