<?xml version="1.0" encoding="UTF-8"?>
<svg id="Layer_4" data-name="Layer 4" xmlns="http://www.w3.org/2000/svg" xmlns:xlink="http://www.w3.org/1999/xlink" viewBox="0 0 278.14 278.14">
  <defs>
    <style>
      .cls-1 {
        fill: none;
      }

      .cls-2 {
        fill: #f68639;
      }

      .cls-3 {
        fill: #0f0d0d;
      }

      .cls-4 {
        fill: #010101;
      }

      .cls-5 {
        fill: #a26852;
      }

      .cls-6 {
        fill: #f2eef7;
      }

      .cls-7 {
        fill: #4aafa4;
      }

      .cls-8 {
        fill: #2d1d13;
      }

      .cls-9 {
        fill: #804841;
      }

      .cls-10 {
        fill: #050505;
      }

      .cls-11 {
        fill: #fbd901;
      }

      .cls-12 {
        fill: #fff;
      }

      .cls-13 {
        fill: #8a463d;
      }

      .cls-14 {
        fill: #0090d2;
        stroke: #241f20;
        stroke-width: .09px;
      }

      .cls-14, .cls-15 {
        stroke-miterlimit: 10;
      }

      .cls-16 {
        fill: #003b4e;
      }

      .cls-15 {
        fill: #dbf1f9;
        stroke: #fff;
        stroke-width: .5px;
      }

      .cls-17 {
        fill: #dc9c78;
      }

      .cls-18 {
        fill: #241f20;
      }

      .cls-19 {
        fill: #556b30;
      }

      .cls-20 {
        clip-path: url(#clippath);
      }
    </style>
    <clipPath id="clippath">
      <circle class="cls-1" cx="139.07" cy="139.07" r="136.76"/>
    </clipPath>
  </defs>
  <g class="cls-20">
    <circle class="cls-15" cx="139.07" cy="139.07" r="136.76"/>
    <circle class="cls-1" cx="139.23" cy="139.18" r="136.76"/>
    <path class="cls-17" d="M179.4,180.27c1.46.58,13.67,16.08,16.2,25.91,2.53,9.83,1.76,30.57,2.73,39.13,1.15,8.85.88,18.51,1.33,29.53.12,2.88.02,5.76-.27,8.62l-1.63,23.71-9.33-2.33s-4.15-60.5-8.86-74.32c-4.71-13.82-.17-50.25-.17-50.25Z"/>
    <g>
      <path class="cls-8" d="M104.24,104.23c-1.47-.29-3.13-.7-3.87-2-.33-.58-.42-1.25-.48-1.91-.13-1.47-.1-2.95.08-4.41.07-.55.16-1.12,0-1.65-.28-.9-1.17-1.43-1.91-2.01-2.81-2.22-3.79-6.45-2.25-9.69.67-1.4,1.78-2.75,1.6-4.3-.1-.84-.58-1.58-.94-2.34-.74-1.58-1.01-3.37-.77-5.09.06-.39.14-.8.38-1.12.23-.31,1.58-3.45,1.93-3.62,1.72-.82,2.88-1.61,4.79-1.51"/>
      <path class="cls-8" d="M104.71,103.18c-.88-.18-1.94-.36-2.63-1.01-.88-.83-.84-2.31-.86-3.42-.04-2.07.91-4.56-.73-6.2-1.33-1.34-2.73-2.14-3.46-3.99-.69-1.74-.78-3.76-.05-5.51.77-1.84,2.24-3.44,1.72-5.58-.24-.96-.86-1.81-1.19-2.74-.41-1.14-.6-2.37-.47-3.58.13-1.27.99-2.59,1.57-3.72.42-.83.35-.66,1.13-1.04.98-.48,1.83-.78,2.93-.76,1.62.02,2.11-2.09.23-2.12s-3.66.72-5.33,1.62c-1.05.56-1.47,1.61-1.97,2.65-.58,1.2-1.12,1.84-1.32,3.13-.31,1.99.13,4.03,1.01,5.82.5,1.02.92,1.88.52,3.02-.32.93-.93,1.74-1.35,2.63-.7,1.49-.91,3.13-.73,4.75s.82,3.23,1.84,4.52,3.15,2.07,3.04,3.93c-.13,2.22-.71,5.08.44,7.15.94,1.7,2.96,2.2,4.73,2.55,1.42.28,2.79-1.73.94-2.1h0Z"/>
    </g>
    <path class="cls-8" d="M102.95,101.74s-2.14-6.08-4.97-20.7c-2.53-13.08,17.82-24.65,30.25-27.03,6.83-1.3,29.9.83,35.93,3.43,6.03,2.6,12.77,3.49,11.59,25.43,0,0-5.12-14.71-12.41-14.2-5.95.42-25.26-1.91-30.22.4-4.96,2.31-15.9,7.19-15.79,25.3.03,4.93-8.89.03-11.2,3.08-2.31,3.05-3.18,4.28-3.18,4.28Z"/>
    <path class="cls-8" d="M116.96,105.27c.12,1.54.25,7.64.46,9.14l-7.95.05c-2.53-5.21-5.57-11.33-6.52-12.72-1.48-2.17-1.98-12.87-2.17-16.89l-.04-.87c-.19-3.86,3.34-10.09,9.45-16.67,6.73-7.24,18.88-11.57,30.96-11.03,1.15.05,2.3.15,3.41.28,10.52,1.27,19.35,6.28,26.26,14.87,4.98,6.2,5.27,10.43,5.2,17.82-.67-1.16-6.09-14.38-6.23-14.64-3.04-5.83-4.39-7.77-6.98-8.08-2.25-.27-3.93.37-4.26.51-2.53.64-6.27.38-8.97.06-2.01-.24-3.61-.55-4.04-.63-1.38-.9-3.42-1.54-5.91-1.84-5.8-.7-14.14.53-15.8,3.12-1.84,2.87-5.9,13.02-5.87,15.37"/>
    <path class="cls-8" d="M170.88,67.91c-2.75-4.26-8.04-9.56-11.07-13.62-1.41-.11-8.4-.15-9.86-.19-14.95-.36-34.87,8.57-36.7,14.03-1.14,3.41-.03,21.86.65,23.53,1.86,4.58,2.67,10.6,2.67,10.6.5-6.94,5.32-14.74,5.91-17.12.58-2.39-2.78-13.6-2.02-14.09.76-.49,13.13-.21,28.37-.23,4.49,0,8.71-.5,14.73-1.54-.03-.05,7.36-1.33,7.33-1.38Z"/>
    <path class="cls-8" d="M169.64,64.47c1.53.2,1.93,2.09,3.03,1.01,1.12-1.12,3.9-2.32,3.51-6.86-.14-1.58.06-3.32-1.11-4.39-1.67-1.53-4.49-1.26-6.09-2.87-1.04-1.05-1.28-2.65-2.05-3.91-1.1-1.8-3.36-2.81-5.44-2.41-1.02.19-2.01.69-3.04.59-3.08-.31-3.05-3.6-6-4.53-2.25-.71-4.91-.35-7.15.37-2.01.65-4.17.26-6.28.12-5.36-.36-10.83.98-15.42,3.78-2.11,1.29-4.08,2.93-5.28,5.09-.78,1.42-1.2,3.18-.52,4.64.61,1.31,1.95,2.1,3.23,2.77,7.6,3.97,16.01,6.39,24.56,7.06"/>
    <g>
      <path class="cls-8" d="M111.57,54.02c-.95-.28-1.92-.57-2.91-.64-2.94-.22-5.86,1.58-7.24,4.19-1.37,2.61-1.26,5.88.04,8.53,0,0-1.36,10.06,2.77,10.52,4.14.46,31.12-22.89,31.12-22.89,0,0-10.82-6.26-14.46-6.26s-9.33,6.56-9.33,6.56Z"/>
      <path class="cls-8" d="M112.38,53.08c-2.17-.64-4.28-1.03-6.5-.36-2.04.61-3.91,1.9-5.14,3.65s-1.81,3.92-1.69,6.09c.06,1.07.21,2.29.69,3.27.22.45.24.41.26.83.05.94-.16,1.95-.17,2.9-.01,1.31.04,2.65.3,3.94.42,2.16,1.72,4.41,4.23,4.22,1.51-.11,2.98-1,4.25-1.75,2.09-1.24,4.08-2.63,6.03-4.06,4.64-3.38,9.11-6.99,13.54-10.64,2.72-2.24,5.43-4.51,8.09-6.82.4-.34.79-1.06.15-1.43-3.15-1.82-6.4-3.52-9.75-4.94-1.8-.76-3.88-1.67-5.87-1.53-2.37.16-4.56,1.72-6.33,3.19-1.45,1.21-2.84,2.54-4.08,3.97-1.15,1.32,1.5,1.76,2.33.81,1.23-1.41,2.59-2.72,4.05-3.88.97-.77,2.08-1.64,3.29-1.97.86-.23,1.75.09,2.58.36,4.06,1.33,7.94,3.46,11.63,5.59l.15-1.43c-5.66,4.9-11.45,9.67-17.37,14.25-3.41,2.64-6.94,5.46-10.71,7.49-.3.16-.6.32-.91.46-.13.06-.25.11-.38.17-.32.14.18-.08-.18.07-.1.04-.2.05-.3.08.1-.03.26.05,0,0,.41.08-.26-.11-.48-.29-1.52-1.25-1.46-4.3-1.45-6.06,0-.97.1-1.93.17-2.9.02-.21.07-.41.03-.63-.1-.56-.49-1.13-.65-1.69s-.28-1.18-.34-1.78c-.2-2.31.54-4.77,2.3-6.35,1.99-1.78,4.18-1.66,6.59-.95.66.2,1.52.03,1.97-.53.39-.48.28-1.15-.36-1.34Z"/>
    </g>
    <path class="cls-8" d="M109.87,53.25c.42-1.97,2.01-6.5,3.33-8.03,1.32-1.52,3.22-2.61,5.23-2.69,1.6-.06,3.18.49,4.79.43,2.74-.11,5.06-1.95,7.66-2.82,3.49-1.17,7.49-.46,10.56,1.59,3.06,2.05,5.19,5.35,6.13,8.91"/>
    <g>
      <path class="cls-8" d="M122.3,70.57c1.44,1.2,3.1,2.48,4.96,2.29,1.84-.18,3.26-1.75,5.06-2.17,3.33-.78,6.9,2.54,10,1.09,2-.93,3.32-3.7,5.5-3.3,1,.18,1.72,1.01,2.52,1.62,1.93,1.46,4.7,1.72,6.86.63,1.32-.66,2.47-1.79,3.94-1.91.93-.08,1.84.27,2.72.57,2.22.77,4.61,1.3,6.91.86,1.12-.22,5-3.47,4.77-4.59,0,0,1.46-3.83-2.72-7.12-4.18-3.29-18.27-2.68-18.27-2.68"/>
      <path class="cls-8" d="M121.22,71.34c1.49,1.24,3.13,2.42,5.15,2.49s3.58-1.08,5.34-1.93c1.65-.8,3.42.02,5.05.54s3.43.93,5.17.46c1.64-.44,2.77-1.59,3.99-2.69.42-.38.85-.88,1.44-.74.92.21,1.73,1.36,2.53,1.82,1.6.93,3.54,1.24,5.36.97.94-.14,1.87-.42,2.71-.87s1.64-1.14,2.55-1.49c1.01-.38,2.2.28,3.16.59,1.09.35,2.2.62,3.33.77,1.63.22,3.52.25,5.01-.53,1.23-.64,2.34-1.58,3.31-2.56.77-.77,1.57-1.64,1.62-2.77-.03.66.02.12.1-.18.1-.41.15-.83.15-1.24.02-1.33-.34-2.59-1.02-3.74-1.5-2.51-4.08-3.69-6.82-4.31-4.75-1.08-9.8-1.21-14.66-1.01-1.52.06-2.2,1.97-.29,1.89,3.53-.15,7.12-.02,10.62.43,2.13.27,4.6.61,6.41,1.85,2.09,1.43,3.26,3.78,2.82,6.28-.1.59.02-.1-.12.42-.1.35-.14.56-.42.91-.72.92-1.68,1.73-2.65,2.37-1.12.73-2.86.4-4.27.07-1.95-.45-3.82-1.52-5.88-1.21-1.74.26-2.95,1.44-4.5,2.14-1.66.75-3.58.33-5.01-.73-1.34-.99-2.38-2-4.17-1.81-1.51.16-2.67,1.09-3.75,2.08-.55.5-1.09,1.14-1.78,1.44-.73.32-1.58.12-2.32-.07-1.74-.46-3.42-1.24-5.24-1.33-1.92-.1-3.47.65-5.1,1.57-.98.55-1.77.93-2.9.48-1.04-.41-1.93-1.18-2.78-1.89s-3.35.54-2.17,1.53h0Z"/>
    </g>
    <path class="cls-17" d="M177.09,119.33c.46-4.46-.21-11.55-.81-14.23.04-2.06,0-4.51.04-7.4,0-.84,0-1.64-.03-2.44-.05-.41-.06-.82-.04-1.23-.59-14.08-4.42-21.02-4.42-21.02-6.03-9.28-16.52-14.64-27.55-14.08-12.99.39-24.64,8.4-30.68,16.4-3,3.96-4.43,8.9-4.03,13.85.34,4.23,1.37,8.98,2.55,13.58-4.54-.17-9.99.45-8.26,8.8,2.39,11.52,10.87,16.09,14.34,12.88.81.14,2.45,3.61,2.66,6.02.41,4.61.3,12.8-1.93,16.85l.13,1.31c9.94,15.7,15.8,24.78,49.2,15.12l-10.85-17.75-.13-2.67c2.54-.2,2.05.14,4.39-.83,10.43-2.8,14.86-17.91,15.4-23.17Z"/>
    <path class="cls-7" d="M157.44,145.99c4.3.19,20.04,7.87,22.81,9.47,21.21,12.25,18.4,62.46,22.53,74.79-3.58,5.46-10.33,4.68-10.33,4.68,0,0-.53-3.18-.22,7.68.31,9.85.89,28.31,3.15,49.38-.65,3.81-9.16,7.48-18.76,8.31-8.39.73-21.59,2.3-30.02,2.46-9.35.17-27.32-3-36.55-4.72-6.36-1.18-17.02-2.81-23.11-4.97,4.99-26.06,2.98-71.29,3.15-71.95.41-1.58,15.46-3.5,17.75-15.71,0,0-16.57-3.36-20.73-6.08,0,0-3.41-36.37,19.84-48.24,9.51-4.85,13.44-8.2,13.44-8.2,0,0,13.28,17.46,32.96,15.23,12.79-1.44,4.08-12.14,4.08-12.14Z"/>
    <path class="cls-13" d="M157.24,143.34s-12.36,1.11-23.56-6.12c0,0,1.38,3.71,9.33,6.44,7.95,2.73,14.25,1.69,14.25,1.69l-.02-2.01Z"/>
    <path class="cls-5" d="M157.96,123.86c-3.81.02-10-.39-10-.39,0,0-.45,9.48,10.13,9.24,8.84-.2,8.42-9.24,8.42-9.24,0,0-4.73.37-8.54.39Z"/>
    <path class="cls-3" d="M158,123.86c-1.81.01-8.57-.02-8.57-.02,0,0,1.6,4.86,8.16,4.82,7.11-.04,7.52-4.47,7.52-4.47l-7.11-.33Z"/>
    <path class="cls-6" d="M158.51,124.73c-1.89.01-7.65-.26-7.65-.26,0,0,2.27,1.54,7.94,1.51,5.67-.03,6.02-1.5,6.02-1.5l-6.32.25Z"/>
    <path class="cls-5" d="M167,123.29c0-.2-.41-.29-1.33-.36-1.54-.12-1.5-.47-2.62-.55-1.91-.13-3.12.61-3.95.62-.83,0-2.05-.72-3.96-.57-1.12.09-3.88.51-5.43.64-.93.08-2.01-.26-2.21-.21-.27.07.38,2.64,10.82,2.57,10.44-.06,8.68-1.86,8.68-2.14Z"/>
    <path class="cls-17" d="M111.05,202.2l.29-7.98c1.6-9.07,6.26-33.12,2.26-37.04,0,0-13.85,6.02-19.87,11.17-6,5.13-8.02,11.79-10.21,31.16l-2.03,16.68c-1.85,14.8-1.93,36.06-1.95,39.15-.06,13.66,19.83,62.63,19.83,62.63l10.68-9.49s-4.08-39.77-6.23-53.65l7.23-52.62Z"/>
    <path class="cls-16" d="M191.29,183.5c-.5,6.97-.17,14.07-.11,21.06.05,4.63.19,9.2.44,13.82.3,5.53.55,11.12.1,16.64-.02.26.24.31.44.32,2.51.19,5.23-.49,7.42-1.67.9-.49,1.75-1.09,2.49-1.8.46-.44,1.37-1.21,1.41-1.86.03-.51-.35-1.27-.49-1.76l-.44-1.58c-.13-.46-1.09-.14-1.31.07-2,1.99-4.99,2.98-7.73,3.24-.71.07-1.2.9-.2.81,3.2-.3,6.75-1.49,9.09-3.81l-1.31.07.79,2.86c.19.71-.2.9-.75,1.47-.68.71-1.47,1.31-2.33,1.78-1.8.98-4.03,1.51-6.09,1.35l.44.32c.6-7.37-.13-14.72-.43-22.08-.26-6.34-.16-12.73-.17-19.08,0-3.45-.08-6.92.17-10.36.04-.59-1.41-.31-1.45.18h0Z"/>
    <path class="cls-7" d="M120.26,146.68s-33.13,7.48-38.93,25.66c-8.34,26.14-5.8,61.4-5.8,61.4,0,0,28.48,6.1,40.27.82,11.1-4.97,5.22-81.99,5.22-81.99"/>
    <path class="cls-16" d="M104.41,170.7c1.73.55,3.61,2.32,4.8,3.86,3,3.88,4,8.86,4.3,13.65.64,10.45-.13,21.05-.77,31.48-.29,4.76-.61,9.52-1.03,14.27l.43-.42-3.24,1.25c-.39.15-.81.28-1.19.46.43-.2.4-.06.07-.06-1.96.02-3.94.32-5.9.39-7.43.29-15.28.12-22.41-2.19-1.01-.33-1.99-.71-2.95-1.16-.25-.12-.72-.29-.7-.24-.07-.13.02-.65.02-.79.04-1.3.08-2.59.12-3.89l-1.16.51c4.94,1.3,10.07,2.08,15.15,2.55,4.14.39,8.3.45,12.45.27,2.4-.1,4.81-.27,7.17-.75.78-.16,1.59-.33,2.3-.71.85-.47-.4-.8-.92-.52.42-.23-.28.08-.07.01-.44.13-.87.25-1.31.35-2.05.44-4.17.58-6.26.69-7.58.39-15.14-.22-22.59-1.64-1.69-.32-3.38-.67-5.04-1.11-.31-.08-1.15.06-1.16.51-.05,1.59-.1,3.19-.14,4.78,0,.13.04.23.16.3,5.95,3.15,13.16,3.79,19.78,3.98,2.93.08,5.86.04,8.79-.11,1.53-.08,3.11-.1,4.62-.34,1.7-.27,3.42-1.22,5.02-1.84.16-.06.41-.23.43-.42.87-9.8,1.44-19.65,1.78-29.49.18-5.16.31-10.35.06-15.51s-1.1-10.01-3.97-14.16c-1.37-1.98-3.4-4.04-5.76-4.8-.52-.17-1.7.59-.87.86h0Z"/>
    <g>
      <path class="cls-8" d="M126.24,74.23c-7.15,4.12-7.47,9.24-7.47,9.24-1.02,4.55-2.93,7.61-1.64,12.77.31,1.23.57,2.47.81,3.72.1,2.28.49,4.57.14,6.85-.17,1.12-.55,2.29-1.45,2.97-.97.74.17,2.07-.89,1.7-.02-.07-.02-.14-.04-.21-.62-1.63-1.33-3.14-2.62-4.3-.59-.53-1.3-1.12-2.04-1.46-.75-.34-1.54-.73-2.36-.83-1.15-.28-2.28-.24-3.41.13-.19.09-.38.18-.57.28-3.11-9.95-4.59-20.63,2.14-33.04,1.94-3.58,7.14-7.58,8.73-8.87,9.64-7.69,18.37-8.4,29.14-7.49,12.49,1.06,25.09,4.5,28.19,17.72"/>
      <path class="cls-8" d="M126.08,74.17c-2.86,1.69-5.53,3.95-6.91,7.04-.31.69-.51,1.4-.65,2.14-.28,1.43-.74,2.83-1.15,4.23-.55,1.89-1,3.8-.94,5.78.08,2.53,1.11,4.9,1.27,7.41s.77,5.55-.43,7.9c-.39.77-1.3,1.17-1.35,2.09-.01.25.2.63-.02.26-.3-.49-.45-1.11-.71-1.63-1.89-3.7-6.68-6.29-10.67-4.37h.44c-2.26-7.31-3.47-14.91-1.84-22.49.88-4.09,2.41-8.6,4.92-11.98,1.98-2.65,4.58-4.81,7.15-6.87,3.16-2.54,6.56-4.73,10.38-6.14,3.61-1.33,7.43-1.91,11.27-2,7.04-.17,14.61.56,21.3,2.89,3.33,1.16,6.51,2.85,9.07,5.3,2.76,2.65,4.51,6.05,5.41,9.75.04.17.59.02.55-.15-1.65-6.79-6.26-11.72-12.63-14.41s-13.99-3.53-21.02-3.67c-7.72-.16-15.04,1.55-21.49,5.91-2.74,1.86-5.37,4.03-7.74,6.34-3.08,3-4.99,6.53-6.42,10.58-3.17,8.96-2.22,18.16.55,27.08.05.15.36.03.44,0,4.3-2.08,9.74,2.15,10.61,6.41,0,.04.07.05.1.06.44.11.79.07.94-.38.08-.23-.06-.57-.01-.81.09-.46.52-.69.8-1.04.45-.56.74-1.18.92-1.88.97-3.8-.1-8.08-.9-11.8-.76-3.51.17-6.65,1.14-10,.4-1.39.58-2.89,1.12-4.23,1.27-3.16,3.97-5.5,6.84-7.19.32-.19-.17-.23-.33-.13h0Z"/>
    </g>
    <path class="cls-9" d="M157.01,118.17c1.55.7,3.32.81,5,.59,1.32-.18,2.61-.54,3.44-1.67.68-.91.64-1.73.3-2.75-.41-1.23-.99-2.41-1.53-3.59-.57-1.25-1.21-2.51-1.58-3.84-.13-.45-1.28-.13-1.16.31.6,2.11,1.74,4.06,2.59,6.08.32.75.79,1.66.8,2.5,0,.92-.85,1.79-1.68,2.04-1.64.49-3.69.43-5.25-.28-.26-.12-.59-.06-.82.1-.15.1-.35.38-.09.5h0Z"/>
    <path class="cls-9" d="M152.6,113.83c-.66-.03-1.23.31-1.49.93-.2.49-.26,1.05-.23,1.58s.1,1.04.47,1.46c.5.57,1.26.81,1.99.91.5.07.98.04,1.46-.12s.92-.4,1.39-.51c.23-.05.55-.28.47-.55s-.46-.29-.69-.24c-.38.09-.73.24-1.09.39-.28.12-.55.24-.85.23-.49-.02-1.03-.14-1.44-.44-.34-.25-.49-.61-.53-1.02-.02-.19-.03-.32-.02-.55,0-.21.03-.43.07-.64.04-.24.07-.35.21-.57.03-.05-.02.03-.02.03.02-.02.04-.04.06-.07.07-.09-.07.05.02-.02-.02.01-.07.04-.1.05.02,0,.03,0,.05-.01-.21.04.06.02-.13.01.28.01.63-.08.76-.35.12-.25-.1-.47-.35-.48h0Z"/>
    <path class="cls-8" d="M150.64,93.03c0-.1-.34-.11-.34-.2-5.48-1.2-9.64-1.24-11.16-.94-1.15.23-2.27.7-3.32,1.33,0,0-2.92,1.69-3.26,2.34-.35.66,1.78-.36,1.78-.36.46-.15.77-.32,1.24-.4,2.58-.45,5.07-.57,7.67-.27,2.23.24,5.24.81,7.39,1.61.06-1.07-.13-2.05,0-3.11Z"/>
    <path class="cls-8" d="M176.25,93.23c-.54-.41-1-.74-1-.74-.88-.64-1.81-1.11-2.77-1.35-1.27-.31-4.74-.3-9.34.86,0,.1-.29.1-.28.2.11,1.06-.06,2.04-.02,3.11,1.8-.78,4.41-1.18,6.28-1.41,2.18-.28,4.16-.3,6.32.18.25.06.46.15.67.25l.13-1.09Z"/>
    <path class="cls-4" d="M181.06,97.39c-1.47-1.31-4.14-1.87-8.66-1.82h-.02c-6.47.09-9.22,1.53-10.36,3.84-.69-.28-1.97-.61-4.39-.77-1.72-.12-3.5.24-4.81.82-.18-.21-.38-.41-.61-.61-2.01-1.69-5.73-2.35-12.3-2.29-3.47.06-5.75.49-7.22,1.37l-19.34,4.95.54,1.47,16.66-3.07c-.12.89-.1,1.87-.07,2.92.01.38.02.77.03,1.17.07,5.65,6.33,8.09,12.49,8.01,7-.09,11.31-3.28,11.24-8.32-.02-1.3.15-3.31-.13-4.35.82-.78,2.13-1.04,4.34-.9,2.17.14,2.89.9,3.12,1.31-.09.8-.04,2.4-.03,3.3.06,4.79,4.39,8.17,10.94,8.09,6.29-.08,10.16-3.25,10.09-8.27,0-.45,0-.89,0-1.3.02-2.24.04-4.17-1.51-5.56ZM143.02,112.31c-5.67.07-11.41-2.04-11.48-6.93,0-.45-.02-.88-.03-1.3-.07-2.27-.11-3.91.98-4.9,1.08-.98,3.38-1.47,7.24-1.54.12,0,.25,0,.37,0,6.16-.08,9.82.55,11.52,1.98,1.41,1.18,1.54,3.02,1.57,5.48.06,4.43-3.74,7.13-10.17,7.21ZM181.73,102.84c0,.46-.01.94,0,1.44.06,4.4-3.39,7.08-9.22,7.15-5.15.07-9.86-1.83-9.92-6.69-.06-4.66-.61-7.95,9.87-8.09h.03c4.36-.06,6.96.4,8.16,1.45,1.13.98,1.11,2.64,1.09,4.74Z"/>
    <path class="cls-14" d="M103.54,108.59s.89-3.01,2.98-3.55c2.1-.54,6.01,1.54,7.59,4.68,0,0,1.92-1.95-.27-4.85-2.52-3.32-6.79-5.01-9.59-3.26-4.86,3.03-.72,6.98-.72,6.98Z"/>
    <g>
      <path class="cls-2" d="M114.95,107.43s3.02,6.04-.32,7.81c-1.97,1.04-2.51-.42-3.17.52-.67.94-.23,2.04-.23,2.04,0,0-1.19,1.44-1.66-.72-.28-1.3.89-3.72,2.87-3.02,0,0,1.76,1.16,2.23-1.39.21-1.13-.24-2.48-1.18-3.91-.95-1.43,1.47-1.32,1.47-1.32Z"/>
      <path class="cls-18" d="M114.91,107.45c.74,1.49,1.31,3.28,1.24,4.96-.06,1.42-.75,2.58-2.14,3.04-.62.2-1.12.09-1.73-.04-.29-.06-.53-.05-.75.17-.43.43-.55,1.14-.47,1.72.02.13.14.38.11.49.01-.06-.11.1-.16.14-.48.42-.97.31-1.23-.29-.29-.67-.27-1.37-.01-2.04.45-1.18,1.55-1.97,2.79-1.43.59.26,1.23.27,1.67-.28,1.06-1.32.4-3.29-.34-4.58-.19-.34-.65-.81-.57-1.24.06-.3.36-.43.63-.51.32-.09.67-.12,1-.1.06,0,.06-.09,0-.09-.55-.02-1.78.04-1.73.84.02.3.24.57.39.81.37.59.69,1.21.88,1.88.27.94.32,2.32-.45,3.06-.42.4-.96.33-1.45.11-.43-.19-.88-.27-1.34-.14-1.17.34-1.9,1.81-1.76,2.96.06.5.3,1.43.96,1.4.31-.01.61-.25.81-.48.01-.01.02-.03.01-.05-.22-.59-.18-1.31.13-1.85.34-.58.72-.44,1.26-.32,1.02.22,2.15-.2,2.82-.99,1.29-1.49.74-3.88.18-5.56-.19-.56-.4-1.13-.67-1.66-.03-.05-.11,0-.08.05Z"/>
    </g>
    <g>
      <path class="cls-11" d="M113.32,115.31s-1.4-4.94-4.78-4.89c-1.38.02-2.23,2.62-.49,6.06.92,1.82,3.41,1.99,3.41,1.99,0,0-1.31-2.83.85-2.97.78-.05,1.01-.18,1.01-.18Z"/>
      <path class="cls-18" d="M113.36,115.3c-.52-1.83-1.71-3.98-3.56-4.7-.49-.19-1.17-.35-1.68-.15-.48.19-.77.68-.92,1.15-.24.74-.22,1.55-.09,2.31.17,1.01.53,2.19,1.16,3.02.72.96,2.01,1.49,3.18,1.58.04,0,.05-.04.04-.07-.25-.55-.44-1.22-.38-1.83.05-.52.36-.91.89-1.03.43-.1.93-.02,1.33-.23.05-.03,0-.11-.05-.08-.63.33-1.47,0-1.98.6-.38.45-.33,1.11-.21,1.65.06.26.13.51.23.75.02.06.04.13.07.18s.07-.02.01-.04c-.21-.07-.48-.07-.7-.12-.42-.1-.84-.25-1.22-.46-1.17-.63-1.7-1.78-2.07-3.01-.31-1.05-.49-2.29-.08-3.34.78-1.99,3.17-.63,4.13.47.83.95,1.45,2.16,1.8,3.37.02.06.11.03.09-.03Z"/>
    </g>
    <path class="cls-8" d="M121.42,74.29c3.61,3.01,8.95,3.78,13.27,1.92,1.35-.58,2.69-1.42,4.16-1.31,2.63.19,4.43,3.32,7.07,3.28,2.95-.05,4.54-3.96,7.46-4.43,1.87-.3,3.6.91,5.33,1.68,4.66,2.06,10.03.95,14.99-.19-2.86-7.43-9.89-13.09-17.76-14.3"/>
    <path class="cls-16" d="M119.73,143.21c4.51,5.28,10.44,9.82,16.69,12.79,4.86,2.3,10.31,3.62,15.69,2.85,2.78-.4,5.96-.93,7.8-3.29,1.12-1.43,1.46-3.5.63-5.13s-1.62-3.17-2.44-4.75l-1.09.79c1.34.36,2.68.73,4.01,1.09.31.08.62.2.94.25.25.04.48.26.15-.04.26.23.43.58.57.89.87,1.98.59,4.65.01,6.66-.69,2.39-2.59,4.1-4.78,5.14-5.08,2.42-11.55,2.17-16.91.9-6.35-1.51-12.28-4.98-17.39-8.95-1.92-1.49-3.81-3.15-5.21-5.16-.39-.56-.85-1.21-1-1.9l-.25.51c1.24-.88,2.48-1.76,3.72-2.64.8-.57-.39-1.03-.95-.63-1.24.88-2.48,1.76-3.72,2.64-.16.12-.29.3-.25.51.14.63.54,1.26.88,1.79,1.21,1.86,2.88,3.42,4.57,4.83,5.32,4.42,11.81,8.26,18.57,9.91,5.75,1.4,12.44,1.63,17.98-.72,2.2-.93,4.26-2.4,5.45-4.51s1.57-5.21,1.06-7.65c-.21-1-.57-2.16-1.6-2.51-1.64-.54-3.35-.91-5.01-1.36-.45-.12-1.4.18-1.09.79.65,1.27,1.3,2.54,1.95,3.81.24.46.59.96.75,1.45.27.89.02,2.18-.39,2.99-1.27,2.5-4.5,2.96-7,3.29-9.66,1.3-18.92-4.18-25.95-10.28-1.78-1.55-3.53-3.19-5.07-4.98-.41-.48-1.79.09-1.33.63Z"/>
    <path class="cls-12" d="M150.31,105.79s-7.12,3.47-13.03,1.19c-2.12-.82-3.18-2-2.45-3.88,1.45-3.72,6.71-4.09,9.75-3.32,3.3.84,5.8,2.5,5.72,6Z"/>
    <g>
      <path class="cls-19" d="M147.48,102.35c.78,2.3-.81,3.89-3.58,4.5-2.77.62-5.66.03-6.44-2.27-.78-2.3.21-4.43,2.98-5.05,2.77-.62,6.26.52,7.04,2.82Z"/>
      <path class="cls-10" d="M145.04,102.66c.43,1.27-.46,2.58-1.99,2.93-1.53.34-3.13-.41-3.57-1.69-.43-1.27.46-2.58,1.99-2.93,1.53-.34,3.13.41,3.56,1.69Z"/>
    </g>
    <ellipse class="cls-12" cx="141.27" cy="102.42" rx=".45" ry=".4" transform="translate(-3.45 4.93) rotate(-1.98)"/>
    <path class="cls-4" d="M150.07,103.68s-3.67-3.86-9.95-2.96c-6.27.9-5.47,3.97-5.47,3.97,0,0-1.29-3.65,3.18-5.26,3.21-1.16,9.69-1.79,12.24,4.25Z"/>
    <path class="cls-12" d="M176.28,105.09s-5.35,3.5-11.26,1.22c-2.12-.82-2.6-1.51-1.87-3.38,1.45-3.72,6.14-4.59,9.18-3.82,3.3.84,4.03,2.47,3.95,5.97Z"/>
    <g>
      <path class="cls-19" d="M175.23,101.68c.78,2.3-.81,3.89-3.58,4.5-2.77.62-5.66.03-6.44-2.27-.78-2.3.21-4.43,2.98-5.05,2.77-.62,6.26.52,7.04,2.82Z"/>
      <path class="cls-10" d="M172.79,101.99c.43,1.27-.46,2.58-1.99,2.93-1.53.34-3.13-.41-3.57-1.69-.43-1.27.46-2.58,1.99-2.93,1.53-.34,3.13.41,3.56,1.69Z"/>
    </g>
    <ellipse class="cls-12" cx="169.02" cy="101.75" rx=".45" ry=".4" transform="translate(-3.41 5.89) rotate(-1.98)"/>
    <path class="cls-4" d="M176.25,102.55s-1.3-3.5-7.58-2.6c-6.27.9-5.78,4.79-5.78,4.79,0,0-1.15-4.27,3.31-5.88,3.21-1.16,10.11-1.17,10.05,3.69Z"/>
    <path class="cls-16" d="M116.86,195.95c1.56-.17,3.11-.46,4.58-1.03,1.76-.68,3.25-1.76,4.8-2.82,2.41-1.64,5-3.32,7.9-3.9,2.42-.48,5.79-.45,7.46,1.66.2.26.27.61.45.85.21.28-.48.38.42.12.68-.2.21-.24-.18-.42-1.1-.5-2.31-.77-3.51-.9-2.09-.23-5.33.07-6.16,2.43-.93,2.64,3.18,3.53,4.95,3.48,1.93-.05,3.94-.27,5.81-.71,3.38-.8,5.95-2.79,8.89-4.52,2.24-1.32,4.62-2.48,7.26-2.61,1.53-.08,3.18.08,4.51.9.42.26.8.57,1.11.96.19.25.28.77.47.96.01.01-.02.09,0,.1-.06-.06.83-.1.82-.22-.01-.07-.64-.32-.67-.33-.6-.27-1.23-.46-1.87-.6-1.18-.26-2.4-.41-3.6-.3-1.74.15-5.15,1.54-4.08,3.88s4.31,2.05,6.31,1.96c3.03-.14,5.29-1.44,7.79-3.07s5.07-3.29,7.99-3.84c2.35-.44,5.66-.35,7.22,1.77.15.21.26.73.41.88.01.01-.02.09,0,.1-.08-.07.85-.1.82-.22-.04-.13-.59-.3-.74-.36-1.14-.5-2.43-.76-3.67-.87-2.01-.16-5.33.23-5.92,2.65-.64,2.64,3.44,3.36,5.21,3.29,2.06-.09,4.18-.4,6.15-.99,1.48-.45,2.88-1.08,4.18-1.91.83-.53-.38-.96-.95-.6-2.35,1.5-5.09,2.15-7.84,2.38-1.18.1-2.33.23-3.48-.15-1.5-.49-2.71-2.06-.93-3.18,1.16-.73,2.8-.57,4.09-.35.62.1,1.24.26,1.83.47.43.16.86.48,1.31.58,1.8.38,1.44-1.64.74-2.49-2.99-3.63-9.24-2.23-12.82-.44-1.31.66-2.58,1.42-3.81,2.21-1.7,1.08-3.31,2.35-5.29,2.87-.75.2-1.47.22-2.23.26-1.53.09-3.81.31-4.82-1.2s1.16-2.53,2.38-2.64,2.61.1,3.82.48c.76.24,1.77,1.08,2.6.59.48-.29.59-.82.44-1.33-.54-1.9-2.98-2.82-4.7-3.09-2.23-.35-4.56-.03-6.67.75-2.85,1.05-5.42,2.8-7.95,4.45-2.38,1.55-5.21,2.23-8.02,2.39-.91.05-1.83.2-2.74.09-1.17-.14-3.61-.98-2.79-2.61.72-1.42,2.8-1.4,4.14-1.26s2.36.6,3.58,1.04c1.52.55,2.01-.88,1.31-2-1.24-1.98-3.89-2.52-6.05-2.56s-4.36.44-6.39,1.35c-3.1,1.39-5.62,3.72-8.63,5.24-1.6.81-3.3,1.19-5.07,1.38-.78.09-1.14,1.11-.15,1h0Z"/>
    <path class="cls-16" d="M116.55,202.03c2.46-1.62,5.1-3.6,8.03-4.26,2.42-.54,5.74-.44,7.56,1.44.3.31.45.66.67,1.01.06.09.03.34.09.39.18.15-1.38.39.41-.03.81-.19.35-.05.16-.24-.67-.71-2.76-.91-3.68-1.01-2.09-.23-5.17,0-6.25,2.16-1.37,2.74,3.32,3.59,5.04,3.49,2.15-.12,4.25-.4,6.22-1.42,3.09-1.59,5.69-3.95,9.01-5.13,2.49-.88,5.93-1.12,8.13.56.37.28.72.62.97,1.02.08.13.24.86.29.91.15.13.76-.27.77-.26-.01-.04-.24-.12-.28-.14-.25-.18-.62-.28-.91-.38-.58-.2-1.19-.35-1.8-.45-2.22-.4-5.29-.4-6.82,1.57-1.91,2.45,1.85,3.85,3.74,3.96s4.2-.2,6.11-.61c1.46-.31,2.89-.76,4.23-1.43,1.69-.84,3.21-2.01,4.82-2.98,2.36-1.42,4.85-2.72,7.66-2.81,1.57-.05,3.24.14,4.58,1.05.39.27.76.6,1.05.98.16.22.27.82.43.96.1.09.8.04.76-.13-.03-.11-.71-.34-.83-.39-.61-.24-1.25-.41-1.89-.53-1.24-.25-2.54-.35-3.79-.16-1.66.25-5.03,1.88-3.44,4.03,1.44,1.95,4.35,1.57,6.43,1.5,2.98-.1,5.9-1.03,8.39-2.66,1.32-.87,2.6-1.79,3.89-2.7.7-.5,1.44-1.1,2.27-1.36s1.78-.17,2.64-.13c.51.02,1.55-.72.58-.76-1.73-.08-3.35.01-4.89.89-2.62,1.49-4.79,3.7-7.58,4.91-1.45.63-3.05.99-4.63,1.06-1.07.05-2.2.21-3.25.03-1.33-.23-3.61-1.34-2.47-3,.94-1.36,2.96-1.21,4.39-.99.68.11,1.36.26,2,.5.46.17.91.51,1.4.6.6.11,1.36-.18,1.47-.83.27-1.69-2.4-2.94-3.62-3.27-5.58-1.53-10.88,1.79-15.33,4.71-2.54,1.67-5.37,2.52-8.4,2.67-1.16.06-2.3.23-3.44-.06-1.38-.36-3.18-1.63-1.82-3.13,1.08-1.19,3.07-.97,4.49-.71.7.13,1.4.3,2.05.58.39.16.77.45,1.19.49,2,.21,1.22-1.88.41-2.67-1.75-1.72-4.5-1.93-6.81-1.74-2.46.2-4.74,1.14-6.88,2.32-3.03,1.67-5.93,4.56-9.54,4.72-.98.04-2.44.24-3.69-.16-1.44-.46-2.85-1.86-1.38-3.21,1.17-1.07,3.18-.8,4.61-.51.71.14,1.4.34,2.05.65.37.17.67.38,1.09.37,1.92-.03.96-2,.16-2.75-1.81-1.7-4.61-1.85-6.96-1.68-2.19.16-4.19.94-6.1,1.99-1.58.87-3.09,1.86-4.6,2.85-.81.54.45.66.88.37h0Z"/>
    <path class="cls-16" d="M192.24,213.74c-1.86.37-3.77.96-5.66,1.09-1.38.1-4.91-.51-4.35-2.65s3.57-1.78,5.2-1.44c.81.17,1.54.44,2.29.78.37.16.6.26,1.01.2.8-.13,1.19-.64.92-1.4-.92-2.58-4.65-2.98-6.92-2.89-2.89.12-5.55,1.23-8.03,2.64-1.86,1.05-3.57,2.38-5.45,3.38-1.73.92-3.69,1.38-5.62,1.6-1.28.14-2,.27-3.23.23-1.4-.05-4.64-.99-3.55-3.03.97-1.81,3.66-1.39,5.3-1.01,1.05.24,2.24,1.22,3.33.84,2.24-.77-1.04-3.22-1.9-3.59-2.6-1.11-5.88-.75-8.5.14-1.46.5-2.83,1.2-4.16,1.97-2.03,1.17-3.94,2.81-6.11,3.7-1.15.48-2.24.56-3.44.64-1.41.09-5.44-.01-5.03-2.45.37-2.22,3.52-1.9,5.1-1.59.81.16,1.58.4,2.32.75.4.19.65.32,1.11.25,2.61-.42-.45-3.12-1.38-3.56-2.49-1.17-5.7-.9-8.27-.09-3.54,1.11-6.4,3.42-9.57,5.22-1.74.99-3.74,1.49-5.71,1.72-1.22.15-1.99.22-3.07.24-1.35.02-4.73-.7-3.99-2.78s3.64-1.65,5.29-1.29c.79.18,1.49.49,2.24.79.4.16.69.23,1.13.11.75-.21.98-.73.69-1.43-.88-2.18-4.07-3-6.16-2.76-1.26.15-2.6.41-3.67,1.13-.61.41.84.27,1.12.08,1.58-1.06,4.04-.66,5.58.23.41.24,2.52,1.87,1.71,2.54l.79-.33c.53-.06-.17-.26-.4-.36-.44-.2-.89-.35-1.36-.47-.76-.2-1.54-.34-2.32-.4-1.51-.12-3.15.02-4.5.77-1.18.65-2.25,2-1.28,3.28s3.1,1.58,4.63,1.52c2.81-.12,5.71-.49,8.35-1.52,3.94-1.54,7.01-4.79,11.14-5.95,2.02-.56,4.49-.61,6.4.31.43.21,3,1.98,2.08,2.74l.79-.33c.52-.06-.12-.23-.36-.34-.38-.17-.78-.32-1.18-.43-.68-.2-1.39-.33-2.09-.41-1.49-.18-3.06-.11-4.46.48-1.02.43-2.33,1.39-2.16,2.65.19,1.5,2.19,2.12,3.43,2.3,1.15.17,2.37.04,3.52-.05,1.56-.12,3.11-.59,4.5-1.3,3.56-1.82,6.59-4.82,10.65-5.58,1.9-.36,4.13-.3,5.85.64.41.22,2.67,1.91,1.83,2.61l.79-.33c.53-.06-.17-.26-.4-.36-.44-.2-.89-.35-1.36-.47-.76-.2-1.54-.34-2.32-.4-1.51-.12-3.15.02-4.5.77-1.18.65-2.25,2-1.28,3.28s3.1,1.58,4.63,1.52c2.81-.12,5.71-.49,8.35-1.52,3.94-1.54,7.01-4.79,11.14-5.95,2.02-.56,4.49-.61,6.4.31.43.21,3,1.98,2.08,2.74l.79-.33c.52-.06-.02-.18-.23-.28-.29-.13-.58-.26-.88-.36-.54-.19-1.11-.32-1.67-.42-1.15-.21-2.33-.29-3.49-.13-1.62.23-5.16,1.7-3.67,3.9,1.25,1.84,4.28,1.79,6.2,1.43,1.58-.3,3.15-.64,4.73-.95.59-.12,1.27-.79.26-.58h0Z"/>
  </g>
</svg>