<?xml version="1.0" encoding="UTF-8"?>
<svg id="Layer_1" data-name="Layer 1" xmlns="http://www.w3.org/2000/svg" xmlns:xlink="http://www.w3.org/1999/xlink" viewBox="0 0 278.14 278.14">
  <defs>
    <style>
      .cls-1, .cls-2, .cls-3 {
        fill: none;
      }

      .cls-4 {
        fill: #050505;
      }

      .cls-5 {
        fill: #010101;
      }

      .cls-6 {
        fill: #d78a28;
      }

      .cls-2 {
        stroke-width: .75px;
      }

      .cls-2, .cls-7, .cls-3, .cls-8 {
        stroke-miterlimit: 10;
      }

      .cls-2, .cls-3 {
        stroke-linecap: round;
      }

      .cls-2, .cls-3, .cls-8 {
        stroke: #fff;
      }

      .cls-9 {
        fill: #804841;
      }

      .cls-7 {
        stroke: #926847;
      }

      .cls-7, .cls-10 {
        fill: #926847;
      }

      .cls-11 {
        fill: #f2eef7;
      }

      .cls-12 {
        fill: #914a3b;
      }

      .cls-13 {
        fill: #4f423a;
      }

      .cls-14 {
        fill: #fff;
      }

      .cls-3 {
        stroke-dasharray: 1 2;
      }

      .cls-15 {
        fill: #e2ac91;
      }

      .cls-16 {
        fill: #161312;
      }

      .cls-17 {
        fill: #241f20;
      }

      .cls-8 {
        fill: #dbf1f9;
        stroke-width: .5px;
      }

      .cls-18 {
        fill: #a73028;
      }

      .cls-19 {
        fill: #a38978;
      }

      .cls-20 {
        clip-path: url(#clippath);
      }

      .cls-21 {
        fill: #556b30;
      }
    </style>
    <clipPath id="clippath">
      <circle class="cls-1" cx="138.89" cy="139.58" r="136.76"/>
    </clipPath>
  </defs>
  <g id="Layer_6" data-name="Layer 6">
    <g class="cls-20">
      <g>
        <circle class="cls-8" cx="139.07" cy="139.07" r="136.76"/>
        <circle class="cls-1" cx="139.43" cy="138.93" r="136.76"/>
        <path class="cls-19" d="M194.97,175.54c2.74,1.08,22.27,6.41,27.71,27.19,6.86,26.2,5.34,93.6,5.59,120.41.5,53.48,8.51,69.29,6.42,122.82l-15.9,2.94s-33.44-216.55-43.21-245.65c-9.77-29.1,19.4-27.71,19.4-27.71h0Z"/>
        <path class="cls-19" d="M194.9,174.53s26.62,8.24,29.1,32.29c3.66,35.49,1.66,72.6,1.66,72.6l-26.86-1.07-3.89-103.82h-.01Z"/>
        <path class="cls-19" d="M213.45,331.47c.05,5.5,4.18,28.62,5.54,33.79-4.96,1.6-7.99-.81-13.15.09-22.57,3.93-45.78,1.35-67.94-3.56-18.95-4.2-37.38-10.18-55.7-16.34l.52-1.22-9.6-154.96,15.66-21.96,24.31,4.93,3.19,7.76c6.87,7.78,9.35,3.71,20.27,5.7,6.82,1.25-3.48-7.06,0-7.43,12.65-1.33,36.91-.08,35.69-3.75-1.03-3.1,17.41-4.02,18.78-3.58,9.32,3.01,3.92,15.52,11.65,18.5,0,0,12.8,10.29,14.11,36.39"/>
        <path class="cls-19" d="M206.42,326.55l-122.97-6.04-1.04,22.81-18.74,52.19s-4.97,5.17,51.62,11.43c56.59,6.27,109.05-5.5,109.05-5.5,1.32-19.34-10.88-69.97-10.88-69.97,0,0,1.31-26.13,3.21-32.74s5.45-3.42,6.82-13.52c1.37-10.1-.71-24.64-.71-24.64l-16.14-1.31-.22,67.29h0Z"/>
        <path class="cls-13" d="M216.02,222.39c-2.28,4.79-2.4,10.46-1.17,15.53s2.66,10.57,3.64,15.94c2.58,14.17,3.45,30.71-5.12,43.14-1.12,1.63-2.41,3.15-3.82,4.54-.65.64-1.33,1.26-2.04,1.84-.35.29-.68.45-.8.85-.2.64-.09,1.55-.12,2.2-.08,1.52-.14,3.04-.2,4.56-.38,10.14-.46,20.33.32,30.45.66,8.62,2.55,17.09,4.5,25.49,2.31,9.96,4.73,19.88,6.56,29.94,1.93,10.62,2.89,21.29,3.92,32.02.73,7.59,1.5,15.17,2.3,22.75.05.44.09.89.14,1.33.03.29,1.49.01,1.45-.39-.61-5.75-1.2-11.5-1.77-17.25-1.02-10.22-1.7-20.49-3.23-30.66-1.58-10.55-3.89-20.96-6.33-31.34-2.04-8.69-4.21-17.4-5.44-26.25-1.38-9.95-1.36-20.12-1.16-30.14.07-3.63.2-7.27.39-10.9.03-.59-.12-1.65.12-2.2.14-.32.83-.69,1.14-.96.77-.66,1.5-1.35,2.2-2.08,10.57-11.01,11.24-27.49,9.32-41.78-.82-6.12-2.18-12.14-3.68-18.13-.46-1.84-.97-3.68-1.33-5.55-.68-3.5-.26-7.3.74-10.7.25-.85.53-1.7.91-2.5.11-.24-1.25-.13-1.43.25h-.01Z"/>
        <path class="cls-19" d="M82.67,167.31s-19.46,7.98-32.67,25.32c-13.22,17.34-16.8,77.27-16.8,77.27,0,0,46.8,8.74,69.31,7.65,22.5-1.1-19.84-110.23-19.84-110.23h0Z"/>
        <path class="cls-19" d="M86.12,257.64l-20.46-50.72s-17.78-10.72-25.49,11.64c-6.68,23.92-12.6,99.04-11.63,114.43,1.52,24.17,3.2,55.24,17.87,133.52l17.14-.96,20.67-7.26-12.41-126.93,14.3-73.73h.01Z"/>
        <path class="cls-13" d="M72.09,201.11c7.28,1.32,11.4,8.26,13.66,14.73,2.55,7.3,3.23,15.13,2.94,22.82-.63,16.69-5.45,32.91-9.42,49.03-2.23,9.07-3.85,18.15-5.4,27.35l-2.22,13.18c-.17,1.03-.45,2.09-.53,3.13-.04.59.09,1.18.17,1.77.86,6.58,1.89,13.16,2.59,19.77.41,3.82.7,7.65,1.04,11.48.75,8.2,1.49,16.41,2.24,24.61.89,9.75,1.77,19.49,2.66,29.24.78,8.6,1.57,17.2,2.35,25.8l1.26,13.84.06.65.3-.31c-9.69,4.97-20.49,7.41-31.33,7.92-1.61.08-3.41.32-5.02.1-.24-.03.16.27.13.02-.02-.15-.05-.3-.07-.45l-.74-4.8c-2.08-13.49-4.16-26.97-6.24-40.46-.61-3.97-1.23-7.95-1.84-11.92-.05-.33-1.51-.02-1.45.39,1.01,6.52,2.01,13.05,3.02,19.57,1.6,10.34,3.19,20.69,4.79,31.03.37,2.38.73,4.76,1.1,7.14,0,.09.2.12.26.12,13.08.33,26.56-2.42,38.24-8.41.11-.06.31-.16.3-.31-.3-3.25-.59-6.51-.89-9.76l-2.17-23.82c-.89-9.76-1.78-19.52-2.66-29.28l-2.41-26.45-1.39-15.27c-.48-5.26-1.33-10.5-2.02-15.74l-.72-5.48c-.09-.67-.17-.97-.09-1.49.53-3.41,1.15-6.8,1.72-10.2,1.34-7.95,2.49-15.96,4.2-23.85,3.52-16.26,8.65-32.2,10.78-48.74.99-7.7,1.34-15.56.17-23.26-1.04-6.85-3.21-14.29-7.97-19.53-2.2-2.42-4.99-4.14-8.23-4.72-.36-.06-1.61.51-1.18.59h0v-.03Z"/>
        <path class="cls-12" d="M165.7,158.12s-6.91-1.35-10.78-1.92c-3.87-.57-10.25.36-29.24-11.84,0,0,7.2,16.8,29.68,18.05,0,0,6.76.63,10.39-.65l-.05-3.65h0Z"/>
        <g>
          <path class="cls-2" d="M111.95,176.65s.05.16.13.48"/>
          <path class="cls-3" d="M112.36,178.09c2.86,9.71,20.37,65.68,46.39,74.63,28.51,9.81,33.44-15.23,32.04-37.45-1.25-19.74-3.19-44.04-3.61-49.21"/>
          <path class="cls-2" d="M187.15,165.55c-.03-.32-.04-.49-.04-.49"/>
        </g>
        <g>
          <path class="cls-2" d="M110.76,149.89s.04.16.13.48"/>
          <path class="cls-3" d="M111.15,151.33c2.68,9.73,19.01,65.67,43.29,74.62,26.61,9.81,31.21-15.23,29.9-37.45-1.16-19.74-2.97-44.02-3.36-49.2"/>
          <path class="cls-2" d="M180.94,138.79c-.02-.32-.04-.49-.04-.49"/>
        </g>
        <path class="cls-14" d="M194.2,56.36c3.7,10.04,4.28,21.6,4.45,35.92.56,22.09-3.31,44.06-11.36,64.64l-20.06,14-5.83-9.43c14.2-17.55,26.03-25.68,26.68-48.26.15-5.2,3.96-30.97,3.83-31.66-2.41-13.72-.99-10.15-9.64-17.11-7.06-5.64-28.23-2.04-34.96-.28-5.94,1.54-13.87.38-21.62,13.88-5.12,9.02-7.66,4.87-9.99,20.61l-6.79-58.17,37.04-8.53,25.28,4.97c10.53,2,19.25,9.37,22.97,19.42Z"/>
        <path class="cls-15" d="M193.31,98.33c.13-3.25.85-11.73.86-19.24h0c-.02-7.26-5.35-13.4-11.28-17.73l-1.12-.69c-.06-.04-1.72-.67-1.79-.69-12.7-3.84-22.1-4.5-34.49,1.03-6.05,2.7-13.55,5.23-17.78,10.26-4.4,5.23-8.5,17.38-13.86,21.86-.7-5.81,5.52-16.99,5.44-22.25.01.87.04,1.4.04,1.4-6.53,5.66-8.8,16.89-8.48,20.73.32,3.85-.53,12.19-.53,12.19-1.12-1.39-3.57-4.37-4.26-5.97-.69-1.4-1.48-2.68-2.17-4.09-2.03-3.19-5.13-2.61-7.45-.52l-.38.68c-5.45,5.85,3.27,20.16,5.83,24.32-.22,2,4.6,12.39,11.28,5.21l1.79,6.13,10.88,13.59c8.77,8.57,21.82,14.81,35.18,14.21,9.07-.41,9.73-.82,12.92-4.11,4.84-5,9.95-10.11,13.47-15.91,3.38-5.57,4.83-9.01,6.18-15.41,1.4-6.61,1.32-8.34.4-14.86-.41-2.91-.78-7.33-.67-10.15h-.01Z"/>
        <path class="cls-6" d="M107.97,123.74c-2.08.29-3.84,1.83-4.01,3.99-.08,1.05.25,2.09.91,2.91.52.65,1.12,1,1.91,1.23,1.44.42,2.94.16,4.16-.71.15-.11-.21-.07-.28-.02-1.14.82-2.49.96-3.81.51-.64-.22-1.11-.52-1.55-1.04-1.22-1.42-1.3-3.53-.21-5.06.67-.93,1.69-1.51,2.82-1.66.15-.02.32-.19.06-.15h0Z"/>
        <path class="cls-5" d="M121.08,70.07l-2.72,7.32c-3.16,8.48-5.07,17.41-5.68,26.47l-.17,2.59c-.05.74-.98,1.01-1.39.4l-5.13-7.6s-1.9-27.87,15.11-29.17h-.02Z"/>
        <path class="cls-17" d="M104.01,105.38c-1.59.77-2.04,2.68-2.22,4.29-.19,1.77,0,3.35.81,4.98.54,1.09,1.94,3.38,3.49,2.82,1.38-.5,1.06-2.3.66-3.34-.31-.81-.75-1.57-.98-2.4-.34-1.24.4-1.67,1.61-1.72.03,0,.29-.06.26-.12-1.37-2.91-2.89-5.91-4.88-8.45-.87-1.11-2.05-2.29-3.61-1.97-1.89.39-2.28,2.69-2.3,4.3-.02,2.42.8,4.99,2.19,6.98.06.09.39-.06.36-.1-.89-1.28-1.52-2.82-1.88-4.34-.43-1.8-.82-5.45,1.17-6.57,1.78-1,3.5,1.45,4.32,2.62,1.03,1.47,1.92,3.05,2.76,4.63.52.98,1.03,1.97,1.5,2.97l.26-.12c-.92.04-2.29.22-2.24,1.41.06,1.36,1.11,2.58,1.38,3.91.13.66.12,1.6-.49,2.05-.84.63-2.04-.82-2.47-1.39-1.04-1.41-1.69-3.19-1.66-4.94s.27-4.56,2.14-5.47c.21-.1-.12-.08-.21-.04h.03Z"/>
        <path class="cls-5" d="M158.97,84.65c.02-.12-.48-.76-.47-.88-8.45-1.97-16.57-2.05-18.96-1.8-1.81.18-3.58.66-5.27,1.35,0,0-5.26,3.42-5.85,4.2-.59.78,2.8-.28,2.8-.28.72-.14,1.22-.33,1.96-.39,4.05-.34,7.14-1.16,11.17-.56,3.46.5,10.96,1.69,14.25,2.86.16-1.32.07-3.2.36-4.5h0Z"/>
        <path class="cls-5" d="M194.05,83c-.25-.03-3.89-.64-4.16-.65-2.36-.15-5.53.26-13.63,2.38.14,1.46-.34,3.34-.2,4.81,3.27-1.3,6.57-2.2,10.04-2.83,2.31-.42,5.2-.12,7.95-.31v-3.4h0Z"/>
        <path class="cls-18" d="M167.71,128.13c-5.74,0-15.58-.96-15.58-.96,0,0,2.2,14.02,15.5,14.04s12.99-13.37,12.99-13.37c0,0-7.17.3-12.91.29Z"/>
        <path class="cls-16" d="M167.76,128.13c-2.73,0-12.95-.08-12.95-.08,0,0,2.79,7.94,12.66,7.96,10.69.02,11.33-7.82,11.33-7.82l-11.04-.05h0Z"/>
        <path class="cls-11" d="M167.88,128.54c-2.73,0-11.02-.49-11.02-.49,0,0,2.98,3.04,11.16,3.06,8.18,0,10.78-2.93,10.78-2.93l-10.92.36Z"/>
        <path class="cls-18" d="M181.17,127.45c-.28-.07-.93.14-2.18-.08-2.25-.39-3.28-1.22-4.87-1.35-2.71-.22-4.44.89-5.62.89s-2.9-1.13-5.61-.91c-1.59.12-4.04.67-6.23.86-1.32.12-4.52-.41-4.8-.34-.39.1.54,3.15,15.36,3.18,14.82.03,14.33-2.15,13.94-2.25h0Z"/>
        <path class="cls-14" d="M200.36,175.8s-.4-10.13-16.64-24.15l.54-5.73s-3.74,15.23-25.82,11.95c-18.27-2.73-29.45-15.72-35.03-29.37-9.62-23.54-4.51-61.14,6.44-79.39,10.26-17.1,60.48,14.54,61.13,1.56,0,0-18.79-33.71-56.05-31.22-21.64,1.42-35.96,9.2-48.15,40.5-3.72,10.31-2.79,15.75-5.13,26.55-1.92,9.89-2.18,27.91-.47,40.66.68,5.46,4.21,15.79,7.04,20.31l-5.02,6.65s-7.86,8.35-10.1,18.17h0s29.02,22.01,65.55,15.98c33.33-6.71,37.11-15.58,61.27-11.75"/>
        <path class="cls-10" d="M137.21,162.32c-3.33-2.73-6.91-5.1-10.14-7.98-2.85-2.55-5.57-5.27-8.08-8.16-4.83-5.57-8.93-11.76-12.18-18.38-6.52-13.25-9.67-28.08-9.2-42.83.14-4.43.63-8.85,1.38-13.22.42-2.44.93-4.86,1.54-7.26s1.45-4.86,2-7.34c.12-.53-1.27-.11-1.44.21-.2.37-.34.72-.47,1.12-.13.43,1.3.23,1.44-.21.13-.4.27-.75.47-1.12l-1.44.21c-.97,4.35-2.41,8.56-3.24,12.95-.76,4.01-1.29,8.06-1.55,12.13-.46,7.42-.03,14.9,1.31,22.22,2.64,14.43,8.81,28.2,18.02,39.64,2.67,3.32,5.61,6.42,8.72,9.33,1.81,1.68,3.69,3.29,5.63,4.82s3.98,2.85,5.88,4.41c.36.29,1.69-.27,1.35-.54h0Z"/>
        <path class="cls-10" d="M119.62,85.24c.31-3.55.98-7.09,1.79-10.56,1.51-6.51,3.69-13.15,7.57-18.66,2.3-3.26,5.15-5.48,8.59-7.46,4.92-2.83,10.31-5.02,15.97-5.78,10.24-1.38,20.03,2.47,27.37,9.56,4.06,3.92,7.75,8.87,9.86,14.16.13.32,1.55-.14,1.45-.39-1.88-4.71-5.05-9.12-8.51-12.79-6.93-7.38-16.37-11.87-26.6-11.36-5.07.25-10.04,1.6-14.69,3.59-4.23,1.81-8.75,4.06-12.04,7.35-5.04,5.04-7.76,12.15-9.6,18.9-1.23,4.5-2.19,9.17-2.6,13.83-.01.16,1.41.03,1.45-.39h-.01Z"/>
        <path class="cls-7" d="M94.02,151.07c1.76,2.05,3.81,3.89,5.86,5.63,4.77,4.04,10.07,7.49,15.78,10.03,7.28,3.23,14.84,4.48,22.78,4.33s16.2-1.45,24.25-2.8c7.64-1.28,15.47-2.44,23.08-.33.13.04.64-.18.48-.23-6.13-1.7-12.46-1.32-18.68-.42-7.88,1.14-15.66,2.76-23.61,3.31-4.7.32-9.5.46-14.18-.16-3.79-.51-7.51-1.5-11.07-2.88-6.12-2.36-11.79-5.82-16.89-9.92-2.56-2.06-5.09-4.27-7.24-6.76-.09-.11-.64.09-.55.2h-.01Z"/>
        <path class="cls-10" d="M200.65,176.33c-.02-3.04-1.53-6.26-2.86-8.9-1.8-3.55-4.09-6.86-6.6-9.94-.34-.42-.76-.83-1.07-1.28-.41-.61-.32-.83-.16-1.48.23-.91.47-1.83.7-2.74.46-1.84.91-3.68,1.35-5.53,1.96-8.23,3.71-16.51,5.08-24.85,1.29-7.87,2.33-15.85,2.34-23.84,0-9.3-.75-18.64-2.28-27.81-1.23-7.39-2.78-15.02-6.6-21.56-2.99-5.12-7.03-9.72-11.39-13.7-8.98-8.22-20.21-13.78-32.33-15.3-6.57-.82-13.24-.4-19.78.46-5.05.67-10.08,1.79-14.71,3.96-11.37,5.31-18.09,16.38-22.92,27.5-2.85,6.57-4.86,13.23-6.23,20.26-1.47,7.55-2.43,15.21-3.05,22.88-.55,6.82-.88,13.7-.52,20.54.19,3.73.45,7.46.73,11.19.24,3.16.6,6.32,1.46,9.38.98,3.47,2.56,6.74,4.35,9.87.28.49.54,1.01.86,1.47.06.09.5.65.5.61,0,.09-.23.26-.27.34-.36.6-.9,1.15-1.33,1.7-3.64,4.73-7.12,9.65-10.04,14.86-1.42,2.53-2.76,5.17-3.51,7.98-.12.44,1.32.23,1.44-.21,1.54-5.75,5.14-11.01,8.48-15.85,2.09-3.03,4.27-6.02,6.59-8.88.05-.05.07-.11.06-.18-3.31-5.44-5.9-11.05-6.74-17.41-.41-3.15-.55-6.32-.75-9.49s-.44-6.07-.49-9.11c-.23-13.31,1.13-26.85,3.68-39.91,1.17-5.98,2.75-11.77,5.04-17.42,2.53-6.24,5.5-12.4,9.49-17.84,2.95-4.02,6.51-7.63,10.8-10.22,3.86-2.33,8.15-3.76,12.56-4.62,11.6-2.27,23.89-2.37,35.11,1.65,9.29,3.33,17.55,9.14,24.22,16.37,3.4,3.69,6.52,7.75,8.73,12.28,3.25,6.66,4.51,14.48,5.57,21.75,1.19,8.16,1.81,16.44,1.82,24.69,0,7.24-.87,14.49-1.98,21.63-1.17,7.53-2.68,15.02-4.36,22.45-.77,3.38-1.58,6.76-2.42,10.12-.19.76-.38,1.51-.58,2.27-.17.68-.51,1.31-.2,1.91.47.89,1.47,1.74,2.1,2.55.66.84,1.31,1.7,1.93,2.57,2.85,4.01,5.5,8.57,6.49,13.45.12.58.23,1.18.24,1.77,0,.37,1.45.12,1.45-.39h0Z"/>
        <path class="cls-9" d="M173.16,98.23c-.47,1.7-.11,3.63.23,5.32.46,2.31,1.15,4.58,1.88,6.83.63,1.93,1.33,3.85,2.01,5.76.18.49.44,1.04.52,1.56.13.82-.77,1.6-1.58,1.93-1.22.49-2.62.65-3.92.72-1.59.09-3.49.13-4.96-.59-.41-.2-1.45.37-.9.64,2.44,1.19,5.85.95,8.42.4,1.54-.33,4.35-1.22,4.13-3.29-.06-.53-.35-1.1-.53-1.6-.34-.95-.68-1.89-1.01-2.83-.88-2.5-1.72-5.02-2.38-7.59-.58-2.26-1.38-5.03-.74-7.35.14-.51-1.04-.37-1.17.11h0v-.02Z"/>
        <path class="cls-9" d="M162.31,115.22c-.66.12-1.29.51-1.69,1.04-.45.6-.6,1.3-.58,2.04s.25,1.38.86,1.85,1.37.59,2.09.68c.93.11,1.87.15,2.79-.08.23-.06.55-.27.47-.55s-.46-.29-.68-.24c-.76.19-1.55.11-2.32.01-.68-.09-1.38-.24-1.79-.84-.19-.29-.24-.64-.25-.98,0-.37,0-.76.14-1.11.1-.28.26-.53.48-.73s.41-.27.69-.32c.23-.04.55-.28.47-.55-.08-.29-.46-.28-.68-.24h0v.02Z"/>
        <path class="cls-14" d="M154.23,100.63s-8.29,4.16-14.97.96c-2.4-1.15-3.56-2.73-2.65-5.11,1.81-4.74,7.85-4.98,11.31-3.85,3.75,1.23,6.55,3.48,6.32,7.99h-.01Z"/>
        <g>
          <path class="cls-21" d="M151.14,96.07c.81,3-1.09,4.98-4.28,5.65s-6.48-.22-7.29-3.22.42-5.71,3.61-6.38,7.15.95,7.96,3.95h0Z"/>
          <path class="cls-4" d="M148.33,96.37c.45,1.66-.63,3.31-2.4,3.69-1.77.37-3.57-.67-4.02-2.34-.45-1.66.63-3.31,2.4-3.69,1.77-.37,3.57.67,4.02,2.34Z"/>
        </g>
        <path class="cls-14" d="M175.66,100s7.52,4.58,14.46,1.91c2.49-.96,3.79-2.44,3.09-4.89-1.38-4.87-7.38-5.57-10.93-4.72-3.85.93-6.45,3.17-6.62,7.69h0Z"/>
        <g>
          <path class="cls-21" d="M178.77,95.48c-1.07,2.93.64,5.05,3.77,5.96,3.12.92,6.48.29,7.55-2.64s.09-5.72-3.04-6.64c-3.12-.92-7.21.39-8.28,3.32h0Z"/>
          <path class="cls-4" d="M181.54,96c-.59,1.62.33,3.35,2.07,3.86,1.73.51,3.62-.39,4.21-2.02.59-1.62-.33-3.35-2.07-3.86-1.73-.51-3.62.39-4.21,2.02Z"/>
        </g>
        <ellipse class="cls-14" cx="143.49" cy="95.88" rx=".7" ry=".66"/>
        <path class="cls-5" d="M154.05,97.91s-4.06-5.15-11.28-4.26-6.42,4.88-6.42,4.88c0,0-1.33-4.76,3.85-6.64,3.72-1.35,11.17-1.88,13.85,6.03h0Z"/>
        <path class="cls-5" d="M176.04,97.59s3.26-4.79,10.72-3.9,6.63,4.88,6.63,4.88c0,0,1.38-4.76-3.97-6.64-3.85-1.35-11.76-1.51-13.37,5.67h-.01Z"/>
        <path class="cls-5" d="M136.4,97.89s-3.99-.83-4.82-3.46c0,0,2.88,1.78,6.69-1.15,0,0-1.89,2.86-1.88,3.74v.87h.01Z"/>
        <ellipse class="cls-14" cx="183.47" cy="95.78" rx=".7" ry=".66"/>
      </g>
    </g>
  </g>
</svg>