<?xml version="1.0" encoding="UTF-8"?>
<svg id="Layer_1" xmlns="http://www.w3.org/2000/svg" xmlns:xlink="http://www.w3.org/1999/xlink" version="1.1" viewBox="0 0 278.1 278.1">
  <!-- Generator: Adobe Illustrator 29.0.0, SVG Export Plug-In . SVG Version: 2.1.0 Build 186)  -->
  <defs>
    <style>
      .st0, .st1, .st2 {
        fill: none;
      }

      .st3 {
        fill: #050505;
      }

      .st4 {
        fill: #010101;
      }

      .st5 {
        fill: #d78a28;
      }

      .st1 {
        stroke-width: .8px;
      }

      .st1, .st6, .st2, .st7, .st8 {
        stroke-miterlimit: 10;
      }

      .st1, .st2 {
        stroke-linecap: round;
      }

      .st1, .st2, .st7 {
        stroke: #fff;
      }

      .st9 {
        fill: #804841;
      }

      .st10 {
        fill: #6d2538;
      }

      .st6 {
        stroke: #926847;
      }

      .st6, .st11 {
        fill: #926847;
      }

      .st12 {
        fill: #f2eef7;
      }

      .st13 {
        fill: #914a3b;
      }

      .st14 {
        fill: #4f423a;
      }

      .st15 {
        clip-path: url(#clippath-1);
      }

      .st16 {
        fill: #fff;
      }

      .st17, .st8 {
        fill: #914974;
      }

      .st2 {
        stroke-dasharray: 1 2;
      }

      .st18 {
        fill: #e29ab2;
      }

      .st19 {
        fill: #e2ac91;
      }

      .st20 {
        fill: #161312;
      }

      .st21 {
        fill: #241f20;
      }

      .st7 {
        fill: #dbf1f9;
        stroke-width: .5px;
      }

      .st8 {
        stroke: #914974;
      }

      .st22 {
        fill: #a73028;
      }

      .st23 {
        fill: #a38978;
      }

      .st24 {
        clip-path: url(#clippath);
      }

      .st25 {
        fill: #556b30;
      }
    </style>
    <clipPath id="clippath">
      <circle class="st0" cx="138.9" cy="139.6" r="136.8"/>
    </clipPath>
    <clipPath id="clippath-1">
      <circle class="st0" cx="-214.3" cy="139.6" r="136.8"/>
    </clipPath>
  </defs>
  <g id="Layer_6">
    <g class="st24">
      <g>
        <circle class="st7" cx="139.1" cy="139.1" r="136.8"/>
        <circle class="st0" cx="139.4" cy="138.9" r="136.8"/>
        <path class="st18" d="M195,175.5c2.7,1.1,22.3,6.4,27.7,27.2,6.9,26.2,5.3,93.6,5.6,120.4.5,53.5,8.5,69.3,6.4,122.8l-15.9,2.9s-33.4-216.6-43.2-245.6c-9.8-29.1,19.4-27.7,19.4-27.7h0Z"/>
        <path class="st18" d="M194.9,174.5s26.6,8.2,29.1,32.3c3.7,35.5,1.7,72.6,1.7,72.6l-26.9-1.1-3.9-103.8h0Z"/>
        <path class="st18" d="M213.4,331.5c0,5.5,4.2,28.6,5.5,33.8-5,1.6-8-.8-13.1,0-22.6,3.9-45.8,1.4-67.9-3.6-18.9-4.2-37.4-10.2-55.7-16.3l.5-1.2-9.6-155,15.7-22,24.3,4.9,3.2,7.8c6.9,7.8,9.3,3.7,20.3,5.7,6.8,1.2-3.5-7.1,0-7.4,12.6-1.3,36.9,0,35.7-3.8-1-3.1,17.4-4,18.8-3.6,9.3,3,3.9,15.5,11.6,18.5,0,0,12.8,10.3,14.1,36.4"/>
        <path class="st23" d="M206.4,326.5l-123-6-1,22.8-18.7,52.2s-5,5.2,51.6,11.4c56.6,6.3,109.1-5.5,109.1-5.5,1.3-19.3-10.9-70-10.9-70,0,0,1.3-26.1,3.2-32.7s5.4-3.4,6.8-13.5c1.4-10.1-.7-24.6-.7-24.6l-16.1-1.3-.2,67.3h0Z"/>
        <path class="st10" d="M216,222.4c-2.3,4.8-2.4,10.5-1.2,15.5s2.7,10.6,3.6,15.9c2.6,14.2,3.4,30.7-5.1,43.1-1.1,1.6-2.4,3.1-3.8,4.5-.6.6-1.3,1.3-2,1.8-.4.3-.7.5-.8.9-.2.6,0,1.5-.1,2.2,0,1.5-.1,3-.2,4.6-.4,10.1-.5,20.3.3,30.5.7,8.6,2.6,17.1,4.5,25.5,2.3,10,4.7,19.9,6.6,29.9,1.9,10.6,2.9,21.3,3.9,32,.7,7.6,1.5,15.2,2.3,22.8,0,.4,0,.9.1,1.3,0,.3,1.5,0,1.4-.4-.6-5.8-1.2-11.5-1.8-17.2-1-10.2-1.7-20.5-3.2-30.7-1.6-10.5-3.9-21-6.3-31.3-2-8.7-4.2-17.4-5.4-26.2-1.4-10-1.4-20.1-1.2-30.1,0-3.6.2-7.3.4-10.9,0-.6-.1-1.6.1-2.2.1-.3.8-.7,1.1-1,.8-.7,1.5-1.4,2.2-2.1,10.6-11,11.2-27.5,9.3-41.8-.8-6.1-2.2-12.1-3.7-18.1-.5-1.8-1-3.7-1.3-5.6-.7-3.5-.3-7.3.7-10.7.2-.9.5-1.7.9-2.5.1-.2-1.2-.1-1.4.2h0Z"/>
        <path class="st18" d="M82.7,167.3s-19.5,8-32.7,25.3c-13.2,17.3-16.8,77.3-16.8,77.3,0,0,46.8,8.7,69.3,7.6,22.5-1.1-19.8-110.2-19.8-110.2h0Z"/>
        <path class="st18" d="M86.1,257.6l-20.5-50.7s-17.8-10.7-25.5,11.6c-6.7,23.9-12.6,99-11.6,114.4,1.5,24.2,3.2,55.2,17.9,133.5l17.1-1,20.7-7.3-12.4-126.9,14.3-73.7h0Z"/>
        <path class="st10" d="M72.1,201.1c7.3,1.3,11.4,8.3,13.7,14.7,2.6,7.3,3.2,15.1,2.9,22.8-.6,16.7-5.4,32.9-9.4,49-2.2,9.1-3.8,18.1-5.4,27.4l-2.2,13.2c-.2,1-.4,2.1-.5,3.1,0,.6,0,1.2.2,1.8.9,6.6,1.9,13.2,2.6,19.8.4,3.8.7,7.6,1,11.5.8,8.2,1.5,16.4,2.2,24.6.9,9.8,1.8,19.5,2.7,29.2.8,8.6,1.6,17.2,2.3,25.8l1.3,13.8v.6c0,0,.4-.3.4-.3-9.7,5-20.5,7.4-31.3,7.9-1.6,0-3.4.3-5,.1-.2,0,.2.3.1,0,0-.1,0-.3,0-.5l-.7-4.8c-2.1-13.5-4.2-27-6.2-40.5-.6-4-1.2-8-1.8-11.9,0-.3-1.5,0-1.5.4,1,6.5,2,13,3,19.6,1.6,10.3,3.2,20.7,4.8,31,.4,2.4.7,4.8,1.1,7.1,0,0,.2.1.3.1,13.1.3,26.6-2.4,38.2-8.4.1,0,.3-.2.3-.3-.3-3.2-.6-6.5-.9-9.8l-2.2-23.8c-.9-9.8-1.8-19.5-2.7-29.3l-2.4-26.5-1.4-15.3c-.5-5.3-1.3-10.5-2-15.7l-.7-5.5c0-.7-.2-1,0-1.5.5-3.4,1.2-6.8,1.7-10.2,1.3-8,2.5-16,4.2-23.9,3.5-16.3,8.7-32.2,10.8-48.7,1-7.7,1.3-15.6.2-23.3-1-6.9-3.2-14.3-8-19.5-2.2-2.4-5-4.1-8.2-4.7-.4,0-1.6.5-1.2.6h0Z"/>
        <path class="st13" d="M165.7,158.1s-6.9-1.4-10.8-1.9c-3.9-.6-10.2.4-29.2-11.8,0,0,7.2,16.8,29.7,18.1,0,0,6.8.6,10.4-.6v-3.6c0,0,0,0,0,0Z"/>
        <g>
          <path class="st1" d="M111.9,176.6s0,.2.1.5"/>
          <path class="st2" d="M112.4,178.1c2.9,9.7,20.4,65.7,46.4,74.6,28.5,9.8,33.4-15.2,32-37.4-1.2-19.7-3.2-44-3.6-49.2"/>
          <path class="st1" d="M187.1,165.6c0-.3,0-.5,0-.5"/>
        </g>
        <g>
          <path class="st1" d="M110.8,149.9s0,.2.1.5"/>
          <path class="st2" d="M111.2,151.3c2.7,9.7,19,65.7,43.3,74.6,26.6,9.8,31.2-15.2,29.9-37.4-1.2-19.7-3-44-3.4-49.2"/>
          <path class="st1" d="M180.9,138.8c0-.3,0-.5,0-.5"/>
        </g>
        <path class="st16" d="M194.2,56.4c3.7,10,4.3,21.6,4.4,35.9.6,22.1-3.3,44.1-11.4,64.6l-20.1,14-5.8-9.4c14.2-17.6,26-25.7,26.7-48.3.1-5.2,4-31,3.8-31.7-2.4-13.7-1-10.2-9.6-17.1-7.1-5.6-28.2-2-35-.3-5.9,1.5-13.9.4-21.6,13.9-5.1,9-7.7,4.9-10,20.6l-6.8-58.2,37-8.5,25.3,5c10.5,2,19.2,9.4,23,19.4Z"/>
        <path class="st19" d="M193.3,98.3c.1-3.2.9-11.7.9-19.2h0c0-7.3-5.4-13.4-11.3-17.7l-1.1-.7c0,0-1.7-.7-1.8-.7-12.7-3.8-22.1-4.5-34.5,1-6.1,2.7-13.6,5.2-17.8,10.3-4.4,5.2-8.5,17.4-13.9,21.9-.7-5.8,5.5-17,5.4-22.2,0,.9,0,1.4,0,1.4-6.5,5.7-8.8,16.9-8.5,20.7.3,3.8-.5,12.2-.5,12.2-1.1-1.4-3.6-4.4-4.3-6-.7-1.4-1.5-2.7-2.2-4.1-2-3.2-5.1-2.6-7.4-.5l-.4.7c-5.4,5.8,3.3,20.2,5.8,24.3-.2,2,4.6,12.4,11.3,5.2l1.8,6.1,10.9,13.6c8.8,8.6,21.8,14.8,35.2,14.2,9.1-.4,9.7-.8,12.9-4.1,4.8-5,9.9-10.1,13.5-15.9,3.4-5.6,4.8-9,6.2-15.4,1.4-6.6,1.3-8.3.4-14.9-.4-2.9-.8-7.3-.7-10.2h0Z"/>
        <path class="st5" d="M108,123.7c-2.1.3-3.8,1.8-4,4,0,1.1.2,2.1.9,2.9.5.6,1.1,1,1.9,1.2,1.4.4,2.9.2,4.2-.7.2-.1-.2,0-.3,0-1.1.8-2.5,1-3.8.5-.6-.2-1.1-.5-1.6-1-1.2-1.4-1.3-3.5-.2-5.1.7-.9,1.7-1.5,2.8-1.7.2,0,.3-.2,0-.2h0Z"/>
        <path class="st4" d="M121.1,70.1l-2.7,7.3c-3.2,8.5-5.1,17.4-5.7,26.5l-.2,2.6c0,.7-1,1-1.4.4l-5.1-7.6s-1.9-27.9,15.1-29.2h0Z"/>
        <path class="st21" d="M104,105.4c-1.6.8-2,2.7-2.2,4.3-.2,1.8,0,3.3.8,5,.5,1.1,1.9,3.4,3.5,2.8,1.4-.5,1.1-2.3.7-3.3-.3-.8-.8-1.6-1-2.4-.3-1.2.4-1.7,1.6-1.7,0,0,.3,0,.3-.1-1.4-2.9-2.9-5.9-4.9-8.4-.9-1.1-2.1-2.3-3.6-2-1.9.4-2.3,2.7-2.3,4.3,0,2.4.8,5,2.2,7,0,0,.4,0,.4,0-.9-1.3-1.5-2.8-1.9-4.3-.4-1.8-.8-5.4,1.2-6.6,1.8-1,3.5,1.4,4.3,2.6,1,1.5,1.9,3.1,2.8,4.6.5,1,1,2,1.5,3h.3c-.9,0-2.3,0-2.2,1.3,0,1.4,1.1,2.6,1.4,3.9.1.7.1,1.6-.5,2.1-.8.6-2-.8-2.5-1.4-1-1.4-1.7-3.2-1.7-4.9s.3-4.6,2.1-5.5c.2,0-.1,0-.2,0h0Z"/>
        <path class="st4" d="M159,84.7c0-.1-.5-.8-.5-.9-8.4-2-16.6-2.1-19-1.8-1.8.2-3.6.7-5.3,1.3,0,0-5.3,3.4-5.9,4.2-.6.8,2.8-.3,2.8-.3.7-.1,1.2-.3,2-.4,4.1-.3,7.1-1.2,11.2-.6,3.5.5,11,1.7,14.2,2.9.2-1.3,0-3.2.4-4.5h0Z"/>
        <path class="st4" d="M194.1,83c-.2,0-3.9-.6-4.2-.7-2.4-.2-5.5.3-13.6,2.4.1,1.5-.3,3.3-.2,4.8,3.3-1.3,6.6-2.2,10-2.8,2.3-.4,5.2-.1,7.9-.3v-3.4h0Z"/>
        <path class="st22" d="M167.7,128.1c-5.7,0-15.6-1-15.6-1,0,0,2.2,14,15.5,14s13-13.4,13-13.4c0,0-7.2.3-12.9.3Z"/>
        <path class="st20" d="M167.8,128.1c-2.7,0-12.9,0-12.9,0,0,0,2.8,7.9,12.7,8,10.7,0,11.3-7.8,11.3-7.8h-11c0,0,0,0,0,0Z"/>
        <path class="st12" d="M167.9,128.5c-2.7,0-11-.5-11-.5,0,0,3,3,11.2,3.1,8.2,0,10.8-2.9,10.8-2.9l-10.9.4Z"/>
        <path class="st22" d="M181.2,127.4c-.3,0-.9.1-2.2,0-2.2-.4-3.3-1.2-4.9-1.3-2.7-.2-4.4.9-5.6.9s-2.9-1.1-5.6-.9c-1.6.1-4,.7-6.2.9-1.3.1-4.5-.4-4.8-.3-.4,0,.5,3.2,15.4,3.2,14.8,0,14.3-2.2,13.9-2.2h0Z"/>
        <path class="st16" d="M200.4,175.8s-.4-10.1-16.6-24.1l.5-5.7s-3.7,15.2-25.8,11.9c-18.3-2.7-29.4-15.7-35-29.4-9.6-23.5-4.5-61.1,6.4-79.4,10.3-17.1,60.5,14.5,61.1,1.6,0,0-18.8-33.7-56.1-31.2-21.6,1.4-36,9.2-48.2,40.5-3.7,10.3-2.8,15.8-5.1,26.5-1.9,9.9-2.2,27.9-.5,40.7.7,5.5,4.2,15.8,7,20.3l-5,6.6s-7.9,8.4-10.1,18.2h0s29,22,65.6,16c33.3-6.7,37.1-15.6,61.3-11.8"/>
        <path class="st17" d="M137.2,162.3c-3.3-2.7-6.9-5.1-10.1-8-2.8-2.6-5.6-5.3-8.1-8.2-4.8-5.6-8.9-11.8-12.2-18.4-6.5-13.2-9.7-28.1-9.2-42.8.1-4.4.6-8.8,1.4-13.2.4-2.4.9-4.9,1.5-7.3s1.4-4.9,2-7.3c.1-.5-1.3-.1-1.4.2-.2.4-.3.7-.5,1.1-.1.4,1.3.2,1.4-.2.1-.4.3-.8.5-1.1l-1.4.2c-1,4.3-2.4,8.6-3.2,13-.8,4-1.3,8.1-1.6,12.1-.5,7.4,0,14.9,1.3,22.2,2.6,14.4,8.8,28.2,18,39.6,2.7,3.3,5.6,6.4,8.7,9.3,1.8,1.7,3.7,3.3,5.6,4.8s4,2.9,5.9,4.4c.4.3,1.7-.3,1.4-.5h0Z"/>
        <path class="st17" d="M119.6,85.2c.3-3.6,1-7.1,1.8-10.6,1.5-6.5,3.7-13.2,7.6-18.7,2.3-3.3,5.1-5.5,8.6-7.5,4.9-2.8,10.3-5,16-5.8,10.2-1.4,20,2.5,27.4,9.6,4.1,3.9,7.8,8.9,9.9,14.2.1.3,1.6-.1,1.4-.4-1.9-4.7-5.1-9.1-8.5-12.8-6.9-7.4-16.4-11.9-26.6-11.4-5.1.2-10,1.6-14.7,3.6-4.2,1.8-8.8,4.1-12,7.3-5,5-7.8,12.1-9.6,18.9-1.2,4.5-2.2,9.2-2.6,13.8,0,.2,1.4,0,1.4-.4h0Z"/>
        <path class="st8" d="M94,151.1c1.8,2.1,3.8,3.9,5.9,5.6,4.8,4,10.1,7.5,15.8,10,7.3,3.2,14.8,4.5,22.8,4.3s16.2-1.4,24.2-2.8c7.6-1.3,15.5-2.4,23.1-.3.1,0,.6-.2.5-.2-6.1-1.7-12.5-1.3-18.7-.4-7.9,1.1-15.7,2.8-23.6,3.3-4.7.3-9.5.5-14.2-.2-3.8-.5-7.5-1.5-11.1-2.9-6.1-2.4-11.8-5.8-16.9-9.9-2.6-2.1-5.1-4.3-7.2-6.8,0-.1-.6,0-.6.2h0Z"/>
        <path class="st17" d="M200.6,176.3c0-3-1.5-6.3-2.9-8.9-1.8-3.6-4.1-6.9-6.6-9.9-.3-.4-.8-.8-1.1-1.3-.4-.6-.3-.8-.2-1.5.2-.9.5-1.8.7-2.7.5-1.8.9-3.7,1.4-5.5,2-8.2,3.7-16.5,5.1-24.8,1.3-7.9,2.3-15.8,2.3-23.8,0-9.3-.8-18.6-2.3-27.8-1.2-7.4-2.8-15-6.6-21.6-3-5.1-7-9.7-11.4-13.7-9-8.2-20.2-13.8-32.3-15.3-6.6-.8-13.2-.4-19.8.5-5.1.7-10.1,1.8-14.7,4-11.4,5.3-18.1,16.4-22.9,27.5-2.8,6.6-4.9,13.2-6.2,20.3-1.5,7.6-2.4,15.2-3.1,22.9-.6,6.8-.9,13.7-.5,20.5.2,3.7.4,7.5.7,11.2.2,3.2.6,6.3,1.5,9.4,1,3.5,2.6,6.7,4.3,9.9.3.5.5,1,.9,1.5,0,0,.5.6.5.6,0,0-.2.3-.3.3-.4.6-.9,1.1-1.3,1.7-3.6,4.7-7.1,9.6-10,14.9-1.4,2.5-2.8,5.2-3.5,8-.1.4,1.3.2,1.4-.2,1.5-5.8,5.1-11,8.5-15.9,2.1-3,4.3-6,6.6-8.9,0,0,0-.1,0-.2-3.3-5.4-5.9-11.1-6.7-17.4-.4-3.2-.6-6.3-.8-9.5s-.4-6.1-.5-9.1c-.2-13.3,1.1-26.8,3.7-39.9,1.2-6,2.8-11.8,5-17.4,2.5-6.2,5.5-12.4,9.5-17.8,2.9-4,6.5-7.6,10.8-10.2,3.9-2.3,8.2-3.8,12.6-4.6,11.6-2.3,23.9-2.4,35.1,1.6,9.3,3.3,17.6,9.1,24.2,16.4,3.4,3.7,6.5,7.8,8.7,12.3,3.2,6.7,4.5,14.5,5.6,21.7,1.2,8.2,1.8,16.4,1.8,24.7,0,7.2-.9,14.5-2,21.6-1.2,7.5-2.7,15-4.4,22.5-.8,3.4-1.6,6.8-2.4,10.1-.2.8-.4,1.5-.6,2.3-.2.7-.5,1.3-.2,1.9.5.9,1.5,1.7,2.1,2.6.7.8,1.3,1.7,1.9,2.6,2.9,4,5.5,8.6,6.5,13.4.1.6.2,1.2.2,1.8,0,.4,1.4.1,1.4-.4h0Z"/>
        <path class="st9" d="M173.2,98.2c-.5,1.7-.1,3.6.2,5.3.5,2.3,1.1,4.6,1.9,6.8.6,1.9,1.3,3.8,2,5.8.2.5.4,1,.5,1.6.1.8-.8,1.6-1.6,1.9-1.2.5-2.6.7-3.9.7-1.6,0-3.5.1-5-.6-.4-.2-1.4.4-.9.6,2.4,1.2,5.9.9,8.4.4,1.5-.3,4.4-1.2,4.1-3.3,0-.5-.4-1.1-.5-1.6-.3-.9-.7-1.9-1-2.8-.9-2.5-1.7-5-2.4-7.6-.6-2.3-1.4-5-.7-7.3.1-.5-1-.4-1.2.1h0Z"/>
        <path class="st9" d="M162.3,115.2c-.7.1-1.3.5-1.7,1-.4.6-.6,1.3-.6,2s.2,1.4.9,1.8,1.4.6,2.1.7c.9.1,1.9.2,2.8,0,.2,0,.6-.3.5-.6s-.5-.3-.7-.2c-.8.2-1.6.1-2.3,0-.7,0-1.4-.2-1.8-.8-.2-.3-.2-.6-.2-1,0-.4,0-.8.1-1.1.1-.3.3-.5.5-.7s.4-.3.7-.3c.2,0,.6-.3.5-.6,0-.3-.5-.3-.7-.2h0Z"/>
        <path class="st16" d="M154.2,100.6s-8.3,4.2-15,1c-2.4-1.2-3.6-2.7-2.6-5.1,1.8-4.7,7.9-5,11.3-3.8,3.8,1.2,6.6,3.5,6.3,8h0Z"/>
        <g>
          <path class="st25" d="M151.1,96.1c.8,3-1.1,5-4.3,5.7s-6.5-.2-7.3-3.2.4-5.7,3.6-6.4,7.1.9,8,3.9h0Z"/>
          <path class="st3" d="M148.3,96.4c.4,1.7-.6,3.3-2.4,3.7-1.8.4-3.6-.7-4-2.3-.4-1.7.6-3.3,2.4-3.7,1.8-.4,3.6.7,4,2.3Z"/>
        </g>
        <path class="st16" d="M175.7,100s7.5,4.6,14.5,1.9c2.5-1,3.8-2.4,3.1-4.9-1.4-4.9-7.4-5.6-10.9-4.7-3.9.9-6.4,3.2-6.6,7.7h0Z"/>
        <g>
          <path class="st25" d="M178.8,95.5c-1.1,2.9.6,5.1,3.8,6,3.1.9,6.5.3,7.6-2.6s0-5.7-3-6.6c-3.1-.9-7.2.4-8.3,3.3h0Z"/>
          <path class="st3" d="M181.5,96c-.6,1.6.3,3.3,2.1,3.9,1.7.5,3.6-.4,4.2-2,.6-1.6-.3-3.3-2.1-3.9-1.7-.5-3.6.4-4.2,2Z"/>
        </g>
        <ellipse class="st16" cx="143.5" cy="95.9" rx=".7" ry=".7"/>
        <path class="st4" d="M154.1,97.9s-4.1-5.2-11.3-4.3-6.4,4.9-6.4,4.9c0,0-1.3-4.8,3.9-6.6,3.7-1.3,11.2-1.9,13.9,6h0Z"/>
        <path class="st4" d="M176,97.6s3.3-4.8,10.7-3.9,6.6,4.9,6.6,4.9c0,0,1.4-4.8-4-6.6-3.9-1.3-11.8-1.5-13.4,5.7h0Z"/>
        <path class="st4" d="M136.4,97.9s-4-.8-4.8-3.5c0,0,2.9,1.8,6.7-1.2,0,0-1.9,2.9-1.9,3.7v.9h0Z"/>
        <ellipse class="st16" cx="183.5" cy="95.8" rx=".7" ry=".7"/>
      </g>
    </g>
  </g>
  <g id="Layer_61" data-name="Layer_6">
    <g class="st15">
      <g>
        <circle class="st7" cx="-214.2" cy="139.1" r="136.8"/>
        <circle class="st0" cx="-213.8" cy="138.9" r="136.8"/>
        <path class="st23" d="M-158.3,175.5c2.7,1.1,22.3,6.4,27.7,27.2,6.9,26.2,5.3,93.6,5.6,120.4.5,53.5,8.5,69.3,6.4,122.8l-15.9,2.9s-33.4-216.6-43.2-245.6c-9.8-29.1,19.4-27.7,19.4-27.7h0Z"/>
        <path class="st23" d="M-158.3,174.5s26.6,8.2,29.1,32.3c3.7,35.5,1.7,72.6,1.7,72.6l-26.9-1.1-3.9-103.8h0Z"/>
        <path class="st23" d="M-139.8,331.5c0,5.5,4.2,28.6,5.5,33.8-5,1.6-8-.8-13.1,0-22.6,3.9-45.8,1.4-67.9-3.6-18.9-4.2-37.4-10.2-55.7-16.3l.5-1.2-9.6-155,15.7-22,24.3,4.9,3.2,7.8c6.9,7.8,9.3,3.7,20.3,5.7,6.8,1.2-3.5-7.1,0-7.4,12.6-1.3,36.9,0,35.7-3.8-1-3.1,17.4-4,18.8-3.6,9.3,3,3.9,15.5,11.6,18.5,0,0,12.8,10.3,14.1,36.4"/>
        <path class="st23" d="M-146.8,326.5l-123-6-1,22.8-18.7,52.2s-5,5.2,51.6,11.4c56.6,6.3,109.1-5.5,109.1-5.5,1.3-19.3-10.9-70-10.9-70,0,0,1.3-26.1,3.2-32.7s5.4-3.4,6.8-13.5c1.4-10.1-.7-24.6-.7-24.6l-16.1-1.3-.2,67.3h0Z"/>
        <path class="st14" d="M-137.2,222.4c-2.3,4.8-2.4,10.5-1.2,15.5s2.7,10.6,3.6,15.9c2.6,14.2,3.4,30.7-5.1,43.1-1.1,1.6-2.4,3.1-3.8,4.5-.6.6-1.3,1.3-2,1.8-.4.3-.7.5-.8.9-.2.6,0,1.5-.1,2.2,0,1.5-.1,3-.2,4.6-.4,10.1-.5,20.3.3,30.5.7,8.6,2.6,17.1,4.5,25.5,2.3,10,4.7,19.9,6.6,29.9,1.9,10.6,2.9,21.3,3.9,32,.7,7.6,1.5,15.2,2.3,22.8,0,.4,0,.9.1,1.3,0,.3,1.5,0,1.4-.4-.6-5.8-1.2-11.5-1.8-17.2-1-10.2-1.7-20.5-3.2-30.7-1.6-10.5-3.9-21-6.3-31.3-2-8.7-4.2-17.4-5.4-26.2-1.4-10-1.4-20.1-1.2-30.1,0-3.6.2-7.3.4-10.9,0-.6-.1-1.6.1-2.2.1-.3.8-.7,1.1-1,.8-.7,1.5-1.4,2.2-2.1,10.6-11,11.2-27.5,9.3-41.8-.8-6.1-2.2-12.1-3.7-18.1-.5-1.8-1-3.7-1.3-5.6-.7-3.5-.3-7.3.7-10.7.2-.9.5-1.7.9-2.5.1-.2-1.2-.1-1.4.2h0Z"/>
        <path class="st23" d="M-270.6,167.3s-19.5,8-32.7,25.3c-13.2,17.3-16.8,77.3-16.8,77.3,0,0,46.8,8.7,69.3,7.6,22.5-1.1-19.8-110.2-19.8-110.2h0Z"/>
        <path class="st23" d="M-267.1,257.6l-20.5-50.7s-17.8-10.7-25.5,11.6c-6.7,23.9-12.6,99-11.6,114.4,1.5,24.2,3.2,55.2,17.9,133.5l17.1-1,20.7-7.3-12.4-126.9,14.3-73.7h0Z"/>
        <path class="st14" d="M-281.1,201.1c7.3,1.3,11.4,8.3,13.7,14.7,2.6,7.3,3.2,15.1,2.9,22.8-.6,16.7-5.4,32.9-9.4,49-2.2,9.1-3.8,18.1-5.4,27.4l-2.2,13.2c-.2,1-.4,2.1-.5,3.1,0,.6,0,1.2.2,1.8.9,6.6,1.9,13.2,2.6,19.8.4,3.8.7,7.6,1,11.5.8,8.2,1.5,16.4,2.2,24.6.9,9.8,1.8,19.5,2.7,29.2.8,8.6,1.6,17.2,2.3,25.8l1.3,13.8v.6c0,0,.4-.3.4-.3-9.7,5-20.5,7.4-31.3,7.9-1.6,0-3.4.3-5,.1-.2,0,.2.3.1,0,0-.1,0-.3,0-.5l-.7-4.8c-2.1-13.5-4.2-27-6.2-40.5-.6-4-1.2-8-1.8-11.9,0-.3-1.5,0-1.5.4,1,6.5,2,13,3,19.6,1.6,10.3,3.2,20.7,4.8,31,.4,2.4.7,4.8,1.1,7.1,0,0,.2.1.3.1,13.1.3,26.6-2.4,38.2-8.4.1,0,.3-.2.3-.3-.3-3.2-.6-6.5-.9-9.8l-2.2-23.8c-.9-9.8-1.8-19.5-2.7-29.3l-2.4-26.5-1.4-15.3c-.5-5.3-1.3-10.5-2-15.7l-.7-5.5c0-.7-.2-1,0-1.5.5-3.4,1.2-6.8,1.7-10.2,1.3-8,2.5-16,4.2-23.9,3.5-16.3,8.7-32.2,10.8-48.7,1-7.7,1.3-15.6.2-23.3-1-6.9-3.2-14.3-8-19.5-2.2-2.4-5-4.1-8.2-4.7-.4,0-1.6.5-1.2.6h0Z"/>
        <path class="st13" d="M-187.5,158.1s-6.9-1.4-10.8-1.9c-3.9-.6-10.2.4-29.2-11.8,0,0,7.2,16.8,29.7,18.1,0,0,6.8.6,10.4-.6v-3.6c0,0,0,0,0,0Z"/>
        <g>
          <path class="st1" d="M-241.3,176.6s0,.2.1.5"/>
          <path class="st2" d="M-240.9,178.1c2.9,9.7,20.4,65.7,46.4,74.6,28.5,9.8,33.4-15.2,32-37.4-1.2-19.7-3.2-44-3.6-49.2"/>
          <path class="st1" d="M-166.1,165.6c0-.3,0-.5,0-.5"/>
        </g>
        <g>
          <path class="st1" d="M-242.5,149.9s0,.2.1.5"/>
          <path class="st2" d="M-242.1,151.3c2.7,9.7,19,65.7,43.3,74.6,26.6,9.8,31.2-15.2,29.9-37.4-1.2-19.7-3-44-3.4-49.2"/>
          <path class="st1" d="M-172.3,138.8c0-.3,0-.5,0-.5"/>
        </g>
        <path class="st16" d="M-159,56.4c3.7,10,4.3,21.6,4.4,35.9.6,22.1-3.3,44.1-11.4,64.6l-20.1,14-5.8-9.4c14.2-17.6,26-25.7,26.7-48.3.1-5.2,4-31,3.8-31.7-2.4-13.7-1-10.2-9.6-17.1-7.1-5.6-28.2-2-35-.3-5.9,1.5-13.9.4-21.6,13.9-5.1,9-7.7,4.9-10,20.6l-6.8-58.2,37-8.5,25.3,5c10.5,2,19.2,9.4,23,19.4Z"/>
        <path class="st19" d="M-159.9,98.3c.1-3.2.9-11.7.9-19.2h0c0-7.3-5.4-13.4-11.3-17.7l-1.1-.7c0,0-1.7-.7-1.8-.7-12.7-3.8-22.1-4.5-34.5,1-6.1,2.7-13.6,5.2-17.8,10.3-4.4,5.2-8.5,17.4-13.9,21.9-.7-5.8,5.5-17,5.4-22.2,0,.9,0,1.4,0,1.4-6.5,5.7-8.8,16.9-8.5,20.7.3,3.8-.5,12.2-.5,12.2-1.1-1.4-3.6-4.4-4.3-6-.7-1.4-1.5-2.7-2.2-4.1-2-3.2-5.1-2.6-7.4-.5l-.4.7c-5.4,5.8,3.3,20.2,5.8,24.3-.2,2,4.6,12.4,11.3,5.2l1.8,6.1,10.9,13.6c8.8,8.6,21.8,14.8,35.2,14.2,9.1-.4,9.7-.8,12.9-4.1,4.8-5,9.9-10.1,13.5-15.9,3.4-5.6,4.8-9,6.2-15.4,1.4-6.6,1.3-8.3.4-14.9-.4-2.9-.8-7.3-.7-10.2h0Z"/>
        <path class="st5" d="M-245.3,123.7c-2.1.3-3.8,1.8-4,4,0,1.1.2,2.1.9,2.9.5.6,1.1,1,1.9,1.2,1.4.4,2.9.2,4.2-.7.2-.1-.2,0-.3,0-1.1.8-2.5,1-3.8.5-.6-.2-1.1-.5-1.6-1-1.2-1.4-1.3-3.5-.2-5.1.7-.9,1.7-1.5,2.8-1.7.2,0,.3-.2,0-.2h0Z"/>
        <path class="st4" d="M-232.1,70.1l-2.7,7.3c-3.2,8.5-5.1,17.4-5.7,26.5l-.2,2.6c0,.7-1,1-1.4.4l-5.1-7.6s-1.9-27.9,15.1-29.2h0Z"/>
        <path class="st21" d="M-249.2,105.4c-1.6.8-2,2.7-2.2,4.3-.2,1.8,0,3.3.8,5,.5,1.1,1.9,3.4,3.5,2.8,1.4-.5,1.1-2.3.7-3.3-.3-.8-.8-1.6-1-2.4-.3-1.2.4-1.7,1.6-1.7,0,0,.3,0,.3-.1-1.4-2.9-2.9-5.9-4.9-8.4-.9-1.1-2.1-2.3-3.6-2-1.9.4-2.3,2.7-2.3,4.3,0,2.4.8,5,2.2,7,0,0,.4,0,.4,0-.9-1.3-1.5-2.8-1.9-4.3-.4-1.8-.8-5.4,1.2-6.6,1.8-1,3.5,1.4,4.3,2.6,1,1.5,1.9,3.1,2.8,4.6.5,1,1,2,1.5,3h.3c-.9,0-2.3,0-2.2,1.3,0,1.4,1.1,2.6,1.4,3.9.1.7.1,1.6-.5,2.1-.8.6-2-.8-2.5-1.4-1-1.4-1.7-3.2-1.7-4.9s.3-4.6,2.1-5.5c.2,0-.1,0-.2,0h0Z"/>
        <path class="st4" d="M-194.3,84.7c0-.1-.5-.8-.5-.9-8.4-2-16.6-2.1-19-1.8-1.8.2-3.6.7-5.3,1.3,0,0-5.3,3.4-5.9,4.2-.6.8,2.8-.3,2.8-.3.7-.1,1.2-.3,2-.4,4.1-.3,7.1-1.2,11.2-.6,3.5.5,11,1.7,14.2,2.9.2-1.3,0-3.2.4-4.5h0Z"/>
        <path class="st4" d="M-159.2,83c-.2,0-3.9-.6-4.2-.7-2.4-.2-5.5.3-13.6,2.4.1,1.5-.3,3.3-.2,4.8,3.3-1.3,6.6-2.2,10-2.8,2.3-.4,5.2-.1,7.9-.3v-3.4h0Z"/>
        <path class="st22" d="M-185.5,128.1c-5.7,0-15.6-1-15.6-1,0,0,2.2,14,15.5,14s13-13.4,13-13.4c0,0-7.2.3-12.9.3Z"/>
        <path class="st20" d="M-185.5,128.1c-2.7,0-12.9,0-12.9,0,0,0,2.8,7.9,12.7,8,10.7,0,11.3-7.8,11.3-7.8h-11c0,0,0,0,0,0Z"/>
        <path class="st12" d="M-185.3,128.5c-2.7,0-11-.5-11-.5,0,0,3,3,11.2,3.1,8.2,0,10.8-2.9,10.8-2.9l-10.9.4Z"/>
        <path class="st22" d="M-172.1,127.4c-.3,0-.9.1-2.2,0-2.2-.4-3.3-1.2-4.9-1.3-2.7-.2-4.4.9-5.6.9s-2.9-1.1-5.6-.9c-1.6.1-4,.7-6.2.9-1.3.1-4.5-.4-4.8-.3-.4,0,.5,3.2,15.4,3.2,14.8,0,14.3-2.2,13.9-2.2h0Z"/>
        <path class="st16" d="M-152.9,175.8s-.4-10.1-16.6-24.1l.5-5.7s-3.7,15.2-25.8,11.9c-18.3-2.7-29.4-15.7-35-29.4-9.6-23.5-4.5-61.1,6.4-79.4,10.3-17.1,60.5,14.5,61.1,1.6,0,0-18.8-33.7-56.1-31.2-21.6,1.4-36,9.2-48.2,40.5-3.7,10.3-2.8,15.8-5.1,26.5-1.9,9.9-2.2,27.9-.5,40.7.7,5.5,4.2,15.8,7,20.3l-5,6.6s-7.9,8.4-10.1,18.2h0s29,22,65.6,16c33.3-6.7,37.1-15.6,61.3-11.8"/>
        <path class="st11" d="M-216,162.3c-3.3-2.7-6.9-5.1-10.1-8-2.8-2.6-5.6-5.3-8.1-8.2-4.8-5.6-8.9-11.8-12.2-18.4-6.5-13.2-9.7-28.1-9.2-42.8.1-4.4.6-8.8,1.4-13.2.4-2.4.9-4.9,1.5-7.3s1.4-4.9,2-7.3c.1-.5-1.3-.1-1.4.2-.2.4-.3.7-.5,1.1-.1.4,1.3.2,1.4-.2.1-.4.3-.8.5-1.1l-1.4.2c-1,4.3-2.4,8.6-3.2,13-.8,4-1.3,8.1-1.6,12.1-.5,7.4,0,14.9,1.3,22.2,2.6,14.4,8.8,28.2,18,39.6,2.7,3.3,5.6,6.4,8.7,9.3,1.8,1.7,3.7,3.3,5.6,4.8s4,2.9,5.9,4.4c.4.3,1.7-.3,1.4-.5h0Z"/>
        <path class="st11" d="M-233.6,85.2c.3-3.6,1-7.1,1.8-10.6,1.5-6.5,3.7-13.2,7.6-18.7,2.3-3.3,5.1-5.5,8.6-7.5,4.9-2.8,10.3-5,16-5.8,10.2-1.4,20,2.5,27.4,9.6,4.1,3.9,7.8,8.9,9.9,14.2.1.3,1.6-.1,1.4-.4-1.9-4.7-5.1-9.1-8.5-12.8-6.9-7.4-16.4-11.9-26.6-11.4-5.1.2-10,1.6-14.7,3.6-4.2,1.8-8.8,4.1-12,7.3-5,5-7.8,12.1-9.6,18.9-1.2,4.5-2.2,9.2-2.6,13.8,0,.2,1.4,0,1.4-.4h0Z"/>
        <path class="st6" d="M-259.2,151.1c1.8,2.1,3.8,3.9,5.9,5.6,4.8,4,10.1,7.5,15.8,10,7.3,3.2,14.8,4.5,22.8,4.3s16.2-1.4,24.2-2.8c7.6-1.3,15.5-2.4,23.1-.3.1,0,.6-.2.5-.2-6.1-1.7-12.5-1.3-18.7-.4-7.9,1.1-15.7,2.8-23.6,3.3-4.7.3-9.5.5-14.2-.2-3.8-.5-7.5-1.5-11.1-2.9-6.1-2.4-11.8-5.8-16.9-9.9-2.6-2.1-5.1-4.3-7.2-6.8,0-.1-.6,0-.6.2h0Z"/>
        <path class="st11" d="M-152.6,176.3c0-3-1.5-6.3-2.9-8.9-1.8-3.6-4.1-6.9-6.6-9.9-.3-.4-.8-.8-1.1-1.3-.4-.6-.3-.8-.2-1.5.2-.9.5-1.8.7-2.7.5-1.8.9-3.7,1.4-5.5,2-8.2,3.7-16.5,5.1-24.8,1.3-7.9,2.3-15.8,2.3-23.8,0-9.3-.8-18.6-2.3-27.8-1.2-7.4-2.8-15-6.6-21.6-3-5.1-7-9.7-11.4-13.7-9-8.2-20.2-13.8-32.3-15.3-6.6-.8-13.2-.4-19.8.5-5.1.7-10.1,1.8-14.7,4-11.4,5.3-18.1,16.4-22.9,27.5-2.8,6.6-4.9,13.2-6.2,20.3-1.5,7.6-2.4,15.2-3.1,22.9-.6,6.8-.9,13.7-.5,20.5.2,3.7.4,7.5.7,11.2.2,3.2.6,6.3,1.5,9.4,1,3.5,2.6,6.7,4.3,9.9.3.5.5,1,.9,1.5,0,0,.5.6.5.6,0,0-.2.3-.3.3-.4.6-.9,1.1-1.3,1.7-3.6,4.7-7.1,9.6-10,14.9-1.4,2.5-2.8,5.2-3.5,8-.1.4,1.3.2,1.4-.2,1.5-5.8,5.1-11,8.5-15.9,2.1-3,4.3-6,6.6-8.9,0,0,0-.1,0-.2-3.3-5.4-5.9-11.1-6.7-17.4-.4-3.2-.6-6.3-.8-9.5s-.4-6.1-.5-9.1c-.2-13.3,1.1-26.8,3.7-39.9,1.2-6,2.8-11.8,5-17.4,2.5-6.2,5.5-12.4,9.5-17.8,2.9-4,6.5-7.6,10.8-10.2,3.9-2.3,8.2-3.8,12.6-4.6,11.6-2.3,23.9-2.4,35.1,1.6,9.3,3.3,17.6,9.1,24.2,16.4,3.4,3.7,6.5,7.8,8.7,12.3,3.2,6.7,4.5,14.5,5.6,21.7,1.2,8.2,1.8,16.4,1.8,24.7,0,7.2-.9,14.5-2,21.6-1.2,7.5-2.7,15-4.4,22.5-.8,3.4-1.6,6.8-2.4,10.1-.2.8-.4,1.5-.6,2.3-.2.7-.5,1.3-.2,1.9.5.9,1.5,1.7,2.1,2.6.7.8,1.3,1.7,1.9,2.6,2.9,4,5.5,8.6,6.5,13.4.1.6.2,1.2.2,1.8,0,.4,1.4.1,1.4-.4h0Z"/>
        <path class="st9" d="M-180.1,98.2c-.5,1.7-.1,3.6.2,5.3.5,2.3,1.1,4.6,1.9,6.8.6,1.9,1.3,3.8,2,5.8.2.5.4,1,.5,1.6.1.8-.8,1.6-1.6,1.9-1.2.5-2.6.7-3.9.7-1.6,0-3.5.1-5-.6-.4-.2-1.4.4-.9.6,2.4,1.2,5.9.9,8.4.4,1.5-.3,4.4-1.2,4.1-3.3,0-.5-.4-1.1-.5-1.6-.3-.9-.7-1.9-1-2.8-.9-2.5-1.7-5-2.4-7.6-.6-2.3-1.4-5-.7-7.3.1-.5-1-.4-1.2.1h0Z"/>
        <path class="st9" d="M-190.9,115.2c-.7.1-1.3.5-1.7,1-.4.6-.6,1.3-.6,2s.2,1.4.9,1.8,1.4.6,2.1.7c.9.1,1.9.2,2.8,0,.2,0,.6-.3.5-.6s-.5-.3-.7-.2c-.8.2-1.6.1-2.3,0-.7,0-1.4-.2-1.8-.8-.2-.3-.2-.6-.2-1,0-.4,0-.8.1-1.1.1-.3.3-.5.5-.7s.4-.3.7-.3c.2,0,.6-.3.5-.6,0-.3-.5-.3-.7-.2h0Z"/>
        <path class="st16" d="M-199,100.6s-8.3,4.2-15,1c-2.4-1.2-3.6-2.7-2.6-5.1,1.8-4.7,7.9-5,11.3-3.8,3.8,1.2,6.6,3.5,6.3,8h0Z"/>
        <g>
          <path class="st25" d="M-202.1,96.1c.8,3-1.1,5-4.3,5.7s-6.5-.2-7.3-3.2.4-5.7,3.6-6.4,7.1.9,8,3.9h0Z"/>
          <path class="st3" d="M-204.9,96.4c.4,1.7-.6,3.3-2.4,3.7-1.8.4-3.6-.7-4-2.3-.4-1.7.6-3.3,2.4-3.7,1.8-.4,3.6.7,4,2.3Z"/>
        </g>
        <path class="st16" d="M-177.6,100s7.5,4.6,14.5,1.9c2.5-1,3.8-2.4,3.1-4.9-1.4-4.9-7.4-5.6-10.9-4.7-3.9.9-6.4,3.2-6.6,7.7h0Z"/>
        <g>
          <path class="st25" d="M-174.5,95.5c-1.1,2.9.6,5.1,3.8,6,3.1.9,6.5.3,7.6-2.6s0-5.7-3-6.6c-3.1-.9-7.2.4-8.3,3.3h0Z"/>
          <path class="st3" d="M-171.7,96c-.6,1.6.3,3.3,2.1,3.9,1.7.5,3.6-.4,4.2-2,.6-1.6-.3-3.3-2.1-3.9-1.7-.5-3.6.4-4.2,2Z"/>
        </g>
        <ellipse class="st16" cx="-209.7" cy="95.9" rx=".7" ry=".7"/>
        <path class="st4" d="M-199.2,97.9s-4.1-5.2-11.3-4.3-6.4,4.9-6.4,4.9c0,0-1.3-4.8,3.9-6.6,3.7-1.3,11.2-1.9,13.9,6h0Z"/>
        <path class="st4" d="M-177.2,97.6s3.3-4.8,10.7-3.9,6.6,4.9,6.6,4.9c0,0,1.4-4.8-4-6.6-3.9-1.3-11.8-1.5-13.4,5.7h0Z"/>
        <path class="st4" d="M-216.8,97.9s-4-.8-4.8-3.5c0,0,2.9,1.8,6.7-1.2,0,0-1.9,2.9-1.9,3.7v.9h0Z"/>
        <ellipse class="st16" cx="-169.8" cy="95.8" rx=".7" ry=".7"/>
      </g>
    </g>
  </g>
</svg>