<?xml version="1.0" encoding="UTF-8"?>
<svg xmlns="http://www.w3.org/2000/svg" xmlns:xlink="http://www.w3.org/1999/xlink" viewBox="0 0 278.14 278.14">
  <defs>
    <style>
      .cls-1, .cls-2, .cls-3, .cls-4, .cls-5 {
        fill: none;
      }

      .cls-2 {
        stroke-width: .58px;
      }

      .cls-2, .cls-3, .cls-4, .cls-5 {
        stroke: #7e7e7e;
      }

      .cls-2, .cls-3, .cls-4, .cls-5, .cls-6 {
        stroke-miterlimit: 10;
      }

      .cls-3 {
        stroke-width: .61px;
      }

      .cls-4 {
        stroke-width: .64px;
      }

      .cls-7 {
        fill: #010101;
      }

      .cls-5 {
        stroke-width: .73px;
      }

      .cls-8 {
        fill: #995f3e;
      }

      .cls-9 {
        fill: #24343a;
      }

      .cls-10 {
        fill: #f2eef7;
      }

      .cls-11 {
        fill: #804841;
      }

      .cls-12 {
        clip-path: url(#clippath-1);
      }

      .cls-13 {
        fill: #050505;
      }

      .cls-14 {
        fill: #fff;
      }

      .cls-15 {
        fill: #8a463d;
      }

      .cls-16 {
        fill: #d94f3b;
      }

      .cls-17 {
        fill: #ed0d6c;
      }

      .cls-18 {
        fill: #7e7e7e;
      }

      .cls-19 {
        fill: #262828;
      }

      .cls-6 {
        fill: #dbf1f9;
        stroke: #fff;
        stroke-width: .5px;
      }

      .cls-20 {
        fill: #cf9c7c;
      }

      .cls-21 {
        fill: #f8aca6;
      }

      .cls-22 {
        fill: #120f0e;
      }

      .cls-23 {
        fill: #881848;
      }

      .cls-24 {
        fill: #4b2c1d;
      }

      .cls-25 {
        fill: #556b30;
      }

      .cls-26 {
        fill: #471137;
      }

      .cls-27 {
        clip-path: url(#clippath);
      }
    </style>
    <clipPath id="clippath">
      <circle class="cls-1" cx="138.58" cy="-291.31" r="136.76"/>
    </clipPath>
    <clipPath id="clippath-1">
      <circle class="cls-1" cx="138.08" cy="139.07" r="136.76"/>
    </clipPath>
  </defs>
  <g id="Layer_3" data-name="Layer 3">
    <g class="cls-27">
      <path class="cls-15" d="M141.56,89.37c1.02-9.95,2.03-19.91,3.05-29.86l.44-4.31c.02-.17-1.41-.04-1.45.39-1.02,9.95-2.03,19.91-3.05,29.86l-.44,4.31c-.02.17,1.41.04,1.45-.39h0Z"/>
      <path class="cls-17" d="M154.37-276.19c-14.11-1.84-33.24-17.12-33.24-17.12-9.55,2.76-19.17,7.73-26.34,11.38-31.55,16.07-7.97,55.28-7.97,55.28,4.83,3.01,18.79,5.63,18.79,5.63-2.65,13.54-15.98,28.08-16.46,29.84-.48,1.75-8.98,189.05-11.88,216.88,0,0,46.33,21.82,77.76,19.51,31.43-2.32,52.61-25.17,52.61-25.17-.36-9.03-6.37-184.79-5.43-217.66.34-12.03,4.22-23.38,4.22-23.38,0,0-3.21-1.11.77-9.76-4.8-13.68-.5-34.12-15.26-44.93-2.97-2.17-11.72-9.61-16.72-9.82,0,0,.47-.93-.66,2.15-1.85,5.05-9.82,6.61-15.04,7.28"/>
      <g>
        <path class="cls-17" d="M205.55-43.53s-18.08,5.79-49.29,8.15c-31.21,2.36-74.66-8.15-74.66-8.15l-9.08,85.02,15.85,3.21.08,3.24,16.04-.82.44,2.75h19.78v2.12h19.4l1.48,2.75,15.88-.9,1.84-3.99,16.16.86-.11-3.24,12.28-.11-.57-2.65,13.32,1.98-.35-2.86,11.13-1.26-9.61-86.11Z"/>
        <path class="cls-23" d="M205.51-43.69c-3.73,1.19-7.58,2.05-11.4,2.87-10.72,2.3-21.61,3.82-32.53,4.83-21.63,1.99-43.32-.6-64.6-4.56-5.07-.94-10.14-1.95-15.15-3.16-.14-.03-.58.05-.6.24-.3,2.83-.6,5.65-.91,8.48-.72,6.75-1.44,13.49-2.16,20.24-.88,8.2-1.75,16.4-2.63,24.6-.75,7.06-1.51,14.12-2.26,21.18l-.75,7.05-.23,2.17c-.03.31-.2.84-.12,1.14.01.04-.01.11-.02.15,0,.09.06.11.14.13,3.4.69,6.8,1.38,10.2,2.07l5.14,1.04c.61.12.41-.06.38.53-.05.9.04,1.83.06,2.74,0,.08.17.09.22.09l9.99-.51,5.32-.27c.19,0,.4-.05.58-.03.29.03-.06-.2-.04.07.06.86.28,1.73.41,2.59.01.08.16.09.22.09h18.69c.21,0,.87-.12,1.06,0-.29-.18-.18.46-.18.73v1.3c0,.08.17.09.22.09h18.83c.14,0,.35-.04.49,0,.02,0,.06,0,.08,0-.35-.15-.1.04-.05.23.23.82.91,1.68,1.31,2.44.04.08.14.09.22.09,5.29-.3,10.59-.6,15.88-.9.17,0,.44-.06.52-.24l1.84-3.99-.52.24c5.39.29,10.77.57,16.16.86.15,0,.53-.08.52-.29l-.11-3.24-.52.29c4.09-.04,8.19-.07,12.28-.11.12,0,.56-.09.52-.29l-.57-2.65-.6.28c4.44.66,8.88,1.32,13.32,1.98.15.02.63-.05.6-.28l-.35-2.86-.43.28c3.71-.42,7.42-.84,11.13-1.26.12-.01.45-.1.43-.28-.32-2.85-.64-5.71-.96-8.56-.76-6.85-1.53-13.71-2.29-20.56-.93-8.29-1.85-16.59-2.78-24.88-.8-7.17-1.6-14.34-2.4-21.51l-.79-7.06-.25-2.23c-.03-.3.02-.9-.13-1.17-.02-.03-.01-.11-.02-.15-.02-.21-.77-.05-.74.2.32,2.85.64,5.71.96,8.56.76,6.85,1.53,13.71,2.29,20.56.93,8.29,1.85,16.59,2.78,24.88.8,7.17,1.6,14.34,2.4,21.51l.79,7.06.25,2.23c.03.25-.02.95.13,1.17.02.03.01.11.02.15l.43-.28c-3.71.42-7.42.84-11.13,1.26-.12.01-.45.1-.43.28l.35,2.86.6-.28c-4.44-.66-8.88-1.32-13.32-1.98-.14-.02-.65.06-.6.28l.57,2.65.52-.29c-4.09.04-8.19.07-12.28.11-.15,0-.53.08-.52.29l.11,3.24.52-.29c-5.39-.29-10.77-.57-16.16-.86-.16,0-.44.08-.52.24-.61,1.33-1.23,2.66-1.84,3.99l.52-.24c-3.38.19-6.76.38-10.15.57l-5.15.29c-.14,0-.36.06-.5.03-.22-.06.21.16.13.07-.06-.06-.13-.21-.16-.29-.23-.81-.91-1.69-1.31-2.44-.04-.08-.14-.09-.22-.09h-18.35c-.2,0-.85.12-1.02,0,.3.2.19-.48.19-.73v-1.3c0-.08-.17-.09-.22-.09h-19.02c-.19,0-.4.03-.59,0-.33-.05.07.15.03-.02-.21-.86-.28-1.77-.42-2.65-.01-.08-.16-.09-.22-.09l-10.35.53c-1.73.09-3.5.08-5.22.27-.1.01-.35.06-.43.02.29.14.12-.1.16-.42.12-.86-.04-1.87-.06-2.74,0-.05-.11-.08-.14-.08-3.52-.71-7.03-1.43-10.55-2.14-1.59-.32-3.34-.92-4.96-1.01-.05,0-.28-.03-.33-.07-.01,0,.15.21.13.07-.02-.11.02-.31.04-.42.35-1.73.38-3.58.57-5.33l1.07-9.98c.99-9.24,1.97-18.48,2.96-27.72l2.91-27.19,1.01-9.48.32-3.04c.05-.42.28-1.17.17-1.59-.01-.06.02-.15.02-.21l-.6.24c13.8,3.33,27.95,5.65,42.05,7.16,11,1.18,22.13,1.82,33.18.97s23.09-2.35,34.46-4.63c4.87-.97,9.8-2,14.53-3.52.43-.14.35-.46-.09-.32Z"/>
      </g>
      <g>
        <line class="cls-17" x1="88.37" y1="44.7" x2="96.17" y2="-40.08"/>
        <path class="cls-23" d="M88.74,44.65c.88-9.6,1.77-19.2,2.65-28.79,1.4-15.18,2.79-30.37,4.19-45.55.32-3.48.64-6.96.96-10.43.03-.3-.72-.17-.74.09-.88,9.6-1.77,19.2-2.65,28.79-1.4,15.18-2.79,30.37-4.19,45.55-.32,3.48-.64,6.96-.96,10.43-.03.3.72.17.74-.09h0Z"/>
      </g>
      <g>
        <line class="cls-17" x1="104.49" y1="47.13" x2="109.86" y2="-37.39"/>
        <path class="cls-23" d="M104.85,47.07c.61-9.55,1.21-19.1,1.82-28.65l2.89-45.39c.22-3.49.44-6.98.67-10.48.02-.25-.72-.09-.73.11-.61,9.55-1.21,19.1-1.82,28.65l-2.89,45.39c-.22,3.49-.44,6.98-.67,10.48-.02.25.72.09.73-.11h0Z"/>
      </g>
      <g>
        <line class="cls-17" x1="124.71" y1="49.88" x2="126.35" y2="-35.83"/>
        <path class="cls-23" d="M125.08,49.85c.05-2.84.11-5.68.16-8.52.13-6.82.26-13.64.39-20.46.16-8.25.32-16.5.47-24.76l.41-21.41.13-7.03c.02-1,.3-2.4.06-3.38-.01-.04,0-.1,0-.15,0-.39-.74-.29-.75.05-.05,2.84-.11,5.68-.16,8.52-.13,6.82-.26,13.64-.39,20.46-.16,8.25-.32,16.5-.47,24.76l-.41,21.41-.13,7.03c-.02,1-.3,2.4-.06,3.38.01.04,0,.1,0,.15,0,.39.74.29.75-.05h0Z"/>
      </g>
      <g>
        <line class="cls-17" x1="144.11" y1="52" x2="142.71" y2="-35.31"/>
        <path class="cls-23" d="M144.48,51.9c-.05-2.88-.09-5.76-.14-8.64l-.34-20.88c-.13-8.39-.27-16.77-.4-25.16l-.35-21.87c-.04-2.39-.08-4.79-.12-7.18l-.04-2.24c0-.29.11-.92-.02-1.19-.02-.04,0-.12,0-.16,0-.15-.74-.03-.74.2.05,2.88.09,5.76.14,8.64l.34,20.88c.13,8.39.27,16.77.4,25.16l.35,21.87c.04,2.39.08,4.79.12,7.18l.04,2.24c0,.29-.11.92.02,1.19.02.04,0,.12,0,.16,0,.15.74.03.74-.2h0Z"/>
      </g>
      <g>
        <line class="cls-17" x1="163.31" y1="49.87" x2="158.97" y2="-35.31"/>
        <path class="cls-23" d="M163.68,49.83c-.49-9.61-.98-19.22-1.47-28.84-.78-15.3-1.56-30.6-2.33-45.9-.18-3.48-.35-6.96-.53-10.44-.02-.38-.76-.25-.75.06.49,9.61.98,19.22,1.47,28.84.78,15.3,1.56,30.6,2.33,45.9.18,3.48.35,6.96.53,10.44.02.38.76.25.75-.06h0Z"/>
      </g>
      <g>
        <line class="cls-17" x1="179.35" y1="47.49" x2="172.29" y2="-37.39"/>
        <path class="cls-23" d="M179.72,47.39c-.8-9.58-1.59-19.16-2.39-28.74-1.27-15.24-2.54-30.49-3.81-45.73-.29-3.47-.58-6.94-.87-10.41-.01-.14-.75,0-.74.2.8,9.58,1.59,19.16,2.39,28.74,1.27,15.24,2.54,30.49,3.81,45.73.29,3.47.58,6.94.87,10.41.01.14.75,0,.74-.2h0Z"/>
      </g>
      <g>
        <line class="cls-17" x1="191.06" y1="44.72" x2="184.7" y2="-37.39"/>
        <path class="cls-23" d="M191.43,44.62c-.72-9.24-1.43-18.48-2.15-27.71l-3.43-44.21c-.26-3.4-.53-6.79-.79-10.19-.02-.21-.76-.06-.74.2.72,9.24,1.43,18.48,2.15,27.71l3.43,44.21c.26,3.4.53,6.79.79,10.19.02.21.76.06.74-.2h0Z"/>
      </g>
      <g>
        <line class="cls-17" x1="204.03" y1="43.85" x2="196.24" y2="-41.12"/>
        <path class="cls-23" d="M204.4,43.75c-.88-9.59-1.76-19.18-2.64-28.77-1.4-15.26-2.8-30.52-4.2-45.78-.32-3.47-.64-6.95-.96-10.42-.02-.17-.76-.03-.74.2.88,9.59,1.76,19.18,2.64,28.77,1.4,15.26,2.8,30.52,4.2,45.78.32,3.47.64,6.95.96,10.42.02.17.76.03.74-.2h0Z"/>
      </g>
    </g>
  </g>
  <g id="Layer_8" data-name="Layer 8">
    <g class="cls-12">
      <circle class="cls-6" cx="139.07" cy="139.07" r="136.76"/>
      <circle class="cls-1" cx="139.43" cy="138.93" r="136.76"/>
      <circle class="cls-1" cx="138.89" cy="139.58" r="136.76"/>
      <path class="cls-24" d="M179.11,109.3c3.18,4.62,6.16,9.75,6.27,15.37.07,3.43-.95,6.77-1.35,10.17-.4,3.4-.08,7.17,2.22,9.71-.68-.02-1.32-.29-1.94-.55-3.83-1.63-7.65-3.25-11.48-4.88-1.37-.58-2.76-1.18-3.9-2.13-2.3-1.93-3.25-5-4.03-7.9-.31-1.14-.62-2.32-.47-3.49.15-1.17.73-2.24,1.31-3.27,2.38-4.26,4.75-8.52,7.13-12.78"/>
      <path class="cls-18" d="M201.18,148.3h0c-.16,2.44,2.19,4.5,4.5,4.5,2.55,0,4.34-2.07,4.5-4.5.35-5.28.33-40.76-.09-46.03-.23-2.83-.57-5.66-1-8.46-.32-2.1-.84-4.22-1.95-6.06-2.8-4.62-7.87-5.43-12.85-5.11-5.33.34-10.64.99-15.9,1.88-2.41.4-3.73,3.38-3.14,5.53.69,2.51,3.14,3.54,5.53,3.14,4.19-.7,8.35-1.19,12.62-1.49.96-.07,1.92-.14,2.88-.15.47,0,.94,0,1.42.03.77.03-.01-.05.41.06.22.04.44.1.66.17-.3-.16-.31-.17-.03-.02.19.1.85.56.38.21.33.36.4.43.22.22-.17-.22-.13-.13.14.28.34.68.03-.07.18.36,1.26,3.7,1.37,7.99,1.6,11.86.26,4.47.22,39.14-.08,43.6h0Z"/>
      <g>
        <path class="cls-18" d="M63.45,148.2h0c-.16,2.44,2.19,4.5,4.5,4.5,2.55,0,4.34-2.07,4.5-4.5.35-5.28.33-40.76-.09-46.03-.23-2.83-.57-5.66-1-8.46-.32-2.1-.84-4.22-1.95-6.06-2.8-4.62-7.87-5.43-12.85-5.11-5.33.34-10.64.99-15.9,1.88-2.41.4-3.73,3.38-3.14,5.53.69,2.51,3.14,3.54,5.53,3.14,4.19-.7,8.35-1.19,12.62-1.49.96-.07,1.92-.14,2.88-.15.47,0,.94,0,1.42.03.77.03-.01-.05.41.06.22.04.44.1.66.17-.3-.16-.31-.17-.03-.02.19.1.85.56.38.21.33.36.4.43.22.22-.17-.22-.13-.13.14.28.34.68.03-.07.18.36,1.26,3.7,1.37,7.99,1.6,11.86.26,4.47.22,39.14-.08,43.6h0Z"/>
        <path class="cls-19" d="M218.81,260.04l-4.71-134.84s-154.02-3.01-154,5.05c0,6.09,2.56,123.48,0,129.78h158.72Z"/>
      </g>
      <path class="cls-20" d="M204.67,155.14l1.07,1.92c-4.69-8.35-16.63-22.63-22.31-22.79,0,0-6.99,6.78-8.3,15.27-1.3,8.46,2.21,14.52,13.19,31.45l9.34,14.68c8.25,13.07,13.86,19.42,15.88,21.87,8.89,10.84,49.98,34.86,49.98,34.86l4.83-10.96s-28.91-29.79-39.67-39.18l-24.01-47.13Z"/>
      <path class="cls-18" d="M286.78,216.48c-.23-2.83-.57-5.66-1-8.46-.32-2.1-.84-4.22-1.95-6.06-2.3-3.8-7.17-4.81-11.23-5.23-4.59-.47-24.33-.38-32.39-.22-4.57-.16-9.14-.25-13.69.22-4.06.42-8.93,1.43-11.23,5.23-1.11,1.83-1.63,3.96-1.95,6.06-.43,2.81-.77,5.63-1,8.46-.42,5.27-.44,40.76-.09,46.03.16,2.42,1.95,4.5,4.5,4.5,2.31,0,4.66-2.06,4.5-4.5-.29-4.46-.33-39.14-.08-43.6.22-3.87.34-8.15,1.6-11.86.02-.06.02-.06.02-.08.01-.01.04-.06.15-.28.54-.81,1.45-.87,2.39-.91,4.14-.19,8.29-.3,12.43-.37.72,0,1.44-.02,2.14-.03.96.02,1.97.07,2.93.02,7.47.07,26.84.2,30.94.39.95.04,1.86.11,2.39.91.11.22.14.27.15.28,0,.02,0,.02.02.08,1.26,3.7,1.37,7.99,1.6,11.86.26,4.47.22,39.14-.08,43.6-.16,2.44,2.19,4.5,4.5,4.5,2.55,0,4.34-2.07,4.5-4.5.35-5.28.33-40.76-.09-46.03Z"/>
      <line class="cls-2" x1="247.12" y1="264.85" x2="248.75" y2="419.74"/>
      <line class="cls-3" x1="272.24" y1="253.17" x2="238.72" y2="412.6"/>
      <line class="cls-4" x1="237.48" y1="248.61" x2="269.77" y2="450.39"/>
      <g>
        <path class="cls-1" d="M279.99,258.46c-.35,0-.69,0-1.03.03-24.41,1.24-41.48,44.61-37.27,94.71,2.1,25,8.98,48.22,19.37,65.39,9.87,16.31,22.08,25.36,33.45,24.75,24.41-1.24,41.48-44.61,37.27-94.71-2.1-25-8.98-48.22-19.37-65.38-9.57-15.82-21.32-24.78-32.41-24.78h0Z"/>
        <path class="cls-18" d="M266.14,447.65c-13.48,0-26.7-9.62-37.37-27.25-10.67-17.64-17.73-41.41-19.88-66.93h0c-4.56-54.23,14.07-97.83,42.42-99.27,13.96-.69,27.76,8.96,38.81,27.21,10.67,17.64,17.73,41.41,19.88,66.93,4.56,54.23-14.07,97.83-42.42,99.27-.48.02-.96.04-1.44.04h0ZM252.7,258.46c-.35,0-.69,0-1.03.03-24.41,1.24-41.48,44.61-37.27,94.71,2.1,25,8.98,48.22,19.37,65.39,9.87,16.31,22.08,25.36,33.45,24.75,24.41-1.24,41.48-44.61,37.27-94.71-2.1-25-8.98-48.22-19.37-65.38-9.57-15.82-21.32-24.78-32.41-24.78h0Z"/>
        <g>
          <g>
            <path class="cls-7" d="M216.59,274.59c-8.66,21.09-12.1,48.58-9.67,77.41,2.42,28.83,10.44,55.74,22.56,75.77,12.76,21.09,29.1,32.58,46.21,32.58.65,0,1.29-.02,1.94-.05,17.81-.9,32.83-14.09,42.29-37.12,8.66-21.09,12.1-48.58,9.67-77.41-2.42-28.83-10.44-55.74-22.56-75.77-13.24-21.88-30.4-33.45-48.15-32.53-17.81.9-32.83,14.09-42.29,37.12h0ZM223.45,351.15c-2.29-27.26.88-53.06,8.92-72.66,7.04-17.13,17.35-27.67,27.58-28.19.27-.01.54-.02.81-.02,10.05,0,21.67,9.33,31.26,25.18,11.26,18.61,18.73,43.88,21.02,71.14,2.29,27.26-.88,53.06-8.92,72.66-7.04,17.13-17.35,27.67-27.58,28.19-10.26.53-22.22-8.89-32.07-25.16-11.26-18.61-18.73-43.88-21.02-71.14h0Z"/>
            <g>
              <path class="cls-1" d="M216.59,274.59c-8.66,21.09-12.1,48.58-9.67,77.41,2.42,28.83,10.44,55.74,22.56,75.77,12.76,21.09,29.1,32.58,46.21,32.58.65,0,1.29-.02,1.94-.05,17.81-.9,32.83-14.09,42.29-37.12,8.66-21.09,12.1-48.58,9.67-77.41-2.42-28.83-10.44-55.74-22.56-75.77-13.24-21.88-30.4-33.45-48.15-32.53-17.81.9-32.83,14.09-42.29,37.12h0ZM223.45,351.15c-2.29-27.26.88-53.06,8.92-72.66,7.04-17.13,17.35-27.67,27.58-28.19.27-.01.54-.02.81-.02,10.05,0,21.67,9.33,31.26,25.18,11.26,18.61,18.73,43.88,21.02,71.14,2.29,27.26-.88,53.06-8.92,72.66-7.04,17.13-17.35,27.67-27.58,28.19-10.26.53-22.22-8.89-32.07-25.16-11.26-18.61-18.73-43.88-21.02-71.14h0Z"/>
              <path class="cls-9" d="M223.45,351.15s-.06-.38-.13-1.14c-.07-.77-.16-1.89-.29-3.34-.2-2.94-.47-7.28-.48-12.88-.02-5.59.19-12.45,1.05-20.37.43-3.96,1.03-8.19,1.92-12.65.87-4.46,1.98-9.15,3.52-14.02,1.55-4.86,3.43-9.91,6.05-15,2.64-5.06,5.86-10.27,10.71-14.87,2.44-2.25,5.27-4.46,8.93-5.78,1.78-.72,3.82-1.05,5.86-1.13,2.05.02,4.09.35,6.01.95,3.81,1.25,7.11,3.3,10.04,5.6,2.93,2.32,5.51,4.94,7.87,7.71,9.35,11.16,15.53,24.42,20.23,38.33,4.61,13.96,7.47,28.78,8.79,44.02,1.25,15.25.9,30.23-1.34,44.54-2.33,14.27-6.24,28.04-13.64,40.05-1.87,2.99-4.01,5.84-6.51,8.44-2.49,2.6-5.46,4.94-9.03,6.55-3.53,1.66-8,2.08-11.79,1.02-3.85-.93-7.02-2.84-9.82-4.83-5.57-4.08-9.63-8.92-13.1-13.67-3.44-4.78-6.16-9.6-8.51-14.26-2.35-4.67-4.23-9.21-5.84-13.54-1.63-4.33-2.93-8.46-4.02-12.35-2.19-7.77-3.54-14.54-4.46-20.09-.93-5.55-1.39-9.88-1.68-12.81-.12-1.45-.21-2.57-.27-3.34-.06-.75-.06-1.14-.06-1.14,0,0,.07.38.16,1.14.09.77.21,1.88.37,3.34.35,2.93.88,7.25,1.86,12.79.97,5.54,2.38,12.29,4.61,20.04,1.12,3.87,2.44,7.99,4.08,12.3,1.63,4.32,3.53,8.84,5.89,13.48,2.36,4.64,5.09,9.43,8.52,14.17,3.46,4.71,7.51,9.5,12.99,13.5,2.75,1.95,5.86,3.8,9.53,4.67,3.62.99,7.74.6,11.13-.99,3.41-1.55,6.31-3.83,8.75-6.39,2.46-2.56,4.57-5.38,6.41-8.34,7.31-11.91,11.19-25.63,13.5-39.84,2.22-14.26,2.56-29.2,1.31-44.41-1.32-15.2-4.16-29.97-8.74-43.88-4.67-13.86-10.81-27.07-20.06-38.13-2.33-2.75-4.87-5.34-7.75-7.62-2.87-2.27-6.1-4.26-9.74-5.46-1.83-.57-3.76-.89-5.68-.91-1.91.08-3.82.38-5.52,1.06-3.49,1.24-6.27,3.39-8.67,5.6-4.77,4.51-7.99,9.67-10.63,14.69-2.62,5.05-4.51,10.08-6.08,14.91-1.56,4.84-2.69,9.52-3.58,13.96-.91,4.44-1.53,8.66-1.99,12.61-.91,7.91-1.18,14.75-1.21,20.33-.05,5.59.16,9.93.3,12.87.08,1.46.15,2.57.19,3.35.04.75.03,1.14.03,1.14h0Z"/>
            </g>
          </g>
          <path class="cls-1" d="M275.68,460.34c-17.11,0-33.45-11.5-46.21-32.58-12.12-20.03-20.13-46.94-22.56-75.77l8.27-.42-8.27.42c-2.43-28.83,1.01-56.32,9.67-77.41,9.46-23.03,24.48-36.22,42.29-37.12,17.75-.92,34.91,10.65,48.15,32.53,12.12,20.03,20.13,46.94,22.56,75.77,2.43,28.83-1.01,56.32-9.67,77.41-9.46,23.03-24.48,36.22-42.29,37.12-.65.03-1.29.05-1.94.05h0ZM260.77,250.29c-.27,0-.54,0-.81.02-10.23.52-20.55,11.06-27.58,28.19-8.05,19.59-11.22,45.39-8.92,72.66,2.29,27.26,9.76,52.52,21.02,71.14,9.85,16.28,21.81,25.69,32.07,25.16,10.23-.52,20.55-11.06,27.58-28.19,8.05-19.59,11.22-45.39,8.92-72.66-2.29-27.26-9.76-52.52-21.02-71.14-9.59-15.85-21.21-25.18-31.26-25.18h0Z"/>
        </g>
      </g>
      <path class="cls-19" d="M288.14,265.64c0,4.3-3.84,7.82-8.67,7.93l-63.87,1.51c-5.01.12-9.14-3.47-9.14-7.93v-43.73c0-4.38,3.99-7.93,8.91-7.93h63.87c4.92,0,8.9,3.55,8.9,7.93v42.22h0Z"/>
      <path class="cls-19" d="M58.42,82.47s-3.62,6.4.14,8.96l-22.35,2.88s-3.89-4.1-2.06-8.68c1.83-4.58,24.28-3.17,24.28-3.17Z"/>
      <path class="cls-19" d="M290.59,325.04l-2.45-69.2-235.38,12.9-.32,59.07,87.03,7.46c112.81,19.8,150.5-8.38,151.12-10.23h0Z"/>
      <path class="cls-26" d="M134.08,157.51c2.14,2.85,2.72,7.15,2.94,10.57.5,7.6-1,15.73-4,22.73-.54,1.25-1.11,2.53-1.87,3.66l.48-.15-3.74-1.06c-.12-.03-.58.16-.44.2l3.74,1.06c.12.03.41-.04.48-.15,2.31-3.45,3.57-7.82,4.48-11.81,1.61-7.01,2.42-14.9.04-21.84-.39-1.14-.86-2.37-1.59-3.35-.09-.12-.56.1-.53.14h0Z"/>
      <path class="cls-24" d="M110.99,90.83c2.38,4.78,8.97,9.42,13.26,12.64,4.38,3.29,6.33,4.02,11.61,4.31,10.28.57,20.82-1.39,29.8-6.68,9.27-5.46,16.1-14.24,19.37-24.66,2.28-7.28,3.14-14.68,2.73-22.01-.16-.76-.42-1.98-.58-2.74-5.22-14.19-9.91-20.2-23.73-22.95-8.49-1.78-15.6-7.14-28.92-2.26-2.87,1.05-5.76,6.38-9.45,8.13-5.55,2.63-11.63,7.25-14.03,11.91-3.5,6.81-3.8,16.11-4.14,24.91-.26,6.67,1.06,13.32,4.03,19.29.02.04.04.08.06.11Z"/>
      <path class="cls-20" d="M168.45,116.9c-3.93-1.53-18.86-5.99-22.49-8.15-1.66-.99-13.96-9.37-15.39-10.7,4.42,14.52,2.76,24.01-3.7,24.01l6.14,16.41c33.86,49.09,31.38,16.68,46.89-8.86l-11.46-7v-5.71Z"/>
      <path class="cls-20" d="M185.95,85.43c.02-1.95.03-4.21.03-6.93,0-.79-.02-1.55-.05-2.3-.05-.39-.07-.77-.05-1.16-.71-13.27-5.23-20.13-5.23-20.13-5.78-8.69-15.73-13.63-26.13-12.98-12.25.5-23.15,8.18-28.76,15.79-2.79,3.77-4.09,8.44-3.65,13.11.37,3.99,1.9,6.53,3.07,10.85-4.28-.11-9.42.13-6.85,7.75,2.84,8.4,8.45,11.86,12.24,8.64,1.16.66,1.84,4.15,2.25,7.28.23.21.41.48.53.83,1.16,3.64,5.05,5.93,8.2,7.64,3.32,1.8,6.84,3.35,10.39,4.66,4.98,1.84,10.4,3.25,15.81,3.59l-.05-.69c2.39-.21,1.29.09,4.22-.57,9.81-2.75,14.59-21.42,15.04-26.38.38-4.21-.4-6.47-1-9Z"/>
      <path class="cls-11" d="M169.2,121.31s-13.19,2.5-26.78-7.63c0,0,3.86,5.79,11.74,8.39,7.88,2.6,15.09,1.22,15.09,1.22l-.05-1.98Z"/>
      <path class="cls-24" d="M184.2,62.85c-13.46-3.91-15.15-10.66-23.39-10.38-9.54.29-10.37-1.16-17.85,2.69-6.83,3.53-8.17,6.45-8.17,6.45-.37,1.66-1.36,3.09-2.01,4.64-.64,1.53-.84,3.14-.88,4.79-.08,3.38-.3,6.75.12,10.13.26,2.1.83,4.88-1.24,6.3-.93.64.13-.34-.91-.65-.02-.06.22-2.52.49.49.14,1.51-1.9-3.39-3.18-4.39-.59-.46-1.28-.97-2.01-1.27-.73-.3-1.51-.64-2.31-.72-1.12-.25-3.85,1.39-4.93,1.7-.18.08,1.26-1.45,1.08-1.37-3.25-8.6-4.85-15.69,1.38-26.37,1.8-3.08,6.75-6.51,8.25-7.62,2.07-1.49,4.1-2.68,6.13-3.6,6.95-3.19,13.84-3.39,21.94-2.75,12.12.96,24.17,5.75,27.48,17.17"/>
      <path class="cls-11" d="M122.2,89.98c-.44-1.2-.67-2.6-.2-3.83.04-.09.12-.2.14-.3.03-.16-.13.11-.13.11-.18.15-.02.02.1-.03-.23.1.01,0,.08-.02.15-.05-.07,0,0,0,.05,0,.11-.01.16-.02.04,0,.19,0,.03,0,.05,0,.1,0,.15,0,.2.02.13,0,.28.04.63.17,1.17.61,1.61,1.14,1.02,1.25,1.56,2.85,1.98,4.37l1.03-.46c-.53-.37-1.22-.59-1.86-.43-.76.2-1.12.87-1.13,1.62-.02,1.79,1.62,2.64,3.2,2.77.25.02.64-.09.76-.33s-.11-.39-.33-.41c-1.15-.1-2.26-.66-2.44-1.9-.05-.35-.03-.8.18-1.1-.06.09-.15,0,.04.06.11.04.21.07.31.12.12.06.25.13.36.21.27.18,1.16-.03,1.03-.46-.43-1.54-.98-3.13-1.97-4.41-.51-.66-1.18-1.24-2-1.47-.72-.2-2.16-.2-2.58.58-.72,1.34-.47,3.09.03,4.45.17.46,1.32.13,1.16-.31h0Z"/>
      <path class="cls-8" d="M168.32,101.46c-3.56.06-10.09-.33-10.09-.33,0,0,.4,9.7,10.25,9.37,8.24-.27,7.76-8.92,7.76-8.92,0,0-4.36-.18-7.91-.12Z"/>
      <path class="cls-22" d="M168.36,101.46c-1.69.03-7.99.07-7.99.07,0,0,1.91,5.47,8.03,5.36,6.63-.12,6.59-5.21,6.59-5.21l-6.63-.22Z"/>
      <path class="cls-10" d="M168.44,102.09c-1.69.03-6.84-.16-6.84-.16,0,0,1.88,1.75,6.95,1.66,5.07-.09,6.65-1.84,6.65-1.84l-6.77.34Z"/>
      <path class="cls-8" d="M176.76,101.04c0-.18-.37-.26-1.21-.31-1.4-.09-1.87-.58-2.88-.64-1.73-.1-2.82.58-3.57.59-.75.01-1.86-.62-3.59-.47-1.01.09-4.12.5-5.52.64-.84.08-1.83-.21-2.01-.17-.25.06.98,2.33,10.44,2.17,9.46-.16,8.35-1.57,8.34-1.82Z"/>
      <path class="cls-24" d="M160.37,74.08c.01-.09-.3-.11-.29-.2-4.86-1.35-8.59-1.55-9.96-1.33-1.04.17-2.06.56-3.03,1.11,0,0-2.68,1.46-3.02,2.06-.34.6,1.61-.26,1.61-.26.42-.12.7-.27,1.13-.33,2.33-.32,4.71.05,7.03.44,1.99.32,4.52.59,6.41,1.42.09-1-.03-1.93.14-2.91Z"/>
      <path class="cls-24" d="M173.35,74.72c-.01-.09.26-.12.25-.21,4.21-1.41,7.45-1.67,8.66-1.47.92.16,1.82.53,2.68,1.06,0,0,.85.6,1.17,1.19.31.6-.13.86-.13.86-.37-.11-1.54-.41-1.91-.46-2.05-.29-3.08-.03-5.09.39-1.73.34-3.8.67-5.42,1.53-.11-1-.03-1.93-.2-2.91Z"/>
      <path class="cls-21" d="M168.02,122.16c4.46,1.36,20.09,4.02,22.72,5.64,16.7,10.3,21.45,27.96,25.91,39.72,1.35,3.57,1.44,7.57-.11,11.06-4.85,10.94-20.36,10.69-20.36,10.69,0,0-.35,11.35-.06,21.98.21.57.69,10.13.9,11.23-12.25,1.86-15.34,2.65-27.63,2.46-10.03-.16-16.1,5.99-25.93,3.79-7.21-1.61-22.05-1.48-29.35-2.41.84-1.24-1.16-1.51-.81-3.86,1.65-11.02,5.61-28.11.72-37.96-2.27-4.57-2.39-9.79-3.92-10.82,0,0-17.3-29.36,1.1-43.72,5.35-4.17,12.14-9.36,19.99-11.8,0,0,7.5,17.1,29.05,17.14,14.21.02,7.79-13.14,7.79-13.14Z"/>
      <path class="cls-16" d="M195.29,152.23c.38,5.08.25,10.24.25,15.33.01,6.21-.02,12.41-.06,18.62,0,1.35-.02,2.7-.03,4.04,0,.32,1.44.09,1.45-.39.1-10.3.17-20.6.05-30.9-.03-2.36-.03-4.74-.21-7.09-.03-.35-1.48-.08-1.45.39h0Z"/>
      <g>
        <path class="cls-7" d="M134.92,57.83c.26,1.16-.63,2.45-1.81,2.62-.23.03-.48.03-.68.15-.42.25-.4.85-.56,1.31-.35,1.05-1.64,1.42-2.75,1.43-.71,0-1.61.06-1.84.72-.09.26-.04.57-.17.81-.35.65-1.63.34-1.84,1.05-.1.32.12.68.04,1.01-.17.7-1.28.5-1.82.98-.25.22-.34.57-.42.89-.24.99-.49,1.97-.73,2.96-.06.24-.15.52-.38.61-.39.15-.71-.36-.81-.76-.6-2.29-.6-4.74,0-7.04.15-.57.49-1.26,1.09-1.22.2.01.4.1.58.02.29-.13.24-.55.2-.87-.14-1.32,1.22-2.56,2.53-2.31.35.07.76.21,1.03-.02.18-.16.21-.42.31-.63.26-.55.96-.74,1.57-.74s1.25.1,1.81-.13c.71-.29,1.19-1.05,1.94-1.18.91-.15,1.92.7,2.7.19"/>
        <path class="cls-7" d="M134.79,57.87c.18,1.05-.44,2.18-1.51,2.46-.55.14-1.02.08-1.29.67-.11.24-.12.5-.2.75-.18.61-.58,1-1.16,1.24-.79.33-1.61.18-2.42.35-.37.07-.75.22-.96.55s-.08.79-.33,1.08-.83.31-1.18.44c-.27.1-.51.25-.6.54-.11.37.19.87-.06,1.21-.23.31-.87.33-1.21.46-.49.19-.7.49-.86.99-.27.86-.44,1.77-.66,2.64-.06.24-.21,1.32-.84.84-.15-.12-.21-.44-.26-.63-.13-.48-.22-.98-.29-1.48-.15-1.08-.17-2.17-.07-3.25.04-.45.11-.91.2-1.35s.14-1.13.45-1.46c.23-.26.74-.35,1.04-.4.08-.02.18,0,.25-.04.14-.06.23-.15.29-.28.07-.16.04-.37.04-.54-.02-.46,0-.83.22-1.25.29-.53.82-.97,1.41-1.09.49-.1.92.14,1.39.1.81-.08.65-.96,1.32-1.31.86-.46,1.92.02,2.82-.34.34-.14.62-.38.9-.6.61-.48,1.17-.65,1.91-.45.63.17,1.21.39,1.82.06.15-.08.02-.21-.11-.15-.84.45-1.76-.35-2.64-.21-.95.16-1.47,1.13-2.45,1.29-.85.14-1.76-.17-2.54.34-.24.16-.34.34-.49.58-.19.31-.4.56-.82.56-.24,0-.47-.1-.72-.1-1.3.02-2.37,1.18-2.31,2.46.02.35.11.43-.2.63-.24.15-.3.09-.53.11s-.44.12-.61.28c-.53.51-.65,1.43-.77,2.11-.19,1.08-.25,2.19-.19,3.28.06.95.11,2.22.57,3.07.18.33.5.62.88.43.62-.3.66-1.59.79-2.16.15-.59.22-1.29.47-1.85.27-.61.77-.68,1.33-.86.43-.13.81-.35.82-.85,0-.14-.08-.29-.07-.43.05-.46.29-.7.69-.81.27-.08.56-.11.81-.26.21-.13.34-.29.42-.53.04-.14.03-.3.06-.44.14-.53.59-.73,1.1-.79,1.53-.19,3.17-.14,3.63-1.93.13-.51.34-.81.89-.98.17-.05.36-.05.53-.12.31-.11.59-.29.82-.52.58-.56.84-1.33.71-2.12-.02-.12-.27-.05-.25.07h0Z"/>
      </g>
      <g>
        <path class="cls-7" d="M133.11,56.5c-1.44.69-3.13-1.44-4.55-.72-.69.35-1.13,1.31-1.89,1.2-.35-.05-.65-.35-1-.3-.73.09-.57,1.25-1.04,1.81-.58.71-1.91.24-2.51.94-.17.2-.25.45-.4.66-.29.39-.79.54-1.22.75-.44.21-.88.59-.84,1.07-1.05-1.66-.68-4.06.81-5.33.16-.14.34-.27.44-.45.1-.18.11-.4.14-.6.16-1.03.91-1.94,1.89-2.29.34-.12.72-.2.97-.47.34-.38.26-.97.44-1.45.41-1.12,1.95-1.24,2.85-2.02.37-.33.63-.77.98-1.12.37-.38.85-.64,1.37-.76.41-.09.92-.06,1.15.29.16.24.14.56.24.83.26.68,1.14.84,1.87.85s1.59.03,2.01.63c.59.85-.24,2.01-.08,3.03.07.45.33.86.36,1.31.03.41-.15.81-.32,1.19-.3.67-.6,1.34-.9,2.02"/>
        <path class="cls-7" d="M133.06,56.46c-1.44.58-2.72-1.19-4.19-.85-.66.15-.94.71-1.48,1.06-.78.51-1.31-.35-2.01.04-.46.26-.47.84-.63,1.29-.38,1.02-1.44.75-2.26,1.1-.24.1-.41.23-.57.44-.15.2-.23.4-.4.59-.27.31-.53.42-.9.59-.55.26-1.07.57-1.1,1.23l.28-.07c-.54-.91-.72-1.96-.51-3,.11-.54.32-1.06.62-1.52.28-.42.71-.67,1.01-1.06.28-.36.24-.8.38-1.22.22-.67.7-1.28,1.32-1.63.87-.49,1.51-.39,1.72-1.5.12-.61.24-1.05.78-1.43.41-.29.9-.46,1.34-.68.3-.15.6-.32.85-.54.48-.42.78-1.01,1.3-1.39.63-.46,1.76-.71,2.05.15.08.24.08.48.21.7.18.29.48.46.8.56.91.29,2.15-.13,2.88.61.55.55.27,1.37.13,2.02-.12.56-.16,1.03.02,1.58.23.71.27,1.23-.02,1.93s-.63,1.42-.95,2.13c-.03.06.24.04.27-.04.53-1.2,1.49-2.54,1.05-3.88-.22-.67-.23-1.18-.07-1.88.12-.51.29-1.11.06-1.62-.44-.99-1.71-.77-2.57-.87s-1.29-.41-1.52-1.22c-.11-.4-.28-.65-.7-.74-.78-.18-1.7.33-2.23.85s-.88,1.13-1.57,1.51c-.46.25-.96.42-1.4.69-.27.17-.52.36-.7.63-.15.23-.22.48-.27.75-.03.13-.03.31-.07.44-.15.42-.54.72-.93.91-.91.45-1.66.87-2.04,1.89-.11.31-.11.64-.21.94-.14.4-.52.62-.8.92-.38.41-.67.91-.86,1.44-.43,1.2-.31,2.54.34,3.64.04.07.27,0,.28-.07.05-1.03,1.31-1.05,1.91-1.64.16-.16.15-.19.28-.39.1-.35.32-.55.67-.6.19-.13.39-.19.6-.21.26-.05.53-.06.78-.13.4-.12.7-.33.88-.71.15-.31.18-.65.3-.97.26-.65.71-.34,1.22-.22.36.09.68,0,.99-.19.23-.15.42-.36.62-.55.59-.55,1.26-.64,1.97-.38,1.03.38,2.01,1.1,3.13.65.18-.07.01-.13-.1-.08h0Z"/>
      </g>
      <path class="cls-21" d="M192.2,212.1s-4.66,8.44-28.21,8.9c-23.55.46-46.82,0-46.82,0,0,0-5.63,9.69-5.17,23.97.45,14.28-.09,35.2,35.85,34.3,35.94-.9,64.79-46.79,64.79-46.79,0,0-4.34,7.05-6.19-6.17-1.85-13.23-14.24-14.21-14.24-14.21Z"/>
      <line class="cls-5" x1="37.58" y1="248.37" x2="76.34" y2="468.61"/>
      <line class="cls-5" x1="79.3" y1="254.48" x2="39.07" y2="445.84"/>
      <path class="cls-20" d="M251.44,394.02s20.86,2.79,27.51,1.67c6.65-1.13,8.91.11,8.91.11,0,0-20.16-13.39-22.6-16-1.37-1.47-5.04-54.85-6.75-82.5-1.19-19.21-5.59-33.85-5.59-33.85l-30.02,8.36,6.22,28.45-.38,5.48c-.2,2.86-1.31,8.5-1.01,11.36.82,7.74,1.71,18.09,2.71,21.95,1.69,6.53,5.55,15.1,6.21,17.38l12.49,25.34,2.29,12.25Z"/>
      <path class="cls-20" d="M220.71,397.32s31.92,9.36,38.53,8.03c6.61-1.33,3.63-4.38,3.63-4.38,0,0-24.09-12.74-26.42-15.55-1.28-1.54-4.18-55.91-6.74-83.5-1.78-19.16-4.67-34.11-4.67-34.11l-29.75,9.28,2.48,28-.22,5.49c-.11,2.87-.06,7.91.33,10.77,1.06,7.72,3.16,20.63,4.27,24.45,1.89,6.47,9.41,21.8,10.14,24.06l8.39,17.92.03,9.53Z"/>
      <path class="cls-21" d="M127.31,277.41s41.21,2.95,47.03,3.41c5.82.46,8.73,14.08,9.16,16.37.43,2.28,0,16.91,0,16.91,0,0,29.04,10.75,38.8,5.49,9.77-5.26,11.47-9.37,16.63-9.14,5.15.23,6.66,5.94,16.58,5.71,9.92-.23,18.84-8.98,18.84-8.98,0,0-8.84-46.63-12.45-55-3.61-8.37-6.99-17.48-20.58-20.22-6.31-1.27-15.15-3.85-22.82-6.24-8.86-2.76-16.14-5.29-16.14-5.29l-82.33,12.21,7.28,44.76Z"/>
      <path class="cls-16" d="M116.33,201.22c9.64,6.2,21.12,6.74,32.22,7.35s21.47,1.16,31.96-1.01c5.69-1.18,11.16-3.2,16.07-6.35l-1.29.14c.08,2.63.16,5.25.24,7.88.03.92.27,2.12.09,3.03.03-.15-.13.2-.09.13-1.37,2.29-4.9,3.48-7.22,4.26-9.13,3.09-19.3,3.43-28.84,3.5-10.59.07-21.25-.75-31.63-2.89-4.22-.87-8.58-1.84-12.59-3.49-.35-.14-1.67.41-1.18.61,3.54,1.45,7.36,2.35,11.08,3.17,10,2.19,20.26,3.14,30.48,3.26s21.44-.21,31.54-3.21c3.2-.95,7.22-2.25,9.44-4.95.64-.77.44-1.33.41-2.36-.09-3.11-.19-6.21-.28-9.32-.01-.39-1.15.05-1.29.14-8.8,5.65-19.33,7.14-29.6,7.31-5.19.08-10.39-.17-15.57-.45s-10.24-.46-15.31-1.21c-6.09-.91-12.07-2.69-17.28-6.05-.37-.24-1.62.35-1.36.52h0Z"/>
      <path class="cls-18" d="M138.74,223.51c-.25-2.5-.63-5-1.11-7.47-.36-1.85-.93-3.73-2.17-5.35-2.56-3.36-7.99-4.25-12.5-4.62-5.11-.42-27.1-.33-36.07-.19-5.08-.14-10.18-.22-15.25.19-4.52.37-9.94,1.26-12.51,4.62-1.24,1.62-1.81,3.5-2.17,5.35-.48,2.48-.86,4.97-1.11,7.47-.02.19-.04,7.11-.05,7.38,3.28-.07,6.73-.2,9.98.18.21-3.07.46-13,1.69-15.88.02-.06.02-.05.03-.07.01,0,.05-.06.17-.25.6-.71,1.61-.77,2.66-.81,4.61-.16,9.23-.26,13.85-.33.8,0,1.6-.02,2.38-.03,1.07.02,2.19.06,3.26.01,8.32.06,29.89.18,34.46.34,1.05.04,2.07.1,2.66.81.12.19.16.24.17.25,0,.02,0,.02.03.07,1.4,3.27,1.53,7.05,1.78,10.47.29,3.94.24,34.57-.08,38.51-.18,2.15,2.44,3.97,5.01,3.97,2.84,0,4.83-1.83,5.01-3.97.39-4.66.37-36-.1-40.66Z"/>
      <path class="cls-19" d="M52.43,279.33s-3.46-44.77,0-53.23c7.66-4.05,87.01-.73,92.51,5.09,6.91,8.86,6.6,52.64,6.6,52.64l-99.11-4.5Z"/>
      <g>
        <g>
          <g>
            <path class="cls-7" d="M15.58,278.69c-7.86,22.41-10.98,51.63-8.78,82.28,2.2,30.64,9.47,59.24,20.48,80.54,11.58,22.41,26.42,34.63,41.95,34.63.59,0,1.17-.02,1.76-.05,16.17-.96,29.8-14.97,38.39-39.46,7.86-22.41,10.98-51.63,8.78-82.28-2.2-30.64-9.47-59.24-20.48-80.54-12.02-23.26-27.59-35.55-43.71-34.58-16.17.96-29.8,14.97-38.39,39.46h0ZM21.81,360.07c-2.08-28.98.8-56.4,8.1-77.23,6.39-18.21,15.75-29.41,25.04-29.96.24-.01.49-.02.74-.02,9.13,0,19.67,9.92,28.38,26.77,10.22,19.78,17,46.64,19.08,75.61,2.08,28.98-.79,56.4-8.1,77.23-6.39,18.21-15.75,29.41-25.04,29.96-9.31.56-20.17-9.45-29.11-26.75-10.22-19.78-17-46.64-19.08-75.61h0Z"/>
            <path class="cls-1" d="M15.58,278.69c-7.86,22.41-10.98,51.63-8.78,82.28,2.2,30.64,9.47,59.24,20.48,80.54,11.58,22.41,26.42,34.63,41.95,34.63.59,0,1.17-.02,1.76-.05,16.17-.96,29.8-14.97,38.39-39.46,7.86-22.41,10.98-51.63,8.78-82.28-2.2-30.64-9.47-59.24-20.48-80.54-12.02-23.26-27.59-35.55-43.71-34.58-16.17.96-29.8,14.97-38.39,39.46h0ZM21.81,360.07c-2.08-28.98.8-56.4,8.1-77.23,6.39-18.21,15.75-29.41,25.04-29.96.24-.01.49-.02.74-.02,9.13,0,19.67,9.92,28.38,26.77,10.22,19.78,17,46.64,19.08,75.61,2.08,28.98-.79,56.4-8.1,77.23-6.39,18.21-15.75,29.41-25.04,29.96-9.31.56-20.17-9.45-29.11-26.75-10.22-19.78-17-46.64-19.08-75.61h0Z"/>
          </g>
          <path class="cls-1" d="M55.68,252.86c-.25,0-.49,0-.74.02-9.29.55-18.65,11.75-25.04,29.96-7.31,20.82-10.18,48.25-8.1,77.23,2.08,28.98,8.86,55.83,19.08,75.61,8.94,17.3,19.8,27.31,29.11,26.75,9.29-.55,18.65-11.75,25.04-29.96,7.31-20.82,10.18-48.25,8.1-77.23-2.08-28.98-8.86-55.83-19.08-75.61-8.7-16.84-19.25-26.77-28.38-26.77h0Z"/>
        </g>
        <path class="cls-18" d="M51.43,462.64c-12.24,0-24.24-10.22-33.92-28.96C7.82,414.93,1.41,389.67-.54,362.54h0c-4.14-57.64,12.78-103.99,38.51-105.52,12.67-.73,25.2,9.52,35.23,28.92,9.69,18.75,16.1,44.01,18.05,71.14,4.14,57.64-12.78,103.99-38.51,105.52-.43.03-.87.04-1.3.04h0ZM39.23,261.55c-.31,0-.63,0-.94.03-22.16,1.32-37.65,47.42-33.83,100.67,1.91,26.57,8.15,51.25,17.58,69.5,8.96,17.34,20.04,26.95,30.36,26.31,22.16-1.32,37.65-47.42,33.83-100.67-1.91-26.57-8.15-51.25-17.58-69.5-8.69-16.81-19.36-26.34-29.42-26.34h0Z"/>
      </g>
      <path class="cls-20" d="M95.49,307.36c-2.04-2.4-4.28-4.68-6.71-6.8l-2.04-7.84,1.6-3.76,2.34.11s-.27,10.05,1.52,11.88c1.79,1.83,2.78,1.89,2.78,1.89l1.82-2.18-1.27-14.95s-1.69-6.44-2.31-7.93c-.8-1.45-1.73-2.85-2.78-4.18l.11-7.42-13.4.07c.34,2.06.52,5.51,1.06,7.87l-2.45,15.67,3.48,7.04,4.65,6.37,11.88,7.54s1.83-.61-.29-3.37Z"/>
      <path class="cls-20" d="M117.74,175.86l-.84,2.06c3.64-8.96,13.72-32.63,10.12-37.55,0,0-16.51,3.12-24.2,7.08-7.67,3.94-10.23,10.54-16.64,29.96l-5.67,16.68c-5.09,14.8-6.51,23.35-7.16,26.53-2.88,14.02,4.81,63.22,4.81,63.22l11.99-2.44s4.96-42.31,5.44-57.04l22.14-48.49Z"/>
      <path class="cls-21" d="M114.21,127.8s-12.35.61-23.22,16.36c-4.8,6.96-7.72,14.2-9.48,20.12-2.35,7.91.69,16.46,7.31,20.75,6.01,3.9,10.17,5.39,20.08,6.01,15.75.99,20.64-51.67,20.64-51.67"/>
      <path class="cls-16" d="M114.89,136.04c5.88,3.2,7.3,11.63,7.83,17.64.77,8.74-.47,17.59-3.49,25.83-.8,2.18-1.72,4.33-2.76,6.41-1.13,2.24-3.21,5.19-6.07,4.77-.35-.05-1.67.53-.93.64,4.01.59,6.99-2.72,8.6-5.99,2.16-4.37,3.8-9.01,4.87-13.77,1.95-8.67,2.29-18.45-.4-27.01-1.1-3.51-2.93-7.22-6.28-9.04-.38-.21-1.59.39-1.36.51h0Z"/>
      <path class="cls-14" d="M160.34,84.89s-6.45,3.17-11.82,1.13c-1.93-.73-2.89-1.81-2.23-3.51,1.3-3.38,6.07-3.73,8.84-3.04,3,.75,5.27,2.25,5.21,5.42Z"/>
      <g>
        <path class="cls-25" d="M157.77,81.78c.72,2.08-.72,3.53-3.23,4.1-2.51.57-5.13.04-5.85-2.04-.72-2.08.18-4.02,2.68-4.59,2.51-.57,5.68.45,6.4,2.53Z"/>
        <path class="cls-13" d="M155.55,82.08c.4,1.16-.41,2.35-1.8,2.66-1.39.32-2.84-.37-3.24-1.52-.4-1.15.41-2.35,1.8-2.66,1.39-.32,2.84.36,3.24,1.52Z"/>
      </g>
      <path class="cls-7" d="M160.12,82.98s-3.35-3.49-9.04-2.65-4.95,3.62-4.95,3.62c0,0-1.18-3.31,2.86-4.78,2.91-1.06,8.79-1.66,11.12,3.81Z"/>
      <ellipse class="cls-14" cx="151.97" cy="81.8" rx=".55" ry=".52" transform="translate(-3.03 5.89) rotate(-2.2)"/>
      <path class="cls-14" d="M186.09,84.47s-4.76,3.59-9.93,1.54c-1.86-.73-2.78-1.81-2.15-3.51,1.25-3.38,5.85-3.73,8.51-3.04,2.89.75,3.62,1.83,3.57,5.01Z"/>
      <g>
        <path class="cls-25" d="M183.89,81.71c.69,2.08-.7,3.53-3.11,4.1-2.42.57-4.94.04-5.64-2.04-.69-2.08.17-4.02,2.58-4.59,2.42-.57,5.47.45,6.16,2.53Z"/>
        <path class="cls-13" d="M181.75,82c.38,1.16-.39,2.35-1.73,2.66-1.34.32-2.74-.37-3.12-1.52-.38-1.15.39-2.35,1.73-2.66,1.34-.32,2.74.36,3.12,1.52Z"/>
      </g>
      <path class="cls-7" d="M186.1,82.95s-1.99-3.47-7.47-2.63c-5.48.84-4.76,3.62-4.76,3.62,0,0-1.14-3.31,2.76-4.78,2.8-1.06,9.66-1.47,9.47,3.79Z"/>
      <ellipse class="cls-14" cx="178.3" cy="81.73" rx=".53" ry=".52" transform="translate(-7.29 18.28) rotate(-5.75)"/>
      <path class="cls-11" d="M171.75,80.14c-.37,1.23-.09,2.6.2,3.82.39,1.64.96,3.24,1.56,4.81.5,1.3,1.05,2.58,1.57,3.87.1.25.31.6.32.88,0-.17-.09.16-.14.24-.1.18-.25.32-.41.44-.32.22-.71.34-1.08.44-.93.24-1.88.35-2.84.39-1.09.04-2.31.06-3.33-.38-.51-.22-1.34.52-.66.81,1.81.77,4.22.56,6.11.23.77-.14,1.57-.32,2.26-.7.58-.33,1.34-1,1.27-1.74-.03-.31-.22-.65-.34-.94-.25-.61-.5-1.22-.75-1.82-.69-1.68-1.35-3.37-1.89-5.1-.46-1.49-1.19-3.51-.72-5.07.2-.66-.96-.67-1.11-.15h0Z"/>
      <path class="cls-11" d="M163.95,91.86c-.7.12-1.44.45-1.81,1.09-.29.51-.33,1.35.02,1.84.4.55,1.12.68,1.76.75.83.09,1.66.09,2.48-.1.12-.03.57-.16.53-.34s-.55-.05-.63-.03c-.04,0-.21.03-.3.04-.14.01-.27.02-.41.01-.29,0-.57-.03-.85-.06-.5-.05-1.03-.15-1.38-.54s-.34-1.07-.18-1.52c.07-.2.18-.37.33-.52.07-.07.14-.12.22-.17,0,0,.02-.01.03-.01.09.01-.18.04-.02,0,.15-.03.31-.07.44-.14.05-.03.22-.11.24-.18.05-.2-.38-.14-.47-.12h0Z"/>
      <path class="cls-16" d="M130.45,118.35c2.09,4.67,6.04,8.75,10.17,11.64s8.99,4.71,14.01,5.41c3.75.52,7.91.68,11.47-.83,2.48-1.06,3.83-2.82,4.14-5.5.26-2.23-.01-4.75-1.13-6.75l-1.11.72,2.59.7c.13.03.44.18.58.16.29-.05,0,.08-.1-.17.04.1.1.19.13.3.39,1.4,1,2.7,1.31,4.13.44,2.07.58,4.3-.09,6.34-.98,2.98-3.62,4.19-6.49,4.81-7.06,1.53-14.69.19-21.36-2.38-1.96-.76-3.78-1.91-5.54-3.06-2.38-1.56-4.7-3.27-6.75-5.25-.97-.93-1.93-1.95-2.62-3.11-.39-.67-.8-1.56-.59-2.1.69-1.79,1.86-3.5,2.77-5.2.34-.64-1.11-.53-1.36-.07-.9,1.7-1.83,3.38-2.71,5.09-.81,1.58.97,3.62,1.96,4.73,2.01,2.26,4.47,4.14,6.95,5.85,2.02,1.39,4.14,2.81,6.42,3.74,6.65,2.72,14.37,4.05,21.49,2.86,3.03-.51,6.33-1.35,8.23-3.98,1.37-1.89,1.65-4.3,1.45-6.57-.18-2.05-.74-4.1-1.53-6-.18-.43-.23-.61-.66-.8-.98-.43-2.18-.59-3.22-.87-.36-.1-1.41.17-1.11.72.8,1.44,1.19,3.86,1.07,5.7-.17,2.6-1.09,4.41-3.56,5.38-3.36,1.32-7.33.99-10.79.41-8.05-1.33-15.22-5.79-20.06-12.34-.94-1.28-1.87-2.64-2.52-4.1-.24-.54-1.67-.1-1.45.39Z"/>
      <path class="cls-24" d="M163.03,42.15s-7.64,12.78-19.93,20.24c-12.29,7.46-14.4,19.36-14.4,19.36,0,0-2.39-6.99-8.59-5.89s-5.32,1.92-5.41,6.89c-.08,4.97-1.1,13.49,13.13,16.23,0,0,5.25.58,5.43,8.75.18,8.18-.91,12.24-5.63,23.05-4.72,10.81-2.68,22.53,2.37,26.83,0,0-9.88-1.77-12.7-11.53-2.82-9.76-2.75-13.03-2.75-13.03,0,0,.19,7.64-6.01,11.26,0,0,3.74-11.34,0-14.85-1.8-1.68-8.92,5.16-8.92,5.16,0,0-9.15-12.81-6.51-24.42,2.64-11.61,9.76-15.23,8.7-28.45-1.06-13.22-2.64-23.93,2.11-32.43,4.75-8.49,8.85-19.51,23.91-18.18,15.06,1.33,35.21,11.01,35.21,11.01Z"/>
      <path class="cls-16" d="M120.83,79.59s2.33-38.58,34.67-36.78c0,0,14.91-1.95,28.37,9.09,0,0-4.03-8.17-11.32-12.36,0,0-24.05-10.33-42.49,4.5-18.44,14.83-12.45,36.78-12.45,36.78l3.23-1.23Z"/>
      <g>
        <path class="cls-21" d="M84.82,181.42l-2.57,7.57s7.05,6,12.95,7.7,12.11,2.04,12.11,2.04l3.94-7.68s-9.39-.16-16.31-3.41c-6.92-3.24-10.12-6.22-10.12-6.22Z"/>
        <path class="cls-16" d="M84.13,181.35c-.86,2.52-1.72,5.05-2.57,7.57-.07.21-.04.33.13.47,3.12,2.64,6.63,5.03,10.35,6.73,4.57,2.08,10.02,2.84,15.01,3.11.34.02.78-.1.95-.43,1.31-2.56,2.63-5.12,3.94-7.68.15-.3-.14-.56-.43-.57-4.52-.09-9.19-.83-13.46-2.3-3.26-1.12-6.37-2.83-9.25-4.71-1.07-.7-2.53-1.72-3.31-2.44-.45-.42-1.82.17-1.33.62,1,.92,2.13,1.71,3.26,2.45,2.93,1.93,6.11,3.69,9.42,4.87,4.47,1.6,9.41,2.4,14.15,2.49l-.43-.57c-1.31,2.56-2.63,5.12-3.94,7.68l.95-.43c-4.92-.27-10.28-1-14.77-3.09-3.58-1.67-6.97-4-9.98-6.56l.13.47c.86-2.52,1.72-5.05,2.57-7.57.26-.77-1.18-.71-1.38-.14Z"/>
      </g>
      <g>
        <path class="cls-21" d="M197.66,195.67s7.19-.23,12.73-3.32c5.54-3.09,8.96-8.39,8.96-8.39l-2.81-5.38s-4.61,7.68-10.56,9.04-9.8,1.65-9.8,1.65v4.08l1.48,2.33Z"/>
        <path class="cls-16" d="M197.35,196c4.45-.16,9.2-1.25,13.13-3.34s7.24-5.21,9.58-8.82v-.08c-.93-1.79-1.87-3.59-2.81-5.38-.22-.41-1.27.02-1.44.31-1.71,2.83-4.13,5.57-6.92,7.34-2.5,1.59-5.64,1.93-8.52,2.39-1.29.21-2.59.41-3.9.51-.27.02-1.03.14-1.03.52,0,1.24-.12,2.54,0,3.77.09.92.98,1.85,1.48,2.64.25.39,1.6-.14,1.45-.39-.51-.8-1.37-1.7-1.48-2.64-.15-1.22,0-2.54,0-3.77l-1.03.52c1.64-.13,3.28-.38,4.9-.66,2.91-.49,6.01-.91,8.61-2.41,3.23-1.87,5.96-4.89,7.88-8.07l-1.44.31c.67,1.29,1.35,2.58,2.02,3.86.18.34.79,1.11.79,1.51,0,0-.57.75-.71.93-3.6,4.73-8.35,8.09-14.18,9.45-1.88.44-3.84.76-5.77.82-.44.02-1.57.69-.61.66Z"/>
      </g>
    </g>
  </g>
</svg>