<?xml version="1.0" encoding="UTF-8"?>
<svg id="Layer_2" data-name="Layer 2" xmlns="http://www.w3.org/2000/svg" xmlns:xlink="http://www.w3.org/1999/xlink" viewBox="0 0 278.14 278.14">
  <defs>
    <style>
      .cls-1 {
        fill: none;
      }

      .cls-2 {
        fill: #070707;
      }

      .cls-3 {
        fill: #9d6446;
      }

      .cls-4 {
        fill: #010101;
      }

      .cls-5 {
        fill: #e8b48f;
      }

      .cls-6 {
        fill: #f2eef7;
      }

      .cls-7 {
        fill: #804841;
      }

      .cls-8 {
        fill: #050505;
      }

      .cls-9 {
        fill: #8a5534;
      }

      .cls-10 {
        fill: #fff;
      }

      .cls-11 {
        fill: #858280;
      }

      .cls-12 {
        fill: #552d23;
      }

      .cls-13 {
        fill: #dbf1f9;
        stroke: #fff;
        stroke-miterlimit: 10;
        stroke-width: .5px;
      }

      .cls-14 {
        fill: #556b30;
      }

      .cls-15 {
        clip-path: url(#clippath);
      }
    </style>
    <clipPath id="clippath">
      <circle class="cls-1" cx="139.23" cy="139.18" r="136.76"/>
    </clipPath>
  </defs>
  <g class="cls-15">
    <circle class="cls-13" cx="139.07" cy="139.07" r="136.76"/>
    <path class="cls-5" d="M169.81,161.87c2.78,1.13,47.03,22.4,52.64,44.5,5.62,22.09-.18,103.26,2.41,122.68,3.33,22.63.39,54.04.7,59.65l-5.81,59.75-13.23-.5s-2.27-139.08-12.32-170c-10.05-30.92-24.39-116.08-24.39-116.08Z"/>
    <path class="cls-5" d="M107.69,117.71s1.57,14.91,1.41,25.55c-.23,15.34-11.38,17.8-11.38,17.8l60.54,24.55,18.66-23.82s-13.72-5.68-14.38-8.65c-.66-2.97,2.07-26.04,2.07-26.04"/>
    <path class="cls-9" d="M105.86,118.26c0,.06.01.1.01.16-.02-.07-.03-.12-.01-.16Z"/>
    <path class="cls-5" d="M143.5,149.31l15.4,1.23,6.89-.19c3.05-.08,5.45-1.57,6.75-4.33,2.72-5.79,3.56-8.75,3.92-9.45,1.87-3.62,5.8-9.35,6.93-13.27,1.21-4.2,2.63-6.69,3.21-11.73.42-3.69.41-6.28-1.64-12.27-.52-1.52-.55-3.04-.2-4.69.76-3.47,1-7.51,1.92-12.15.07-.37.48-2.13.33-2.52,0,0,.88-21.55-2.68-28.42-3.57-6.87-8.58-12.42-13.68-13.67-5.1-1.25-22.47.31-22.47.31l-20.13.66-17.52,8.9-8.71,21.49,1.56,24.81,2.48,24.22"/>
    <path class="cls-4" d="M119.77,41.04c1.63-.78,4.67-1.92,8.18-2.82.24-.98.93-1.83,2.18-2.16,12.52-3.28,23.96,2.51,35.81,5.52,3.62.33,7.23.81,10.82,1.42-8.05-7.77-18.03-7.69-29.78-9.28-1.38-.19-2.82-.32-4.25-.41-20.82-1.22-20.16-1.07-33.47,12.88-7.74,8.1-12.26,15.82-12.08,20.65l.04,1.08c.17,5.03-4.75,18.75-2.94,21.48,1.16,1.75,4.85,9.44,7.92,15.99l9.93.07c-.24-1.87-1.25-17.86-1.37-19.78l-3.35-27.39c-1.51-11.02,8.28-15.29,12.37-17.26Z"/>
    <path class="cls-5" d="M108.59,118.61c-7.94,7.9-9.67-5.4-9.67-5.4-5.59-6.74-5.58-13.91-5.37-18.82.21-4.9,5.61-4.82,5.61-4.82,4.58.51,7.16,1.64,10.96,17.1"/>
    <path class="cls-4" d="M165.07,38.21c-7.45-.02-27.07-.97-37.18-1.46-4.19-.2-17.93,10.35-19.7,12.74-4.06,5.46,5.69,17.73-1.2,35.05-2.28,5.72-5.73-4.19-8.66-.42-2.93,3.77-4.05,5.29-4.05,5.29-2.44-16.45-2.37-15.88,1.03-32.21,3.39-16.28,20.99-23.65,29.54-25.14,8.55-1.49,36.1.82,43.58,4.18"/>
    <path class="cls-7" d="M106.07,105.1c-1.06-2.27-2.21-4.53-3.68-6.57-.76-1.05-1.62-2.1-2.67-2.87-.45-.33-.97-.65-1.54-.75-.7-.12-1.01.44-1.29.98-1.04,2.04-.97,4.48-.44,6.65.14.56,1.3.25,1.16-.31-.4-1.66-.53-3.43-.04-5.09.13-.43.3-.86.52-1.25.11-.2.09-.19.24-.38l-.54.26c-.25,0-.13,0-.06,0,.03,0,.06.01.09.02-.22-.07-.01,0,.04.02.14.05.27.11.4.17-.12-.06.12.07.16.1.11.07.21.14.32.21,1.43,1.02,2.49,2.55,3.42,4,1.04,1.64,1.93,3.37,2.75,5.12.24.52,1.39.19,1.16-.31h0Z"/>
    <path class="cls-7" d="M104.18,105.91c-3.58-.15-1.56,4.15-1.88,6.08-.02.09-.06.18-.07.27,0,.05-.08.09-.08.13,0,.2.61.02.57-.14-.01-.05-.17-.17-.2-.23-.11-.15-.19-.33-.27-.5-.44-.97-.67-2.03-.87-3.07-.25-1.31-.39-2.46-.24-3.78s.51-3.55,1.94-4.17c.17-.07.45-.23.32-.44-.12-.19-.62-.06-.76,0-1.52.66-2.18,2.2-2.49,3.74-.22,1.08-.34,2.23-.19,3.32.17,1.29.41,2.58.81,3.82.18.56.43,1.51,1.01,1.82.53.28,1.27-.03,1.55-.53s.17-1.17.11-1.7c-.09-.84-.27-1.68-.29-2.53,0-.36,0-.75.12-1.09.05-.13.11-.28.22-.37.01-.01.02-.02.03-.02-.09.05.13,0,.21,0,.42.02,1.24-.59.46-.62h0Z"/>
    <path class="cls-4" d="M146.49,87.65c-1-.52-2.18-.09-2.84.49-.16.13-.57.52-.77,1.18-.25.84.08,1.79.6,2.37.7.78,1.88.92,2.79.51,1.23-.56,1.64-2.03,1.34-3.1-.06-.2-.31-1.02-1.12-1.45"/>
    <path class="cls-4" d="M154.36,78.95c-.1-.18-.17-.37-.17-.57,0-.1,0-.19,0-.29,0,0,0,0,0,0-.05-.12-.05-.3-.09-.42-.01-.04-.03-.09-.04-.14h0c-.06-.14-.13-.27-.21-.4-.05-.08-.06-.09-.05-.07-.02-.03-.05-.07-.08-.1-.08-.1-.17-.19-.26-.28-.07-.07-.3-.21-.02-.03-.05-.03-.1-.08-.15-.12-.11-.08-.23-.16-.35-.24-.12-.08-.25-.15-.38-.21,0,0-.03-.02-.06-.03h0s.01,0,0,0c-6.24-.82-12.44-1.06-18.65,0-3.37.57-6.15,1.68-7.31,4.54-.06.15-.63,1.57-.32,1.71.75.35,2.18-.84,2.7-1.1,1.65-.84,3.37-1.23,5.32-1.44,4.08-.42,8.14.63,12.13,1.42,1.5.3,3.44,1.06,5.62,1.79,1.13.38,2.3-.46,2.32-1.65.01-.58.02-1.12.04-1.48.01-.29.02-.59.04-.88Z"/>
    <path class="cls-4" d="M187.27,78.93s-.08-.06-.11-.09c-.12-.1-.83-.13-.93-.25-5.09-1.47-10.3-1.85-15.59-1.69-1.32.04-2.38,1.01-2.47,2.22-.03.46-.07.92-.1,1.39-.02.26-.05.58-.08.92.03.11.06.21.09.32.01.04.03.07.04.11,0,.01,0,0,0,0,.02.03.04.06.04.07.03.06.06.11.1.17.02.03.02.03.03.05.04.05.11.11.11.12,0,0,0,0,0,0,.07.04.15.09.23.13,0,0,0,0,0,0,.04.02.08.03.12.04.07.02.14.04.21.06.16.05.32.08.48.11.02,0,0,0,.02,0,0,0,0,0,.01,0,.09.01.18.02.28.03.35.03.69.05,1.04.06.65.01,1.3,0,1.95,0,.05,0,.1.02.15.03.73-.15,1.43-.29,2.03-.35,3.64-.39,7.48-.84,11.07-.02.12.03.46.11.83.2,1.41-1.42.42-3.66.42-3.66Z"/>
    <path class="cls-10" d="M214.47,427.74c-.04-.58.19-27.12,0-28.02-.68-21.05,2.44-57.41,1.52-89.7,0,0,2.1-80.58,2.1-80.58-1.25-7.16-2.5-14.33-3.75-21.49-1.15-6.6-.11-21.26-5.51-25.31-12.71-9.54-30.99-19.98-44.82-27.41,0,0,5.56,14.71-11.62,17.81-14.31,2.58-20.82,1.66-34.29-9.27,0,0-9.4-4.75-10.83-11.33-10.89,5.11-39.75,18.01-47.24,27.86-8.83,11.54,18.28,46.06,30.97,63.9l-16.61,3.17s-19.72,76.4-22.36,99.47c-2.64,23.07-1.69,53.53.08,68.3,1.77,14.77,86.38,22.82,116.28,19.43,29.9-3.39,46.09-6.82,46.09-6.82Z"/>
    <path class="cls-3" d="M161.72,121.79c-5.83-.19-15.24-1.19-15.24-1.19,0,0,.79,12.82,14.3,13.27,13.51.45,13.45-12.26,13.45-12.26,0,0-6.68.37-12.5.17Z"/>
    <path class="cls-2" d="M161.71,121.24c-2.77-.09-13.92-.93-13.92-.93,0,0,3.49,8.95,13.51,9.29,10.86.36,11.62-7.95,11.62-7.95l-11.21-.41Z"/>
    <path class="cls-6" d="M161.88,122.21c-2.77-.09-11.18-.84-11.18-.84,0,0,2.93,3.13,11.24,3.41,8.31.28,11.05-2.58,11.05-2.58h-11.1Z"/>
    <path class="cls-3" d="M174.93,121.17c-.29-.08-.27-.12-.58-.15-2.29-.2-3.7-.92-5.36-1.11-2.83-.31-4.67.75-5.9.7-1.23-.04-3-1.22-5.84-1.09-1.67.07-5.8.54-8.1.66-1.38.07-2.97-.52-3.27-.45-.41.09.28,3.11,15.78,3.63,15.5.51,13.67-2.07,13.26-2.19Z"/>
    <path class="cls-4" d="M180.58,45.7c-15.37-6.67-33.1-4.71-38.42-5-7.56-.41-16.12,2.25-20.8,2.94-11.37,1.67-5.87,11.82-6.77,16.87-.9,5.05-3.65,28.05-12.5,21.6-4.93-3.6-5.71,7.36-5.71,7.36l-.65,1.05c-1.59.64-2.23,2.97-2.23,5.5l-1.97-3.08s-4.35-8.32-4.53-21.89c-.17-13.57.57-31.82,16.21-39.14,4.58-2.14,8.79-2.64,8.79-2.64,0,0,10.21-10.88,39.26-5.6,20.39,3.7,31.24,6.72,33.25,22.31"/>
    <path class="cls-5" d="M81.56,255.73l-8.49-52.6s-25.5-18.68-33.64,3.71c-7.08,23.95-7.21,126.63-6.31,142.07,2.01,34.53,22.62,90.84,24.74,109.18l25.46,2.26-9.6-109.93,7.84-94.69Z"/>
    <path class="cls-4" d="M106.16,78.15c.59-9.29,1.7-19.64,9.04-25.69,2.8-2.31,6.28-3.74,9.78-4.88,19.61-6.34,42.1-3.91,59.8,6.47,1.97-7.07-2.44-14.72-8.8-18.74-6.37-4.02-14.25-5.08-21.85-5.31-16.74-.5-34.88,3.27-45.82,15.45"/>
    <path class="cls-10" d="M45.58,189.33s-9.23,10.64-13.7,34.32c-4.47,23.68-4.37,76.87-4.37,76.87l5.02,2.74c5.84,3.19,27.16,5.61,33.58,5.11l19.22-.59s14.11-79.96,11.64-97.55c-2.47-17.6-38.16-32.75-38.16-32.75l-13.23,11.86Z"/>
    <path class="cls-10" d="M205.08,179.63s15.38,11.04,18.31,30.42c3.42,22.66,10.02,87.2,10.02,87.2l-5.17,1.71c-1.71.57-3.5.8-5.3.68l-8.09-.52"/>
    <path class="cls-11" d="M76.29,194.87c2.33,2.29,4.51,4.76,6.48,7.36,1.38,1.81,2.78,3.77,3.55,5.93.38,1.08.54,2.23.69,3.36.99,7.6.99,15.37,1.11,23.02.18,11.82-.58,23.59-1.4,35.38s-1.6,24.57-2.22,36.86l.41-.49-1.74.71c-.32.13-.66.25-.97.4-.45.21-.14.05.04.03-.73.07-1.46.16-2.19.22-4.26.37-8.54.51-12.82.49-6.55-.03-13.13-.45-19.62-1.39-4.57-.66-9.14-1.59-13.49-3.16-1.43-.51-3.06-1.05-4.3-1.96-.2-.14-.37-.32-.55-.48-.28-.25-.56-.55-.86-.77-.49-.36-.11-.18-.16.02.2-.81-.11-2.04-.16-2.87-.23-4.12-.77-8.32-.54-12.45.88-16.14,2.11-32.3,4.11-48.34.57-4.59,1.22-9.18,2.03-13.73,1.03-5.82,2.14-11.73,3.75-17.42,2.86-10.12,9.78-18.42,17.92-24.87,6.99-5.55,15.3-9.53,23.26-13.46,8.28-4.09,16.72-7.86,24.9-12.14,1.37-.72,2.74-1.46,4.07-2.25l-.99-.12c1.41,2.63,3.42,5.03,5.45,7.19,4.68,4.97,10.44,8.9,16.84,11.29,4.21,1.58,8.67,2.49,13.16,2.76,4.24.25,8.65.1,12.75-1.11,4.83-1.43,8.94-4.61,10.18-9.65.64-2.6.58-5.63-.25-8.19-.22-.67-1.67-.28-1.45.39.64,1.96.77,4.18.54,6.22-.53,4.61-3.51,8.04-7.79,9.72-3.69,1.45-7.81,1.72-11.73,1.64-4.48-.1-8.96-.83-13.22-2.27-6.4-2.16-12.23-5.87-16.97-10.67-2.32-2.35-4.61-5.01-6.18-7.94-.16-.3-.75-.26-.99-.12-7.37,4.38-15.35,7.8-23.07,11.52-8.67,4.18-17.45,8.38-25.5,13.69-3.5,2.31-6.64,5.02-9.65,7.95-3.8,3.7-7.17,7.84-9.62,12.56-2.68,5.17-3.91,10.82-5.11,16.47-1.12,5.27-2.1,10.56-2.88,15.89-2.56,17.55-3.89,35.3-4.91,53-.22,3.74.02,7.37.23,11.12l.27,4.93c.04.66-.07,1.41.35,1.91.93,1.11,2.16,1.81,3.44,2.42,2.94,1.38,6.11,2.28,9.26,3.01,6.25,1.46,12.67,2.16,19.07,2.52,5.5.31,11.01.34,16.51.07,2.22-.11,4.64-.08,6.83-.54,1.16-.24,2.31-.89,3.41-1.35.18-.08.4-.28.41-.49.58-11.43,1.26-22.85,2.05-34.27.47-6.87.99-13.73,1.31-20.6.24-5.13.36-10.25.29-15.38-.09-7.76-.18-15.57-.93-23.29-.14-1.49-.29-3.01-.65-4.47-.49-2.01-1.65-3.84-2.81-5.52-2.21-3.2-4.83-6.18-7.61-8.9-.47-.47-1.84.13-1.32.64h0Z"/>
    <path class="cls-11" d="M216.27,299.48c2.94.24,6.03.81,8.94.24s5.54-1.37,8.29-2.16c.21-.06.67-.21.64-.5-.59-5.46-1.19-10.92-1.8-16.39-1.3-11.67-2.62-23.33-3.99-34.99-1.29-10.95-2.59-21.91-4.14-32.83-.98-6.91-2.45-13.69-5.9-19.83-2.77-4.94-6.58-8.87-10.96-12.38l-5.24-4.21c-.83-.67-1.78-1.16-2.69-1.71-1.85-1.11-3.71-2.23-5.57-3.34-7.78-4.64-15.6-9.24-23.59-13.52-1.88-1.01-3.77-2-5.68-2.96-.37-.19-1.7.37-1.17.65,8.11,4.1,15.99,8.64,23.82,13.25,3.79,2.24,7.57,4.5,11.34,6.77,1.73,1.04,3.2,2.23,4.77,3.49,4.02,3.22,7.96,6.33,11.04,10.53,4.56,6.22,6.87,13.64,8,21.19,1.55,10.39,2.78,20.83,4.02,31.26,1.42,11.87,2.77,23.75,4.1,35.64.48,4.32.96,8.64,1.43,12.97.15,1.41.31,2.83.46,4.24.08.69.02,1.61.25,2.27.03.09.02.21.03.3l.64-.5c-2.4.69-4.79,1.36-7.22,1.92-2.92.68-5.97.14-8.93-.1-.39-.03-1.68.65-.91.71h0Z"/>
    <path class="cls-11" d="M216.59,298.93c-.26-11.68,0-23.37.06-35.05.03-5.55.04-11.1-.09-16.65-.11-4.48-.27-8.96-.2-13.44.08-5.04.1-10.59,1.99-15.34.11-.28-1.28-.15-1.43.24-1.61,4.04-1.8,8.69-1.95,12.99-.17,4.8-.03,9.61.1,14.41.31,11.28.09,22.58,0,33.86-.05,6.45-.08,12.9.07,19.35,0,.28,1.46.05,1.45-.39h0Z"/>
    <path class="cls-11" d="M101.1,156.08c1.03,2.89,2.95,5.59,4.89,7.92,4.85,5.79,11.47,9.87,18.64,12.14,5.26,1.66,10.77,2.4,16.27,2.5,5.98.11,12.16-.34,17.96-1.9s11.96-4.55,13.16-10.76c.55-2.85-.02-6.14-1.48-8.66-.25-.42-1.62.08-1.45.39,1.13,1.96,1.71,4.41,1.68,6.66-.08,5.69-4.69,9.25-9.65,11.03-5.21,1.87-10.94,2.38-16.44,2.52s-11.58-.37-17.15-1.91c-7.27-2-14.03-5.78-19.14-11.36-2.35-2.56-4.66-5.64-5.84-8.96-.15-.43-1.59,0-1.45.39h0Z"/>
    <path class="cls-4" d="M186.75,40.47c-.3-3.62-1.94-7.27-4.93-9.34-1.18-.82-2.54-1.37-3.67-2.27-2.54-2.02-3.48-5.38-5.23-8.11-3.43-5.38-10.47-8.17-16.65-6.61-1.9.48-3.69,1.31-5.53,1.96-.97.34-1.96.62-2.96.87-11-.65-34.52-.85-44.21,8.29-6.6,6.23-9.2,13.4-9.2,13.4l-2.21,1.93c-2.37,2.07-5.93,4.32-7.01,7.28-9.42,25.84,5.41,42.84,5.41,42.84,0,0,8.98-46.48,37.75-57.11,9.71-3.58,19.28-2.21,27.71,1.16l14.66,8.3c8.58,6.27,14.85,12.8,14.85,12.8.01-1.72-.89-3.41-1.04-4.98l.45.25c1.23-3.42,2.12-7.05,1.82-10.67Z"/>
    <path class="cls-4" d="M164.35,115.88l-.05,1.64c.08.41.37.73.72.79,2.43.47,12.17,1.43,12.05,3.62-.15,2.72,1,4.05,1.05,4.04l.94-4.35c.58-2.66-.6-3.84-1.39-4.22-2.4-1.15-3.7-1.3-5.02-1.69-1.65-.5-5.56-.93-7.54-.97-.52,0-.89.53-.77,1.13Z"/>
    <path class="cls-4" d="M161.3,115.91l-.04,1.66c-.12.4-.48.67-.91.68-2.92.08-14.25-.72-15.59,2.08-1.19,2.49-2.84,4.12-2.9,4.1l.15-4.61c.73-4.27,2.38-3.93,3.34-4.18,2.92-.77,4.18-.51,5.77-.7,1.99-.24,6.99-.58,9.35-.3.62.07,1.02.68.84,1.26Z"/>
    <path class="cls-12" d="M162.45,150.45c-7.54.84-19.37-.12-22.05-.88-13.98-3.99-22.16-18.35-22.16-18.35,0,0-.57,3.25,7.25,11.89,7.81,8.65,8.61,7.83,13.15,9.21,3.62,1.1,18.81.77,23.89.81.04-1.14-.16-1.55-.09-2.68Z"/>
    <path class="cls-7" d="M167.18,92.04c-.55,1.58-.23,3.43.08,5.03.44,2.29,1.14,4.53,1.88,6.74.6,1.79,1.26,3.55,1.89,5.32.14.38.41.88.42,1.29.04,1.09-1.42,1.7-2.31,1.89-1.33.29-2.69.38-4.04.37-1.53-.02-3.25-.08-4.66-.75-.31-.15-1.23.33-1.09.4,2.37,1.13,5.59.99,8.14.67,1.04-.13,2.12-.32,3.09-.73.77-.32,2.04-1.06,2.06-2.05,0-.39-.24-.87-.37-1.23-.31-.87-.63-1.73-.94-2.6-.87-2.42-1.71-4.87-2.36-7.36-.57-2.17-1.4-4.99-.63-7.21.08-.22-1.04-.1-1.14.2h0Z"/>
    <path class="cls-7" d="M155.4,107.44c-.92.12-1.78.6-2.26,1.42-.43.74-.51,1.91-.05,2.65.5.8,1.51,1.07,2.38,1.21,1.08.17,2.16.25,3.24.05.22-.04.55-.28.48-.54-.08-.29-.46-.27-.68-.23-.77.15-1.58.05-2.35-.06-.66-.09-1.42-.21-1.87-.75s-.41-1.42-.15-2.01c.21-.48.67-.85,1.14-.91.25-.03.61-.17.64-.46s-.31-.39-.53-.36h0Z"/>
    <path class="cls-10" d="M149.18,93.7s-7.05,2.43-13.03.35c-2.2-.77-4.49-1.94-3.64-3.8,1.69-3.71,8.41-4.05,11.38-3.06,3.23,1.08,5.6,2.94,5.29,6.51Z"/>
    <g>
      <path class="cls-14" d="M146.61,89.99c.63,2.4-1.07,3.92-3.86,4.36-2.79.44-5.62-.35-6.25-2.75-.63-2.4.5-4.52,3.3-4.96,2.79-.44,6.19.95,6.81,3.35Z"/>
      <path class="cls-8" d="M144.16,90.15c.35,1.33-.63,2.61-2.18,2.86-1.55.25-3.09-.63-3.43-1.96-.35-1.33.63-2.61,2.18-2.86,1.55-.25,3.09.63,3.43,1.96Z"/>
    </g>
    <path class="cls-4" d="M149.09,91.53s-3.39-4.19-9.69-3.69c-6.3.5-7.07,3.18-7.07,3.18,0,0,.33-3.3,4.88-4.64,3.27-.97,9.75-1.19,11.88,5.16Z"/>
    <ellipse class="cls-10" cx="140.23" cy="89.4" rx=".61" ry=".58"/>
    <path class="cls-10" d="M184.5,96.33s-5.51,1.85-11.5-.23c-2.2-.77-4.49-1.94-3.64-3.8,1.69-3.71,8.41-4.05,11.38-3.06,3.23,1.08,4.85,2.45,3.75,7.09Z"/>
    <g>
      <path class="cls-14" d="M182.25,91.85c.63,2.4-1.07,3.92-3.86,4.36-2.79.44-5.62-.35-6.25-2.75-.63-2.4.5-4.52,3.3-4.96,2.79-.44,6.19.95,6.81,3.35Z"/>
      <path class="cls-8" d="M179.81,92.01c.35,1.33-.63,2.61-2.18,2.86-1.55.25-3.09-.63-3.43-1.96-.35-1.33.63-2.61,2.18-2.86,1.55-.25,3.09.63,3.43,1.96Z"/>
    </g>
    <path class="cls-4" d="M184.84,93.38s-2.3-4-8.59-3.5c-6.3.5-7.07,3.18-7.07,3.18,0,0,.33-3.3,4.88-4.64,3.27-.97,11.4.14,10.78,4.97Z"/>
    <ellipse class="cls-10" cx="175.88" cy="91.26" rx=".61" ry=".58"/>
  </g>
</svg>