<?xml version="1.0" encoding="UTF-8"?>
<svg xmlns="http://www.w3.org/2000/svg" xmlns:xlink="http://www.w3.org/1999/xlink" viewBox="0 0 278.14 278.14">
  <defs>
    <style>
      .cls-1 {
        fill: none;
      }

      .cls-2 {
        fill: #1b1b1b;
      }

      .cls-3 {
        fill: #010101;
      }

      .cls-4 {
        fill: #f48dab;
      }

      .cls-5 {
        fill: #6e472d;
      }

      .cls-6 {
        fill: #e1497b;
      }

      .cls-7 {
        fill: #f2eef7;
      }

      .cls-8 {
        clip-path: url(#clippath-1);
      }

      .cls-9 {
        fill: #050505;
      }

      .cls-10 {
        fill: #020202;
      }

      .cls-11, .cls-12 {
        fill: #fff;
      }

      .cls-13 {
        fill: #a92123;
      }

      .cls-14 {
        fill: #f06190;
      }

      .cls-15 {
        fill: #d53f6f;
      }

      .cls-12 {
        stroke: #241f20;
        stroke-width: .23px;
      }

      .cls-12, .cls-16, .cls-17 {
        stroke-miterlimit: 10;
      }

      .cls-18 {
        fill: #a06651;
      }

      .cls-16 {
        fill: #dbf1f9;
        stroke: #fff;
        stroke-width: .5px;
      }

      .cls-19 {
        fill: #cf9c7c;
      }

      .cls-20 {
        fill: #003043;
      }

      .cls-21 {
        fill: #5d2b27;
      }

      .cls-22 {
        fill: #dc9c78;
      }

      .cls-23 {
        fill: #241f20;
      }

      .cls-17 {
        fill: #2d1d13;
        stroke: #2d1d13;
        stroke-width: .2px;
      }

      .cls-24 {
        clip-path: url(#clippath);
      }
    </style>
    <clipPath id="clippath">
      <circle class="cls-1" cx="99.69" cy="-291.45" r="136.76"/>
    </clipPath>
    <clipPath id="clippath-1">
      <circle class="cls-1" cx="139.24" cy="139.07" r="136.76"/>
    </clipPath>
  </defs>
  <g id="Layer_4" data-name="Layer 4">
    <g class="cls-24">
      <path class="cls-22" d="M117.78,42.41s1.74,16.29,8.71,16.33c6.97.03,33.27-5.25,33.27-5.25,0,0-18.54-16.09-20.34-19.04-.99-1.62,3.74-50.72,6.72-75.94,2.07-17.52,2.15-31.46,2.15-31.46l-32.02,2.82-3.14,25.57-1.33,4.89c-.69,2.55-1.66,7.09-1.84,9.72-.49,7.11-.96,19.08-.6,22.72.61,6.16,5.13,21.29,5.42,23.46l3.53,19.22-.54,6.96Z"/>
      <g>
        <path class="cls-11" d="M138.15,34.82c-.43-.81,1.68-6.83,2.32-20.41h-.37c-3.47,1.34-7.23,1.35-11,1.34-2.81,0-5.62-.06-8.42-.29-2.38-.2-4.75-.86-7.14-.86l.6,4.2,2.86,20.13-.07,4.24s13.65,20.76,22.03,20.28c8.38-.48,26.3-6.16,26.3-6.16,0,0-24.73-18.03-27.09-22.47Z"/>
        <path class="cls-23" d="M138.29,34.78c-.22-.48.04-1.28.12-1.77.22-1.29.47-2.58.68-3.87.81-4.89,1.28-9.82,1.52-14.77,0-.03-.07-.03-.09-.03-.65,0-1.11.27-1.76.46-1.17.34-2.37.55-3.57.68-2.41.26-4.85.22-7.28.2s-5.1-.06-7.62-.33c-2.24-.24-4.43-.77-6.7-.81-.05,0-.22.03-.2.11.67,4.71,1.34,9.43,2.01,14.14l1.26,8.9c.07.48.16.96.18,1.45.03.65-.02,1.31-.03,1.96-.01.59-.19,1.5-.04,2.07.09.34.43.69.63.97.67.97,1.35,1.93,2.05,2.88,2.14,2.9,4.39,5.72,6.85,8.36s5.05,5.2,8.18,6.91c1.19.65,2.5,1.18,3.87,1.24,1.58.07,3.23-.26,4.77-.52,7.49-1.25,14.9-3.37,22.14-5.66.01,0,.18-.07.12-.11-7.73-5.64-15.48-11.39-22.62-17.75-1.54-1.37-3.45-2.86-4.46-4.7-.05-.08-.32.02-.29.08.84,1.53,2.34,2.78,3.61,3.94,2.2,2.02,4.51,3.92,6.83,5.8,4.6,3.71,9.3,7.29,14.04,10.81.22.16,2.64,2.05,2.73,1.82-.07.18-1.28.4-1.46.45-1.19.36-2.38.72-3.57,1.06-3.52,1.02-7.05,1.98-10.62,2.81s-7.16,1.79-10.74,1.83c-2.78.03-5.36-1.83-7.42-3.5-2.58-2.09-4.87-4.54-7.02-7.07-1.88-2.2-3.66-4.5-5.35-6.85-.61-.84-1.76-1.98-1.98-3-.25-1.14.08-2.57.07-3.74,0-.37-.04-.7-.1-1.06l-.96-6.79c-.6-4.23-1.2-8.46-1.8-12.69l-.5-3.56s-.12-.5-.08-.55c.11-.13,1.86.23,2.15.27,1.59.2,3.16.53,4.76.68,2.81.26,5.64.29,8.45.29s5.63.01,8.38-.57c.46-.1.92-.21,1.38-.34.28-.08,1.29-.56,1.51-.43.17.1-.07,1.61-.09,1.88-.05.89-.11,1.77-.18,2.66-.19,2.33-.43,4.66-.75,6.98-.35,2.57-.91,5.11-1.26,7.67-.05.34-.18.85-.02,1.19.04.08.32,0,.29-.08Z"/>
      </g>
      <g>
        <path class="cls-11" d="M114.13,18.8s7.03,1.4,13.88,1.52,12.18-1.52,12.18-1.52"/>
        <path class="cls-23" d="M114.05,18.88c8.45,1.67,17.81,2.53,26.17,0,.17-.05.13-.21-.04-.16-8.29,2.52-17.58,1.65-25.95,0-.1-.02-.34.14-.17.17h0Z"/>
      </g>
      <g>
        <path class="cls-13" d="M118.27,37.23s-2.72-.4-3.71,2.56c-.99,2.96-4.45,7.94-2.47,17.23,0,0-1.48,4.44-1.11,6.46.37,2.02-1.61,2.83,12.36,3.37,13.97.54,39.42,3.64,49.93,0,10.5-3.64,5.31-12.12,4.57-12.66s-14.83-4.98-14.83-4.98l-20.64-14.27-4.33-6.06s-5.69,4.44-4.7,7.54l.99,3.1s-4.57,6.46-9.76,4.58c-5.19-1.89-3.71-6.6-6.3-6.87Z"/>
        <path class="cls-23" d="M118.46,37.14c-2.15-.29-3.55,1.22-4.25,3.07-1.05,2.75-2.27,5.32-2.71,8.28-.33,2.25-.28,4.54.05,6.79.11.78.36,1.46.19,2.22s-.42,1.45-.59,2.18c-.37,1.58-.72,3.53-.27,5.16.3,1.09,1.81,1.25,2.73,1.4,3.7.62,7.51.59,11.25.78,8.26.4,16.5,1.17,24.77,1.5,7.26.29,15.03.69,22.14-1.14,2.8-.72,5.92-2.03,7.41-4.68,1.14-2.01.97-4.43.11-6.51-.53-1.29-.99-2.02-2.27-2.5-2.48-.93-5.02-1.73-7.54-2.54-2-.65-4.24-1.1-6.16-1.97-.8-.36-1.71-1.15-2.49-1.68l-13.58-9.39c-1.46-1.01-3.02-1.94-4.41-3.05-1.23-.99-2.12-2.79-3.05-4.09l-1.52-2.13c-.07-.1-.36.02-.43.08-1.41,1.11-2.74,2.44-3.74,3.93-.6.9-1.18,2-1.08,3.11s1.01,2.3,1.03,3.44c.01.92-1.73,2.23-2.43,2.82-1.46,1.21-3.26,2.24-5.21,2.15-1.67-.08-3.38-.94-4.47-2.2-.86-.99-1.24-2.2-1.75-3.38-.36-.81-.79-1.48-1.72-1.62-.1-.02-.48.15-.37.17,1.12.17,1.49,1.18,1.86,2.12.44,1.1.91,2.19,1.74,3.06,1.98,2.08,4.97,2.51,7.54,1.42,1.21-.51,2.3-1.29,3.27-2.17.6-.54,1.54-1.29,1.89-2.04.17-.37.13-.14.06-.57-.24-1.38-1.19-2.63-.94-4.08.43-2.49,2.83-4.69,4.73-6.18l-.43.08c1.23,1.72,2.45,3.43,3.68,5.15.61.85,1.04,1.19,1.9,1.78,4.04,2.79,8.08,5.59,12.12,8.38l5.66,3.91c.62.43,1.21.93,1.9,1.21,1.94.78,4.05,1.29,6.04,1.93,2.48.8,4.98,1.59,7.42,2.5,1.26.47,1.71,1.09,2.25,2.35.88,2.03,1.11,4.4.06,6.42-1.67,3.23-5.65,4.45-8.99,5.07-3.59.66-7.27.81-10.9.85-8.14.09-16.27-.52-24.39-1.07-3.56-.24-7.12-.5-10.68-.64s-7.2-.08-10.65-.85c-.96-.22-1.83-.48-1.97-1.54-.27-2.16.11-4.24.7-6.33.09-.32.3-.73.32-1.06.06-.96-.38-2.14-.47-3.11-.21-2.15-.14-4.32.27-6.44.52-2.67,1.7-5.03,2.63-7.55.53-1.44,1.64-2.81,3.35-2.58.1.01.48-.16.37-.17Z"/>
      </g>
      <path class="cls-12" d="M111.88,60.37s26.41,2.76,37.17,2.61c10.75-.15,26.86-.31,30.36-3.14,0,0,1.38,5.57-6.96,7.72-8.34,2.15-26,1.03-26,1.03,0,0-32.97-1.24-34.46-2.2s-2.11-4.1-.12-6.03Z"/>
      <path class="cls-23" d="M112.25,48.7c2.61-1.33,6.29-.72,8.84.73,2.37,1.34,4.35,3.47,5.95,5.65.99,1.35,1.85,2.83,2.35,4.44.19.62.38,1.31.34,1.96,0,.05.47,0,.48-.13.04-.65-.15-1.35-.34-1.96-.59-1.91-1.69-3.64-2.92-5.19-3.03-3.79-7.17-7-12.27-6.29-.95.13-1.93.36-2.79.8-.2.1.28.05.36,0h0Z"/>
      <path class="cls-23" d="M164.3,50.33c-1.89,2.32-5.42,2.25-7.98,1.28-2.74-1.04-5.35-2.43-7.93-3.81-2.93-1.57-5.82-3.22-8.7-4.9-.95-.55-1.89-1.11-2.83-1.68-.19-.11-1.01-.48-1.07-.63-.07-.17.24-.87.33-1.08.38-.95.99-1.8,1.76-2.48,1.11-.99,4.6-3.01,5.9-1.25.08.11.54-.05.45-.18-1.07-1.46-3.91-.32-5.08.27-1.83.93-3.53,2.71-3.83,4.81,0,.02,0,.04.01.05,3.22,1.96,6.49,3.85,9.79,5.69,2.54,1.41,5.1,2.79,7.72,4.04,1.66.79,3.45,1.73,5.3,1.97,2.2.28,5.11-.31,6.6-2.13.12-.14-.35-.09-.44.01h0Z"/>
      <path class="cls-2" d="M141.19,41.85l-.04-.05c-.32-.37-.12-1.09.44-1.61l4.09-3.73c.57-.52,1.29-.64,1.62-.27l.04.05c.32.37.12,1.09-.44,1.61l-4.09,3.73c-.57.52-1.29.64-1.62.27Z"/>
      <path class="cls-2" d="M146.24,43.76l-.16-.18c-.3-.34-.12-1,.39-1.46l3.06-2.76c.51-.46,1.18-.57,1.48-.23l.16.18c.3.34.12,1-.39,1.46l-3.06,2.76c-.51.46-1.18.57-1.48.23Z"/>
      <path class="cls-2" d="M150.91,45.6l-.2-.22c-.2-.22,0-.75.46-1.18l2.17-2c.46-.42,1-.59,1.2-.36l.2.22c.2.22,0,.75-.46,1.18l-2.17,2c-.46.42-1,.59-1.2.36Z"/>
      <path class="cls-2" d="M154.67,47.79l-.24-.27c-.24-.27-.07-.84.39-1.26l2.17-1.99c.46-.42,1.03-.54,1.28-.27l.24.27c.24.27.07.84-.39,1.26l-2.17,1.99c-.46.42-1.03.54-1.28.27Z"/>
      <path class="cls-22" d="M82.49,44.02s1.74,16.29,8.71,16.33c6.97.03,33.27-5.25,33.27-5.25,0,0-18.54-16.09-20.34-19.04-.99-1.62,3.74-50.72,6.72-75.94,2.07-17.52,2.15-31.46,2.15-31.46l-32.02,2.82-3.14,25.57-1.33,4.89c-.69,2.55-1.66,7.09-1.84,9.72-.49,7.11-.96,19.08-.6,22.72.61,6.16,5.13,21.29,5.42,23.46l3.53,19.22-.54,6.96Z"/>
      <g>
        <path class="cls-11" d="M103.38,37.33c-.43-.81,1.68-6.83,2.32-20.41h-.37c-3.47,1.34-7.23,1.35-11,1.34-2.81,0-5.62-.06-8.42-.29-2.38-.2-4.75-.86-7.14-.86l.6,4.2,2.86,20.13-.07,4.24s13.65,20.76,22.03,20.28c8.38-.48,26.3-6.16,26.3-6.16,0,0-24.73-18.03-27.09-22.47Z"/>
        <path class="cls-23" d="M103.52,37.29c-.22-.48.04-1.28.12-1.77.22-1.29.47-2.58.68-3.87.81-4.89,1.28-9.82,1.52-14.77,0-.03-.07-.03-.09-.03-.65,0-1.11.27-1.76.46-1.17.34-2.37.55-3.57.68-2.41.26-4.85.22-7.28.2s-5.1-.06-7.62-.33c-2.24-.24-4.43-.77-6.7-.81-.05,0-.22.03-.2.11.67,4.71,1.34,9.43,2.01,14.14l1.26,8.9c.07.48.16.96.18,1.45.03.65-.02,1.31-.03,1.96-.01.59-.19,1.5-.04,2.07.09.34.43.69.63.97.67.97,1.35,1.93,2.05,2.88,2.14,2.9,4.39,5.72,6.85,8.36s5.05,5.2,8.18,6.91c1.19.65,2.5,1.18,3.87,1.24,1.58.07,3.23-.26,4.77-.52,7.49-1.25,14.9-3.37,22.14-5.66.01,0,.18-.07.12-.11-7.73-5.64-15.48-11.39-22.62-17.75-1.54-1.37-3.45-2.86-4.46-4.7-.05-.08-.32.02-.29.08.84,1.53,2.34,2.78,3.61,3.94,2.2,2.02,4.51,3.92,6.83,5.8,4.6,3.71,9.3,7.29,14.04,10.81.22.16,2.64,2.05,2.73,1.82-.07.18-1.28.4-1.46.45-1.19.36-2.38.72-3.57,1.06-3.52,1.02-7.05,1.98-10.62,2.81s-7.16,1.79-10.74,1.83c-2.78.03-5.36-1.83-7.42-3.5-2.58-2.09-4.87-4.54-7.02-7.07-1.88-2.2-3.66-4.5-5.35-6.85-.61-.84-1.76-1.98-1.98-3-.25-1.14.08-2.57.07-3.74,0-.37-.04-.7-.1-1.06l-.96-6.79c-.6-4.23-1.2-8.46-1.8-12.69l-.5-3.56s-.12-.5-.08-.55c.11-.13,1.86.23,2.15.27,1.59.2,3.16.53,4.76.68,2.81.26,5.64.29,8.45.29s5.63.01,8.38-.57c.46-.1.92-.21,1.38-.34.28-.08,1.29-.56,1.51-.43.17.1-.07,1.61-.09,1.88-.05.89-.11,1.77-.18,2.66-.19,2.33-.43,4.66-.75,6.98-.35,2.57-.91,5.11-1.26,7.67-.05.34-.18.85-.02,1.19.04.08.32,0,.29-.08Z"/>
      </g>
      <g>
        <path class="cls-11" d="M79.37,21.31s7.03,1.4,13.88,1.52c6.85.12,12.18-1.52,12.18-1.52"/>
        <path class="cls-23" d="M79.28,21.39c8.45,1.67,17.81,2.53,26.17,0,.17-.05.13-.21-.04-.16-8.29,2.52-17.58,1.65-25.95,0-.1-.02-.34.14-.17.17h0Z"/>
      </g>
      <path class="cls-23" d="M110.02,45.69c2.45-1.31,5.95-.72,8.34.7s4.2,3.51,5.71,5.69c.94,1.35,1.75,2.82,2.22,4.41.18.62.37,1.32.33,1.98,0,.06.47.01.48-.13.03-.64-.14-1.31-.31-1.92-.55-1.89-1.58-3.63-2.77-5.2-2.8-3.7-6.72-7.02-11.65-6.34-.92.13-1.88.36-2.71.81-.2.11.28.06.37.01h0Z"/>
      <path class="cls-23" d="M105.91,47.76c2.39-1.28,5.57-.89,7.89.31s4.31,3.34,5.89,5.47c1.07,1.45,2,3.04,2.53,4.76.2.65.4,1.38.37,2.07-.01.23.47.14.48-.05.12-2.33-1.43-4.87-2.71-6.67-2.73-3.83-6.7-7.44-11.72-6.94-.98.1-2.04.32-2.92.8-.29.15-.03.37.2.24h0Z"/>
      <path class="cls-20" d="M108.19,41.94c2.17.23,4.4,1.01,6.28,2.09,1.63.94,3.08,2.22,4.04,3.85,1.2,2.04,2.11,4.34,2.75,6.62.27.96.53,1.96.59,2.96.01.18.49.07.48-.13-.06-.86-.26-1.72-.48-2.55-.61-2.33-1.54-4.59-2.68-6.71-1.68-3.12-4.9-4.96-8.22-5.9-.84-.24-1.71-.44-2.59-.53-.2-.02-.5.27-.18.3h0Z"/>
      <g>
        <path class="cls-13" d="M83.5,39.73s-2.72-.4-3.71,2.56c-.99,2.96-4.45,7.94-2.47,17.23,0,0-1.48,4.44-1.11,6.46.37,2.02-1.61,2.83,12.36,3.37,13.97.54,39.42,3.64,49.93,0,10.5-3.64,5.31-12.12,4.57-12.66-.74-.54-14.83-4.98-14.83-4.98l-20.64-14.27-4.33-6.06s-5.69,4.44-4.7,7.54l.99,3.1s-4.57,6.46-9.76,4.58c-5.19-1.89-3.71-6.6-6.3-6.87Z"/>
        <path class="cls-23" d="M83.69,39.65c-2.15-.29-3.55,1.22-4.25,3.07-1.05,2.75-2.27,5.32-2.71,8.28-.33,2.25-.28,4.54.05,6.79.11.78.36,1.46.19,2.22s-.42,1.45-.59,2.18c-.37,1.58-.72,3.53-.27,5.16.3,1.09,1.81,1.25,2.73,1.4,3.7.62,7.51.59,11.25.78,8.26.4,16.5,1.17,24.77,1.5,7.26.29,15.03.69,22.14-1.14,2.8-.72,5.92-2.03,7.41-4.68,1.14-2.01.97-4.43.11-6.51-.53-1.29-.99-2.02-2.27-2.5-2.48-.93-5.02-1.73-7.54-2.54-2-.65-4.24-1.1-6.16-1.97-.8-.36-1.71-1.15-2.49-1.68l-13.58-9.39c-1.46-1.01-3.02-1.94-4.41-3.05-1.23-.99-2.12-2.79-3.05-4.09l-1.52-2.13c-.07-.1-.36.02-.43.08-1.41,1.11-2.74,2.44-3.74,3.93-.6.9-1.18,2-1.08,3.11s1.01,2.3,1.03,3.44c.01.92-1.73,2.23-2.43,2.82-1.46,1.21-3.26,2.24-5.21,2.15-1.67-.08-3.38-.94-4.47-2.2-.86-.99-1.24-2.2-1.75-3.38-.36-.81-.79-1.48-1.72-1.62-.1-.02-.48.15-.37.17,1.12.17,1.49,1.18,1.86,2.12.44,1.1.91,2.19,1.74,3.06,1.98,2.08,4.97,2.51,7.54,1.42,1.21-.51,2.3-1.29,3.27-2.17.6-.54,1.54-1.29,1.89-2.04.17-.37.13-.14.06-.57-.24-1.38-1.19-2.63-.94-4.08.43-2.49,2.83-4.69,4.73-6.18l-.43.08c1.23,1.72,2.45,3.43,3.68,5.15.61.85,1.04,1.19,1.9,1.78,4.04,2.79,8.08,5.59,12.12,8.38l5.66,3.91c.62.43,1.21.93,1.9,1.21,1.94.78,4.05,1.29,6.04,1.93,2.48.8,4.98,1.59,7.42,2.5,1.26.47,1.71,1.09,2.25,2.35.88,2.03,1.11,4.4.06,6.42-1.67,3.23-5.65,4.45-8.99,5.07-3.59.66-7.27.81-10.9.85-8.14.09-16.27-.52-24.39-1.07-3.56-.24-7.12-.5-10.68-.64s-7.2-.08-10.65-.85c-.96-.22-1.83-.48-1.97-1.54-.27-2.16.11-4.24.7-6.33.09-.32.3-.73.32-1.06.06-.96-.38-2.14-.47-3.11-.21-2.15-.14-4.32.27-6.44.52-2.67,1.7-5.03,2.63-7.55.53-1.44,1.64-2.81,3.35-2.58.1.01.48-.16.37-.17Z"/>
      </g>
      <path class="cls-12" d="M77.11,62.87s26.41,2.76,37.17,2.61c10.75-.15,26.86-.31,30.36-3.14,0,0,1.38,5.57-6.96,7.72-8.34,2.15-26,1.03-26,1.03,0,0-32.97-1.24-34.46-2.2s-2.11-4.1-.12-6.03Z"/>
      <path class="cls-23" d="M77.48,51.21c2.61-1.33,6.29-.72,8.84.73,2.37,1.34,4.35,3.47,5.95,5.65.99,1.35,1.85,2.83,2.35,4.44.19.62.38,1.31.34,1.96,0,.05.47,0,.48-.13.04-.65-.15-1.35-.34-1.96-.59-1.91-1.69-3.64-2.92-5.19-3.03-3.79-7.17-7-12.27-6.29-.95.13-1.93.36-2.79.8-.2.1.28.05.36,0h0Z"/>
      <path class="cls-23" d="M129.53,52.84c-1.89,2.32-5.42,2.25-7.98,1.28-2.74-1.04-5.35-2.43-7.93-3.81-2.93-1.57-5.82-3.22-8.7-4.9-.95-.55-1.89-1.11-2.83-1.68-.19-.11-1.01-.48-1.07-.63-.07-.17.24-.87.33-1.08.38-.95.99-1.8,1.76-2.48,1.11-.99,4.6-3.01,5.9-1.25.08.11.54-.05.45-.18-1.07-1.46-3.91-.32-5.08.27-1.83.93-3.53,2.71-3.83,4.81,0,.02,0,.04.01.05,3.22,1.96,6.49,3.85,9.79,5.69,2.54,1.41,5.1,2.79,7.72,4.04,1.66.79,3.45,1.73,5.3,1.97,2.2.28,5.11-.31,6.6-2.13.12-.14-.35-.09-.44.01h0Z"/>
      <path class="cls-2" d="M106.42,44.36l-.04-.05c-.32-.37-.12-1.09.44-1.61l4.09-3.73c.57-.52,1.29-.64,1.62-.27l.04.05c.32.37.12,1.09-.44,1.61l-4.09,3.73c-.57.52-1.29.64-1.62.27Z"/>
      <path class="cls-2" d="M111.47,46.27l-.16-.18c-.3-.34-.12-1,.39-1.46l3.06-2.76c.51-.46,1.18-.57,1.48-.23l.16.18c.3.34.12,1-.39,1.46l-3.06,2.76c-.51.46-1.18.57-1.48.23Z"/>
      <path class="cls-2" d="M116.14,48.1l-.2-.22c-.2-.22,0-.75.46-1.18l2.17-2c.46-.42,1-.59,1.2-.36l.2.22c.2.22,0,.75-.46,1.18l-2.17,2c-.46.42-1,.59-1.2.36Z"/>
      <path class="cls-2" d="M119.9,50.29l-.24-.27c-.24-.27-.07-.84.39-1.26l2.17-1.99c.46-.42,1.03-.54,1.28-.27l.24.27c.24.27.07.84-.39,1.26l-2.17,1.99c-.46.42-1.03.54-1.28.27Z"/>
    </g>
  </g>
  <g id="Layer_8" data-name="Layer 8">
    <g class="cls-8">
      <circle class="cls-16" cx="139.07" cy="139.07" r="136.76"/>
      <circle class="cls-1" cx="139.43" cy="138.93" r="136.76"/>
      <circle class="cls-1" cx="138.89" cy="139.58" r="136.76"/>
      <circle class="cls-1" cx="138.08" cy="139.07" r="136.76"/>
      <path class="cls-3" d="M165.53,44.35c-1.7-9.36-9.81-10.96-13.19-11.59-3.36-.62-6.96-.95-10.08.44-4.74,2.1-9.29,9.04-10.43,14.1-.89,3.95.32,8.67.32,12.72,0,3.5.9,4.82.35,8.27-.55,3.46-2.16,6.95-5.14,8.79,1.71.2,3.41.4,5.12.59.03,2.11-.19,4.23-.66,6.29,2.91,1.87,6.94.8,9.58-1.44,2.64-2.24,4.27-5.4,6.11-8.33,3.73-5.94,8.53-11.19,14.12-15.44"/>
      <path class="cls-3" d="M106.54,64.03c-3.37,3.69-3.95,9.09-4.11,14.09-.26,8.06.11,16.14,1.13,24.15.68,5.4,1.26,11.87-2.98,15.29,2.48,2.81,5.69,4.97,9.24,6.2,1.25.43,2.59.75,3.88.49,2.19-.45,4.4-2.51,6.31-1.36.65,2.54,3.88,3.32,6.5,3.24,4.47-.14,8.9-1.41,12.77-3.66.42-.24.85-.52,1.07-.95.27-.54.14-1.19,0-1.78-1.79-8.1-1.93-16.46-2.93-24.69-1-8.23-3-16.62-7.95-23.28-4.95-6.65-13.43-11.2-21.55-9.52"/>
      <path class="cls-3" d="M176.59,66.78c3.37,3.69,3.95,9.09,4.11,14.09.26,8.06-.11,16.14-1.13,24.15-.68,5.4-1.26,11.87,2.98,15.29-2.48,2.81-5.69,4.97-9.24,6.2-1.25.43-2.59.75-3.88.49-2.19-.45-4.4-2.51-6.31-1.36-.65,2.54-3.88,3.32-6.5,3.24-4.47-.14-8.9-1.41-12.77-3.66-.42-.24-.85-.52-1.07-.95-.27-.54-.14-1.19,0-1.78,1.79-8.1,1.93-16.46,2.93-24.69,1-8.23,3-16.62,7.95-23.28,4.95-6.65,13.43-11.2,21.55-9.52"/>
      <path class="cls-3" d="M123.04,44.37c-2.07-2.75-5.66-3.82-9.04-4.44-3.36-.62-6.96-.95-10.08.44-4.74,2.1-9.29,9.04-10.43,14.1-.89,3.95.32,8.67.32,12.72,0,3.5.9,4.82.35,8.27-.55,3.46-2.16,6.95-5.14,8.79,1.71.2,3.41.4,5.12.59.03,2.11-.19,4.23-.66,6.29,2.91,1.87,6.94.8,9.58-1.44,2.64-2.24,4.27-5.4,6.11-8.33,3.73-5.94,8.53-11.19,14.12-15.44"/>
      <path class="cls-15" d="M118.54,43.17s2.16-6.22,4.74-6.22,4.19,4.14,4.19,4.14c0,0-7.89,2.62-16.15,11.48-2.67,2.87-6.27-2.68-5.99-5.2.28-2.53,5.31-3.31,10.09-2.17,0,0,.12-2.91,3.11-2.01Z"/>
      <path class="cls-15" d="M160.5,38.81s6.19-2.26,7.82-.26c1.63,2-.55,5.86-.55,5.86,0,0-7.02-4.46-19.1-5.25-3.92-.25-1.89-6.55.25-7.93,2.14-1.38,5.92,2.02,8.06,6.44,0,0,2.33-1.75,3.53,1.14Z"/>
      <path class="cls-3" d="M107.11,100.44c2.3,4.6,8.65,9.08,12.77,12.19,4.22,3.17,6.1,3.88,11.18,4.16,9.91.55,20.06-1.34,28.72-6.44,8.93-5.26,15.51-13.72,18.66-23.77,2.2-7.02,3.02-14.15,2.63-21.21-.15-.73-.4-1.91-.56-2.64-5.03-13.68-9.17-21.06-22.49-23.71-8.18-1.71-22.21-3.65-35.05,1.05-2.77,1.01-6.83,8.37-10.38,10.06-5.35,2.54-3.13,3.13-5.44,7.62-3.37,6.57-3.66,15.53-3.99,24-.25,6.42,1.02,12.83,3.89,18.59.02.04.04.07.05.11Z"/>
      <path class="cls-19" d="M183.24,100.21c.43-4.2-.72-6.79-1.29-9.32.04-1.94.08-4.2.11-6.92,0-.79,0-1.55-.02-2.3-.05-.39-.06-.77-.04-1.16-.56-13.26-5.82-20.26-5.82-20.26-5.68-8.74-15.56-13.79-25.95-13.26-12.23.37-23.21,7.91-28.89,15.45-2.83,3.73-4.18,8.38-3.79,13.05.32,3.99.11,7.77,1.23,12.09-4.28-.16-8.45,1.42-6.82,9.28,2.25,10.85,9.02,12.35,12.85,9.18,1.88,1.1,3.3,6.48,3.5,8.75.38,4.34.17,11.63-1.93,15.44l.13,1.24c9.36,14.79,28.98,19.59,42.27,7.88l-6.14-9.99-.12-2.88q2.39-.19,5.32-.81c9.83-2.64,14.91-20.5,15.42-25.45Z"/>
      <path class="cls-3" d="M121.67,95.17c-.02-.06-.02-.13-.04-.2-.6-1.51-1.3-2.92-2.57-3.99-.58-.49-1.27-1.04-2-1.35-.73-.32-1.51-.68-2.31-.77-1.12-.26-2.24-.22-3.34.12-.19.08-.37.17-.56.26-3.04-9.24-4.49-19.15,2.09-30.66,1.9-3.32,6.99-7.03,8.55-8.23,9.43-7.14,17.98-7.8,28.52-6.95,12.22.98,23.71,5.08,26.74,17.35.73,2.96,1.6-1.27,1.36,1.77,0,0,2.19,1.15-3.76-2.26-5.95-3.4-7.58-3.45-15.91-3.11-9.64.35-16.33.09-24.85,2-3.93.88-5.09,12.01-5.09,12.02-.42,1.78-.56,6.29-1.26,7.96-.69,1.65-3.2,5.92-3.28,7.7-.17,3.63-.34-3.63,0,0,.21,2.25.77,6.61-1.36,8.15-.95.69.1.55-.94.22Z"/>
      <path class="cls-23" d="M116.25,97.41c-.46-1.3-.67-2.74-.25-4.08.03-.08.31-.59.29-.67-.01-.03-.12.06-.12.06,0,0,0-.02.05,0,.09.04.22.05.32.08.2.07.39.17.57.28.68.41,1.26.97,1.79,1.55,1.16,1.28,2.12,2.73,3,4.21l.24-.13c-.43-.31-1.04-.59-1.58-.46-.63.15-.83.86-.84,1.43-.03,1.79,1.61,2.67,3.19,2.82.12.01.29-.16.1-.18-1.37-.13-2.79-.8-2.99-2.31-.06-.44-.03-1.12.31-1.45.42-.41,1.19.02,1.58.29.07.05.31-.02.24-.13-.87-1.46-1.82-2.9-2.96-4.17-.57-.63-1.19-1.24-1.93-1.66-.28-.16-.62-.34-.95-.35-.3-.01-.36.21-.47.47-.59,1.43-.37,3.05.12,4.47.04.11.32.03.28-.08h0Z"/>
      <path class="cls-18" d="M163.27,108.2c-3.25.02-8.53-.3-8.53-.3,0,0-.39,7.2,8.63,7.2s7.65-7.15,7.65-7.15c0,0-4.5.22-7.75.24Z"/>
      <path class="cls-3" d="M163.54,108.2c-1.58,0-7.46-.01-7.46-.01,0,0,1.78,3.8,7.49,3.76,6.19-.04,6.72-3.47,6.72-3.47l-6.75-.28Z"/>
      <path class="cls-7" d="M163.95,108.75c-1.65.01-6.68-.2-6.68-.2,0,0,1.82,1.55,6.77,1.52,4.95-.03,6.52-1.55,6.52-1.55l-6.61.24Z"/>
      <path class="cls-18" d="M171.58,107.91c0-.16-.35-.23-1.15-.28-1.33-.09-1.76-.53-2.73-.59-1.64-.1-2.68.48-3.4.48s-1.76-.56-3.4-.44c-.96.07-3.34.4-4.67.51-.8.07-1.73-.2-1.9-.17-.24.05.33,2.06,9.3,2,8.98-.06,7.94-1.3,7.94-1.51Z"/>
      <path class="cls-17" d="M153.63,80.85c.01-.09-.31-.11-.3-.2-4.99-1.34-8.82-1.59-10.24-1.4-1.07.14-2.13.49-3.13.99,0,0-2.77,1.33-3.12,1.89-.35.56,1.66-.22,1.66-.22.43-.1.73-.24,1.16-.29,2.4-.26,4.71-.84,7.1-.44,2.04.33,4.38.36,6.32,1.18.1-.94.37-.59.55-1.51Z"/>
      <path class="cls-17" d="M181.95,81.82s.02-.02.03-.03c0-.01.01-.02.02-.03-.03-.1-.07-.21-.07-.32,0-.16,0-.32,0-.47h0s0-.04,0-.06c-.02-.05,0-.1-.01-.15-.47-.27-.83-.46-.83-.46-.94-.51-1.92-.87-2.92-1.03-1.31-.2-4.87,0-9.48,1.28,0,.09-.29.11-.28.19.18.92.84.77.95,1.71,1.79-.79,3.54-1,5.43-1.3,2.21-.37,4.36.23,6.59.52.22.03.4.08.58.14Z"/>
      <path class="cls-11" d="M154.71,91.33s-6.9,2.91-12.36.46c-1.96-.88-2.9-2.06-2.11-3.79,1.56-3.44,6.55-3.51,9.38-2.63,3.08.96,5.35,2.66,5.09,5.96Z"/>
      <g>
        <path class="cls-5" d="M152.22,87.94c.62,2.21-.97,3.63-3.61,4.07-2.64.44-5.34-.27-5.96-2.48-.62-2.21.43-4.17,3.07-4.61,2.64-.44,5.88.81,6.5,3.02Z"/>
        <path class="cls-9" d="M149.9,88.11c.34,1.23-.57,2.42-2.03,2.66-1.47.24-2.93-.55-3.28-1.78-.34-1.23.57-2.42,2.03-2.66,1.47-.24,2.93.55,3.28,1.78Z"/>
      </g>
      <ellipse class="cls-11" cx="146.35" cy="87.68" rx=".38" ry=".43" transform="translate(55.77 232.25) rotate(-88.85)"/>
      <path class="cls-3" d="M154.6,89.33s-3.27-3.84-9.24-3.31c-5.97.53-5.36,3.47-5.36,3.47,0,0-1.03-3.51,3.27-4.8,3.09-.93,9.24-1.19,11.33,4.64Z"/>
      <path class="cls-11" d="M181.95,90.88s-4.58,3.37-9.85.91c-1.89-.88-2.3-1.56-1.54-3.29,1.51-3.44,5.82-4.01,8.56-3.13,2.97.96,3.08,2.2,2.84,5.5Z"/>
      <g>
        <path class="cls-5" d="M180.64,88.07c.54,2.23-1.03,3.6-3.6,3.97-2.56.37-5.15-.41-5.68-2.63-.54-2.23.53-4.16,3.09-4.53,2.56-.37,5.65.97,6.19,3.2Z"/>
        <path class="cls-9" d="M178.4,88.18c.3,1.23-.61,2.4-2.03,2.61-1.42.2-2.82-.63-3.11-1.86-.3-1.23.61-2.4,2.03-2.61,1.42-.2,2.82.63,3.11,1.86Z"/>
      </g>
      <ellipse class="cls-11" cx="174.98" cy="87.66" rx=".38" ry=".41" transform="translate(77.81 257.55) rotate(-86.84)"/>
      <path class="cls-3" d="M182.03,88.85s-.53-3.4-6.29-2.87-5.5,4.22-5.5,4.22c0,0-.84-4.09,3.31-5.38,2.98-.93,8.79-.56,8.49,4.03Z"/>
      <path class="cls-21" d="M162.61,128.59v-2.28s-13.91,1.19-22.74-6.11c0,0,6.08,6.82,13.03,7.98,6.95,1.16,9.71.41,9.71.41Z"/>
      <path class="cls-19" d="M161.83,58.26c.17-.9-.45-1.74-1.03-2.44-2.25-2.73-4.71-5.6-8.11-6.6,1.92,2.1,3.49,4.53,4.61,7.14.4.94.76,1.92,1.45,2.67.69.75,1.81,1.22,2.74.82"/>
      <path class="cls-19" d="M182.63,143.35c1.29.47,12.23,4.37,12.74,29.3.18,8.81,1.65,33.83,2.67,41.24,1.19,7.65,1.66,13.28,2.27,22.84.16,2.49.2,5.48.12,10.39l-.43,20.92-12.71-1.32s2.06-53.28-2.35-65.18c-4.41-11.89-2.31-58.19-2.31-58.19Z"/>
      <path class="cls-14" d="M189.34,215.4l-.02-2.14c-8.1,4.34-14.5,5.45-27.1,5.32-10.41-.1-41.7.23-53.19-5.87-1.96-1.04-2.96-1.53-3.52-1.71-1.08,2.64-2.72,5.06-4.21,7.49-1.02,1.66-1.84,3.39-2.59,5.16-3.97,21.6-20.88,83.45-28.06,102.46,1.6,4.24.09,4.64,3.98,4.92,3.59.26,3.69-1.23,6.71,1.24,1.57,1.28,2.69,3.18,4.22,4.46,1.83,1.52,3.95.56,6.01.13,4.38-.91,7.15.76,10.42,4,3.15,3.12,4.92.42,8.26-.96,3.59-1.48,6.48-.21,9.53,2.05,1.47,1.09,2.56,2.06,4.25,1.26,1.52-.72,2.79-2.01,4.36-2.65,4.23-1.73,7.43.46,11.26,2.32,2.81,1.37,5.38-3.62,8.38-3.85,2.62-.21,6.38,4.44,8.89,3.52,3.19-1.17,5.74-3.55,8.85-4.75,1.8-.7,3.46-.62,5.17.36,1.3.75,2.77,2.76,4.21,3,2.58.42,5.52-3.3,7.94-3.64,1.66-.23.82-.81,3.75,1.6,1.39,1.14,6.16,4.47,7.47,3.07,1.01-1.07,4.44-2.78,5.48-3.82,2.66-2.67,3.41-2.96,6.74-1.79,1.63.57,3.28,1.87,5.05,1.6,1.7-.26,3.19-1.93,4.59-3,1.56-1.2.97-1.44,2.47-1.68l-29.29-118.06Z"/>
      <path class="cls-11" d="M190.4,145.74c-2.25-2.47-3.16-4.05-5.1-5.06-.01,0-.02-.02-.03-.03-6.76-5.76-22.09-11.77-22.09-11.77,0,0,6.9,12.15-11.05,12.78-14.39.5-24.34-15.7-24.34-15.7,0,0-.53.12-6.72,2.24-.34.11-2.37.77-2.71.88-.63.21-.52.18-1.18.38-.36.11-1.54.46-1.95.62-.41.14-1.16.35-1.56.5.05.01-2.28.75-2.24.77-5.66,2.57-14.35,7.91-14.35,7.91,0,0-1.59.84-1.46,1.28-3.92,2.74-7.55,12.04-10.81,31.09-.74,4.31,1.64,8.55,5.74,10.06,3.73,1.38,8.81,2.88,14.8,3.69,0,0,0,0,0,0-.38,1.02-.44,2.31-.6,3.39-.95,6.26-1.2,12.64-1.73,18.95,7.56.77,1.9,5.04,9.36,6.37,10.17,1.81,38.21,4.91,48.58,5.04,12.71.16,17.14.2,24.11-3.3-.21-.91,4.59-3.65,3.74-10.71,2.01-6.46.74-12.96.79-22.89.13,0,.25-.08.37-.43.03,0,.05-.01.08-.02,4.58-1.02,7.75-5.23,7.54-9.92-.35-7.99-1.81-20.2-7.19-26.13Z"/>
      <path class="cls-15" d="M74.65,328.79c2.3-7.78,4.64-15.54,6.96-23.32,1.22-4.09,2.38-8.2,3.69-12.27.76-2.35,1.7-4.61,2.53-6.93.42-1.16.72-2.37,1.05-3.55.5-1.81.99-3.63,1.5-5.43.34-1.23.63-2.53,1.15-3.7.06-.13-.42-.08-.48.07-.43.98-.68,2.05-.97,3.07-.46,1.62-.9,3.24-1.34,4.86-.38,1.38-.75,2.76-1.18,4.13-.6,1.9-1.45,3.73-2.09,5.62-1.45,4.24-2.65,8.56-3.93,12.85s-2.44,8.17-3.66,12.25-2.47,8.27-3.7,12.41c-.04.15.44.08.48-.07h0Z"/>
      <path class="cls-15" d="M109.14,338.54c.23-10.07.76-20.13,1.6-30.16.83-10.04,1.96-20.05,3.39-30.01.8-5.59,1.7-11.17,2.69-16.73.03-.19-.45-.11-.48.06-1.76,9.91-3.23,19.88-4.4,29.88s-2.04,20.04-2.61,30.09c-.32,5.64-.54,11.28-.67,16.93,0,.21.48.11.48-.06h0Z"/>
      <path class="cls-15" d="M126.9,338c-.12-9.49-.19-18.98-.19-28.47,0-9.27.06-18.54.18-27.82.07-5.44.17-10.88.28-16.32,0-.26-.49-.19-.49.04-.19,9.49-.33,18.98-.4,28.47-.07,9.27-.07,18.54-.02,27.82.03,5.44.09,10.88.16,16.32,0,.26.49.19.49-.04h0Z"/>
      <path class="cls-15" d="M144.82,338c.06-9.56.06-19.12,0-28.68s-.2-19.18-.4-28.76c-.11-5.44-.25-10.87-.4-16.31,0-.15-.49-.06-.48.13.27,9.54.48,19.09.62,28.63.14,9.62.22,19.24.23,28.85,0,5.4-.01,10.79-.05,16.19,0,.2.48.1.48-.06h0Z"/>
      <path class="cls-15" d="M163.51,335.2c-.77-10.04-1.73-20.07-2.68-30.09-1-10.61-2.01-21.22-2.85-31.84-.47-5.95-.89-11.9-1.22-17.86-.01-.25-.5-.16-.49.04.59,10.58,1.44,21.15,2.39,31.71.94,10.51,1.98,21.01,2.94,31.52.51,5.55.99,11.1,1.42,16.66.02.21.5.1.48-.13h0Z"/>
      <path class="cls-15" d="M179.8,335.81c-.75-4.88-1.57-9.76-2.41-14.62-.99-5.74-2.01-11.48-3.05-17.22s-2.09-11.45-3.14-17.18c-.91-4.92-1.83-9.84-2.74-14.76-.6-3.23-1.21-6.46-1.79-9.7-.04-.24-.09-.48-.13-.73-.02-.09-.5.02-.48.13.53,2.97,1.09,5.93,1.64,8.89.88,4.76,1.77,9.51,2.65,14.27,1.05,5.67,2.09,11.34,3.12,17.01s2.09,11.57,3.09,17.36c.87,5.02,1.73,10.05,2.52,15.09.08.53.17,1.06.25,1.59.01.09.5-.02.48-.13h0Z"/>
      <path class="cls-15" d="M196.93,335.2c-2.66-8.37-4.67-16.94-6.62-25.5-2.12-9.31-4.09-18.65-6.21-27.95-1.04-4.58-2.11-9.15-3.32-13.68-.04-.15-.52-.02-.48.13,2.25,8.5,4.1,17.1,5.98,25.68,2.04,9.32,4.06,18.65,6.39,27.9,1.14,4.55,2.36,9.08,3.78,13.55.05.15.53.01.48-.13h0Z"/>
      <path class="cls-15" d="M210.76,333.75c-1.51-4.06-2.78-8.22-4.02-12.37-1.64-5.49-3.19-11.01-4.69-16.54-1.63-5.98-3.22-11.98-4.78-17.98-1.46-5.63-2.91-11.27-4.34-16.92-1.13-4.44-2.24-8.89-3.37-13.33-.11-.42-.21-.84-.32-1.26-.05-.18-.53-.05-.48.13,1.07,4.21,2.13,8.42,3.19,12.63,1.41,5.56,2.82,11.12,4.26,16.68,1.55,6,3.13,12,4.75,17.99,1.52,5.61,3.07,11.22,4.72,16.8,1.29,4.39,2.62,8.77,4.15,13.08.15.41.29.81.44,1.22.07.18.55.04.48-.13h0Z"/>
      <path class="cls-14" d="M189.28,208.34l.05,7.06s-8.02,7.46-39.06,7.1c-31.04-.36-45.92-8.71-45.92-8.71l1.69-8.19s25.54,9.99,48.59,8.46c23.05-1.54,34.65-5.71,34.65-5.71Z"/>
      <path class="cls-15" d="M188.8,205.12l.53,10.27s-8.02,7.46-39.06,7.1c-31.04-.36-45.92-8.71-45.92-8.71l1.21-11.41s25.54,9.99,48.59,8.46c23.05-1.54,34.65-5.71,34.65-5.71Z"/>
      <path class="cls-19" d="M110.44,292.29c-2.21-2.1-4.61-4.05-7.17-5.85l-2.78-7.34,1.15-3.79,2.27-.14s.8,9.71,2.71,11.28c1.91,1.57,2.87,1.53,2.87,1.53l1.52-2.29-2.79-14.26s-2.3-6.03-3.05-7.4c-.92-1.31-1.96-2.56-3.12-3.74l-.67-7.16-13.03-5.01c.54,1.95,2.09,10.37,2.85,12.59l-1.58,16.71,4.09,6.41,5.15,5.64,12.24,6.02s1.7-.78-.63-3.22Z"/>
      <path class="cls-19" d="M110.47,185.64c-3.13-.23-6.24-.62-9.32-1.28-5.12-1.09-9.91-3.26-14.97-4.56-.06.53-.11,1.04-.18,1.58l-2.02,15.47c-1.84,13.73-.84,19.87-.86,22.74-.06,12.67,8.45,43.64,8.45,43.64l9.46-3.94s5.8-28.46,3.66-41.33l5.78-32.33Z"/>
      <path class="cls-15" d="M115.12,147.38c-.22.1-.11-.02.15.06.46.15.99.62,1.35,1.08.91,1.16,1.47,2.58,1.93,3.96.7,2.08,1.33,4.29,1.4,6.5.15,4.27-.95,8.58-2.04,12.68-1,3.78-1.58,8.36-4.74,11.01-3.89,3.26-8.76,1.98-13.25.96-2.35-.54-4.68-1.19-6.98-1.94-1.97-.65-4.12-1.21-5.6-2.76s-2.24-3.72-2.03-5.86c.26-2.61.88-5.24,1.4-7.82.83-4.19,1.78-8.37,3.05-12.46.92-2.98,1.98-6.01,3.6-8.69.53-.87,1.13-1.74,1.86-2.46.77-.76,1.83-1.28,2.49-2.14.14-.18.16-.37.05-.57h0c-.19-.33-.71-.26-.99-.14-.06.03-.12.07-.18.11-.82.54.35,1.13.98.72,3.99-2.59,8.14-5.07,12.46-7.07,3.52-1.62,7.35-2.57,11.02-3.78,2.3-.75,4.59-1.52,6.88-2.3l-.8-.2c3.79,6.15,9.83,11.84,16.59,14.47,5.02,1.95,11.2,2.12,16.21,0,2.93-1.24,5.04-3.71,4.96-6.99-.05-1.89-.64-3.87-1.61-5.5l-1.07.84c7.16,2.84,14.54,6.11,20.79,10.64,1.67,1.21,3.31,2.31,4.65,3.89,1.71,2.01,3.28,3.91,4.39,6.33,2.34,5.08,3.38,10.76,4.06,16.28.35,2.85,1.02,6.1.21,8.91-.89,3.07-3.36,5.43-6.48,6.13l.88.49c-.16-6.95-.32-13.9-.49-20.85-.02-1-.05-2.01-.07-3.01-.02-.8-1.49-.61-1.47.09.16,6.95.32,13.9.49,20.85.02,1,.05,2.01.07,3.01.01.47.5.57.88.49,2.57-.57,4.86-2.11,6.32-4.31,1.55-2.34,1.79-4.84,1.58-7.57-.47-5.91-1.3-11.89-3.2-17.52-.85-2.53-1.94-5.05-3.52-7.23-.85-1.16-1.86-2.22-2.8-3.31-.63-.73-1.29-1.4-2.13-1.89s-1.57-1.16-2.38-1.74c-1.08-.78-2.21-1.5-3.35-2.18-2.3-1.38-4.68-2.64-7.09-3.82-3.44-1.7-6.95-3.29-10.51-4.7-.47-.19-1.43.24-1.07.84,2.1,3.52,2.18,8.39-1.85,10.51-2.28,1.2-4.98,1.53-7.52,1.64s-5.27-.31-7.76-1.24c-4.43-1.66-8.29-4.66-11.52-8.07-1.78-1.88-3.49-3.92-4.85-6.13-.15-.24-.56-.29-.8-.2-2.35.8-4.71,1.58-7.08,2.36-3.74,1.23-7.62,2.2-11.2,3.85-4.44,2.05-8.68,4.61-12.78,7.27l.98.72c-.15.09-.2.12-.14.09l-.99-.13h0c.02-.19.03-.38.05-.57-.16.21-1.08.93-1.46,1.23-.35.28-.69.56-1.01.88-.71.72-1.3,1.53-1.83,2.39-1.63,2.62-2.71,5.56-3.65,8.49-1.41,4.43-2.45,8.98-3.35,13.54-.94,4.74-2.88,10.38,1.07,14.27,1.49,1.46,3.42,2.07,5.36,2.72,2.43.81,4.9,1.51,7.39,2.1,4.65,1.09,9.6,2.34,13.93-.37,1.71-1.08,3.11-2.6,4-4.42.95-1.94,1.34-4.23,1.91-6.3,1.25-4.54,2.58-9.25,2.58-13.99,0-2.61-.65-5.17-1.49-7.63-.53-1.54-1.19-3.2-2.31-4.43-.78-.86-2.01-1.58-3.18-1.05-.9.41-.11,1.27.66.93h0Z"/>
      <g>
        <path class="cls-6" d="M150,172.04s-4.73,5.24-6.31,15.95c-.88,5.98-.06,6-.06,6l4.64-3.49,5.89,2.88s-.75-11.08.82-16.81,2.12-7.78,2.12-7.78l-7.1,3.25Z"/>
        <path class="cls-6" d="M167.92,171s5.3,4.66,8.12,15.12c1.57,5.83.76,5.95.76,5.95l-5.02-2.93-5.52,3.54s-.54-11.09-2.76-16.6-3.01-7.48-3.01-7.48l7.42,2.41Z"/>
        <path class="cls-4" d="M155.03,162.86s-7.12-12.28-16.41-10.02c-9.29,2.26-3.78,11.31-.33,13.74,0,0-3.96,5.77-1.8,9.4,2.16,3.63,9.07,3.4,12.98.3,3.91-3.1,5.92-7.25,5.92-7.25l-.36-6.17Z"/>
        <path class="cls-6" d="M154.14,163.12s-6.44-9.47-12.06-9.12c-5.63.35,3.42,5.32,3.42,5.32l8.41,4.29.23-.5Z"/>
        <path class="cls-4" d="M161.68,162.85s5.65-13.02,15.14-11.85c9.49,1.17,5.07,10.79,1.92,13.61,0,0,4.6,5.28,2.87,9.13-1.73,3.85-8.61,4.43-12.86,1.8s-6.72-6.52-6.72-6.52l-.36-6.17Z"/>
        <path class="cls-6" d="M162.59,163s5.3-10.15,10.93-10.45-2.78,5.68-2.78,5.68l-7.86,5.24-.29-.47Z"/>
        <rect class="cls-4" x="153.34" y="161.74" width="10.34" height="8.91" rx="1.4" ry="1.4" transform="translate(-9.36 9.46) rotate(-3.32)"/>
        <path class="cls-6" d="M154.05,162.74c-.63.09-.79.69-.94,1.22-.17.62-.23,1.26-.2,1.9.07,1.32.57,2.59,1.41,3.61.1.12.58-.05.47-.19-.72-.88-1.18-1.93-1.33-3.06-.07-.55-.07-1.1.01-1.65.04-.28.1-.56.19-.83.04-.12.18-.74.32-.76.23-.03.43-.31.07-.26h0Z"/>
        <path class="cls-6" d="M153.24,165.43c-2.79-.57-5.47-1.57-7.93-3.01-.13-.08-.55.13-.47.18,2.48,1.45,5.18,2.46,7.99,3.04.11.02.26,0,.35-.06.04-.02.18-.12.06-.15h0Z"/>
        <path class="cls-6" d="M153.17,167.57c-2.04,1.15-4.22,1.98-6.5,2.5-.3.07-.25.24.05.17,2.36-.53,4.64-1.4,6.75-2.59.29-.16-.17-.15-.29-.08h0Z"/>
        <path class="cls-6" d="M162.61,162.51c.26,0,.41.45.5.64.12.25.21.51.29.77.16.55.25,1.13.25,1.7,0,1.16-.34,2.3-.97,3.27-.12.19.38.14.47,0,.69-1.07,1.04-2.33,1-3.6-.02-.63-.14-1.26-.36-1.86-.17-.46-.4-1.2-.98-1.22-.19,0-.54.27-.2.28h0Z"/>
        <path class="cls-6" d="M164.03,165.07c2.76-.9,5.35-2.24,7.68-3.98.27-.2-.14-.37-.33-.22-2.25,1.69-4.76,2.99-7.43,3.87-.3.1-.22.44.09.34h0Z"/>
        <path class="cls-6" d="M163.71,167.08c2.22.93,4.56,1.52,6.95,1.78.11.01.57-.18.33-.2-2.34-.25-4.63-.84-6.8-1.74-.1-.04-.23,0-.32.03-.02,0-.23.11-.15.14h0Z"/>
      </g>
      <g>
        <path class="cls-10" d="M166.3,103.12c-.91.52-2.32.47-3.27-.08-.21-.12-.89.03-.6.2,1.26.71,3.28.7,4.45.03.12-.07.09-.16-.06-.2-.16-.05-.4-.03-.52.05"/>
        <path class="cls-10" d="M162.01,102.99c-.63-.27-1.33-.4-2.03-.42-.1,0-.23.04-.3.11-.06.05-.07.13.01.17.33.17.74.23,1.11.21.12,0,.27-.04.34-.15.06-.1-.06-.15-.15-.15-.31.02-.63-.03-.9-.17-.1.09-.2.18-.29.28.62.02,1.25.14,1.82.38.11.05.27,0,.37-.06.07-.05.15-.15.03-.2"/>
        <path class="cls-10" d="M159.26,103.19c-.81.01-1.78-.3-2.21-.9-.64-.9-.13-2.48.86-3.11.11-.07.05-.15-.07-.17-.15-.03-.32.04-.43.11-.86.55-1.39,1.87-1.23,2.73.16.81.95,1.34,1.94,1.54.29.06.6.09.91.09.12,0,.34-.05.4-.15.06-.1-.06-.14-.17-.14"/>
        <path class="cls-10" d="M167.77,102.65c-.05-.09.03-.16.1-.16.22,0,.44-.07.62-.23.08.09.15.17.23.26-.44.07-.87.23-1.26.51-.08.06-.19.03-.26-.03-.05-.04-.11-.14-.04-.2"/>
        <path class="cls-10" d="M167.16,102.79c.43-.31.92-.49,1.41-.56.07-.01.17.02.22.09.04.05.05.12,0,.17"/>
        <path class="cls-10" d="M169.44,102.69c.43-.04.91-.41,1.1-1.03.28-.94-.06-2.03-.61-2.6-.06-.06-.03-.15.03-.17.08-.03.17.02.23.08.48.5.82,1.32.78,2.2-.03.81-.42,1.4-.92,1.65-.15.08-.31.13-.47.14-.06,0-.18-.03-.22-.12-.04-.1.02-.14.08-.15"/>
      </g>
      <g>
        <path class="cls-11" d="M86.04,178.48l-1.36,7.73s5.54,5.89,15.23,6.2l9.7.31,1.48-8.1s-6.52.73-12.84-.68c-6.32-1.41-12.21-5.46-12.21-5.46Z"/>
        <path class="cls-15" d="M85.31,178.54c-.38,2.14-.76,4.29-1.14,6.43-.08.46-.35,1.14-.13,1.57s.98.9,1.37,1.21c2.45,1.96,5.34,3.39,8.35,4.23,4.07,1.14,8.37.98,12.56,1.12,1.01.03,2.01.06,3.02.1.35.01.92-.13.99-.55.49-2.7.99-5.4,1.48-8.1.06-.35-.41-.44-.65-.42-8.66.95-17.36-1.12-24.56-6.05-.48-.33-1.78.35-1.13.79,7.47,5.11,16.56,7.21,25.54,6.23l-.65-.42c-.49,2.7-.99,5.4-1.48,8.1l.99-.55c-4.27-.13-8.69.08-12.9-.62-3.42-.57-6.71-1.94-9.53-3.96-.64-.45-1.22-1.13-1.88-1.53-.22-.13-.19-.36-.16,0-.02-.26.11-.61.15-.86.4-2.29.81-4.58,1.21-6.86.12-.67-1.36-.46-1.46.14Z"/>
      </g>
      <g>
        <path class="cls-11" d="M189.97,181.8v5.46s4.08-.28,6.24-1.85l-.4-7.6s-2.04,3.74-5.84,3.99Z"/>
        <path class="cls-15" d="M189.24,181.86v5.46c0,.36.35.5.67.48.93-.07,1.87-.23,2.79-.43.8-.18,1.59-.42,2.36-.73.34-.14.67-.3.99-.48s.84-.41.9-.8c.03-.17-.02-.38-.03-.55l-.07-1.31-.18-3.5c-.04-.75-.08-1.49-.12-2.24s-1.16-.51-1.43-.03c-.03.05-.05.1-.08.14-.12.2-.06.1-.2.3-.31.44-.65.85-1.02,1.22-1.02,1.03-2.32,1.76-3.78,1.88-.32.02-.76.23-.8.59s.38.5.67.48c2.74-.21,5.28-2.05,6.59-4.44l-1.43-.03c.13,2.53.27,5.07.4,7.6l.25-.39c-1.58,1.12-3.79,1.52-5.69,1.65l.67.48v-5.46c0-.76-1.47-.55-1.47.11Z"/>
      </g>
      <path class="cls-15" d="M189.25,187.46c.31,2.14.43,4.32.46,6.47.05,3.77-.17,7.76-1.63,11.27-.21.5,1.24.34,1.45-.17,1.49-3.59,1.69-7.66,1.63-11.5-.04-2.16-.16-4.33-.46-6.47-.08-.53-1.53-.19-1.45.39h0Z"/>
      <path class="cls-15" d="M122.24,127.77c3.26,6.05,8.62,11.54,14.55,14.94,5.07,2.9,10.87,4.18,16.69,3.51,5.07-.58,12.19-2.45,14.12-7.88.93-2.63.41-5.85-1.02-8.22-.23-.39-1.6.14-1.45.39,1.08,1.79,1.64,4.1,1.45,6.18-.52,5.74-6.8,8.02-11.7,8.77-10.7,1.65-20.38-4.15-27.02-12.12-1.54-1.85-3.03-3.83-4.17-5.96-.21-.39-1.59.12-1.45.39h0Z"/>
    </g>
  </g>
</svg>