<?xml version="1.0" encoding="UTF-8"?>
<svg id="Layer_6" data-name="Layer 6" xmlns="http://www.w3.org/2000/svg" xmlns:xlink="http://www.w3.org/1999/xlink" viewBox="0 0 278.14 278.14">
  <defs>
    <style>
      .cls-1, .cls-2 {
        fill: none;
      }

      .cls-3 {
        fill: #010101;
      }

      .cls-4 {
        fill: #030303;
      }

      .cls-5 {
        fill: #e8b48f;
      }

      .cls-6 {
        fill: #6e472d;
      }

      .cls-2 {
        stroke: #020202;
        stroke-width: .36px;
      }

      .cls-2, .cls-7 {
        stroke-miterlimit: 10;
      }

      .cls-8 {
        fill: #f2eef7;
      }

      .cls-9 {
        fill: #dddbda;
      }

      .cls-10 {
        fill: #804841;
      }

      .cls-11 {
        fill: #060606;
      }

      .cls-12 {
        fill: #050505;
      }

      .cls-13 {
        fill: #fff;
      }

      .cls-14 {
        fill: #858280;
      }

      .cls-15 {
        fill: #552d23;
      }

      .cls-7 {
        fill: #dbf1f9;
        stroke: #fff;
        stroke-width: .5px;
      }

      .cls-16 {
        clip-path: url(#clippath);
      }

      .cls-17 {
        fill: #ae745b;
      }
    </style>
    <clipPath id="clippath">
      <circle class="cls-1" cx="138.72" cy="137.69" r="136.76"/>
    </clipPath>
  </defs>
  <g class="cls-16">
    <circle class="cls-7" cx="139.07" cy="139.07" r="136.76"/>
    <circle class="cls-1" cx="139.23" cy="142.18" r="136.76"/>
    <circle class="cls-1" cx="139.07" cy="142.07" r="136.76"/>
    <circle class="cls-1" cx="139.94" cy="137.93" r="136.76"/>
    <g>
      <path class="cls-13" d="M199.73,62.1s-.67,43.49,1.48,59.62c2.15,16.12,2.19,38.03,3.3,48.7,1.1,10.66,3.84,27.3,5.8,29.82,1.96,2.52-24.5,1.74-35.07-9.87-10.58-11.61-17.89-52.05-17.89-52.05l5.5-85.74,36.89,9.54Z"/>
      <path class="cls-14" d="M199,62.3c-.13,8.76-.13,17.53-.04,26.29.07,6.92.21,13.85.54,20.76.3,6.31,1.09,12.51,1.7,18.79,1.62,16.76,1.23,33.66,3.55,50.35.57,4.09,1.22,8.18,2.02,12.24.57,2.88,1.09,5.92,2.24,8.63.16.38.67.94.66,1.34,0,.12-.41.17-.77.22-2.11.33-4.34.14-6.45-.06-6.51-.61-13.15-2.23-18.99-5.22-2.84-1.46-5.55-3.3-7.68-5.7-1.75-1.96-3.09-4.26-4.28-6.59-2.99-5.84-5.11-12.14-6.98-18.41-1.76-5.89-3.27-11.86-4.6-17.87-.46-2.06-.9-4.12-1.31-6.18-.18-.89-.47-1.84-.53-2.75-.08-1.21.15-2.52.23-3.73.55-8.64,1.11-17.28,1.66-25.92.72-11.23,1.44-22.46,2.16-33.68.46-7.13.91-14.26,1.37-21.38.02-.36.05-.71.07-1.07l-1.31.49c10.79,2.79,21.59,5.58,32.38,8.37,1.5.39,3,.78,4.51,1.17.36.09,1.64-.48,1.18-.6-10.79-2.79-21.59-5.58-32.38-8.37-1.5-.39-3-.78-4.51-1.17-.32-.08-1.29.05-1.31.49-.34,5.3-.68,10.6-1.02,15.91l-2.13,33.18c-.63,9.87-1.27,19.73-1.9,29.6-.14,2.22-.35,4.44-.43,6.66-.05,1.53.51,3.17.81,4.66,2.49,12.08,5.46,24.29,10.18,35.72,2.12,5.13,4.65,10.48,8.99,14.11,5.17,4.34,11.97,6.64,18.5,7.96,2.84.58,5.73.98,8.63,1.12,1.85.09,3.82.16,5.64-.29.91-.22,2.03-.55,1.48-1.57-1.22-2.27-1.71-4.95-2.24-7.44-1.69-7.86-2.9-15.92-3.57-23.94-.7-8.3-.87-16.64-1.31-24.95-.25-4.79-.55-9.58-.98-14.36-.32-3.55-.84-7.08-1.18-10.63-.62-6.37-.82-12.79-.99-19.19-.3-11.76-.31-23.53-.18-35.3,0-.7.02-1.4.03-2.1,0-.28-1.44-.07-1.45.39Z"/>
    </g>
    <path class="cls-9" d="M118.32,60.25c-5.15-1.02-8.39.37-13.64-.09-.45-.04-.96-.06-1.32.17-.3.2-.41.53-.51.84-2.35,7.35-5.01,14.59-5.69,22.2-.29,3.24-.42,6.54.4,9.73.74,2.87.67,6.22,2.15,8.89,1.3,2.34,2.59,4.68,3.89,7.02.48.87,1,1.78,1.87,2.39,2.57,1.8,6.46.14,8.64-1.96,4.67-4.51,6.42-10.75,6.58-16.79.17-6.04-1.08-12.05-1.66-18.07-.4-4.16-.47-8.34-.23-12.5"/>
    <path class="cls-5" d="M113.49,118.08s2.83,24.89-1.45,37.66c-.76,2.28-22.64,8-22.64,8l27.71,52.35c11.45,3.77,31.18-4.77,42.84-7.84l23.95-26.94s-17.91-11.98-18.24-14.79c-.33-2.81,2.75-23.03,2.75-23.03"/>
    <path class="cls-5" d="M196.19,61.11s-2.51,2.38-2.51,2.35c-.69.63-7.39-4.59-8.34-5.11-9.94-5.47-14.73-9.89-26.03-8.89-5.9.52-11.66,6.02-17.46,7.24-5.56,1.17-10.99-2.87-16.7-2.9-1.98-.01-2.69,6.36-2,5.01-2.49-.54-4.49-1.29-4.49-1.29-6.61,4.48-.4,30.73-.49,34.26-.09,3.53-1.19,9.05-1.19,9.05-.89-1.38-1.9-2.41-2.38-3.94-.49-1.35-1.44-2.92-1.93-4.26-1.56-3.11-6.27-3.04-8.62-1.37l-1.21,1.55c-3.4,3.93.31,16.76,2.27,20.8.03,7.92,6.57,12.61,10.88,7.24l.84,3.16,10.06,16.19c7.25,8.69,22.3,18.18,34.73,18.61,4.46.16,12.39.98,15.93-4.31,3.58-5.35,6.5-6.8,8.84-11.55,2.65-5.37,5.47-9.59,7.37-15.27,1.96-5.87,2.06-7.45,1.86-13.47-.09-2.69-2.08-6.07-1.69-8.61.44-2.94,2.66-15.07,3.43-21.9.76-6.83-1.16-22.58-1.16-22.58Z"/>
    <path class="cls-2" d="M113.95,106.23c-4.24-10.46-7.39-10.59-7.39-10.59,0,0-2.17,2.36-1.21,7.2"/>
    <path class="cls-2" d="M112.3,107.14c-2.82-.33-.75,4.95-1.56,6.17s-1.77-2.08-2.05-6.04c0,0,.1-5.34,2.79-6.26"/>
    <path class="cls-15" d="M184.99,78.49s-8.64.88-15.64,1.02c-7,.14-13.79-2.56-13.79-2.56,0,0,8.17,1.94,13.71,1.85,5.54-.09,15.71-.31,15.71-.31Z"/>
    <path class="cls-9" d="M164.65,86.72c.03-.19-.54-.27-.52-.46-8.74-3.36-15.52-4.22-18.05-3.91-1.92.23-3.81.92-5.63,1.94,0,0-5.02,2.71-5.7,3.92-.68,1.21,4.18-.42,4.18-.42.77-.19,1.31-.47,2.09-.54,4.28-.39,7.21-.4,11.41.67,3.6.89,8.34,2.87,11.71,4.82.26-2.06.11-3.99.51-6.01Z"/>
    <path class="cls-9" d="M196.83,92.81h0s.02-.04.03-.07c.04-.08.08-.17.11-.26.07-.17.13-.35.18-.53,0-.04.04-.1.06-.14,0,.02-.02.03-.04.08.04-.08.04-.19.05-.28.13-.69.17-1.39.23-2.09-.29-.15-.54-.31-.85-.44-2.37-1.01-9.12-2.06-18.46-1.34-.52,2.39-.67,3.08-1.2,5.47,3.97-.99,6.64-1.13,10.52-.99,2.65.1,6.04.43,9.02,1.07.13-.16.23-.32.35-.49Z"/>
    <path class="cls-10" d="M162.53,116.2c-.87.1-1.69.54-2.18,1.29-.45.7-.55,1.83-.13,2.56.46.79,1.44,1.05,2.28,1.19,1,.17,2.03.28,3.03.1.23-.04.61-.15.65-.43.04-.26-.32-.35-.52-.32-.78.14-1.55.07-2.33-.04-.66-.09-1.41-.21-1.87-.74-.44-.5-.41-1.36-.17-1.95.1-.24.26-.46.47-.63s.42-.25.64-.27c.23-.03.61-.16.65-.43s-.32-.34-.52-.32h0Z"/>
    <path class="cls-8" d="M167.71,131.14c-2.68-.11-10.8-.89-10.8-.89,0,0,2.81,3.08,10.84,3.4,8.03.32,10.69-2.45,10.69-2.45l-10.73-.06Z"/>
    <path class="cls-17" d="M167.97,130.78c-5.76-.05-15.1-.92-15.1-.92,0,0,1.53,15.21,14.9,15.32,13.36.11,12.8-14.32,12.8-14.32,0,0-6.84-.03-12.6-.08Z"/>
    <path class="cls-3" d="M168.32,130.79c-2.72-.02-12.1-.58-12.1-.58,0,0,1.87,8.88,11.72,8.97,10.69.09,11.78-8.29,11.78-8.29l-11.4-.1Z"/>
    <path class="cls-8" d="M168.86,131.28c-2.79-.02-11.28-.63-11.28-.63,0,0,3.03,3.54,11.4,3.61,8.37.07,11.06-3.32,11.06-3.32l-11.18.35Z"/>
    <path class="cls-17" d="M182.62,129.9c-.3-.09-.35-.25-1.73-.4-2.31-.25-3.75-.96-5.42-1.12-2.86-.28-4.68,1.01-5.92.99-1.24-.01-3.05-1.32-5.91-1.09-1.67.13-5.82.8-8.13,1.01-1.39.13-3.01-.51-3.3-.43-.41.11.36,3.6,15.97,3.73,15.61.13,14.86-2.58,14.44-2.7Z"/>
    <path class="cls-9" d="M169.12,124.82l-.38,2.81c-.06.43-.38.77-.81.86-2.92.57-16.7.41-16.22,3.02.07.36-.12,2.62-.19,2.61l-.71-.78c-.94-1.74-.19-6.11.74-6.53,2.82-1.28,5.35-2.21,6.93-2.67,1.97-.57,7.18-.37,9.59-.47.63-.03,1.13.53,1.05,1.16Z"/>
    <path class="cls-9" d="M171.59,124.48l.17,2.83c.03.43.25.81.55.93,2.09.84,11.79,1.73,11.35,4.28-.06.36.17,1.85.21,1.85l.54-.36c.73-.05.75-5.03.1-5.53-1.99-1.54-3.79-2.7-4.91-3.31-1.4-.76-5.47-1.42-7.2-1.74-.46-.09-.84.42-.8,1.06Z"/>
    <path class="cls-5" d="M105.89,60.81s4.88-14.71,22.41-19.51c13.23-3.62,39.03-2.21,48.88,2.72,14.28,7.15,17.27,22.16,17.27,22.16l-88.57-5.37Z"/>
    <path class="cls-13" d="M227.39,313.14c-.02-.71-.03-1.43-.05-2.14-.45-18.18.24-36.43-1.33-54.51-1.43-16.42.84-33.26-3.38-49.23-5.24-19.85-49.31-38.74-52.45-39.91,0,0,2.8,72.43,12.65,100.35.67,1.9,1.27,4.2,1.82,6.82,4.79-.02,9.57-.17,14.34-.41.25-.23,1.53,4.67,2.67,8.49-1.07.12-2.14.22-3.22.26,6.24,38.26.44,137.74.44,137.74l5.1-2.41s8.01-46.82,8.01-46.82c2.64-19.89,15.86-38.19,15.4-58.22Z"/>
    <path class="cls-13" d="M148.33,175.04s-36.5-14.32-37.8-19.87c-12.84,3.53-52.27,19.77-61.45,27.45-10.8,8.98,18.34,34.67,32.04,50.29l-19.34,1.54s-4.59,57.28-8.55,87.99c-.18,1.1-.33,2.28-.47,3.52-.5,3.66-.99,6.83-1.45,9.33.27,0,.54.01.81.02-.8,22.05-11.3,53.03-10.04,62.84,1.58,12.34,86.87,21.9,121.52,20.42,34.04-1.46,54.03,7.82,53.83-38.3l1.45-7.55c-.5-19.64,2.18-25.7,2.24-52.41h0c-.09-.27.09-.56-.06-.57l-3.99-90.58-.03-29.95s-2.63-3.02-5.33-6.22c-4.27-5.06-4.98-6.92-10.59-10.44l-26.84-10.4s-8.24-7.03-13.16,2.8"/>
    <path class="cls-14" d="M219.96,227.5c-1.72,7.58-2.51,15.25-2.51,23.02,0,7.15.43,14.29.26,21.44-.09,3.88-.65,7.74-.65,11.61,0,2.28,0,4.56,0,6.84.01,8.98.02,17.96.03,26.94,0,11.89.01,23.78.01,35.67,0,11.04-.01,22.08-.04,33.12,0,1.15,0,2.3-.01,3.46,0,.41.76.32.76-.05.04-10.68.04-21.36.05-32.04,0-11.99,0-23.98,0-35.97,0-9.54-.02-19.08-.03-28.62,0-2.75,0-5.5-.01-8.25,0-2.22.21-4.36.36-6.59,1.02-14.74-1.09-29.53,1.28-44.19.35-2.15.78-4.29,1.26-6.42.09-.39-.68-.31-.76.05h0Z"/>
    <path class="cls-13" d="M74.97,282.54l9.98-42.91-7.75-71.89s-27.69,2.41-39.23,25.58c-5.54,11.57-13.63,51.33-19.06,76.8h0s0,.01,0,.01c-.36,1.68-.7,3.3-1.04,4.84.03.01.06.02.09.03-3.33,18.67-8.54,46.53-8.41,50.67,1.01,31.58,2.65,66.45,11.52,106.32l43.67-16.05-1.52-78.31,11.19-52.9s.03,0,.05,0l.51-2.19h0s0,0,0,0Z"/>
    <path class="cls-14" d="M227.58,325.82c-.09-7.51.68-15.02.65-22.53-.03-8.15,0-16.3-.04-24.45-.04-8.44-.8-16.8-1.34-25.22-.59-9.21-.85-18.45-1.73-27.65-.42-4.41-.98-8.81-1.83-13.16-.62-3.18-1.25-6.42-2.7-9.35-2.37-4.76-6.18-8.68-10.18-12.1-4.62-3.95-9.72-7.32-14.96-10.38-7.63-4.46-15.65-8.37-23.87-11.61-.29-.11-.57-.22-.86-.33-.56-.21-1.7.6-.85.91,7.14,2.67,14.08,6.07,20.76,9.73,5.24,2.87,10.34,6.01,15.11,9.62,4.46,3.38,8.76,7.22,11.87,11.92,3.77,5.7,4.59,12.9,5.45,19.53,1.16,8.99,1.53,18.06,2.01,27.1.47,8.83,1.41,17.64,1.61,26.49.18,7.68-.06,15.37,0,23.05.08,9.17-.29,18.31-.53,27.47,0,.37-.03.73-.02,1.1,0,.71,1.47.45,1.46-.14h0Z"/>
    <path class="cls-14" d="M111.29,157.49c-10.76,3.06-20.63,9.33-30.65,14.14-3.3,1.58-6.7,2.77-9.91,4.56-4.21,2.35-8.21,5.08-12.07,7.96-7.92,5.92-15.72,12.66-21.48,20.77-5.85,8.22-7.68,18.82-9.73,28.5-3.26,15.41-5.93,30.93-9.25,46.33-.01.05.01.06.06.08.35.12-2.38,13.35-2.59,14.51-.9,5-1.8,10-2.67,15.01-1.16,6.65-2.75,13.49-3.1,20.25-.21,4.15.22,8.42.36,12.58.19,5.4.41,10.8.7,16.2.57,10.78,1.4,21.54,2.67,32.26,1.65,13.94,4.04,27.77,7.07,41.47.02.07.17.05.21.05.43-.02,1.06-.16,1.46-.07,1.1.25.77.09.75,1.58-.04,2.92.11,5.86.23,8.78.23,5.25.6,10.49,1.09,15.72.95,10.21,2.33,20.38,3.64,30.55,2.66,20.69,4.04,41.29,4.39,62.14.71,42.02-.62,84.07,1.34,126.06.46,9.9,1.11,19.8,2.09,29.67.39,3.9,0,7.32-.53,11.19-.34,2.43-1.34,7.27.76,9.26.64.6,1.8.97,2.57,1.33,2.52,1.19,5.13,2.18,7.75,3.09,11.37,3.92,23.32,6.15,35.21,7.71,19.87,2.61,40.05,3.25,60.07,2.64,15.31-.47,30.64-1.79,45.72-4.52,6.45-1.16,13.3-2.31,19.47-4.63.27-.1.55-.18.83-.28.08-.03.23-.08.24-.19,5.12-43.37,5.15-87.3,5.09-130.9-.07-47.43-1.01-94.88.25-142.31.62-23.21,1.74-46.46,4.46-69.53.01-.09-.72-.03-.75.2-3.13,26.58-4.18,53.38-4.7,80.13-.58,29.94-.38,59.89-.2,89.83.18,30.29.41,60.59-.15,90.88-.49,26.6-1.48,53.27-4.49,79.72-.26,2.3.19,1.98-1.86,2.61-2.15.66-4.33,1.24-6.52,1.78-8.73,2.14-17.63,3.59-26.55,4.67-30.95,3.74-63.02,3.61-93.88-.87-9.57-1.39-19.11-3.27-28.36-6.15-4.17-1.3-8.78-2.65-12.56-4.93-1.46-.88-1.84-1.93-2.02-3.82-.28-2.99.39-6.05.81-9,.49-3.44.22-6.54-.11-9.99-1.5-15.82-2.21-31.7-2.6-47.58-.83-33.76-.13-67.54-.57-101.31-.21-16.29-.63-32.57-2.3-48.78-1.69-16.49-4.34-32.87-5.86-49.38-.78-8.54-1.24-17.1-1.29-25.67,0-.07-.18-.05-.21-.05-.51.03-1.23.22-1.7.09-.83-.24-.08.29-.67-.51-.39-.54-.44-2.14-.58-2.8-.71-3.3-1.37-6.6-2-9.91-1.18-6.23-2.22-12.48-3.11-18.75-1.6-11.26-2.7-22.58-3.44-33.93-.69-10.67-1.08-21.35-1.42-32.03-.22-6.87,1.09-13.54,2.24-20.3,1.93-11.33,4.02-22.63,6.04-33.94,0-.05-.01-.06-.06-.08-.27-.09,3.69-18.01,3.96-19.41,1.31-6.76,2.57-13.54,3.92-20.29,1.96-9.86,3.59-20.55,7.88-29.73,4.14-8.85,12.22-16.06,19.64-22.15,6.67-5.47,14.3-11.47,22.52-14.44,11.87-4.29,22.25-12.35,34.47-15.83.43-.12.38-.36-.06-.23h0Z"/>
    <path class="cls-14" d="M79.5,209.12c2.66,3.59,4.1,7.94,4.98,12.28,1.1,5.44,1.37,11.04,1.29,16.58-.18,12.53-2.13,25.04-4.72,37.28-1.53,7.2-3.5,14.28-5.26,21.43-1.85,7.48-3.7,14.97-5.54,22.45-1.52,6.14-3.03,12.28-4.55,18.42-.52,2.11-.2,4.53-.22,6.68-.05,6.61-.1,13.22-.16,19.84-.07,8.6-.14,17.21-.2,25.81-.06,7.83-.12,15.66-.19,23.49-.03,4.29-.07,8.57-.1,12.86,0,.2,0,.41,0,.61l.46-.23c-9.78,1.92-19.73,3.33-29.66,4.03-3.87.27-7.77.41-11.65.23-.15,0-.86.27-.5.29,6.97.33,13.99-.3,20.91-1.11,5.78-.67,11.53-1.54,17.26-2.55,1.17-.21,2.33-.41,3.49-.64.08-.02.46-.09.46-.23.02-3.02.05-6.05.07-9.07.06-7.23.11-14.46.17-21.69.07-8.67.14-17.34.21-26.01.06-7.32.12-14.64.17-21.96.02-2.33.04-4.67.06-7,0-.93-.08-1.93.02-2.86.12-1.08.61-2.51.9-3.65.81-3.28,1.62-6.56,2.43-9.83l5.96-24.12c1.42-5.76,3-11.49,4.39-17.26,2.91-12.01,5.17-24.24,6.14-36.56.46-5.88.63-11.81.18-17.7-.38-4.94-1.18-9.95-3.03-14.57-.77-1.93-1.75-3.77-2.99-5.44-.13-.17-.8.15-.76.2h0Z"/>
    <g>
      <path class="cls-13" d="M110.26,157.56c.32-3.76.85-7.5,1.59-11.2,32.55,21.53,47.26,19.45,60.19,15.54.08,3.16.22.07.3,3.24.01.41.27,3.96.15,4.35-.2.64-.36,1.45-.88,1.87-2.13,1.72-3.7,2.71-6.29,3.6-9.27,3.17-22.19-1.44-31.66-3.92-9.47-2.48-16.87-6.18-23.4-13.48"/>
      <path class="cls-14" d="M110.99,157.37c.33-3.74.85-7.45,1.58-11.13l-1.4.37c15.01,9.9,33,20.28,51.72,17.65,3.13-.44,6.2-1.22,9.22-2.13l-.78-.03c.03,1.19.26,2.12.31,3.31.06,1.36.36,2.86.15,4.21-.24,1.56-1.41,2.33-2.63,3.15s-2.63,1.54-4.09,2.03c-2.65.89-5.49,1.04-8.26.9-5.63-.29-11.15-1.78-16.56-3.28-5.14-1.43-10.37-2.64-15.25-4.82-5.39-2.41-10.11-5.9-14.06-10.28-.24-.27-1.59.25-1.37.49,3.9,4.34,8.57,7.8,13.89,10.21,5.17,2.33,10.73,3.62,16.17,5.12,10.44,2.88,23.06,6.03,32.3-1.56,1.75-1.44,1.31-3.72,1.19-5.72-.08-1.43-.31-2.74-.35-4.14,0-.21-.73-.05-.78-.03-5.44,1.64-10.95,2.68-16.66,2.36-8.38-.47-16.46-3.41-23.96-7.02-6.54-3.15-12.78-6.91-18.84-10.9-.25-.16-1.33.04-1.4.37-.74,3.72-1.27,7.48-1.6,11.26-.02.19,1.41.04,1.45-.39h0Z"/>
    </g>
    <path class="cls-14" d="M153.18,163.77c-.13,3.38-.26,6.77-.39,10.15-.03.86-.2,1.83-.09,2.69.1.75.4,1.52.59,2.25,2.54,9.88,4.71,19.89,6.15,29.98.8,5.58,1.36,11.2,1.26,16.84-.08,4.38-.13,8.76-.17,13.15-.12,10.75-.2,21.5-.27,32.26-.03,4.29-.06,8.58-.08,12.87,0,1.45-.02,2.91-.03,4.36,0,.69-.18,1.64-.01,2.32.02.09,0,.21,0,.31,0,.08.23.08.25.08,3.69.14,7.37.28,11.06.43.26,0,1.17-.12,1.2-.47.41-5.58.76-11.17,1.1-16.76.65-10.79,1.24-21.6,1.54-32.41.13-4.58.22-9.17.1-13.75-.12-4.55-.65-9.08-1.22-13.59-1.4-11.02-3.22-22-5.15-32.94-.31-1.75-.77-3.47-.7-5.25l.51-12.17.04-1.01c0-.17-1.43-.01-1.45.39-.15,3.53-.29,7.07-.44,10.6-.05,1.19-.24,2.47-.15,3.66.04.63.23,1.29.34,1.91,1.82,10.18,3.52,20.39,4.94,30.64.72,5.18,1.44,10.39,1.73,15.61.23,4.13.17,8.28.09,12.42-.21,10.83-.77,21.66-1.4,32.48-.26,4.46-.54,8.91-.83,13.36-.1,1.48-.2,2.95-.3,4.43-.05.78-.24,1.67-.17,2.45,0,.1-.02.21-.02.31l1.2-.47c-1.6-.06-3.19-.12-4.79-.18l-3.58-.14c-.78-.03-1.66-.19-2.44-.09-.36.04-.06.15,0-.09s0-.6,0-.86c0-1.25.01-2.5.02-3.75.06-10.47.13-20.94.22-31.41.05-5.95.1-11.9.17-17.85.05-4.89.28-9.82.14-14.71-.36-12.8-3.13-25.62-6.09-38.03-.45-1.88-.91-3.76-1.4-5.63-.16-.63-.44-1.32-.52-1.97-.17-1.49.12-3.17.18-4.66l.26-6.85.05-1.27c0-.18-1.43-.01-1.45.39h0Z"/>
    <path class="cls-14" d="M167.44,199.17c-.07,1.26-.78,2.64-2.05,3.05s-2.62-.35-3.35-1.35c-.84-1.15-.9-2.81-.12-4.01.69-1.06,1.83-1.6,3.06-1.2,1.55.5,2.5,1.99,2.46,3.6,0,.36,1.44.12,1.45-.39.04-1.72-1.07-3.29-2.7-3.84-1.78-.6-3.9-.04-5.18,1.31-1.19,1.25-1.44,3.21-.56,4.7.93,1.56,2.76,2.24,4.52,1.93,2.02-.36,3.8-1.87,3.91-4.01.03-.52-1.42-.21-1.44.21Z"/>
    <path class="cls-14" d="M164,170c-.07,1.26-.77,2.56-2.02,2.99s-2.65-.28-3.39-1.3c-.81-1.12-.89-2.7-.17-3.88.66-1.08,1.81-1.62,3.05-1.29,1.52.4,2.56,1.93,2.52,3.48-.01.6,1.44.3,1.45-.18.04-1.73-.96-3.33-2.61-3.94-1.77-.65-3.92-.17-5.22,1.21-1.2,1.28-1.51,3.21-.63,4.76.9,1.58,2.75,2.33,4.51,2.03,2.05-.35,3.84-1.9,3.95-4.06.03-.59-1.42-.31-1.45.18Z"/>
    <path class="cls-14" d="M167.95,238.11c-1.35-.07-2.52-.98-2.96-2.26-.43-1.27-.11-2.77.94-3.65.98-.83,2.34-.81,3.39-.13,1.15.75,1.73,2.15,1.49,3.49s-1.4,2.58-2.86,2.55c-.33,0-.79.1-.95.43-.15.3.13.53.42.54,1.85.05,3.72-.89,4.51-2.61.74-1.62.38-3.58-.96-4.77-1.4-1.25-3.51-1.44-5.17-.59s-2.65,2.51-2.44,4.35c.23,2.05,2.05,3.52,4.06,3.62.33.02.79-.1.95-.43s-.13-.52-.42-.54Z"/>
    <path class="cls-14" d="M167.58,272.05c-1.34-.07-2.51-.93-2.94-2.21s-.1-2.75.95-3.6c.97-.79,2.33-.84,3.38-.15,1.14.74,1.71,2.11,1.48,3.45-.24,1.37-1.44,2.55-2.87,2.51-.35,0-.79.09-.94.45-.13.31.12.61.44.62,1.87.05,3.7-.89,4.51-2.63s.34-3.62-1-4.85c-1.38-1.26-3.51-1.44-5.15-.6s-2.63,2.56-2.43,4.41c.23,2.05,2.06,3.57,4.07,3.67.35.02.79-.1.94-.45.14-.31-.12-.6-.44-.62Z"/>
    <path class="cls-14" d="M215.99,296.79c-5.62,1.43-11.55,1.75-17.23.45-1.55-.35-3.08-.82-4.55-1.42-.41-.17-.81-.34-1.2-.54-.13-.06-.6-.41-.37-.07.2.3.1-.28.11-.52l.07-1.83c.09-2.22.17-4.44.26-6.66.52-13.62,1.05-27.24,1.57-40.86.14-3.7.28-7.39.43-11.09l-.99.56c6.14,1.17,12.31,2.72,18.53,3.37,2.94.31,5.31-.32,7.83-1.86.83-.51-.38-.95-.95-.6-1.44.88-2.91,1.54-4.62,1.57s-3.38-.27-5.01-.55c-1.37-.24-2.73-.52-4.1-.78-3.72-.71-7.44-1.43-11.16-2.14-.3-.06-.98.17-.99.56-.27,6.92-.53,13.84-.8,20.76l-1.26,32.8c-.1,2.53-.19,5.05-.29,7.58,0,.14.04.26.17.34,2.13,1.23,4.65,1.94,7.03,2.44,5.89,1.24,11.97.91,17.78-.57.89-.23.64-1.15-.25-.92h0Z"/>
    <path class="cls-14" d="M193.29,244.67c.51.7,1.61,1.06,2.37,1.31,3.27,1.11,6.91,1.21,10.33,1.22,3.98.02,7.95-.28,11.9-.68.8-.08,1.12-1.14.13-1.04-5.63.58-11.39,1.02-17.03.42-1.92-.2-4.24-.47-5.89-1.5-.15-.1-.29-.21-.44-.32.08.06.03.04-.04-.05-.38-.52-1.76.04-1.33.63h0Z"/>
    <path class="cls-11" d="M136.81,95.27l1.13,3.79c.63,2.93,3.3,8.71,4.26,10.33,1.34,2.26,17.04,3.79,20.2,2.16,3.16-1.63,5.23-10.36,6.13-12.37l6.28.62c.46,2.67,2.1,11.12,3.25,12.3,1.15,1.18,8.38,1.3,9.19,1.31.68,0,1.62,0,2.65-.03,2.73-.07,6.06-.38,7.12-1.32,1.57-1.4,3.44-6.93,5.07-12.17l.27-.82c.06-.2.13-.33.13-.39h0l.29-.94c-8.89-4.63-20.81-4.45-28.24.43l.05.1-6.12-.63c-6.75-4.82-18.64-7.8-27.35-4.92h0l-24.22,5.6-.17,2.31,20.08-5.33ZM178.82,111.27c-.72-.74-2.05-6.67-2.93-11.27,6.45-4.12,17.19-4.26,25.16-.57v.12c-.88,2.81-3.21,10.28-4.75,11.65-1.83,1.62-16.21,1.24-17.47.1v-.03ZM144.08,108.84c-2.38-3.48-4.24-8.95-5.39-13.58,7.76-3.06,21.68-.5,28.28,4.08-1.23,3.64-2.85,10.02-5.11,11.18-3.26,1.68-16.94-.25-17.78-1.68h0Z"/>
    <path class="cls-9" d="M177.42,151.77c-.13-.02-3.08-.31-3.18-.38-2.02-1.37-1.94-4.17-2.93-4.42-.23-.06-.35-.14-1.06-.25-2.86-.43-1.56-1.34-9.29,3.48-.15.1-12.9-.08-13.09-.1l-5.17-2.51c-.86-.55-20.18-17.18-20.18-17.18-.29-.55-3.77-4.5-3.91-5.02-.06-.03-.12-.07-.18-.09-.02,0-.07-.03-.12-.05,0,.03-.02.08-.03.1-.04.22-.03.46-.03.69.04.98.23,1.95.51,2.9.44,1.45.69,2.93,1.07,4.39.14.52.29,1.02.47,1.52,2.21,1.41,12.81,22.41,25.7,26.34.52.14,2.16.62,6.55,1.03,8.24.77,14.57,1.62,22.7-.67,2.12-.6,2.81-3.24,3.68-5.2,2.48-5.6,5.92-10,8.61-15.86-2.29,4.85-3.54,3.62-7.08,7.55-.16.18-2.79,3.65-3.05,3.73"/>
    <g>
      <path class="cls-13" d="M94.8,78.9s-5.72,47.57-14.4,57.29C14.76,209.6,18.64,270.06,18.64,270.06c0,0,49.72,9.33,47.5,43.85-1.97,30.67,12.04,39.29,22.49,48.13,19.01,16.07,12.35,65.72,12.35,65.72,0,0,33.2-117.83,16.95-204.12-10.31-54.75,10.19-115.99,10.49-123.75.68-17.52.37-26.54.37-26.54,0,0,12.92,2.31,25.72-3.28,12.8-5.6,17.26-8.58,27.27-5.35,10.01,3.22,20.62,3.51,22.77,2.69,4.37-1.66-7.32-14.95-7.32-14.95,0,0,1.26-14.43-3.3-19.61s-13.01-8.42-27.22-8.5c-14.21-.08-23.79-1.09-37.76,1.87-13.96,2.96-35.4,22.13-37.61,28.91-2.21,6.78,3.45,23.78,3.45,23.78Z"/>
      <path class="cls-14" d="M94.07,78.98c-1.31,10.89-3.12,21.77-5.48,32.48-1.53,6.93-3.17,14.16-6.29,20.58-1.76,3.61-4.6,6.34-7.19,9.37-4.27,4.99-8.39,10.1-12.33,15.34-12.98,17.26-24.14,36-32.27,56.04-5.2,12.82-9.22,26.2-11.3,39.89-.6,3.93-1.04,7.89-1.23,11.86-.06,1.2-.09,2.4-.09,3.6,0,.51-.15,1.38.03,1.86.02.06,0,.17.01.24,0,.12.2.21.29.23,7.83,1.48,15.61,4.37,22.67,7.99,12.28,6.3,23.55,16.59,24.54,31.19.35,5.22-.38,10.45.03,15.7.36,4.61,1.23,9.19,2.84,13.53,2.44,6.55,6.6,12.06,11.73,16.74,4.79,4.36,10.2,7.83,13.57,13.52,3.95,6.68,5.73,14.54,6.74,22.16,1.59,11.96,1.03,23.89,0,35.85-.02.22-.05.45-.08.67-.09.65,1.32.33,1.45-.16,3.02-10.72,5.45-21.64,7.75-32.53,5.36-25.42,9.44-51.16,11.75-77.04,2.64-29.6,3.18-59.81-1.6-89.23-1.34-8.23-2.8-16.35-3.38-24.69-.6-8.6-.6-17.24-.16-25.84.77-15.22,2.91-30.34,5.86-45.28,1.92-9.71,4.37-19.29,6.48-28.95.89-4.1.89-8.15,1-12.35.14-5.53.23-11.06.14-16.6-.01-.67-.02-1.34-.04-2.01l-1.16.62c8.58,1.5,18.13.15,26.09-3.21,5.26-2.22,10.47-5.23,16.12-6.36,5.68-1.14,10.72,1.17,16.15,2.4,5.06,1.14,10.46,1.95,15.66,1.59,2.01-.14,4.2-.63,3.82-3.11-.45-2.98-2.82-5.9-4.55-8.24-.88-1.19-1.81-2.36-2.75-3.5-.25-.3-.6-.61-.8-.95-.24-.39-.09.06-.12-.12-.2-.95.13-2.31.14-3.28.03-1.83-.01-3.66-.16-5.49-.3-3.77-.88-8.13-3.47-11.08-6.05-6.9-16.71-8.22-25.3-8.48-12.64-.38-25.56-.94-38.05,1.42-9.36,1.77-17.5,7-24.87,12.84-3.59,2.85-7.03,5.91-10.15,9.26-1.98,2.13-4.24,4.54-5.33,7.29-1.33,3.36-.63,7.56-.06,11.01.64,3.84,1.6,7.63,2.72,11.36.2.66.4,1.32.62,1.98.18.56,1.63.15,1.45-.39-1.91-5.77-3.52-11.91-3.9-17.99-.2-3.21.19-5.87,2.02-8.52,2.1-3.04,4.76-5.71,7.44-8.22,6.71-6.29,14.47-12.23,23.01-15.76,5.01-2.07,10.57-2.76,15.93-3.23,5.95-.53,11.92-.43,17.88-.31,10.31.21,22.02-.67,31.19,5,3.25,2.01,5.46,4.58,6.46,8.3,1,3.72,1.17,7.68,1.09,11.52-.03,1.33-.48,2.69.33,3.75,1.65,2.19,3.46,4.24,4.99,6.53.78,1.17,4.31,6.04,2.31,7.29-1.16.73-3.81.3-5.09.25-2.83-.11-5.66-.44-8.45-.93-5.15-.91-10.12-3.2-15.37-3.42-3.94-.17-7.69.99-11.31,2.45-5.82,2.36-11.35,5.43-17.53,6.81-4.9,1.09-10,1.41-15,.98-.77-.07-1.54-.14-2.3-.27-.41-.07-1.18.08-1.16.62.1,2.99.08,6,.06,8.99-.03,3.58-.1,7.16-.2,10.74-.07,2.6.03,5.27-.35,7.85-1.18,8.04-3.67,15.97-5.39,23.9-6.53,30.11-10.48,61.59-6.05,92.3,1.1,7.59,2.64,15.09,3.53,22.72.86,7.36,1.41,14.76,1.72,22.17.63,15.19.25,30.41-.8,45.57-1.85,26.86-5.76,53.58-11.03,79.97-1.78,8.92-3.72,17.8-5.86,26.64-.68,2.83-1.39,5.65-2.12,8.47-.36,1.38-1.08,3-1.18,4.43-.01.17-.1.37-.15.54l1.45-.16c1.33-9.96,1.49-20.25.75-30.26-.59-7.86-1.82-15.85-4.76-23.21-1.31-3.28-2.99-6.45-5.21-9.2-1.98-2.45-4.48-4.35-6.9-6.35-5.1-4.21-9.93-8.74-13.23-14.54-4.95-8.7-6.04-19.01-5.56-28.85.37-7.51-.79-14.46-4.93-20.88-3.65-5.65-8.88-10.11-14.54-13.66-8.3-5.2-17.83-8.86-27.4-10.92-.22-.05-.61-.05-.8-.17-.02-.01.26.4.24.09-.04-.55-.03-1.1-.03-1.64,0-2.89.18-5.77.46-8.65,1.16-11.99,4.02-23.82,7.86-35.22,6.34-18.85,15.54-36.67,26.49-53.24,7.33-11.09,15.46-21.64,24.2-31.66,2.2-2.52,4.17-4.73,5.58-7.77,1.36-2.92,2.38-6,3.29-9.09,3.93-13.31,6.13-27.19,7.96-40.93.12-.91.24-1.81.35-2.72.08-.63-1.39-.38-1.45.16Z"/>
    </g>
    <path class="cls-4" d="M198.31,54.51s-16.31-2.76-40.68,1.19-31.51,5.61-45.54,12.57c-14.04,6.96-19.81,10.28-19.81,10.28,0,0-2.1-3.74,1.36-4.58,3.45-.84,30.19-20.85,60.4-24.37,15.85-1.85,37.27-1.45,42.67.39,5.4,1.83,1.6,4.52,1.6,4.52Z"/>
    <path class="cls-4" d="M198.53,48.47s-19.74-5.05-43.93-.19c-23.8,4.78-30.04,6.08-43.81,13.56-13.76,7.48-19.44,13.23-19.44,13.23,0,0-3.23-5.75.19-6.72,3.42-.97,30.12-19.87,60.17-24.52,15.77-2.44,39.59-1.45,45.06.18s1.77,4.46,1.77,4.46Z"/>
    <g>
      <path class="cls-13" d="M193.75,133.28s6.04,43.92,10.19,60.42c4.15,16.5,2.88,50.94,5.51,68.66,2.63,17.72-.82,56.03-4.34,85.98-3.53,29.95-4.26,65.38-2.51,76.85,0,0,6.16-51.51,17.47-66.07,11.31-14.57,8.56-45.43,7.76-73.16-1.07-37.17.03-75.78-11.38-93.43-11.41-17.65-11.68-21.68-13.4-44"/>
      <path class="cls-14" d="M193.03,133.47c1.75,12.73,3.68,25.45,5.83,38.13,1.32,7.76,2.79,15.47,4.57,23.14,2.19,9.42,2.51,19.32,2.94,28.94.48,10.55.66,21.13,1.55,31.65.34,3.98,1.01,7.93,1.33,11.91.38,4.66.44,9.35.39,14.02-.23,24.19-3.27,48.21-5.81,72.23-1.35,12.73-2.19,25.52-2.62,38.31-.32,9.73-.55,19.55.2,29.26.11,1.44.25,2.88.47,4.31.05.34,1.4,0,1.44-.31,1.33-11.07,3.24-22.12,5.64-33,1.76-8.01,3.78-16.07,6.84-23.7,1.17-2.92,2.51-5.84,4.31-8.44,2.44-3.5,4.44-6.91,5.76-11.01,3.34-10.32,3.6-21.58,3.57-32.33-.03-12.8-.78-25.59-1.07-38.38-.3-13.3-.42-26.62-1.18-39.9-.64-11.11-1.57-22.43-4.59-33.19-1.15-4.11-2.65-8.19-4.85-11.87-2.55-4.25-5.34-8.32-7.57-12.76-3.71-7.39-4.96-15.21-5.69-23.38-.26-2.92-.48-5.85-.71-8.77-.02-.3-1.48-.04-1.45.39.69,8.98.95,18.38,4.11,26.93,1.48,4.01,3.55,7.77,5.75,11.41,2.41,4,5.08,7.77,6.84,12.12,3.86,9.56,5.16,20.12,6.05,30.31,1.14,12.91,1.36,25.9,1.62,38.85s.76,25.83,1.11,38.75c.33,11.77.56,23.82-1.7,35.42-.9,4.62-2.25,9.24-4.56,13.36-1.62,2.89-3.77,5.38-5.26,8.36-3.46,6.94-5.55,14.58-7.39,22.08-3.09,12.57-5.31,25.4-6.93,38.24-.03.24-.06.49-.09.73l1.44-.31c-1.23-8.21-.99-16.74-.87-25.01.18-12.45.85-24.9,1.91-37.3,1.07-12.48,2.72-24.91,3.93-37.38,1.18-12.17,2.17-24.37,2.61-36.59.33-9.28.33-18.54-.9-27.76-1.31-9.82-1.47-19.8-1.86-29.69s-.69-20.82-2.2-31.1c-.54-3.65-1.45-7.19-2.23-10.78-.84-3.85-1.57-7.73-2.27-11.61-2.62-14.55-4.81-29.18-6.85-43.82-.04-.29-.08-.58-.12-.87-.04-.32-1.51-.02-1.45.39h0Z"/>
    </g>
    <path class="cls-14" d="M115.35,80.68c-1.95,25.74-7.02,51.05-11.2,76.49-2.09,12.7-4.03,25.49-5.01,38.33-1.03,13.45-.71,26.98.31,40.42,1.16,15.31,3.23,30.53,5.31,45.74.05.36,1.51.05,1.45-.39-3.67-26.9-7.37-54.03-5.94-81.24.7-13.21,2.63-26.37,4.72-39.43,1.99-12.44,4.28-24.84,6.33-37.27,2.36-14.28,4.38-28.61,5.47-43.05.02-.28-1.41-.09-1.45.39h0Z"/>
    <path class="cls-13" d="M158.82,102.84s-7.19,2.22-13.16-.08c-2.2-.85-4.46-2.1-3.54-3.96,1.83-3.69,8.62-3.81,11.59-2.71,3.22,1.19,5.55,3.15,5.12,6.75Z"/>
    <g>
      <path class="cls-6" d="M156.35,99.02c.55,2.44-1.21,3.92-4.04,4.27-2.83.35-5.66-.54-6.21-2.99-.55-2.44.66-4.54,3.49-4.89,2.83-.35,6.21,1.17,6.76,3.61Z"/>
      <path class="cls-12" d="M153.87,99.1c.31,1.35-.72,2.61-2.29,2.81-1.57.2-3.09-.74-3.4-2.1-.31-1.35.72-2.61,2.29-2.81,1.57-.2,3.09.74,3.4,2.1Z"/>
    </g>
    <path class="cls-3" d="M158.8,100.65s-3.28-4.35-9.66-4.05c-6.37.3-7.24,2.97-7.24,2.97,0,0,.44-3.31,5.08-4.52,3.33-.87,9.88-.87,11.82,5.6Z"/>
    <ellipse class="cls-13" cx="149.93" cy="98.21" rx=".58" ry=".62" transform="translate(46.79 244.79) rotate(-88.09)"/>
    <path class="cls-13" d="M193.92,105.59s-6.3,2.25-12.26-.05c-2.2-.85-4.46-2.1-3.54-3.96,1.83-3.69,8.62-3.81,11.59-2.71,3.22,1.19,4.66,3.12,4.22,6.71Z"/>
    <g>
      <path class="cls-6" d="M191.09,101.54c.55,2.44-1.21,3.92-4.04,4.27-2.83.35-5.66-.54-6.21-2.99-.55-2.44.66-4.54,3.49-4.89,2.83-.35,6.21,1.17,6.76,3.61Z"/>
      <path class="cls-12" d="M188.62,101.62c.31,1.35-.72,2.61-2.29,2.81-1.57.2-3.09-.74-3.4-2.1-.31-1.35.72-2.61,2.29-2.81,1.57-.2,3.09.74,3.4,2.1Z"/>
    </g>
    <path class="cls-3" d="M193.95,103.61s-2.44-4.53-8.82-4.23c-6.37.3-7.24,2.97-7.24,2.97,0,0,.44-3.31,5.08-4.52,3.33-.87,11.02-.37,10.98,5.79Z"/>
    <ellipse class="cls-13" cx="184.67" cy="100.73" rx=".58" ry=".62" transform="translate(77.86 281.94) rotate(-88.09)"/>
    <path class="cls-10" d="M174.25,101.69c.24,4.26,1.75,8.52,3.02,12.56.48,1.54,1.03,3.06,1.45,4.62.44,1.64-1.6,2.21-2.94,2.44s-2.74.29-4.11.25-2.82-.14-4.05-.73c-.37-.18-1.43.35-.91.6,2.27,1.09,5.25.99,7.7.76,1.81-.17,4.35-.5,5.35-2.24.61-1.06-.2-2.48-.53-3.53-.75-2.35-1.5-4.69-2.17-7.06-.73-2.59-1.49-5.27-1.64-7.97-.02-.42-1.19-.17-1.16.31h0Z"/>
  </g>
</svg>