<?xml version="1.0" encoding="UTF-8"?>
<svg id="Layer_2" data-name="Layer 2" xmlns="http://www.w3.org/2000/svg" xmlns:xlink="http://www.w3.org/1999/xlink" viewBox="0 0 278.14 278.14">
  <defs>
    <style>
      .cls-1, .cls-2, .cls-3 {
        fill: none;
      }

      .cls-4 {
        fill: #010101;
      }

      .cls-5 {
        fill: #110e0d;
      }

      .cls-6 {
        fill: #903931;
      }

      .cls-7 {
        fill: #cdc29f;
      }

      .cls-8 {
        fill: #070808;
      }

      .cls-9 {
        fill: #f2eef7;
      }

      .cls-10 {
        fill: #804841;
      }

      .cls-2, .cls-11, .cls-3 {
        stroke: #fff;
        stroke-width: .5px;
      }

      .cls-2, .cls-3 {
        stroke-linecap: round;
        stroke-linejoin: round;
      }

      .cls-12 {
        fill: #050505;
      }

      .cls-13 {
        fill: #fff;
      }

      .cls-14 {
        fill: #8a463d;
      }

      .cls-15 {
        fill: #9e8c55;
      }

      .cls-11 {
        fill: #dbf1f9;
        stroke-miterlimit: 10;
      }

      .cls-3 {
        stroke-dasharray: 1.49 1.49;
      }

      .cls-16 {
        fill: #dc9c78;
      }

      .cls-17 {
        fill: #556b30;
      }

      .cls-18 {
        clip-path: url(#clippath);
      }
    </style>
    <clipPath id="clippath">
      <circle class="cls-1" cx="139.43" cy="138.93" r="136.76"/>
    </clipPath>
  </defs>
  <g class="cls-18">
    <circle class="cls-11" cx="139.07" cy="139.07" r="136.76"/>
    <path class="cls-4" d="M177.4,136.99c2.35-.05,4.07,2.43,4.23,4.77s-.73,4.61-1.27,6.89-.67,4.92.8,6.75c1.06,1.32,2.75,1.97,4.04,3.06,4.02,3.38,3.27,9.74,1.56,14.7-1.71,4.97-4.03,10.39-2.02,15.24-9.03-1.3-17.9-3.69-26.35-7.12-3.89-1.58-7.98-3.64-9.84-7.4-1.06-2.15-1.26-4.61-1.45-7-.27-3.56-.51-7.3,1-10.54.78-1.66,1.98-3.09,3.29-4.36,3.81-3.69,8.57-6.21,13.27-8.68,3.85-2.02,7.71-4.05,11.56-6.07"/>
    <path class="cls-4" d="M90.68,54.99c-5.97,3.67-10.71,23.97-10.76,30.98-.05,7.01,1.73,13.92,1.91,20.93.03,1.15.01,2.33-.31,3.44-.58,1.99-2.08,3.55-3.41,5.14-3.57,4.3-6.21,9.73-5.75,15.3.36,4.25,2.47,8.14,3.62,12.25,1.15,4.11,1.1,9.11-2.08,11.96-1.32,1.18-3.02,1.84-4.52,2.78-4.51,2.85-7,8.58-6,13.82.95,4.98,4.68,9.22,4.99,14.28.29,4.79-2.54,9.15-5.26,13.1,11.34,2.97,22.9,5.5,34.63,5.57,11.72.07,23.71-2.49,33.46-8.99,4.15-2.77,8.05-6.6,8.87-11.51.39-2.35.04-4.76-.32-7.12-.92-6.15-1.84-12.3-2.76-18.45-2.33-15.54-4.66-31.12-8.9-46.25-2.65-9.46-6.11-18.87-11.94-26.78-5.83-7.91-14.3-14.26-24-15.83"/>
    <path class="cls-8" d="M84.12,85.53s-2.76,33.62,12.66,48.33c15.43,14.71,63.95,17.74,76.18,6.49,12.23-11.25,12.13-48.65,2.99-54.82-9.14-6.17-91.84,0-91.84,0Z"/>
    <path class="cls-8" d="M192.53,68.47s-3.71-58.33-69.09-37.57c0,0-5.29,1.21-6.69,1.76-22.81,8.96-35.45,26.51-32.09,68.77,3.37,42.26,107.87-32.97,107.87-32.97Z"/>
    <path class="cls-8" d="M99.12,94.6c5.9,9.52,16.82,15.51,28.09,18.15,11.27,2.64,23.08,2.46,34.7,2.27l14.02-1.42c5.71-7.81,12.32-13.09,15.07-22.24,1.84-7.13,2.16-16.52,1.44-23.83-.75-7.67-6.58-16.12-11.13-22.46-3.93-5.22-9.68-8.95-16.22-10.55-6.55-1.79-10.28-3.65-19.41-3.63-15.72,0-30.61,6.77-40.47,18.42-10.43,11.74-14.29,32-6.09,45.27Z"/>
    <path class="cls-16" d="M116.69,120.01s6.8,20.38,1.33,36.17c-.76,2.2-12.81,8.45-12.81,8.45l11.99,7.3c9.73,5.92,21.2,8.4,32.48,6.79,6.39-.91,17.27-.43,22.31-2.43l3.97-12.14s-11.01-3.01-11.67-5.68c-.65-2.67,1.15-23.06,1.15-23.06"/>
    <path class="cls-14" d="M164.25,152.5s-6.1-1.19-9.52-1.69c-3.41-.51-9.05.32-25.83-10.45,0,0,6.35,14.84,26.21,15.94,0,0,5.97.56,9.18-.57l-.05-3.22Z"/>
    <path class="cls-16" d="M185.54,70.99c1.73,3.37,2.29,8.35,2.28,11.71,0,6.63-.64,14.12-.74,16.99-.1,2.49.22,6.39.58,8.96.8,5.76.87,7.28-.34,13.12-1.18,5.65-2.43,8.69-5.36,13.61-3.05,5.13-7.49,9.64-11.69,14.05-2.76,2.91-3.34,3.27-11.21,3.63-11.59.53-22.91-4.97-30.52-12.55l-9.44-12-1.56-5.42c-5.79,6.35-9.97-2.83-9.78-4.6-2.23-3.67-9.79-16.31-5.06-21.48l.33-.6c2.01-1.85,4.7-2.36,6.46.46.6,1.24,1.29,2.37,1.88,3.61.6,1.42,2.73,4.05,3.7,5.27,0,0,.74-7.37.46-10.77-.28-3.4,1.7-13.31,7.36-18.31,0,0-.51-11.99,2.01-15.65l.93-.38c.56-.02.94.15,1.5.14,0-.18-.2-.35-.21-.71.95.33,1.69.13,2.44.11-.19-.17-.57-.34-.58-.52.75.16,1.5-.04,2.24-.06-.19-.17-.58-.52-.58-.7.94.33,1.5-.04,2.24-.06-.19-.18-.39-.53-.39-.71.76.34,1.5.14,2.25.12-.19-.17-.39-.53-.58-.7.94.33,1.49-.04,2.24-.06.19,0-.38-.35-.39-.53.57.16,1.31.14,1.87.13,0-.18-.38-.35-.39-.53,1.13.33,1.68-.05,2.43-.07l-.58-.7c.76.52,1.51.5,2.25.3-.19-.17-.57-.52-.58-.7.95.51,2.07.66,3,.27-.19,0-.57-.52-.58-.7.95.69,1.7.49,2.63.46-.19-.17-.39-.53-.77-.87,1.14.69,2.46,1.01,3.57.44-.17,0-.34-.42-.38-.63-.11-.15-.14-.35.26-.44,0,0,2.17.66,2.16.48.76.52-2.05-2.98-1.12-3.01-.2-.35,5.37.18,4.99-.17.95.69.75.33,1.87.12,0,0,3.94,2.04,3.75,1.86.39.36.69.43.99.39,0,0,15.62,10.49,24.16,17.4Z"/>
    <path class="cls-4" d="M124.84,74.73l-2.4,6.46c-2.79,7.49-4.48,15.37-5.02,23.38l-.15,2.28c-.04.66-.87.89-1.23.35l-4.53-6.72s-1.68-24.61,13.34-25.76Z"/>
    <path class="cls-10" d="M109.64,105.71c-1.58.77-2.08,2.47-2.25,4.1s.01,2.96.72,4.41c.61,1.25,1.9,3.12,3.55,2.61,1.46-.45,1.42-2.07.99-3.24-.27-.73-.68-1.43-.89-2.18-.22-.81.01-1.11.85-1.15.15,0,.96-.16.81-.47-1.2-2.56-2.54-5.17-4.26-7.41-.9-1.17-2.07-2.25-3.68-1.91-2.01.42-2.45,2.63-2.42,4.39.04,2.09.78,4.28,1.97,6,.21.31,1.34-.07,1.08-.45-.82-1.18-1.37-2.61-1.67-4-.24-1.12-.31-2.3-.09-3.43.13-.63.43-1.77,1.18-1.93,1.2-.26,2.36,1.49,2.92,2.28.94,1.32,1.73,2.73,2.49,4.15.46.86.91,1.74,1.32,2.62l.81-.47c-1,.04-2.64.29-2.55,1.62.08,1.17.92,2.2,1.19,3.33.17.72,0,1.09-.3,1.71-.08.17.18.02.11,0-.04,0-.11,0-.14-.03-.11-.09-.28-.13-.41-.21-.37-.24-.67-.57-.94-.92-.95-1.21-1.56-2.82-1.54-4.37.02-1.38.16-3.88,1.61-4.59.72-.35.06-.7-.45-.45h0Z"/>
    <path class="cls-8" d="M89,70.99c-.11-13.84,21.53-19.35,32.94-21.16,7.39-.95,7.15,4.32,14.08,7.13,1.7-2.15-.91,27.65-41.41,31.94l-7.14,8.95s1.65-13.02,1.54-26.86Z"/>
    <path class="cls-8" d="M190.1,56.53c-2.65-13.59-24.95-14.67-36.49-14.17-7.43.54-18.19,8.42-24.43,12.56-2.09-1.77,18.53,17.52,58.99,20.29l2.52,2.11s2.05-7.19-.6-20.78Z"/>
    <path class="cls-4" d="M156.87,87.68c.01-.16-.46-.22-.45-.38-7.43-2.67-13.29-1.82-15.37-1.52-1.58.23-3.71.55-5.18,1.44,0,0-3.27,2.31-3.78,3.34-.51,1.03,2.45-.35,2.45-.35.63-.18,1.06-.42,1.71-.5,3.54-.41,6.75-1.03,10.29-.2,3.03.68,7.29,1.67,10.19,3.26.12-1.74-.09-3.38.14-5.09Z"/>
    <path class="cls-4" d="M188.26,88.02c-2.07-.46-9.46-2.59-16.9-.07-.13,2.3-.17,2.97-.3,5.27,3.09-1.71,6.15-1.72,9.31-2.37,1.97-.4,5.82.54,7.89.8v-3.64Z"/>
    <path class="cls-6" d="M163.17,128.24c-5.07,0-14.24.38-14.24.38,0,0,2.42,11.15,14.17,11.17,11.74.02,12.42-11.86,12.42-11.86,0,0-7.29.32-12.35.31Z"/>
    <path class="cls-5" d="M163.22,128.24c-2.41,0-12.63-.08-12.63-.08,0,0,3.66,7.02,12.38,7.04,9.44.02,11.2-7.15,11.2-7.15l-10.94.19Z"/>
    <path class="cls-9" d="M163.32,128.61c-2.41,0-9.74-.43-9.74-.43,0,0,2.63,2.69,9.86,2.7,7.22.01,9.52-2.59,9.52-2.59l-9.65.32Z"/>
    <path class="cls-6" d="M175.84,127.64c-.26-.06-.84.12-1.98-.07-2.05-.34-2.98-1.08-4.42-1.2-2.47-.2-4.03.79-5.11.79-1.07,0-2.64-.99-5.1-.81-1.44.11-4.5,1.15-6.5,1.32-1.2.1-3.96.45-4.21.51-.36.09,1.17,1.41,14.65,1.43,13.48.02,13.03-1.89,12.67-1.98Z"/>
    <path class="cls-10" d="M169.29,100.72c-.49,1.57-.1,3.39.26,4.95.51,2.19,1.24,4.33,2.02,6.43.63,1.69,1.31,3.35,1.97,5.02.14.35.42.82.43,1.21.04,1.02-1.37,1.63-2.22,1.84-1.28.32-2.6.45-3.92.48-1.46.03-3.08,0-4.45-.59-.28-.12-1.33.31-.94.49,2.35,1.03,5.56.78,8.03.36.97-.17,1.98-.38,2.87-.81.71-.34,1.83-1.11,1.8-2.03-.01-.41-.29-.89-.44-1.26-.33-.85-.68-1.69-1.01-2.53-.89-2.25-1.74-4.52-2.43-6.84-.61-2.07-1.5-4.76-.82-6.91.09-.29-1.05-.14-1.15.19h0Z"/>
    <path class="cls-10" d="M158.51,116.06c-.87.14-1.73.57-2.19,1.35-.39.67-.45,1.78,0,2.43.51.73,1.45.92,2.27,1.02,1.06.13,2.11.16,3.16-.08.14-.03.57-.17.52-.37s-.54-.08-.64-.06c-.72.16-1.49.07-2.22,0-.68-.08-1.4-.21-1.88-.74s-.45-1.43-.23-2.05c.1-.27.26-.51.47-.7.08-.08.18-.15.28-.2.11-.06.15-.07.25-.09.18-.03.62-.12.67-.34s-.37-.17-.48-.16h0Z"/>
    <path class="cls-7" d="M248.09,386.29l-.97-17.34c-3.87-27-4.4-54.42-9.11-75.29-3.78-17.93-10.64-76.76-17.59-96.98-6.94-20.22-29.19-28.1-32.02-28.97,0,0-2.63,82.19,9.25,110.35,7.02,16.63,16.83,64.55,24.2,103.69,9.22-.31,17.08,5.55,26.23,4.53Z"/>
    <path class="cls-7" d="M171.79,161.16l25.16,9.93,26.47,77.02c2.63,4.14,8.56,17.85-1.95,39.84-3.65,7.63-8.07,17.62-6.14,25.29.72,2.87.4,6.78,1.38,9.67-16.06,3.04-29.66.04-45.87-1.16-11.05-.82-20.77,13.86-31.72,12.16s-23.29-2.29-34.24-3.99c-10.55-1.64-33.19-3.77-43.86-3.99,3.39-9.45,4.09-35.89,4.09-35.89l10.93-117.48,38.05-14.87s11.86,20.39,36.96,18.6c25.1-1.8,20.73-15.13,20.73-15.13Z"/>
    <path class="cls-15" d="M219.33,207.37c-.53,4.66-1.18,9.35-1.42,14.04-.07,1.34.73,2.77,1.18,3.99,1.07,2.91,2.16,5.81,3.21,8.73,2.66,7.35,5.4,14.83,7.01,22.49.97,4.58.9,9.38.28,14.01-.6,4.49-1.97,8.65-3.32,12.95-2.34,7.42-2.42,14.84-1.18,22.49,1.03,6.35,2.27,12.68,3.54,18.99s2.81,12.44,3.68,18.76c.77,5.59,1.38,11.2,1.98,16.81.99,9.35,1.89,18.7,2.72,28.06.01.17.03.34.04.5.03.33,1.49.05,1.45-.39-.7-7.96-1.46-15.91-2.27-23.85-.61-5.93-1.24-11.86-1.98-17.77-.63-4.99-1.51-9.83-2.57-14.75-1.76-8.19-3.34-16.41-4.78-24.66-1.12-6.36-1.81-12.89-.54-19.29.79-3.96,2.37-7.67,3.39-11.57,1.15-4.39,1.76-8.96,1.73-13.5-.06-8.15-3.03-16.14-5.65-23.76-1.97-5.73-4.24-11.35-6.18-17.08-.55-1.62-.16-3.31,0-4.99.28-2.92.6-5.83.92-8.74.06-.56.13-1.13.19-1.69.05-.43-1.39-.15-1.44.23h0Z"/>
    <path class="cls-4" d="M119.25,33.29c-8.79-2.37-25.72,6.87-30.9,14.37-5.18,7.5-8.7,15.85-8.83,24.95-.08,5.15.25,10.36,1.59,15.33"/>
    <path class="cls-4" d="M110.31,37.46c1.14-9.01,21.93-14.13,30.95-13.71,20.43.96,25.78,7.08,33.3,12.09"/>
    <path class="cls-15" d="M159.8,175.45c6.68,16.33,12.43,33.18,16.99,50.22,2.99,11.17,5.37,22.5,5.76,34.09s-.02,22.23-.52,33.32c-.86,19.22-2.23,38.43-3.91,57.59-.35,4.05-.36,8.12-.46,12.19-.28,11.58-.55,23.16-.8,34.74-.37,16.99-.7,33.99-1,50.98-.34,19.52-.63,39.04-.84,58.56s-.34,37.91-.31,56.87c.02,15.36.12,30.73.59,46.09.26,8.62.16,17.66,1.84,26.16.16.8.32,1.64.68,2.38.19.4,1.59-.09,1.45-.39-.97-1.99-1.06-4.56-1.29-6.72-.48-4.44-.71-8.91-.91-13.37-.63-14.04-.77-28.1-.86-42.15-.11-18.29-.03-36.59.12-54.88.17-19.66.43-39.33.74-58.99.29-17.93.62-35.87.99-53.8.27-13.14.56-26.27.88-39.41.13-5.41.11-10.86.4-16.27.74-13.81,2.33-28.39,3.18-42.46.72-11.9,1.32-23.81,1.52-35.73.18-10.55.06-21.04-1.8-31.46-3.89-21.85-11.35-43.22-19.39-63.86-.54-1.38-1.07-2.75-1.63-4.12-.16-.39-1.58.06-1.45.39h0Z"/>
    <circle class="cls-15" cx="162.93" cy="200.51" r="1.72"/>
    <circle class="cls-15" cx="169.66" cy="225.07" r="1.72"/>
    <circle class="cls-15" cx="176.72" cy="252.56" r="1.72"/>
    <g>
      <path class="cls-2" d="M125.52,180.76s.09.24.26.7"/>
      <path class="cls-3" d="M126.31,182.85c3.97,10.28,22.45,55.29,43.3,59.77,23.55,5.07,22.21-16.71,18.38-35.37-3.27-15.92-9.1-35.31-10.75-40.67"/>
      <path class="cls-2" d="M177.02,165.86c-.14-.46-.22-.71-.22-.71"/>
    </g>
    <circle class="cls-13" cx="112.83" cy="122.99" r="2.98"/>
    <circle class="cls-13" cx="133.16" cy="198.44" r="2.61"/>
    <circle class="cls-13" cx="130.55" cy="192.73" r="2.61"/>
    <circle class="cls-13" cx="127.95" cy="186.48" r="2.61"/>
    <circle class="cls-13" cx="135.77" cy="204.26" r="2.61"/>
    <circle class="cls-13" cx="138.7" cy="209.86" r="2.61"/>
    <circle class="cls-13" cx="141.64" cy="215.85" r="2.61"/>
    <circle class="cls-13" cx="145.1" cy="221.07" r="2.61"/>
    <circle class="cls-13" cx="148.79" cy="226.28" r="2.61"/>
    <circle class="cls-13" cx="152.95" cy="231.49" r="2.61"/>
    <circle class="cls-13" cx="157.37" cy="235.7" r="2.61"/>
    <circle class="cls-13" cx="162.58" cy="239.87" r="2.61"/>
    <circle class="cls-13" cx="168.26" cy="242.48" r="2.61"/>
    <circle class="cls-13" cx="174.57" cy="243.36" r="2.61"/>
    <circle class="cls-13" cx="181.05" cy="242.48" r="2.61"/>
    <circle class="cls-13" cx="186.26" cy="239.17" r="2.61"/>
    <circle class="cls-13" cx="189.3" cy="233.63" r="2.61"/>
    <circle class="cls-13" cx="190.17" cy="227.67" r="2.61"/>
    <circle class="cls-13" cx="190.17" cy="221.07" r="2.61"/>
    <circle class="cls-13" cx="189.3" cy="214.46" r="2.61"/>
    <circle class="cls-13" cx="188.16" cy="208.2" r="2.61"/>
    <circle class="cls-13" cx="186.69" cy="201.65" r="2.61"/>
    <circle class="cls-13" cx="185.55" cy="195.83" r="2.61"/>
    <circle class="cls-13" cx="184.08" cy="189.82" r="2.61"/>
    <circle class="cls-13" cx="182.08" cy="183.87" r="2.61"/>
    <path class="cls-15" d="M104.93,161.48s6.94,23.96,30.91,25.9c23.97,1.95,24.69-12.13,24.69-12.13,0,0,5.82,9.68,17.59,6.27,10.61-3.07,7.33-10.27,3.46-15.17-2.48-3.14-6.09-5.19-10.03-5.88l-5.89-1.03s13.3,11.56-6.35,13.64c-19.65,2.07-37.33-9.77-41.28-16.3-1.5-2.47-13.45,3.83-13.1,4.7Z"/>
    <path class="cls-13" d="M153.07,103.17s-7.1,3.56-12.81.82c-2.05-.98-3.05-2.33-2.27-4.37,1.55-4.06,6.72-4.26,9.68-3.29,3.21,1.05,5.6,2.98,5.41,6.84Z"/>
    <g>
      <path class="cls-17" d="M150.42,99.26c.69,2.57-.93,4.26-3.66,4.84-2.73.57-5.55-.19-6.24-2.75-.69-2.57.36-4.89,3.09-5.46,2.73-.57,6.12.81,6.81,3.38Z"/>
      <path class="cls-12" d="M148.02,99.52c.38,1.42-.54,2.84-2.05,3.16-1.52.32-3.06-.58-3.44-2-.38-1.42.54-2.84,2.05-3.16,1.52-.32,3.06.58,3.44,2Z"/>
    </g>
    <path class="cls-13" d="M171.69,103.04s7.06,4.14,12.99,1.86c2.13-.82,3.24-2.09,2.65-4.18-1.18-4.16-6.32-4.77-9.35-4.04-3.29.8-6.14,2.49-6.29,6.36Z"/>
    <g>
      <path class="cls-17" d="M174.98,99.39c-.91,2.5.55,4.32,3.22,5.1,2.67.79,5.54.25,6.46-2.26.91-2.5.08-4.9-2.6-5.68-2.67-.79-6.17.33-7.08,2.84Z"/>
      <path class="cls-12" d="M177.35,99.83c-.51,1.39.28,2.87,1.77,3.3,1.48.44,3.1-.34,3.6-1.73.51-1.39-.28-2.87-1.77-3.3-1.48-.44-3.1.34-3.6,1.73Z"/>
    </g>
    <ellipse class="cls-13" cx="143.88" cy="99.1" rx=".6" ry=".56"/>
    <path class="cls-4" d="M152.91,100.83s-3.47-4.41-9.65-3.65c-6.18.76-5.49,4.18-5.49,4.18,0,0-1.14-4.08,3.29-5.69,3.19-1.16,9.56-1.61,11.85,5.16Z"/>
    <path class="cls-4" d="M171.84,101.5s3.58-4.41,9.97-3.65,5.67,4.18,5.67,4.18c0,0,1.18-4.08-3.4-5.69-3.29-1.16-9.88-1.61-12.24,5.16Z"/>
    <path class="cls-4" d="M137.81,100.82s-3.41-.71-4.12-2.96c0,0,2.47,1.53,5.72-.98,0,0-1.62,2.45-1.61,3.2v.75Z"/>
    <ellipse class="cls-13" cx="179" cy="99.64" rx=".6" ry=".56"/>
    <path class="cls-7" d="M94.4,232.1l4.45-67.46s-36.38,8.61-46.02,25.63c-17.06,35.87-27.43,94.92-27.91,112.58-.52,19.48,4.58,65.1,9.45,94.32l44.15-3.62-5.1-89.48,20.97-71.97Z"/>
    <path class="cls-15" d="M83.05,188.53c3.67,2.83,7.68,5.69,10.29,9.59s3.24,8.62,3.45,13.19-.47,8.76-1.24,13.05c-.97,5.37-2.23,10.69-3.58,15.97-1.28,5-2.65,9.98-4.02,14.96-.78,2.84-1.44,5.73-2.33,8.54-1.89,5.91-3.78,11.82-5.67,17.73-1.79,5.58-3.93,11.21-5.15,16.95s-1.21,11.25-.8,17.01c.07,1.02.09,2.05.14,3.07.6,12.88,1.19,25.76,1.79,38.64.51,10.93,1.01,21.86,1.52,32.79l.03.56c.02.39,1.47.12,1.45-.39-.43-9.32-.86-18.63-1.29-27.95-.64-13.76-1.27-27.51-1.91-41.27-.2-4.3-.7-8.7-.61-12.98.11-5.21,1.07-10.33,2.65-15.28.76-2.37,1.52-4.74,2.27-7.11,2.12-6.63,4.24-13.26,6.37-19.9,2.01-6.29,3.61-12.73,5.32-19.11,2.7-10.05,5.58-20.35,6.42-30.76.35-4.35.15-8.93-1.07-13.14-1.15-3.95-3.59-7.08-6.62-9.8-1.93-1.73-4-3.32-6.05-4.9-.37-.28-1.69.28-1.35.54h0Z"/>
    <path class="cls-4" d="M112.61,151.78c-4.97,4.96-7.92,11.89-8.03,18.92-.02,1.1.05,2.27.69,3.15.52.72,1.33,1.15,2.07,1.65,3.46,2.37,5.35,6.84,4.64,10.97-.72,4.13-4.01,7.71-8.07,8.76,2.15-2.14,2.58-5.78,1-8.36-2.03-3.31-6.52-4.39-8.72-7.59-1.59-2.31-1.7-5.33-1.43-8.12.86-8.83,5.11-17.29,11.69-23.25"/>
  </g>
</svg>