<?xml version="1.0" encoding="UTF-8"?>
<svg xmlns="http://www.w3.org/2000/svg" xmlns:xlink="http://www.w3.org/1999/xlink" viewBox="0 0 914.57 914.57">
  <defs>
    <style>
      .cls-1 {
        fill: #7f7f7e;
      }

      .cls-2, .cls-3 {
        fill: none;
      }

      .cls-4 {
        mask: url(#mask);
      }

      .cls-5 {
        fill: #853d34;
      }

      .cls-6 {
        filter: url(#luminosity-noclip);
      }

      .cls-7 {
        fill: #8c694b;
      }

      .cls-8 {
        fill: #050606;
      }

      .cls-9 {
        fill: #13110f;
      }

      .cls-10 {
        fill: #335a63;
      }

      .cls-11 {
        fill: #13100f;
      }

      .cls-12 {
        filter: url(#luminosity-noclip-3);
      }

      .cls-13 {
        filter: url(#luminosity-noclip-9);
      }

      .cls-14 {
        filter: url(#luminosity-noclip-7);
      }

      .cls-15 {
        filter: url(#luminosity-noclip-5);
      }

      .cls-16 {
        fill: #010101;
      }

      .cls-17 {
        fill: #55423a;
      }

      .cls-18 {
        fill: #d78a28;
      }

      .cls-19 {
        fill: #c3d5d9;
      }

      .cls-20 {
        fill: url(#linear-gradient-2);
      }

      .cls-21, .cls-22 {
        stroke: #7f7f7e;
      }

      .cls-21, .cls-22, .cls-3, .cls-23 {
        stroke-miterlimit: 10;
      }

      .cls-21, .cls-24, .cls-23 {
        fill: #fff;
      }

      .cls-25 {
        fill: #6da4b4;
      }

      .cls-26 {
        fill: #231f20;
      }

      .cls-22 {
        fill: url(#linear-gradient-12);
      }

      .cls-27 {
        fill: #80483f;
      }

      .cls-28 {
        fill: #0e0a09;
      }

      .cls-29 {
        fill: url(#linear-gradient-3);
      }

      .cls-29, .cls-30, .cls-31, .cls-32, .cls-33, .cls-34, .cls-35, .cls-36, .cls-37, .cls-38 {
        mix-blend-mode: multiply;
      }

      .cls-30 {
        fill: url(#linear-gradient-4);
      }

      .cls-31 {
        fill: url(#linear-gradient-9);
      }

      .cls-32 {
        fill: url(#linear-gradient-6);
      }

      .cls-33 {
        fill: url(#linear-gradient-5);
      }

      .cls-34 {
        fill: url(#linear-gradient-7);
      }

      .cls-35 {
        fill: url(#linear-gradient-8);
      }

      .cls-39 {
        fill: #bdb290;
      }

      .cls-40 {
        fill: url(#linear-gradient);
      }

      .cls-3 {
        stroke: #8c694b;
        stroke-width: .6px;
      }

      .cls-41 {
        fill: #f1eef7;
      }

      .cls-42 {
        fill: #757575;
      }

      .cls-43 {
        fill: #f2eef7;
      }

      .cls-44 {
        fill: #914a3b;
      }

      .cls-45 {
        fill: #804840;
      }

      .cls-46 {
        fill: #804841;
      }

      .cls-47 {
        fill: #d29e7d;
      }

      .cls-48 {
        isolation: isolate;
      }

      .cls-49 {
        mask: url(#mask-2);
      }

      .cls-50 {
        mask: url(#mask-3);
      }

      .cls-51 {
        mask: url(#mask-4);
      }

      .cls-52 {
        mask: url(#mask-5);
      }

      .cls-53 {
        mask: url(#mask-7);
      }

      .cls-54 {
        mask: url(#mask-6);
      }

      .cls-55 {
        mask: url(#mask-1);
      }

      .cls-56 {
        mask: url(#mask-9);
      }

      .cls-57 {
        mask: url(#mask-8);
      }

      .cls-36 {
        fill: url(#linear-gradient-10);
      }

      .cls-37 {
        fill: url(#linear-gradient-11);
      }

      .cls-58 {
        fill: #e2ac91;
      }

      .cls-59 {
        fill: #d9d0c0;
      }

      .cls-60 {
        fill: #ce8d2a;
      }

      .cls-61 {
        clip-path: url(#clippath-1);
      }

      .cls-62 {
        fill: #050505;
      }

      .cls-63 {
        fill: #874d3e;
      }

      .cls-64 {
        fill: #0b0b0b;
      }

      .cls-65 {
        fill: #6d594e;
      }

      .cls-66 {
        fill: #84754d;
      }

      .cls-67 {
        fill: #8e6528;
      }

      .cls-68 {
        fill: #8f9699;
      }

      .cls-69 {
        fill: #99382f;
      }

      .cls-23 {
        stroke: #707071;
      }

      .cls-70 {
        fill: #926847;
      }

      .cls-71 {
        fill: #d4bdb1;
      }

      .cls-72 {
        fill: #241f20;
      }

      .cls-73 {
        fill: #556b30;
      }

      .cls-74 {
        fill: #669aa2;
      }

      .cls-75 {
        fill: #84764e;
      }

      .cls-76 {
        fill: #50423a;
      }

      .cls-77 {
        fill: #56423a;
      }

      .cls-78 {
        fill: #a73028;
      }

      .cls-79 {
        clip-path: url(#clippath);
      }

      .cls-80 {
        fill: #4f2e25;
      }

      .cls-81 {
        fill: #a38978;
      }

      .cls-82 {
        fill: #7b7b7b;
      }

      .cls-83 {
        fill: #161312;
      }
    </style>
    <clipPath id="clippath">
      <circle class="cls-2" cx="457.29" cy="457.29" r="457.29"/>
    </clipPath>
    <linearGradient id="linear-gradient" x1="9261.37" y1="-470.46" x2="9261.37" y2="-51.9" gradientTransform="translate(9657.85 45.3) rotate(-180)" gradientUnits="userSpaceOnUse">
      <stop offset="0" stop-color="#44507b"/>
      <stop offset=".59" stop-color="#323660"/>
      <stop offset="1" stop-color="#2a2a54"/>
    </linearGradient>
    <linearGradient id="linear-gradient-2" x1="8826.54" y1="-470.46" x2="8826.54" y2="-51.9" xlink:href="#linear-gradient"/>
    <filter id="luminosity-noclip" x="-129.05" y="23.37" width="396.02" height="310.63" color-interpolation-filters="sRGB" filterUnits="userSpaceOnUse">
      <feFlood flood-color="#fff" result="bg"/>
      <feBlend in="SourceGraphic" in2="bg"/>
    </filter>
    <filter id="luminosity-noclip-2" x="-129.05" y="-9482.52" width="396.02" height="32766" color-interpolation-filters="sRGB" filterUnits="userSpaceOnUse">
      <feFlood flood-color="#fff" result="bg"/>
      <feBlend in="SourceGraphic" in2="bg"/>
    </filter>
    <mask id="mask-1" x="-129.05" y="-9482.52" width="396.02" height="32766" maskUnits="userSpaceOnUse"/>
    <linearGradient id="linear-gradient-3" x1="286.77" y1="151.13" x2="286.77" y2="-55.41" gradientTransform="translate(355.73) rotate(-180) scale(1 -1)" gradientUnits="userSpaceOnUse">
      <stop offset=".16" stop-color="#000"/>
      <stop offset="1" stop-color="#fff"/>
    </linearGradient>
    <mask id="mask" x="-129.05" y="23.37" width="396.02" height="310.63" maskUnits="userSpaceOnUse">
      <g class="cls-6">
        <g class="cls-55">
          <path class="cls-29" d="M260,86.99c-8.79-4.14-9.65-27.71-14.28-39.76-4.46-11.61-13.03-10.65-16.08,2.82-3.28,14.47-2.98,32.3-3.3,47.8-.54,26.66.6,54.46-3.55,80.3-4.85-20-4.27-42.81-5.53-64.27-1.23-20.84-4.51-44.02-14.47-56.08-5.29-6.41-10.33-4.53-14.28,4.74-.93,2.18-1.74,4.66-3.46,3.72-1.69-.92-3.11-2.35-4.42-4.58-1.59-2.71-3.16-6.09-5.18-7.7-4.8-3.83-8.56,3.34-10.34,11.25-2.7,12.04-4.6,24.75-5.73,37.66-2.35,26.76-2.17,53.99-3.88,80.88-1.51-26.55-.8-54.51-6.24-79.48-5.19-23.85-19.4-49.74-34.07-38.27-9.17,7.17-13.88,26.17-16.54,43.11-3.09,19.73-4.71,40.47-6.31,60.88-.47-6.19-.98-12.38-1.51-18.56-1.12-12.89-2.09-25.89-3.74-38.59-1.51-11.66-3.41-23.57-6.69-33.94-2.02-6.38-4.98-14.95-8.91-17.55-5.54-3.67-8.15,10.92-10.28,17.71-1.42,4.52-3.61,10.68-6.87,9.23-5.37-2.39-7.56-13.86-10.16-21.86-1.87-5.74-4.87-13.71-8.98-12.69-3.11.78-3.83,8.91-4.11,13.57-.65,10.69-.66,21.69-.84,32.43-.27,16.22-.37,32.44-.4,48.66-.05,32.36.23,64.75-.35,97.1-.52,29.51-.1,59.26-2.5,88.5-3.53-48.63-2.78-98.12-3.03-147.09-.21-41.92-2.94-89.28-20.21-119.51-3.65-6.39-8.14-12.23-13.25-13.04-4.69-.75-9.15,2.52-12.62,8.48-10.05,17.24-13.6,45.4-15.41,69.82-.5,6.68-.93,13.39-1.32,20.11-.25-4.35-.52-8.69-.82-13.03-.83-12.08-1.64-24.98-4.3-36.18-2.28-9.58-5.81-16.48-11.09-20.07-4.99-3.4-10.67-4.24-15.6.05-12.41,10.79-14.3,42.27-16.97,64.56-1.85,15.48-4.22,30.71-6.13,46.16-1.92,15.49-3.56,31.17-4.9,46.88-2.25,26.33-3.72,52.85-5.37,79.33-.69-26.72-3-53.17-3.58-79.92-.6-28.08-1.2-55.57-4.36-83.12-3.28-28.68-7.85-60.99-17.09-86.02V31.5c8.99-2.2,11.38-8.13,24.25-8.13,15.8,0,15.8,8.94,31.6,8.94s15.8-8.94,31.59-8.94,15.8,8.94,31.6,8.94,15.8-8.94,31.6-8.94,15.8,8.94,31.59,8.94,15.8-8.94,31.59-8.94,15.79,8.94,31.59,8.94,15.79-8.94,31.59-8.94,15.8,8.94,31.59,8.94,15.8-8.94,31.59-8.94,15.8,8.94,31.59,8.94c12.87,0,15.26-5.93,24.25-8.13v57.04c-1.82,4.37-4.05,7.15-6.97,5.77Z"/>
        </g>
      </g>
    </mask>
    <filter id="luminosity-noclip-3" x="154.5" y="24.22" width="33.29" height="975.27" color-interpolation-filters="sRGB" filterUnits="userSpaceOnUse">
      <feFlood flood-color="#fff" result="bg"/>
      <feBlend in="SourceGraphic" in2="bg"/>
    </filter>
    <filter id="luminosity-noclip-4" x="154.5" y="-9482.52" width="33.29" height="32766" color-interpolation-filters="sRGB" filterUnits="userSpaceOnUse">
      <feFlood flood-color="#fff" result="bg"/>
      <feBlend in="SourceGraphic" in2="bg"/>
    </filter>
    <mask id="mask-3" x="154.5" y="-9482.52" width="33.29" height="32766" maskUnits="userSpaceOnUse"/>
    <linearGradient id="linear-gradient-4" x1="142.1" y1="511.85" x2="200.36" y2="511.85" xlink:href="#linear-gradient-3"/>
    <mask id="mask-2" x="154.5" y="24.22" width="33.29" height="975.27" maskUnits="userSpaceOnUse">
      <g class="cls-12">
        <g class="cls-50">
          <path class="cls-30" d="M179.54,32.23c3.36,0,6.01-.41,8.24-1.04l-.99,961.65c-2.29-.67-5.01-1.11-8.52-1.11-12.63,0-15.05,5.61-23.77,7.75l1.01-975.27c8.82,2.22,11.27,8.01,24.04,8.01Z"/>
        </g>
      </g>
    </mask>
    <linearGradient id="linear-gradient-5" x1="142.1" y1="511.85" x2="200.36" y2="511.85" gradientTransform="translate(355.73) rotate(-180) scale(1 -1)" gradientUnits="userSpaceOnUse">
      <stop offset=".16" stop-color="#fff"/>
      <stop offset="1" stop-color="#999"/>
    </linearGradient>
    <filter id="luminosity-noclip-5" x="219.07" y="24.61" width="33.29" height="974.24" color-interpolation-filters="sRGB" filterUnits="userSpaceOnUse">
      <feFlood flood-color="#fff" result="bg"/>
      <feBlend in="SourceGraphic" in2="bg"/>
    </filter>
    <filter id="luminosity-noclip-6" x="219.07" y="-9482.52" width="33.29" height="32766" color-interpolation-filters="sRGB" filterUnits="userSpaceOnUse">
      <feFlood flood-color="#fff" result="bg"/>
      <feBlend in="SourceGraphic" in2="bg"/>
    </filter>
    <mask id="mask-5" x="219.07" y="-9482.52" width="33.29" height="32766" maskUnits="userSpaceOnUse"/>
    <linearGradient id="linear-gradient-6" x1="98.96" y1="511.74" x2="140.97" y2="511.74" xlink:href="#linear-gradient-3"/>
    <mask id="mask-4" x="219.07" y="24.61" width="33.29" height="974.24" maskUnits="userSpaceOnUse">
      <g class="cls-15">
        <g class="cls-52">
          <path class="cls-32" d="M242.72,32.23c4.09,0,7.12-.6,9.64-1.48l-.99,962.82c-2.71-1.07-5.98-1.84-10.64-1.84-11.54,0-14.56,4.68-21.65,7.12l1.01-974.24c7.72,2.44,10.57,7.62,22.64,7.62Z"/>
        </g>
      </g>
    </mask>
    <linearGradient id="linear-gradient-7" x1="98.96" y1="511.74" x2="140.97" y2="511.74" xlink:href="#linear-gradient-5"/>
    <filter id="luminosity-noclip-7" x="89.92" y="23.91" width="33.29" height="976" color-interpolation-filters="sRGB" filterUnits="userSpaceOnUse">
      <feFlood flood-color="#fff" result="bg"/>
      <feBlend in="SourceGraphic" in2="bg"/>
    </filter>
    <filter id="luminosity-noclip-8" x="89.92" y="-9482.52" width="33.29" height="32766" color-interpolation-filters="sRGB" filterUnits="userSpaceOnUse">
      <feFlood flood-color="#fff" result="bg"/>
      <feBlend in="SourceGraphic" in2="bg"/>
    </filter>
    <mask id="mask-7" x="89.92" y="-9482.52" width="33.29" height="32766" maskUnits="userSpaceOnUse"/>
    <linearGradient id="linear-gradient-8" x1="211.77" y1="511.91" x2="275.69" y2="511.91" xlink:href="#linear-gradient-3"/>
    <mask id="mask-6" x="89.92" y="23.91" width="33.29" height="976" maskUnits="userSpaceOnUse">
      <g class="cls-14">
        <g class="cls-53">
          <path class="cls-35" d="M116.36,32.23c2.69,0,4.91-.26,6.84-.69l-.99,960.78c-1.82-.37-3.91-.58-6.4-.58-13.6,0-15.36,6.5-25.9,8.18l1.01-976c10,1.92,12.02,8.32,25.44,8.32Z"/>
        </g>
      </g>
    </mask>
    <linearGradient id="linear-gradient-9" x1="211.77" y1="511.91" x2="275.69" y2="511.91" xlink:href="#linear-gradient-5"/>
    <filter id="luminosity-noclip-9" x="25.34" y="23.68" width="33.29" height="976.49" color-interpolation-filters="sRGB" filterUnits="userSpaceOnUse">
      <feFlood flood-color="#fff" result="bg"/>
      <feBlend in="SourceGraphic" in2="bg"/>
    </filter>
    <filter id="luminosity-noclip-10" x="25.34" y="-9482.52" width="33.29" height="32766" color-interpolation-filters="sRGB" filterUnits="userSpaceOnUse">
      <feFlood flood-color="#fff" result="bg"/>
      <feBlend in="SourceGraphic" in2="bg"/>
    </filter>
    <mask id="mask-9" x="25.34" y="-9482.52" width="33.29" height="32766" maskUnits="userSpaceOnUse"/>
    <linearGradient id="linear-gradient-10" x1="285.11" y1="511.93" x2="336.45" y2="511.93" xlink:href="#linear-gradient-3"/>
    <mask id="mask-8" x="25.34" y="23.68" width="33.29" height="976.49" maskUnits="userSpaceOnUse">
      <g class="cls-13">
        <g class="cls-56">
          <path class="cls-36" d="M53.18,32.23c2.06,0,3.85-.15,5.44-.42l-.99,960.17c-1.29-.16-2.7-.25-4.27-.25-14.46,0-15.54,7.35-28.03,8.43L26.35,23.68c11.23,1.57,12.81,8.55,26.84,8.55Z"/>
        </g>
      </g>
    </mask>
    <linearGradient id="linear-gradient-11" x1="285.11" y1="511.93" x2="336.45" y2="511.93" xlink:href="#linear-gradient-5"/>
    <linearGradient id="linear-gradient-12" x1="534.67" y1="175.93" x2="550.98" y2="1175.49" gradientUnits="userSpaceOnUse">
      <stop offset=".48" stop-color="#eaeaea"/>
      <stop offset=".58" stop-color="#e6e6e6"/>
      <stop offset=".66" stop-color="#dcdcdc"/>
      <stop offset=".74" stop-color="#cbcbcb"/>
      <stop offset=".81" stop-color="#b3b3b3"/>
      <stop offset=".88" stop-color="#939393"/>
      <stop offset=".95" stop-color="#6e6e6e"/>
      <stop offset=".98" stop-color="#565656"/>
    </linearGradient>
    <clipPath id="clippath-1">
      <path class="cls-2" d="M636.01,273.13c-5.78-46.12-51.62-94.71-92.77-91.61-11.86-53.92-79.38-88.64-132.82-74.58-13.26,3.49-25.27,9.51-35.7,17.45-29.86-20.25-70.49-25.88-108.27-21.81-52.52,5.65-94.05,36.71-108.19,78.67,0,0-10.36,1.19-22.18,4.3-64.68,17.03-93.16,97.49-76.14,166.27,11.06,44.7,41,65.8,66.18,77.2.12.51,1.09,9.46,1.25,9.96,8.48,26.73,20.91,43.67,54.26,62.38,36.3,20.36,136.63,15.04,169.09-29.34,26.93,17.36,64.7,29.3,97.37,20.7,39.66-10.44,67.56-24.2,80.81-61.86,4-.61,8-1.43,12-2.49,64.68-17.03,103.92-84.93,95.1-155.24Z"/>
    </clipPath>
  </defs>
  <g class="cls-48">
    <g id="Layer_1" data-name="Layer 1">
      <g class="cls-79">
        <rect class="cls-24" x="145.58" y="-87.52" width="1039.61" height="1167.88"/>
        <g>
          <rect class="cls-40" x="187.2" y="-59.97" width="418.55" height="772.77"/>
          <rect class="cls-20" x="622.03" y="-59.97" width="418.55" height="772.77"/>
        </g>
        <g>
          <g>
            <g>
              <path class="cls-59" d="M-104.8,23.37c15.8,0,15.8,8.94,31.6,8.94s15.8-8.94,31.59-8.94,15.8,8.94,31.6,8.94,15.8-8.94,31.6-8.94,15.8,8.94,31.59,8.94,15.8-8.94,31.59-8.94,15.79,8.94,31.59,8.94,15.79-8.94,31.59-8.94,15.8,8.94,31.59,8.94,15.8-8.94,31.59-8.94,15.8,8.94,31.59,8.94c12.87,0,15.26-5.93,24.25-8.13v971.21c-10.85-1.6-12.5-8.3-26.25-8.3-15.61,0-15.61,8.64-31.23,8.64s-15.61-8.64-31.23-8.64-15.61,8.64-31.23,8.64-15.61-8.64-31.22-8.64-15.61,8.64-31.23,8.64-15.61-8.64-31.23-8.64-15.61,8.64-31.23,8.64-15.62-8.64-31.23-8.64-15.62,8.64-31.23,8.64-15.61-8.64-31.23-8.64-15.62,8.64-31.24,8.64c-13.75,0-45.22-6.69-56.08-8.29V31.5c8.99-2.2,41.2-8.13,54.08-8.13Z"/>
              <path class="cls-59" d="M-118.56,992.36c-2.9-1.6-5.89-3.26-10.53-3.94-.27-.04-.48-.47-.48-.99V31.5c0-.5.19-.92.46-.99,3.43-.84,5.94-2.26,8.37-3.63,3.92-2.22,7.97-4.51,15.95-4.51s12.03,2.29,15.95,4.51c3.85,2.17,7.83,4.43,15.65,4.43s11.8-2.25,15.65-4.43c3.92-2.22,7.97-4.51,15.95-4.51s12.03,2.29,15.95,4.51c3.85,2.17,7.83,4.43,15.65,4.43s11.8-2.25,15.65-4.43c3.92-2.22,7.97-4.51,15.95-4.51s12.03,2.29,15.95,4.51c3.85,2.17,7.83,4.43,15.65,4.43s11.8-2.25,15.65-4.43c3.92-2.22,7.97-4.51,15.95-4.51s12.02,2.29,15.94,4.51c3.85,2.17,7.82,4.43,15.65,4.43s11.8-2.25,15.64-4.43c3.92-2.22,7.97-4.51,15.94-4.51s12.03,2.29,15.95,4.51c3.85,2.17,7.83,4.43,15.65,4.43s11.8-2.25,15.65-4.43c3.92-2.22,7.97-4.51,15.94-4.51s12.03,2.29,15.95,4.51c3.85,2.17,7.82,4.43,15.64,4.43s11.8-2.25,15.65-4.43c2.47-1.39,5.02-2.84,8.53-3.7.14-.03.3.05.41.24.11.19.18.46.18.75v971.21c0,.28-.06.54-.17.73-.11.19-.25.29-.4.26-4.74-.7-7.79-2.39-10.74-4.01-3.8-2.1-7.74-4.28-15.47-4.28s-11.66,2.18-15.47,4.28c-3.87,2.14-7.88,4.36-15.76,4.36s-11.89-2.22-15.76-4.36c-3.8-2.1-7.74-4.28-15.47-4.28s-11.66,2.18-15.47,4.28c-3.87,2.14-7.88,4.36-15.76,4.36s-11.88-2.22-15.76-4.36c-3.8-2.1-7.73-4.28-15.46-4.28s-11.66,2.18-15.47,4.28c-3.87,2.14-7.88,4.36-15.76,4.36s-11.88-2.22-15.76-4.36c-3.8-2.1-7.74-4.28-15.47-4.28s-11.66,2.18-15.47,4.28c-3.87,2.14-7.88,4.36-15.76,4.36s-11.89-2.22-15.76-4.36c-3.8-2.1-7.74-4.28-15.47-4.28s-11.66,2.18-15.47,4.28c-3.87,2.14-7.88,4.36-15.76,4.36s-11.89-2.22-15.76-4.36c-3.8-2.1-7.74-4.28-15.47-4.28s-11.67,2.18-15.47,4.28c-3.87,2.14-7.88,4.36-15.76,4.36s-11.89-2.21-15.77-4.36ZM-55.8,990.45c3.8,2.1,7.73,4.28,15.47,4.28s11.67-2.17,15.47-4.28c3.87-2.14,7.88-4.36,15.76-4.36s11.89,2.21,15.77,4.36c3.8,2.1,7.74,4.28,15.47,4.28s11.66-2.17,15.47-4.28c3.87-2.14,7.88-4.36,15.76-4.36s11.89,2.21,15.76,4.36c3.8,2.1,7.73,4.28,15.46,4.28s11.66-2.17,15.47-4.28c3.87-2.14,7.88-4.36,15.76-4.36s11.88,2.21,15.76,4.36c3.8,2.1,7.73,4.28,15.46,4.28s11.67-2.17,15.47-4.28c3.87-2.14,7.88-4.36,15.76-4.36s11.89,2.21,15.76,4.36c3.8,2.1,7.74,4.28,15.47,4.28s11.66-2.17,15.47-4.28c3.87-2.14,7.88-4.36,15.76-4.36s11.89,2.21,15.76,4.36c2.78,1.53,5.64,3.12,9.96,3.85V25.31c-3.13.85-5.49,2.19-7.77,3.48-3.92,2.21-7.97,4.51-15.95,4.51s-12.02-2.29-15.94-4.51c-3.85-2.17-7.82-4.43-15.65-4.43s-11.8,2.25-15.65,4.43c-3.92,2.22-7.97,4.51-15.95,4.51s-12.03-2.29-15.95-4.51c-3.85-2.17-7.82-4.43-15.65-4.43s-11.8,2.25-15.64,4.43c-3.92,2.22-7.97,4.51-15.94,4.51s-12.03-2.29-15.95-4.51c-3.85-2.17-7.82-4.43-15.64-4.43s-11.8,2.25-15.65,4.43c-3.92,2.22-7.97,4.51-15.95,4.51s-12.03-2.29-15.95-4.51c-3.85-2.17-7.82-4.43-15.65-4.43s-11.8,2.25-15.65,4.43c-3.92,2.22-7.97,4.51-15.95,4.51s-12.03-2.29-15.95-4.51c-3.85-2.17-7.83-4.43-15.65-4.43s-11.8,2.25-15.65,4.43c-3.92,2.22-7.97,4.51-15.95,4.51s-12.03-2.29-15.95-4.51c-3.85-2.17-7.83-4.43-15.65-4.43s-11.8,2.25-15.65,4.43c-2.36,1.33-4.79,2.71-8.08,3.58v954.15c4.47.74,7.41,2.37,10.26,3.94,3.8,2.1,7.74,4.28,15.48,4.28s11.67-2.17,15.47-4.28c3.87-2.14,7.88-4.36,15.76-4.36s11.89,2.21,15.76,4.36Z"/>
            </g>
            <g class="cls-38">
              <g class="cls-4">
                <path class="cls-59" d="M260,86.99c-8.79-4.14-9.65-27.71-14.28-39.76-4.46-11.61-13.03-10.65-16.08,2.82-3.28,14.47-2.98,32.3-3.3,47.8-.54,26.66.6,54.46-3.55,80.3-4.85-20-4.27-42.81-5.53-64.27-1.23-20.84-4.51-44.02-14.47-56.08-5.29-6.41-10.33-4.53-14.28,4.74-.93,2.18-1.74,4.66-3.46,3.72-1.69-.92-3.11-2.35-4.42-4.58-1.59-2.71-3.16-6.09-5.18-7.7-4.8-3.83-8.56,3.34-10.34,11.25-2.7,12.04-4.6,24.75-5.73,37.66-2.35,26.76-2.17,53.99-3.88,80.88-1.51-26.55-.8-54.51-6.24-79.48-5.19-23.85-19.4-49.74-34.07-38.27-9.17,7.17-13.88,26.17-16.54,43.11-3.09,19.73-4.71,40.47-6.31,60.88-.47-6.19-.98-12.38-1.51-18.56-1.12-12.89-2.09-25.89-3.74-38.59-1.51-11.66-3.41-23.57-6.69-33.94-2.02-6.38-4.98-14.95-8.91-17.55-5.54-3.67-8.15,10.92-10.28,17.71-1.42,4.52-3.61,10.68-6.87,9.23-5.37-2.39-7.56-13.86-10.16-21.86-1.87-5.74-4.87-13.71-8.98-12.69-3.11.78-3.83,8.91-4.11,13.57-.65,10.69-.66,21.69-.84,32.43-.27,16.22-.37,32.44-.4,48.66-.05,32.36.23,64.75-.35,97.1-.52,29.51-.1,59.26-2.5,88.5-3.53-48.63-2.78-98.12-3.03-147.09-.21-41.92-2.94-89.28-20.21-119.51-3.65-6.39-8.14-12.23-13.25-13.04-4.69-.75-9.15,2.52-12.62,8.48-10.05,17.24-13.6,45.4-15.41,69.82-.5,6.68-.93,13.39-1.32,20.11-.25-4.35-.52-8.69-.82-13.03-.83-12.08-1.64-24.98-4.3-36.18-2.28-9.58-5.81-16.48-11.09-20.07-4.99-3.4-10.67-4.24-15.6.05-12.41,10.79-14.3,42.27-16.97,64.56-1.85,15.48-4.22,30.71-6.13,46.16-1.92,15.49-3.56,31.17-4.9,46.88-2.25,26.33-3.72,52.85-5.37,79.33-.69-26.72-3-53.17-3.58-79.92-.6-28.08-1.2-55.57-4.36-83.12-3.28-28.68-7.85-60.99-17.09-86.02V31.5c8.99-2.2,11.38-8.13,24.25-8.13,15.8,0,15.8,8.94,31.6,8.94s15.8-8.94,31.59-8.94,15.8,8.94,31.6,8.94,15.8-8.94,31.6-8.94,15.8,8.94,31.59,8.94,15.8-8.94,31.59-8.94,15.79,8.94,31.59,8.94,15.79-8.94,31.59-8.94,15.8,8.94,31.59,8.94,15.8-8.94,31.59-8.94,15.8,8.94,31.59,8.94c12.87,0,15.26-5.93,24.25-8.13v57.04c-1.82,4.37-4.05,7.15-6.97,5.77Z"/>
              </g>
            </g>
          </g>
          <g class="cls-49">
            <path class="cls-33" d="M179.54,32.23c3.36,0,6.01-.41,8.24-1.04l-.99,961.65c-2.29-.67-5.01-1.11-8.52-1.11-12.63,0-15.05,5.61-23.77,7.75l1.01-975.27c8.82,2.22,11.27,8.01,24.04,8.01Z"/>
          </g>
          <g class="cls-51">
            <path class="cls-34" d="M242.72,32.23c4.09,0,7.12-.6,9.64-1.48l-.99,962.82c-2.71-1.07-5.98-1.84-10.64-1.84-11.54,0-14.56,4.68-21.65,7.12l1.01-974.24c7.72,2.44,10.57,7.62,22.64,7.62Z"/>
          </g>
          <g class="cls-54">
            <path class="cls-31" d="M116.36,32.23c2.69,0,4.91-.26,6.84-.69l-.99,960.78c-1.82-.37-3.91-.58-6.4-.58-13.6,0-15.36,6.5-25.9,8.18l1.01-976c10,1.92,12.02,8.32,25.44,8.32Z"/>
          </g>
          <g class="cls-57">
            <path class="cls-37" d="M53.18,32.23c2.06,0,3.85-.15,5.44-.42l-.99,960.17c-1.29-.16-2.7-.25-4.27-.25-14.46,0-15.54,7.35-28.03,8.43L26.35,23.68c11.23,1.57,12.81,8.55,26.84,8.55Z"/>
          </g>
        </g>
        <ellipse class="cls-23" cx="672.81" cy="274.79" rx="23.87" ry="18.83"/>
        <ellipse class="cls-23" cx="697.86" cy="308.07" rx="15.96" ry="12.59"/>
        <circle class="cls-24" cx="824.58" cy="149.34" r="3.76"/>
        <circle class="cls-24" cx="703.26" cy="120.59" r="3.76"/>
        <circle class="cls-24" cx="556.26" cy="107.68" r="3.76"/>
        <circle class="cls-24" cx="879.32" cy="203.09" r="1.64"/>
        <circle class="cls-24" cx="715.86" cy="97.88" r="1.64"/>
        <circle class="cls-24" cx="726.74" cy="109.32" r="1.64"/>
        <circle class="cls-24" cx="730.01" cy="245.51" r="1.64"/>
        <circle class="cls-24" cx="876.04" cy="176.01" r="1.64"/>
        <circle class="cls-24" cx="669.18" cy="182.08" r="1.64"/>
        <circle class="cls-24" cx="858.57" cy="217.09" r=".72"/>
        <circle class="cls-24" cx="848.12" cy="227.31" r=".72"/>
        <circle class="cls-24" cx="848.84" cy="212.86" r=".72"/>
        <circle class="cls-24" cx="844.13" cy="126.02" r=".72"/>
        <path class="cls-22" d="M1045.24,852.57v-38.2c-.02-14.16-6.92-28.76-15.83-36.93-6.1-5.59-13.71-8.88-21.65-9.67-3.81-14.86-4-39.9-.68-54.71,15.95-8.93,26.87-27.01,26.87-47.87,0-29.72-22.15-53.82-49.48-53.82-.03,0-.06,0-.08,0-.39-.06-.77-.13-1.16-.18-16.82,0-73.7-.85-79.37,3.89-1.57-81.14,6.12-143.17-56.46-143.18l-29.07.03-272.92.84-272.92-.84-29.07-.03c-62.58.01-54.89,62.05-56.46,143.18-5.66-4.74-62.55-3.89-79.37-3.89-.39.04-.78.12-1.16.18-.03,0-.06,0-.09,0-27.33,0-49.48,24.1-49.48,53.82,0,20.86,10.92,38.93,26.87,47.87,3.32,14.81,3.13,42.26-.68,57.12-7.95.79-15.55,4.08-21.65,9.67-8.91,8.17-15.81,18.81-15.83,32.96v39.76c.05,12.84,6.69,24.07,16.23,27.46l-8.23,103.71,488.56.49s0,0,0,0h3.29s3.29,0,3.29,0c0,0,0,0,0,0l488.56-.49-8.23-103.71c9.55-3.4,16.18-14.62,16.23-27.46Z"/>
        <path class="cls-1" d="M64.33,880.38h926.07c12.5,0,25.05.34,37.54,0,.55-.01,1.09,0,1.64,0,.42,0,.55-.54.06-.54H103.57c-12.5,0-25.05-.34-37.54,0-.55.01-1.09,0-1.64,0-.42,0-.55.54-.06.54h0Z"/>
        <path class="cls-1" d="M84.21,770.19c8.29-.01,16.58-.03,24.87-.04l67.09-.11c33.29-.06,66.57-.11,99.86-.17l121-.2c44.48-.07,88.95-.15,133.43-.22,44.59-.07,89.18-.15,133.78-.22l125.59-.21c35.14-.06,70.28-.12,105.42-.18,25.44-.04,50.88-.09,76.33-.13,11.97-.02,23.96.15,35.92-.06.52,0,1.05,0,1.57,0,.27,0,.77-.41.28-.41-8.29.01-16.58.03-24.87.04l-67.09.11c-33.29.06-66.57.11-99.86.17l-121,.2c-44.48.07-88.95.15-133.43.22-44.59.07-89.18.15-133.78.22l-125.59.21c-35.14.06-70.28.12-105.42.18-25.44.04-50.88.09-76.33.13-11.97.02-23.96-.15-35.92.06-.52,0-1.05,0-1.57,0-.27,0-.77.41-.28.41h0Z"/>
        <path class="cls-1" d="M188.02,615.05c3.07,4.66,5.5,9.73,7.72,14.83,2.32,5.34,4.39,10.79,6.16,16.33,3.65,11.41,4.01,23.23,4.35,35.11.55,19.18.78,38.37,1.07,57.55.14,9.34.27,18.68.46,28.01,0,.15.73.03.72-.19-.37-18.48-.58-36.95-.89-55.43-.16-9.21-.32-18.42-.56-27.64-.3-11.36-.23-23.06-3.35-34.07-1.73-6.13-3.97-12.13-6.44-18-2.42-5.75-5.09-11.48-8.52-16.7-.13-.19-.8.08-.72.19h0Z"/>
        <path class="cls-1" d="M902.92,614.78c-3.35,4.93-5.98,10.36-8.36,15.81s-4.54,11.09-6.3,16.8c-3.43,11.14-3.38,23.04-3.67,34.59-.51,19.9-.73,39.81-1.01,59.72-.13,9.18-.25,18.37-.44,27.55,0,.36.73.24.73-.06.38-18.38.55-36.76.84-55.13.15-9.64.31-19.28.53-28.92.25-10.72.13-21.69,2.31-32.22,1.42-6.88,4.03-13.57,6.75-20.03,2.61-6.22,5.52-12.44,9.32-18.04.21-.32-.52-.31-.69-.07h0Z"/>
        <path class="cls-1" d="M131.67,614.41c8.99-.3,17.76,4.21,23.34,11.17,4.3,5.37,6.33,12.36,8.09,18.91,4.19,15.63,5.66,31.67,5.66,47.81,0,7.39,0,14.78,0,22.17,0,11.17,0,22.33,0,33.5,0,4.42,0,8.84,0,13.26,0,1.43,0,2.86,0,4.3,0,.77-.1,1.63,0,2.4.01.1,0,.21,0,.3,0,.31.73.16.73-.09,0-5.67,0-11.33,0-17,0-11.24,0-22.47,0-33.71,0-8.15,0-16.29,0-24.44,0-5.05,0-10.09-.31-15.14-.63-10-2.06-19.98-4.39-29.74-1.55-6.51-3.32-13.45-6.69-19.3-4.23-7.34-11.87-12.76-20.18-14.37-1.97-.38-3.96-.53-5.96-.46-.27,0-.77.44-.28.42h0Z"/>
        <path class="cls-19" d="M339.71,608.8c-3.06-7.47-22.61-8.25-22.61-8.25-21.26-1.08-45.3-2.72-66.53-1.18-27.62,2-54.85-.39-67.97,16.37-11.03,14.08-2.55,34.47-1.3,54.55,1.21,19.39,3.68,38.71,7.72,57.72,2.36,11.12.51,26.84,9.18,34.2,6.8,5.77,20.88,5.66,29.8,5.5,53.32-.92,64.46-.92,113.83-2.66,5.66-.2,9.7-5.77,10.45-11.39,6.51-48.96,6.8-97.62-12.57-144.87Z"/>
        <path class="cls-25" d="M340.71,608.85c-1.12-2.63-3.82-4.16-6.34-5.19-3.07-1.26-6.37-1.96-9.65-2.46-6.79-1.03-13.74-1.04-20.58-1.37-12.41-.61-24.84-1.13-37.27-.96-11.64.16-23.27,1.15-34.9,1.73-9.9.5-20.02,1.02-29.62,3.71-8.13,2.28-15.98,6.5-20.74,13.7-5.65,8.54-4.98,19.25-3.67,28.94.76,5.66,1.8,11.28,2.52,16.94.79,6.15,1,12.35,1.51,18.53,1.08,13.02,2.75,25.99,5.1,38.85.97,5.3,2.18,10.54,2.7,15.91.46,4.67.71,9.38,1.57,14,.77,4.1,2.05,8.28,4.77,11.53s6.47,4.82,10.39,5.79c9.55,2.37,19.76,1.51,29.49,1.32,18.43-.37,36.86-.69,55.29-1.18,8.42-.22,16.83-.48,25.25-.77,5.07-.17,10.15-.36,15.22-.55,2.9-.11,5.79-.22,8.69-.33,2.11-.08,4.02-.3,5.88-1.37,3.9-2.25,5.97-6.6,6.56-10.92.84-6.18,1.56-12.38,2.17-18.59,1.2-12.17,1.92-24.39,1.94-36.61.04-24.69-2.88-49.43-10.09-73.09-1.81-5.94-3.88-11.79-6.2-17.54-.09-.22-.8,0-.72.19,9.09,22.59,14.08,46.58,15.68,70.84,1.58,24.07-.04,48.23-3.13,72.12-.34,2.63-.6,5.23-1.7,7.66-1.01,2.22-2.57,4.29-4.66,5.6-2.52,1.58-5.5,1.35-8.35,1.46s-5.49.21-8.23.31c-9.04.34-18.09.65-27.13.92-16.22.49-32.44.81-48.66,1.14-10.57.21-21.16.65-31.74.57-4.71-.04-9.48-.28-14.1-1.3-4.2-.92-8.35-2.57-11.18-5.94s-4-7.5-4.76-11.62c-.83-4.51-1.09-9.1-1.52-13.66-.49-5.11-1.61-10.08-2.54-15.12-1.16-6.26-2.16-12.55-3.01-18.86s-1.54-12.65-2.1-19-.73-12.24-1.42-18.32c-1.21-10.7-4.03-21.4-3.66-32.23.17-4.82,1.12-9.66,3.46-13.92,2.19-3.98,5.49-7.32,9.26-9.83,7.79-5.19,17.4-6.9,26.54-7.87,10.71-1.14,21.51-1.23,32.25-1.98,11.9-.84,23.77-.96,35.69-.61,10.92.32,21.84.91,32.75,1.47,5.23.27,10.67,1.02,15.57,2.92,2.62,1.01,5.51,2.53,6.67,5.25.09.22.8,0,.72-.19Z"/>
        <path class="cls-25" d="M246.55,713.9c22.4,1.34,44.89-8.65,59.54-25.53,4.18-4.82,7.69-10.2,10.39-15.98.07-.14-.62-.08-.72.12-9.33,19.98-28.45,34.74-49.89,39.54-6.18,1.38-12.54,1.91-18.86,1.53-.18-.01-.83.3-.46.33h0Z"/>
        <path class="cls-25" d="M207.52,767.67c-.36-21.5-.73-42.99-1.09-64.49-.18-10.56-.18-21.17-1.3-31.69-.95-8.96-2.8-17.85-5.79-26.35-3.34-9.51-8.13-18.5-14.57-26.28-.19-.23-.88.04-.67.31,11.54,13.93,17.59,31.55,19.92,49.31,1.37,10.44,1.44,21,1.62,31.51s.36,21.16.54,31.74l.61,35.99c0,.35.74.22.73-.07h0Z"/>
        <g>
          <path class="cls-24" d="M921.76,611.78s-29.85,5.33-34.91,42.86c-2.98,22.08-3.12,101.09-3.12,101.09h46.33s-3.32-95,7.69-118.24c11.01-23.23,41.13-26.21,41.13-26.21l-57.13.5Z"/>
          <path class="cls-82" d="M921.81,611.58c-5.87,1.06-11.64,4.24-16.32,7.81-11.44,8.72-17.42,22.27-19.13,36.3-1.4,11.46-1.63,23.1-1.99,34.63-.43,13.93-.67,27.87-.83,41.81-.06,5.15-.1,10.31-.14,15.46-.01,1.72-.02,3.44-.03,5.16,0,.88-.12,1.85,0,2.72.01.11,0,.24,0,.35,0,.09.17.1.22.1h46.33c.17,0,.51-.08.5-.3-.2-5.86-.3-11.73-.38-17.6-.17-13.26-.12-26.52.27-39.77.41-13.82,1.07-27.72,3.02-41.42.73-5.16,1.62-10.37,3.22-15.34,2.05-6.42,6.01-12.08,11.03-16.55,8.34-7.41,19.63-11.96,30.66-13.4.2-.03.4-.05.59-.07.24-.02.65-.4.19-.4-6.45.06-12.9.11-19.34.17-10.23.09-20.46.18-30.7.27-2.36.02-4.72.04-7.09.06-.27,0-.77.41-.28.4,6.45-.06,12.9-.11,19.34-.17l30.7-.27c2.36-.02,4.72-.04,7.09-.06l.19-.4c-2.91.29-5.82.97-8.64,1.74-6.26,1.7-12.34,4.24-17.77,7.81-6.49,4.25-11.99,10.06-15.25,17.16-1.93,4.21-2.91,8.87-3.74,13.41-2.45,13.42-3.19,27.18-3.72,40.8s-.66,27.67-.54,41.51c.04,4.92.12,9.85.23,14.77.04,1.57.07,3.15.12,4.72.02.75-.13,1.78.08,2.51.03.09,0,.22.01.32l.5-.3c-4.61,0-9.21,0-13.82,0h-31.34c-.25,0-.94.13-1.17,0,.36.21.22-.23.22-.53.01-4.52.04-9.04.08-13.56.07-8.4.17-16.8.31-25.19.16-9.66.38-19.31.7-28.97.28-8.3.6-16.61,1.24-24.9.7-9.03,2.13-17.98,6.13-26.2,3.69-7.59,9.33-14.16,16.45-18.73,3.71-2.38,7.83-4.34,12.13-5.35.2-.05.54-.12.57-.12.34-.06.6-.48.1-.39Z"/>
        </g>
        <path class="cls-82" d="M899,739.96c5.47-7.7,13.77-13.27,17.32-22.3s2.45-19.65,2.53-29.43c.05-6.35.78-12.65,2.21-18.83.08-.36-.66-.28-.73.05-1.25,5.4-1.99,10.91-2.17,16.45-.16,4.98.1,9.95.05,14.93s-.39,10.01-1.9,14.77c-1.48,4.68-4.17,8.64-7.41,12.27-3.52,3.95-7.44,7.53-10.52,11.86-.27.38.41.5.61.22h0Z"/>
        <path class="cls-82" d="M887.01,755.39v4.65c0,.09.72,0,.72-.19v-4.65c0-.09-.72,0-.72.19h0Z"/>
        <path class="cls-82" d="M890.56,756.14c0,1.09,0,2.19,0,3.28,0,.18.18.23.33.22.13-.01.4-.11.4-.28,0-1.09,0-2.19,0-3.28,0-.18-.18-.23-.33-.22-.13.01-.4.11-.4.28h0Z"/>
        <path class="cls-82" d="M895.2,756.48c0,.91,0,1.82,0,2.73,0,.19.72.06.72-.19,0-.91,0-1.82,0-2.73,0-.19-.72-.06-.72.19h0Z"/>
        <path class="cls-82" d="M899.03,756.42c0,.82,0,1.64,0,2.46,0,.17.18.23.33.21.13-.02.4-.1.4-.28,0-.82,0-1.64,0-2.46,0-.17-.18-.23-.33-.21-.13.02-.4.1-.4.28h0Z"/>
        <path class="cls-82" d="M902.54,756.16c.03,1.22.07,2.43.1,3.65,0,.24.73.09.72-.19-.03-1.22-.07-2.43-.1-3.65,0-.24-.73-.09-.72.19h0Z"/>
        <path class="cls-82" d="M906.79,756.09c0,1.02,0,2.04,0,3.06,0,.17.18.23.33.21.13-.01.4-.11.4-.28,0-1.02,0-2.04,0-3.06,0-.17-.18-.23-.33-.21-.13.01-.4.11-.4.28h0Z"/>
        <path class="cls-82" d="M883.62,756.1v3.29c0,.16.19.18.31.16.11-.01.41-.1.41-.25,0-1.1,0-2.2,0-3.29,0-.16-.19-.18-.31-.16-.11.01-.41.1-.41.25h0Z"/>
        <path class="cls-82" d="M910.55,755.97c0,1.1,0,2.2,0,3.29,0,.18.18.24.33.23.13-.01.4-.11.4-.29,0-1.1,0-2.2,0-3.29,0-.18-.18-.24-.33-.23-.13.01-.4.11-.4.29h0Z"/>
        <path class="cls-82" d="M914.44,755.85l.12,3.18c0,.18.17.24.33.23.13-.01.41-.11.4-.29l-.12-3.18c0-.18-.17-.24-.33-.23-.13.01-.41.11-.4.29h0Z"/>
        <path class="cls-74" d="M466.17,678.1c-1.73-4.21-12.75-4.65-12.75-4.65-11.99-.61-124.96-1.53-136.93-.67-15.58,1.13-30.94-.22-38.34,9.23-6.22,7.94-1.44,19.44-.73,30.77.68,10.94,2.08,21.83,4.35,32.55,1.33,6.27.29,15.14,5.17,19.29,3.84,3.26,11.78,3.19,16.81,3.1,30.07-.52,135.77-.52,163.62-1.5,3.19-.11,5.47-3.25,5.89-6.42,3.67-27.62,3.84-55.06-7.09-81.71Z"/>
        <path class="cls-10" d="M466.53,678c-1.46-3.28-6.57-4.01-9.68-4.44-1.59-.22-3.18-.32-4.77-.38-4.36-.15-8.72-.21-13.07-.28-15.58-.25-31.16-.39-46.74-.5-16.77-.12-33.55-.21-50.32-.18-5.97.01-11.94.03-17.91.12-5.57.09-11.11.47-16.67.71-10.07.45-23.95.35-30.22,9.87-3.34,5.07-2.68,11.48-1.84,17.18.53,3.54,1.2,7.06,1.56,10.62.38,3.76.54,7.54.92,11.31.77,7.7,1.94,15.35,3.51,22.92,1.12,5.4.48,11.45,2.88,16.54,2.27,4.83,7.49,5.95,12.37,6.32,3.75.28,7.53.11,11.29.06,16.06-.21,32.12-.27,48.17-.35,20.2-.11,40.41-.2,60.61-.36,15.54-.12,31.09-.2,46.63-.61,1.23-.03,2.47-.06,3.7-.11,2.2-.09,4.03-1.14,5.26-2.97,1.78-2.65,1.74-6.2,2.09-9.26.42-3.69.78-7.38,1.04-11.08,1.04-14.68.64-29.53-2.37-43.98-1.5-7.23-3.66-14.31-6.45-21.15-.1-.25-.82-.03-.72.19,5.58,13.69,8.46,28.27,9.16,43.01.35,7.34.18,14.69-.34,22.01-.26,3.7-.62,7.4-1.04,11.08-.36,3.13-.3,6.81-2.24,9.44-1.05,1.42-2.46,2.22-4.24,2.29-.57.02-1.13.04-1.7.05-1.29.04-2.58.07-3.87.1-3.08.07-6.16.13-9.24.18-7.91.13-15.82.21-23.73.28-19.45.18-38.9.28-58.34.38-17.44.09-34.88.16-52.32.32-6.63.06-13.36.46-19.98.11-2.81-.15-5.75-.47-8.36-1.61s-4.21-3.16-5.13-5.74-1.2-5.4-1.45-8.13-.58-5.45-1.13-8.17c-1.55-7.58-2.67-15.24-3.41-22.94-.34-3.59-.48-7.19-.87-10.78-.37-3.42-1.01-6.79-1.52-10.19-.89-6.01-1.53-12.79,2.45-17.89,3.53-4.53,9.15-6.46,14.63-7.37,6.34-1.06,12.81-1.09,19.21-1.42,2.32-.12,4.63-.31,6.96-.38,4.68-.14,9.37-.16,14.06-.19,15.5-.09,31-.02,46.5.07,16.34.09,32.67.23,49.01.44,5.77.07,11.54.15,17.31.27,3.2.07,6.44.04,9.62.42,1.93.23,3.88.58,5.72,1.21,1.66.57,3.57,1.42,4.32,3.11.11.25.82.03.72-.19Z"/>
        <path class="cls-10" d="M285.73,676.47c1.38,2.14,2.54,4.45,3.64,6.74,2.77,5.77,4.99,11.81,6.68,17.98,4.67,17.13,4.57,35.26,2.73,52.8-.45,4.29-.97,8.6-1.78,12.84-.06.31.68.2.73-.08,2.23-11.7,3.04-23.85,2.9-35.73-.19-16.1-3.1-31.89-9.85-46.57-1.3-2.82-2.69-5.67-4.38-8.29-.15-.23-.85.02-.67.3h0Z"/>
        <path class="cls-10" d="M298.42,706.84c8.16.25,16.31.49,24.47.73,15.16.45,30.33.9,45.49,1.33,12.36.35,24.68.47,37.05.2,14.42-.31,28.84-.84,43.25-1.45,8.23-.34,16.5-.51,24.72-1.13.13,0,.26-.01.39-.02.39-.02.58-.49.08-.47-6.84.35-13.69.66-20.53.95-14.13.61-28.26,1.15-42.4,1.51-12.53.32-25.04.41-37.57.06-15.04-.42-30.08-.87-45.11-1.32-9.69-.29-19.39-.61-29.08-.87-.16,0-.32,0-.48-.01-.31,0-.75.46-.27.47h0Z"/>
        <path class="cls-10" d="M295.63,696.65c8.16.25,16.31.49,24.47.73,15.16.45,30.33.9,45.49,1.33,12.36.35,24.68.47,37.05.2,14.42-.31,28.84-.84,43.25-1.45,8.23-.34,16.5-.51,24.72-1.13.13,0,.26-.01.39-.02.39-.02.58-.49.08-.47-6.84.35-13.69.66-20.53.95-14.13.61-28.26,1.15-42.4,1.51-12.53.32-25.04.41-37.57.06-15.04-.42-30.08-.87-45.11-1.32-9.69-.29-19.39-.61-29.08-.87-.16,0-.32,0-.48-.01-.31,0-.75.46-.27.47h0Z"/>
        <path class="cls-10" d="M300.02,716.93c8.16.25,16.31.49,24.47.73,15.16.45,30.33.9,45.49,1.33,12.43.35,24.82.47,37.25.2,14.41-.32,28.82-.85,43.22-1.45,8.17-.34,16.36-.58,24.53-1.12.13,0,.26-.01.39-.02.19,0,.79-.3.32-.28-6.9.35-13.8.66-20.71.96-14.15.61-28.3,1.15-42.45,1.51-12.46.32-24.9.4-37.36.05-15.04-.42-30.08-.87-45.11-1.32-9.69-.29-19.39-.62-29.08-.87-.16,0-.32,0-.48-.01-.15,0-.82.27-.47.28h0Z"/>
        <path class="cls-10" d="M299.69,728.28c8.16.25,16.31.49,24.47.73,15.16.45,30.33.9,45.49,1.33,12.36.35,24.67.47,37.03.2,14.42-.31,28.84-.84,43.25-1.45,8.24-.35,16.49-.6,24.72-1.13.13,0,.26-.01.39-.02.21-.01.78-.34.31-.32-6.84.35-13.69.66-20.53.95-14.13.61-28.26,1.15-42.4,1.51-12.54.32-25.05.41-37.58.06-15.04-.42-30.08-.87-45.11-1.32-9.69-.29-19.39-.59-29.08-.87-.16,0-.32,0-.48-.01-.17,0-.83.31-.46.32h0Z"/>
        <path class="cls-10" d="M300.02,740.22c8.16.25,16.31.49,24.47.73,15.16.45,30.33.9,45.49,1.33,12.36.35,24.67.47,37.03.2,14.42-.31,28.84-.84,43.25-1.45,8.24-.35,16.49-.6,24.72-1.13.13,0,.26-.01.39-.02.21-.01.78-.34.31-.32-6.84.35-13.69.66-20.53.95-14.13.61-28.26,1.15-42.4,1.51-12.54.32-25.05.41-37.58.06-15.04-.42-30.08-.87-45.11-1.32-9.69-.29-19.39-.59-29.08-.87-.16,0-.32,0-.48-.01-.17,0-.83.31-.46.32h0Z"/>
        <path class="cls-58" d="M559.99,542.27c1.72.72,31.26,17.62,31.26,17.62l-1.03,12.39-6.33,10.38c-2.84,4.66-8.25,7.12-13.63,6.19l-12.07-2.09c-1.88,2.21-7.13-.81-7.13-.81,5.5,3.33,1.55,9.14,1.55,9.14l-5.84-1.72-2.65.81-7.69-4.05-4.87-7.39,1.03-8.64,8.61-4.76.19-.93-8.89,2.49c-.78,3.89-1.94,7.7-3.47,11.36-.13.45-.34.87-.61,1.25-1.37,1.92-4.04,2.36-5.96.99l-1.33-13.59-2.39-.83,3.04-16.23,6.87-7.69c.99-1.1,2.36-1.8,3.83-1.96,5.72-.66,20.1-2.22,20.42-2.12,2.37-.28,4.76-.22,7.11.17Z"/>
        <path class="cls-45" d="M541.62,568.69c.81,1.63,1.86,3.07,2.36,4.84.42,1.47.47,2.93.45,4.45.01.03.03.04.07.05,1.8.71,3.39,1.83,4.48,3.46.63.93,1.01,1.93,1.31,3.01.07.25.18,1.39.53,1.45.17.03.8-.25.59-.29-.18-.03-.46-1.59-.5-1.74-.28-.94-.65-1.81-1.2-2.63-.96-1.41-2.28-2.51-3.83-3.22-.14-.07-.32-.11-.45-.2-.3-.2-.25-.05-.27-.45-.05-.99,0-1.93-.18-2.91-.19-1.03-.51-2.04-.95-3-.49-1.04-1.17-1.98-1.68-3.01-.09-.18-.79.07-.72.19h0Z"/>
        <path class="cls-45" d="M545.67,593.69c.21.22.82-.16.99-.29.67-.5,1.05-1.34,1.23-2.13.69-3.09-.97-5.97-3.23-7.96-.61-.54-1.27-1.03-1.92-1.51-.46-.33-.67-.49-.75-1.07-.04-.33-.02-.67-.07-1-.18-1.15-.73-2.17-1.57-2.96-.89-.83-2.07-1.43-3.29-1.56-.37-.04-1.21-.1-1.43.31-.05.09.61.06.71-.13-.1.18.08.08.39.13.2.03.41.09.6.15.6.18,1.14.44,1.65.79.77.54,1.42,1.25,1.81,2.11.35.78.48,1.63.46,2.48-.02.6.31.64.79.99s.98.73,1.46,1.12c1.73,1.4,3.3,3.34,3.7,5.58.19,1.08.15,2.3-.25,3.34-.12.3-.26.58-.45.84-.05.07-.3.3-.35.39-.19.43-.27-.33.18.13-.13-.13-.79.13-.68.25h0Z"/>
        <path class="cls-45" d="M545.16,577.85c-.1-.08-.25-.06-.36-.05-.22.02-.43.09-.63.18-.39.18-.73.44-1.06.71-.43.37-.83.78-1.21,1.2-.26.29-.52.61-.68.97-.09.2-.15.45.03.62.09.08.37-.02.46-.05.05-.02.31-.11.22-.19-.16-.15-.05-.41.03-.57.2-.41.51-.76.81-1.1.4-.44.83-.85,1.3-1.21.16-.12.32-.23.49-.32-.02,0,0,0,.02,0,.04-.02.04-.02,0,0,.03-.01.04-.01,0,0-.02,0-.05.01-.07.02-.03,0-.05,0-.08.01-.03,0-.03,0,0,0,0,0,0,0,.03.02.1.08.36-.02.46-.05.04-.02.31-.11.22-.19h0Z"/>
        <path class="cls-45" d="M551.22,586.17c.66-.25-.19-1.05-.41-1.28-.8-.83-1.71-1.6-2.67-2.25-.87-.59-1.94-.89-2.99-.73-.46.07-1.42.28-1.53.86-.07.36.67.27.73-.05-.01.08-.03.03.05-.02s.14-.08.22-.12c.24-.1.5-.15.76-.17.9-.07,1.71.29,2.42.81s1.43,1.1,2.08,1.73c.21.21.42.42.61.65.07.08.12.17.19.26,0,.01.05.07.04.06v.03c.03.11.08.04.17-.21-.14.05-.27.23-.17.38.11.16.35.11.49.06h0Z"/>
        <path class="cls-45" d="M556.56,585.79c1.25-3.57,1.31-6.99.88-10.7-.42-3.53-1.47-6.76-3.48-9.72-.12-.18-.79.1-.72.19,1.9,2.8,3.1,6.01,3.45,9.38.18,1.77.44,3.48.33,5.27-.11,1.95-.52,3.86-1.17,5.7-.05.15.65.07.72-.12h0Z"/>
        <path class="cls-45" d="M535.98,567.81c.32.25.81.05,1.09-.16.42-.31.72-.75.92-1.22.25-.58.37-1.26.28-1.89-.05-.37-.21-.84-.66-.84-.16,0-.39.05-.48.2s.07.22.2.22c.07,0-.04,0-.04,0,0,0,.02.02.03.02.03.05.07.08.1.14.08.15.11.32.13.49.07.49-.01,1.01-.17,1.48-.13.37-.32.74-.59,1.03-.1.11-.19.19-.31.25.05-.03,0,0-.02,0,.09-.02-.03-.01.08-.02.05,0,.08,0,.11.02-.13-.11-.33-.08-.48-.01-.07.03-.32.19-.19.3h0Z"/>
        <path class="cls-81" d="M814.73,768.3c-23.55.5-27.51-.5-43.69-1.25-21.63-1-37.4-14.98-58.3-20.62-10.54-2.85-24.27,12.39-34.45,8.45-9.17-3.54-18.06-7.75-27.13-11.53-8.12-3.39-16.38-6.68-24.48-10.31,11.58-17.7,23.58-35.21,33.73-52.75l47.07-51.33c5.09,13.25,10.05-38.67,13.74-41.53.09.18.27.38.62.62,10.79,7.26,22.38,13.41,34.2,18.65,24.45,10.84,49.72,17.75,74.48,23.45,9.8,2.25,20.33-53.37,30.11-51.37l8.22,44.7s23.32,43.07,10.75,96.63c-4.7,20.03-18.39,41.08-37.51,47.79-2.57.9-24.8.34-27.35.4Z"/>
        <path class="cls-81" d="M719.46,568.25c-.02,5.67-6.35,36.37-7.79,41.72,5.39,1.62-.08-4.48,5.53-3.59,24.5,3.91,49.67,1.1,73.67-4.09,20.53-4.44,40.47-10.73,60.31-17.2l3.73-14.53,5.1-146.55-17.12-22.54-26.34,5.24-3.41,8.02c-7.4,8.07-10.12,3.88-21.95,6.01-7.39,1.33,3.73-7.3-.05-7.66-13.72-1.29-40.03.15-38.73-3.64,1.09-3.2-18.91-4.04-20.4-3.57-10.09,3.16-4.15,16.03-12.51,19.15,0,0-13.81,10.69-15.07,37.61"/>
        <path class="cls-81" d="M658.29,571.52c-6.31-8.63,25.99-9.77,17.4-16.55,13.33-24.68,19.59-119.48,33.82-134.13,15.79-16.25,40.78-14.03,43.98-13.68,0,0,9.86,62.56-7.02,103.98-9.63,23.64-25.33,55.49-43.97,72.65-5.66,5.21-11.77,4.37-18.75.88-9.41-4.7-23.04-9.84-25.47-13.16Z"/>
        <path class="cls-65" d="M859.93,419.06c-9.49,1.5-15.72,11.74-18.2,20.25-1.92,6.6-1.89,13.83-1.77,20.65.33,19.69,3.15,39.38,6.11,58.82,1.47,9.69,3.09,19.36,4.71,29.03.12.71,2.43.17,2.29-.61-3.01-17.9-5.96-35.82-8.13-53.85-1.14-9.46-2.09-18.96-2.51-28.48-.33-7.39-.5-14.97.78-22.28.74-4.23,2.3-8.26,4.47-11.95,2.58-4.4,6.54-9.55,11.92-10.4.34-.05,1.29-.28,1.31-.74s-.63-.48-.97-.43h0Z"/>
        <path class="cls-65" d="M847.97,546.93c5.33,2.35,9.5,6.92,12.57,11.77,3.09,4.9,5.46,10.78,5.39,16.66-.01.99,2.29.53,2.3-.27.07-6.04-2.22-11.92-5.37-16.99s-7.52-9.86-13.07-12.31c-.49-.22-1.19-.11-1.63.2-.28.2-.71.71-.19.94h0Z"/>
        <path class="cls-58" d="M585.21,559.18l83.13-3.89s8.13,32.59,3.7,36.84c-4.43,4.25-91.51-10.2-91.51-10.2l4.68-22.75Z"/>
        <path class="cls-81" d="M586.34,555.85l99.18-8.64,12.67-53.5,47.23,40.63s-7.7,45.9-33.14,58.95c-18.71,9.6-112.3-2.33-128.26-3.27,2.51-11.01,3.61-18.26,2.33-34.17Z"/>
        <line class="cls-67" x1="735.38" y1="499.5" x2="735.38" y2="500.5"/>
        <path class="cls-21" d="M549.06,552.52c0-1.84-.49-3.65-1.42-5.25-1.53-1.78-3.7-2.91-6.04-3.14-2.71-.45-5.47-.5-8.21-.2,0-4.05-.02-6.81-.02-6.81l-53.02.13.08,39.69c-.06,13.33,53.64,13.13,53.02-.13,0-.19,0-2.68-.01-6.3,2.56,0,5.11-.47,7.51-1.39,3.04-1.17,5.54-3.41,7.02-6.31,1.23-3.28,1.6-6.83,1.07-10.29ZM542.15,561.48c-1.32,1.38-3.05,2.3-4.94,2.6-1.25.21-2.51.32-3.77.34-.01-5.21-.02-11.2-.03-16.25,1.7-.55,3.48-.83,5.27-.83,1.72-.15,3.42.49,4.6,1.75.66,1.05,1,2.27.98,3.51.49,3.12-.27,6.31-2.11,8.87Z"/>
        <path class="cls-68" d="M510.73,469.69c-.78-.06-1.49-.48-1.91-1.14-.84-.94-.84-2.37.01-3.3,1.27-1.08,3.11-1.18,4.49-.25,1.62,1.23,2.37,3.3,1.89,5.28-.54,2.32-1.7,4.44-3.37,6.14-1.95,1.96-3.54,4.24-4.69,6.75-1.1,2.95-.49,6.26,1.59,8.62,2.06,2.39,4.64,3.86,6.55,5.78.92.91,1.55,2.08,1.81,3.35.22,1.21.02,2.46-.57,3.55-1.22,2.04-2.92,3.75-4.95,4.98-1.84,1.14-3.5,2.55-4.93,4.18-1.99,2.48-3.06,5.57-3.01,8.75,0,.85.1,1.69.3,2.51.05.29.15.58.28.85-.13-1.11-.19-2.24-.2-3.36.11-3.04,1.22-5.97,3.16-8.31,1.44-1.53,3.08-2.86,4.87-3.95,2.18-1.28,4-3.08,5.3-5.25.68-1.26.92-2.71.69-4.12-.28-1.46-.99-2.8-2.04-3.85-2.02-2.16-4.59-3.61-6.5-5.78-1.87-2.09-2.42-5.06-1.42-7.68,1.1-2.41,2.6-4.61,4.44-6.5,1.76-1.83,2.97-4.12,3.5-6.6.48-2.29-.43-4.65-2.33-6.02-1.65-1.06-3.82-.87-5.26.47-.57.57-.84,1.38-.72,2.18.09.64.36,1.25.78,1.75.54.73,1.4,1.14,2.3,1.1.3-.03.59-.15.83-.34-.04-.1-.29.11-.9.19Z"/>
        <path class="cls-68" d="M509.83,525.45c-.1-1.97.39-3.92,1.43-5.6,1.6-2.45,3.66-4.57,6.07-6.25,3.11-2.09,5.6-4.98,7.19-8.37.77-1.87.84-3.95.2-5.87-.68-1.7-1.74-3.23-3.11-4.45-2.48-2.33-4.89-4.15-5.98-6.4-.9-1.73-.89-3.79.02-5.51.39-.6.88-1.13,1.45-1.57-.02-.04-.21.02-.56.21-.49.28-.9.67-1.21,1.15-1.12,1.83-1.22,4.1-.28,6.02,1.08,2.48,3.61,4.47,5.95,6.74,1.25,1.14,2.22,2.55,2.84,4.12.55,1.7.47,3.55-.22,5.2-1.56,3.23-3.95,5.99-6.92,8.01-2.46,1.78-4.54,4.03-6.11,6.63-1.03,1.81-1.44,3.9-1.18,5.96.1.55.26,1.09.49,1.59.19.35.32.48.32.48.1-.04-.3-.73-.41-2.11Z"/>
        <path class="cls-77" d="M676.81,547.33c1.34-.22,3.06.02,4.45.36,3.69.91,6.91,3.14,9.41,5.97,2.28,2.58,3.97,5.62,5.31,8.78.08.2.79-.03.72-.19-3.18-7.5-9.25-15.08-18.08-15.31-.56-.01-1.14-.01-1.69.08-.31.05-.63.39-.12.31h0Z"/>
        <path class="cls-81" d="M722.43,563.89l128.31-7.77,1.16,24.72,19.71,56.4s5.2,5.55-53.83,12.91c-59.03,7.36-122.47-10.57-122.47-10.57-1.44-20.96,19.8-70.29,19.8-70.29,0,0-1.44-28.32-3.44-35.47-2-7.15-5.7-3.65-7.16-14.59-1.46-10.94.67-26.72.67-26.72l16.84-1.58.42,72.97Z"/>
        <path class="cls-77" d="M707.45,450.2c1.06,1.87,1.71,4.04,2.16,6.12.59,2.73.89,5.65.34,8.41-.82,4.08-2.18,8.06-3.22,12.08-3.11,11.94-5.24,24.88-2.01,37.03.85,3.19,2.08,6.28,3.72,9.14.86,1.5,1.83,2.94,2.9,4.3.71.91,1.93,1.99,2.42,2.79.66,1.06.99,2.51,1.34,3.69.81,2.72,1.35,5.52,1.65,8.34.44,4.08.37,8.21-.15,12.28-.28,2.22-.61,4.49-1.31,6.62-1.09,3.35-2.18,6.7-3.26,10.05-2.6,8-5.2,16-7.8,24l-.16.49c-.13.4.59.4.69.09,2.29-7.06,4.59-14.13,6.88-21.19,1.3-4.01,2.6-8.01,3.91-12.02,1.54-4.74,2.19-9.72,2.21-14.7.02-5.56-.76-11.26-2.73-16.49-.16-.43-.31-.92-.54-1.32-.48-.84-1.34-1.53-1.96-2.28-2.27-2.75-4.12-5.84-5.47-9.13-5.01-12.2-3.39-26.03-.41-38.52,1.09-4.56,2.49-9.04,3.63-13.59,1.26-5.02.56-10.37-1.5-15.1-.21-.47-.42-.95-.68-1.4-.16-.29-.85-.01-.66.32h0Z"/>
        <g>
          <path class="cls-71" d="M841.74,556.12s-25.79,8.81-55.98,11.3c-30.19,2.49-69.88-7.14-69.88-7.14l-6.57,20.66s22.08,7.64,65.77,7.98,71.72-10.54,71.72-10.54c0,0-5.18-10.09-5.57-13.58-.39-3.49.52-8.67.52-8.67Z"/>
          <path class="cls-76" d="M841.69,555.93c-4.45,1.52-9.01,2.76-13.55,3.93-10.97,2.84-22.13,5.03-33.38,6.42s-22.78,1.61-34.26.73c-9.88-.76-19.72-2.13-29.47-3.88-4.99-.9-9.99-1.86-14.92-3.05-.19-.05-.52.04-.58.25-1.92,6.02-3.83,12.05-5.75,18.07-.27.86-.55,1.73-.82,2.59-.03.1.08.14.14.17,3.38,1.17,6.92,1.94,10.41,2.68,10.08,2.14,20.34,3.44,30.61,4.26,15.55,1.24,31.24,1.51,46.8.28,11.78-.93,23.52-2.67,35.01-5.43,3.45-.83,6.87-1.74,10.25-2.79,1.48-.46,3.18-.82,4.57-1.53.06-.03.13-.05.19-.07.07-.03.27-.15.22-.26-1.59-3.11-3.1-6.29-4.37-9.55-.84-2.16-1.34-4.11-1.29-6.45.04-2.07.26-4.16.61-6.21.05-.3-.68-.18-.73.08-.36,2.1-.59,4.26-.61,6.39s.42,4.08,1.2,6.12c1.28,3.35,2.83,6.61,4.46,9.8l.22-.26c-5.84,2.26-12.06,3.75-18.16,5.1-16.06,3.55-32.54,5.24-48.98,5.39s-33.87-.88-50.53-3.6c-4.51-.74-9.01-1.6-13.45-2.69-1.93-.47-3.84-1.19-5.78-1.6-.35-.07-.06-.12-.08.08.03-.34.23-.74.34-1.05l1.8-5.67c1.39-4.36,2.77-8.72,4.16-13.08l.27-.85-.58.25c13.34,3.23,27.06,5.36,40.71,6.63,11.12,1.04,22.26,1.28,33.39.15,11.75-1.19,23.41-3.31,34.88-6.11,5.76-1.41,11.54-2.92,17.16-4.84.42-.14.33-.54-.11-.39Z"/>
        </g>
        <path class="cls-44" d="M758.3,392.66s7.13-1.39,11.12-1.98c3.99-.59,10.58.37,30.18-12.21,0,0-7.42,17.34-30.63,18.63,0,0-6.97.65-10.73-.67l.06-3.76Z"/>
        <path class="cls-24" d="M728.89,287.65c-3.82,10.36-4.41,22.29-4.59,37.07-.57,22.79,3.41,45.47,11.72,66.7l20.7,14.44,6.01-9.73c-14.65-18.11-26.86-26.5-27.53-49.8-.15-5.36-4.08-31.95-3.96-32.67,2.49-14.16,1.02-10.47,9.95-17.65,7.29-5.82,29.13-2.11,36.08-.29,6.13,1.59,14.31.4,22.31,14.33,5.28,9.31,7.9,5.03,10.31,21.26l7-60.03-38.22-8.8-26.09,5.13c-10.87,2.06-19.86,9.66-23.7,20.04Z"/>
        <path class="cls-58" d="M729.8,330.96c-.13-3.35-.88-12.1-.89-19.85h0c.02-7.49,5.52-13.82,11.64-18.29l1.15-.71c.06-.04,1.78-.69,1.85-.71,13.1-3.96,22.81-4.64,35.59,1.06,6.24,2.78,13.99,5.4,18.35,10.59,4.54,5.39,8.77,17.94,14.31,22.55.72-6-5.7-17.53-5.61-22.96-.02.89-.04,1.44-.04,1.44,6.74,5.84,9.09,17.43,8.75,21.39-.33,3.97.54,12.58.54,12.58,1.15-1.43,3.68-4.51,4.4-6.16.71-1.45,1.53-2.77,2.24-4.22,2.09-3.29,5.3-2.7,7.68-.54l.39.7c5.62,6.04-3.37,20.81-6.02,25.1.23,2.06-4.75,12.79-11.64,5.37l-1.85,6.33-11.23,14.02c-9.05,8.85-22.52,15.28-36.3,14.66-9.35-.42-10.04-.85-13.33-4.25-4.99-5.16-10.27-10.43-13.9-16.42-3.48-5.75-4.98-9.3-6.38-15.9-1.45-6.82-1.37-8.6-.41-15.33.43-3.01.81-7.57.69-10.47Z"/>
        <path class="cls-18" d="M817.79,357.37c2,.28,3.64,1.8,3.84,3.85.16,1.66-.73,3.43-2.31,4.04-1.44.56-2.97.38-4.22-.52-.1-.07-.44.08-.29.18,1.69,1.21,4.4,1.24,5.92-.31s1.71-3.92.43-5.66c-.75-1.02-1.91-1.63-3.15-1.8-.12-.02-.43.18-.22.21h0Z"/>
        <path class="cls-16" d="M804.34,301.8l2.81,7.55c3.26,8.75,5.23,17.96,5.87,27.32l.18,2.67c.05.77,1.01,1.04,1.44.41l5.29-7.85s1.96-28.76-15.59-30.1Z"/>
        <path class="cls-72" d="M821.7,338.36c1.66.81,2.06,2.97,2.2,4.64s-.09,3.19-.86,4.75c-.48.98-1.17,2.04-2.13,2.61-.87.51-1.58-.03-1.77-.95-.29-1.44.75-2.89,1.22-4.18.37-1.03.33-1.96-.87-2.27-.12-.03-1.04-.12-.95,0-.01-.02.13-.26.14-.28.22-.49.48-.97.72-1.45.82-1.61,1.68-3.19,2.63-4.72.82-1.32,1.78-3.04,3.18-3.84,3.24-1.85,3.89,3.01,3.69,5.06s-.99,4.27-2.2,6.01c-.11.15.26.15.34.03,1.13-1.64,1.89-3.67,2.17-5.64.25-1.8.29-5.12-1.82-5.93-1.49-.58-2.91.54-3.81,1.61-1.32,1.56-2.36,3.38-3.34,5.17-.72,1.3-1.4,2.62-2.03,3.97-.04.08.03.13.11.13.84.04,1.96.17,1.92,1.23-.03.75-.46,1.49-.75,2.16-.53,1.2-1.34,3.07-.08,4.13,1.17.98,2.73-.83,3.32-1.67,1.1-1.58,1.66-3.45,1.58-5.36s-.42-4.46-2.32-5.39c-.13-.06-.45.11-.28.2h0Z"/>
        <path class="cls-16" d="M765.24,316.85c-.02-.13.5-.78.49-.91,8.72-2.03,17.1-2.11,19.56-1.86,1.87.19,3.7.68,5.43,1.39,0,0,5.43,3.53,6.04,4.34.61.81-2.89-.29-2.89-.29-.75-.14-1.26-.34-2.02-.4-4.18-.35-7.36-1.2-11.53-.58-3.57.51-11.31,1.74-14.71,2.95-.17-1.36-.08-3.3-.37-4.64Z"/>
        <path class="cls-16" d="M729.04,315.15c.26-.03,4.02-.66,4.29-.67,2.43-.15,5.71.27,14.07,2.46-.15,1.51.35,3.45.21,4.96-3.37-1.34-6.78-2.27-10.36-2.92-2.39-.43-5.37-.13-8.2-.32v-3.5Z"/>
        <path class="cls-78" d="M757.23,362.69c5.92-.01,16.07-.99,16.07-.99,0,0-2.27,13.42-15.99,13.45-13.72.02-12.4-12.75-12.4-12.75,0,0,6.4.31,12.32.3Z"/>
        <path class="cls-83" d="M757.17,362.69c2.81,0,13.36-.09,13.36-.09,0,0-2.88,6.1-13.06,6.12-11.04.02-10.69-5.98-10.69-5.98l10.39-.06Z"/>
        <path class="cls-43" d="M757.05,363.12c2.81,0,11.38-.5,11.38-.5,0,0-3.08,3.14-11.52,3.15-8.44.01-11.13-3.03-11.13-3.03l11.27.37Z"/>
        <path class="cls-78" d="M744.34,361.97c.29-.07.96.14,2.24-.08,2.33-.4,2.39-1.26,4.02-1.39,2.8-.23,4.58.93,5.79.93,1.22,0,2.99-1.16,5.79-.93,1.64.13,4.16.7,6.43.9,1.36.12,4.67-.42,4.96-.34.4.1-.56,3.25-15.86,3.25-15.29,0-13.78-2.24-13.38-2.34Z"/>
        <path class="cls-24" d="M722.53,410.9s.41-10.46,17.17-24.92l-.56-5.92s3.86,15.72,26.65,12.33c18.85-2.82,30.39-16.22,36.15-30.3,9.92-24.29,4.66-63.09-6.65-81.92-10.59-17.65-62.41,15-63.08,1.61,0,0,19.39-34.78,57.84-32.22,22.33,1.46,37.11,9.49,49.68,41.79,3.84,10.64,2.88,16.25,5.29,27.4,1.98,10.21,2.25,28.8.48,41.96-.71,5.64-4.34,16.29-7.27,20.96l5.18,6.86s8.11,8.62,10.42,18.75h0s-29.95,22.71-67.64,16.49c-34.39-6.93-38.29-16.08-63.22-12.13"/>
        <path class="cls-70" d="M788.68,397.33c3.54-2.9,7.33-5.41,10.75-8.49,2.89-2.61,5.64-5.39,8.19-8.33,5.01-5.79,9.25-12.24,12.61-19.11,6.71-13.7,9.93-29.02,9.42-44.26-.15-4.6-.66-9.19-1.45-13.72-.43-2.5-.96-4.99-1.59-7.45s-1.48-4.95-2.04-7.48l-.72.19c.2.39.35.74.48,1.15.08.25.8.05.72-.19-.13-.42-.28-.77-.48-1.15-.12-.23-.78-.07-.72.19.98,4.39,2.43,8.63,3.28,13.05.78,4.02,1.33,8.09,1.61,12.17.54,7.7.12,15.47-1.24,23.07-2.67,14.97-9.02,29.25-18.56,41.11-2.78,3.46-5.84,6.69-9.09,9.71-1.8,1.67-3.67,3.27-5.6,4.8s-4.18,3-6.17,4.63c-.32.26.4.27.58.12h0Z"/>
        <path class="cls-70" d="M806.96,317.56c-.35-3.98-1.12-7.95-2.06-11.82-1.7-7.01-4.19-14.29-8.79-19.96-2.79-3.45-6.51-5.69-10.42-7.7-4.98-2.56-10.37-4.42-15.96-5.01-10.16-1.07-19.94,2.62-27.4,9.49-4.55,4.2-8.69,9.62-11,15.42-.07.17.64.09.72-.11,1.82-4.55,4.82-8.81,8.08-12.43,7.2-7.99,17.21-12.96,28.12-12.12,5.45.42,10.74,2.1,15.65,4.48,4.03,1.95,8.06,4.21,11.02,7.63,4.65,5.39,7.19,12.47,8.95,19.26,1.1,4.27,1.99,8.67,2.37,13.08.02.17.74.03.72-.19h0Z"/>
        <path class="cls-70" d="M831.63,385.35c-1.78,2.06-3.84,3.92-5.91,5.68-4.93,4.19-10.42,7.79-16.35,10.41-3.72,1.65-7.62,2.89-11.63,3.61-4.62.83-9.35.83-14.02.62-8.35-.37-16.52-1.92-24.75-3.23-7.2-1.14-14.53-1.85-21.64.13-.41.12-.37.31.05.19,7.06-1.96,14.37-1.13,21.49.02,8.32,1.34,16.59,2.86,25.04,3.18,4.46.17,8.93.13,13.34-.62,3.66-.62,7.23-1.68,10.67-3.05,6.11-2.45,11.79-5.93,16.91-10.05,2.66-2.14,5.29-4.44,7.52-7.03.02-.02-.57-.02-.71.14h0Z"/>
        <path class="cls-45" d="M749.63,330.9c.58,2.09-.01,4.5-.49,6.54-.63,2.7-1.49,5.34-2.39,7.96-.6,1.75-1.34,3.47-1.84,5.25-.53,1.87,1.91,2.82,3.33,3.16,2.76.67,6.43.94,9.05-.34.43-.21-.23-.24-.43-.15-1.5.73-3.45.68-5.08.59-1.24-.07-2.49-.24-3.69-.6-1.02-.31-2.56-1.09-2.57-2.36,0-.38.25-.86.37-1.2,1.45-4.19,3.04-8.33,4.03-12.66.45-1.99,1-4.35.44-6.38-.06-.2-.78,0-.72.19h0Z"/>
        <path class="cls-45" d="M762.45,349.08c.64.11,1.18.61,1.41,1.2.15.37.19.78.18,1.18s-.04.79-.26,1.13c-.42.64-1.2.79-1.9.88-.86.11-1.72.17-2.57-.04-.37-.09-.72.43-.24.55.79.2,1.61.17,2.42.09.75-.08,1.53-.17,2.19-.58.61-.37,1-.95,1.08-1.67s0-1.48-.36-2.11-1-1.06-1.71-1.18c-.37-.07-.73.46-.24.55h0Z"/>
        <path class="cls-24" d="M770.13,333.34s8.56,4.29,15.45.99c2.47-1.18,3.67-2.81,2.74-5.27-1.87-4.89-8.1-5.13-11.67-3.97-3.87,1.27-6.76,3.59-6.52,8.25Z"/>
        <g>
          <path class="cls-73" d="M773.33,328.63c-.83,3.09,1.12,5.14,4.42,5.83,3.3.69,6.69-.23,7.52-3.32.83-3.09-.43-5.89-3.73-6.59-3.3-.69-7.38.98-8.21,4.08Z"/>
          <path class="cls-62" d="M776.22,328.94c-.46,1.72.65,3.42,2.47,3.8,1.83.38,3.68-.7,4.15-2.41.46-1.72-.65-3.42-2.48-3.8-1.83-.38-3.68.7-4.15,2.41Z"/>
        </g>
        <path class="cls-24" d="M748.02,332.69s-7.76,4.73-14.92,1.97c-2.57-.99-3.91-2.52-3.19-5.04,1.43-5.02,7.62-5.75,11.28-4.87,3.97.96,6.66,3.27,6.83,7.93Z"/>
        <g>
          <path class="cls-73" d="M744.81,328.03c1.1,3.02-.66,5.21-3.89,6.15-3.22.95-6.68.3-7.79-2.72-1.1-3.02-.09-5.91,3.13-6.85,3.22-.95,7.44.4,8.54,3.42Z"/>
          <path class="cls-62" d="M741.95,328.56c.61,1.67-.34,3.46-2.13,3.98-1.79.53-3.73-.41-4.34-2.08-.61-1.67.34-3.46,2.13-3.98,1.79-.53,3.73.41,4.34,2.08Z"/>
        </g>
        <ellipse class="cls-24" cx="781.21" cy="328.43" rx=".72" ry=".68"/>
        <path class="cls-16" d="M770.32,330.53s4.19-5.31,11.64-4.4c7.46.91,6.62,5.04,6.62,5.04,0,0,1.37-4.92-3.97-6.86-3.84-1.39-11.53-1.94-14.29,6.22Z"/>
        <path class="cls-16" d="M747.63,330.2s-3.36-4.94-11.06-4.03-6.84,5.04-6.84,5.04c0,0-1.42-4.92,4.1-6.86,3.97-1.39,12.14-1.56,13.8,5.85Z"/>
        <path class="cls-16" d="M788.53,330.51s4.12-.85,4.97-3.57c0,0-2.97,1.84-6.9-1.19,0,0,1.96,2.95,1.94,3.85v.9Z"/>
        <ellipse class="cls-24" cx="739.96" cy="328.33" rx=".72" ry=".68"/>
        <path class="cls-45" d="M583.52,557.71c-.26-.65-1.46-1.05-2.02-1.33-.91-.47-1.81-.96-2.73-1.43-.86-.44-1.74-.87-2.61-1.31-2.78-1.4-5.57-2.79-8.35-4.19-.4-.2-.8-.47-1.23-.55-.63-.12-1.38-.04-2.02-.05l-9.18-.25-8.88-.24c-1.1-.03-1.9-.01-2.95.31-5.41,1.68-10.81,3.35-16.22,5.03-.59.18-1.28.19-1.5.79-.95,2.5-.32,5.84,1.98,7.36,2.81,1.84,6.19,1.91,9.42,1.78,1.66-.07,3.32-.23,4.97-.48.95-.14,1.91-.32,2.85-.52.19-.04.38-.08.57-.13.31-.07.63-.15.94-.23.37-.25.45-.34.22-.26-.04,0-.49.2-.27.23,2.67.37,5.33.74,8,1.11.11.02.75-.2.64-.25l-.3-.16c-.12-.06-.79.12-.68.24,2.87,3.08,5.87,6.02,9.02,8.81s6.37,5.86,10.16,7.46c.13.05.8-.14.68-.24-.46-.4-.94-.75-1.45-1.08-.17-.1-.76.19-.68.24.51.33.99.68,1.45,1.08l.68-.24c-3.79-1.6-7.11-4.77-10.16-7.46s-6.16-5.73-9.02-8.81l-.68.24.3.16.64-.25c-2.67-.37-5.33-.74-8-1.11l-.27.23.2-.05c.42-.11.37-.3-.05-.19-3.51.9-7.1,1.39-10.72,1.43-2.85.03-6.39-.24-8.53-2.4-1.08-1.09-1.53-2.51-1.54-4.02,0-.78.15-1.51.3-2.27.02-.09.03-.19.04-.29.06-.37-.25-.1.02-.27.33-.21.98-.29,1.35-.4l15.55-4.82c.29-.09.59-.18.88-.27.2-.06.31-.07.09-.05.52-.05,1.08.03,1.6.04l8.13.22c2.97.08,5.95.16,8.92.24.88.02,1.76.06,2.65.07.49,0,.3-.04.74.2,2.69,1.47,5.49,2.75,8.23,4.13,1.07.54,2.15,1.07,3.22,1.62.56.28,1.11.58,1.67.87.75.4,2.86,1.06,3.21,1.93.06.15.77-.08.72-.19h0Z"/>
        <path class="cls-58" d="M545.34,562.04l9.45.35s10.92,11.94,18.81,16.56c7.89,4.62,10.22-18.79,10.22-18.79l-17.71-10.96-21.79-.46-17.65,5.52c-3.5,13.08,18.66,7.79,18.66,7.79Z"/>
        <path class="cls-64" d="M708.48,818.06c.97,4.73,2.22,30.25,2.28,35.08.16,13.06-.78,32.21-1.77,38.83-1.67,11.2-5.26,40.93-5.97,44.86l-2.16,30.21c-9.7-.11-29.78-.31-39.48-.54-.27-21.18-18.55-109.5-20.97-149.87-1.93-32.23.48-46.33.48-46.33l73.34-13.36-7.61,52.05,1.86,9.06Z"/>
        <path class="cls-64" d="M756.21,811.43c.97,4.73,2.23,13.11,2.29,17.95.16,13.06-1.99,58.48-2.98,65.1-1.67,11.2-5.26,40.93-5.97,44.86l-2.16,30.21c-9.7-.11-36.41-.31-46.11-.54-.27-21.18-9.84-98.07-12.25-138.45-1.93-32.23-.72-57.75-.72-57.75l81.43-23.58-15.38,53.14,1.86,9.06Z"/>
        <path class="cls-42" d="M699.67,966.84c-.08-5.81-.5-11.63-.91-17.43-.61-8.63-1.32-17.25-2.04-25.87-1.7-20.2-3.53-40.38-5.19-60.59-.82-9.99-1.61-19.99-2.23-29.99-.03-.55-1.38-.25-1.34.36,1.17,18.83,2.84,37.62,4.47,56.41,1.64,18.97,3.38,37.93,4.77,56.91.49,6.76,1.02,13.53,1.12,20.31,0,.66,1.36.42,1.35-.12h0Z"/>
        <path class="cls-81" d="M784.21,815.95c-8.73,2.18-36.08,5.65-45.04,7.28-14.59,2.66-30.12,2.31-44.92,1.77-23.82-.87-48.4-3.91-70.92-11.5-1.9-26.62-5.72-75.89-7.29-97.44-2.98-41.04,12.97-53.03,32.93-60.73,37.32-14.4,124.54-22.16,149.35-13.4,6.14,2.17,38.7,4.87,17.33,11.35,15.82,2.2-21.69,3.95-21.69,3.95,0,0,70.32,21.85,40.92,61.74-13.6,18.46,7.27,40.04-47.22,37.68-.02,12.94-1.12,43.72-3.46,59.29Z"/>
        <path class="cls-58" d="M742.85,620.51l6.45,23.31-7.36,1.31s-16.76,5.3-21.86,5.36c-5.1.06-17.04,1.68-17.04,1.68.8,1.35,1.09,2.93.84,4.47-.42,1.75-1.54,3.26-3.11,4.16l-6.2-7.18c-.99,3.8-4.62,1.48-4.62,1.48l-4.65-6.41c-1.02,4.75-5.79,1.86-5.79,1.86l-3.38-9.37c-1.02,1.73-2.37,3.23-3.98,4.44-2.12,1.32-3.34-2.41-3.34-2.41l6.63-16.05,22.04-9.57,37.84,4.3,7.55-1.4Z"/>
        <path class="cls-45" d="M689.35,624.17c-2.05.87-3.97,1.96-5.88,3.09s-3.76,2.34-5.44,3.78c-1.4,1.2-3.12,2.55-3.17,4.55-.05,2.1.25,4.39,1.14,6.3.13.29.85.07.72-.19-.85-1.82-1.09-3.87-1.13-5.87-.04-2.22,1.87-3.67,3.45-4.96,3.15-2.56,6.88-4.73,10.61-6.32.46-.2.05-.52-.31-.37h0Z"/>
        <path class="cls-45" d="M694.29,632.1c-1.75.89-3.57,1.65-5.33,2.52-1.87.92-4.07,1.85-5.48,3.44-.64.72-.82,1.83-.97,2.76-.17,1.07-.28,2.11-.15,3.19.22,1.85,1.24,3.71,2.45,5.12.2.23.89-.05.67-.31-1.07-1.25-2.05-2.93-2.33-4.56-.19-1.09-.1-2.13.06-3.21.18-1.17.35-2.35,1.25-3.2,1.49-1.4,3.65-2.28,5.47-3.16,1.55-.74,3.14-1.42,4.68-2.2.44-.22.04-.57-.31-.39h0Z"/>
        <path class="cls-45" d="M702.54,642.1c-1.24.11-2.44.4-3.65.68-1.04.23-2.13.41-3.15.75-1.61.53-3.29,1.36-4.17,2.89s-.69,3.22.15,4.69c.48.83,1.2,1.56,1.94,2.16.3.25.74.64,1.16.63s.56-.55.06-.54c.2,0-.06-.08-.18-.15-.21-.14-.41-.29-.6-.45-.62-.52-1.21-1.13-1.64-1.82-.86-1.39-1.02-3.08-.17-4.5,1.33-2.23,4.33-2.61,6.66-3.13,1.16-.26,2.32-.55,3.51-.65.41-.04.56-.58.06-.54h0Z"/>
        <path class="cls-77" d="M749.37,644.04c.38.8.75,1.59,1.13,2.39.12.24.17.45.4.59.42.26,1.2.14,1.66.11,2.59-.15,5.17-.7,7.72-1.18,8.64-1.65,17.21-3.66,25.77-5.68s16.29-3.9,24.43-5.88c7.9-1.92,15.82-3.04,23.83-4.8,10.91-2.39,21.37-6.19,31.93-9.78,1.98-.67,3.96-1.34,5.94-2.01.42-.14.33-.53-.1-.39-11.05,3.71-22,7.94-33.33,10.74-8.54,2.11-17.29,3.18-25.84,5.24-7.26,1.75-14.51,3.54-21.78,5.27-8.8,2.1-17.62,4.17-26.48,6.01-3.19.66-6.39,1.31-9.61,1.77-.91.13-1.83.27-2.75.28-.71,0-.81.03-1.09-.57l-1.1-2.31c-.12-.26-.83-.04-.72.19h0Z"/>
        <path class="cls-81" d="M842.66,570.7c3.39,2.17-5.82-26.24-2.28-24.34.42.22-8.32-3.24-8.05-3.5v-2.45s-5.59-102.44-5.59-102.44c6.37-8.68,18.22-24.22,27.1-30.67,23.72,8.08,28.6,23.42,33.59,39.01,5.57,17.41,3.66,32.53,5.96,50.4,2.53,19.66,3.84,44.82,4.55,64.62.83,23.2,3.56,42.72-21.24,55.12-5.43,2.72-11.53,3.06-17.59,2.63-2.38-.17-6.64-1.72-8.94-1.09-18.93,5.19-97.53-6.69-97.53-6.69l58.29-28.13,31.73-12.45Z"/>
        <path class="cls-77" d="M843.36,571.01c3.19-.66,6.37.17,9.35,1.29,2.39.9,5.39,1.78,7.03,3.87.11.14.8-.1.68-.25-.86-1.09-2.03-1.76-3.28-2.32-1.45-.66-2.93-1.26-4.43-1.8-2.97-1.06-6.1-1.72-9.23-1.07-.29.06-.63.4-.13.29h0Z"/>
        <path class="cls-77" d="M847.79,431.2c-6.44,1.25-9.4,8.44-11.08,14.03s-2.84,11.48-2.92,17.25c-.11,7.83.61,15.71,1.16,23.51.83,11.71,1.8,23.4,2.81,35.09.95,10.98,1.94,21.95,2.95,32.92.35,3.73.69,7.45,1.05,11.18.11,1.18.22,2.35.34,3.52.05.48-.05,1.43.18,1.86.03.05.02.17.02.24l.33-.23c-12.79,4.03-25.27,9.36-37.41,15.03-9.34,4.37-18.55,9.03-27.82,13.54-8.08,3.93-16.17,7.84-24.27,11.74-4.1,1.98-8.21,3.95-12.32,5.92-.04.02-.17.09-.15.16l1.21,3.54c.07.19.78-.02.72-.19-.38-1.12-.7-2.29-1.16-3.38-.12-.28-.27.11-.09-.06.12-.11.37-.18.52-.25,1.78-.86,3.57-1.71,5.35-2.57,7.36-3.54,14.72-7.09,22.07-10.65,19.33-9.37,38.43-19.32,58.46-27.16,4.89-1.91,10.02-3.86,14.94-5.41.09-.03.34-.09.33-.23-.42-4.38-.84-8.77-1.24-13.15-.95-10.23-1.88-20.46-2.78-30.69-1.02-11.68-2.01-23.37-2.89-35.07-.66-8.74-1.35-17.51-1.57-26.28-.09-3.56.19-6.97.73-10.52.62-4.04,1.48-8.08,2.85-11.94,1.15-3.25,2.67-6.59,5.17-9.03,1.22-1.19,2.68-2.09,4.36-2.42.3-.06.63-.4.13-.3h0Z"/>
        <g class="cls-61">
          <path class="cls-23" d="M636.01,273.77c-5.78-46.12-51.62-94.71-92.77-91.61-11.86-53.92-79.38-88.64-132.82-74.58-13.26,3.49-25.27,9.51-35.7,17.45-29.86-20.25-70.49-25.88-108.27-21.81-52.52,5.65-94.05,36.71-108.19,78.67,0,0-10.36,1.19-22.18,4.3-64.68,17.03-93.16,97.49-76.14,166.27,11.06,44.7,41,65.8,66.18,77.2.12.51,1.09,9.46,1.25,9.96,8.48,26.73,20.91,43.67,54.26,62.38,36.3,20.36,136.63,15.04,169.09-29.34,26.93,17.36,64.7,29.3,97.37,20.7,39.66-10.44,67.56-24.2,80.81-61.86,4-.61,8-1.43,12-2.49,64.68-17.03,103.92-84.93,95.1-155.24Z"/>
          <path class="cls-9" d="M516.87,172.93c7.25,2.68,16.76,23.62,18.32,31.19,1.56,7.57,1.13,15.43,2.45,23.05.22,1.26.49,2.52,1.08,3.65,1.06,2.02,3.02,3.39,4.79,4.83,4.79,3.88,8.82,9.18,9.51,15.31.53,4.68-.91,9.34-1.27,14.03-.36,4.69.78,10.09,4.83,12.49,1.68.99,3.66,1.34,5.48,2.04,5.49,2.1,9.42,7.77,9.46,13.65.04,5.59-3.08,10.98-2.32,16.52.72,5.24,4.72,9.34,8.51,13.04-11.63,5.65-23.59,10.89-36.25,13.49-12.66,2.6-26.18,2.42-38.13-2.51-5.08-2.1-10.13-5.4-12.08-10.54-.93-2.46-1.07-5.14-1.19-7.77-.33-6.85-.66-13.7-.99-20.55-.83-17.31-1.67-34.67-.35-51.94.82-10.81,2.54-21.72,7.14-31.53,4.6-9.81,12.39-18.5,22.54-22.29"/>
          <path class="cls-58" d="M376,425.51s10.09-11.73,16.81-14.2c1.89-.7,16-12.85,16-12.85,0,0,4.4,2.37-.33,8.21-4.73,5.85-6.81,8.13-6.81,8.13l-.54,2.19,12.36,2.74s14.54.8,18.02,1.31c3.48.51,10.99,1.26,11.75,5.73,0,0,5.59.16,5.8,2.82.27,1.29-.1,2.62-1,3.58l-2.66.6s1.44.71.41,3.22c-1.04,2.51-25.02,3.8-25.02,3.8l-1.22.92s16.15,1.76,16.49,3.23c.35,1.47.85,2.65-1.7,3.34-2.55.69-46.74,1.92-51.8,1.03-1.33-.23-3.46-1.7-4.3-1.83-2.37-.37-7.03-.03-7.03-.03l-2.94-21.64,7.7-.28Z"/>
          <path class="cls-80" d="M366.19,446.34c.09-.18-.19-.45-.29-.56-.31-.36-.66-.69-1.01-1.01-1.23-1.14-2.54-2.21-3.86-3.24-1.17-.91-2.36-1.82-3.62-2.61-.65-.41-1.43-.89-2.13-.25-.21.19.18.26.29.26.28,0,.57-.11.77-.3h.01c-.11.06-.21.12-.32.19-.54.23-.71-.01-.33.16.16.07.3.16.45.25.41.25.81.52,1.21.8,1.17.82,2.3,1.69,3.42,2.58,1.03.83,2.05,1.68,3.03,2.58.31.29.62.58.91.9.08.09.34.39.32.43-.11.22.4.19.48.18.23-.03.56-.13.67-.35h0Z"/>
          <path class="cls-81" d="M282.68,362.47l8.3,62.65,96.7-3.33c-1.7,7.05.73,20.38,3.77,29.62,0,0-56.17,11.36-66.36,14.04-50.1,13.2-59.88,1.14-67.36-25.69-3.53-12.68-9.14-51.46-3.25-57.76,1.34-1.44,24.25-24.81,28.2-19.54Z"/>
          <path class="cls-81" d="M126.51,451.26l.52-54.78-10.63-57.38c4.45-14.17,12.35-33.69,33.1-40.58l33.7-9.67s9.41,18.72,36.55,16.77c27.14-1.95,14.3-8.74,14.3-8.74,0,0,15.02,6.23,26.4,11.92.6,1.08-.05-.26,1.49.27,17.45,6.01,18.04,31.77,20.62,47.37,3.58,21.59,4.61,45.7,9.57,67.07,2.45,10.56-9.76-11.45-7.33-.88-8.13,2.54-10.53-18.39-10.53-18.39l-.1-.8c1.74,16.21-11.67,12.35-14.98,21.48-2.39,6.59,4.82,13.47,1.4,19.52-6.76,11.95,2.06,66.26,5.92,84.4,0,0-20.61,5.44-74.78,7.79-32.26,1.4-83.94-38.18-83.94-38.18,14.01-28.03,18.72-47.18,18.72-47.18Z"/>
          <path class="cls-17" d="M272.91,356.79c-4.13,5.15-2.66,11.89-1.41,17.79,1.13,5.35,2.38,10.69,3,16.14.65,5.79.6,11.8-1.22,17.39-2.04,6.28-6.3,11.39-11.75,15.03-.95.64-2.57,1.1-2.99,2.26-.38,1.05-.47,2.26-.6,3.36-.25,2.07-.42,4.15-.54,6.23-.02.39.72.3.74-.05.1-1.7.24-3.4.42-5.1.12-1.16.25-2.33.48-3.47.07-.35.11-.85.31-1.14.38-.53,1.33-.86,1.9-1.22,5.26-3.34,9.63-7.99,12.01-13.8,4.26-10.4,1.96-22.02-.33-32.6-1.42-6.56-4.07-14.75.6-20.58.29-.36-.39-.51-.61-.23h0Z"/>
          <path class="cls-81" d="M149.25,495.86c-4.58-.03-9.74.31-13.87-1.19-.2-.62-.19-.63-.36-1.26-2.46-9.25-2.13-19.3.33-28.51,1.7-6.36,4.53-12.77,8.89-17.81.74,1.07,1.13,1.65,1.13,1.65l104.9-13.43s5.95,32.61,5.95,32.61c-31.63,8.1-64.47,20.17-104.07,27.42-.97.18-1.93.35-2.9.51Z"/>
          <path class="cls-81" d="M116.7,338.64c5.24-20.5,25.08-22.04,38.43-14.15,6.75,4,6.94,19.85,6.94,19.85,3.18,29.28-4.83,92.8-6.82,107.81-2.77.32-5.51.97-8.14,1.88-9.23,3.16-17.5,9.17-23.91,16.47-3.18,3.62-6,7.73-8.05,12.16-2.87-4.51-4.48-9.8-4.55-15.18-.13-9.48-.33-24.39-.39-28.73,0,0,1.25-79.61,6.49-100.11Z"/>
          <path class="cls-17" d="M145.88,316.78c2.76,0,5.35.73,7.46,2.56,1.89,1.63,3.23,3.81,4.45,5.96,1.81,3.19,3.24,6.38,4.14,9.94,2.06,8.12,2.27,16.7,2.15,25.04-.3,20.32-3.24,40.52-5.66,60.67-1.04,8.63-2.19,17.33-2.28,26.03,0,.09.26.05.3.05,3.12-.41,6.24-.81,9.35-1.22,7.45-.97,14.89-1.94,22.34-2.91l27.15-3.53c7.83-1.02,15.65-2.04,23.48-3.06l7.73-1.01c1.18-.15,2.5-.16,3.65-.48.05-.01.11-.01.17-.02l-.3-.05.94,5.38c.03.16.76,0,.72-.19-.31-1.79-.63-3.59-.94-5.38-.02-.09-.25-.05-.3-.05-3.12.41-6.24.81-9.35,1.22-7.45.97-14.89,1.94-22.34,2.91-9.05,1.18-18.1,2.36-27.15,3.53-7.83,1.02-15.65,2.04-23.48,3.06l-7.73,1.01c-1.17.15-2.47.5-3.65.48-.05,0-.11.01-.17.02l.3.05c.08-7.89,1.07-15.78,1.99-23.61,1.17-9.91,2.46-19.81,3.55-29.73,1.12-10.27,2.07-20.58,2.35-30.91.23-8.63.13-17.47-1.73-25.94-.88-4.01-2.34-7.62-4.34-11.2-1.32-2.35-2.77-4.77-4.88-6.51s-4.74-2.43-7.46-2.43c-.16,0-.82.31-.47.31h0Z"/>
          <path class="cls-81" d="M149.25,495.86s-20.61,2.92-32.9-10.95c-10.18-11.5,2.2-37.77,9.83-47.65,7.64-9.88,27.08,24.53,27.08,24.53l-4.02,34.07Z"/>
          <path class="cls-17" d="M147.05,458.31c.13-2.71.42-6.06,2.43-8.12,1.22-1.25,2.91-1.64,4.53-2.11.95-.27,1.88-.59,2.74-1.08.42-.24-.2-.4-.46-.25-1.55.88-3.35,1.09-4.99,1.74-1.91.76-3.23,2.18-3.97,4.09s-.92,3.86-1.01,5.82c-.02.32.71.19.73-.08h0Z"/>
          <path class="cls-17" d="M254.61,462.42l1.25,5.61.3-.34c-4.75,1.37-9.52,2.7-14.29,4.02-10.98,3.04-21.99,5.98-33.04,8.79-12.41,3.16-24.87,6.18-37.42,8.75-10.28,2.11-20.83,4.3-31.38,3.86-8.63-.36-19.37-2.36-24.38-10.25-.07-.11-.1-.19-.15-.3-.13-.31-.85-.1-.72.19.66,1.59,2.03,2.95,3.31,4.05,3.84,3.3,8.86,5.02,13.76,5.95,11.23,2.12,22.62.25,33.69-1.84,12.56-2.37,25-5.33,37.4-8.42,11.78-2.94,23.52-6.04,35.22-9.25,4.02-1.1,8.04-2.22,12.05-3.35,1.92-.54,3.93-.98,5.81-1.65.08-.03.17-.05.26-.07.14-.04.34-.16.3-.34l-1.25-5.61c-.07-.32-.8-.13-.72.19h0Z"/>
          <path class="cls-63" d="M230.82,290.84s-6.54-1.46-10.2-2.11c-3.66-.65-9.76.07-27.51-12.02,0,0,6.41,16.17,27.76,17.94,0,0,6.41.77,9.9-.34l.04-3.47Z"/>
          <path class="cls-24" d="M253.27,248.72c.28-4.94,4.57-29.35,4.47-30.02-1.94-13.12-.68-9.68-8.73-16.52-6.57-5.55-26.79-2.68-33.25-1.17-5.69,1.31-13.2,0-20.93,12.64-5.11,8.45-7.41,4.43-10.04,19.34l-4.94-55.51,35.46-7.15,23.92,5.39c9.96,2.18,18.06,9.41,21.34,19.07,3.26,9.65,3.5,20.66,3.3,34.28-.05,21.02-4.29,41.83-12.49,61.18l-19.45,12.79"/>
          <path class="cls-58" d="M256.97,234.64c.2-3.09,1.1-11.13,1.3-18.28h0c.17-6.91-4.65-12.88-10.08-17.15l-1.03-.68c-.05-.04-1.59-.68-1.65-.7-11.76-3.98-20.53-4.84-32.25.09-5.72,2.41-12.8,4.63-16.88,9.31-4.24,4.86-8.39,16.32-13.52,20.43-.5-5.54,5.6-16.02,5.66-21.02,0,.82,0,1.33,0,1.33-6.25,5.22-8.67,15.84-8.47,19.5.2,3.67-.81,11.58-.81,11.58-1.01-1.35-3.22-4.24-3.83-5.79-.6-1.35-1.31-2.59-1.92-3.94-1.81-3.09-4.73-2.62-6.94-.69l-.37.64c-5.24,5.43,2.53,19.26,4.82,23.28-.26,1.89,3.98,11.91,10.4,5.24l1.52,5.88,9.81,13.2c7.97,8.38,20,14.65,32.5,14.41,8.48-.16,9.12-.53,12.18-3.58,4.65-4.63,9.56-9.36,13-14.79,3.3-5.21,4.74-8.45,6.18-14.5,1.48-6.25,1.45-7.9.76-14.12-.31-2.78-.54-7-.36-9.67Z"/>
          <path class="cls-60" d="M176.84,256.5c-2.1.23-4.04,1.72-4.24,3.92-.09.99.19,1.96.79,2.76.48.65,1.05,1.01,1.8,1.26,1.51.51,3.14.24,4.45-.65.15-.1.09-.22-.07-.25-.21-.04-.47.06-.64.17-1.45.98-3.56.61-4.64-.76s-1.09-3.32-.05-4.69c.6-.79,1.45-1.26,2.43-1.37.13-.01.49-.1.52-.27.03-.18-.27-.14-.37-.13h0Z"/>
          <path class="cls-9" d="M190.67,205.93l-2.78,6.89c-3.22,7.99-5.28,16.42-6.1,25.03l-.23,2.45c-.07.71-.96.93-1.34.34l-4.68-7.37s-1.08-26.56,15.13-27.35Z"/>
          <path class="cls-26" d="M173.43,238.86c-1.65.75-2.2,2.65-2.42,4.31s-.06,3.19.65,4.76c.55,1.21,1.9,3.42,3.56,2.92,1.5-.46,1.37-2.29.96-3.45-.28-.8-.71-1.57-.9-2.4-.23-1.05.41-1.2,1.35-1.22.14,0,.6-.18.5-.41-1.21-2.77-2.57-5.61-4.35-8.07-.88-1.22-2.08-2.5-3.76-2.21-2.14.38-2.58,2.99-2.56,4.78.03,2.19.74,4.49,1.94,6.33.2.3,1.06-.02.83-.38-.86-1.32-1.43-2.91-1.71-4.44-.22-1.23-.24-2.55.07-3.77.2-.77.64-1.89,1.57-1.95,1.46-.11,2.53,1.62,3.22,2.65.96,1.44,1.77,2.98,2.54,4.54.45.91.89,1.83,1.3,2.77l.5-.41c-1.08.02-2.52.32-2.41,1.68s1,2.42,1.21,3.7c.07.44.08,1.58-.52,1.75s-1.46-1-1.74-1.38c-.98-1.35-1.55-3.07-1.47-4.74s.33-4.12,1.99-4.88c.56-.26.06-.66-.38-.46h0Z"/>
          <path class="cls-9" d="M213.96,230c-1.15-.55-2.96-.34-3.68.34-.17.16-.63.61-.82,1.36-.25.96.16,2.02.78,2.66.82.85,2.15.96,3.16.46,1.36-.69,1.76-2.36,1.38-3.56-.07-.22.14-.65-.79-1.1"/>
          <path class="cls-9" d="M252.74,231.29c-1.15-.55-2.96-.34-3.68.34-.17.16-.63.61-.82,1.36-.25.96.16,2.02.78,2.66.82.85,2.15.96,3.16.46,1.36-.69,1.76-2.36,1.38-3.56-.07-.22.14-.65-.79-1.1"/>
          <path class="cls-9" d="M226.36,221.15c.02-.12-.44-.73-.42-.85-7.98-2.09-15.71-2.38-17.98-2.21-1.73.13-3.42.54-5.04,1.15,0,0-5.09,3.11-5.68,3.84-.58.73,2.67-.2,2.67-.2.69-.11,1.17-.28,1.87-.32,3.86-.21,6.82-.92,10.64-.25,3.27.56,10.39,1.89,13.48,3.09.19-1.25.15-3.04.46-4.27Z"/>
          <path class="cls-9" d="M258.03,220.95c-.24-.03-3.69-.71-3.94-.73-2.24-.2-5.27.1-13.03,1.91.1,1.4-.41,3.17-.32,4.57,3.14-1.15,6.31-1.93,9.62-2.43,2.21-.34,4.95.02,7.57-.09l.09-3.23Z"/>
          <path class="cls-69" d="M230.37,264.68c-5.46-.16-14.79-1.32-14.79-1.32,0,0,1.73,14.39,14.38,14.76,12.65.37,12.7-13.38,12.7-13.38,0,0-6.83.1-12.29-.06Z"/>
          <path class="cls-11" d="M230.42,264.68c-2.59-.08-12.31-.42-12.31-.42,0,0,2.45,8.63,11.83,8.9,10.17.3,10.98-8.15,10.98-8.15l-10.5-.34Z"/>
          <path class="cls-41" d="M230.52,265.08c-2.59-.08-10.47-.75-10.47-.75,0,0,2.76,2.97,10.54,3.2,7.78.23,10.33-2.51,10.33-2.51l-10.4.06Z"/>
          <path class="cls-69" d="M243.19,264.39c-.27-.08-.88.1-2.07-.13-2.13-.43-3.09-1.25-4.59-1.41-2.57-.28-4.24.74-5.36.7-1.12-.03-2.73-1.15-5.31-1.01-1.51.08-3.86.53-5.95.66-1.25.08-4.29-.51-4.56-.45-.37.08.43,3.01,14.53,3.43,14.1.41,13.69-1.67,13.32-1.77Z"/>
          <path class="cls-24" d="M263.33,308.55s-.12-9.65-15.2-23.41l.67-5.44s-3.95,14.39-24.87,10.69c-17.31-3.08-27.24-15.65-32.19-28.78-8.53-22.64-1.62-60.38,9.28-77.45,10.21-16,53.63,16.88,54.59,4.56,0,0-12.67-28.12-48.18-26.73-20.62.78-33.1,7.61-45.51,37.07-3.81,9.71-2.96,19.1-5.46,29.31-2.08,9.36,1.92,25.84,3.23,38.01.51,5.21,3.46,11.48,6.04,15.85l-7.17,5.72s-8.32,1.65-10.7,10.93l-.29.32s33.6,32.28,78.82,27.01c31.88-5.52,24.52-19.88,36.52-16.99"/>
          <path class="cls-7" d="M203.29,294.18c-3-2.6-6.25-4.87-9.16-7.59-2.7-2.53-5.26-5.22-7.61-8.07-4.51-5.46-8.29-11.51-11.24-17.94-5.93-12.9-8.54-27.26-7.63-41.42.27-4.2.86-8.37,1.7-12.49.46-2.24,1-4.46,1.62-6.66s1.48-4.5,2.06-6.81c.08-.32-.6-.16-.7.01-.21.37-.36.72-.5,1.11-.1.28.63.19.72-.07.11-.35.26-.68.45-.99h-.7c-1.03,4.08-2.48,7.99-3.39,12.09-.83,3.78-1.45,7.6-1.8,11.45-.65,7.02-.44,14.12.62,21.09,2.11,13.89,7.64,27.25,16.16,38.44,2.51,3.3,5.29,6.38,8.25,9.28,1.64,1.6,3.34,3.13,5.1,4.59s3.65,2.77,5.38,4.27c.21.18.89-.1.66-.3h0Z"/>
          <path class="cls-7" d="M190.24,217.54c.17-2.98.68-5.96,1.33-8.87,1.26-5.65,3.24-11.38,6.76-16.03,2.22-2.94,5-4.92,8.22-6.66,4.4-2.38,9.14-4.21,14.09-5,9.44-1.51,18.65,1.42,25.82,7.66,3.36,2.92,6.98,7.13,7.81,11.69.04.2.76.03.72-.19-.72-3.95-3.65-7.7-6.41-10.42-6.49-6.39-15.32-10.02-24.45-9.45-4.5.28-8.9,1.46-13.05,3.18-3.76,1.56-7.73,3.45-10.75,6.24-4.53,4.19-7.1,10.18-8.73,16.02-1.07,3.87-1.87,7.92-2.09,11.94-.01.25.7.09.71-.11h0Z"/>
          <path class="cls-7" d="M165.38,282.4c1.34,1.98,2.99,3.79,4.67,5.48,3.82,3.88,8.21,7.23,13.04,9.74,6.55,3.4,13.52,4.81,20.86,4.94,7.98.13,15.85-.91,23.73-2.01,7.31-1.02,14.8-1.94,21.99.27.28.09.85-.32.42-.45-5.92-1.82-12.1-1.58-18.18-.85-7.51.9-14.96,2.22-22.54,2.5-8.04.3-15.9-.32-23.32-3.62-5.32-2.37-10.16-5.78-14.34-9.82-2.05-1.98-4.07-4.12-5.68-6.49-.17-.25-.86.02-.66.31h0Z"/>
          <path class="cls-17" d="M291.92,424.73c-1.28.3-2.43.99-3.58,1.61s-2.19,1.23-3.22,1.95c-1.91,1.34-3.6,2.99-4.53,5.16-.1.23.62.16.73-.09.89-2.08,2.55-3.68,4.39-4.94.9-.62,1.84-1.17,2.79-1.69,1.12-.62,2.26-1.33,3.52-1.62.44-.1.34-.48-.1-.38h0Z"/>
          <path class="cls-58" d="M254.97,462.32l3.98-.95s22.23,7.2,28.96,6.85c4.86-.45,9.66-1.64,14.26-3.52l5.63,1.45c2.59.67,5.35.33,7.79-.95l1.88-.99s6.55,3.88,7.87,1.69c1.32-2.18-.76-4.35-2.78-6.45-2.02-2.1-43.68-20.7-43.68-20.7,3.8-1.73,10.83-1.05,14.83-2.05,6.15-1.49,8.05-4.47,5.36-6.69-1.66-1.36-6.73-2.17-10.03-.39-3.29,1.77-19.34-1.49-25.38.95-6.03,2.44-9.79,9.07-9.79,9.07-3.05,1.73-2.59,1.17-2.59,1.17.09.96,3.68,21.51,3.68,21.51Z"/>
          <path class="cls-45" d="M317.15,463.98c-3.49-1.63-7.28-2.7-10.92-3.93s-7.45-2.29-10.87-4.04c-.21-.11-.87.2-.58.35,3.41,1.76,7.24,2.83,10.87,4.04s7.43,2.29,10.92,3.93c.21.1.88-.21.58-.35h0Z"/>
          <path class="cls-45" d="M301.4,464.24c-4.47-1.14-8.94-2.28-13.42-3.42l-1.89-.48c-.27-.07-.86.33-.43.44,4.47,1.14,8.94,2.28,13.42,3.42l1.89.48c.27.07.86-.33.43-.44h0Z"/>
          <path class="cls-9" d="M448.74,282.03c-2.55.46-3.88,3.51-3.55,6.08.32,2.57,1.78,4.83,2.86,7.18,1.08,2.35,1.78,5.18.59,7.47-.86,1.66-2.55,2.72-3.72,4.18-3.62,4.52-1.44,11.24,1.48,16.24,2.92,5,6.6,10.37,5.47,16.05,9.49-3.35,18.56-7.85,26.97-13.38,3.87-2.55,7.85-5.65,9.05-10.13.69-2.55.37-5.26.06-7.88-.47-3.91-1.02-8.01-3.35-11.18-1.2-1.63-2.8-2.91-4.5-4.01-4.91-3.17-10.61-4.87-16.22-6.52-4.6-1.36-9.21-2.72-13.81-4.07"/>
          <g id="freepik--Character--inject-2">
            <path class="cls-47" d="M355.09,353.47l-8.47-10.06s-2.47-11.09-4.52-13.86c-2.05-2.78-12.84-11.08-13.47-11.28-.63-.2-8.01-15.9-11.15-15.22s-5.24,3.11-4.23,7.42c1.01,4.31,8.25,12.64,6.36,14.18-1.53,1.07-3.24,1.84-5.03,2.25,0,0-.83-4.05-3.52-5.52-2.7-1.47-5.26.02-5.26.02l.81,3.82-4.59-3.64s-3.12-9.47-7.29-9.19c-1.04-2.13-1.94-4.38-3.73-5.89-1.62-1.16-3.87-.71-5.02,1-.2.3-.36.63-.47.97h0l8.15,22.4,21.32,22.43s12.76,2.57,15.26,3.62c2.5,1.05,5.64,12.61,6.55,11.62,7.63-8.26,18.31-15.06,18.31-15.06Z"/>
          </g>
          <path class="cls-46" d="M346.28,344.64c-.44,1.01-.93,1.87-1.86,2.49-1.24.83-2.68,1.32-4.07,1.81-.14.05-.34.17-.3.35.04.17.29.2.43.15,1.52-.53,3.07-1.07,4.42-1.97,1.02-.68,1.59-1.64,2.07-2.74.17-.38-.56-.38-.69-.08h0Z"/>
          <path class="cls-45" d="M327.13,350.84c-.74-3.28-2.98-5.73-5.3-8.04-1.3-1.3-3.06-2.66-3.82-4.37-.83-1.86-1.13-4.09-1.63-6.05s-.98-4.08-1.6-6.08c-.47-1.53-1.1-3.19-2.28-4.32-1.69-1.62-4.69-2.17-6.79-1.11-.12.06-.23.16-.2.3.73,4.43,1.73,8.8,2.51,13.22.69,3.95,1.7,7.58,3.79,11.05.16.27.86,0,.66-.31-2.17-3.58-3.09-7.3-3.81-11.37s-1.72-8.49-2.43-12.77l-.2.3c1.46-.74,3.32-.46,4.74.28,1.49.77,2.32,2.26,2.9,3.77,1.29,3.39,1.95,7.1,2.86,10.61.39,1.51.68,2.92,1.71,4.14s2.13,2.22,3.21,3.3c2.19,2.2,4.27,4.54,4.97,7.65.07.32.8.13.72-.19h0Z"/>
          <path class="cls-45" d="M305.49,333.88c-.51-6.4-2.15-12.97-5.51-18.49-.68-1.12-1.43-2.01-2.71-2.46-.89-.31-1.92-.34-2.81,0-.78.3-1.13.53-1.07,1.37.11,1.37.41,2.74.62,4.09.67,4.23,1.34,8.45,2.01,12.68.02.14.75-.01.72-.19-.63-3.95-1.25-7.91-1.88-11.86-.25-1.59-.59-3.19-.74-4.8-.22-2.32,3.35-.91,4.25.11,1.09,1.24,1.83,2.88,2.52,4.37.76,1.64,1.4,3.34,1.93,5.07,1.03,3.35,1.66,6.82,1.94,10.32.01.13.74,0,.72-.19h0Z"/>
          <path class="cls-45" d="M326.61,322.51c-2.11.46-4.11,1.34-5.89,2.55-.13.09-.18.26-.04.36.15.11.38.04.52-.05,1.68-1.14,3.56-1.95,5.54-2.39.14-.03.34-.17.3-.33-.05-.18-.29-.17-.43-.14h0Z"/>
          <path class="cls-39" d="M387.02,414.28l4.02-6.63c7.13,7.24,16.87,15.26,16.87,15.26,6.55,1.16-5.73-2.67-5.7-2.68,5.36,14.74,19.18,39.46,4.71,48.97-11.88,4.62-35.72-1.25-47.11-22.41-.88-1.63-11.24-20.19-12.87-25.35,10.3-6.99,29.08-1.42,40.09-7.15Z"/>
          <path class="cls-39" d="M434.83,435.97c.41-2.44.86-4.87,1.39-7.28,4.33-19.59,7.71-25.98,10.33-45.9.07-.52.13-1.03.19-1.55-2.43-.61-4.87-1.21-7.4-1.49-5.59-.62-11.21-.9-16.83-1.04-8.18-.2-6.18-18.91-14.37-18.9-2.51,12.06-11.52,45.43-17.65,69.2,14.85,1.9,29.63,4.23,44.34,6.97Z"/>
          <path class="cls-39" d="M349.57,427.93c-11.11-25.18-24.14-59.94-24.14-59.94,8.87-4.44,21.68-14.53,25.65-20.71l46.07,66.01c-7.74,17.3-36.54,7.15-47.57,14.64Z"/>
          <path class="cls-8" d="M529.68,223.02s6.38,33.86-5.72,50.38c-12.1,16.52-55.21,24.57-67.47,14.4-12.26-10.17-16.52-48.17-9.06-55.37,7.46-7.2,82.25-9.42,82.25-9.42Z"/>
          <path class="cls-8" d="M429.41,216.95s-3.02-59.67,65.8-46.19c0,0,5.51.61,7,1.01,24.2,6.44,39.09,22.8,40.58,66.12,1.5,43.31-113.38-20.94-113.38-20.94Z"/>
          <path class="cls-8" d="M527.32,232.63c-4.89,10.36-15.28,17.71-26.42,21.7-11.14,3.99-23.15,5.18-34.98,6.34l-14.41.19c-6.71-7.27-14.04-11.86-17.89-20.84-2.7-7.03-4.11-16.53-4.23-24.03-.13-7.88,4.8-17.14,8.69-24.1,3.39-5.76,8.79-10.22,15.25-12.6,6.44-2.58,10.02-4.9,19.29-5.94,15.97-1.84,31.87,3.31,43.24,14,11.96,10.71,18.24,30.84,11.45,45.27Z"/>
          <path class="cls-47" d="M512.42,260.47s-4.53,21.49,2.86,36.89c1.03,2.15,13.99,7.09,13.99,7.09l-11.33,8.81c-9.19,7.15-20.56,10.99-32.19,10.68-6.6-.18-17.59,1.57-22.94.13l-5.31-13.53,11.05-5.46c.36-2.78-3.85-23.29-3.85-23.29"/>
          <path class="cls-27" d="M467.9,299s6.06-1.92,9.47-2.83c3.41-.91,9.23-.73,25.01-13.62,0,0-4.73,15.81-24.77,19.24,0,0-6,1.26-9.39.49l-.33-3.28Z"/>
          <path class="cls-47" d="M436.79,218.7c-1.36,3.62-1.35,8.74-.96,12.16.78,6.73,2.29,14.26,2.73,17.17.39,2.51.52,6.52.45,9.17-.15,5.94-.04,7.5,1.87,13.29,1.85,5.6,3.48,8.54,7.03,13.2,3.7,4.86,8.73,8.92,13.5,12.91,3.15,2.63,3.78,2.93,11.81,2.39,11.83-.8,22.69-7.72,29.53-16.29l8.19-13.29.95-5.68c6.62,5.77,9.8-4.04,9.4-5.81,1.83-3.99,8.05-17.71,2.64-22.4l-.4-.57c-2.25-1.64-5.05-1.85-6.51,1.22-.46,1.33-1.03,2.56-1.49,3.88-.44,1.51-2.3,4.43-3.14,5.79,0,0-1.6-7.4-1.72-10.88-.11-3.48-3.27-13.32-9.6-17.74,0,0-.87-12.24-3.86-15.66l-.98-.28c-.57.05-.94.26-1.51.31-.02-.18.16-.38.13-.75-.92.45-1.7.33-2.46.39.17-.2.54-.41.52-.6-.75.25-1.52.13-2.29.2.18-.2.52-.6.51-.78-.92.45-1.52.13-2.29.2.18-.2.33-.58.32-.76-.73.43-1.51.31-2.27.38.18-.2.33-.58.51-.78-.92.45-1.52.13-2.28.2-.19.02.35-.4.33-.58-.56.23-1.32.3-1.89.35-.02-.18.35-.4.33-.58-1.11.46-1.71.15-2.48.21l.51-.78c-.71.61-1.48.68-2.25.56.17-.2.52-.6.51-.78-.9.63-2.03.91-3.02.63.19-.02.52-.6.51-.78-.89.81-1.67.69-2.62.78.17-.2.33-.58.68-.98-1.08.83-2.38,1.31-3.57.86.17-.02.3-.46.31-.69.09-.17.1-.37-.31-.42,0,0-2.13.92-2.14.74-.71.61,1.74-3.27.79-3.19.16-.38-5.44.81-5.09.41-.89.81-.73.42-1.89.34,0,0-3.77,2.53-3.59,2.33-.36.41-.65.52-.96.51,0,0-14.64,12.47-22.51,20.49Z"/>
          <path class="cls-9" d="M498.88,215.44l3.19,6.29c3.7,7.29,6.34,15.09,7.82,23.16l.42,2.3c.12.66.98.8,1.29.21l3.82-7.35s-1.16-25.19-16.54-24.61Z"/>
          <path class="cls-45" d="M517.38,245.75c1.46.52,1.95,2.44,2.2,3.8.29,1.54.22,2.7-.4,4.23-.25.61-.82,1.98-1.55,2.16-.47.12-.76-.7-.81-1.08-.15-1.24.59-2.44.79-3.63.26-1.59-1.05-1.92-2.39-1.83l.52.34c-.07.19,0-.04.03-.1.08-.15.12-.34.18-.5.19-.54.39-1.08.6-1.62.57-1.47,1.17-2.94,1.89-4.34.52-1.02,1.17-2.55,2.29-3.05,1.99-.88,2.57,2.68,2.62,3.9.08,1.88-.38,3.9-1.27,5.56-.29.55.87.52,1.09.1.89-1.65,1.37-3.66,1.35-5.53-.02-1.72-.45-4.52-2.53-4.91-1.61-.31-2.87.88-3.68,2.11-1.02,1.55-1.75,3.29-2.44,5-.47,1.15-.9,2.31-1.3,3.49-.09.28.36.35.52.34.63-.05,1.35-.05,1.39.73.03.63-.27,1.3-.45,1.89-.37,1.2-.82,2.93.47,3.76,1.47.95,2.99-1.08,3.54-2.18.75-1.51,1.01-3.16.74-4.81-.28-1.73-.9-3.91-2.74-4.56-.46-.16-1.35.5-.68.73h0Z"/>
          <path class="cls-8" d="M534.85,207.47c-1.5-14.07-24.12-17.15-35.91-17.66-7.61-.11-6.76,5.22-13.47,8.88-1.98-1.99,4.14,27.98,45.78,27.63l8.29,8.26s-3.19-13.03-4.69-27.1Z"/>
          <path class="cls-8" d="M430.49,204.54c1.11-14.11,23.64-17.8,35.41-18.64,7.61-.32,19.45,6.44,26.27,9.91,1.92-2.04-16.79,19.95-57.56,27.46l-2.31,2.43s-2.92-7.07-1.81-21.17Z"/>
          <path class="cls-9" d="M478.84,240.11c1.04-.62,2.77-.56,3.51.02.17.14.64.53.89,1.22.32.89.01,1.93-.52,2.58-.71.87-1.96,1.09-2.95.69-1.34-.54-1.86-2.09-1.6-3.25.05-.21-.19-.61.65-1.11"/>
          <path class="cls-9" d="M442.29,244.51c1.04-.62,2.77-.56,3.51.02.17.14.64.53.89,1.22.32.89.01,1.93-.52,2.58-.71.87-1.96,1.09-2.95.69-1.34-.54-1.86-2.09-1.6-3.25.05-.21-.19-.61.65-1.11"/>
          <path class="cls-9" d="M469.68,230.78c-.04-.19.44-.31.41-.5,7.22-4.02,13.35-3.62,15.53-3.47,1.66.11,3.89.26,5.53,1.19,0,0,3.7,2.44,4.37,3.64.67,1.2-2.56-.17-2.56-.17-.67-.15-1.15-.4-1.83-.42-3.69-.12-7.07-.52-10.58.85-3.01,1.15-7.23,2.8-9.96,5.02-.39-2.09-.41-4.09-.9-6.13Z"/>
          <path class="cls-9" d="M435.47,234.74c2.05-.71,8.7-2.76,16.55-1.06.4,2.33.52,3,.92,5.33-3.34-1.38-6.45-1.04-9.73-1.33-2.04-.18-5.44.55-7.52,1.07l-.22-4Z"/>
          <path class="cls-5" d="M466.17,274.24c5.14-.6,14.5-1.27,14.5-1.27,0,0-1.17,12.61-13.09,13.99s-13.99-11.6-13.99-11.6c0,0,7.44-.52,12.58-1.12Z"/>
          <path class="cls-28" d="M466.12,274.24c2.45-.28,12.82-1.55,12.82-1.55,0,0-2.91,8.56-11.75,9.59-9.59,1.11-12.2-6.96-12.2-6.96l11.13-1.08Z"/>
          <path class="cls-41" d="M466.06,274.63c2.45-.28,9.84-1.57,9.84-1.57,0,0-2.36,3.04-9.7,3.89-7.34.85-9.97-1.52-9.97-1.52l9.83-.8Z"/>
          <path class="cls-5" d="M453.23,275.1c.25-.09.87.02,2-.3,2.04-.59,2.9-1.44,4.35-1.73,2.48-.49,4.19.33,5.28.21s2.56-1.32,5.09-1.41c1.48-.06,4.71.65,6.75.59,1.23-.04,4.07,0,4.34.03.37.05-1.03,1.57-14.71,3.16-13.68,1.59-13.45-.41-13.1-.54Z"/>
          <path class="cls-45" d="M470.33,262.29c.61.03,1.2.35,1.54.87.38.57.54,1.55.21,2.18-.31.58-.95.77-1.55.91-.76.17-1.53.31-2.31.23-.27-.03-.6.06-.81.22-.18.13-.15.28.08.3.81.08,1.62,0,2.41-.16s1.59-.32,2.29-.71c.57-.32,1.11-.81,1.19-1.49s-.07-1.43-.5-1.98-1.13-.86-1.82-.89c-.28-.01-.59.05-.81.22-.17.12-.16.29.08.3h0Z"/>
          <path class="cls-39" d="M400.51,454.23c7.4,3.48,14.69,6.92,22.39,9.71,1.98.72,3.97,1.41,5.96,2.09,3.12-15.04,6.2-27.49,8.96-34.61,11.65-30.04,6.31-116.57,6.31-116.57-2.95,1-26.15,10-32.84,31.52-6.69,21.52-12.09,83.73-15.51,102.74-.18.91-.34,1.83-.5,2.75,1.77.76,3.51,1.56,5.22,2.36Z"/>
          <path class="cls-39" d="M461.42,307.84l-26.21,11.25-25.5,81.98c-2.64,4.44-8.46,19.08,3.29,41.92,4.08,7.93,9.05,18.32,7.26,26.46-.67,3.05-.21,7.16-1.16,10.23,17.02,2.7,31.25-.88,48.3-2.65,11.62-1.2,22.32,13.96,33.8,11.82s24.47-3.13,35.96-5.27c11.07-2.06,34.85-5,46.09-5.57-3.87-9.85-5.43-37.69-5.43-37.69l-15.18-123.45-40.56-14.49s-11.86,21.86-38.37,20.75c-26.51-1.11-22.31-15.3-22.31-15.3Z"/>
          <path class="cls-39" d="M404.92,487.24c1.37-11.7,3.17-20.43,6.84-32.3,1-3.23,8.83,10.28,9.28,6.71,5.83,1.48,7.1,1.63,13.11,2.69,49.84,8.83,101.79,3.87,152.68,1.82,7.37,14.32,16.76,34.53,17.76,46.28,2.06,24.08,7.91,251.03,8.21,275.17.03,2.3-45.91,14.47-50.39,14.93-16.8,1.73-65.26,2.63-82.18,2.59-33.25-.09-49.1-4.73-69.03-16.02-1.11-19.47-3.06-69.88-4.08-89.36-1.97-38.01-5.49-72.59-6.95-110.62-.63-16.43,1.03-41.45.75-57.89-.17-10.23,2.82-34.06,3.99-44Z"/>
          <path class="cls-39" d="M569.55,454.96l-.35,9.03,43.68,15.24c3.67-10.85,6.31-22.86,6.07-27.21-1.05-18.59-13.82-80.5-32.91-117.76-10.68-17.64-47.62-25.44-47.62-25.44l6.79,70.94,24.34,75.19Z"/>
          <path class="cls-66" d="M411.67,357.59c.34,2.36.67,4.72.99,7.09.23,1.72.46,3.44.67,5.16.11.95.4,2.08.29,3.03-.08.71-.42,1.45-.64,2.13-.44,1.33-.89,2.66-1.34,3.99-1.28,3.78-2.54,7.56-3.75,11.37-1.41,4.47-2.76,8.97-3.9,13.51s-1.97,8.97-1.84,13.65c.15,5.41,1.15,10.83,2.89,15.95.99,2.9,2.23,5.71,3.07,8.66,2.49,8.83.87,18.21-.9,27.01-.03.14.68.04.71-.13,1.61-8.03,3.18-16.62,1.48-24.77-.56-2.69-1.49-5.28-2.47-7.84-1.79-4.69-3.12-9.46-3.71-14.45-.62-5.27-.34-10.39.85-15.55,1.02-4.47,2.29-8.88,3.64-13.26,2.03-6.63,4.54-13.13,6.47-19.79.21-.74.16-1.28.08-2.06-.19-1.8-.43-3.6-.67-5.4-.38-2.84-.77-5.67-1.18-8.5-.02-.13-.75.02-.72.19h0Z"/>
          <path class="cls-9" d="M494.31,167.55c8.66-3.43,26.93,3.99,33.05,11,6.13,7.01,10.68,15.08,11.87,24.32.68,5.23.95,10.55.17,15.76"/>
          <path class="cls-9" d="M509.3,175.89c-2.2-9.02-23.92-11.8-33.03-10.32-20.64,3.35-25.36,10.19-32.41,16.15"/>
          <path class="cls-75" d="M356.28,355.07s-7.76,12.45-28.95,17.83l-4.6-9.14s20.7-6.21,27.8-17.31l5.75,8.61Z"/>
          <path class="cls-66" d="M473.4,321.96c-6.23,16.62-11.52,33.71-15.74,50.94-2.87,11.73-5.34,23.74-5.58,35.85-.21,10.81.43,21.65,1.16,32.43,1.44,21.14,3.56,42.23,5.98,63.28.5,4.36.81,8.65,1.05,13.03.62,11.22,1.22,22.44,1.81,33.66.89,17.11,1.76,34.22,2.58,51.33.96,19.96,1.86,39.92,2.69,59.89.81,19.62,1.54,39.25,2.11,58.88.46,15.97.84,31.95.83,47.93,0,9.08.36,18.56-1.12,27.56-.14.87-.29,1.79-.65,2.6-.15.34.57.29.68.04.95-2.11,1-4.76,1.18-7.03.37-4.6.48-9.22.56-13.83.24-14.54-.04-29.09-.39-43.62-.45-18.81-1.09-37.62-1.82-56.42-.78-20.18-1.66-40.35-2.6-60.51-.85-18.24-1.74-36.47-2.68-54.7-.67-13.11-1.37-26.22-2.08-39.33-.26-4.82-.37-9.68-.81-14.5-1.47-16.31-3.63-32.56-5.05-48.88-1.06-12.15-1.99-24.32-2.47-36.5-.43-10.92-.31-21.66,1.46-32.47,3.65-22.33,10.53-44.26,18.12-65.54.5-1.39.99-2.78,1.51-4.16.1-.27-.63-.19-.73.08h0Z"/>
          <circle class="cls-75" cx="472.01" cy="348.61" r="1.81"/>
          <circle class="cls-75" cx="465.69" cy="374.7" r="1.81"/>
          <circle class="cls-75" cx="459.1" cy="403.89" r="1.81"/>
          <circle class="cls-75" cx="460.06" cy="436.4" r="1.81"/>
          <circle class="cls-75" cx="462.89" cy="470.86" r="1.81"/>
          <circle class="cls-75" cx="467.16" cy="506.81" r="1.81"/>
          <circle class="cls-24" cx="516.69" cy="263.05" r="3.04"/>
          <path class="cls-75" d="M531.92,305.68s-6.57,25.46-31.76,28.26c-25.19,2.8-26.39-12.01-26.39-12.01,0,0-5.83,10.38-18.34,7.16-11.28-2.9-8.05-10.59-4.12-15.88,2.52-3.39,6.25-5.66,10.39-6.51l6.18-1.27s-13.65,12.6,7.12,14.17c20.77,1.57,39.08-13.14,43.04-20.14,1.5-2.65,14.24,5.3,13.89,6.23Z"/>
          <path class="cls-66" d="M393.57,409.41c1.78,2.66,2.83,5.57,3.12,8.76.42,4.53-.2,9.14-.73,13.63-.03.25.7.11.72-.11.53-4.52,1.15-9.17.73-13.72-.3-3.22-1.37-6.15-3.17-8.83-.12-.17-.82.05-.68.27h0Z"/>
          <path class="cls-47" d="M557.54,365.94c1.16,38.16,8.62,81.34,8.62,81.34l-96.87,50.49s1.98,20.82,1.98,20.82c35.32-2.4,79.5-9.07,121.71-24.4,13.99-5.08,17.9-19.86,19.99-36.52.86-6.86-13.72-45.12-15.12-71.39-17.12-6.98-22.25-16.52-40.31-20.34Z"/>
          <path class="cls-39" d="M557.34,364.74c-1.53,38.14,4.94,81.44,4.94,81.44l-92.01,45.4s22.78,31.61,22.78,31.61c35.4.09,63.71-12.39,106.89-24.72,14.31-4.08,19.92-16.88,20.26-33.67.72-35.47-14.3-49.1-13.85-75.4-16.59-8.17-31.26-19.58-49.01-24.66Z"/>
          <path class="cls-45" d="M438.24,498.55c-1.61.3-3.24.48-4.86.75-1.73.29-3.65.53-5.26,1.26-.78.35-1.29.75-1.76,1.47s-.86,1.55-1.15,2.36-.44,1.6-.47,2.42c-.04,1,.29,2.04.59,2.99.08.26,1.07-.01.99-.27-.26-.81-.52-1.69-.59-2.54-.06-.77.1-1.61.32-2.34s.58-1.52.96-2.22c.49-.9,1.05-1.48,2.03-1.82,2.89-.98,6.05-1.09,9.03-1.65.13-.02.56-.11.57-.29s-.29-.15-.41-.13h0Z"/>
          <path class="cls-45" d="M440.36,508.31c-1.7-.11-3.49-.38-5.19-.16-1.4.18-2.78.6-3.74,1.7s-1.18,2.62-.77,4.02c.22.76.64,1.51,1.09,2.16.18.25.42.66.75.74.22.05.55-.01.7-.19.14-.16.12-.32-.1-.38.16.04.01-.03-.07-.11-.12-.13-.23-.27-.33-.42-.37-.52-.69-1.09-.92-1.69-.49-1.25-.46-2.72.36-3.82,1.35-1.8,3.91-1.52,5.9-1.39.65.04,1.29.09,1.94.13.2.01.56-.07.65-.28s-.08-.3-.28-.32h0Z"/>
          <path class="cls-66" d="M564.21,449.15c3.5.78,6.78,2.33,9.01,5.22,2.12,2.74,3.12,6.16,3.91,9.48.08.33.8.14.72-.19-.81-3.41-1.86-6.94-4.07-9.73s-5.62-4.47-9.16-5.26c-.3-.07-.86.38-.42.48h0Z"/>
          <path class="cls-75" d="M489.49,526.71s-13.44-10.64-18.99-37.72l9.95-4.93s8.66,21.71,18.63,38.59l-9.59,4.06Z"/>
          <path class="cls-66" d="M494.73,524.72c3.48-.86,6.97-1.72,10.45-2.59,8.37-2.07,16.74-4.14,25.11-6.21,10.13-2.51,20.26-5.01,30.39-7.52l26.29-6.51c4.26-1.06,8.59-1.98,12.82-3.17.06-.02.13-.03.19-.05.74-.18.64-.6-.11-.41-3.48.86-6.97,1.72-10.45,2.59-8.37,2.07-16.74,4.14-25.11,6.21-10.13,2.51-20.26,5.01-30.39,7.52-8.76,2.17-17.53,4.34-26.29,6.51-4.26,1.06-8.59,1.98-12.82,3.17-.06.02-.13.03-.19.05-.74.18-.64.6.11.41h0Z"/>
          <path class="cls-66" d="M552.43,335.99c-3.23,2.66-6.55,5.63-8.21,9.57-1.48,3.53-1.49,7.48-1.54,11.24-.05,4.72.05,9.3.77,13.97.81,5.26,2.01,10.46,3.31,15.61,2.23,8.8,5.05,17.43,7.4,26.19,1.53,5.72,3,11.46,4.51,17.19,1.7,6.47,3.83,13.05,4.79,19.67l.2-.31c-2.92,1.23-5.84,2.46-8.77,3.7-6.98,2.94-13.96,5.88-20.93,8.83-8.48,3.58-16.96,7.15-25.44,10.73-7.3,3.08-14.61,6.16-21.91,9.24l-7.27,3.07c-1.1.46-2.45.82-3.46,1.46-.04.03-.11.04-.15.07-.46.19-.05.58.32.42,2.92-1.23,5.84-2.46,8.77-3.7,6.98-2.94,13.96-5.88,20.93-8.83l25.44-10.73,21.91-9.24,7.27-3.07c1.09-.46,2.47-.81,3.46-1.46.04-.03.11-.04.15-.07.12-.05.22-.17.2-.31-.83-5.73-2.61-11.36-4.08-16.96-1.63-6.23-3.27-12.46-4.9-18.69-1.9-7.26-4.23-14.42-6.21-21.66-1.44-5.29-2.79-10.62-3.87-16-.91-4.56-1.72-9.23-1.76-13.89-.04-4.71-.34-9.83.87-14.43s4.96-8.24,8.66-11.28c.38-.31-.2-.55-.48-.32h0Z"/>
          <circle class="cls-24" cx="496" cy="351.49" r="2.51"/>
          <circle class="cls-24" cx="498.94" cy="346.22" r="2.51"/>
          <circle class="cls-24" cx="501.93" cy="340.43" r="2.51"/>
          <circle class="cls-24" cx="493.04" cy="356.86" r="2.51"/>
          <circle class="cls-24" cx="489.79" cy="362" r="2.51"/>
          <circle class="cls-24" cx="486.5" cy="367.52" r="2.51"/>
          <circle class="cls-24" cx="482.78" cy="372.25" r="2.51"/>
          <circle class="cls-24" cx="478.84" cy="376.96" r="2.51"/>
          <circle class="cls-24" cx="474.44" cy="381.63" r="2.51"/>
          <circle class="cls-24" cx="469.87" cy="385.32" r="2.51"/>
          <circle class="cls-24" cx="464.55" cy="388.91" r="2.51"/>
          <circle class="cls-24" cx="458.9" cy="390.96" r="2.51"/>
          <circle class="cls-24" cx="452.79" cy="391.32" r="2.51"/>
          <circle class="cls-24" cx="446.65" cy="389.96" r="2.51"/>
          <circle class="cls-24" cx="441.91" cy="386.39" r="2.51"/>
          <circle class="cls-24" cx="439.43" cy="380.84" r="2.51"/>
          <circle class="cls-24" cx="439.06" cy="375.06" r="2.51"/>
          <circle class="cls-24" cx="439.58" cy="368.72" r="2.51"/>
          <circle class="cls-24" cx="440.93" cy="362.46" r="2.51"/>
          <circle class="cls-24" cx="442.51" cy="356.54" r="2.51"/>
          <circle class="cls-24" cx="444.43" cy="350.38" r="2.51"/>
          <circle class="cls-24" cx="445.97" cy="344.89" r="2.51"/>
          <circle class="cls-24" cx="447.85" cy="339.24" r="2.51"/>
          <circle class="cls-24" cx="450.24" cy="333.69" r="2.51"/>
          <path class="cls-2" d="M312.14,473.44c24.6,20.57,60.66,37.11,94.21,32.63,40.72-5.44,70.16-15.63,88.01-51.35,4.05-.11,8.13-.43,12.24-.98,66.41-8.87,112.25-73.11,103.88-143.48-5.84-49.09-41.55-99.89-82.85-101.92,6.21-54.62-55.92-97.07-110.78-89.74-13.62,1.82-26.3,6.3-37.65,12.89-27.16-23.8-63.17-36.12-100.9-31.08-45.12,6.03-80.81,16.58-100.08,56.46-11.47-2.07-24.64,16.47-36.78,18.09-66.41,8.87-121.44,75.12-113.07,145.49,5.44,45.73,29.05,64.55,65.87,82.47.06.52-.1,9.52,0,10.04,5.11,27.58,15.35,45.93,46.18,68.63"/>
          <path class="cls-7" d="M251.39,290.26c5.93-14.06,9.84-28.93,11.52-44.1.84-7.57,1-15.16,1.02-22.76.01-6.72-.14-13.5-1.25-20.14-.88-5.27-2.44-10.23-5.02-14.91-2.6-4.72-5.77-9.16-9.34-13.19-3.22-3.63-6.95-7.27-11.42-9.33-1.15-.53-2.37-.83-3.57-1.24-1.76-.6-3.57-1.08-5.38-1.49-6.53-1.47-13.01-1.57-19.67-1.14-4.01.25-8.03.53-12.01,1.12-6.5.96-12.77,4.07-17.56,8.55-4.48,4.19-7.88,9.66-10.81,15-3.09,5.62-5.65,11.54-7.71,17.62-2.04,6.02-3.62,12.23-4.39,18.54-.9,7.41-.82,15.01-.23,22.44.59,7.43,1.45,15.02,3.2,22.27.83,3.44,1.96,6.79,3.47,9.99.4.84.82,1.67,1.25,2.49.22.41.44.82.67,1.22.03.05.75,1.14.78,1.03-.05.24-.93.74-1.11.89l-4.47,3.57c-.44.35-1.05.7-1.42,1.13-.24.29.38-.04-.14.05-2.92.51-5.85,2.74-7.69,4.94-.74.88-1.36,1.85-1.88,2.87-.31.62-.58,1.25-.81,1.9-.2.57-.28,1.22-.68,1.68-.24.27.62.21.8,0,.77-.86.9-2.35,1.41-3.4.6-1.26,1.39-2.44,2.34-3.48,1.4-1.54,3.15-2.77,5.08-3.57.67-.28,1.49-.38,2.11-.74,1.17-.68,2.24-1.78,3.3-2.63,1.29-1.03,2.58-2.06,3.87-3.09.03-.03.12-.13.09-.18-3.21-5.49-5.39-11.27-6.66-17.5-1.22-5.99-1.95-12.13-2.5-18.22-1.09-12.06-.65-24.17,2.52-35.89,2.87-10.6,7.29-20.97,13.35-30.14,2.99-4.53,6.39-8.79,10.95-11.83,3.16-2.11,6.7-3.71,10.39-4.61,4.33-1.06,8.94-1.21,13.36-1.51,6.18-.42,12.22-.49,18.33.67,2.74.52,5.35,1.32,8.01,2.14,8.18,2.52,14.29,9.79,19.09,16.56,2.5,3.53,4.81,7.29,6.48,11.29,1.84,4.4,2.74,9.22,3.3,13.93.68,5.79.77,11.64.74,17.46-.03,6.57-.16,13.12-.8,19.66-1.24,12.72-4.04,25.28-8.3,37.32-1.06,2.98-2.21,5.93-3.44,8.85-.11.26.75.16.86-.11h0Z"/>
          <path class="cls-7" d="M262.43,309.61c.49,0,.66-.64.08-.64-.49,0-.66.64-.08.64h0Z"/>
          <path class="cls-3" d="M262.9,308.61s3.14-4.54-11.95-18.3"/>
          <path class="cls-45" d="M237.55,234.68c-.47,1.69-.11,3.6.22,5.27.46,2.3,1.14,4.56,1.87,6.79.63,1.92,1.32,3.83,2,5.74.18.49.44,1.03.52,1.55.14.87-.73,1.67-1.55,2.01-1.25.53-2.73.67-4.07.72-1.57.06-3.35.07-4.79-.64-.32-.15-1.37.31-.92.54,2.4,1.18,5.84.9,8.37.35,1.49-.33,4.33-1.16,4.14-3.17-.05-.52-.35-1.1-.53-1.59-.33-.94-.67-1.88-1.01-2.82-.88-2.49-1.71-5-2.37-7.56-.58-2.25-1.38-5.03-.74-7.34.11-.38-1.05-.22-1.15.16h0Z"/>
          <path class="cls-45" d="M226.95,251.75c-.7.12-1.4.43-1.87.99s-.6,1.19-.6,1.88.2,1.33.78,1.76,1.33.53,2.03.61c.96.11,1.91.12,2.85-.12.11-.03.57-.16.53-.33s-.54-.04-.62-.02c-.73.18-1.54.07-2.27-.03s-1.45-.31-1.85-.94-.37-1.54-.16-2.2c.1-.31.26-.59.48-.82.09-.1.2-.19.31-.26.05-.03.09-.06.14-.08-.03.01-.11.02.03,0,.16-.03.63-.12.67-.31s-.38-.13-.46-.11h0Z"/>
          <path class="cls-24" d="M221.02,235.99s-4.75,2.64-14.04.44c-2.58-.61-4.4-2.19-3.5-4.56,1.8-4.72,7.81-4.95,11.26-3.83,3.74,1.22,6.52,3.46,6.29,7.96Z"/>
          <g>
            <path class="cls-73" d="M219.86,231.45c.8,2.99-1.08,4.96-4.26,5.62-3.18.67-6.45-.22-7.25-3.2-.8-2.99.41-5.68,3.59-6.35,3.18-.67,7.12.95,7.92,3.93Z"/>
            <path class="cls-62" d="M217.06,231.75c.45,1.66-.62,3.3-2.39,3.67-1.76.37-3.55-.67-4-2.33-.45-1.66.62-3.3,2.39-3.67,1.76-.37,3.55.67,4,2.33Z"/>
          </g>
          <path class="cls-24" d="M239.02,236.42s7.29,4.07,14.2,1.42c2.48-.95,3.96-1.94,3.27-4.38-1.38-4.84-7.35-5.55-10.88-4.69-3.83.93-6.42,3.16-6.59,7.65Z"/>
          <g>
            <path class="cls-73" d="M244.04,231.93c-1.06,2.91.64,5.02,3.75,5.94,3.11.91,6.45.29,7.51-2.63,1.06-2.91.09-5.7-3.02-6.61-3.11-.91-7.18.39-8.24,3.3Z"/>
            <path class="cls-62" d="M246.79,232.44c-.59,1.62.33,3.34,2.06,3.84,1.72.51,3.6-.39,4.19-2.01.59-1.62-.33-3.34-2.06-3.84-1.72-.51-3.6.39-4.19,2.01Z"/>
          </g>
          <ellipse class="cls-24" cx="212.25" cy="231.26" rx=".7" ry=".65"/>
          <path class="cls-16" d="M220.84,233.28s-4.04-5.13-11.23-4.24c-7.19.88-6.39,4.86-6.39,4.86,0,0-1.33-4.74,3.83-6.61,3.71-1.35,11.12-1.87,13.79,6Z"/>
          <path class="cls-16" d="M239.4,234.03s3.24-4.77,10.67-3.89c7.43.88,6.6,4.86,6.6,4.86,0,0,1.37-4.74-3.96-6.61-3.83-1.35-11.71-1.5-13.31,5.64Z"/>
          <path class="cls-16" d="M203.27,233.26s-3.97-.82-4.79-3.44c0,0,2.87,1.78,6.66-1.15,0,0-1.89,2.85-1.87,3.72v.87Z"/>
          <ellipse class="cls-24" cx="248.71" cy="232.22" rx=".7" ry=".65"/>
          <path class="cls-45" d="M456.6,245.91c.73,1.94.37,4.29.09,6.29-.37,2.65-.97,5.26-1.61,7.85-.43,1.73-1.01,3.45-1.32,5.2-.34,1.88,2.04,2.66,3.49,2.89,2.81.44,6.52.41,9.03-1.11.66-.4-.34-.58-.72-.35-1.23.75-2.87.88-4.27.96-1.25.07-2.5.03-3.73-.2-1-.19-2.59-.76-2.71-1.95-.03-.31.17-.84.25-1.17,1.03-4.15,2.21-8.27,2.78-12.51.27-1.97.59-4.3-.13-6.21-.15-.41-1.29-.07-1.15.31h0Z"/>
          <path class="cls-24" d="M474.33,245.61s4.96,2.21,14.02-.81c2.51-.84,4.19-2.57,3.08-4.86-2.21-4.54-8.22-4.24-11.55-2.81-3.61,1.55-6.18,4.03-5.55,8.48Z"/>
          <path class="cls-73" d="M475.08,240.99c-.53,3.04,1.52,4.84,4.74,5.22,3.23.38,6.41-.79,6.94-3.84.53-3.04-.92-5.62-4.14-6.01-3.23-.38-7,1.58-7.54,4.62Z"/>
          <path class="cls-62" d="M477.89,241.04c-.3,1.69.91,3.23,2.7,3.44,1.79.21,3.48-.98,3.78-2.67.3-1.69-.91-3.23-2.7-3.44-1.79-.21-3.48.98-3.78,2.67Z"/>
          <path class="cls-24" d="M456.44,247.64s-6.9,4.7-14.01,2.68c-2.55-.73-4.12-1.58-3.65-4.07.94-4.95,6.83-6.18,10.42-5.64,3.9.58,6.68,2.57,7.24,7.04Z"/>
          <path class="cls-73" d="M451.04,243.61c1.32,2.81-.19,5.06-3.21,6.25-3.02,1.19-6.4.86-7.71-1.95-1.32-2.81-.59-5.67,2.42-6.85,3.02-1.19,7.18-.25,8.5,2.55Z"/>
          <path class="cls-62" d="M448.34,244.37c.73,1.56-.03,3.35-1.71,4.01-1.67.66-3.62-.07-4.35-1.63-.73-1.56.03-3.35,1.71-4.01,1.67-.66,3.62.07,4.35,1.63Z"/>
          <ellipse class="cls-24" cx="482.65" cy="240.12" rx=".7" ry=".65" transform="translate(-19.44 43.87) rotate(-5.1)"/>
          <path class="cls-16" d="M474.27,242.89s3.57-5.46,10.81-5.23c7.24.24,6.8,4.27,6.8,4.27,0,0,.9-4.84-4.4-6.25-3.81-1.01-11.24-.88-13.2,7.2Z"/>
          <path class="cls-16" d="M455.85,245.29s-3.65-4.46-10.97-2.92c-7.32,1.54-6.14,5.43-6.14,5.43,0,0-1.79-4.6,3.35-6.94,3.69-1.68,11.53-2.54,13.76,4.43Z"/>
          <path class="cls-16" d="M491.76,241.32s3.88-1.17,4.47-3.85c0,0-2.7,2.02-6.73-.55,0,0,2.13,2.67,2.2,3.54l.07.87Z"/>
          <ellipse class="cls-24" cx="446.41" cy="244.32" rx=".7" ry=".65" transform="translate(-19.96 40.67) rotate(-5.1)"/>
        </g>
      </g>
    </g>
  </g>
</svg>