<?xml version="1.0" encoding="UTF-8"?>
<svg xmlns="http://www.w3.org/2000/svg" xmlns:xlink="http://www.w3.org/1999/xlink" viewBox="0 0 1334 1000">
  <defs>
    <style>
      .cls-1, .cls-2 {
        fill: none;
      }

      .cls-3 {
        fill: #040404;
      }

      .cls-4 {
        fill: #271911;
      }

      .cls-5 {
        fill: #0a1d25;
      }

      .cls-6, .cls-7, .cls-8 {
        fill: #010101;
      }

      .cls-9 {
        fill: url(#linear-gradient-3);
      }

      .cls-10 {
        fill: url(#linear-gradient-2);
      }

      .cls-11 {
        fill: #496d34;
      }

      .cls-12 {
        fill: url(#linear-gradient);
      }

      .cls-13 {
        fill: #f0ecf5;
      }

      .cls-14 {
        fill: #643c2a;
      }

      .cls-15 {
        fill: #a66e53;
      }

      .cls-16 {
        fill: #f09a24;
      }

      .cls-17 {
        fill: #374c26;
      }

      .cls-18 {
        fill: #6c3a26;
      }

      .cls-19 {
        fill: #646565;
      }

      .cls-20 {
        fill: #7d7c7c;
      }

      .cls-21, .cls-22 {
        fill: #fff;
      }

      .cls-2 {
        stroke: #4f3026;
      }

      .cls-2, .cls-7, .cls-22, .cls-8 {
        stroke-miterlimit: 10;
      }

      .cls-23 {
        fill: #a66f54;
      }

      .cls-7 {
        stroke: #010101;
        stroke-width: .13px;
      }

      .cls-24 {
        fill: #4e4d4e;
      }

      .cls-25 {
        fill: #542d24;
      }

      .cls-22 {
        stroke: #241f20;
      }

      .cls-26 {
        fill: #4f3026;
      }

      .cls-27 {
        fill: #3c5d2d;
      }

      .cls-8 {
        stroke: #191615;
        stroke-width: .13px;
      }

      .cls-28 {
        fill: #0e3b54;
      }

      .cls-29 {
        fill: #efecf4;
      }

      .cls-30 {
        fill: #251810;
      }
    </style>
    <linearGradient id="linear-gradient" x1="663.73" y1="977.14" x2="713.71" y2="-209.58" gradientUnits="userSpaceOnUse">
      <stop offset=".29" stop-color="#bbe5f3"/>
      <stop offset=".81" stop-color="#76c4d8"/>
    </linearGradient>
    <linearGradient id="linear-gradient-2" x1="644.97" y1="1163.63" x2="657.95" y2="855.35" gradientUnits="userSpaceOnUse">
      <stop offset=".01" stop-color="#78983e"/>
      <stop offset=".98" stop-color="#4a6c35"/>
    </linearGradient>
    <linearGradient id="linear-gradient-3" x1="704.3" y1="-292.63" x2="721.49" y2="-142.5" gradientTransform="translate(58.13 104.71) rotate(-9.79) scale(1 -1)" gradientUnits="userSpaceOnUse">
      <stop offset=".16" stop-color="#a47055"/>
      <stop offset=".53" stop-color="#a47055"/>
      <stop offset=".62" stop-color="#7c5540"/>
      <stop offset=".75" stop-color="#493224"/>
      <stop offset=".86" stop-color="#211711"/>
      <stop offset=".94" stop-color="#0f0e0e"/>
      <stop offset=".99" stop-color="#010101"/>
    </linearGradient>
  </defs>
  <g id="Layer_1" data-name="Layer 1">
    <rect class="cls-12" x="-62.9" y="-27.23" width="1498.42" height="936.5"/>
    <path class="cls-11" d="M782.02,936.06c7.62-8.25,15.7-17.57,15.93-28.8.23-11.23-12.7-22.44-22.06-16.24,2.72-6.75.17-15.22-5.81-19.35-5.99-4.13-14.81-3.51-20.15,1.42-3.03-16.29-27.92-22.71-38.46-9.93.99-6.36-8-10.63-13.59-7.45-5.59,3.19-7.51,10.45-7.06,16.87-3.66-7.51-12.24-12.31-20.56-11.49-8.32.82-15.8,7.2-17.92,15.28-.8-7.11-1.97-14.94-7.45-19.53-5.49-4.59-16.4-1.99-16.25,5.16,1.65-10.1-3.98-20.96-13.19-25.45-9.2-4.48-21.22-2.22-28.16,5.31-1.35-9.9-5.05-20.23-13.27-25.91-8.22-5.69-21.67-4.2-25.85,4.88-4.73-7.74-12.32-14.83-21.39-14.82-9.07,0-17.5,10.77-12.58,18.39-6.71-11.19-27.62-6.78-29.23,6.17-4.82-7.48-14.88-11.12-23.38-8.47-8.5,2.66-14.68,11.38-14.39,20.28-8.45-5.2-20.18-4.36-27.81,1.98-7.63,6.35-10.58,17.74-6.99,26.99-25.39,2.03-46.64,69.21-36.76,92.69"/>
    <path class="cls-17" d="M743.02,946.13c-8.07-8.73-16.61-18.6-16.85-30.48-.24-11.88,13.44-23.75,23.35-17.18-2.87-7.14-.18-16.1,6.15-20.48,6.33-4.37,15.67-3.72,21.33,1.5,3.21-17.24,29.55-24.04,40.7-10.5-1.05-6.73,8.46-11.25,14.38-7.88s7.94,11.06,7.47,17.86c3.87-7.95,12.96-13.03,21.76-12.16,8.8.87,16.72,7.62,18.97,16.17.84-7.52,2.08-15.81,7.89-20.67,5.81-4.86,17.35-2.11,17.2,5.46-1.74-10.69,4.21-22.19,13.95-26.93,9.74-4.74,22.46-2.35,29.8,5.62,1.43-10.48,5.34-21.4,14.04-27.42,8.7-6.02,22.93-4.45,27.36,5.16,5.01-8.19,13.04-15.69,22.64-15.68,9.6,0,18.52,11.39,13.32,19.46,7.1-11.85,29.23-7.18,30.93,6.53,5.11-7.92,15.75-11.77,24.74-8.96,8.99,2.81,15.54,12.04,15.23,21.46,8.94-5.5,21.36-4.62,29.43,2.1,8.07,6.72,11.19,18.77,7.4,28.56,26.87,2.15,46.5,34.42,36.05,59.27"/>
    <path class="cls-11" d="M337.94,941.96c7.62-8.25,15.7-17.57,15.93-28.8.23-11.23-12.7-22.44-22.06-16.24,2.72-6.75.17-15.22-5.81-19.35-5.99-4.13-14.81-3.51-20.15,1.42-3.03-16.29-27.92-22.71-38.46-9.93.99-6.36-8-10.63-13.59-7.45-5.59,3.19-7.51,10.45-7.06,16.87-3.66-7.51-12.24-12.31-20.56-11.49-8.32.82-15.8,7.2-17.92,15.28-.8-7.11-1.97-14.94-7.45-19.53-5.49-4.59-16.4-1.99-16.25,5.16,1.65-10.1-3.98-20.96-13.19-25.45-9.2-4.48-21.22-2.22-28.16,5.31-1.35-9.9-5.05-20.23-13.27-25.91-8.22-5.69-21.67-4.2-25.85,4.88-4.73-7.74-12.32-14.83-21.39-14.82-9.07,0-17.5,10.77-12.58,18.39-6.71-11.19-27.62-6.78-29.23,6.17-4.82-7.48-14.88-11.12-23.38-8.47-8.5,2.66-14.68,11.38-14.39,20.28-8.45-5.2-20.18-4.36-27.81,1.98-7.63,6.35-10.58,17.74-6.99,26.99-25.39,2.03-43.94,32.53-34.06,56.01"/>
    <path class="cls-17" d="M90.26,944.05c-7.63-8.26-15.72-17.6-15.95-28.85-.23-11.25,12.72-22.48,22.1-16.26-2.72-6.76-.17-15.24,5.82-19.38,6-4.14,14.83-3.52,20.19,1.42,3.04-16.32,27.97-22.75,38.52-9.94-.99-6.37,8.01-10.65,13.61-7.46,5.6,3.19,7.52,10.47,7.07,16.9,3.67-7.53,12.26-12.33,20.59-11.51,8.33.82,15.83,7.21,17.95,15.31.8-7.12,1.97-14.97,7.47-19.56,5.49-4.6,16.42-1.99,16.28,5.17-1.65-10.12,3.99-21,13.21-25.49,9.22-4.49,21.26-2.22,28.21,5.32,1.35-9.92,5.06-20.26,13.29-25.96,8.23-5.7,21.71-4.21,25.89,4.88,4.74-7.75,12.34-14.85,21.43-14.84,9.09,0,17.53,10.78,12.6,18.42,6.72-11.21,27.66-6.79,29.28,6.18,4.83-7.49,14.9-11.14,23.41-8.48,8.51,2.66,14.71,11.4,14.41,20.31,8.46-5.21,20.21-4.37,27.85,1.99,7.64,6.36,10.59,17.76,7,27.03,25.43,2.03,44.01,32.58,34.12,56.1"/>
    <path class="cls-27" d="M11.33,956.85c-6.03-6.52-12.41-13.9-12.59-22.78-.18-8.88,10.04-17.75,17.45-12.84-2.15-5.34-.14-12.03,4.6-15.3,4.73-3.27,11.71-2.78,15.94,1.12,2.4-12.88,22.08-17.96,30.41-7.85-.78-5.03,6.32-8.41,10.74-5.89,4.42,2.52,5.94,8.27,5.58,13.34,2.89-5.94,9.68-9.74,16.26-9.09,6.58.65,12.49,5.69,14.17,12.09.63-5.62,1.56-11.82,5.89-15.45,4.34-3.63,12.97-1.57,12.85,4.08-1.3-7.99,3.15-16.58,10.43-20.12,7.28-3.54,16.78-1.75,22.27,4.2,1.06-7.83,3.99-15.99,10.49-20.49,6.5-4.5,17.14-3.32,20.44,3.86,3.74-6.12,9.74-11.72,16.91-11.72,7.17,0,13.84,8.51,9.95,14.54,5.3-8.85,21.84-5.36,23.11,4.88,3.81-5.92,11.77-8.8,18.48-6.69,6.72,2.1,11.61,9,11.38,16.03,6.68-4.11,15.96-3.45,21.99,1.57,6.03,5.02,8.36,14.02,5.53,21.34,20.08,1.61,34.74,25.72,26.93,44.29"/>
    <path class="cls-27" d="M1404.22,959.53c7.46-7.73,15.37-16.47,15.63-26.96.25-10.49-12.33-20.94-21.49-15.11,2.67-6.31.21-14.22-5.62-18.06-5.83-3.84-14.44-3.24-19.67,1.38-2.91-15.21-27.19-21.15-37.51-9.17.98-5.94-7.77-9.91-13.24-6.92-5.47,2.99-7.36,9.79-6.94,15.79-3.55-7.01-11.92-11.47-20.04-10.68s-15.44,6.77-17.54,14.33c-.76-6.64-1.88-13.96-7.22-18.23-5.34-4.27-16-1.81-15.88,4.87,1.63-9.45-3.83-19.58-12.8-23.74-8.97-4.16-20.71-2.01-27.5,5.04-1.29-9.25-4.87-18.89-12.87-24.18-8-5.29-21.14-3.86-25.25,4.63-4.6-7.22-11.98-13.82-20.84-13.79-8.85.03-17.11,10.11-12.33,17.22-6.51-10.44-26.94-6.26-28.55,5.85-4.69-6.98-14.49-10.35-22.79-7.85-8.3,2.51-14.36,10.67-14.1,18.99-8.23-4.84-19.68-4.02-27.15,1.93-7.46,5.95-10.37,16.6-6.9,25.24-24.79,1.97-43.03,48.18-33.45,70.09"/>
    <path class="cls-10" d="M1383.65,1123.34H-81.98v-197.95l454.27-2.71c58.33-1.49,506.68-.89,565.02.55l446.33,2.16v197.95Z"/>
  </g>
  <g id="Layer_2" data-name="Layer 2">
    <path class="cls-22" d="M740.76,510.05c1.45-2.97,4.86-27.67,4.86-27.67,0,0,8.96-54.37,15.03-96.31,7.36-50.85,4-66.41-10.46-77.38-14.46-10.98-31.25-7.26-31.25-7.26,2.7.18-18.3,1.06-30.48,55.18-12.23,54.34-17.07,126.82-17.52,133.88l-186.6-29.62c.85,12.7.49,19.2-4.22,31.02l-6.04,15.16c40.77,18.25,142.31,38.31,196.35,52.41,20.87,5.47,34.38,9.97,51.74-10.36,13.73-16.08,14.71-21.7,18.59-39.05Z"/>
    <path class="cls-15" d="M658.08,545.71c-1.81-13.24-.28-47.78-.5-78.49-9.04,2.85-21.58-.39-31.05.33-.12.04,4.03,10.25,3.89,10.27-10.27,1.82-20.5,5.93-30.85,6.97,14.63,80.47,20.25,274.22,20.25,274.22l32.29,12.89,4.7-98.75c-.66-10.51,7.62-85.06,1.26-127.43Z"/>
    <path class="cls-15" d="M653.72,741.52l8.1,41.4-8.57,19.31-12.16,17.82-33.05,22.62s-5.48-1.16.07-8.92c5.41-6.79,11.45-13.29,18.07-19.46l4.17-21.08-5.54-9.5-6.82.85s.83,26.63-3.98,31.85c-.83.91-1.54,1.66-2.14,2.28-1.68,1.74-4.66,1.81-6.46.18l-2.66-2.42.3-39.57s3.46-17.32,4.93-21.38c2-4,5.38-9.78,8.16-13.53l.83-5.46,37.02,2.49-.28,2.52Z"/>
    <path class="cls-22" d="M934.97,519.19s-.51-70.39,7.89-122.99c7.96-49.78,26.07-51.75,23.6-51.76,0,0,15.01-4.33,28.76,4.8,13.75,9.13,17.67,23.05,13.9,69.59-3.11,38.39-8.14,88.22-8.14,88.22,0,0,1.88,23.48-47.34,14.69"/>
    <path class="cls-24" d="M1214.3,614.95l2.19,52.34c.62,34.89-6.9,58.79-16.55,92.33l-20.47,141.74s.1,61.61,6.28,112.51c5.38,44.13-8.53,123.37-8.53,123.37l-15.3,2.9c-13.82,2.62-27.96,3.14-41.94,1.53l-30-3.46-28.3-261.1-20.74-159.88-28.43-96.1,201.79-6.19Z"/>
    <path class="cls-24" d="M982.7,614.95l19.59,283.05c.01,12.35,4.96,23.57,10.63,83.02l10.78,101.31,3.88,44.04,8.71,1.5c11.96,2.4,24.19,3.17,36.35,2.28l26.65-1.09-29.56-508.29-87.04-5.82Z"/>
    <path class="cls-6" d="M1035.72,695.03c13.25,10.09,18.48,27.37,20.23,43.25.98,8.88.79,17.76,1.05,26.67.02.67.07,1.34.1,2.01l.65,13.33c.36,7.48.73,14.97,1.09,22.45l1.35,27.82c.48,9.8.95,19.61,1.43,29.41.44,9.08.88,18.15,1.32,27.23.34,7.09.69,14.18,1.03,21.27.19,3.84.37,7.69.56,11.53.05,1.02.15,2.02.25,3.03.35,3.55.7,7.1,1.05,10.64.6,6.05,1.19,12.1,1.79,18.15.78,7.92,1.56,15.83,2.34,23.75.9,9.15,1.81,18.29,2.71,27.44.97,9.78,1.93,19.56,2.9,29.35.95,9.66,1.91,19.31,2.86,28.97.89,9.05,1.79,18.11,2.68,27.16.76,7.7,1.52,15.39,2.28,23.09.57,5.74,1.13,11.48,1.7,17.22.31,3.15.62,6.3.93,9.45.04.4.08.81.12,1.21.02.24,1.13.03,1.09-.29-.17-1.68-.33-3.35-.5-5.03-.45-4.57-.9-9.15-1.35-13.72-.67-6.83-1.35-13.67-2.02-20.5-.84-8.5-1.68-17-2.52-25.49l-2.8-28.35c-.97-9.8-1.93-19.6-2.9-29.4-.94-9.55-1.89-19.1-2.83-28.65-.85-8.58-1.69-17.17-2.54-25.75-.69-7.02-1.39-14.04-2.08-21.06l-1.43-14.51c-.19-1.97-.43-3.94-.58-5.91s-.19-3.79-.28-5.68c-.28-5.73-.56-11.46-.84-17.19-.4-8.29-.81-16.59-1.21-24.88-.47-9.62-.94-19.23-1.4-28.85-.47-9.72-.95-19.44-1.42-29.16l-1.24-25.43c-.29-6.02-.59-12.04-.88-18.06-.11-2.3-.27-4.6-.34-6.9-.28-9.47-.07-18.89-1.24-28.32-1.05-8.45-3.05-16.83-6.73-24.55-3.15-6.6-7.52-12.68-13.38-17.13-.25-.19-1.22.24-1.03.39h0Z"/>
    <path class="cls-23" d="M1087.45,240.11s-1.02,44.12,5.35,58.5c1.54,3.49,22.45,12.33,22.45,12.33l-84.02,52.71-37.49-31.35s22.69-22.06,23.59-26.48c.9-4.41-2.96-36.82-2.96-36.82"/>
    <path class="cls-16" d="M1029.71,631.36c1.22-.33,2.4-.67,3.57-1.01-1.74.49-4.54,1.27-3.57,1.01Z"/>
    <path class="cls-21" d="M1219.68,612.5c-5.7-14.76-18.04-68.75-20-84.29-3.87-30.65,4.81-60.51-.37-91.06-.31-1.84.66-3.12,1.98-3.71-.62-2.13-1.24-4.3-1.85-6.54l1.52-9.28-2.8-25.48c-2.72-13.59-5.53-37.65-21.51-57-6.4-7.74-23.56-23.07-33.1-27.44-29.13-13.36-47.39-21.93-47.39-21.93,0,0-16.5,42.59-54.76,46.51-38.26,3.92-25.35-20.33-25.35-20.33l-10.39,6.66c-7.01,5.05-14.9,10.8-22.34,17.1,24.13,58.07,24.11,124.09,4.28,183.51.73,14.65,1.41,28.65,1.59,29.18,6,17.81.92,59.95,5.07,80.24"/>
    <path class="cls-28" d="M965.91,491.09c2.26,10.46,12.7,57,12.72,83.07l2.51,56.72s77.69,19.23,143.07,11.22c65.38-8.01,95.47-29.6,95.47-29.6-5.7-14.76-18.04-68.75-20-84.29-3.87-30.65,4.81-60.51-.37-91.06-.31-1.84.66-3.12,1.98-3.71-.62-2.13-1.24-4.3-1.85-6.54l1.52-9.28-1.11-16.66c-2.72-13.59,3.3-52.32-12.68-71.68-6.4-7.74-34.08-17.21-43.62-21.58-29.13-13.36-47.39-21.93-47.39-21.93,0,0-16.5,42.59-54.76,46.51-38.26,3.92-25.35-26.19-25.35-26.19l-10.39,6.66c-10.96,7.9-34.61,22.17-44.77,32.92,0,0-9.46,78.31,5.02,145.4Z"/>
    <path class="cls-22" d="M1034.97,331.94s2.25.15,6.47,1.8c4.21,1.65,9.35,13.59,9.35,13.59,0,0,20.26-7.51,32.09-20.57s20.66-36.75,20.66-36.75c0,0-3.25-8.5-13.95-10.96,0,0-33.4,45.74-54.62,52.88Z"/>
    <path class="cls-22" d="M1035.62,332.81s-12.25,4.25-14.29,14.36c0,0-9.58-9.95-12.64-20.64-3.05-10.7-2.84-9.93-2.84-9.93,0,0,7.23-14.51,12.83-14.09,0,0,2.75,26.64,16.93,30.31Z"/>
    <path class="cls-26" d="M1017.16,298.21s15.41-1.42,20.34-2.96,13.35-4.39,35.72-24.92c0,0-6.85,22.4-32.28,29.97,0,0-20.99,5.47-23.37,1.88l-.4-3.98Z"/>
    <path class="cls-8" d="M959.48,176.3s0,0,0,0c-3.32-8.51-4.83-13.84-3.28-20.23,1.09-4.51,7.74-9.88,7.74-9.88,0,0-.03-13.11,5.83-12.01,0,0,3.37-17.9,20.36-15.47,0,0,4.84-1.92,8.02.96,0,0,5.89-15.77,21.31-7.2,0,0,5.01-4.29,7.4-.04,0,0,8.33-10.47,18.61-4.08,0,0,23.21-7.75,30.96,7.01,0,0,10.79-7.47,18.16,3.18,0,0,6.04-.23,7.13,8.36,0,0,9.26,1.64,10.79,7.18,0,0,5.66,3.6,6.42,12.64.22,2.58-.69,2-1.07,5.58,6.19,9.67-1.17,11.81-1.17,11.81,8.83,8.59.66,21.61.66,21.61,0,0,4.71,6.93,3.21,11.9-2.05,6.8-13.16,15.34-13.16,15.34,0,0-5.02-17.02-5.72-28.12-.7-11.1-11.75-29.24-15.12-33.05-3.38-3.81-23.04,6.19-54.54,10.09-31.5,3.91-38.57-1.16-42.19.35-7.52,3.13-10.49,32.57-9.19,41.21,1.3,8.64.79,25.29.79,25.29,0,0-17.67-5.35-14.99-20.44,0,0-6.82-9.81-5.47-16.39,0,0-.08-2.66,1.36-4.18-.03-.03-6.51-5.77-2.87-11.41Z"/>
    <path class="cls-23" d="M1078.93,262.51c-10.62,16.06-24.38,27.8-41.59,33.99-16.88,6.08-31.65,2.37-34.44.15-15.34-12.17-21.35-21.8-28.73-37.6-2-4.29-2.85-9.11-3.27-14.11-.62-7.5-1.29-21.95-2.43-29.04-2.9-18.05-3.27-34.74,4.48-51.39,16.16-34.68,65.71-41.21,85.32-35.15,22.93,7.09,35.61,26.41,40.13,48.25,1.47,7.12,1.71,13.95.83,20.43-2.56,3.81-4.67,7.86-6.34,12.06"/>
    <g>
      <path class="cls-6" d="M973.23,166.38s-1.24,1.62-7.17,26.75c1.2-7.9.78-19.44,5.17-30.85,15.36-39.86,81.21-44.25,101.06-36.72,23.19,8.8,34.62,31.48,39.69,56.96,2.06,10.34,6.36,24.95,4.75,34.01-.12.13-10.13,9.69-10.13,9.69,0,0-13.16-8.58-17.73,5.07l-2.93-5.1s-9.61-11.34-13.1-42.43c0,0-1.97-13.09-2.37-17.04-1.25-12.19-10.95-8.21-17.64-5.29-4.16,1.82-13.44,3.9-17.93,4.45-11.47,1.39-26.19,1.61-31.54,2.43-7.52,1.15-30.13-1.92-30.13-1.92Z"/>
      <path class="cls-6" d="M973.05,166.38c-.41.54-.57,1.42-.78,2.04-1.21,3.71-2.16,7.5-3.12,11.28-1.14,4.47-2.22,8.96-3.28,13.45l.39-.05c.86-5.72.97-11.52,1.79-17.25s2.33-11.84,4.98-17.25c3.54-7.24,9.01-13.35,15.42-18.18,6.6-4.96,14.13-8.61,21.91-11.32,7.81-2.71,15.94-4.5,24.13-5.52,7.3-.91,14.7-1.24,22.04-.77,5.49.35,11.12,1.06,16.27,3.09,9.53,3.76,17.6,10.33,23.63,18.58s10.34,18.49,13.13,28.64c1.46,5.33,2.46,10.77,3.68,16.16,1.31,5.79,2.67,11.6,3.32,17.51.29,2.62.45,5.28.21,7.91-.05.61,0,1.54-.4,1.99-.3.34-.67.64-1,.96-2.42,2.32-4.85,4.64-7.28,6.96-.55.53-1.1,1.05-1.65,1.58l.33-.05c-3.99-2.59-9.94-4.01-14.05-.98-2.03,1.5-3.26,3.8-4.05,6.15l.39-.08c-1.17-2.04-2.29-4.11-3.63-6.04-1.91-2.74-3.37-5.81-4.66-8.88-2.69-6.43-4.51-13.22-5.84-20.05-.82-4.21-1.33-8.44-1.92-12.68-.3-2.14-.63-4.28-.94-6.42-.44-3.03-.88-6.06-1.25-9.1-.35-2.85-.61-6.06-2.85-8.13-1.78-1.65-4.3-1.83-6.59-1.48-2.7.42-5.27,1.46-7.76,2.53-3.29,1.42-6.72,2.37-10.2,3.19-3.72.87-7.46,1.53-11.26,1.91-8.43.86-16.9,1.06-25.33,1.75-2.46.2-4.88.6-7.35.62-3.16.03-6.32-.16-9.47-.4-5.26-.4-10.51-.97-15.75-1.65-.31-.04-.61-.08-.92-.12-.11-.01-.45.16-.24.19,3.93.53,7.87.97,11.82,1.35,3.23.31,6.47.57,9.71.72,2.66.12,5.36.22,8-.07,2.92-.32,5.83-.6,8.77-.78,4.35-.26,8.71-.48,13.06-.79s8.3-.57,12.39-1.24c3.78-.62,7.54-1.48,11.22-2.53,1.56-.45,3.11-.93,4.61-1.56,1.29-.54,2.56-1.11,3.86-1.6,2.5-.94,5.34-1.85,8.05-1.38,2.94.52,4.59,2.93,5.27,5.68.35,1.39.45,2.83.62,4.25s.38,2.94.59,4.41c.41,2.93.83,5.86,1.27,8.78s.71,5.57,1.13,8.35c1.16,7.71,2.87,15.39,5.53,22.74,1.41,3.89,3.07,7.75,5.26,11.27.42.68.86,1.35,1.35,1.98.67.87,1.22,2.04,1.8,3.05.43.74.85,1.48,1.28,2.23.06.11.35.03.39-.08,1.27-3.74,3.78-7.13,7.97-7.55,2.68-.27,5.41.56,7.8,1.72.54.26,1.08.54,1.58.87.09.06.26.02.33-.05,1.9-1.81,3.8-3.63,5.7-5.44,1.16-1.11,2.32-2.21,3.47-3.32.28-.27.62-.53.87-.84.38-.47.32-1.39.38-1.99.49-5.53-.53-11.19-1.6-16.59-1.15-5.77-2.51-11.49-3.72-17.25-2.23-10.58-5.64-21.05-11.1-30.43-5.11-8.77-12.12-16.42-20.99-21.47-3.28-1.87-6.78-3.46-10.44-4.42-2.67-.71-5.4-1.15-8.14-1.47-6.95-.8-14-.75-20.97-.19-8.17.66-16.31,2.07-24.19,4.32-8,2.28-15.81,5.45-22.9,9.84s-12.94,9.64-17.4,16.34c-2.56,3.84-4.5,8.03-5.85,12.44-1.95,6.35-2.64,12.96-3.18,19.55-.22,2.62-.41,5.25-.8,7.85-.02.14.36.06.39-.05,1.57-6.67,3.17-13.33,4.99-19.94.58-2.12,1.13-4.29,1.95-6.33.06-.15.15-.38.21-.46.1-.13-.29-.09-.36,0Z"/>
    </g>
    <path class="cls-23" d="M1085.04,246.19c10.52,8.09,17.04-5.91,17.04-5.91,7.29-11.95,5.61-23.29,4.14-31-1.47-7.71-9.98-6.33-9.98-6.33-7.13,1.86-5.98,2.56-12.76,24.63"/>
    <path class="cls-6" d="M1035.84,212.96c1.99-1.31,4.55-.62,6.05.46.35.25,1.31.98,1.86,2.33.7,1.71.2,3.79-.78,5.12-1.31,1.78-3.76,2.31-5.74,1.63-2.7-.94-3.85-3.94-3.44-6.26.08-.42.45-2.22,2.06-3.27"/>
    <path class="cls-6" d="M1025.62,223.17s6.4-10.8,14.24-11.66c11.03-1.21,14.2,4.39,16.89,7.18,0,0-7.85-6.4-16.36-5.27-7.72,1.02-14.77,9.74-14.77,9.74Z"/>
    <path class="cls-6" d="M981.64,218.53c-2.08-.89-4.28.28-5.44,1.64-.27.32-1,1.22-1.23,2.64-.3,1.82.57,3.75,1.73,4.87,1.55,1.49,3.89,1.53,5.57.47,2.28-1.44,2.73-4.62,1.9-6.81-.15-.4-.85-2.08-2.53-2.8"/>
    <path class="cls-6" d="M996.52,226.38s-7.34-9.31-14.12-8.58c-9.54,1.03-11.21,7.15-12.99,10.43,0,0,5.49-7.84,12.88-8.45,6.71-.55,14.22,6.59,14.22,6.59Z"/>
    <g>
      <path class="cls-6" d="M1007.49,252.78c2.17.84,5.26.23,7.17-1.28.42-.34,1.98-.24,1.38.24-2.52,2-6.98,2.67-9.78,1.59-.28-.11-.25-.32.06-.46.33-.15.87-.19,1.17-.08"/>
      <path class="cls-6" d="M1016.86,251.04c1.3-.81,2.8-1.33,4.32-1.62.22-.04.52,0,.71.14.14.1.19.25.03.37-.66.49-1.55.76-2.38.84-.26.03-.61,0-.79-.21-.16-.19.08-.36.28-.38.69-.07,1.37-.28,1.92-.69.25.17.49.34.74.51-1.36.26-2.7.74-3.86,1.46-.23.14-.59.11-.82,0-.17-.08-.38-.29-.15-.43"/>
      <path class="cls-6" d="M1022.98,250.53c1.79-.25,3.82-1.28,4.54-2.74,1.1-2.2-.56-5.5-2.96-6.55-.26-.11-.15-.31.09-.39.31-.11.71-.03.98.09,2.09.92,3.7,3.63,3.63,5.59-.07,1.83-1.64,3.28-3.73,4.05-.62.23-1.29.41-1.96.5-.27.04-.77.01-.93-.19-.16-.2.08-.32.33-.36"/>
      <path class="cls-6" d="M1004.09,252.24c.07-.22-.12-.33-.27-.31-.48.07-1-.01-1.45-.3-.14.21-.27.43-.41.64.98,0,2,.2,2.93.69.19.1.43,0,.57-.16.1-.11.2-.35.01-.45"/>
      <path class="cls-6" d="M1005.48,252.35c-1.05-.54-2.18-.76-3.28-.75-.16,0-.36.11-.46.27-.08.13-.08.28.05.37"/>
      <path class="cls-6" d="M1000.38,252.91c-1.18.09-2.64-.54-3.38-1.83-1.11-1.95-.58-4.48.73-5.95.14-.16.04-.34-.13-.37-.22-.05-.45.1-.6.27-1.14,1.29-1.75,3.24-1.33,5.14.39,1.77,1.65,2.9,3.11,3.26.43.11.89.16,1.33.13.18-.01.49-.13.55-.36.06-.23-.11-.3-.28-.29"/>
    </g>
    <path class="cls-6" d="M1018.1,202.42c.79,1.58,1.58,3.16,2.38,4.74.61,1.2,1.22,2.41,1.83,3.6,3.04-2.79,7.57-5.98,9.64-7.56,4.11-3.14,8.58-6.04,13.56-7.58,2.39-.73,4.62-1.09,7.07-.79.77.09,3.17.98,3.82.12.27-.35-1.28-2-1.45-2.17-3.15-3.32-7.07-3.4-11.33-2.43-8.69,1.97-16.37,6.07-23.7,11.07"/>
    <path class="cls-6" d="M965.34,204.02c.62-.94,1.15-1.94,1.52-3.03.89-.13,1.82-.2,2.78-.22,8.77-.14,17.07,2.02,25.23,5.15-.4,1.72-.8,3.44-1.21,5.16-.31,1.31-.62,2.62-.93,3.93-3.54-1.99-6.63-3.47-8.98-4.51-4.65-2.07-9.59-3.84-14.72-4.15-1.48-.09-2.88-.05-4.26.18l.57-2.52Z"/>
    <path class="cls-14" d="M1015.1,262.35c7.76-1.25,20.21-3.27,20.21-3.27,0,0,.66,18.21-17.34,21.1-18,2.89-21.35-15.49-21.35-15.49,0,0,10.72-1.09,18.48-2.33Z"/>
    <path class="cls-30" d="M1015.03,262.37c3.69-.59,18.49-2.63,18.49-2.63,0,0-3.86,11.54-17.2,13.68-14.47,2.33-17.13-7.92-17.13-7.92l15.85-3.13Z"/>
    <path class="cls-29" d="M1014.97,263.07c3.69-.59,14.84-2.05,14.84-2.05,0,0-3.29,4.52-14.36,6.3-11.07,1.78-15.32-1.38-15.32-1.38l14.84-2.87Z"/>
    <path class="cls-14" d="M996.05,264c.38-.18.37-.19,2.2-.68,3.04-.82,4.13-2.28,6.34-2.85,3.77-.97,6.49.48,8.15.21,1.66-.27,3.8-2.5,7.68-2.75,2.27-.15,8.02,1.07,11.16.9,1.89-.1,3.27-.13,3.68-.07.58.08.91,2.86-19.99,6.22-20.9,3.36-19.75-.72-19.22-.97Z"/>
    <path class="cls-25" d="M1088.98,225.2c1.01-3.66,2.15-7.34,3.8-10.77.78-1.62,1.68-3.31,2.97-4.59.31-.3.61-.56.96-.76.11-.07.02-.01.13-.07.03-.01.05-.02.08-.03-.01,0-.06.02.02,0,.11-.04-.09,0,.04-.01,0,0-.1.02.01,0-.17.03-.05,0-.02,0,.02,0-.1.02-.04,0-.05.01-.12-.06-.08,0,.03.04.11.07.15.09.58.36,1.1.81,1.58,1.3,2.39,2.41,3.34,5.77,3.09,9.11,0,.08.71,0,.72-.19.24-3.17-.59-6.32-2.72-8.72-.54-.61-1.15-1.17-1.83-1.63-.19-.13-.32-.23-.55-.21-.65.05-1.27.42-1.77.82-1.25,1.02-2.13,2.49-2.88,3.89-1.99,3.74-3.27,7.86-4.38,11.93-.03.12.66.04.71-.13h0Z"/>
    <path class="cls-25" d="M1090.33,227.3c.95-.17,1.8.06,2.19,1s.37,2.04.35,3.05c-.02,1.07-.12,2.15-.04,3.22.05.7.23,1.64,1.01,1.87.99.3,1.6-.82,1.9-1.56.65-1.65.88-3.48,1.04-5.24.1-1.14.25-2.32.09-3.46-.12-.86-.3-1.71-.54-2.54-.73-2.52-2.16-5.33-4.95-5.93-.16-.03-.4,0-.51.14-.09.11-.09.26.08.29,2.42.52,3.74,2.89,4.46,5.06.29.89.51,1.8.67,2.72.13.77.12,1.45.08,2.24-.09,1.9-.29,3.82-.78,5.66-.16.59-.35,1.2-.66,1.73-.09.14-.21.37-.36.45-.05.03-.04.04-.16-.03-.64-.38-.64-1.41-.65-2.05-.02-1.04.07-2.09.07-3.13,0-1.01-.01-2.16-.55-3.05s-1.65-1.06-2.64-.88c-.13.02-.4.09-.41.27s.19.21.32.19h0Z"/>
    <path class="cls-23" d="M1169.07,472.61c7.89-1.12,15.77-2.44,23.37-4.38,12.22-3.12,22.91-13.81,35.44-15.62,6.43,29.73,9.89,82.69,10.74,89.06,5.18,39.12-34.62,172.5-34.62,172.5l-29.05-.75s5.44-108.56,7.5-163.77l-13.37-77.04Z"/>
    <path class="cls-23" d="M1161.35,802.61c4.16-7.44,9.58-17.54,9.26-19.04s-.96-11.82-1.5-20.85c-.08-4.61-3.53-8.49-7.72-8.66-1.09-.05-5.75,21.09-14.52,17.87l.44-18.84c.94-6.03,2.59-11.85,4.9-17.34,3.26-6.6,22.86-24.56,22.86-24.56l1.59-22.49,32.63,6.69-4.1,23.37,5.52,23.32s1.39,43.88-1.89,48.97c-3.28,5.09-14.99,10.32-14.99,10.32-3.22,7.49-13.82,7.59-13.82,7.59-9.1,10.19-11.02.98-11.02.98-.23.43-.57.77-.98.99-4.41,2.41-9.17-3.92-6.66-8.34Z"/>
    <path class="cls-2" d="M1183.55,772c1.25,6.17,1.19,12.5-.18,18.49-1.87,5.78-5.11,10.83-9.41,14.65-1.56,1.77-3.39,3.24-5.4,4.37"/>
    <path class="cls-2" d="M1193.35,773.97c.41,2.54.64,5.1.7,7.66.19,3.21-.23,6.38-1.22,9.33-1.22,2.73-2.73,5.28-4.5,7.6l-4.14,5.62c-1.16,1.85-2.58,3.5-4.2,4.87"/>
    <path class="cls-2" d="M1202.59,775.29c.74,0,.96,3.81.72,13.18-.06,1.29-.42,2.53-1.05,3.59-.47.93-1,1.83-1.59,2.68-.94,1.46-2.02,2.8-3.21,4.01-2.05,2.07-3.67,2.87-3.79,2.64"/>
    <path class="cls-22" d="M1196.54,336.11c18.33,18.22,17.68,26.66,23.53,57.39,2.58,13.55,16.67,61.48,16.67,61.48,0,0-9.45,22.94-77.83,19.68-2.44-11.17-4.67-29.15-7.81-43.41-3.55-16.15-4.16-29.21-6.19-39.33-2.87-14.38-1.13-29.75,4.72-44.18,4.39-10.83,9.23-14.34,15.35-18.19,0,0,5.97-3.1,14.63-2.8,8.67.3,16.91,9.37,16.91,9.37Z"/>
    <path class="cls-25" d="M415.38,531.53c-1.32-6.63-1.21-13.5-.17-20.16s2.89-12.92,5.88-18.78c1.95-3.81,4.41-7.45,7.73-10.19,2.88-2.37,5.76-4.75,8.64-7.12,2.53-2.09,5.07-4.17,7.6-6.26.6-.5-.83-.4-1.14-.14-5.26,4.33-10.52,8.67-15.78,13-8.11,6.69-12.09,17.42-13.99,27.49-1.4,7.4-1.69,15.14-.22,22.56.08.4,1.54.06,1.45-.39h0Z"/>
    <path class="cls-22" d="M440.22,475.47c2.16-2.2,3.52-3.96,3.72-4.79l-4.74-9.62s-8.95-19.11-15.84-58.91c-4.56-26.38-31.62-50.52-31.62-50.52l.5,86.43-31.06,30.5s14.66,49.88,15.37,52.19c4.43,14.37,9.09,24.98,20.95,37.64,15.93,17,35.71,17,52.65-5.04,9.32-12.13.88-46.45-9.95-77.88Z"/>
    <path class="cls-23" d="M211.89,1243.79c4.29-30.29-15.49-167.46-4.71-244.86,13.82-99.27-21.34-187.57-31.44-228.87-20.92-85.53-31.42-143.38-7.46-179.85l204.06,14.92-2.58,39.98c10.77,44.6-13.33,205.96-17.37,326.8l-40.32,254.95s-9.13,10.09-29.11,2.22c0,0-1.59,16.37-7.03,16.21-30.33-.92-21.22,10.37-64.04-1.51Z"/>
    <path class="cls-25" d="M279.73,1242.22c.22-1.97.44-3.95.66-5.92.61-5.43,1.21-10.85,1.82-16.28.9-8.06,1.8-16.11,2.7-24.17,1.11-9.96,2.22-19.92,3.33-29.88,1.23-11.01,2.46-22.01,3.68-33.02,1.26-11.31,2.52-22.62,3.79-33.93l3.63-32.49c1.07-9.57,2.14-19.14,3.2-28.72.84-7.53,1.68-15.07,2.52-22.6.53-4.73,1.05-9.46,1.58-14.18.69-6.18,1.41-12.36,1.86-18.57.4-5.51.65-11.03.75-16.56.1-5.58-.21-11.16-.16-16.73,0-.73.05-1.46.07-2.19.18-5.17.35-10.34.53-15.51.3-8.8.6-17.6.9-26.4.37-10.84.74-21.69,1.11-32.53s.77-22.61,1.16-33.92c.35-10.19.69-20.37,1.04-30.56.26-7.5.51-15,.77-22.5.11-3.16.07-6.37.32-9.52.01-.16-.01.13.01-.07.04-.35.11-.69.16-1.04.27-1.6.62-3.18,1.01-4.75,1.31-5.22,3.18-10.4,6.03-14.98,3.03-4.88,7.32-9.12,13.08-10.4.87-.19.7-.83-.17-.63-11.48,2.55-17.22,14.57-20.04,24.92-.88,3.22-1.5,6.33-1.61,9.64l-.54,15.83c-.3,8.9-.61,17.79-.91,26.69-.37,10.92-.74,21.83-1.12,32.75s-.78,22.75-1.16,34.13c-.35,10.15-.69,20.3-1.04,30.44-.25,7.36-.5,14.72-.75,22.08-.1,2.96-.3,5.94-.3,8.91,0,4.76.24,9.52.2,14.28-.06,5.79-.28,11.58-.67,17.36-.38,5.62-.97,11.22-1.61,16.82-.33,2.96-.66,5.91-.99,8.87-.69,6.2-1.38,12.4-2.07,18.6-.97,8.66-1.93,17.31-2.9,25.97-1.16,10.36-2.31,20.73-3.47,31.09-1.25,11.21-2.5,22.41-3.75,33.62-1.26,11.3-2.52,22.59-3.78,33.89-1.18,10.6-2.36,21.19-3.55,31.79-1.02,9.11-2.03,18.22-3.05,27.32-.76,6.85-1.53,13.7-2.29,20.55-.42,3.75-.84,7.51-1.26,11.26-.05.48-.11.96-.16,1.44-.06.51,1.39.23,1.44-.21h0Z"/>
    <path class="cls-24" d="M318.97,953.36c-24.53,3.73-54.98,1.36-79.72-1.37-24.12-2.66-46.94-4.81-63.09-9.92-7.34-57.09-8.77-133.86-15.37-160.85-20.92-85.53-16.21-143.38,7.76-179.85l204.06,14.92,1.22,39.98c8.87,36.75,3.61,178.38-3.23,285.7-11.12,1.86-40.49,9.69-51.64,11.38Z"/>
    <path class="cls-6" d="M356.47,238.53c-4.23.84-7.72,4.59-8.27,8.87-.54,4.28,1.91,8.78,5.8,10.65-3.18,4.24-6.46,8.73-7.19,13.97-.73,5.25,2.1,11.39,7.3,12.42-2.93,3.36-5.98,7-6.57,11.42-.59,4.42,2.52,9.61,6.98,9.43-2.32,3.12-4.72,6.43-5.19,10.29-.46,3.86,1.82,8.34,5.67,8.85-3.12,3.29-5.61,7.86-4.39,12.23,1.22,4.37,7.75,6.82,10.48,3.2,1.63-2.15,1.19-5.17.67-7.81-.62-3.18-1.23-6.35-1.85-9.53,5.53-4.08,5.58-13.63.09-17.77,6.44-5.09,5.89-16.61-1-21.06,7.04-6.3,7.18-18.75.28-25.2,7.35-5.59,6.84-18.63-.93-23.63"/>
    <path class="cls-6" d="M282.69,224.71c-4.3.33-8.22,3.63-9.26,7.82-1.05,4.19.84,8.94,4.48,11.26-3.66,3.83-7.45,7.89-8.8,13.02-1.35,5.12.72,11.56,5.76,13.21-3.31,2.99-6.77,6.24-7.89,10.55-1.12,4.32,1.36,9.85,5.8,10.19-2.68,2.82-5.46,5.82-6.38,9.6-.92,3.78.81,8.5,4.58,9.46-3.49,2.89-6.51,7.14-5.82,11.62.69,4.48,6.88,7.69,10.02,4.43,1.87-1.94,1.8-4.99,1.6-7.68-.23-3.23-.47-6.46-.7-9.68,5.98-3.39,7.16-12.87,2.21-17.63,7-4.28,7.83-15.79,1.52-21.03,7.75-5.41,9.37-17.76,3.28-24.99,7.97-4.67,9.01-17.68,1.89-23.57"/>
    <path class="cls-23" d="M281.23,247.69s3.35,28.63-6.67,48.27c-1.72,3.37-22.97,16.24-22.97,16.24l17.37,22.74c14.34,11.7,27.85,26.25,46.36,26.18,10.49-.04,36.82,4.36,45.39,2.26l6.81-28.58-21.02-15.37c-.46-4.44,5.62-33.51,5.62-33.51"/>
    <path class="cls-6" d="M256.84,211.83c-4.31-.15-8.57,2.7-10.07,6.74-1.51,4.04-.15,8.98,3.21,11.69-4.06,3.4-8.28,7.02-10.19,11.96-1.91,4.94-.56,11.57,4.26,13.76-3.62,2.61-7.42,5.45-9.01,9.61-1.59,4.17.26,9.94,4.64,10.77-2.97,2.51-6.07,5.18-7.4,8.83-1.33,3.65-.14,8.54,3.5,9.91-3.79,2.49-7.26,6.37-7.07,10.9.19,4.53,5.99,8.41,9.47,5.51,2.08-1.72,2.34-4.76,2.44-7.45.13-3.23.25-6.47.38-9.7,6.32-2.71,8.55-12,4.15-17.28,7.43-3.48,9.53-14.82,3.84-20.73,8.3-4.52,11.28-16.61,6.03-24.47,8.44-3.76,10.92-16.58,4.49-23.21"/>
    <path class="cls-6" d="M241.95,247.9c-4.31-.15-8.57,2.7-10.07,6.74-1.51,4.04-.15,8.98,3.21,11.69-4.06,3.4-8.28,7.02-10.19,11.96-1.91,4.94-.56,11.57,4.26,13.76-3.62,2.61-7.42,5.45-9.01,9.61-1.59,4.17.26,9.94,4.64,10.77-2.97,2.51-6.07,5.18-7.4,8.83-1.33,3.65-.14,8.54,3.5,9.91-3.79,2.49-7.26,6.37-7.07,10.9.19,4.53,5.99,8.41,9.47,5.51,2.08-1.72,2.34-4.76,2.44-7.45.13-3.23.25-6.47.38-9.7,6.32-2.71,8.55-12,4.15-17.28,7.43-3.48,9.53-14.82,3.84-20.73,8.3-4.52,11.28-16.61,6.03-24.47,8.44-3.76,10.92-16.58,4.49-23.21"/>
    <path class="cls-6" d="M261.18,213.17c-4.3.33-8.22,3.63-9.26,7.82-1.05,4.19.84,8.94,4.48,11.26-3.66,3.83-7.45,7.89-8.8,13.02-1.35,5.12.72,11.56,5.76,13.21-3.31,2.99-6.77,6.24-7.89,10.55-1.12,4.32,1.36,9.85,5.8,10.19-2.68,2.82-5.46,5.82-6.38,9.6-.92,3.78.81,8.5,4.58,9.46-3.49,2.89-6.51,7.14-5.82,11.62.69,4.48,6.88,7.69,10.02,4.43,1.87-1.94,1.8-4.99,1.6-7.68-.23-3.23-.47-6.46-.7-9.68,5.98-3.39,7.16-12.87,2.21-17.63,7-4.28,7.83-15.79,1.52-21.03,7.75-5.41,9.37-17.76,3.28-24.99,7.97-4.67,9.01-17.68,1.89-23.57"/>
    <path class="cls-6" d="M269.95,217.98c-4.3.33-8.22,3.63-9.26,7.82-1.05,4.19.84,8.94,4.48,11.26-3.66,3.83-7.45,7.89-8.8,13.02-1.35,5.12.72,11.56,5.76,13.21-3.31,2.99-6.77,6.24-7.89,10.55-1.12,4.32,1.36,9.85,5.8,10.19-2.68,2.82-5.46,5.82-6.38,9.6-.92,3.78.81,8.5,4.58,9.46-3.49,2.89-6.51,7.14-5.82,11.62.69,4.48,6.88,7.69,10.02,4.43,1.87-1.94,1.8-4.99,1.6-7.68-.23-3.23-.47-6.46-.7-9.68,5.98-3.39,7.16-12.87,2.21-17.63,7-4.28,7.83-15.79,1.52-21.03,7.75-5.41,9.37-17.76,3.28-24.99,7.97-4.67,9.01-17.68,1.89-23.57"/>
    <path class="cls-26" d="M296.93,278.19s.34,29.91,49.8,37.43c0,0,.67-5.9,1.09-7.72l-.09-.74-50.79-28.97Z"/>
    <path class="cls-23" d="M286.13,266.63c11.57,16.85,28.84,36.96,50.42,43.31,18.28,5.37,25.05.8,27.98-1.61,16.06-13.2,27.23-27.26,34.78-44.17,2.05-4.59,2.86-9.72,3.21-15.04.53-7.97.97-23.33,2.05-30.87,2.75-19.22-3.64-36.96-12.17-54.5-17.78-36.53-64-42.55-84.72-35.76-24.22,7.94-37.33,28.67-41.73,51.95-1.43,7.59-1.57,14.85-.51,21.71,2.78,4,5.1,8.26,6.95,12.69"/>
    <g>
      <path class="cls-6" d="M392.82,155.96s3.52,12.28,10.53,36.99c-1.5-7.77-1.38-19.14-6.37-30.35-17.42-39.17-83.85-42.71-104.66-35.18-24.33,8.81-35.79,31.22-40.45,56.34-1.89,10.2-3.16,16.7-1.19,25.61.13.13,1.69,2.25,1.69,2.25,0,0,20.16,6.61,25.39,20.02l1.69-10.89s1.46-6.64,10.22-30.95c0,0,.97-3.92,10.06-18.91,9.1-14.99,17-18.59,17-18.59,0,0,34.37-1.19,42.37-.1,8,1.09,33.71,3.76,33.71,3.76Z"/>
      <path class="cls-6" d="M392.63,156.01c.54,1.87,1.07,3.74,1.6,5.61,1.61,5.62,3.21,11.25,4.8,16.87,1.37,4.84,2.75,9.67,4.12,14.51.02.09.38,0,.37-.1-1.17-6.12-1.44-12.38-2.68-18.5-1.21-5.96-3.21-11.75-6.35-16.97-4.46-7.41-10.91-13.41-18.18-18.02-7.56-4.8-15.98-8.18-24.58-10.57s-17.28-3.79-26.08-4.39c-7.52-.52-15.13-.47-22.62.51-2.86.37-5.72.89-8.5,1.68-4.27,1.22-8.38,3.14-12.17,5.44-9.18,5.55-16.3,13.83-21.28,23.26-2.6,4.93-4.65,10.15-6.27,15.48-1.77,5.84-2.96,11.82-4.01,17.82-1.09,6.2-1.79,12.42-.72,18.68.11.65.14,1.54.44,2.13.15.3.45.58.65.85.29.39.58.78.87,1.17.06.08.11.17.19.22.14.09.36.13.52.18.4.14.8.3,1.2.45,3.2,1.25,6.32,2.76,9.28,4.51,4.02,2.38,7.85,5.26,10.81,8.9,1.47,1.8,2.69,3.79,3.54,5.95.03.08.35,0,.36-.08.35-2.28.71-4.56,1.06-6.84.21-1.38.36-2.79.65-4.15.61-2.83,1.59-5.63,2.47-8.38,1.16-3.62,2.37-7.22,3.61-10.81,1.36-3.93,2.85-7.82,4.15-11.77.35-1.08.83-2.11,1.31-3.14,1.43-3.04,3.07-6,4.74-8.92,4.69-8.2,9.69-16.62,17.1-22.68.81-.66,1.65-1.29,2.53-1.86.37-.24.88-.42,1.21-.7.15-.13-.15,0-.07.01.12.03.29,0,.41-.01.65-.02,1.31-.04,1.96-.06,5.93-.18,11.86-.33,17.8-.41,6.48-.09,12.99-.23,19.46.15,2.23.13,4.43.47,6.64.74,3.51.42,7.03.81,10.54,1.2,6.03.67,12.07,1.31,18.11,1.94.36.04.71.07,1.07.11.08,0,.42-.14.23-.16-4.64-.48-9.29-.98-13.93-1.48-6.62-.72-13.24-1.43-19.84-2.29-2.32-.3-4.67-.34-7-.39-3.35-.07-6.71-.07-10.06-.05-6.67.05-13.34.19-20.01.38-1.66.05-3.31.1-4.97.15-.67.02-1.21.44-1.77.79-2.16,1.38-4.11,3.1-5.91,4.92-3.44,3.47-6.38,7.42-8.99,11.55-2.7,4.26-5.23,8.65-7.6,13.1-1.05,1.98-2.09,3.99-2.94,6.07-.64,1.58-1.16,3.21-1.73,4.81-1.65,4.62-3.26,9.24-4.81,13.89-1.39,4.16-2.79,8.35-3.9,12.59-.12.45-.22.88-.29,1.34-.43,2.75-.85,5.49-1.28,8.24l-.33,2.16.36-.08c-1.73-4.37-4.95-7.97-8.57-10.89-3.3-2.66-6.99-4.83-10.81-6.66-1.31-.62-2.64-1.21-3.99-1.74-.62-.25-1.4-.4-1.99-.74-.22-.13-.54-.68-.76-.97-.24-.32-.48-.64-.72-.96-.36-.47-.4-1.01-.51-1.58-.59-3.11-.82-6.27-.69-9.42.14-3.23.62-6.43,1.17-9.61.56-3.2,1.13-6.4,1.83-9.57,1.2-5.45,2.76-10.82,4.8-16.01,3.92-9.96,9.73-19.29,17.93-26.29,6.58-5.62,14.57-9.72,23.08-11.36,6.97-1.34,14.14-1.63,21.22-1.44,8.61.24,17.21,1.29,25.61,3.17,8.73,1.96,17.31,4.84,25.24,9.03,7.6,4.02,14.63,9.31,19.96,16.1,2.87,3.65,5.19,7.71,6.88,12.03,2.54,6.47,3.58,13.34,4.39,20.2.32,2.71.61,5.43,1.12,8.11l.37-.1c-2.2-7.75-4.4-15.5-6.6-23.25-1.14-3.99-2.27-7.97-3.41-11.96-.17-.6-.34-1.19-.51-1.79-.03-.09-.39.01-.37.1Z"/>
    </g>
    <path class="cls-6" d="M336.72,219.65c-2.17-1.14-4.84-.6-6.38.3-.36.21-1.34.82-1.85,1.95-.66,1.45-.03,3.23,1.07,4.38,1.47,1.54,4.08,2.03,6.15,1.47,2.81-.76,3.88-3.3,3.34-5.28-.1-.36-.58-1.89-2.33-2.82"/>
    <path class="cls-6" d="M346.53,227.79s-7.15-10.04-15.49-10.85c-11.73-1.14-14.88,4.06-17.64,6.65,0,0,8.09-5.93,17.15-4.87,8.21.96,15.98,9.07,15.98,9.07Z"/>
    <path class="cls-6" d="M389.62,224.46c2.3-.71,4.86.34,6.25,1.52.33.28,1.2,1.06,1.55,2.28.44,1.56-.43,3.19-1.68,4.11-1.67,1.23-4.31,1.21-6.27.27-2.66-1.29-3.36-4-2.54-5.85.15-.34.84-1.76,2.7-2.33"/>
    <path class="cls-6" d="M376.6,230.43s6.99-8.66,13.7-8c9.45.93,11.27,6.61,13.11,9.65,0,0-5.64-7.27-12.96-7.81-6.64-.49-13.86,6.16-13.86,6.16Z"/>
    <path class="cls-6" d="M406.43,213.37c.02-.05.05-.7.07-.75-.86-1.21-2-2.29-3.31-3.29-6.51-4.94-10.31-6.23-22.73-7.87l-.11.27c-.66,1.53-.29.67-.95,2.21-.5,1.17-1,2.34-1.49,3.5,3.77.44,6.63.39,8.98.89,4.65.99,10.23,1.5,14.25,4.09,1.31.84,2.85,1.93,3.89,3.39.45-1.02.93-1.43,1.4-2.44Z"/>
    <path class="cls-6" d="M348.06,197.78c.39,1.62.17.71.55,2.34.29,1.24.58,2.47.87,3.71-4.21-.09-7.32-.54-9.98-.37-5.29.33-11.48.07-16.42,2.08-2.37.97-5.58,1.94-6.81,4.57-.33.71-.87,3.53-1.94,3.32-.44-.08-.27-2.23-.25-2.45.37-4.34,3.43-6.84,7.44-8.81,8.17-4.03,12.59-4.78,26.49-4.68"/>
    <g>
      <path class="cls-6" d="M363.81,258.1c-2.29.93-5.58.34-7.63-1.23-.46-.35-2.1-.22-1.47.28,2.71,2.08,7.46,2.71,10.41,1.51.29-.12.26-.34-.07-.49-.35-.16-.93-.19-1.24-.06"/>
      <path class="cls-6" d="M353.84,256.43c-1.39-.84-3-1.36-4.62-1.65-.24-.04-.56.02-.75.16-.15.11-.2.27-.03.39.71.51,1.65.78,2.54.85.28.02.65-.01.83-.24.17-.21-.09-.38-.3-.39-.73-.06-1.46-.28-2.05-.69-.26.18-.52.37-.78.55,1.45.26,2.88.74,4.12,1.49.25.15.63.11.88-.01.18-.09.39-.31.15-.46"/>
      <path class="cls-6" d="M347.32,256c-1.91-.23-4.07-1.29-4.87-2.82-1.2-2.32.49-5.85,3.02-7.01.27-.13.16-.34-.1-.42-.34-.11-.75-.02-1.04.11-2.2,1.01-3.86,3.92-3.75,6,.1,1.94,1.8,3.45,4.03,4.23.66.23,1.38.41,2.09.5.29.03.82,0,.98-.21.17-.22-.09-.34-.36-.38"/>
      <path class="cls-6" d="M367.42,257.47c-.08-.23.12-.36.28-.34.52.06,1.06-.03,1.53-.34.15.22.3.45.44.67-1.05.01-2.12.25-3.1.78-.2.11-.45,0-.6-.16-.11-.12-.22-.37-.02-.48"/>
      <path class="cls-6" d="M365.94,257.61c1.1-.59,2.3-.84,3.47-.86.17,0,.38.11.49.28.09.13.09.3-.05.39"/>
      <path class="cls-6" d="M371.36,258.12c1.25.07,2.8-.62,3.55-2,1.14-2.09.54-4.76-.88-6.3-.15-.17-.04-.36.13-.39.23-.05.48.1.64.28,1.23,1.35,1.91,3.4,1.51,5.43-.38,1.89-1.7,3.11-3.25,3.52-.46.12-.94.19-1.41.16-.19-.01-.52-.13-.59-.37-.07-.24.11-.32.29-.31"/>
    </g>
    <path class="cls-7" d="M395.66,141.76c-3.86-2.77-10.78-2.93-10.78-2.93,0,0-4.19-8.99-11.5-14.36-7.31-5.37-19.16-2.08-19.16-2.08,0,0-2.56-5.9-11.48-9.07-8.91-3.17-19.59,3.43-19.59,3.43,0,0-9.04-8.25-20.3-4.04-9.49,3.55-13.69,10.19-13.69,10.19-19.46-2.44-27.28,11.11-30.04,26.58-3.02.76-6.41,2.05-8.43,4.28-10.99,12.13-5.37,55.19,1.38,63.85l1.24-2.14,5.66-31.41c.41,3.2.77,5.15.77,5.15l3.8,25.85,35.59-65.9s79.59,3.89,88.35,6.57c8.75,2.67,14.22,23.48,14.22,23.48.15-8.19,3.18-30.82-6.05-37.45Z"/>
    <path class="cls-23" d="M390.82,161.96c-7.85-17.75-21.66-22.52-42.73-27.36-21.07-4.84-50.27-3.05-66.36,16.93-7.08,8.79-9.95,21.43-10.95,32.84,1.14,1.06,2.16,2.32,2.97,3.74,2.7,4.72,5.09,9.61,7.8,14.33,2.52,4.39,5.95,8.08,8.34,12.62.4.76.64,1.55.79,2.35,1.03-.16,2.05-.43,3.08-.83,4.68-1.83,8.67-5.35,12.35-8.68,3.75-3.39,7.35-6.89,11.46-9.85,4.91-3.54,9.73-7.19,14.7-10.64,10.16-7.05,21.04-13.06,33.37-15.15,9.66-1.64,19.31-.55,28.94.72-1.1-4.04-2.35-7.81-3.76-11.02Z"/>
    <g>
      <path class="cls-6" d="M306.36,176.53c.39,1.34.77,2.73.6,4.12-.17,1.39-1.05,2.78-2.41,3.11-.68.17-1.45.06-2.06.41-2,1.14.34,4.61-1.01,6.48-1.03,1.43-3.44.88-4.75,2.05-2.19,1.96.4,6.74-2.22,8.06-1.5.75-3.74-.42-4.78.9-.47.6-.41,1.43-.35,2.18.16,2.14-.18,4.79-2.17,5.6-1.96.8-4.8-.56-5.99,1.19-.58.87-.35,2.08-.88,2.98-.7,1.18-2.41,1.28-3.71.84-1.3-.44-3.18-3.18-4.54-3.41-2.71-.46-4.85,3.47-7.4,2.45-1.81-.73-2.76-3.05-2.02-4.85.74-1.8,3.02-2.78,4.85-2.1.71.26,1.36.74,2.11.8,2.52.21,3.32-3.86,5.77-4.48.61-.15,1.28-.07,1.83-.38,1.27-.72.88-2.84,1.99-3.78,1.22-1.03,3.33.07,4.6-.9,1.76-1.36-.29-4.61,1.16-6.29,1.17-1.35,3.71-.57,4.89-1.92,1.33-1.52-.26-4.33,1.17-5.75,1.7-1.69,5.89.38,6.38-1.96.08-.37,0-.75.08-1.12.27-1.25,1.9-1.49,3.16-1.73,2.13-.41,4.1-1.63,5.42-3.36"/>
      <path class="cls-6" d="M306.23,176.56c.47,1.63.99,3.44.35,5.09-.28.72-.76,1.4-1.45,1.78s-1.48.27-2.23.47c-2.19.61-1.15,3.36-1.11,4.93.04,1.41-.61,2.33-1.99,2.69-1.02.27-2.18.33-3.04,1.01-1.59,1.25-1.06,3.69-1.1,5.44-.02,1.02-.2,2.19-1.21,2.7-1.12.56-2.44.05-3.63.27-1.1.2-1.6,1.06-1.61,2.14,0,1.28.16,2.49-.15,3.75-.35,1.41-1.24,2.54-2.75,2.74-1.17.16-2.36-.11-3.53.07-.96.15-1.69.69-1.97,1.64-.2.65-.17,1.36-.43,1.99-.33.8-1.07,1.22-1.91,1.31-1.35.14-2.33-.42-3.28-1.3-.79-.73-1.53-1.63-2.5-2.13-1.81-.93-3.72.86-5.16,1.72-1.07.64-2.19.97-3.32.24s-1.77-2.14-1.66-3.47c.12-1.48,1.23-2.65,2.62-3.06.68-.2,1.42-.22,2.11,0s1.28.66,1.99.81c1.97.42,3.09-1.66,4.14-2.93.31-.37.64-.74,1.03-1.02.68-.5,1.39-.49,2.19-.65,1.04-.22,1.46-.98,1.73-1.94.14-.48.24-.98.46-1.44.42-.84,1.18-1.07,2.06-1.09,1.04-.02,2.27.21,3.12-.55,1.61-1.43-.04-4.04.79-5.78,1.05-2.19,4.65-.57,5.57-3.02.4-1.06.11-2.25.15-3.35.06-1.4.84-2.22,2.22-2.38.99-.12,1.99.03,2.98-.07.64-.06,1.34-.25,1.68-.85.31-.57.07-1.24.32-1.83.29-.67,1.05-.94,1.7-1.11,1.28-.34,2.52-.5,3.71-1.12s2.23-1.49,3.05-2.55c.1-.13-.14-.18-.21-.08-1,1.29-2.33,2.29-3.85,2.88-1.22.47-2.65.44-3.81,1.09-.36.2-.67.48-.84.86-.28.63.03,1.4-.42,1.97-.6.77-1.99.58-2.84.57-.91-.01-1.91-.03-2.74.4-.91.48-1.19,1.42-1.21,2.39-.02,1.2.38,2.76-.5,3.76s-2.5.8-3.68,1.17c-2.42.77-1.62,3.25-1.64,5.17,0,.55-.08,1.14-.45,1.58-.55.67-1.44.68-2.23.67-1.05-.02-2.25-.11-2.95.84-.68.91-.52,2.25-1.27,3.11-.57.66-1.48.49-2.24.7-.42.12-.8.33-1.14.6-1.51,1.2-2.67,4.52-5.07,3.73-.64-.21-1.2-.61-1.86-.78-.56-.14-1.14-.15-1.71-.04-1.09.21-2.11.84-2.71,1.78-1.2,1.87-.28,4.67,1.79,5.49s3.77-1.21,5.4-2.03c1.15-.58,2.17-.58,3.19.23.94.75,1.71,1.72,2.7,2.42.81.57,1.94.72,2.9.52,1.15-.24,1.79-1.03,2-2.15.14-.73.16-1.55.7-2.13.49-.53,1.23-.64,1.92-.66,1.16-.04,2.37.19,3.5-.14,2.36-.7,2.7-3.56,2.58-5.64-.05-.76-.19-1.65.32-2.3s1.46-.63,2.23-.6c.97.04,2.03.14,2.85-.48,1.59-1.2.87-3.86.99-5.55.09-1.32.59-2.42,1.92-2.87,1.03-.35,2.2-.34,3.13-.94,1.98-1.27.62-3.88.82-5.71.07-.67.41-1.21,1.08-1.44s1.41-.11,2.07-.38c1.08-.43,1.78-1.49,2.06-2.58.39-1.55-.08-3.17-.51-4.66-.03-.12-.29-.05-.25.07h0Z"/>
    </g>
    <g>
      <path class="cls-6" d="M303.09,164.01c.97,1.26,1.02,3.16.11,4.46-.91,1.31-2.71,1.92-4.23,1.44.44,2.01-1.08,4.24-3.11,4.57-.87.14-1.83-.01-2.6.43-1.89,1.08-.98,4.56-2.88,5.6-.72.4-1.63.29-2.34.7-1.45.84-1.12,3.16-2.28,4.38-1.41,1.5-4.29.65-5.61,2.23-.93,1.11-.78,3.11-2.12,3.64-.7.28-1.58,0-2.2.43-.75.52-.59,1.64-.71,2.55-.3,2.25-3.21,3.67-5.17,2.52-.25,1.5-1.16,2.88-2.44,3.71-.75-1.59-1.5-3.23-1.55-4.98-.05-1.75.81-3.65,2.44-4.28.63-.24,1.36-.29,1.91-.68,1.41-.99.96-3.53,2.44-4.41.99-.59,2.49-.15,3.25-1.02.37-.42.42-1.02.58-1.55.57-1.89,2.76-3.12,4.67-2.62.54.14,1.1.4,1.63.25,1.56-.43.6-2.98,1.5-4.33.88-1.32,3.24-1,3.97-2.4.25-.47.24-1.03.44-1.52.31-.78,1.07-1.26,1.79-1.69,3.69-2.21,7.45-4.29,11.29-6.24"/>
      <path class="cls-6" d="M302.97,164.06c.88,1.2,1.01,2.88.25,4.17-.84,1.43-2.61,2.05-4.18,1.6-.06-.02-.22.02-.2.11.33,1.71-.63,3.56-2.24,4.25-1.32.57-3.03-.06-4.04,1.22-.76.96-.78,2.31-1.13,3.44-.24.77-.63,1.46-1.43,1.75-.72.26-1.52.21-2.17.66-1.07.72-1.14,2.21-1.57,3.31-.69,1.76-2.36,1.84-3.99,2.16-1.21.24-2.2.72-2.71,1.9-.29.67-.42,1.42-.79,2.05-.59.99-1.51.72-2.46.95-1.7.4-1.02,2.47-1.57,3.67-.79,1.7-3.04,2.53-4.7,1.61-.06-.03-.21,0-.23.08-.28,1.5-1.12,2.8-2.39,3.65h.21c-.93-1.96-1.96-4.17-1.39-6.4.25-.97.78-1.91,1.64-2.47.8-.53,1.86-.46,2.62-1.06,1.14-.92.96-2.6,1.73-3.74,1-1.47,3.42-.35,4.16-2.11.16-.38.21-.79.34-1.18.17-.52.47-.98.85-1.37.74-.76,1.81-1.22,2.88-1.18.86.03,1.71.62,2.57.32.43-.16.7-.51.83-.94.48-1.53-.19-3.36,1.63-4.17,1.25-.56,2.8-.66,3.19-2.22.17-.69.29-1.27.83-1.78.4-.38.89-.66,1.36-.94,1.2-.71,2.4-1.41,3.61-2.1,2.45-1.39,4.93-2.72,7.44-4,.16-.08.01-.17-.1-.11-2.17,1.11-4.33,2.25-6.46,3.44-1.11.62-2.22,1.25-3.32,1.9-.87.51-1.84.98-2.61,1.65-.3.26-.56.56-.72.91-.23.51-.21,1.1-.48,1.6-.43.83-1.46,1.03-2.27,1.31-.59.21-1.22.46-1.62.96-.42.54-.5,1.26-.55,1.92s.02,1.68-.51,2.22c-.57.58-1.41.12-2.05-.03-.35-.08-.7-.11-1.06-.09-1.52.08-3.02,1.05-3.61,2.47-.15.37-.22.77-.34,1.15-.26.83-.86,1.13-1.68,1.25-.71.1-1.47.12-2.07.57-1.2.9-.99,2.69-1.82,3.84-.7.97-2.09.84-3.03,1.48-.69.47-1.19,1.19-1.49,1.97-.91,2.39.2,4.86,1.21,7.02.03.07.16.04.21,0,1.31-.88,2.19-2.21,2.48-3.76l-.23.08c1.08.59,2.37.51,3.45-.04,1.3-.67,1.91-1.8,2-3.22.02-.38.04-.78.15-1.14.25-.78,1-.9,1.73-.94.63-.04,1.21-.19,1.63-.69,1-1.21.72-3.08,2.36-3.8,1.34-.59,2.96-.35,4.22-1.17s1.29-2.34,1.81-3.58c.18-.42.42-.84.81-1.1.45-.31,1-.36,1.51-.46.62-.13,1.18-.35,1.59-.85.82-1.01.79-2.45,1.2-3.63.14-.42.34-.83.66-1.15.5-.49,1.2-.57,1.87-.61.85-.05,1.62-.13,2.36-.57,1.42-.85,2.24-2.55,1.93-4.19l-.2.11c1.49.43,3.18-.04,4.2-1.22,1.16-1.35,1.15-3.39.12-4.81-.05-.07-.3.01-.23.1h0Z"/>
    </g>
    <g>
      <path class="cls-6" d="M300.71,159.23c.2,2.48-2,4.88-4.48,4.89-.49,0-1-.07-1.45.12-.94.4-1.08,1.64-1.53,2.55-1.03,2.06-3.8,2.47-6.09,2.18-1.46-.18-3.34-.34-4.01.97-.26.52-.25,1.16-.59,1.63-.92,1.24-3.47.24-4.11,1.65-.29.64.06,1.43-.2,2.09-.55,1.4-2.79.68-4.03,1.51-.58.39-.87,1.07-1.12,1.72-.79,1.97-1.57,3.94-2.36,5.91-.19.48-.46,1.03-.97,1.15-.86.2-1.36-.94-1.46-1.81-.59-4.91.11-9.98,1.99-14.55.47-1.14,1.38-2.46,2.59-2.22.4.08.8.33,1.19.22.64-.19.65-1.07.67-1.74.09-2.76,3.26-4.95,5.88-4.05.7.24,1.51.65,2.13.24.41-.27.55-.8.83-1.22.7-1.06,2.19-1.25,3.45-1.09,1.26.16,2.55.56,3.78.25,1.55-.39,2.76-1.84,4.35-1.88,1.93-.05,3.78,2,5.52,1.16"/>
      <path class="cls-6" d="M300.58,159.27c.11,1.81-.97,3.56-2.59,4.36-.9.45-1.74.32-2.69.43-.56.06-1,.32-1.32.78-.4.59-.53,1.32-.85,1.95-.38.76-1.04,1.33-1.82,1.67-1.56.69-3.19.5-4.83.36-1.07-.1-2.49-.12-3.24.8-.54.67-.36,1.75-1.13,2.25-.6.39-1.42.34-2.11.43-1.15.16-1.82.65-1.79,1.89.01.51.07,1.01-.26,1.44-.29.37-.77.47-1.21.54-.63.1-1.27.11-1.88.29-1.52.45-1.9,2.15-2.42,3.46-.41,1.02-.82,2.05-1.23,3.07-.2.49-.39.99-.59,1.48-.09.21-.18.43-.31.62-.27.4-.9.53-1.25.18-.56-.55-.62-1.46-.69-2.19-.1-1.09-.15-2.19-.12-3.29.04-2.06.3-4.11.76-6.11.23-1,.52-1.99.86-2.96.31-.9.63-1.85,1.19-2.63.32-.45.77-.93,1.35-1.01.51-.07.94.27,1.44.26.41,0,.72-.24.87-.61.27-.64.12-1.38.28-2.04.19-.76.62-1.45,1.17-2,.61-.6,1.37-1.04,2.2-1.25.99-.25,1.82-.04,2.76.29.53.18,1.11.33,1.63.05.65-.35.75-1.19,1.26-1.67,1.57-1.47,4.03-.25,5.88-.29,1.65-.04,2.74-1.17,4.2-1.75,1.85-.74,3.31.69,5.04,1.05.56.12,1.09.08,1.61-.15.16-.07.02-.16-.1-.11-1.67.72-3.35-.97-4.99-1.16s-2.9,1.11-4.35,1.7c-1.96.79-4.02-.47-6.04-.04-.59.13-1.17.38-1.57.84-.27.3-.4.67-.61,1-.56.88-1.48.48-2.24.22-2.54-.89-5.64.87-6.14,3.54-.17.91.21,2.46-1.32,2.11-.6-.14-1.06-.22-1.62.1-1.45.83-1.98,2.99-2.43,4.45-.65,2.07-1.07,4.21-1.24,6.38-.16,1.98-.26,4.18.15,6.13.2.97,1.16,2.23,2.13,1.2.59-.63.82-1.69,1.14-2.47.42-1.06.85-2.12,1.27-3.18.39-.98.72-2.43,1.76-2.93.71-.34,1.54-.3,2.31-.44.48-.09.99-.23,1.32-.62.52-.62.19-1.39.31-2.1.28-1.59,2.59-.95,3.68-1.55.61-.34.75-.91.93-1.54.34-1.19,1.29-1.55,2.46-1.55,1.53,0,2.97.35,4.5.06,1.32-.25,2.63-.89,3.28-2.11.37-.69.48-1.53.97-2.15.65-.81,2.02-.42,2.96-.67,1.42-.38,2.63-1.47,3.22-2.81.28-.65.4-1.34.35-2.04,0-.09-.26-.03-.25.07h0Z"/>
    </g>
    <g>
      <path class="cls-6" d="M297.34,155.97c-3.17,1.01-6.05-3.87-9.2-2.78-1.52.52-2.71,2.39-4.26,1.93-.71-.21-1.25-.9-1.99-.92-1.53-.03-1.54,2.41-2.66,3.45-1.4,1.3-4.02-.04-5.46,1.23-.4.36-.64.87-1.01,1.25-.71.72-1.78.89-2.74,1.2-.96.31-1.99.97-2.04,1.98-1.69-3.73-.24-8.59,3.2-10.79.37-.24.77-.46,1.03-.81.25-.35.34-.79.46-1.2.63-2.07,2.44-3.74,4.55-4.2.74-.16,1.55-.2,2.13-.69.82-.68.81-1.93,1.31-2.87,1.16-2.19,4.39-2,6.46-3.36.86-.57,1.52-1.4,2.34-2.03.88-.67,1.95-1.08,3.05-1.18.88-.08,1.91.14,2.29.93.26.54.13,1.19.27,1.78.34,1.49,2.12,2.07,3.63,2.29,1.51.22,3.28.51,3.97,1.88.98,1.93-1.07,4.08-1.04,6.24.01.95.44,1.86.37,2.81-.07.86-.53,1.64-.99,2.38-.81,1.3-1.62,2.61-2.43,3.91"/>
      <path class="cls-6" d="M297.33,155.92c-2.3.67-4.38-1.58-6.3-2.47-.82-.39-1.73-.61-2.63-.39-1.07.26-1.85,1.07-2.75,1.64-.5.31-1.05.55-1.64.37-.33-.1-.61-.3-.89-.48-.41-.26-.82-.48-1.31-.44-.77.07-1.19.69-1.49,1.34-.22.47-.39.97-.65,1.43-.45.83-1.13,1.23-2.09,1.29-1.06.07-2.17-.14-3.18.24-.63.24-.98.69-1.37,1.22-.63.86-1.47,1.17-2.46,1.45-1.13.33-2.57.86-2.71,2.22l.27-.06c-.87-1.98-.91-4.23-.22-6.27.34-1.01.86-1.97,1.53-2.79.35-.43.74-.83,1.18-1.18.46-.38,1.03-.63,1.47-1.03.73-.66.77-1.82,1.24-2.66.63-1.13,1.62-2.05,2.8-2.59,1.01-.46,2.26-.37,3.19-.99.81-.53.96-1.51,1.24-2.36.78-2.3,3.21-2.54,5.2-3.27.87-.32,1.64-.76,2.33-1.38,1.23-1.11,2.3-2.18,4.02-2.45.65-.1,1.35-.1,1.94.22.64.34.79.94.84,1.62.07,1.09.42,1.85,1.4,2.4,1.78,1,4.28.46,5.81,1.93,2.03,1.95-.71,4.85-.55,7.1.06.8.37,1.57.36,2.37s-.37,1.53-.77,2.21c-.86,1.44-1.77,2.86-2.65,4.29-.03.05.23.03.27-.04.85-1.37,1.71-2.73,2.54-4.1.34-.55.67-1.13.81-1.77.15-.69.01-1.38-.13-2.06-.3-1.41,0-2.54.5-3.86.39-1.01.87-2.16.5-3.25-.75-2.21-3.65-1.96-5.45-2.51-1.18-.36-2.21-1.06-2.34-2.38-.05-.52,0-1.07-.3-1.54-.28-.43-.75-.65-1.23-.75-.98-.21-2.06.04-2.96.42-1.15.49-1.95,1.34-2.86,2.16-1.73,1.56-4.1,1.52-6.01,2.7-.86.53-1.33,1.28-1.63,2.23-.17.57-.31,1.22-.7,1.68-.57.67-1.46.7-2.26.88-2.08.47-3.87,2-4.59,4.02-.29.81-.37,1.46-1.15,1.98-.5.33-.99.64-1.43,1.04-.89.8-1.59,1.79-2.08,2.87-1.02,2.26-1.13,4.89-.12,7.17.03.07.27,0,.27-.06.18-1.68,2.15-1.9,3.42-2.37.44-.16.86-.36,1.21-.67.63-.56.89-1.41,1.73-1.73,1.16-.44,2.47-.03,3.67-.29.87-.19,1.44-.72,1.84-1.49.52-1.02.94-3.13,2.56-2.24.82.45,1.44.95,2.41.64,1.17-.36,1.95-1.41,3.07-1.86s2.38.03,3.4.6c1.79,1.01,3.7,2.78,5.91,2.13.16-.05.13-.15-.03-.1h0Z"/>
    </g>
    <g>
      <path class="cls-6" d="M306.21,156.86c1.88-.64,2.86-3.13,1.92-4.88-.31-.58-.81-1.25-.49-1.82.14-.25.4-.4.63-.57,1.45-1.09,1.67-3.48.44-4.81-.26-.28-.57-.53-.74-.87-.67-1.43,1.64-3.22.66-4.45-.83-1.04-2.66.08-3.79-.61-1.1-.67-.79-2.53-1.8-3.33-1.51-1.18-4.5.96-5.35-.76-.45-.9.43-1.96,1.39-2.23.97-.27,2-.06,2.99-.16,2.58-.25,4.51-2.46,6.88-3.51,2.48-1.1,5.31-.89,8.01-.67,1.16.1,2.35.21,3.38.75,1.58.84,2.51,2.75,2.21,4.52-.06.34-.15.73.04,1.02.11.17.3.27.48.37.9.47,1.8.94,2.7,1.41.34.18.71.39.84.75.3.83-.86,1.44-1.74,1.43-.89-.01-1.99-.13-2.45.62-.87,1.41,1.95,2.87,1.46,4.46-.5,1.64-3.56.83-4.26,2.39-.42.93.37,2.01.17,3-.21,1.02-1.36,1.55-2.39,1.73s-2.16.21-2.98.85c-.63.49-.96,1.26-1.41,1.91-1.38,1.98-3.84,2.86-6.14,3.61"/>
      <path class="cls-6" d="M306.26,156.93c1.32-.49,2.22-1.76,2.35-3.16.06-.72-.11-1.39-.46-2.02-.39-.7-.77-1.35,0-1.96.29-.23.56-.43.79-.73.85-1.11.95-2.78.18-3.96-.49-.76-1.32-1.16-1.09-2.2.16-.73.6-1.35.84-2.05.44-1.29-.44-2.01-1.68-1.95-.91.04-2.01.34-2.65-.51-.49-.64-.51-1.52-.85-2.23-.59-1.25-1.89-1.2-3.07-1.01-.66.11-1.45.34-2.12.13-1.15-.35-.87-1.74-.09-2.33,1.03-.79,2.45-.39,3.65-.51.83-.08,1.62-.37,2.36-.75,1.72-.89,3.17-2.25,4.99-2.95,2.24-.86,4.72-.71,7.06-.52s4.6.5,5.62,2.81c.41.93.37,1.79.26,2.77-.1.94.73,1.15,1.44,1.52.52.27,1.04.54,1.56.82.43.23,1.07.47,1.16,1.02.11.66-.68,1.02-1.2,1.13-.43.09-.87.02-1.31.03-1.21.03-2.33.76-1.69,2.07.49,1,2.35,2.6,1.03,3.69-.97.8-2.51.43-3.48,1.29-1.41,1.24.73,3.27-.86,4.51-1.47,1.14-3.66.42-5,1.83-.68.71-1.04,1.66-1.72,2.37-.73.76-1.64,1.32-2.59,1.76s-1.89.76-2.86,1.08c-.15.05-.11.21.04.16,1.79-.59,3.66-1.22,5.12-2.47.7-.59,1.16-1.3,1.65-2.06.36-.57.76-1.07,1.39-1.35.58-.26,1.22-.33,1.85-.42,1.36-.2,3.16-.76,3.05-2.46-.06-.94-.73-2.08.12-2.86.54-.49,1.37-.57,2.05-.72,1.03-.23,2.25-.77,1.9-2.06-.28-1.05-2.6-2.93-1.18-3.93.78-.55,1.89-.1,2.76-.36.48-.14,1.1-.47,1.2-1.02.14-.81-.87-1.19-1.43-1.48-.52-.27-1.04-.54-1.56-.82-.58-.3-1.24-.52-1.17-1.3.08-.95.17-1.73-.2-2.65-.3-.76-.8-1.44-1.46-1.94-.77-.58-1.71-.83-2.65-.97-1.16-.17-2.35-.24-3.52-.29-2.06-.09-4.18.03-6.07.92s-3.3,2.32-5.17,3.05c-1.18.46-2.32.32-3.55.39-.79.04-1.55.26-2.09.87-.92,1.04-.3,2.34,1.04,2.36s3.31-.97,4.27.34c.85,1.16.51,3.13,2.37,3.28.81.07,1.88-.35,2.62.09.84.5.5,1.46.18,2.16-.28.61-.68,1.27-.67,1.96.01.83.76,1.21,1.16,1.84.5.77.61,1.75.39,2.63-.12.47-.33.92-.65,1.29-.29.34-.72.52-.99.87-.6.76.21,1.61.5,2.31.34.83.28,1.79-.06,2.6-.36.87-1.03,1.56-1.92,1.89-.16.06-.02.18.11.14h0Z"/>
    </g>
    <g>
      <path class="cls-6" d="M307.25,161.69c.51-2.42,4.12-2.01,6.28-3.22,1.65-.92,2.55-2.97,4.35-3.54,1.29-.41,2.94-.02,3.85-1.03.53-.59.59-1.45.96-2.15,1.41-2.67,6.27-1.67,7.59-4.39,1.19-2.45-1.65-5.89.22-7.86.58-.61,1.5-.86,1.99-1.55,1-1.38-.34-3.21-1.59-4.36-1.74-1.62-3.48-3.23-5.23-4.85,4.53-1.73,9.57-2.11,14.31-1.09,1.74.37,3.53.98,4.73,2.3,1.21,1.31,1.62,3.49.51,4.88-.33.41-.76.73-1.02,1.18-1.14,2,1.68,5.11-.12,6.53-.42.33-.99.42-1.4.76-1.2.99-.25,3.19-1.28,4.36-.89,1.01-2.61.56-3.78,1.23-.71.4-1.12,1.16-1.68,1.76-.78.83-1.83,1.33-2.86,1.81-2.92,1.37-5.84,2.75-8.75,4.12-2.06.97-4.3,1.97-6.54,1.55-1.92,3.86-7.18,5.63-11.04,3.71"/>
      <path class="cls-6" d="M307.37,161.67c.41-1.73,2.39-2,3.86-2.36s2.71-.86,3.8-1.98c.65-.67,1.25-1.42,2.03-1.94.97-.65,2.09-.55,3.19-.74.62-.11,1.23-.32,1.64-.82.57-.7.58-1.69,1.11-2.42,1.69-2.36,5.71-1.27,7.26-3.83.83-1.37.27-3.07-.05-4.51-.18-.78-.36-1.62-.19-2.42.21-1,.96-1.46,1.76-1.98.67-.43,1.19-1.01,1.18-1.85,0-.89-.55-1.71-1.09-2.37-.73-.89-1.64-1.63-2.47-2.41-.96-.89-1.92-1.78-2.88-2.68-.13-.12-.57-.42-.56-.58s.55-.29.73-.35c.64-.21,1.28-.4,1.93-.56,1.27-.31,2.56-.52,3.86-.63,2.51-.21,5.05-.06,7.51.48,2.01.44,4.27,1.26,5.28,3.21.44.86.63,1.88.38,2.83-.27,1.02-1.19,1.49-1.62,2.38-.63,1.3.17,2.85.45,4.14.15.7.23,1.52-.31,2.08-.61.64-1.58.63-2.01,1.47-.37.73-.26,1.62-.35,2.41-.04.38-.12.77-.31,1.11-.37.66-1.07.86-1.77.97-.74.11-1.52.16-2.19.54-.79.45-1.22,1.3-1.85,1.92-.85.83-1.96,1.3-3.01,1.8-1.16.55-2.32,1.09-3.48,1.64-2.36,1.11-4.69,2.36-7.13,3.28-1.35.51-2.75.8-4.19.57-.06,0-.18.02-.21.08-1.96,3.81-6.95,5.5-10.81,3.64-.06-.03-.29.06-.21.11,3.98,1.92,9.25.15,11.27-3.78l-.21.08c2.37.39,4.6-.6,6.7-1.59,2.62-1.23,5.24-2.47,7.86-3.7,1.03-.48,2.11-.92,3.03-1.6s1.46-1.88,2.48-2.42c.93-.5,2.06-.31,3.03-.73.73-.32,1.1-.94,1.22-1.71.14-.89-.04-1.9.41-2.71.48-.86,1.69-.82,2.18-1.68.75-1.32-.4-3.16-.54-4.52-.04-.39-.03-.8.09-1.18.2-.61.71-.98,1.11-1.46.6-.72.81-1.65.69-2.57-.28-2.18-2.11-3.53-4.05-4.22-2.55-.9-5.4-1.15-8.09-1.05s-5.57.67-8.2,1.65c-.02,0-.11.05-.07.08,1.81,1.68,3.67,3.31,5.43,5.04.72.7,1.43,1.56,1.67,2.56.27,1.18-.45,1.88-1.38,2.45-.64.4-1.2.84-1.43,1.58-.21.65-.14,1.35-.02,2.01.27,1.53,1.03,3.28.39,4.81s-2.41,1.93-3.85,2.32c-1.17.32-2.47.65-3.34,1.56-.57.6-.71,1.37-1.01,2.11-.54,1.29-1.77,1.32-2.98,1.44-1.6.16-2.61.94-3.69,2.09-.74.8-1.49,1.56-2.52,1.97-.85.34-1.77.5-2.65.73-1.28.33-2.72.81-3.06,2.24-.02.07.23.03.25-.04h0Z"/>
    </g>
    <g>
      <path class="cls-6" d="M311.08,166.43c2.53,2.22,6.7,2.26,9.28.1.86-.72,1.55-1.65,2.49-2.27,2.72-1.82,6.71-.65,9.33-2.61,1.43-1.06,2.15-2.86,3.54-3.98,2.76-2.23,7.28-1.15,9.89-3.56.67-.62,1.16-1.43,1.94-1.9,1.24-.75,2.88-.43,4.19-1.05,1.72-.83,2.44-3.09,4.21-3.82,1.05-.43,2.35-.25,3.25-.95,1.56-1.22.79-4.15,2.44-5.25.64-.43,1.5-.44,2.15-.86,1.57-1.01.91-3.52-.37-4.89-1.62-1.74-3.83-2.77-5.99-3.77-.51-.23-1.01-.47-1.52-.7-2.57-1.18-5.72-2.34-8.06-.75-.46.31-.89.85-.72,1.38.09.27.32.47.54.66,1.63,1.35,3.26,2.71,4.89,4.06-1.7.24-2.25,2.42-2.23,4.14.02,1.72.02,3.81-1.47,4.68-.75.44-1.79.47-2.27,1.19-.37.56-.25,1.31-.46,1.95-.62,1.9-3.33,1.68-5.21,2.38-1.31.49-2.31,1.56-3.41,2.44-1.27,1.01-2.7,1.79-4.13,2.56-1.29.7-2.58,1.39-3.88,2.09-3.61,1.94-7.22,3.89-10.94,5.59-2.62,1.2-5.29,2.28-8.01,3.24"/>
      <path class="cls-6" d="M310.96,166.47c2.14,1.82,5.26,2.18,7.82,1.08,1.58-.68,2.51-2.02,3.83-3.05,1.55-1.21,3.56-1.29,5.43-1.51,1.33-.16,2.7-.38,3.85-1.09,1.42-.87,2.15-2.39,3.24-3.59,2.32-2.55,6.02-1.91,8.96-3.19.54-.23,1.04-.54,1.49-.92.72-.62,1.21-1.49,2.04-1.99,1.46-.87,3.33-.36,4.75-1.4,1.18-.87,1.81-2.29,3.02-3.13s3.15-.37,4.21-1.6c.84-.97.79-2.39,1.17-3.56.31-.94.86-1.46,1.83-1.76.58-.18,1.18-.33,1.62-.78.91-.94.61-2.46.07-3.51-.74-1.46-2.2-2.49-3.58-3.3-1.65-.96-3.42-1.73-5.17-2.51-1.5-.67-3.11-1.28-4.77-1.33-1.2-.03-2.78.27-3.56,1.29-.45.58-.28,1.11.24,1.56.82.71,1.67,1.39,2.51,2.09s1.63,1.35,2.44,2.03l.14-.09c-3.05.54-2.1,4.67-2.53,6.79-.18.87-.58,1.72-1.41,2.14-.59.3-1.3.38-1.84.8-.63.49-.58,1.24-.72,1.95-.16.88-.74,1.45-1.57,1.76-1.34.51-2.83.49-4.13,1.14-1.64.81-2.88,2.29-4.42,3.27-1.86,1.18-3.85,2.16-5.79,3.2s-3.9,2.1-5.86,3.12c-4.48,2.33-9.06,4.41-13.82,6.1-.17.06-.01.1.09.06,8.17-2.9,15.74-7.07,23.34-11.19,1.62-.88,3.14-1.83,4.53-3.03.8-.69,1.62-1.38,2.63-1.74.73-.26,1.51-.36,2.27-.53,1.01-.22,2.21-.54,2.73-1.52.39-.74.12-1.74.68-2.39.54-.62,1.48-.65,2.16-1.05,1.38-.81,1.49-2.61,1.5-4.04.01-1.58.03-4.37,2.08-4.74.02,0,.19-.05.14-.09-1.57-1.3-3.14-2.6-4.7-3.91-.26-.22-.62-.46-.72-.8-.17-.56.28-1.04.69-1.34.95-.67,2.15-.81,3.28-.68,1.76.19,3.41.94,5,1.67s3.17,1.41,4.64,2.32c1.31.81,2.66,1.84,3.31,3.29.6,1.34.64,3.11-.96,3.73-.61.23-1.27.31-1.8.71-.38.29-.64.71-.81,1.16-.42,1.1-.37,2.38-.99,3.41-.89,1.47-2.88.97-4.21,1.77-1.1.67-1.74,1.84-2.63,2.74-.67.68-1.4,1.04-2.35,1.19-.74.12-1.5.15-2.22.38-1.44.46-2.05,1.84-3.23,2.67-2.34,1.65-5.48,1.21-8.03,2.34-1.29.57-2.16,1.55-2.98,2.67-1.05,1.43-2.11,2.56-3.89,3.03-1.61.42-3.29.38-4.91.73s-2.72,1.08-3.85,2.22c-1.46,1.48-3.06,2.48-5.2,2.55-1.79.06-3.55-.52-4.91-1.68-.05-.05-.28.05-.24.09h0Z"/>
    </g>
    <g>
      <path class="cls-6" d="M348.1,157.98c-.84-.99.2-2.55,1.42-2.99,1.22-.44,2.61-.31,3.78-.88,1.52-.73,2.31-2.45,3.67-3.45,1.44-1.06,3.34-1.2,5.04-1.75,1.7-.55,3.47-1.9,3.33-3.69-.07-.96-.64-2.09.05-2.76.7-.68,2.08-.13,2.73-.86.73-.82-.31-2.14.04-3.18.23-.7,1.02-1.05,1.75-1.12,2.53-.21,4.52,2,6.07,4,1.81,2.33,3.62,4.66,5.42,6.99.13.16.25.33.33.52.34.87-.63,1.77-1.55,1.8-.93.03-1.77-.48-2.62-.87-.84-.39-1.87-.67-2.67-.2-.8.47-1.07,1.51-1.72,2.17-1.61,1.62-4.46.24-6.61,1.01-1.33.47-2.27,1.74-3.61,2.19-1.36.47-2.87,0-4.3.18-2.01.24-3.63,1.66-5.34,2.73-1.71,1.08-3.99,1.83-5.68.73"/>
      <path class="cls-6" d="M348.22,157.92c-.49-.65-.27-1.43.21-2.02.63-.78,1.54-.99,2.49-1.14,1.31-.2,2.49-.39,3.5-1.3,1-.89,1.69-2.1,2.81-2.85,1.34-.9,3.01-1.07,4.53-1.52,1.13-.33,2.26-.9,3.01-1.83.82-1,.74-1.98.51-3.18-.06-.34-.14-.7-.06-1.04.14-.66.73-.81,1.31-.87.48-.05,1-.03,1.43-.29.99-.6.38-1.82.28-2.7-.23-2.15,2.56-1.95,3.85-1.33s2.39,1.8,3.32,2.94c1.09,1.34,2.12,2.72,3.18,4.09.55.71,1.11,1.42,1.66,2.14.5.64,1.72,1.72,1.35,2.6-.44,1.05-1.68,1.03-2.58.7-.79-.29-1.5-.78-2.33-.98-1.15-.29-2.07.08-2.72,1.07-.38.57-.67,1.21-1.26,1.6-.64.43-1.44.49-2.18.48-1.26,0-2.58-.25-3.82.13-1.51.46-2.47,1.91-3.99,2.31-1.01.27-2.07.09-3.1.07-.81-.01-1.57.1-2.33.38-1.49.56-2.72,1.59-4.06,2.42-1.6,1-3.74,1.79-5.5.71-.1-.06-.32.07-.19.15,2.78,1.7,5.72-.71,7.99-2.16.74-.47,1.52-.9,2.37-1.14,1.07-.29,2.14-.14,3.23-.12.7.02,1.4-.03,2.05-.29.7-.28,1.29-.76,1.89-1.21s1.25-.88,2.01-1.04c.85-.18,1.73-.1,2.59-.06,1.18.06,2.52.1,3.46-.73.42-.37.68-.85.97-1.32.26-.42.56-.84,1.03-1.05.64-.28,1.38-.1,1.99.14,1.24.48,2.65,1.56,3.99.75.4-.24.76-.65.82-1.13.09-.77-.73-1.47-1.15-2.02-1.26-1.62-2.51-3.24-3.77-4.86-1.66-2.13-3.68-5.2-6.72-5.22-1.05,0-2.3.48-2.33,1.69-.02.65.29,1.27.3,1.91.01,1.2-1.19,1.07-2.03,1.21-1.28.21-1.39,1.21-1.16,2.32.16.82.26,1.55-.15,2.32s-1.18,1.38-1.97,1.78c-1.57.8-3.4.85-5,1.57s-2.43,2.2-3.7,3.34c-.78.7-1.68.98-2.7,1.14-.8.12-1.65.18-2.38.56-1.03.53-2,1.9-1.18,2.99.07.09.31,0,.23-.11h0Z"/>
    </g>
    <g>
      <path class="cls-6" d="M366.84,156.22c1.48-1.57,4.23-.13,6.24-.91,1.24-.48,2.14-1.8,3.47-1.85,1.59-.07,3.05,1.74,4.51,1.1.98-.43,1.33-1.78,2.34-2.12.93-.31,1.87.39,2.57,1.08,2.38,2.35,4.36,5.1,5.83,8.1.16.34.33.7.29,1.07-.09.84-1.2,1.23-1.98.91s-1.26-1.09-1.67-1.83c-.4-.74-.81-1.53-1.52-1.99-2.09-1.33-5.05,1.16-7.23-.02-.67-.36-1.15-1.03-1.86-1.28-1.66-.58-3.45,1.37-5.09.73-.6-.23-1.03-.77-1.54-1.17-.84-.65-1.98-.9-3.01-.66-.49.11-.97.32-1.46.25-.49-.07-.96-.6-.74-1.04"/>
      <path class="cls-6" d="M366.94,156.24c1.47-1.45,3.94-.29,5.75-.74.87-.21,1.53-.78,2.24-1.29.48-.34.98-.65,1.58-.68s1.17.22,1.7.48c1.28.61,2.56,1.23,3.68,0,.31-.34.55-.73.88-1.06.7-.71,1.58-.54,2.32-.03.94.66,1.73,1.61,2.47,2.48,1.58,1.84,2.94,3.88,4.02,6.05.28.56.64,1.3.1,1.82-.59.58-1.49.37-2.05-.11-.77-.66-1.1-1.66-1.65-2.48-1.02-1.52-2.54-1.53-4.16-1.16-.95.21-1.91.54-2.9.47-1.15-.08-1.71-.92-2.64-1.44-1.94-1.09-3.9,1.54-5.77.4-.5-.31-.87-.78-1.36-1.11s-1.02-.52-1.59-.6c-.46-.06-.91-.04-1.36.05-.32.07-.69.24-1.02.25-.56,0-1.28-.31-1.05-.99.03-.09-.22-.05-.25.03-.31.92.83,1.18,1.49,1.06.73-.14,1.38-.37,2.14-.25.8.13,1.44.53,2.03,1.06.68.61,1.34,1.04,2.29.91,1.03-.15,1.93-.78,2.97-.91,1.41-.19,2.03,1.14,3.23,1.54.74.25,1.54.16,2.28.02,1.06-.21,2.12-.61,3.21-.57,1.47.06,2.16,1.18,2.8,2.35.42.77.96,1.66,1.86,1.92.61.18,1.4,0,1.81-.5.69-.87-.33-2.2-.76-2.98-.6-1.08-1.27-2.13-2.01-3.13-.79-1.08-1.66-2.12-2.59-3.09-.69-.72-1.54-1.66-2.61-1.72-.76-.04-1.31.43-1.76.99-.36.44-.69,1-1.24,1.23-.69.3-1.43-.05-2.06-.35-.86-.42-1.77-.94-2.76-.72-1.12.24-1.88,1.18-2.87,1.68-2.05,1.04-4.81-.67-6.59,1.08-.1.1.14.1.2.04h0Z"/>
    </g>
    <path class="cls-6" d="M271.32,206.35c-2.12.8,8.33,2.45,8.6.2.27-2.25.46-7.92,2.31-9.24,1.85-1.32-7.81,4.32-5.52-6.43-1.82-1.52-5.3,5.31-7.5,4.43-2.86-1.15,1.81-5.29,3.43-7.92,1.61-2.63,1.69-3.68,3.45-6.21.66-.95-1.09-3.26-2.03-3.94-.35-.25-.81-.3-1.23-.41-1.86-.48-3.2-2.24-3.57-4.12-.38-1.88,5.62-4.09,6.38-5.85,1.3-3,.95-5.48,3.71-7.25,1.11-.71-.64-1.19.1-2.27.74-1.08.72-2.84-.43-3.47-.68-.37-1.52-.24-2.28-.09-3.46.7-6.96,1.64-9.84,3.69-2.88,2.05-5.04,5.4-4.8,8.92.09,1.39.54,2.81.16,4.15-.47,1.68-2.11,2.77-2.84,4.35-1.48,3.19,1.11,7.3-.65,10.35-.55.95-1.46,1.65-2.07,2.55-1.1,1.62-1.11,3.91-.02,5.54.65.98,1.63,1.7,2.28,2.69,2.42,3.67-.8,8.73.49,12.93,1.24,4.06,3.88,5.22,6.93,2.27"/>
    <path class="cls-6" d="M299.86,129.89c1.96.38,3.77-.98,5.54-1.92,2.74-1.46,5.97-2.01,9.04-1.53,2.32.36,4.61,1.29,6.94,1,1.34-.17,2.6-.73,3.88-1.19,4.46-1.59,9.37-1.88,13.98-.81.99.23,1.99.52,3,.44,1.2-.1,2.29-.71,3.43-1.09,2.61-.88,5.6-.5,7.91,1,3.41,2.21,5.66,6.78,9.73,6.9,3.02.09,6.46-2.39,8.73-.39,1.06.93,1.3,2.5,2.21,3.58,1.95,2.31,5.99,1.49,8.16,3.59,1.79,1.74,1.6,4.8,3.29,6.63,1.11,1.21,2.82,1.65,4.22,2.51,1.4.86,2.58,2.67,1.75,4.09l.98,2.18c7.31,7.43,8.24,23.82,6.67,22.87-1.57-.95-9.51-11.04-9.65-12.87-.88-11.48-10.55-17.69-13.38-18.92-2.56-1.11-5.39-1.75-7.57-3.5-1.38-1.11-4.25.16-5.92-.44-2.25-.81-3.16-2.47-5.3-3.53-1.13-.56-2.93,1.24-3.71.25-2.04-2.61-6.24-2.82-9.55-2.69-2.79.11-2.9-3.07-5.69-3.18-1.83-.08-3.17,3.03-4.94,2.55-2.56-.7-4.41-1.01-7.04-.68-4.56.57-10.32-2.31-14.88-1.74-3.06.38-6.17,4.66-8.92,6.06-3.97,2.01-7.13,2.16-11.57,2.5-1.06-2.74-.54-6.03,1.3-8.33,1.84-2.29,4.94-3.51,7.85-3.07"/>
    <path class="cls-6" d="M261.6,253.29c-4.27.66-7.91,4.25-8.64,8.5-.73,4.25,1.53,8.85,5.33,10.89-3.36,4.1-6.83,8.44-7.78,13.65-.96,5.21,1.61,11.47,6.75,12.73-3.07,3.23-6.28,6.73-7.06,11.12-.78,4.39,2.11,9.71,6.57,9.72-2.45,3.02-5,6.22-5.63,10.06-.63,3.84,1.46,8.41,5.29,9.08-3.26,3.15-5.94,7.61-4.91,12.03,1.03,4.41,7.45,7.14,10.33,3.65,1.72-2.08,1.41-5.11,1.01-7.78-.48-3.2-.96-6.4-1.44-9.6,5.7-3.84,6.16-13.38.86-17.75,6.66-4.8,6.61-16.34-.09-21.08,7.31-5.99,7.98-18.42,1.36-25.17,7.59-5.27,7.63-18.32.09-23.64"/>
    <path class="cls-3" d="M308.9,213.97l1.49,5.51c.76,4.24,4.56,12.75,5.96,15.14,1.96,3.35,26.81,7.15,31.96,5.16,5.15-1.99,9.13-14.22,10.73-16.98l9.94,1.53c.52,3.84,2.46,16.05,4.2,17.85,1.73,1.8,13.22,2.71,14.52,2.81,1.08.07,2.58.18,4.22.23,4.36.18,9.67.09,11.43-1.15,2.61-1.83,6.03-9.51,9.03-16.8l.49-1.14c.11-.27.23-.46.24-.55h0l.54-1.31c-13.78-7.51-32.75-8.49-44.94-2.31l.08.14-9.69-1.54c-10.36-7.56-29.04-13.03-43.11-9.83h0l-38.97,5.46-.45,3.27,32.35-5.51ZM374.47,241.09c-1.08-1.12-2.74-9.7-3.77-16.35,10.58-5.19,27.67-4.29,40.06,1.79l-.02.17c-1.61,3.91-5.9,14.3-8.47,16.1-3.03,2.12-25.88.09-27.8-1.66v-.04ZM319.4,234.04c-3.52-5.21-6.04-13.19-7.5-19.89,12.59-3.56,34.52,1.53,44.67,8.73-2.24,5.05-5.32,13.97-9.01,15.39-5.31,2.06-26.93-2.11-28.15-4.23h0Z"/>
    <path class="cls-28" d="M248.47,631.58c-14.4-.96-28.73-2.29-42.02-8.34-9.53-4.34-18.51-9.77-28.03-14.12-3.98-1.82-7.92-3.62-11.56-5.83-1.54-1.34-3.07-2.7-4.56-4.09l32.3-73.83,31.02-140.43-30.34-46.39s22.42-12.23,25.81-14.66c9.28-6.64,34.97-22.58,52.11-25.55h0s11.3,46.63,52.81,51.4c31,3.56,20.24-30.69,20.24-30.69,0,0,47.51,32.75,52.71,38.66h0c-2.83-7.36.5,53.69,6.52,103.35,1.67,13.8,5,43.17-13.88,60.37-6.26,5.71-13.01,67.36-13.01,67.36l1.93,35.09c.3,5.46-3.88,10.12-9.33,10.41-19.53,1.05-64.45,2.7-101.78-1.58-6.56-.75-13.63-1.08-20.94-1.12Z"/>
    <path class="cls-1" d="M263.15,526.34c-.07,2.37-.05,4.75.06,7.11.04-.16.07-.3-.02-.5-.04-1.38-.07-3.66-.04-6.61Z"/>
    <path class="cls-6" d="M257.86,247.36c-4.31-.15-8.57,2.7-10.07,6.74s-.15,8.98,3.21,11.69c-4.06,3.4-8.28,7.02-10.19,11.96-1.91,4.94-.56,11.57,4.26,13.76-3.62,2.61-7.42,5.45-9.01,9.61-1.59,4.17.26,9.94,4.64,10.77-2.97,2.51-6.07,5.18-7.4,8.83-1.33,3.65-.14,8.54,3.5,9.91-3.79,2.49-7.26,6.37-7.07,10.9.19,4.53,5.99,8.41,9.47,5.51,2.08-1.72,2.34-4.76,2.44-7.45.13-3.23.25-6.47.38-9.7,6.32-2.71,8.55-12,4.15-17.28,7.43-3.48,9.53-14.82,3.84-20.73,8.3-4.52,11.28-16.61,6.03-24.47,8.44-3.76,10.92-16.58,4.49-23.21"/>
    <path class="cls-23" d="M175.69,810.64c-3.75-7.25-8.63-17.08-8.28-18.51s1.28-11.29,2.07-19.91c.21-4.41,3.64-8.01,7.65-8.05,1.05-.01,4.86,20.37,13.35,17.55l.16-18.04c-.72-5.8-2.11-11.43-4.16-16.75-2.91-6.42-16.82-21.13-16.82-21.13l.68-23-37.27,3.75,3.21,22.5-6,22.15s-2.67,41.97.31,46.94c2.98,4.97,14.03,10.34,14.03,10.34,2.86,7.27,13,7.69,13,7.69,8.4,10.04,10.52,1.27,10.52,1.27.21.42.52.76.9.98,4.15,2.44,8.9-3.47,6.63-7.78Z"/>
    <path class="cls-2" d="M155.38,780.66c-1.39,5.87-1.53,11.93-.4,17.7,1.61,5.59,4.56,10.52,8.56,14.31,1.44,1.74,3.14,3.21,5.03,4.34"/>
    <path class="cls-2" d="M145.94,782.24c-.47,2.42-.77,4.86-.9,7.31-.28,3.06.02,6.12.88,8.97,1.08,2.65,2.45,5.14,4.07,7.41l3.79,5.5c1.06,1.81,2.36,3.43,3.87,4.79"/>
    <path class="cls-2" d="M137.04,783.22c-.71-.02-1.03,3.62-1.1,12.59.02,1.24.32,2.43.89,3.47.42.91.91,1.78,1.44,2.61.86,1.42,1.85,2.74,2.95,3.94,1.9,2.05,3.42,2.86,3.55,2.65"/>
    <path class="cls-23" d="M282.19,252.5c-11.65,7.83-16.47-9.26-16.47-9.26-6.97-13.1-6.77-25.62-4.73-33.66,2.03-8.04,10.96-6.02,10.96-6.02,7.43,2.44,6.17,3.1,11.97,26.85"/>
    <path class="cls-25" d="M280.23,228.95c-1.19-4.39-2.62-8.78-4.75-12.82-1.06-2.01-2.31-4.01-3.96-5.59-.63-.6-1.42-1.31-2.28-1.56-1.05-.31-1.98.68-2.62,1.37-2.61,2.81-3.46,6.69-3.31,10.43.01.28,1.47.04,1.45-.39-.15-3.77.83-8.88,4.3-11.13l-1.15.26c.77.17,1.64.94,2.25,1.53,2.38,2.28,3.96,5.39,5.25,8.37,1.39,3.21,2.45,6.55,3.37,9.92.09.35,1.54-.04,1.45-.39h0Z"/>
    <path class="cls-25" d="M276.42,227.12c-2.16-.31-3.93.66-4.19,2.89s.54,4.52.17,6.73c-.02.09-.37.99-.39.95l.49-.09c-.05-.02-.1-.05-.15-.08-.03-.06-.19-.16-.23-.21-.21-.22-.36-.51-.5-.78-.79-1.56-1.14-3.38-1.43-5.08-.41-2.45-.64-4.66-.16-7.08.51-2.6,1.68-6.3,4.59-7.04.85-.22.72-.73-.14-.51-2.84.72-4.48,3.04-5.35,5.71-.58,1.78-.99,3.76-.84,5.65.19,2.31.51,4.64,1.17,6.86.28.96.71,2.68,1.77,3.12.81.34,1.95-.16,2.37-.9.47-.82.33-1.98.27-2.87-.09-1.41-.31-2.82-.23-4.24.03-.62.11-1.3.42-1.86.36-.65.73-.65,1.43-.55.35.05,1.67-.53.93-.64h0Z"/>
    <path class="cls-22" d="M333.19,350.67s-2.45.05-7.09,1.62c-4.64,1.57-10.81,14.21-10.81,14.21,0,0-21.51-9.16-33.63-23.88-12.12-14.72-20.44-40.78-20.44-40.78,0,0,3.95-9.02,15.65-11.13,0,0,33.75,51.16,56.32,59.97Z"/>
    <path class="cls-22" d="M333.19,350.67s13.77,2.69,17.5,13.21c0,0,8.75-12.11,10.4-24.04,1.65-11.92,1.53-11.07,1.53-11.07,0,0-9.95-14.44-15.89-13.15,0,0,1.11,28.96-13.54,35.05Z"/>
    <g id="freepik--Character--inject-2">
      <path class="cls-23" d="M484.39,383.2l12.27-17.44s2.36-17.91,5.28-22.67c2.92-4.76,19.23-19.88,20.22-20.31.99-.43,10.65-26.54,15.86-26.07,5.21.47,8.99,3.89,8,10.86-.99,6.97-11.53,21.46-8.23,23.52,2.65,1.4,5.54,2.27,8.52,2.58,0,0,.74-6.53,4.9-9.36,4.16-2.83,8.56-.97,8.56-.97l-.75,6.16,6.92-6.61s3.66-15.49,10.49-15.85c1.38-3.56,2.5-7.27,5.18-9.98,2.47-2.13,6.2-1.85,8.32.62.37.43.68.92.92,1.44h0l-9.9,36.8-31.32,39.35s-20.38,6.48-24.29,8.61c-3.91,2.12-11.77,17.32-13.39,15.95-13.65-11.54-27.56-16.62-27.56-16.62Z"/>
    </g>
    <path class="cls-26" d="M498.55,364.82c.47.82.95,1.64,1.59,2.34.59.65,1.33,1.15,2.11,1.54,2.3,1.16,4.87,1.69,7.37,2.23.33.07.78-.04,1.02-.27.22-.21.17-.44-.14-.51-2.36-.51-4.78-1-6.96-2.07-1.65-.8-2.65-2.08-3.54-3.64-.28-.48-1.67,0-1.45.39h0Z"/>
    <path class="cls-26" d="M531.3,369.73c.77-6.08,5.29-10.13,9.11-14.5.94-1.07,1.88-2.17,2.67-3.36.92-1.39,1.29-2.85,1.56-4.48.5-2.93,1.05-5.86,1.56-8.79.58-3.31.93-6.77,2.24-9.89,1.21-2.87,3.32-4.81,6.36-5.58.85-.22,3.03-.69,3.83-.06.52.4.1,1.99.05,2.57-.08.91-.17,1.83-.26,2.74-.35,3.57-.77,7.13-1.14,10.7-.4,3.88-.53,7.82-1.18,11.66s-1.95,7.78-3.74,11.37c-.3.61,1.14.44,1.35.02,1.41-2.83,2.54-5.77,3.28-8.85.78-3.23,1-6.5,1.29-9.81.6-6.91,1.54-13.79,2.05-20.72,0-.11-.03-.21-.15-.25-3.02-1.13-6.67-.18-9.31,1.5-3.45,2.2-4.62,6.28-5.33,10.1-.82,4.4-1.59,8.81-2.32,13.22-.18,1.08-.34,2.19-.78,3.21-.5,1.17-1.36,2.2-2.15,3.18-1.31,1.62-2.75,3.14-4.15,4.68-3.02,3.34-5.72,6.9-6.3,11.49-.07.56,1.39.3,1.45-.19h0Z"/>
    <path class="cls-26" d="M564.42,342.1c-.12-8.92,1.22-18.01,4.53-26.33.77-1.95,1.58-4.07,2.83-5.76,1.24-1.69,3.8-2.95,5.88-2.23.84.29.83.52.82,1.38,0,.58-.05,1.16-.09,1.74-.17,2.49-.33,4.98-.5,7.48-.39,5.81-.78,11.63-1.17,17.44-.05.76,1.42.57,1.47-.1.4-5.9.79-11.8,1.19-17.69.17-2.56.35-5.12.52-7.69.07-1.12.44-2.7-.75-3.28-1.65-.82-3.6-.65-5.26.04-1.98.82-3.3,2.21-4.3,4.07-2.33,4.3-3.83,9.13-4.89,13.88-1.26,5.63-1.81,11.4-1.73,17.17.01.77,1.48.56,1.47-.1h0Z"/>
    <path class="cls-26" d="M525.56,329.79c3.29.31,6.51,1.23,9.45,2.73.28.14.66.06.94-.05.07-.03.67-.34.42-.47-3.09-1.57-6.43-2.54-9.89-2.86-.33-.03-.76.07-1.02.27-.21.17-.2.35.1.38h0Z"/>
    <path class="cls-24" d="M991.32,601.6l2.41,57.59c.68,38.39-7.6,64.69-18.21,101.59l-22.53,155.96s.11,67.79,6.91,123.8c5.92,48.56-9.38,135.75-9.38,135.75l-16.84,3.19c-15.21,2.88-30.77,3.45-46.15,1.69l-33.01-3.8-31.14-287.3-22.82-175.92-31.29-105.74,222.04-6.81Z"/>
    <path class="cls-24" d="M736.49,601.6l21.56,311.44c.01,13.59,5.46,25.93,11.7,91.35l11.86,111.47,4.27,48.46,9.58,1.65c13.16,2.64,26.61,3.49,40,2.51l29.33-1.2-32.52-559.28-95.77-6.41Z"/>
    <path class="cls-6" d="M794.89,689.69c14.66,11.15,20.39,30.3,22.29,47.86,1.05,9.69.83,19.36,1.12,29.08.02.75.07,1.5.11,2.25l.71,14.67c.4,8.25.8,16.5,1.2,24.74.5,10.22.99,20.43,1.49,30.65.53,10.8,1.05,21.59,1.58,32.39l1.46,29.96,1.14,23.37.61,12.61c.05,1.11.16,2.21.27,3.32.39,3.92.77,7.84,1.16,11.75.66,6.67,1.32,13.34,1.97,20.01.86,8.72,1.72,17.44,2.58,26.17.99,10.07,1.99,20.14,2.98,30.22,1.06,10.72,2.12,21.44,3.17,32.17s2.11,21.34,3.16,32.01c.98,9.92,1.96,19.84,2.94,29.76.84,8.47,1.67,16.93,2.51,25.4.62,6.31,1.25,12.63,1.87,18.94l1.02,10.38c.04.44.09.88.13,1.32.02.22,1.13.02,1.09-.29-.18-1.84-.36-3.69-.55-5.53-.49-5.01-.99-10.02-1.48-15.03l-2.23-22.64c-.92-9.31-1.84-18.62-2.76-27.93l-3.08-31.2c-1.06-10.79-2.13-21.57-3.19-32.36-1.03-10.47-2.07-20.94-3.1-31.41-.94-9.49-1.87-18.98-2.81-28.47-.76-7.73-1.53-15.46-2.29-23.2l-1.57-15.94c-.22-2.19-.48-4.38-.65-6.58-.16-2.06-.2-4.13-.3-6.18-.31-6.29-.61-12.58-.92-18.87-.44-9.09-.88-18.17-1.33-27.26-.52-10.63-1.03-21.26-1.55-31.88s-1.04-21.33-1.56-31.99c-.45-9.35-.91-18.7-1.36-28.05l-.97-19.93c-.12-2.55-.29-5.1-.37-7.66-.16-5.13-.04-10.27-.21-15.41-.17-5.2-.5-10.4-1.13-15.57-1.15-9.35-3.34-18.61-7.4-27.15-3.46-7.28-8.29-13.99-14.74-18.89-.25-.19-1.21.24-1.03.38h0Z"/>
    <path class="cls-6" d="M505.36,195.37c-2.73-4.71-7.48-8.69-12.92-8.75-5.44-.06-10.84,5.2-9.49,10.48-5.97-.24-12.25,2.25-15.59,7.2-3.34,4.96-3,12.4,1.49,16.35,1,.88,2.23,1.69,2.5,3,.2.97-.22,1.95-.6,2.87-1.62,3.87-2.8,8.17-1.78,12.23,1.02,4.07,4.91,7.65,9.06,7.04-1.15,6.08-2.09,12.75.95,18.13s11.83,7.6,15.32,2.49c1.39,4.66,3.54,9.1,6.32,13.08.95,1.35,2.05,2.72,3.61,3.28,4.06,1.47,7.57-3.1,9.49-6.96,3.84,1.36,7.95,1.96,12.02,1.74,2.65-.14,5.84-1.15,6.33-3.76.29-1.57-.55-3.27.07-4.73.76-1.79,3.11-2.08,4.89-2.87,4.02-1.77,5.61-6.92,4.73-11.23-.88-4.3-3.63-7.95-6.3-11.44"/>
    <path class="cls-22" d="M633.35,346.64s26.07,20.62,31.97,47.2c8.92,40.09,16.93,59.07,16.93,59.07l5.28,9.55c-.72,3.71-20.97,26.88-38.16,24.29l-10.69,5.43-5.33-145.53Z"/>
    <path class="cls-23" d="M468.92,1259.94c4.36-30.8-15.75-170.27-4.79-248.97,14.06-100.93-21.7-190.72-31.97-232.71-21.27-86.96-31.95-145.79-7.58-182.87l207.49,15.17-2.62,40.65c10.95,45.35-13.55,209.42-17.66,332.29l-40.99,259.23s-9.28,10.26-29.6,2.26c0,0-1.62,16.65-7.15,16.48-30.84-.94-21.57,10.54-65.11-1.53Z"/>
    <path class="cls-25" d="M537.88,1258.26c.22-2.01.45-4.02.67-6.03.61-5.5,1.23-11.01,1.84-16.51l2.73-24.5c1.13-10.1,2.25-20.19,3.38-30.29,1.25-11.2,2.5-22.41,3.75-33.61,1.28-11.47,2.56-22.95,3.84-34.42,1.23-11.03,2.46-22.06,3.69-33.1,1.09-9.75,2.18-19.51,3.26-29.26.85-7.66,1.71-15.31,2.56-22.97.54-4.82,1.08-9.64,1.61-14.46.69-6.18,1.42-12.36,1.87-18.56.42-5.68.68-11.37.78-17.07.1-5.7-.21-11.39-.17-17.09,0-.74.05-1.47.08-2.21.18-5.26.36-10.51.54-15.77.31-8.95.61-17.91.92-26.86.37-11,.75-21.99,1.12-32.99s.78-22.94,1.17-34.4c.35-10.41.71-20.82,1.06-31.22.26-7.59.52-15.18.78-22.78.11-3.25.07-6.54.33-9.78.16-1.96.69-3.95,1.16-5.85,1.29-5.2,3.14-10.34,5.9-14.96,3.01-5.04,7.44-9.73,13.37-11.04.57-.13,1.28-.76.27-.54-11.74,2.61-17.6,14.48-20.52,25.11-.91,3.3-1.58,6.52-1.7,9.92-.18,5.35-.36,10.69-.55,16.04-.31,9.04-.62,18.09-.92,27.13l-1.14,33.32c-.39,11.54-.79,23.08-1.18,34.61-.35,10.34-.7,20.67-1.06,31.01-.26,7.5-.51,15.01-.77,22.51-.1,3.03-.31,6.08-.31,9.12,0,4.79.25,9.58.2,14.38-.05,5.78-.27,11.55-.65,17.32-.39,5.91-1.01,11.78-1.67,17.66-.34,2.98-.66,5.96-1,8.94-.7,6.29-1.4,12.59-2.11,18.88-.98,8.8-1.96,17.6-2.95,26.41-1.17,10.51-2.34,21.01-3.52,31.52-1.27,11.41-2.55,22.81-3.82,34.22-1.28,11.5-2.57,23-3.85,34.5-1.2,10.79-2.41,21.58-3.61,32.37-1.04,9.28-2.07,18.55-3.11,27.83-.78,6.96-1.55,13.91-2.33,20.87-.43,3.83-.86,7.67-1.28,11.5-.06.49-.11.99-.17,1.48-.02.19,1.4.05,1.45-.39h0Z"/>
    <path class="cls-24" d="M578.8,964.63c-24.94,3.8-55.9,1.39-81.05-1.39-24.52-2.71-47.73-4.89-64.15-10.09-7.46-58.05-8.92-136.1-15.63-163.55-21.27-86.96-16.48-159.97,7.89-197.05l207.49,29.35,1.24,40.65c9.02,37.37,3.67,181.38-3.28,290.5-11.31,1.9-41.17,9.85-52.5,11.57Z"/>
    <path class="cls-23" d="M518.65,245.13s4.79,28.91-4.44,49.35c-1.58,3.51-22.54,17.61-22.54,17.61l18.74,22.26c15.13,11.18,29.56,25.31,48.35,24.35,10.65-.55,37.61,2.65,46.21.11l5.53-29.36-22.09-14.59c-.68-4.48,4.08-34.3,4.08-34.3"/>
    <path class="cls-26" d="M536.07,275.35s6.06,30.44,52.38,35.61c0,0,.4-6.03.74-7.89l-.13-.75-52.99-26.96Z"/>
    <path class="cls-23" d="M524.54,264.14c12.56,16.56,31.08,36.15,53.3,41.55,18.82,4.58,25.48-.4,28.34-2.99,15.68-14.18,26.34-29,33.19-46.54,1.86-4.76,2.44-10.01,2.54-15.43.15-8.12-.14-23.74.59-31.45,1.87-19.65-5.48-37.37-15-54.76-19.82-36.24-67.06-40.12-87.77-32.22-24.21,9.23-36.53,30.93-39.87,54.78-1.09,7.78-.88,15.15.53,22.07,3.02,3.93,5.58,8.14,7.67,12.55"/>
    <g>
      <path class="cls-6" d="M627.54,146.57s4.17,12.3,12.48,37.06c-1.9-7.82-2.32-19.37-7.93-30.52-19.58-38.94-87.22-39.32-108-30.67-24.29,10.12-34.84,33.43-38.35,59.17-1.43,10.45-2.4,17.11.03,26.07.14.13,1.83,2.2,1.83,2.2,0,0,20.8,5.74,26.76,19.11l1.19-11.14s1.16-6.82,8.88-31.92c0,0,.79-4.03,9.31-19.7,8.51-15.67,16.37-19.71,16.37-19.71,0,0,34.85-2.87,43.03-2.15,8.18.72,34.42,2.19,34.42,2.19Z"/>
      <path class="cls-6" d="M627.36,146.62c.64,1.87,1.27,3.75,1.9,5.63,1.9,5.64,3.8,11.28,5.7,16.92,1.63,4.84,3.25,9.68,4.88,14.52.05.14.4.04.37-.1-1.44-6-2.01-12.16-3.49-18.16-1.48-6.02-3.74-11.85-7.14-17.05-4.84-7.39-11.67-13.25-19.28-17.64-7.92-4.57-16.65-7.63-25.54-9.68-8.79-2.02-17.81-3.06-26.82-3.26-7.72-.17-15.51.24-23.12,1.6-2.91.52-5.81,1.18-8.61,2.14-4.4,1.5-8.6,3.75-12.43,6.37-9.03,6.2-15.79,15.07-20.33,24.98-2.34,5.11-4.12,10.47-5.47,15.93-1.51,6.09-2.41,12.29-3.18,18.51-.78,6.29-1.07,12.55.37,18.76.13.54.19,1.26.48,1.73.21.33.54.64.79.94.3.36.64,1,1.05,1.24.15.09.38.11.55.16.41.13.82.26,1.22.39,3.31,1.11,6.54,2.49,9.63,4.13,4.19,2.22,8.21,4.95,11.39,8.5,1.57,1.76,2.92,3.71,3.89,5.87.06.12.35.06.37-.07.25-2.33.5-4.65.74-6.98.15-1.41.23-2.86.46-4.26.48-2.88,1.33-5.73,2.08-8.54,1-3.76,2.07-7.5,3.16-11.23,1.19-4.06,2.52-8.09,3.65-12.17.31-1.12.74-2.2,1.19-3.27,1.33-3.2,2.87-6.32,4.45-9.41,4.35-8.51,9.02-17.27,16.23-23.74,1.13-1.01,2.33-1.98,3.64-2.74.11-.07-.15.01,0,0s.28-.02.42-.03c.68-.05,1.36-.11,2.04-.16,6.05-.48,12.11-.91,18.17-1.29,6.53-.4,13.1-.85,19.64-.77,2.26.03,4.51.27,6.77.43,3.58.26,7.16.49,10.74.71,6.17.38,12.34.75,18.51,1.1.35.02.71.04,1.06.06.15,0,.38-.21.14-.23-4.76-.27-9.53-.54-14.29-.83-6.73-.41-13.47-.81-20.19-1.36-2.35-.19-4.74-.12-7.09-.06-3.39.09-6.78.25-10.17.43-6.78.37-13.55.84-20.32,1.36-1.7.13-3.4.26-5.1.4-.68.06-1.21.51-1.76.9-2.16,1.53-4.07,3.41-5.83,5.38-3.33,3.73-6.14,7.92-8.59,12.27s-4.84,8.96-7.01,13.56c-.96,2.04-1.9,4.1-2.65,6.23-.59,1.68-1.05,3.41-1.57,5.12-1.44,4.74-2.84,9.48-4.18,14.25-1.2,4.27-2.41,8.56-3.34,12.91-.1.46-.18.9-.23,1.36-.3,2.82-.6,5.63-.9,8.45-.08.73-.16,1.47-.23,2.2l.37-.07c-1.93-4.29-5.29-7.74-9.03-10.51-3.48-2.58-7.35-4.64-11.34-6.32-1.39-.59-2.79-1.13-4.21-1.62-.7-.24-1.47-.4-2.15-.69-.05-.02-.14-.07-.04,0-.23-.16-.41-.5-.58-.72-.3-.37-.6-.74-.91-1.1-.08-.1-.19-.19-.25-.3-.19-.3-.24-.74-.33-1.09-.76-3.09-1.17-6.25-1.21-9.43-.04-3.17.26-6.32.64-9.46.4-3.31.84-6.62,1.38-9.92.94-5.65,2.25-11.25,4.07-16.68,3.48-10.4,8.94-20.27,16.97-27.85,6.4-6.04,14.31-10.62,22.88-12.72,7.01-1.72,14.29-2.37,21.49-2.53,8.8-.19,17.64.46,26.32,1.98,9.01,1.58,17.92,4.11,26.21,8.02,7.97,3.76,15.4,8.86,21.13,15.6,3.15,3.71,5.73,7.87,7.65,12.35,2.69,6.28,4,12.97,5.12,19.68.45,2.68.87,5.38,1.51,8.03l.37-.1c-2.61-7.77-5.22-15.54-7.83-23.3-1.35-3.99-2.69-7.99-4.04-11.98-.2-.59-.4-1.19-.6-1.78-.05-.14-.41-.04-.37.1Z"/>
    </g>
    <path class="cls-6" d="M573.64,213.97c-2.26-1.06-4.94-.37-6.46.61-.36.23-1.32.89-1.79,2.07-.6,1.5.12,3.28,1.3,4.39,1.57,1.49,4.24,1.86,6.32,1.2,2.81-.9,3.78-3.54,3.14-5.52-.12-.36-.68-1.9-2.5-2.75"/>
    <path class="cls-6" d="M584.01,221.77s-7.75-9.85-16.26-10.27c-11.97-.59-14.92,4.84-17.59,7.61,0,0,7.93-6.41,17.18-5.78,8.39.58,16.67,8.44,16.67,8.44Z"/>
    <path class="cls-6" d="M627.6,216.29c2.3-.83,4.95.12,6.42,1.25.35.27,1.27,1.02,1.68,2.24.53,1.56-.28,3.26-1.51,4.25-1.64,1.33-4.32,1.44-6.36.58-2.76-1.18-3.6-3.9-2.86-5.82.14-.35.77-1.82,2.63-2.5"/>
    <path class="cls-6" d="M614.67,222.99s6.68-9.13,13.53-8.79c9.64.49,11.77,6.17,13.79,9.17,0,0-6.08-7.11-13.54-7.31-6.77-.18-13.78,6.93-13.78,6.93Z"/>
    <path class="cls-6" d="M643.77,197.81c-.01-.06-.41-.59-.42-.65-1.45-.42-3.04-.55-4.72-.51-8.31.2-12.15,1.58-23.06,8.15l.09.28c.45,1.63.2.72.65,2.36.34,1.25.69,2.49,1.04,3.73,3.28-2.04,5.52-3.9,7.7-4.99,4.32-2.16,9.08-5.29,13.92-5.78,1.57-.16,3.49-.27,5.24.23-.29-1.1-.16-1.72-.43-2.83Z"/>
    <path class="cls-6" d="M585.26,201.71c-.48,1.62-.22.71-.7,2.34-.37,1.24-.75,2.47-1.13,3.71-3.66-2.22-6.16-4.2-8.6-5.41-4.82-2.4-10.14-5.79-15.52-6.53-2.58-.35-5.9-1.13-8.32.56-.65.45-2.56,2.66-3.4,1.94-.34-.3.9-2.1,1.03-2.29,2.53-3.63,6.5-4.27,11.03-3.97,9.24.61,13.52,2.2,25.7,9.37"/>
    <g>
      <path class="cls-6" d="M603.02,251.71c-2.28,1.05-5.65.61-7.81-.88-.48-.33-2.15-.12-1.47.35,2.86,1.98,7.7,2.39,10.64,1.03.29-.14.25-.36-.1-.49-.36-.14-.95-.15-1.26,0"/>
      <path class="cls-6" d="M592.81,250.5c-1.45-.78-3.11-1.24-4.77-1.45-.24-.03-.56.05-.75.2-.15.12-.19.29,0,.4.75.48,1.72.71,2.62.74.28,0,.66-.04.83-.28.16-.22-.11-.38-.33-.39-.75-.02-1.5-.21-2.11-.6-.26.2-.51.4-.76.6,1.48.19,2.96.61,4.26,1.31.26.14.64.08.89-.05.18-.1.39-.33.13-.47"/>
      <path class="cls-6" d="M586.18,250.37c-1.95-.15-4.2-1.11-5.08-2.63-1.33-2.3.22-5.96,2.73-7.26.27-.14.14-.35-.12-.42-.35-.09-.77.02-1.05.16-2.19,1.13-3.73,4.17-3.52,6.27.2,1.96,2,3.42,4.3,4.1.69.2,1.42.35,2.15.41.3.02.83-.04.99-.27.16-.23-.11-.34-.38-.36"/>
      <path class="cls-6" d="M606.65,250.9c-.09-.23.11-.37.26-.36.53.04,1.07-.08,1.54-.42.16.22.32.44.48.66-1.06.06-2.14.36-3.11.94-.19.12-.46.02-.62-.13-.12-.11-.24-.36-.05-.48"/>
      <path class="cls-6" d="M605.16,251.11c1.09-.65,2.3-.97,3.48-1.04.17,0,.39.09.51.26.09.13.11.3-.03.4"/>
      <path class="cls-6" d="M610.69,251.36c1.27.01,2.81-.76,3.51-2.21,1.06-2.18.32-4.86-1.2-6.36-.16-.16-.06-.36.12-.41.23-.06.49.08.67.25,1.32,1.31,2.11,3.36,1.79,5.44-.3,1.94-1.58,3.24-3.13,3.73-.46.14-.95.23-1.42.23-.19,0-.53-.11-.62-.35-.08-.24.1-.33.28-.33"/>
    </g>
    <path class="cls-7" d="M629.74,132.01c-4.05-2.63-11.09-2.46-11.09-2.46,0,0-4.69-8.93-12.37-14.03-7.68-5.1-19.56-1.19-19.56-1.19,0,0-2.89-5.87-12.1-8.66-9.21-2.79-19.73,4.43-19.73,4.43,0,0-9.58-7.94-20.81-3.12-9.46,4.06-13.41,11.01-13.41,11.01-19.88-1.53-27.17,12.6-29.23,28.44-3.03.91-6.41,2.4-8.35,4.75-10.58,12.85,3.41,66.82,10.68,75.29l17.08,15.89-17.88-60.79c.57,3.23,1.03,5.19,1.03,5.19l5.11,26.07,32.96-68.65s81.03.11,90.04,2.4c9.02,2.29,15.58,23.16,15.58,23.16-.25-8.32,1.74-31.46-7.95-37.75Z"/>
    <path class="cls-6" d="M506.58,203.62c-2.12.92,8.58,2.09,8.75-.22s.09-8.07,1.9-9.49c1.81-1.43-7.73,4.76-5.91-6.26-1.92-1.46-5.13,5.65-7.41,4.86-2.96-1.03,1.59-5.46,3.1-8.21,1.51-2.75,1.54-3.82,3.2-6.48.62-1-1.27-3.26-2.26-3.9-.37-.24-.84-.27-1.27-.36-1.91-.4-3.36-2.12-3.83-4.01-.47-1.89,5.51-4.43,6.2-6.25,1.17-3.11.7-5.62,3.41-7.54,1.09-.77-.71-1.18,0-2.31.7-1.14.6-2.92-.6-3.5-.71-.34-1.55-.17-2.32.02-3.48.87-6.99,2-9.82,4.22-2.82,2.22-4.85,5.73-4.45,9.29.16,1.41.69,2.83.37,4.21-.4,1.73-2.01,2.91-2.68,4.55-1.35,3.31,1.48,7.36-.16,10.54-.51.99-1.4,1.74-1.98,2.7-1.04,1.7-.93,4.02.25,5.62.71.96,1.74,1.65,2.45,2.62,2.63,3.61-.39,8.9,1.12,13.11,1.45,4.06,4.19,5.11,7.15,1.97"/>
    <path class="cls-6" d="M531.87,124.59c2.01.29,3.79-1.18,5.53-2.22,2.72-1.62,5.96-2.33,9.11-1.99,2.37.25,4.74,1.08,7.09.68,1.36-.24,2.61-.87,3.88-1.39,4.45-1.83,9.43-2.36,14.16-1.5,1.02.18,2.05.43,3.07.3,1.21-.16,2.29-.83,3.43-1.28,2.6-1.01,5.67-.77,8.08.63,3.57,2.08,6.08,6.62,10.21,6.54,3.07-.06,6.44-2.74,8.85-.82,1.12.89,1.44,2.48,2.42,3.53,2.09,2.25,6.16,1.22,8.46,3.25,1.9,1.68,1.86,4.79,3.66,6.58,1.19,1.18,2.94,1.54,4.41,2.34,1.47.8,2.75,2.59,1.97,4.07l1.1,2.16c7.79,7.19,9.52,23.79,7.88,22.91-1.64-.89-10.2-10.76-10.43-12.61-1.45-11.62-11.57-17.46-14.51-18.57-2.65-1.01-5.56-1.52-7.85-3.19-1.46-1.06-4.31.36-6.03-.16-2.32-.71-3.33-2.36-5.55-3.33-1.18-.51-2.91,1.4-3.75.43-2.2-2.55-6.48-2.57-9.83-2.27-2.83.24-3.1-2.97-5.94-2.96-1.87.01-3.07,3.23-4.89,2.83-2.64-.59-4.52-.81-7.19-.35-4.6.8-10.59-1.84-15.19-1.05-3.09.53-6.04,5.04-8.76,6.58-3.94,2.23-7.14,2.54-11.63,3.1-1.2-2.74-.84-6.1.92-8.52,1.76-2.42,4.85-3.8,7.82-3.5"/>
    <path class="cls-28" d="M503.94,636.61c-14.67-.27-29.29-.94-43.08-6.44-9.89-3.94-19.27-9.02-29.15-12.99-4.13-1.66-8.22-3.29-12.02-5.37-1.63-1.29-3.25-2.59-4.83-3.93l29.24-76.55,24.71-144.12-33.06-45.65s3.28-6.26,20.35-16.14c10.04-5.81,39.58-24.62,56.85-28.47h0s13.73,46.81,56.12,49.65c31.66,2.12,21.66-34.72,21.66-34.72,0,0,47.25,37.41,52.82,43.16h0c-2.57.1,6.98,50.63,15.49,100.78,2.37,13.94,3.3,43.6-15.05,61.98-6.09,6.1-9.96,69.04-9.96,69.04l3.66,35.54c.57,5.53-3.45,10.47-8.98,11.03-19.79,2.01-65.32,5.86-103.44,3.31-6.7-.45-13.89-.44-21.32-.12Z"/>
    <path class="cls-1" d="M513.75,529.01c.05,2.41.18,4.82.4,7.22.03-.16.06-.31-.04-.51-.11-1.4-.25-3.71-.36-6.71Z"/>
    <path class="cls-23" d="M519.85,249.97c-11.45,8.52-17.18-8.61-17.18-8.61-7.71-12.97-8.12-25.7-6.44-33.96,1.68-8.26,10.84-6.64,10.84-6.64,7.67,2.12,6.42,2.85,13.46,26.69"/>
    <path class="cls-25" d="M516.72,226.19c-1.41-4.36-3.06-8.7-5.38-12.67-1.18-2.03-2.56-4.04-4.34-5.6-.68-.59-1.51-1.26-2.41-1.49-1.09-.29-1.93.68-2.56,1.42-2.54,2.98-3.23,6.99-2.89,10.79.03.32,1.49.05,1.45-.39-.34-3.84.46-9.1,3.82-11.51l-1.15.25c.87.15,1.7.86,2.34,1.42,2.54,2.2,4.3,5.27,5.76,8.25,1.57,3.2,2.82,6.54,3.91,9.93.12.38,1.56-.04,1.45-.39h0Z"/>
    <path class="cls-25" d="M512.6,224.41c-2.31-.22-3.86,1.02-3.95,3.34-.08,2.23.84,4.54.5,6.75-.02.16-.05.32-.11.47-.01.04-.12.19-.11.23l-.03.04c-.19.18-.09.19.3.03-.04-.09-.31-.23-.4-.32-.25-.26-.43-.59-.59-.91-.86-1.64-1.29-3.54-1.66-5.34-.5-2.43-.75-4.31-.38-6.72.41-2.65,1.41-6.36,4.32-7.25.85-.26.68-.98-.19-.72-2.85.87-4.39,3.34-5.14,6.09-.51,1.85-.82,3.88-.57,5.8.3,2.33.74,4.69,1.52,6.91.35,1,.87,2.67,1.95,3.14.88.38,1.96-.16,2.36-.98.43-.89.24-2.07.13-3-.17-1.46-.48-2.94-.43-4.41.02-.6.08-1.29.4-1.81.37-.6.88-.59,1.53-.53.55.05,1.54-.72.57-.82h0Z"/>
    <path class="cls-6" d="M514.67,197.89c6.26,1.46,13.09-2.35,15.92-8.12,2.83-5.77,1.95-12.96-1.43-18.42,3.94,2.74,9.8,1.42,12.99-2.18,3.19-3.59,3.99-8.84,3.13-13.56,2.54,2.64,6.59,3.71,10.1,2.67,3.51-1.04,6.33-4.15,7.02-7.74,1.86,1.8,3.79,3.64,6.21,4.57,2.42.93,5.47.71,7.2-1.22.97-1.07,1.45-2.58,2.63-3.42,2.83-2.03,6.31,1.17,9.3,2.95,5.34,3.17,13.12,1.11,16.18-4.29,4.33,3.58,9.49,6.89,15.1,6.48,5.6-.41,10.9-6.35,8.65-11.5-1.67-3.81-6.27-5.22-10.34-6.1-24.29-5.23-49.33-6.93-74.11-5.03"/>
    <path class="cls-23" d="M851.75,189.15s-1.12,48.54,5.88,64.37c1.7,3.84,24.7,13.57,24.7,13.57l-92.45,58-41.25-34.49s24.97-24.28,25.95-29.13c.99-4.85-3.26-40.51-3.26-40.51"/>
    <path class="cls-25" d="M773.91,256.34s19.42-.89,24.75-2.44c5.33-1.54,14.43-4.42,38.88-25.96,0,0-7.79,25.01-35.25,32.58,0,0-25.5,5.12-27.98,1.22l-.4-5.41Z"/>
    <path class="cls-16" d="M788.22,619.65c1.34-.36,2.64-.74,3.93-1.11-1.91.54-4.99,1.4-3.93,1.11Z"/>
    <path class="cls-21" d="M997.25,598.9c-6.27-16.24-28.85-75.65-31.01-92.75-4.25-33.72-15.7-66.58-21.4-100.19-.34-2.02.73-3.43,2.18-4.08-.68-2.34-1.36-4.73-2.04-7.19l1.68-10.21-3.08-28.04c-2.99-14.96,23.92-41.42,6.33-62.72-7.04-8.52-25.93-25.38-36.43-30.2-32.05-14.7-52.15-24.13-52.15-24.13,0,0-18.15,46.86-60.25,51.18-42.1,4.32-27.89-22.37-27.89-22.37l-11.44,7.33c-7.72,5.56-16.4,11.88-24.58,18.81,26.55,63.9,26.53,136.54,4.7,201.92.81,16.12,1.55,31.52,1.75,32.11,6.61,19.6,1.02,65.96,5.58,88.29"/>
    <path class="cls-28" d="M718.01,465.31c2.48,11.51,13.97,62.71,14,91.4l2.76,62.41s85.49,21.16,157.42,12.35c71.93-8.81,105.05-32.57,105.05-32.57-6.27-16.24-19.85-75.65-22.01-92.75-4.25-33.72,5.3-66.58-.4-100.19-.34-2.02.73-3.43,2.18-4.08-.68-2.34-1.36-4.73-2.04-7.19l-14.81-9.76v-17.39c-2.99-14.96,13.34-53.39-4.25-74.69-7.04-8.52-31.94-24.5-42.43-29.31-32.05-14.7-52.15-24.13-52.15-24.13,0,0-18.15,46.86-60.25,51.18-42.1,4.32-27.89-28.82-27.89-28.82l-11.44,7.33c-12.06,8.69-38.08,24.39-49.26,36.23,0,0-10.41,86.17,5.52,159.99Z"/>
    <path class="cls-18" d="M594.26,262.08c-9.14-.84-23.79-2.22-23.79-2.22,0,0,.84,22.94,22.03,24.89,21.19,1.95,23.47-21.35,23.47-21.35,0,0-12.57-.48-21.71-1.32Z"/>
    <path class="cls-4" d="M594.35,262.09c-4.35-.4-21.74-1.64-21.74-1.64,0,0,5.51,15.5,21.22,16.95,17.04,1.57,19.22-12.95,19.22-12.95l-18.71-2.35Z"/>
    <path class="cls-13" d="M594.47,262.84c-4.35-.4-17.45-1.25-17.45-1.25,0,0,4.22,4.63,17.25,5.84,13.04,1.2,17.7-2.46,17.7-2.46l-17.51-2.13Z"/>
    <path class="cls-18" d="M616.57,262.62c-.46-.17-.45-.18-2.62-.59-3.61-.69-5-2.18-7.62-2.65-4.47-.8-7.51.92-9.47.74-1.96-.18-4.63-2.44-9.17-2.46-2.66-.02-9.24,1.66-12.91,1.68-2.2,0-3.81.07-4.29.16-.67.12-.81,3.12,23.8,5.39,24.61,2.27,22.91-2.03,22.28-2.27Z"/>
    <path class="cls-23" d="M411.35,392.32l63.6-7.25-.84,46.92,2.83,86.84c-12.87,4.92-38.32-.71-51.7,2.43-7.74,1.82-6.68.13-14.32,2.32-1.18-5.53.98-82.08.31-87.28-1.92-14.84,0,0,.13-43.98Z"/>
    <path class="cls-23" d="M414.34,433.85s-2.52,80.04-2.75,82.68c-1.96,23.29,3.36,36.98,8.86,47.79,11.56,22.76,37.68,15.87,61.33-3.34,26.16-21.24-17.45-66.26-17.45-66.26l-49.99-60.88Z"/>
    <path class="cls-23" d="M434.28,577.13c6.51,4.85,24.97,6.42,41.28,1.86,49.42-13.81,130.52-48.69,173.39-68.76l-14.49-12.94.92-18.58-164.47,29.15"/>
    <path class="cls-25" d="M474.12,506.52c-5.29,2.53-10.47,5.33-15.18,8.85-4.39,3.29-8.49,7.32-10.77,12.38-1.26,2.81-1.81,5.82-1.66,8.89.02.43,1.48.15,1.45-.39-.72-14.79,15.27-23.71,26.72-29.18.91-.43.07-.86-.56-.56h0Z"/>
    <path class="cls-23" d="M615.79,422.96l14.3-7.3c2.43-1.23,5.14-1.76,7.85-1.56l26.43,2.08,25.33,27,7.82,4.7-2.81,37.14-17.57-3.58s-40.33,3.48-43.8.73c-3.47-2.75-9.44-10.14-9.44-10.14,0,0-20.23-8.36-22.12-10.33-7.17-7.53-3.93-8.93-3.93-8.93l-3.42-1.93c-.76,1.2-5.27-7.63-4.39-11.81.51-2.44-.22-2.48-.22-2.48-3.33-2.27-5.47-5.91-5.87-9.92-.18-2.54,11.66-4.84,11.66-4.84l24.06,4.16-3.87-3Z"/>
    <path class="cls-6" d="M635.27,428.38l-20.76-33.48c-1.52-2.47-4.13-4.06-7.03-4.28l-45.95-3.62c-1.85-.15-3.46,1.23-3.6,3.08h0c-.06.8.17,1.59.64,2.24l23.93,32.62h0l52.77,3.43Z"/>
    <path class="cls-25" d="M624.26,442.38c-2.98.52-6.08.26-9.08.06s-5.76-.54-8.61-1.02-5.72-1.12-8.53-1.89-5.58-1.52-8.11-2.92c-.55-.3-1.82.44-1.12.83,2.56,1.42,5.35,2.21,8.16,2.99,2.99.83,6.03,1.51,9.09,2.03s6.19.88,9.31,1.07,6.11.36,9.14-.16c.92-.16.63-1.14-.26-.98h0Z"/>
    <path class="cls-25" d="M630.01,456.87c-2.95.51-5.98.29-8.95.1s-6.18-.58-9.24-1.11c-2.78-.48-5.53-1.1-8.25-1.85s-5.57-1.54-8.1-2.95c-.39-.22-1.73.36-1.16.68,2.54,1.42,5.35,2.19,8.14,2.96,2.94.82,5.93,1.48,8.94,1.99s6.05.86,9.1,1.06,6.24.4,9.32-.13c.67-.12,1.21-.93.21-.76h0Z"/>
    <path class="cls-25" d="M627.94,428.4c-.19.4-.83.23-.2.27.28.02.58-.04.85-.05.81-.03,1.63-.03,2.44-.03,2.6,0,5.19.09,7.79.2,2.36.1,4.72.24,7.07.45.34.03,3.24.13,3.34.45.11.38,1.56-.02,1.45-.39-.19-.66-3.07-.63-3.56-.68-3.04-.28-6.09-.43-9.14-.54-2.72-.1-5.46-.18-8.18-.12-.7.02-2.89-.16-3.28.68-.13.28,1.25.16,1.43-.23h0Z"/>
    <path class="cls-19" d="M630.31,428.68c-.21-.22-.4-.47-.57-.73l-1.43-2.16-5.45-8.1-7.83-12.05-4.6-7.12c-.82-1.17-1.94-2.1-3.25-2.67-.67-.29-1.38-.49-2.1-.6-.72-.06-1.59-.13-2.29-.18l-31.81-2.63-9.65-.89-2.63-.21c-.31-.02-.62-.07-.92-.15.31-.05.62-.05.93,0l2.63.13,9.67.62,31.83,2.39c.8.06,1.59.13,2.36.19.79.12,1.57.34,2.3.66,1.44.65,2.68,1.67,3.58,2.97l4.58,7.16,7.67,12.15c2.12,3.37,3.85,6.18,5.12,8.23.55.91.99,1.68,1.42,2.26.17.23.31.48.42.74Z"/>
    <path class="cls-22" d="M407.54,419.13c2.55-34.34,5.89-50.26,23.64-72.48,1.37-1.71,2.9-3.41,4.56-5.09,7.59,1.07,14.96,1.65,22.33,5.2,7.17,3.44,15.08,7.79,20.72,13.51,12.03,12.2,12.04,31.63,10.7,47.71-.94,11.31.02,25.67-1.83,43.77-1.64,15.98-1.83,35.92-3.09,48.43-38.42-1.32-87.54-11.75-87.54-11.75,0,0,9.39-54.16,10.52-69.29Z"/>
    <path class="cls-22" d="M950.12,490.35c1.45-2.97,4.86-27.67,4.86-27.67,0,0,5.52-28,11.58-69.94,7.36-50.85,7.16-83.85-6.01-99.76-11.58-13.99-30.83-20.27-30.83-20.27-5.15,3.11-19.73,10.07-31.91,64.19-12.23,54.34-17.07,126.82-17.52,133.88l-186.6-29.62c.85,12.7.49,19.2-4.22,31.02l-6.04,15.16c40.77,18.25,126.34,40.88,180.38,54.99,20.87,5.47,47.23,4.24,67.71-12.94,9.11-7.64,14.71-21.7,18.59-39.05Z"/>
    <path class="cls-20" d="M879.88,470.9c11.79,5.59,29.15,14.05,28.43,29.53-.03.59,1.43.29,1.45-.18.56-12.1-10.07-20.05-19.55-25.37-2.99-1.68-6.07-3.2-9.17-4.67-.42-.2-1.75.42-1.15.7h0Z"/>
    <path class="cls-22" d="M576.4,347.21s-2.48.17-7.12,1.98c-4.64,1.82-10.29,14.95-10.29,14.95,0,0-22.29-8.27-35.31-22.63-13.02-14.37-22.73-40.43-22.73-40.43,0,0,3.57-9.35,15.35-12.06,0,0,36.75,50.33,60.1,58.18Z"/>
    <path class="cls-22" d="M576.4,347.21s14.11,2.07,18.41,12.57c0,0,8.3-12.73,9.4-24.91,1.1-12.19,1.02-11.32,1.02-11.32,0,0-10.81-14.19-16.77-12.59,0,0,2.52,29.36-12.05,36.25Z"/>
    <path class="cls-22" d="M794.01,290.2s2.48.17,7.12,1.98c4.64,1.82,10.29,14.95,10.29,14.95,0,0,22.29-8.27,35.31-22.63,13.02-14.37,22.73-40.43,22.73-40.43,0,0-3.57-9.35-15.35-12.06,0,0-36.75,50.33-60.1,58.18Z"/>
    <path class="cls-22" d="M794.72,291.15s-13.47,4.68-15.73,15.8c0,0-10.54-10.94-13.9-22.71-3.36-11.77-3.12-10.93-3.12-10.93,0,0,7.96-15.96,14.12-15.51,0,0,3.02,29.32,18.63,33.35Z"/>
    <path class="cls-23" d="M842.86,221c-11.75,17-23.85,29.58-42.46,35.85-18.26,6.15-39.03,1.33-41.98-1.11-16.19-13.4-22.49-24.99-30.07-42.11-2.06-4.65-2.86-9.84-3.2-15.21-.51-8.06-.9-23.59-1.97-31.22-2.72-19.44-6.27-38.63,2.42-56.33,18.1-36.87,74.95-41.52,95.87-34.58,24.46,8.11,37.64,29.13,42.01,52.67,1.42,7.68,1.53,15.02.44,21.95-2.83,4.04-5.19,8.33-7.07,12.8"/>
    <path class="cls-23" d="M847.64,202.26c11.12,8.91,18.42-5.97,18.42-5.97,8.09-12.67,6.53-24.88,5.13-33.18-1.4-8.3-10.57-7.02-10.57-7.02-7.69,1.84-6.48,2.62-14.24,26.15"/>
    <path class="cls-6" d="M791.08,165.74c2.17-1.36,4.9-.56,6.49.63.38.28,1.38,1.08,1.94,2.54.72,1.86.13,4.07-.95,5.48-1.45,1.88-4.08,2.4-6.2,1.62-2.87-1.06-4.05-4.32-3.56-6.8.09-.45.53-2.37,2.28-3.47"/>
    <path class="cls-6" d="M779.89,176.47s7.11-11.45,15.54-12.2c11.87-1.05,15.14,5.02,17.97,8.08,0,0-8.28-7.04-17.44-6.02-8.31.93-16.07,10.13-16.07,10.13Z"/>
    <path class="cls-6" d="M737.27,170.29c-2.21-1-4.6.21-5.87,1.64-.3.33-1.1,1.29-1.38,2.81-.36,1.94.53,4.04,1.75,5.26,1.63,1.63,4.14,1.73,5.96.63,2.47-1.5,3.04-4.9,2.19-7.26-.16-.43-.87-2.26-2.65-3.07"/>
    <path class="cls-6" d="M753.06,179.04s-7.67-10.15-14.96-9.52c-10.26.89-12.19,7.43-14.17,10.91,0,0,6.06-8.3,14.01-8.78,7.21-.44,15.12,7.39,15.12,7.39Z"/>
    <g>
      <path class="cls-6" d="M764.26,207.62c2.31.95,5.64.36,7.72-1.22.46-.35,2.13-.21,1.48.28-2.75,2.09-7.55,2.71-10.53,1.49-.3-.12-.27-.34.08-.49.35-.16.94-.19,1.25-.06"/>
      <path class="cls-6" d="M774.36,205.97c1.41-.84,3.03-1.36,4.67-1.65.24-.04.56.02.76.16.15.11.2.28.02.4-.72.51-1.68.78-2.57.85-.28.02-.66-.01-.84-.24-.17-.21.09-.38.31-.4.74-.06,1.48-.27,2.07-.69.26.19.52.37.78.56-1.47.25-2.91.74-4.18,1.49-.25.15-.64.1-.89-.01-.19-.09-.4-.31-.15-.47"/>
      <path class="cls-6" d="M780.94,205.55c1.93-.23,4.12-1.29,4.94-2.84,1.22-2.34-.48-5.92-3.03-7.1-.28-.13-.16-.34.1-.42.34-.11.76-.02,1.05.12,2.22,1.03,3.89,3.98,3.77,6.08-.11,1.96-1.83,3.48-4.09,4.26-.67.23-1.4.41-2.12.5-.29.03-.83,0-.99-.22-.17-.22.09-.35.37-.38"/>
      <path class="cls-6" d="M760.62,206.97c.08-.23-.12-.36-.28-.34-.52.06-1.07-.03-1.55-.35-.15.23-.3.45-.45.68,1.06.02,2.14.26,3.13.8.2.11.46,0,.61-.16.11-.12.22-.37.03-.48"/>
      <path class="cls-6" d="M762.11,207.11c-1.11-.6-2.32-.86-3.51-.88-.17,0-.39.11-.5.28-.09.13-.09.3.05.39"/>
      <path class="cls-6" d="M756.63,207.61c-1.26.07-2.82-.64-3.58-2.04-1.15-2.12-.53-4.82.91-6.37.16-.17.05-.36-.13-.4-.23-.05-.49.1-.65.28-1.25,1.36-1.95,3.43-1.54,5.48.38,1.91,1.71,3.15,3.27,3.57.46.12.95.19,1.42.17.19-.01.53-.13.6-.37.07-.24-.11-.33-.29-.32"/>
    </g>
    <path class="cls-6" d="M773.68,154.42c.84,1.7,1.68,3.4,2.52,5.1.64,1.3,1.29,2.59,1.93,3.88,3.28-2.97,8.17-6.37,10.41-8.05,4.44-3.34,9.25-6.43,14.61-8.04,2.57-.77,4.97-1.14,7.59-.8.83.11,3.39,1.07,4.1.15.29-.38-1.36-2.16-1.54-2.35-3.36-3.59-7.56-3.7-12.14-2.69-9.34,2.05-17.62,6.4-25.52,11.72"/>
    <path class="cls-6" d="M721.14,152.89c.06-.16.11-.32.16-.48.85-.18,1.74-.3,2.65-.36,7.53-.49,14.68,1.03,21.69,3.51.69,1.25,1.12,2.04,1.81,3.29-.53,2.46-1.06,4.92-1.59,7.37-3.37-1.97-6.3-3.41-8.53-4.42-4.42-2.01-9.12-3.67-14.01-3.78-1.41-.03-.04.26-1.36.57h0c-1.22-1.65-1.51-3.78-.83-5.71Z"/>
    <path class="cls-18" d="M772.22,218.07c8.36-1.17,21.76-3.07,21.76-3.07,0,0,.47,22.92-18.91,25.63-19.38,2.71-22.74-20.46-22.74-20.46,0,0,11.53-.93,19.89-2.1Z"/>
    <path class="cls-4" d="M772.14,218.08c3.97-.56,19.9-2.42,19.9-2.42,0,0-4.22,15.66-18.6,17.67-15.58,2.18-18.38-12.24-18.38-12.24l17.08-3.01Z"/>
    <path class="cls-13" d="M772.07,218.84c3.97-.56,15.98-1.87,15.98-1.87,0,0-3.63,4.77-15.55,6.44-11.92,1.67-16.41-1.82-16.41-1.82l15.99-2.76Z"/>
    <path class="cls-18" d="M751.73,219.41c.41-.19.41-.19,2.37-.68,3.28-.81,4.48-2.36,6.86-2.92,4.06-.96,6.96.65,8.75.4,1.79-.25,4.13-2.6,8.3-2.79,2.44-.11,8.59,1.33,11.96,1.21,2.03-.07,3.51-.06,3.96,0,.62.09.91,3.09-21.59,6.23-22.51,3.15-21.18-1.21-20.61-1.47Z"/>
    <path class="cls-25" d="M852.96,180.43c1.31-4.28,2.77-8.57,4.81-12.56.96-1.88,2.06-3.84,3.6-5.31.38-.36.67-.61,1.14-.86-.25.13.49-.24.13-.06.05-.03.11-.03.17-.05.14-.06-.05,0-.05,0,0,.02.17,0-.04,0-.42,0-.29-.15-.13.03.48.54,1.19.93,1.7,1.46,2.8,2.93,3.84,6.92,3.45,10.9-.06.62,1.4.36,1.45-.17.38-3.84-.49-7.69-3-10.69-.64-.77-1.38-1.47-2.19-2.05-.31-.22-.55-.37-.95-.35-2.67.16-4.68,3.61-5.82,5.59-2.55,4.45-4.22,9.41-5.71,14.3-.17.55,1.29.36,1.45-.17h0Z"/>
    <path class="cls-25" d="M854.2,183.28c3.14-.44,2.69,3.44,2.56,5.52-.09,1.47-.77,5.38,1.58,5.57,1.23.1,1.96-1.13,2.37-2.11.82-1.95,1.16-4.13,1.41-6.21.31-2.64.31-4.85-.36-7.41-.81-3.09-2.49-6.46-5.84-7.32-.64-.16-1.71.77-.83,1,2.84.73,4.28,3.52,5.05,6.13.6,2.03.83,3.87.69,5.75-.17,2.24-.45,4.53-1.1,6.69-.19.65-.42,1.34-.78,1.92-.08.13-.24.43-.4.49.3-.11.02-.08-.09-.3-.43-.85-.37-1.83-.33-2.77.05-1.24.19-2.48.17-3.72-.01-1.11-.08-2.37-.76-3.3-.75-1.03-2.06-1.2-3.24-1.04-.81.11-1.1,1.23-.12,1.09h0Z"/>
    <g>
      <path class="cls-6" d="M801.35,48.29c-.16.12-.17.12,0,0h0Z"/>
      <path class="cls-6" d="M810.27,60.39c-.13-.17-.25-.29-.34-.36.11.15.23.28.35.42,0-.02,0-.04-.01-.06Z"/>
      <path class="cls-6" d="M810.28,60.44s0,.03.01.05l.12.11s-.09-.11-.13-.16Z"/>
    </g>
    <path class="cls-9" d="M813.39,101.93c6.72,1.09,18.57,20.12,19.01,26.91.55,8.38,1.44,18.25,2.21,19.77,1.76,3.46,2.85,3.84,8.05,14.07l.02,8.01c.3,1.74.54,6.37,1.34,10.55,1.12.35,1.94,1.01,3.05.64,3.76-.85.97-3.68,1.44-7.39.73-5.84,1.43-10.66,5.36-15.35,1.3-1.56,5.47-1.91,7.12-2.92,4.54-.96,7.25,1.67,7.25,1.67,0,0-.38-3.85-.2-5.93.29-6.33,1.91-10.72,1.28-27.5-.93-25.58-46.69-44.96-70.9-44-13.31.52-69.38,14.84-79.5,22.32-6.45,4.75,2.72,10.39,1.79,21.49,3.46-2.39,1.09-7.99,4.93-9.69,9.91-4.39,2.82-1.25,22.83.51,7.33.64,14.71-.51,21.49-3.36,11.38-4.78,30.92-11.81,43.43-9.79Z"/>
    <path class="cls-6" d="M722.11,106.01c-1.59,0-2.99-1.03-3.48-2.54-.63-1.46-.77-3.01-1.35-4.37-.8-1.92-2.44-3.77-1.91-5.78.53-2.01,2.66-2.75,4.59-3.07-1.32-1.61-1.08-3.99.53-5.31,1.1-.9,2.62-1.11,3.92-.53-.93-3.46,1.12-7.03,4.59-7.96,1.32-.35,2.72-.28,3.99.2-1.04-2.47-1.31-5.6.44-7.63,1.75-2.03,5.92-1.54,6.31,1.11-.23-2.14,1.31-4.06,3.45-4.3,2.14-.09,4.04,1.37,4.5,3.46,1.38-1.81.88-4.52,2.03-6.42,1.76-2.81,6.99-1.8,7.58,1.45.77-2.36,1.73-5.01,3.95-6.13,2.57-1.15,5.59,0,6.74,2.57.13.3.24.6.31.92.84-2.48,2.41-4.64,4.5-6.21.63-.54,1.41-.87,2.23-.97,1.76-.08,3.04,1.62,3.7,3.24s.7-.63,2.15.32c.4-2.5,1.67-1.36,4.14-2.24,3.14-1.15,5.98,1.08,7.65,3.98.58-2.56,1.72-4.56,4.34-4.86,1.71-.04,3.28.91,4.03,2.44.76,1.47,1.24.83,1.38,2.48.92-2.76,2.5-3,4.65-4.97.55-.61,1.32-.97,2.13-1.01.86.17,1.61.71,2.06,1.47,1.38,1.86,2.36,3.99,2.87,6.25,1.35-1.73,2.89-3.29,4.6-4.65.45-.43,1.02-.72,1.63-.83,1.25-.11,2.17,1.2,2.56,2.35.2,1.23.69,2.4,1.44,3.41,1.78-1.7,4.01-3.39,6.47-3.09,2.45.3,7.6,3.85,5.65,5.36l2.56-2.18c3.36-1.26,6.52,1.11,7.08,1.86.38.52.44,1.2.14,1.77l-.32,2.72c2.48-1.67,5.65-1.92,8.36-.66,2.54,1.46,6.88,6.02,4.65,7.93,3.37.54,6.72,1.54,6.18,4.91-.07.44-.19.87-.35,1.29,3.85,3.56,4.64,5.53,4.46,21.68.31,1.22.13,27-.34,28.16-1.03,1.87-11.4-27.35-13.47-27.81-6.14-1.37-6.34-6.75-11.89-9.81-12.25-6.61-27.16-4.52-40.91-2.26"/>
    <path class="cls-23" d="M616.75,521.93l11.59-3.84s39.21.41,49.64-3.54c7.42-3.18,14.32-7.5,20.52-12.86l9.72-.5c4.48-.23,8.63-2.16,11.76-5.46l2.41-2.54s12.55,2.95,13.39-1.23c.84-4.19-3.68-6.63-8.06-9-4.39-2.37-80.76-11.36-80.76-11.36,5.02-4.69,16.51-7.15,22.25-10.78,8.86-5.5,10.17-11.26,4.65-13.47-3.4-1.36-11.86-.11-16.07,4.42-4.19,4.51-31.4,7.34-39.54,14.31-8.14,6.97-10.01,22.68-10.01,22.68-.63.69-8.56,4.8-8.56,4.8.16,1.48,17.06,28.37,17.06,28.37Z"/>
    <path class="cls-26" d="M687.79,475.65c-1.74-.91-3.9-1.15-5.81-1.48-3.23-.55-6.48-.95-9.73-1.32-6.81-.78-13.65-1.4-20.48-1.95-1.52-.12-3.05-.24-4.57-.36l.42.85c3.3-3.02,7.93-4.54,12.02-6.13,4.25-1.64,8.48-3.23,12.19-5.93,2.69-1.96,6.61-5.29,6.11-9.08-.41-3.11-3.94-4.35-6.65-4.46-4.01-.16-8.25.96-11.64,3.11-1.21.77-2.12,1.85-3.36,2.56-1.92,1.09-3.92,2.05-5.98,2.86s-4.14,1.3-6.33,1.74c-2.87.58-5.72,1.26-8.54,2.03-3.91,1.07-7.8,2.31-11.5,3.96-3.04,1.35-6.37,3.05-8.41,5.77-.67.89,1.01,1.09,1.47.47,1.7-2.26,4.35-3.7,6.86-4.88,3.15-1.49,6.47-2.61,9.8-3.59,2.88-.85,5.8-1.58,8.73-2.22.97-.21,1.94-.41,2.92-.6.29-.06.59-.11.88-.17.14-.03.63-.13.26-.05,3.86-.83,7.64-2.62,11.04-4.6,1.13-.65,1.95-1.63,3.04-2.36,1.8-1.2,3.89-1.96,5.99-2.42,2.85-.61,7.17-.99,9.08,1.8,2.16,3.17-1.85,6.97-4.08,8.73-3.97,3.13-8.66,4.8-13.32,6.61-4.19,1.63-8.68,3.29-12.05,6.37-.41.37,0,.82.42.85,11.07.81,22.2,1.68,33.17,3.37,2.1.32,4.84.53,6.68,1.5.64.34,2.22-.55,1.38-.99h0Z"/>
    <path class="cls-26" d="M721.73,492.89c-4.66-.64-9.44-.61-14.14-.71-5.86-.13-11.73-.19-17.58-.49-2.34-.12-4.71-.23-7.03-.64-.38-.07-1,0-1.25.34-.2.27-.25.62.19.69,4.69.83,9.57.82,14.32.95,5.91.16,11.82.21,17.73.44,2.37.09,4.75.19,7.1.51.74.1,1.86-.92.67-1.08h0Z"/>
    <path class="cls-26" d="M696.91,501.25c-7.7.42-15.41.83-23.11,1.25-1.09.06-2.18.12-3.27.18-.93.05-1.43,1.18-.21,1.11,7.7-.42,15.41-.83,23.11-1.25,1.09-.06,2.18-.12,3.27-.18.93-.05,1.43-1.18.21-1.11h0Z"/>
    <path class="cls-18" d="M356.48,267.61c-8.83-1.13-22.99-2.98-22.99-2.98,0,0,.02,22.27,20.49,24.89,20.47,2.63,23.49-19.88,23.49-19.88,0,0-12.17-.9-21-2.03Z"/>
    <path class="cls-4" d="M356.56,267.62c-4.2-.54-21.02-2.35-21.02-2.35,0,0,4.8,15.21,19.99,17.16,16.46,2.11,19.08-11.89,19.08-11.89l-18.06-2.92Z"/>
    <path class="cls-13" d="M356.66,268.35c-4.2-.54-16.87-1.81-16.87-1.81,0,0,3.93,4.64,16.52,6.25,12.59,1.62,17.25-1.77,17.25-1.77l-16.9-2.67Z"/>
    <path class="cls-18" d="M378.09,268.91c-.44-.18-.43-.19-2.52-.66-3.47-.79-4.77-2.29-7.29-2.83-4.3-.93-7.31.64-9.2.39-1.89-.24-4.41-2.52-8.81-2.7-2.58-.11-9.01,1.29-12.57,1.18-2.14-.07-3.7-.06-4.17,0-.65.09-.89,3,22.88,6.05,23.78,3.05,22.28-1.18,21.68-1.43Z"/>
    <path class="cls-22" d="M235.06,354.73c11.24,13,4.51,34.99,1.71,51.17-2.92,16.83-8.13,31.1-13.1,47.35-1.91,6.24-7.29,21.3-13.17,37.92l-18.44,52.26h0c3.13,55.24-15.05,171.33-15.05,171.33h-47.78s-5.83-136.23,2.88-174.35c12.14-53.16,22.72-107.5,37.11-160.04,4.64-16.96,17.85-46.17,39.1-45.57,15.77.44,26.74,19.92,26.74,19.92Z"/>
    <path class="cls-6" d="M989.63,708.6c1.63-4.13,2.68-8.36,3.43-12.73.72-4.26,1.9-8.42,2.56-12.68,1.63-10.51.83-21.24-.32-31.75-.66-5.99-1.46-11.97-2.08-17.97-.02-.19-1.12.01-1.09.29,1.09,10.5,2.72,20.95,3.19,31.51.23,5.19.18,10.41-.43,15.58-.54,4.64-1.85,9.1-2.64,13.7-.84,4.89-1.86,9.62-3.69,14.25-.07.17.97.08,1.08-.2h0Z"/>
    <path class="cls-5" d="M992.28,601.52c1.83-1.28,3.66-2.56,5.49-3.84,1.29-.9,2.83-1.61,2.32-3.42s-1.32-3.57-1.93-5.35c-.57-1.65-1.11-3.32-1.63-4.99-2.02-6.51-3.67-13.13-5.35-19.74-1.77-6.98-3.63-13.93-5.89-20.77-2.01-6.06-4.48-11.9-6.88-17.82-3.25-8-6.07-16.19-8.61-24.44-1.94-6.31-3.7-12.68-5.04-19.15-1.43-6.88-2.01-13.81-2.63-20.8-.52-5.85-1.02-11.69-1.51-17.54-.13-1.6-.26-3.19-.39-4.79-.05-.69.03-1.6-.18-2.28-.03-.08-.01-.2-.02-.28-.02-.29-1.48-.03-1.45.39.47,6.35,1.02,12.7,1.58,19.05.62,7.14,1.01,14.35,2.17,21.42,1.05,6.37,2.61,12.65,4.38,18.85,2.74,9.6,5.98,19.07,9.62,28.37,1.59,4.05,3.39,8.02,4.93,12.09,2.63,6.97,4.8,14.09,6.72,21.28,1.73,6.5,3.28,13.05,5.07,19.53.94,3.4,1.94,6.79,3.05,10.14.56,1.7,1.15,3.4,1.77,5.08.29.8.78,1.69.9,2.55.19,1.37-1.35,2.03-2.29,2.69-1.77,1.23-3.53,2.47-5.3,3.7-.6.42.84.26,1.12.07h0Z"/>
  </g>
</svg>