<?xml version="1.0" encoding="UTF-8"?>
<svg id="Layer_5" data-name="Layer 5" xmlns="http://www.w3.org/2000/svg" xmlns:xlink="http://www.w3.org/1999/xlink" viewBox="0 0 278.14 278.14">
  <defs>
    <style>
      .cls-1 {
        fill: none;
      }

      .cls-2 {
        fill: #8f8f8f;
      }

      .cls-3 {
        fill: #010101;
      }

      .cls-4 {
        fill: #030303;
      }

      .cls-5 {
        fill: #6e472d;
      }

      .cls-6 {
        fill: #f2eef7;
      }

      .cls-7 {
        fill: #804841;
      }

      .cls-8 {
        fill: #bd932e;
      }

      .cls-9 {
        fill: #060606;
      }

      .cls-10 {
        fill: #050505;
      }

      .cls-11 {
        fill: #020202;
      }

      .cls-12 {
        fill: #fff;
      }

      .cls-13 {
        fill: #00837e;
      }

      .cls-14 {
        fill: #552d23;
      }

      .cls-15 {
        fill: #dbf1f9;
        stroke: #fff;
        stroke-miterlimit: 10;
        stroke-width: .5px;
      }

      .cls-16 {
        fill: #965636;
      }

      .cls-17 {
        fill: #dc9c78;
      }

      .cls-18 {
        clip-path: url(#clippath);
      }

      .cls-19 {
        fill: #003f3c;
      }

      .cls-20 {
        fill: #161312;
      }
    </style>
    <clipPath id="clippath">
      <circle class="cls-1" cx="139.94" cy="137.93" r="136.76"/>
    </clipPath>
  </defs>
  <g class="cls-18">
    <circle class="cls-15" cx="139.07" cy="139.07" r="136.76"/>
    <path class="cls-13" d="M256.02,404.31l-.37-15.9c-4.21-29.38-7.6-65.6-12.73-88.3-4.11-19.5-6.95-83.51-14.5-105.51-7.56-22-38.89-30.04-41.96-30.98,0,0-.37,88.9,12.56,119.53,7.64,18.09,18.99,80.74,27.01,123.32,10.03-.33,20.04-1.04,29.99-2.15Z"/>
    <path class="cls-19" d="M224.96,206.14c-.25,2.16-.48,4.31-.71,6.47-.31,2.96-.91,6.08-.84,9.05.03,1.47.91,3.07,1.41,4.41,1.19,3.23,2.4,6.46,3.57,9.7,1.49,4.15,2.94,8.32,4.27,12.52,1.28,4.05,2.6,8.18,3.36,12.37,1.79,9.86-.2,20.53-4.21,29.61-1.64,3.71-3.52,7.33-4.6,11.25-1.07,3.9-1.24,7.99-.6,11.98,1.09,6.85,2.45,13.67,3.81,20.46s3.1,13.73,4.06,20.7c.84,6.13,1.51,12.28,2.15,18.44,1.08,10.25,2.05,20.51,2.96,30.78.02.18.03.37.05.55.05.63,1.51.29,1.45-.39-.76-8.74-1.59-17.47-2.47-26.2-.66-6.5-1.34-13.01-2.15-19.5-.68-5.46-1.65-10.76-2.8-16.14-1.91-8.92-3.64-17.89-5.21-26.88-.46-2.64-.84-5.26-.72-7.96.19-4.35,1.6-8.4,3.37-12.34,1.78-3.95,3.63-7.84,4.81-12.02,1.39-4.9,2.15-10.01,2.17-15.1.04-8.97-3.11-17.68-5.98-26.07-2.18-6.38-4.69-12.64-6.88-19.02-.59-1.72-.21-3.33-.03-5.29.31-3.23.66-6.45,1.02-9.67.07-.62.14-1.23.21-1.85.08-.72-1.39-.51-1.46.12h0Z"/>
    <circle class="cls-1" cx="139.23" cy="139.18" r="136.76"/>
    <circle class="cls-1" cx="139.07" cy="139.07" r="136.76"/>
    <path class="cls-4" d="M190.82,52.15c4.07,9.9,5,21.4,5.6,35.66,1.22,21.99-2.07,44.01-9.67,64.75l-20.04,14.55-6.22-9.22c13.96-17.92,25.78-26.38,25.78-48.89,0-5.18,2.9-28.2,2.75-28.89-2.86-13.6-8.4-9.69-17.42-16.36-7.37-5.41-21.53-4.35-28.35-2.39-6.01,1.72-14.13.8-21.64,14.49-4.96,9.15-7.66,5.08-9.58,20.84l-8.64-57.76,37.52-9.62,24.29-2.02c10.8,1.67,21.54,14.96,25.63,24.86Z"/>
    <path class="cls-13" d="M48.04,335.2c11.61.24,36.24,2.55,47.72,4.34,11.91,1.86,25.34,2.48,37.25,4.34,11.91,1.86,22.49-14.11,34.51-13.23,17.64,1.3,32.43,4.56,49.91,1.26-1.07-3.14-.72-7.39-1.5-10.52-2.1-8.34,2.71-19.21,6.68-27.52,11.43-23.92,4.98-38.84,2.12-43.34l-31.53-81.23-21.92-4.15c1.15,2.05,5.56,5.09-15.12,10.61-.02,0-14.11,2.04-9.96,4.53-26.69-1.09-37.13-22.5-37.13-22.5l-43.35,18.09-13.23,120.26s-.76,28.77-4.45,39.04Z"/>
    <path class="cls-17" d="M190.98,81.56c-.44-4.48-1.59-8.88-3.86-12.81-5.02-8.7-10.33-13.46-24.14-15.75-7.55-.38-15.04.47-22.28,3.68-10.28,4.56-19.01,12.54-24.78,22.15-.05.08-.11.15-.17.22-.35,1.42-.52,2.88-.41,4.36.11,1.43-2.11,1.48-2.21.07-.08-1.04,0-2.08.14-3.1-.66,0-1.31-.21-1.86-.55.68,3.46,1.25,6.14,1.27,7.11.06,3.51-1.97,4.4-1.97,4.4-.95-1.33-2.33,2.43-2.87.94-.55-1.31-.08-2.95-.63-4.27-1.68-3.02-5.73-2.26-8.01-.51l-.39.59c-3.24,4.04-.41,17.11,1.72,21.04.36,7.85,7.09,12.23,11.18,6.73l.97,3.1,10.72,15.64c7.61,8.32,22.97,20.06,35.42,19.99,4.46-.03,8.79-3.33,12.11-8.73,3.36-5.45,6.41-7.6,10.05-12.64,3.49-4.84,5.05-7.86,6.71-13.57,1.72-5.9,1.75-7.47,1.3-13.44-.2-2.67-.27-6.7.01-9.24.27-2.44,1.36-9.26,2-15.4Z"/>
    <path class="cls-4" d="M191.47,83.93c-.04-.53-.1-1.05-.14-1.57,0,0-.01-.01-.02-.01,0,0-2.03-1.43-5.21-2.07-2.19-.44-8.2-.53-16.11.84.06,1.08.12,2.16.18,3.24.05.82.1,1.65.15,2.47,2.72-.84,5.06-1.41,6.82-1.8,3.73-.82,5.65-1.23,7.85-.98,2.32.26,4.31,1.02,5.09,1.32.38.15.71.28,1.03.41.35-.58.41-1.05.36-1.84Z"/>
    <path class="cls-4" d="M155.06,78.77c-.13,1.07-.25,2.15-.38,3.23-.1.82-.2,1.64-.3,2.46-2.9-1.03-5.41-1.78-7.3-2.29-4-1.09-6.05-1.64-8.46-1.54-2.53.1-4.74.71-5.6.95-1.21.34-2.02.55-3.01,1.06-2.16,1.1-3.15,2.51-3.47,2.34-.29-.15.36-1.42.42-1.55,1.64-3.18,4.67-4.83,4.9-4.96,0,0,2.28-1.28,5.77-1.69,2.4-.28,8.93.06,17.43,2"/>
    <path class="cls-11" d="M113.77,104.07c-1.03-2.36-2.16-4.7-3.62-6.82-.75-1.09-1.59-2.18-2.65-3-.42-.33-.92-.67-1.46-.76s-.73.44-.94.82c-1.1,2.04-1.08,4.51-.6,6.72.06.26.62.12.56-.15-.39-1.77-.47-3.65.11-5.4.19-.59.46-1.24.87-1.73l-.26.12c-.17,0,0,0,.02.01,0,0,.11.03.21.06.34.12.65.33.94.54,1.47,1.1,2.55,2.72,3.49,4.27,1.05,1.74,1.94,3.59,2.75,5.45.11.25.67.09.56-.15h0Z"/>
    <path class="cls-11" d="M112.04,104.97c-3.2-.22-1.43,4.23-1.7,5.98-.02.14-.15.54-.18.54.06,0-.13-.18-.17-.22-.12-.15-.21-.34-.29-.52-.44-.97-.65-2.06-.84-3.1-.25-1.4-.38-2.66-.2-4.06.21-1.57.67-3.87,2.33-4.54.37-.15.03-.28-.21-.19-1.49.6-2.14,2.18-2.48,3.64-.25,1.09-.4,2.27-.28,3.39.15,1.34.36,2.68.74,3.98.16.54.38,1.55.95,1.84.38.2.84-.04,1.03-.38.27-.47.18-1.14.14-1.66-.08-.93-.92-4.54.8-4.42.15.01.65-.25.35-.27h0Z"/>
    <path class="cls-13" d="M84.36,233.12l4.84-73.39s-39.59,9.36-50.07,27.88c-18.56,39.02-29.81,112.19-30.33,131.4-.57,21.19,6.38,63.61,11.69,95.4l47.43-4.63-6.38-98.35,22.82-78.31Z"/>
    <path class="cls-4" d="M200.55,168.04s-.62-7.13-17.59-20.61l.39-5.73s-9.08,12.71-31.56,9.13c-16.36-2.6-22.37-11.29-28.46-24.72-10.5-23.17-6.66-56.99,3.97-75.51,9.96-17.35,50.5-4.82,57.02-9.3,0,0-14.44-26.15-52.36-22.54-11.94,1.13-23.09,4.65-31.28,13.63-11.58,12.72-19,32.28-20.69,48.85-.45,4.38-.66,8.78-.66,13.18.01,17.99,4.84,39.73,15.25,54.95l-4.49,1.82s-14.35,5.44-16.35,15.29l2.41,1.16s32.34,31.56,69.4,24.45c33.79-7.7,30.28-26.52,55.02-23.43"/>
    <path class="cls-2" d="M135.45,159.55c-3.48-2.63-7.19-4.87-10.57-7.64-3.1-2.55-6.05-5.29-8.78-8.23-4.93-5.29-9.17-11.21-12.62-17.57-7.07-13.03-10.74-27.84-10.65-42.65.03-4.35.39-8.7,1.02-13.01.36-2.44.81-4.87,1.35-7.28.56-2.47,1.33-4.89,1.83-7.38.07-.34-.61-.19-.71,0-.2.39-.34.77-.47,1.19-.09.31.65.22.73-.07.09-.38.23-.73.42-1.07h-.71c-.88,4.45-2.24,8.75-2.96,13.24-.64,3.98-1.05,8-1.19,12.03-.24,7.4.43,14.83,2.02,22.06,3.16,14.4,9.94,27.98,19.69,39.05,2.74,3.11,5.71,5.99,8.85,8.7,1.89,1.63,3.85,3.18,5.87,4.65,2.07,1.5,4.27,2.81,6.31,4.35.23.18.88-.16.56-.4h0Z"/>
    <path class="cls-2" d="M94.23,149.52c1.56,1.99,3.43,3.78,5.32,5.45,4.42,3.93,9.44,7.21,14.87,9.55,7.36,3.18,15.03,4.11,23,3.74,8.41-.39,16.63-1.97,24.87-3.56,7.66-1.49,15.54-2.85,23.25-1,.3.07.86-.37.42-.47-6.33-1.52-12.78-.96-19.13.13-7.78,1.34-15.45,3.14-23.32,3.94-8.68.89-17.31.89-25.62-2.06-5.89-2.09-11.35-5.33-16.17-9.3-2.45-2.02-4.87-4.23-6.83-6.74-.19-.25-.89.03-.66.31h0Z"/>
    <path class="cls-2" d="M119.3,72.81c.25-5.13,1.74-10.4,3.78-15.08,1.89-4.34,4.51-8.39,7.95-11.67,4.17-3.97,9.41-6.55,15.04-7.69,9.39-1.91,19.22-.09,28.23,2.73.27.09.85-.31.43-.44-13.69-4.28-30.23-6.12-42.22,3.43-7.04,5.61-11.18,14.09-13.05,22.77-.43,1.97-.79,4.01-.89,6.03-.02.34.72.21.73-.07h0Z"/>
    <path class="cls-9" d="M127.43,90.05l1.18,3.84c.66,2.97,3.43,8.83,4.41,10.46,1.39,2.28,17.35,3.7,20.54,2.02s5.23-10.58,6.13-12.62l6.39.58c.49,2.71,2.23,11.28,3.4,12.47,1.18,1.19,8.52,1.25,9.35,1.25.69,0,1.65,0,2.7-.05,2.78-.1,6.16-.44,7.22-1.4,1.58-1.44,3.44-7.07,5.06-12.4l.26-.84c.06-.2.13-.34.13-.4h0l.29-.96c-9.08-4.63-21.19-4.35-28.69.67l.05.1-6.23-.59c-6.9-4.84-19.01-7.77-27.83-4.77h0l-24.57,5.89-.15,2.35,20.36-5.59ZM170.26,105.95c-.74-.74-2.14-6.76-3.07-11.43,6.52-4.24,17.43-4.47,25.56-.79v.12c-.87,2.86-3.18,10.47-4.73,11.88-1.84,1.67-16.46,1.4-17.76.25v-.03ZM134.94,103.78c-2.45-3.52-4.39-9.06-5.59-13.76,7.86-3.18,22.02-.69,28.78,3.91-1.22,3.71-2.81,10.2-5.1,11.4-3.3,1.74-17.22-.11-18.09-1.56h0Z"/>
    <path class="cls-9" d="M126.7,171.8s17.12,31.73,16.44,64.68c-.42,20.53.46,39.86,1.19,51.5.3,4.76-9.49,8.02-13.58,5.58l-11.38-6.79c-8.87-5.29-14.44-14.73-14.76-25.05-.42-13.64-1.5-33.45-4.22-50.11-4.68-28.62-21.34-41.88-21.34-41.88l47.65,2.07Z"/>
    <path class="cls-4" d="M159.09,177.39s17.43,80.88,14.52,119.25c-2.91,38.38-14.4,354.79-14.4,354.79l10.29-2.94s14.78-346.38,15.99-361.41c1.87-23.35-11.5-94.23-15.39-109.68h-11.01Z"/>
    <path class="cls-4" d="M85.98,219.44s33.6,4.41,74.37,5.79c40.77,1.38,64.53-9.86,64.53-9.86l-.75,7.3s-7.05,10.21-52.16,12.16c-45.11,1.95-87.28-6.87-87.28-6.87l1.28-8.52Z"/>
    <path class="cls-19" d="M71.06,185.66c4.35,3.35,9.19,6.78,11.94,11.66,2.6,4.61,3.17,10.36,3.06,15.56-.12,5.75-1.23,11.49-2.41,17.09-1.36,6.45-3,12.83-4.71,19.19-1.89,7.05-3.94,14.06-5.64,21.16-1.83,7.67-3.67,15.33-5.5,23l-5.44,22.76c-.24,1-.7,2.15-.74,3.18-.04,1.1.24,2.32.36,3.41.66,6.27,1.32,12.55,1.98,18.82.94,9,1.89,18,2.83,26.99.89,8.48,1.78,16.96,2.67,25.45.5,4.74,1,9.48,1.49,14.23.02.22.05.45.07.67l.67-.41c-4.8,1.14-9.61,2.28-14.41,3.41-.85.2-.74.63.11.42,4.8-1.14,9.61-2.28,14.41-3.41.15-.03.69-.18.67-.41-.35-3.34-.7-6.68-1.05-10.01-.83-7.91-1.66-15.81-2.49-23.72-.96-9.17-1.92-18.34-2.89-27.5-.76-7.23-1.52-14.47-2.28-21.7-.2-1.89-.4-3.78-.59-5.67-.09-.82-.11-.97.06-1.71,1.54-6.43,3.07-12.86,4.61-19.29,2.01-8.4,4.01-16.79,6.02-25.19,1.37-5.74,2.84-11.42,4.41-17.11,3.36-12.22,6.93-24.55,8.64-37.13.73-5.4.88-10.87-.22-16.24-1.01-4.92-3.53-8.84-7.19-12.22-2.24-2.07-4.67-3.93-7.08-5.78-.31-.24-1.56.34-1.37.49h0Z"/>
    <path class="cls-9" d="M98.86,227.79s-3.61,9.4-1.45,13.01c2.17,3.61,43.83,4.95,49.97,4.22,6.14-.72,5.32-13.62,5.32-13.62l-53.85-3.61Z"/>
    <path class="cls-9" d="M194.99,230.32s-.36,7.95,1.81,10.12c2.17,2.17,27.8-4.13,30.53-7.01s-2.83-12.03-2.83-12.03l-29.51,8.92Z"/>
    <ellipse class="cls-8" cx="169.36" cy="199.7" rx="4.27" ry="3.17"/>
    <ellipse class="cls-8" cx="174.8" cy="230.96" rx="4.27" ry="3.17"/>
    <ellipse class="cls-8" cx="211.53" cy="231.14" rx="4.27" ry="3.17"/>
    <ellipse class="cls-8" cx="179.07" cy="264.66" rx="4.27" ry="3.17"/>
    <path class="cls-16" d="M159.7,122.73c-5.32-.44-14.38-2.07-14.38-2.07,0,0,.98,13.18,13.32,14.21,12.34,1.03,13.06-11.43,13.06-11.43,0,0-6.68-.26-12-.7Z"/>
    <path class="cls-20" d="M159.75,122.74c-2.53-.21-12.01-1.06-12.01-1.06,0,0,1.99,7.58,11.14,8.34,9.92.83,11.11-6.41,11.11-6.41l-10.24-.88Z"/>
    <path class="cls-6" d="M159.83,123.13c-2.53-.21-10.19-1.29-10.19-1.29,0,0,2.54,3.05,10.13,3.68,7.59.63,10.23-1.91,10.23-1.91l-10.16-.49Z"/>
    <path class="cls-16" d="M172.25,123.12c-.26-.09-.87.06-2.01-.24-2.06-.53-2.95-1.38-4.41-1.62-2.5-.41-4.18.49-5.28.4s-2.61-1.26-5.14-1.27c-1.48,0-3.8.31-5.85.33-1.23,0-4.17-.72-4.43-.68-.37.06.26,2.97,14.02,4.11,13.75,1.14,13.46-.91,13.11-1.03Z"/>
    <path class="cls-12" d="M151.78,97.93s-7.88,3.55-13.97.31c-2.19-1.16-3.21-2.67-2.27-4.86,1.87-4.34,7.5-4.32,10.67-3.14,3.44,1.29,5.96,3.49,5.56,7.68Z"/>
    <g>
      <path class="cls-5" d="M149.07,93.57c.63,2.82-1.2,4.59-4.2,5.09-3,.5-6.02-.46-6.65-3.28-.63-2.82.61-5.3,3.61-5.8,3-.5,6.61,1.16,7.25,3.98Z"/>
      <path class="cls-10" d="M146.45,93.74c.35,1.57-.71,3.06-2.37,3.34-1.66.28-3.3-.77-3.65-2.33-.35-1.57.71-3.06,2.37-3.34,1.66-.28,3.3.77,3.65,2.33Z"/>
    </g>
    <path class="cls-12" d="M171.26,99.05s7.48,4.82,14.04,2.61c2.36-.79,3.62-2.12,3.07-4.42-1.1-4.58-6.65-5.47-9.98-4.81-3.62.71-6.79,2.43-7.12,6.62Z"/>
    <g>
      <path class="cls-5" d="M174.99,95.24c-1.11,2.68.4,4.72,3.27,5.7,2.87.98,6.02.52,7.12-2.16,1.11-2.68.3-5.32-2.57-6.3-2.87-.98-6.72.08-7.83,2.76Z"/>
      <path class="cls-10" d="M177.55,95.82c-.61,1.49.18,3.13,1.77,3.67,1.59.54,3.38-.22,4-1.71.61-1.49-.18-3.13-1.77-3.67-1.59-.54-3.38.22-4,1.71Z"/>
    </g>
    <ellipse class="cls-12" cx="179.09" cy="95.54" rx=".56" ry=".6" transform="translate(76.15 270.48) rotate(-87.61)"/>
    <ellipse class="cls-12" cx="142.38" cy="93.14" rx=".56" ry=".6" transform="translate(43.37 231.5) rotate(-87.61)"/>
    <path class="cls-3" d="M151.71,95.39s-3.57-4.95-10.33-4.41c-6.76.54-6.16,4.29-6.16,4.29,0,0-1.05-4.48,3.84-6.03,3.52-1.11,10.47-1.32,12.65,6.15Z"/>
    <path class="cls-3" d="M171.49,97.39s4.1-4.63,11-3.51c6.91,1.11,5.98,4.8,5.98,4.8,0,0,1.47-4.38-3.44-6.34-3.53-1.41-10.66-2.2-13.54,5.05Z"/>
    <path class="cls-3" d="M135.3,94.69s-3.68-.92-4.35-3.4c0,0,2.61,1.77,6.27-.81,0,0-1.87,2.59-1.9,3.4l-.02.81Z"/>
    <path class="cls-7" d="M166.48,94.28c-.6,1.71-.23,3.73.11,5.45.48,2.43,1.22,4.81,2.01,7.16.63,1.88,1.33,3.73,1.99,5.6.14.39.43.92.43,1.35,0,1.18-1.63,1.78-2.6,1.98-1.46.31-2.95.4-4.44.38-1.6-.03-3.35-.12-4.81-.82-.27-.13-1.33.3-.94.48,2.54,1.21,6.08,1.04,8.8.66,1.06-.15,2.16-.35,3.14-.79.78-.35,2.02-1.15,2.02-2.15,0-.45-.29-.99-.44-1.4-.34-.94-.69-1.88-1.02-2.82-.9-2.51-1.76-5.04-2.44-7.62-.6-2.3-1.48-5.29-.66-7.65.09-.27-1.04-.14-1.15.19h0Z"/>
    <path class="cls-7" d="M153.98,110.77c-.9.11-1.83.57-2.33,1.36-.27.42-.38.89-.4,1.38s0,.94.26,1.35c.51.82,1.53,1.09,2.43,1.23,1.1.17,2.23.28,3.34.07.2-.04.62-.13.66-.37s-.35-.24-.49-.21c-.85.16-1.7.08-2.54-.04-.77-.11-1.59-.25-2.13-.86-.51-.58-.47-1.56-.21-2.24.2-.53.66-1.01,1.24-1.08.2-.02.62-.14.66-.37s-.35-.23-.49-.21h0Z"/>
    <path class="cls-14" d="M178.24,71.94s-9.08.92-16.44,1.07c-7.36.15-14.49-2.69-14.49-2.69,0,0,8.59,2.03,14.41,1.94,5.82-.09,16.52-.32,16.52-.32Z"/>
    <path class="cls-14" d="M146.52,113.52s-6.03,4.26-5.75,14.28c0,0-1.62-11.82,5.75-14.28Z"/>
  </g>
</svg>