<?xml version="1.0" encoding="UTF-8"?>
<svg id="Layer_3" data-name="Layer 3" xmlns="http://www.w3.org/2000/svg" xmlns:xlink="http://www.w3.org/1999/xlink" viewBox="0 0 278.14 278.14">
  <defs>
    <style>
      .cls-1 {
        fill: none;
      }

      .cls-2 {
        fill: #2e1d12;
      }

      .cls-3 {
        fill: #010101;
      }

      .cls-4 {
        fill: #e8b48f;
      }

      .cls-5 {
        fill: #563835;
      }

      .cls-6 {
        fill: #f2eef7;
      }

      .cls-7 {
        fill: #2d1d13;
      }

      .cls-8 {
        fill: #804841;
      }

      .cls-9 {
        fill: #050505;
      }

      .cls-10 {
        fill: #fff;
      }

      .cls-11 {
        fill: #8a463d;
      }

      .cls-12 {
        fill: #9f6753;
      }

      .cls-13 {
        fill: #ed0d6c;
      }

      .cls-14 {
        fill: #dbf1f9;
        stroke: #fff;
        stroke-miterlimit: 10;
        stroke-width: .5px;
      }

      .cls-15 {
        fill: #881848;
      }

      .cls-16 {
        fill: #556b30;
      }

      .cls-17 {
        fill: #141010;
      }

      .cls-18 {
        clip-path: url(#clippath);
      }
    </style>
    <clipPath id="clippath">
      <circle class="cls-1" cx="138.58" cy="139.21" r="136.76"/>
    </clipPath>
  </defs>
  <g class="cls-18">
    <circle class="cls-14" cx="139.07" cy="139.07" r="136.76"/>
    <circle class="cls-1" cx="139.23" cy="139.18" r="136.76"/>
    <path class="cls-2" d="M93.84,77.55c-5.59,7.06-11.41,14.95-9.7,23.34.82,4.01,3.32,7.71,4.81,11.61,1.49,3.9,1.82,8.48-1.3,11.6-1.75,1.75-4.35,2.8-6.49,4.26-5.33,3.65-7.35,10.07-4.85,15.45.93,1.99,2.39,3.81,3.36,5.78,2.75,5.57,1.11,12.26-4.03,16.42-1.35,1.09-3.01,2.17-3.24,3.71-.18,1.21.61,2.41,1.53,3.41,5.31,5.87,14.82,8.1,23.66,9.4,23.16,3.4,47.04,3.1,69.79-.88,5.08-.89,10.23-2,14.47-4.35,4.25-2.35,7.51-6.16,7.38-10.34-.19-6.44-7.96-11.61-8.65-18.04-.74-6.91,6.82-12.59,7.58-19.47.58-5.19-2.82-10.24-6.92-14.4-12.6-12.8-31.87-20.01-50.36-26.75"/>
    <path class="cls-2" d="M188.05,65.82c2.02-12.02-4.41-31.81-28.66-31.43,0,0-18.07-10.1-41.47-2.59-23.4,7.51-30.68,29.29-25.95,53.22,6.12,30.97,68.19,2.97,88.96-7.36,4.48-2.23,6.29-6.9,7.12-11.84Z"/>
    <path class="cls-4" d="M123.46,108.92s5.62,16.84,1.1,29.89c-.63,1.82-7.92,6.98-7.92,6.98l9.91,6.03c8.04,4.89,15.86,11.29,25.17,9.96,5.28-.75,12.82-2.3,16.99-3.95l6.03-12.22s-8.73-2.7-9.27-4.9c-.54-2.2.95-19.06.95-19.06"/>
    <path class="cls-4" d="M192.44,159.99c1.65.7,11.58,8.28,14.52,20.7,2.94,12.42,1.88,73.24,3.06,84.09,1.91,15.46.58,15.22-.78,30.8-.51,5.83-1.07,11.66-1.58,17.49-.06.73-.09,10.84.36,11.07l-13.79-1.33s1.72-81.69-3.71-99.14c-5.43-17.45,1.93-63.69,1.93-63.69Z"/>
    <path class="cls-13" d="M154.37,154.33c-14.11-1.84-33.24-17.12-33.24-17.12-9.55,2.76-19.17,7.73-26.34,11.38-31.55,16.07-7.97,55.28-7.97,55.28,4.83,3.01,18.79,5.63,18.79,5.63-2.65,13.54-15.98,28.08-16.46,29.84-.48,1.75-8.98,189.05-11.88,216.88,0,0,46.33,21.82,77.76,19.51,31.43-2.32,52.61-25.17,52.61-25.17-.36-9.03-6.37-184.79-5.43-217.66.34-12.03,4.22-23.38,4.22-23.38,0,0-3.21-1.11.77-9.76-4.8-13.68-.5-34.12-15.26-44.93-2.97-2.17-11.72-9.61-16.72-9.82,0,0,.47-.93-.66,2.15-1.85,5.05-9.82,6.61-15.04,7.28"/>
    <g>
      <path class="cls-13" d="M165.65,138.67s2.19,11.62-7.79,15.25c0,0,8.05,3.48,10.91,9.87,0,0,6.78-4.78,7.62-19.75,0,0-.46-1.88-4.18-3.26-3.73-1.38-6.55-2.12-6.55-2.12Z"/>
      <path class="cls-15" d="M164.93,138.86c1.11,5.99-1.4,12.56-7.34,14.81-.18.07-.71.41-.31.58,4.38,1.91,8.74,5.36,10.76,9.74.2.42,1.04.07,1.3-.11,2.05-1.46,3.51-3.98,4.57-6.2,1.38-2.87,2.22-5.98,2.71-9.12.15-.95.26-1.9.35-2.85.05-.56.25-1.38.11-1.93-.17-.69-.88-1.33-1.4-1.75-1.67-1.35-3.88-1.95-5.89-2.61-1.18-.39-2.36-.76-3.56-1.08-.4-.11-1.7.51-1.17.65,2.68.71,5.59,1.48,8.05,2.78.85.45,2.07,1.23,2.44,2.2.41,1.09-.1,2.88-.26,4.01-.68,4.94-2.19,10.11-5.41,14.02-.5.61-1.05,1.24-1.69,1.7l1.3-.11c-2.09-4.52-6.53-8.04-11.05-10.01l-.31.58c4.1-1.55,7.02-4.73,8.01-9.02.49-2.13.63-4.52.23-6.69-.08-.43-1.54-.09-1.45.39Z"/>
    </g>
    <path class="cls-13" d="M200.41,229.11s-.26-35.67-.57-45.43c-.06-2.01-1-5.2-1.39-7.17l-10.89-24.4s10.18,3.12,18.44,18.6c5.51,10.34,9.67,56.25,9.67,56.25,0,0-7.98,2.57-15.25,2.15Z"/>
    <path class="cls-11" d="M165.42,135.77s-5.04-.98-7.87-1.4c-2.82-.42-9.58.43-23.44-8.47,0,0,7.35,12.09,23.76,13,0,0,4.93.46,7.59-.47l-.04-2.66Z"/>
    <path class="cls-4" d="M182.94,68.42c1.48,2.78,2.7,6.23,2.7,9.01,0,5.48-.55,11.67-.64,14.04-.08,2.06.19,5.28.5,7.41.69,4.76,1.54,7.61.5,12.43-1.25,5.79-4.17,10.78-7.46,15.87-4.45,6.88-10.38,8.72-18.29,9.08-9.92.45-19.61-4.1-26.12-10.35l-8.07-8.4-1.34-5.99c-4.96,5.25-8.54-2.34-8.37-3.79-1.9-3.04-8.37-13.48-4.32-17.75l.28-.49c1.72-1.53,4.02-1.95,5.53.38.51,1.02,1.1,1.96,1.61,2.98.51,1.17,2.33,3.34,3.16,4.36,0,0,.63-6.09.4-8.9-.24-2.81-2.13-14.04,2.72-18.17,0,0,3.16-6.88,5.32-9.9l.79-.32c.48-.01.8.13,1.28.11,0-.15-.17-.29-.18-.59.81.27,1.44.11,2.09.09-.16-.14-.49-.28-.49-.43.64.13,1.28-.04,1.92-.05-.17-.14-.49-.43-.5-.58.81.27,1.28-.04,1.92-.05-.16-.14-.33-.44-.34-.58.65.28,1.28.11,1.92.09-.17-.14-.33-.44-.5-.58.81.27,1.28-.04,1.92-.05.16,0-.33-.29-.33-.44.48.13,1.12.12,1.6.1,0-.15-.33-.29-.33-.44.97.27,1.44-.04,2.08-.06l-.5-.58c.65.43,1.29.41,1.93.24-.16-.14-.49-.43-.5-.58.81.42,1.78.54,2.57.22-.16,0-.49-.43-.5-.58.82.57,1.45.4,2.25.38-.16-.14-.33-.44-.66-.72.98.57,2.1.83,3.05.36-.14,0-.29-.34-.32-.52-.09-.13-.12-.29.22-.36,0,0,1.86.54,1.85.39.65.43-1.76-2.46-.96-2.49-.17-.29,4.6.15,4.27-.14.82.57.65.27,1.6.09,0,0,.19-1.89,0,0-.11-7.99,5.24-4.62,5.49-4.66,0,0,11.93,15.18,19.23,20.89Z"/>
    <path class="cls-7" d="M130.46,66.12l-2.2,5.35c-2.3,6.19-3.49,18.05-3.94,24.66l-.13,1.89c-.04.54-.72.74-1.02.29l-3.74-5.55s-1.39-25.69,11.02-26.64Z"/>
    <path class="cls-8" d="M117.68,97.15c-1.28.62-1.67,2.12-1.8,3.43s.02,2.41.6,3.59,1.66,2.64,3.11,2.13c1.23-.42,1.2-1.74.82-2.76-.22-.59-.55-1.15-.72-1.76s-.06-.86.56-.89c.14,0,.95-.16.81-.46-.99-2.12-2.1-4.27-3.53-6.13-.77-1.01-1.76-1.87-3.13-1.58-1.72.36-2.13,2.15-2.11,3.68.03,1.73.65,3.54,1.64,4.96.2.29,1.32-.09,1.08-.44-.67-.97-1.13-2.15-1.38-3.3-.2-.92-.26-1.9-.07-2.82.09-.46.32-1.4.85-1.55.43-.12,1.01.35,1.3.63.39.38.72.81,1.04,1.25.77,1.09,1.43,2.25,2.05,3.43.38.71.75,1.43,1.09,2.17l.81-.46c-.85.04-2.33.25-2.26,1.4.06.98.78,1.85.99,2.8.05.23.08.46.05.69-.01.07-.29.74-.33.69,0,0,.27-.04.25-.08,0-.01-.1-.03-.11-.04-.1-.08-.24-.12-.34-.19-.29-.21-.55-.49-.76-.78-.77-1.01-1.24-2.33-1.22-3.61.02-1.19.16-3.15,1.39-3.74.2-.1.29-.26.11-.41s-.64.04-.82.12h0Z"/>
    <path class="cls-7" d="M157.52,83.14c.01-.09-.28-.92-.27-1.01-6.17-1.44-10.89-1.74-12.63-1.56-1.32.13-2.61.48-3.84.98,0,0-3.5,2.14-3.93,2.71-.43.57,2.04-.21,2.04-.21.53-.1.89-.24,1.43-.28,2.96-.24,5.8-.81,8.74-.37,2.52.36,5.9,1.69,8.3,2.55.12-.96-.05-1.86.16-2.81Z"/>
    <path class="cls-7" d="M185.54,81.62c-.31-.18-1.79-.51-2.12-.53-1.72-.11-6.28.36-12.19,1.91.1,1.07.18,2.34.28,3.41,2.39-.95,4.08-1.36,6.62-1.82,1.69-.31,5.3-.35,7.31-.49.34-.99.51-2.03.1-2.48Z"/>
    <path class="cls-12" d="M165.4,115.72c-4.19,0-11.77.32-11.77.32,0,0,2,9.21,11.71,9.23,9.71.02,10.26-9.8,10.26-9.8,0,0-6.02.26-10.21.26Z"/>
    <path class="cls-17" d="M165.44,115.72c-1.99,0-10.44-.07-10.44-.07,0,0,3.03,5.8,10.23,5.82,7.8.01,9.25-5.91,9.25-5.91l-9.04.16Z"/>
    <path class="cls-6" d="M165.53,116.03c-1.99,0-8.05-.36-8.05-.36,0,0,2.18,2.22,8.15,2.23s7.87-2.14,7.87-2.14l-7.97.26Z"/>
    <path class="cls-12" d="M175.88,115.23c-.21-.05-.7.1-1.63-.06-1.69-.28-2.46-.89-3.66-.99-2.04-.16-3.33.65-4.22.65-.89,0-2.18-.82-4.22-.67-1.19.09-3.72.95-5.37,1.09-.99.08-3.27.37-3.48.42-.29.07.97,1.17,12.11,1.19,11.14.02,10.77-1.57,10.47-1.64Z"/>
    <path class="cls-5" d="M78.67,216.08c.03.06.06.12.11.17.11-.12.22-.24.33-.36-.15.06-.29.13-.44.19Z"/>
    <path class="cls-4" d="M101.75,212.22l.32-9.5c1.8-10.79,3.81-37.84-.69-42.51,0,0-12.32,5.61-19.07,11.73-6.73,6.1-6.42,6.56-8.88,29.6h0c-1.59,11.46-7.18,69.77-7.19,73.45-.07,16.25,14.18,70.04,14.18,70.04l13.12-8.89s1.19-41.84-1.22-58.35l9.41-65.57Z"/>
    <path class="cls-13" d="M94.8,148.58s-13.78,5.06-21.96,32.51c-7,23.45-6.58,47.2-6.58,47.2,0,0,13.68,7.31,37.81,4.06,4.96-.67,15.24-39.6,14.92-51.91-.19-7.19-1.72-14.28-4.7-20.83-1.42-3.13-17.75-9.39-19.49-11.02Z"/>
    <g>
      <path class="cls-13" d="M115.76,139.02s4.87-4.29,9.58-6.56c0,0,15.71,21.51,31.48,21.43,0,0-10.1,6.04-11.08,13.41,0,0-32.41-16.74-31.15-27.39"/>
      <path class="cls-15" d="M116.42,138.95c2.82-2.48,5.97-4.76,9.34-6.42l-1.14.12c1.9,2.59,4.07,5.01,6.3,7.32,4.45,4.61,9.5,8.92,15.33,11.69,3.17,1.51,6.58,2.49,10.1,2.5l-.07-.28c-4.85,2.91-10.38,7.74-11.25,13.61l1.41-.43c-3.69-1.91-7.27-4.02-10.78-6.23-6.04-3.8-12.35-7.98-17-13.47-1.76-2.08-3.62-4.77-3.32-7.64.01-.14-1.41-.02-1.45.39-.26,2.52,1.17,4.89,2.65,6.8,2.07,2.67,4.64,4.95,7.27,7.06,5.37,4.29,11.24,7.97,17.21,11.36,1.34.76,2.68,1.51,4.05,2.22.27.14,1.36-.07,1.41-.43.85-5.68,6.21-10.4,10.9-13.22.22-.13.21-.27-.07-.28-6.46-.03-12.45-3.45-17.43-7.29-4.32-3.33-8.21-7.24-11.7-11.43-.72-.86-1.43-1.73-2.09-2.64-.19-.25-.93.02-1.14.12-3.54,1.75-6.85,4.1-9.82,6.7-.27.23,1.05.09,1.3-.14h0Z"/>
    </g>
    <g>
      <polyline class="cls-13" points="156.96 153.58 160.3 155.27 159.91 190.69 154.47 190.59"/>
      <path class="cls-15" d="M156.39,153.98l1.56.79,1.22.62c.06.03.34.22.41.21.28-.06-.07.59-.01-.25-.03.41,0,.83-.01,1.25l-.08,7.71c-.08,7.05-.16,14.1-.23,21.16-.02,1.77-.04,3.53-.06,5.3l.99-.56-5.44-.1c-.66-.01-1.5.97-.52.99,1.81.03,3.63.07,5.44.1.3,0,.99-.13.99-.56.11-10.34.23-20.67.34-31.01.02-1.47.03-2.94.05-4.41,0-.13-.04-.27-.17-.33-1.12-.56-2.23-1.13-3.35-1.69-.52-.26-1.81.45-1.13.8h0Z"/>
    </g>
    <ellipse class="cls-10" cx="155.15" cy="161.99" rx="1.81" ry="1.42"/>
    <ellipse class="cls-10" cx="155.15" cy="169.47" rx="1.81" ry="1.42"/>
    <ellipse class="cls-10" cx="155.15" cy="176.07" rx="1.81" ry="1.42"/>
    <ellipse class="cls-10" cx="155.15" cy="183.54" rx="1.81" ry="1.42"/>
    <path class="cls-15" d="M104.27,167.94c3.96,2.05,6.65,5.76,7.96,9.97,1.39,4.46,1.22,9.11,1.21,13.72-.02,9.22-.18,18.44-1.71,27.56-.4,2.36-.95,4.68-1.29,7.05-.3,2.05-.51,4.13-.96,6.16l.8-.57c-4.9.82-9.7,1.31-14.66,1.38-4.23.05-8.48-.1-12.69-.56-4.46-.49-9.03-1.28-13.16-3.12-.54-.24-1.08-.51-1.6-.8-.18-.1-.36-.21-.54-.31-.06-.04-.86-.61-.65-.2-.2-.41,0-1.42,0-1.85v-4.76l-1.16.53c4.79,1.78,9.81,3.09,14.83,4.02,7.59,1.4,15.38,1.28,23.05.84,1.95-.11,3.89-.24,5.83-.44.79-.08,1.13-1.11.14-1.01-4.82.48-9.69.7-14.53.71-7.88.02-15.48-1.09-23.04-3.3-1.83-.53-3.65-1.1-5.44-1.76-.33-.12-1.16.06-1.16.53v4.29c0,.69-.09,1.46,0,2.15.09.65.64.86,1.2,1.19,3.83,2.25,8.33,3.25,12.68,3.91,7.17,1.09,14.49,1.15,21.71.75,2.77-.16,6.07-.68,9.03-1.17.33-.06.72-.2.8-.57.39-1.8.6-3.64.86-5.46.3-2.12.75-4.2,1.14-6.31.94-5.11,1.46-10.3,1.72-15.49.22-4.39.24-8.78.25-13.17s.21-9.21-1.03-13.67-4.15-8.81-8.48-11.05c-.53-.27-1.81.45-1.12.81h0Z"/>
    <path class="cls-15" d="M203.94,183.76c-.02,12.88-1.44,25.73-1.82,38.59-.07,2.3-.15,4.54-.4,6.83-.03.25.24.35.45.36,4.51.16,9.71-.14,13.78-2.25.22-.12.44-.25.43-.52-.06-1.87-.13-3.74-.19-5.61-.01-.39-.86-.21-1.02-.14-3.24,1.54-7.08,2.94-10.7,2.71-.59-.04-1.53.82-.55.88,4.01.25,8.26-1.23,11.84-2.93l-1.02-.14c.06,1.87.13,3.74.19,5.61l.43-.52c-3.72,1.93-8.51,2.17-12.64,2.03l.45.36c.53-4.97.49-9.99.75-14.99.37-7.01.83-14.02,1.17-21.03.15-3.13.29-6.26.29-9.39,0-.64-1.45-.35-1.45.16h0Z"/>
    <path class="cls-2" d="M160.07,51.77c.62,2.89-2.93,7.78-4.86,10.15-1.19,1.46-2.55,2.86-4.29,3.78-2.41,1.28-5.29,1.55-8.04,2-2.75.46-5.65,1.25-7.4,3.21-2.09,2.34-2.01,5.73-3.76,8.28-2.24,3.28-6.85,4.42-11.03,5.28-2.37.49-4.75.99-7.12,1.48-.5-1.61-.13-3.33.24-4.97.92-4.06,1.89-8.17,4.02-11.84,2.1-3.63-.37-9.35,2.92-12.19,4.54-3.92,15.19-4.93,21.14-6.78,5.12-1.59,10.63-9.39,16.05-9.53,2.62-.07,10.96,7.51,13.47,8.2,4.43,1.21,2.01,4.55,4.88,7.82,2.69,3.07,9.11,5.43,10.92,8.98s-.72,4.99-1.39,8.85c-5.41-2.27-10.89-6.32-13.37-11.2-.69-1.35-2.86-3.05-3.88-4.21-1.83-2.08-5.04-3.49-7.38-5.1-2.38-1.64-1.53.07-2.1-2.58"/>
    <path class="cls-10" d="M155.3,94.45s-6.98,3.44-12.79,1.22c-2.09-.79-3.13-1.96-2.42-3.8,1.41-3.66,6.58-4.04,9.57-3.3,3.25.81,5.71,2.43,5.64,5.87Z"/>
    <g>
      <path class="cls-16" d="M152.51,91.08c.78,2.25-.78,3.82-3.5,4.44-2.72.62-5.56.05-6.33-2.21-.78-2.25.19-4.36,2.91-4.97,2.72-.62,6.15.49,6.93,2.74Z"/>
      <path class="cls-9" d="M150.12,91.4c.43,1.25-.44,2.54-1.95,2.88-1.51.34-3.08-.4-3.51-1.65-.43-1.25.44-2.54,1.95-2.88,1.51-.34,3.08.4,3.51,1.65Z"/>
    </g>
    <path class="cls-3" d="M155.06,92.38s-3.62-3.78-9.78-2.87c-6.16.91-5.35,3.92-5.35,3.92,0,0-1.28-3.58,3.1-5.18,3.15-1.15,9.51-1.8,12.04,4.13Z"/>
    <path class="cls-8" d="M169.88,89.76c-.71,3.99.57,8.29,1.77,12.07.49,1.55,1.04,3.09,1.59,4.62.12.34.35.77.38,1.14.06.81-.98,1.33-1.69,1.53-2.11.57-5.05.82-7.1-.07-.29-.13-1.35.32-.94.5,2.02.88,4.75.67,6.87.31,1.24-.21,4.02-.75,4.04-2.46,0-.33-.21-.72-.32-1.02-.26-.73-.53-1.46-.78-2.19-.76-2.17-1.47-4.37-2-6.61-.62-2.57-1.14-5.35-.67-7.99.06-.35-1.09-.16-1.15.18h0Z"/>
    <path class="cls-8" d="M160.63,105.6c-.76.12-1.55.51-1.94,1.21-.34.61-.4,1.55,0,2.14.43.63,1.26.81,1.96.9.92.11,1.84.15,2.75-.05.17-.04.56-.2.5-.44s-.51-.16-.65-.13c-.59.13-1.22.07-1.81,0-.56-.06-1.16-.15-1.56-.59s-.36-1.17-.18-1.68c.07-.2.2-.39.36-.53.08-.07.15-.12.25-.17-.09.05.16-.07.08-.03-.04.01-.02,0,.04-.01-.06,0-.05,0,.03,0,.21-.03.61-.14.66-.39s-.35-.26-.5-.24h0Z"/>
    <ellipse class="cls-10" cx="146.24" cy="91.1" rx=".6" ry=".56" transform="translate(-3.39 5.68) rotate(-2.2)"/>
    <path class="cls-10" d="M185.07,94.77s-5.35,3.18-11.16.97c-2.09-.79-3.13-1.96-2.42-3.8,1.41-3.66,6.58-4.04,9.57-3.3,3.25.81,4.08,2.68,4.01,6.12Z"/>
    <g>
      <path class="cls-16" d="M183.92,91.14c.78,2.25-.78,3.82-3.5,4.44-2.72.62-5.56.05-6.33-2.21-.78-2.25.19-4.36,2.91-4.97,2.72-.62,6.15.49,6.93,2.74Z"/>
      <path class="cls-9" d="M181.52,91.46c.43,1.25-.44,2.54-1.95,2.88-1.51.34-3.08-.4-3.51-1.65-.43-1.25.44-2.54,1.95-2.88,1.51-.34,3.08.4,3.51,1.65Z"/>
    </g>
    <path class="cls-3" d="M185.07,92.42s-2.23-3.76-8.4-2.85c-6.16.91-5.35,3.92-5.35,3.92,0,0-1.28-3.58,3.1-5.18,3.15-1.15,10.86-1.59,10.65,4.11Z"/>
    <ellipse class="cls-10" cx="177.64" cy="91.16" rx=".6" ry=".56" transform="translate(-3.37 6.88) rotate(-2.2)"/>
    <path class="cls-2" d="M102.37,141.6c-1.4,1.47-2.86,3.04-3.28,5.03-.47,2.23.49,4.51,1.66,6.47,1.17,1.96,2.6,3.82,3.22,6.01.62,2.19.18,4.91-1.74,6.14,1.36-.61,2.95-.34,4.38-.76,2.97-.89,4.23-4.33,5.06-7.32.43-1.55.87-3.16.58-4.74-.17-.93-.58-1.79-.83-2.7-1.22-4.43,1.48-8.94,4.35-12.53"/>
  </g>
</svg>