<?xml version="1.0" encoding="UTF-8"?>
<svg xmlns="http://www.w3.org/2000/svg" xmlns:xlink="http://www.w3.org/1999/xlink" viewBox="0 0 1334 1000">
  <defs>
    <style>
      .cls-1 {
        fill: none;
      }

      .cls-2 {
        fill: #040404;
      }

      .cls-3 {
        fill: #0f1f28;
      }

      .cls-4 {
        fill: #2a4e73;
      }

      .cls-5, .cls-6 {
        fill: #010101;
      }

      .cls-7 {
        fill: url(#linear-gradient-2);
      }

      .cls-8 {
        fill: #653c29;
      }

      .cls-9 {
        fill: #f1eef7;
      }

      .cls-10 {
        fill: #113a54;
      }

      .cls-11 {
        fill: #745245;
      }

      .cls-12 {
        fill: #a66f53;
      }

      .cls-13 {
        fill: #f0e9d1;
      }

      .cls-14 {
        fill: #f0ecf6;
      }

      .cls-15 {
        fill: #5a3122;
      }

      .cls-16 {
        fill: #a66e53;
      }

      .cls-17 {
        fill: #0a2f44;
      }

      .cls-18 {
        fill: url(#linear-gradient);
        opacity: .5;
      }

      .cls-19 {
        fill: #0d1335;
      }

      .cls-20, .cls-21 {
        fill: #fff;
      }

      .cls-6 {
        stroke: #010101;
        stroke-width: .13px;
      }

      .cls-6, .cls-21 {
        stroke-miterlimit: 10;
      }

      .cls-22 {
        fill: #646464;
      }

      .cls-23 {
        fill: #513835;
      }

      .cls-21 {
        stroke: #241f20;
      }

      .cls-24 {
        fill: #4f2f26;
      }

      .cls-25 {
        fill: #552d23;
      }

      .cls-26 {
        fill: #24180f;
      }

      .cls-27 {
        fill: #3a221a;
      }

      .cls-28 {
        fill: #825639;
      }

      .cls-29 {
        fill: #848280;
      }

      .cls-30 {
        fill: #4163ae;
      }

      .cls-31 {
        fill: #4d4d4d;
      }
    </style>
    <linearGradient id="linear-gradient" x1="-1675.65" y1="4066.7" x2="-835.14" y2="4066.7" gradientTransform="translate(-3378.11 1657.07) rotate(90) scale(1 -1)" gradientUnits="userSpaceOnUse">
      <stop offset="0" stop-color="#eeeadf"/>
      <stop offset=".18" stop-color="#ece7dc" stop-opacity=".99"/>
      <stop offset=".33" stop-color="#e6e0d3" stop-opacity=".97"/>
      <stop offset=".47" stop-color="#dcd3c4" stop-opacity=".93"/>
      <stop offset=".6" stop-color="#cec1af" stop-opacity=".88"/>
      <stop offset=".72" stop-color="#bcaa94" stop-opacity=".82"/>
      <stop offset=".84" stop-color="#a68d72" stop-opacity=".73"/>
      <stop offset=".96" stop-color="#8d6c4c" stop-opacity=".64"/>
      <stop offset="1" stop-color="#83603d" stop-opacity=".6"/>
    </linearGradient>
    <linearGradient id="linear-gradient-2" x1="224.89" y1="-573.46" x2="257.22" y2="-746.23" gradientTransform="translate(203.44 718.87) rotate(6.68)" gradientUnits="userSpaceOnUse">
      <stop offset=".03" stop-color="#231f20"/>
      <stop offset=".18" stop-color="#230000"/>
      <stop offset="1" stop-color="#a66f54"/>
    </linearGradient>
  </defs>
  <g id="Layer_3" data-name="Layer 3">
    <polyline class="cls-13" points="1383.04 1001.98 1383.04 -38.73 -48.16 -38.73 -48.16 1001.98"/>
    <polyline class="cls-18" points="1383.04 819.16 -5.85 819.16 -5.85 -21.35 1383.04 -21.35"/>
  </g>
  <g id="Layer_1" data-name="Layer 1">
    <path class="cls-4" d="M1347.86,815.54l-1.33-.51-2.36-93.74c-3.49-70.75-22.62-122.08-63.32-126.07-27.7,0-121.42-1.28-130.75,5.89-2.59-122.89,10.77-220.94-189.98-220.94l-221.29.53c-2.36,54.25-8.8,108.31-16.79,162.01-10.02,67.36,9.6,134.31-.66,201.62-5.16,33.83,39.38,67.91,35.02,101.85-4.45,34.58-32.5,69.15-36.88,103.74-6.65,52.6,10.52,105.28,5.04,158.04h631.73v-109.64c15.73-5.15,26.66-22.15,26.75-41.59v-78.2c-.05-29.97-12.74-49.52-35.18-63.02Z"/>
    <path class="cls-4" d="M726.21,1106.86c.62-15.4,1.21-30.8,1.68-46.21,1.09-35.45,63.84-70.88,63.84-106.34l-8.22-573.9-476.17-1.34c-103.1.02-120.26,98.04-122.85,220.94-9.33-7.17-103.05-5.89-130.75-5.89-40.7,3.99-59.83,55.32-63.31,126.07l-2.36,93.74-1.33.51c-22.44,13.49-35.14,33.05-35.18,63.02v78.2c.08,19.45,11.02,36.45,26.75,41.59v109.64h747.92Z"/>
    <path class="cls-16" d="M602.77,338.96c-23.94.66-47.86,1.62-71.8,2.38l-12.05,30.66s68.23,166.76,88.18,193.57c6.03,8.1,15.94,16.22,23.16,19.02-3.29-16.44,5.82-30.34,8.85-45.54,3.48-17.52,28.58-9.26,43.95-19.32-10.24-27.59-54.6-130.69-80.29-180.78Z"/>
    <path class="cls-16" d="M824.79,446.67c-27.59,5.75-158.09,54.93-158.09,54.93,0,0-29.03,12.29-29.73,10.39-14.12,9.49-7.06,11.93-10.59,26.65-3.38,14.09-1.01,30.41,2.62,45.3,12.48,5.89,29.99,4.87,29.99,4.87,66.95-8.46,158.64-89.94,195.09-121.49l-29.29-20.65Z"/>
    <path class="cls-16" d="M594.36,755.48l13.98,46.41-6.06,23.14-9.93,21.87-30.55,29.88s-5.75-.67-1.16-10.22c4.57-8.42,9.83-16.6,15.72-24.45l1.34-24.63-6.96-10.21-6.83,1.8s4.53,30.38.35,36.94c-.72,1.14-1.34,2.08-1.87,2.87-1.47,2.2-4.5,2.64-6.56.98l-3.04-2.45-5.16-45.32s1.13-20.24,2.07-25.07c1.48-4.82,4.13-11.84,6.45-16.47l.09-6.36,35.98-4.69,2.15,5.99Z"/>
    <path class="cls-20" d="M588.76,302.93s31.83,10.27,44.19,50.07c20.05,64.59,44.75,121.28,44.75,121.28h0c-15.34,13.79-33.92,24.54-54.07,29-12.62,2.79-25.14,3.24-32.93,1.64l-7.29,4.14"/>
    <path class="cls-20" d="M441.52,250.38l-3.06,1.49c-20.62,6.04-70.51,26.68-86.1,41.49-23.41,22.11,31.03,104.53,31.23,125.46.15,10.16-.59,85.34-16.81,141.9-10.71,37.63-19.13,75.86-25.23,114.49l61.26,16.02c29.93,7.83,60.82,11.41,91.72,10.65l75.3-2.78c3.27-39.97,12.58-72.31,18.17-126.57l36.12-169.28-22.61-77.72s-11.42-18.56-12.74-22.59l-50.13-30.59s12.49,43.69-18.98,44.18c-32.49.5-47.96-8.71-69.65-30.25,0,0-7.38-24.48-8.48-35.88Z"/>
    <path class="cls-16" d="M447.31,182.77s3.19,50.35-8.87,78.09c-1.93,4.45-26.25,14.18-26.25,14.18l5.94,7.9c5.13,6.82,96.35,79.14,103.95,83.02,37.84,19.31,12.15-38.24,32.06-60.84l-8.56-17.01-6.86-14.61c-.75-5.67,9.3-46.15,9.3-46.15"/>
    <path class="cls-28" d="M442.96,202.71c0,.1,0,.2,0,.3-.03-.13-.04-.24,0-.3Z"/>
    <path class="cls-16" d="M507.6,268.97l33.76,1.99,17.18-2.19c1.7.2,10.79-16.34,12.16-18.41,4.27-6.44,8.92-16.1,11.86-23.26,3.14-7.67,9.7-12.82,11.82-22.22,1.55-6.88,2.05-11.76-.59-23.47-.67-2.98-.42-5.86.59-8.88,2.15-6.38,3.43-13.96,6.11-22.53.21-.67,1.34-3.92,1.14-4.69,0,0,3.72-30.88-2.65-50.29-4.58-13.95-12.16-20.33-21.52-23.74-9.36-3.4-37.84-4.44-37.84-4.44l-38.58-9.41-34.86,13.22-20.82,38.75-2.13,47.12.93,42.37"/>
    <path class="cls-27" d="M525.76,259.87c-.29.15-17.78-3.85-18.12-3.91l-8.71-5.22s-.04-.04-.05-.05c-.86.24-1.84.2-2.91-.29-5.53-2.53-10.21-6.21-14.65-10.32-3.99-3.69-7.98-14.11-12.69-16.9-2.23-1.32-1.34-1.95-3.17-3.64.13.54-.29,3.64-.15,4.17,7.82,12.44,22.98,38.55,35.07,46.1.9.33,3.71,1.43,11.37,2.85,10.05,1.85,16.76,2.81,26.8,2.45.89-7.13,2.39-15.37,3.17-22.51-3.63-.42-5.11,1.8-15.95,7.27Z"/>
    <path class="cls-5" d="M522.06,157.7c-2.02-1.36-4.64-.69-6.19.39-.37.25-1.35.99-1.93,2.35-.74,1.74-.26,3.87.73,5.25,1.32,1.84,3.81,2.41,5.85,1.73,2.77-.92,3.99-3.98,3.6-6.36-.07-.43-.43-2.27-2.06-3.37"/>
    <path class="cls-5" d="M581.75,165.04c2.28-.86,4.68.39,5.94,1.8.3.33,1.09,1.27,1.34,2.73.32,1.87-.64,3.83-1.91,4.94-1.71,1.49-4.26,1.48-6.09.35-2.48-1.53-2.97-4.79-2.05-7.01.17-.41.94-2.11,2.78-2.81"/>
    <path class="cls-5" d="M566.98,171.58s8.7-7.76,14.4-7.69c8.32.1,10.18,2.43,12.6,7,0,0-4.87-5.05-10.73-4.94-5.61.1-16.27,5.63-16.27,5.63Z"/>
    <path class="cls-5" d="M539.46,166.12s-12-9.67-18.34-10.57c-9.25-1.31-20.93,2.88-24.43,6.97,0,0,15.5-6.36,21.99-5.26,6.2,1.05,20.78,8.86,20.78,8.86Z"/>
    <path class="cls-5" d="M539.93,130.45c1.28.42.96,1.4,1.24,3.62.09.71.25,1.79.42,2.93.31,2.13-1.56,3.95-3.67,3.55-3.79-.72-7.19-1.56-9.75-1.67-6.95-.32-14.12-1.12-20.85.85-3.22.94-6,2.17-8.52,4.22-.8.65-2.83,3.28-4.2,2.85-.56-.18-.05-3,0-3.29,1.07-5.7,5.4-8.57,10.9-10.62,11.21-4.16,22.48-2.39,34.42-2.44"/>
    <path class="cls-5" d="M602.96,147.55s-2.83-2.16-2.86-2.18c-6.11-4.7-12.91-7.79-20.13-10-3.66-1.12-7.57.82-9,4.36,0,.02-.02.04-.03.06-.28.7-1.54,2.68-1.34,3.43.04.15.14.27.24.38,1.12,1.19,2.68,1.89,4.28,2.24,1.98.43,4.01.25,5.99.6,5.7,1,11.73,1.98,16.64,5.13.39.25,2.46,1.64,2.83,1.9,2.84-2.16,3.93-5.18,3.37-5.93Z"/>
    <g>
      <path class="cls-5" d="M553.74,206.78c-2.88,1.14-6.98.32-9.51-1.73-.56-.45-2.62-.32-1.84.32,3.35,2.7,9.26,3.6,12.97,2.13.37-.15.34-.43-.08-.62-.43-.21-1.16-.26-1.55-.1"/>
      <path class="cls-5" d="M541.31,204.44c-1.72-1.09-3.71-1.79-5.73-2.19-.3-.06-.7.01-.94.19-.19.14-.25.34-.04.5.88.66,2.05,1.03,3.15,1.14.35.03.82,0,1.05-.28.21-.26-.1-.48-.37-.51-.91-.09-1.82-.38-2.54-.92-.33.23-.65.46-.98.69,1.81.35,3.58,1,5.12,1.98.31.19.78.15,1.09,0,.23-.11.5-.39.19-.58"/>
      <path class="cls-5" d="M533.18,203.77c-2.38-.34-5.06-1.72-6.02-3.7-1.45-2.98.7-7.09,3.88-8.52.35-.16.2-.43-.12-.53-.42-.14-.94-.04-1.3.12-2.78,1.25-4.86,4.56-4.78,7.21.09,2.47,2.17,4.44,4.95,5.47.83.31,1.71.55,2.6.68.36.05,1.02.01,1.23-.25.21-.27-.1-.44-.44-.49"/>
      <path class="cls-5" d="M558.26,206.04c-.1-.3.16-.45.35-.43.64.09,1.32-.02,1.92-.41.18.29.36.58.54.86-1.31,0-2.65.28-3.9.93-.25.13-.57,0-.75-.21-.14-.15-.27-.48-.02-.61"/>
      <path class="cls-5" d="M556.41,206.19c1.39-.73,2.89-1.03,4.36-1.02.21,0,.47.15.61.37.1.17.1.39-.07.5"/>
      <path class="cls-5" d="M563.18,206.95c1.56.12,3.51-.73,4.48-2.48,1.47-2.64.78-6.06-.95-8.06-.19-.22-.05-.45.17-.5.29-.06.6.14.8.37,1.51,1.74,2.31,4.38,1.76,6.95-.52,2.4-2.2,3.93-4.14,4.42-.58.14-1.18.22-1.76.18-.24-.02-.65-.18-.73-.48-.08-.31.15-.41.37-.39"/>
    </g>
    <path class="cls-16" d="M598.86,95.54c.74,1.5,1.07,4.34,1.42,5.74.13.22.05.5.17.72-1.24-5.09-2.05-10.17-5.97-16.32-13.78-21.63-32.4-29.84-56.51-35.63-2.55-.61-5.19-1.14-7.85-1.57-27.95-4.53-57.37,2.11-74.95,16.92-8.61,7.26-14.06,13.2-18.95,23.55-4.44,9.4-9,22-8.9,32.1.06,5.99.17,25.49,3.03,30.88,1.83,3.45,6.04,8.98,10.54,21.63l18.51,2.05c-.09-3.49,1.68-17.57,1.38-21.12-2.15-25.53,8.27-50.63,8.27-50.63.56-5.4,11.42-32.62,16.47-38.71,4.55-5.49,13.39-6.68,26.69-3.49,5.72,1.38,22.48,9,25.43,11.45.99.31,4.62,1.45,9.23,2.56,6.19,1.49,14.81,3.09,20.87,2.31.81-.23,6.71-3.89,11.88-2.64,5.93,1.43,12.52,6.51,19.24,20.22Z"/>
    <path class="cls-16" d="M556.16,256.83c-.23-.05-.44-.16-.61-.3-3.34-2.72-3.48-4.08-5.2-4.67-.4-.13-.59-.3-1.82-.6-4.97-1.2-7.99-2.03-22.36,5.21-.29.15-17.78-3.85-18.12-3.91l-8.72-5.22c-1.44-1.1-32.85-33.32-32.85-33.32-.42-1.01-5.94-8.48-6.1-9.43-.1-.06-.2-.14-.31-.19-.04-.02-.12-.07-.21-.11-.02.06-.05.14-.07.18-.1.39-.13.8-.15,1.2-.09,1.73,1.63-9.41,1.99-7.71.54,2.62.76,6.05,1.2,8.67.16.93,1.76,13.78,1.99,14.69,3.66,2.81,24.39,37.34,37.86,45.75.9.33,1.8.78,9.46,2.19,14.39,2.65,28.4,4.02,43.08,1.28,3.83-.71,7.1-3.08,8.93-6.38,5.24-9.44,16.83-30.45,20.6-44.95-4.79,8.15-14.94,25.61-21.91,37.5-.21.36-5.75.12-6.22.21"/>
    <path class="cls-7" d="M598.77,96.77c.06.11.21.59.42,1.4,1.22,2.13.96,3.71,1.98,5.93-1.26-5.85-2.35-11.62-6.67-18.42-13.78-21.63-32.4-29.84-56.51-35.63-2.55-.61-5.19-1.14-7.85-1.57-27.95-4.53-57.37,2.11-74.95,16.92-8.61,7.26-14.06,13.2-18.95,23.55-4.44,9.4-9,22-8.9,32.1.06,5.99.17,25.49,3.03,30.88,1.83,3.45,6.04,8.98,10.54,21.63l18.51,2.05c-.09-3.49,1.68-17.57,1.38-21.12-2.15-25.53,8.27-50.63,8.27-50.63.56-5.4,10.59-31.72,15.64-37.81,4.55-5.49,14.22-7.59,27.52-4.39,5.72,1.38,22.48,9,25.43,11.45.99.31,4.62,1.45,9.23,2.56,6.19,1.49,14.81,3.09,20.87,2.31.81-.23,6.71-3.89,11.88-2.64,5.93,1.43,12.92,10.48,19.14,21.45Z"/>
    <path class="cls-16" d="M447.85,204.03c-11.92,13.97-17.13-12.16-17.13-12.16-9.17-13.86-7.68-27.38-6.28-36.59,1.4-9.21,11.56-7.95,11.56-7.95,8.54,1.89,11.89,6.95,15.91,36.9"/>
    <path class="cls-19" d="M-.05,816.14c.78,0,1.56,0,2.34,0h6.88c3.72-.02,7.45-.03,11.17-.03,5.08,0,10.16-.02,15.24-.03,6.32-.01,12.65-.02,18.97-.03,7.55-.01,15.1-.03,22.66-.04,8.68-.02,17.35-.03,26.03-.05,9.72-.02,19.44-.03,29.16-.05,10.69-.02,21.38-.04,32.07-.06,11.52-.02,23.03-.04,34.55-.06,12.39-.02,24.77-.04,37.16-.07,13.12-.02,26.24-.05,39.37-.07,13.78-.02,27.56-.05,41.34-.07,14.36-.03,28.72-.05,43.08-.08,14.78-.03,29.57-.05,44.35-.08,15.29-.03,30.57-.05,45.86-.08,15.63-.03,31.27-.06,46.9-.08,15.9-.03,31.81-.06,47.71-.08,16.09-.03,32.19-.06,48.28-.09,16.13-.03,32.25-.06,48.38-.09,16.25-.03,32.49-.06,48.74-.09,16.21-.03,32.41-.06,48.62-.09,16.09-.03,32.18-.06,48.27-.09,15.89-.03,31.79-.06,47.68-.08,15.54-.03,31.08-.05,46.62-.08,15.27-.03,30.54-.05,45.81-.08s29.69-.05,44.53-.08c14.34-.03,28.68-.05,43.01-.08,13.75-.02,27.51-.05,41.26-.07,13.06-.02,26.12-.05,39.18-.07,12.33-.02,24.65-.04,36.98-.07,11.54-.02,23.09-.04,34.63-.06,10.65-.02,21.3-.04,31.95-.06,9.68-.02,19.36-.03,29.04-.05,8.61-.02,17.22-.03,25.83-.05,7.49-.01,14.98-.03,22.47-.04,6.31-.01,12.61-.02,18.92-.03,5.03,0,10.05-.02,15.08-.03l11-.02c2.23,0,4.46,0,6.68-.01.72,0,1.45,0,2.17,0,.77,0,1.86-.22,2.24-.99.35-.7-.3-1.23-.99-1.22-.78,0-1.56,0-2.34,0-2.29,0-4.58,0-6.88.01-3.72,0-7.45.01-11.17.02-5.08,0-10.16.02-15.24.03-6.32.01-12.65.02-18.97.03l-22.66.04c-8.68.02-17.35.03-26.03.05-9.72.02-19.44.03-29.16.05-10.69.02-21.38.04-32.07.06-11.52.02-23.03.04-34.55.06-12.39.02-24.77.04-37.16.07-13.12.02-26.24.05-39.37.07-13.78.02-27.56.05-41.34.07-14.36.03-28.72.05-43.08.08-14.78.03-29.57.05-44.35.08-15.29.03-30.57.05-45.86.08-15.63.03-31.27.06-46.9.08-15.9.03-31.81.06-47.71.08-16.09.03-32.19.06-48.28.09-16.13.03-32.25.06-48.38.09-16.25.03-32.49.06-48.74.09-16.21.03-32.41.06-48.62.09-16.09.03-32.18.06-48.27.09s-31.79.06-47.68.08c-15.54.03-31.08.05-46.62.08l-45.81.08c-14.84.03-29.69.05-44.53.08-14.34.03-28.68.05-43.01.08-13.75.02-27.51.05-41.26.07-13.06.02-26.12.05-39.18.07-12.33.02-24.65.04-36.98.07-11.54.02-23.09.04-34.63.06-10.65.02-21.3.04-31.95.06-9.68.02-19.36.03-29.04.05-8.61.02-17.22.03-25.83.05-7.49.01-14.98.03-22.47.04-6.31.01-12.61.02-18.92.03-5.03,0-10.05.02-15.08.03-3.67,0-7.34.01-11,.02-2.23,0-4.46,0-6.68.01-.72,0-1.45,0-2.17,0-.77,0-1.86.22-2.24.99-.35.7.3,1.23.99,1.22H-.05Z"/>
    <path class="cls-19" d="M1233.09,598.82c-12.7-.48-26.07.82-37.9,5.7-5.31,2.19-10.55,5.34-14.14,9.92-2.14,2.72-3.61,5.9-4.89,9.1-1.51,3.79-2.67,7.71-3.54,11.7-2.4,11.04-2.78,22.46-3.08,33.72-.1,3.73-.2,7.45-.3,11.18-.19,7.01-.38,14.02-.57,21.03-.24,8.95-.48,17.91-.72,26.86-.26,9.52-.51,19.03-.77,28.55-.24,8.83-.48,17.65-.71,26.48-.18,6.75-.36,13.51-.55,20.26-.09,3.34-.21,6.69-.27,10.03,0,.15,0,.29-.01.44-.04,1.64,3.41,1.05,3.45-.33.06-2.26.12-4.52.18-6.77l.48-17.74c.22-8.28.45-16.57.67-24.85.25-9.36.5-18.72.76-28.09l.74-27.46c.21-7.66.41-15.31.62-22.97.13-4.87.26-9.74.39-14.61.17-6.45.37-12.89.86-19.32.62-8.16,1.74-16.35,4.28-24.16,2.01-6.19,4.73-12.3,10-16.37,4.72-3.64,10.42-5.82,16.14-7.31,6.2-1.61,12.59-2.41,18.98-2.7,2.89-.13,5.78-.14,8.67-.03.78.03,1.87-.23,2.24-1,.35-.72-.31-1.24-1-1.27h0Z"/>
    <path class="cls-19" d="M105.4,598.23c6.22-.24,12.47.09,18.64.97,6.26.89,12.58,2.39,18.34,5.04,5.11,2.35,9.94,5.69,12.94,10.54,4.2,6.77,6.25,15.1,7.53,22.88,1.63,9.86,1.96,19.91,2.23,29.89.11,4.06.22,8.13.32,12.19.19,7.2.38,14.39.57,21.59.24,9.03.48,18.05.72,27.08.25,9.55.51,19.1.76,28.65.23,8.77.47,17.54.7,26.32l.53,20.07c.09,3.3.17,6.61.26,9.91,0,.14,0,.29.01.43.04,1.66,3.49,1.04,3.45-.33-.06-2.34-.12-4.69-.19-7.03-.16-6.09-.32-12.18-.49-18.28-.23-8.5-.45-17.01-.68-25.51-.25-9.58-.51-19.15-.76-28.73-.25-9.35-.5-18.7-.75-28.05-.2-7.7-.41-15.4-.61-23.1l-.38-14.27c-.2-7.56-.43-15.13-1.14-22.66-.78-8.36-2.2-16.75-5.22-24.62-1.25-3.24-2.68-6.58-4.76-9.39-1.69-2.28-3.83-4.22-6.14-5.87-5.03-3.58-11.01-5.79-16.96-7.29-6.39-1.6-12.99-2.44-19.57-2.71-3-.12-6-.12-9,0-.67.03-1.83.51-1.91,1.3-.08.85.92.99,1.54.97h0Z"/>
    <path class="cls-19" d="M1146.63,603.82c-9.44,13.42-19.04,27.18-24.03,42.99-4.88,15.47-5.15,31.96-5.68,48.04-.41,12.36-.7,24.73-.97,37.09-.31,13.91-.57,27.82-.83,41.74-.23,12.23-.45,24.46-.7,36.7-.03,1.24-.05,2.48-.08,3.72-.02.83,3.4.28,3.42-.92.25-11.66.46-23.32.67-34.97.26-13.81.52-27.62.81-41.43.27-12.69.56-25.38.95-38.06.47-15.22.55-30.72,3.98-45.63,3.77-16.37,12.58-30.62,22.06-44.26,1.18-1.69,2.36-3.38,3.55-5.06.45-.64-.39-.82-.88-.82-.69,0-1.84.27-2.27.89h0Z"/>
    <path class="cls-19" d="M185.58,601.62c9.46,13.63,19.02,27.57,23.92,43.59,4.79,15.66,5.03,32.3,5.56,48.53.41,12.51.7,25.03.97,37.55.3,14.03.57,28.07.83,42.11.23,12.33.44,24.65.69,36.98.02,1.24.05,2.48.08,3.71.02.93,3.45.31,3.42-.92-.25-11.87-.46-23.75-.67-35.62-.26-14.12-.52-28.24-.82-42.37-.27-12.87-.56-25.74-.95-38.61-.48-15.63-.56-31.57-4.2-46.85-3.89-16.34-12.74-30.66-22.14-44.36-1.16-1.68-2.32-3.36-3.48-5.04-.59-.85-3.91.26-3.19,1.29h0Z"/>
    <path class="cls-20" d="M619.2,376.98l-4.38-44.19s-15.78-20.93-33.32-29.22c-10.44-4.93-35.6-25.62-41.81-28.51,5.59,13.09-.36,28.28-6.9,32.19-9.16,5.48-15.01,5.2-25.61,4.09-10.17-1.07-20.09-4.7-29.17-9.31-16.98-8.62-34.56-34.25-36.17-54.19l-17.59,6.1s-55.85,21.43-65.57,26.52c-8.36,4.38-46.18,218.88-46.18,218.88l-14.99,75.29c-3.2,8.94-50.49,84.56-29.23,161.12,0,0,196.83-34.31,217.05-31.96,23.49,2.74,60.89,7.47,68.3-2.93,7.41-10.4,65.57-323.88,65.57-323.88Z"/>
    <path class="cls-23" d="M772.39,698.68c-.06.03-.12.04-.19.05,0-.16,0-.32,0-.47.06.14.12.28.19.42Z"/>
    <path class="cls-17" d="M630.57,795.48c.87-5.31,2.03-10.58,3.4-15.77,3.09-11.74,7.28-23.17,12.26-34.23,5.11-11.37,11.1-22.37,17.95-32.79,4.66-7.08,9.72-13.92,15.24-20.37-110.2-23.84-417.92-2.41-417.92-2.41,0,0-6.57,18.74,10.43,81.35,21.15,77.88,272.24,48.29,357.43,24.56.41-.11.8-.23,1.2-.35Z"/>
    <path class="cls-30" d="M521.7,944.45s-.06,0-.09-.06c-.12-.21-.09-.16.09.06Z"/>
    <path class="cls-17" d="M654.11,712.34s7.59-43.3-29.94-53.95c-51.12-14.5-362.67,31.53-362.67,31.53l392.61,22.42"/>
    <path class="cls-23" d="M483.5,431.37c.07,0,.14.02.21.05,0,.27.09.56-.17.78-.01-.28-.03-.55-.04-.83Z"/>
    <path class="cls-23" d="M487.16,509.25c-.06.03-.13.05-.2.07,0-.17-.02-.35-.02-.52.08.15.15.3.23.45Z"/>
    <path class="cls-11" d="M546.95,428.68c-.09-.02-.19-.04-.28-.06.1-.04.19-.08.29-.12.03.06.03.12,0,.18Z"/>
    <path class="cls-11" d="M506.21,430.39c.09-.05.19-.11.28-.16.02.05.05.1.07.15-.12,0-.23,0-.35,0Z"/>
    <path class="cls-11" d="M546.08,428.65c-.13,0-.25,0-.38.01.12-.12.25-.13.38-.01Z"/>
    <path class="cls-16" d="M377.08,572.71c8.43-15.96,31.34-1.33,49.61-6.95-2.75-31.95-21-161.04-32.88-208.98-14.17-57.16-34.37-54.15-34.37-54.15l-56.17,77.07s22.61,161.26,40,194.62c4.69,8.99,12.76,17.33,19.23,21.95,1.32-16.72,7.26-9.71,14.58-23.56Z"/>
    <path class="cls-16" d="M525.22,383.75c-22.75,16.68-138.49,137.8-138.49,137.8,0,0-17.64,25.98-19.17,24.45-8.59,14.79-.94,14.26,2.67,29.76,3.45,14.84,9.66,14.64,19.95,27.39,11.37,0,12.11.53,12.11.53,67.27-17.82,124.23-149.23,143.11-194.15l-20.19-25.79Z"/>
    <path class="cls-29" d="M617.03,426.49c-3.32,22.24-7.66,44.31-12.2,66.33-.91,4.4-1.82,8.79-2.71,13.2-.05.23.19.26.37.27,5.45.3,11.06-.41,16.41-1.31,12.87-2.16,25.35-6.64,36.67-13.11,8.45-4.83,16.19-10.81,23.09-17.66.07-.06.11-.13.1-.22-1.9-4.53-3.81-9.06-5.71-13.59-.24-.57-1.79.13-2.07.37-3.74,3.14-7.86,5.9-11.98,8.51-9.56,6.06-19.79,11.15-30.56,14.69-7.26,2.39-14.77,4.01-22.4,4.59-.34.03-1.29.15-1.45.52s.13.41.52.38c13.39-1.03,26.41-5.06,38.54-10.74,8.76-4.1,17.15-9.05,24.96-14.76,1.47-1.08,2.94-2.17,4.34-3.34l-2.07.37c1.82,4.34,3.65,8.68,5.47,13.02.05.11.25.43.23.55-.03.17-1.04.93-1.18,1.07-.53.52-1.07,1.03-1.62,1.53-2.11,1.95-4.29,3.83-6.54,5.61-4.06,3.22-8.37,6.14-12.86,8.74-12.88,7.45-27.45,12.24-42.28,13.58-2.76.25-5.48.45-8.22.3l.37.27c3.96-19.62,8.1-39.2,11.55-58.92,1.2-6.86,2.32-13.72,3.35-20.61.08-.54-2.07-.16-2.15.37h0Z"/>
    <path class="cls-20" d="M385.7,483.24c9.22-1.17,28.1-2.8,38.35-11.32l-9.81-29.13s2.31-84.15-21.88-118.92c-24.2-34.78-33.67-43.41-33.67-43.41,0,0-67.54,28.58-62.46,101.02,1.41,20.03,3.57,69.63,8.58,104.11,16.22,3.02,55.56.87,80.89-2.35Z"/>
    <path class="cls-17" d="M730.53,749.15c-12.56,64.06-40.69,256.88-59.74,334.91,0,0-82.83,16.77-92.5-.78,0,0-106.23-410.97-54.26-425.38,38.31-10.63,156.32-8.46,179.15,4.02,27.4,14.97,37.24,36.79,27.34,87.24Z"/>
    <path class="cls-17" d="M668.29,714.66s-13.71-.42-32.65,2.71c2.42-7.94,2.74-13.65,2.74-13.65-2.08-1.61-4.27-3.26-6.56-4.93-10.48,3.95-20.55,8.76-30.2,14.16-11.23,6.27-21.91,13.34-31.95,21.09-9.67,7.46-18.74,15.61-26.88,24.43-2.31,2.5-4.53,5.06-6.67,7.68.34.04.68.1,1.01.14-30.69,41.01-16.27,120.41-25.27,195.69-6.6,55.21-16.08,131.6-16.08,131.6,11.46,16.58,111.78,8.5,111.78,8.5,21.06-101.53,60.72-387.42,60.72-387.42Z"/>
    <path class="cls-3" d="M522.63,813.5c2.55-14.76,7.57-29.04,14.86-42.13,2.09-3.75,4.36-7.39,6.8-10.92.39-.56-.34-.95-.79-1-.67-.07-1.42.24-1.8.8-8.6,12.46-15.06,26.36-19.05,40.96-1.13,4.14-2.05,8.33-2.78,12.56-.21,1.23,2.58.82,2.77-.27h0Z"/>
    <path class="cls-3" d="M567.29,660.31c17.18-1.57,34.86-1.74,51.78,2.1,10.54,2.39,20.8,6.45,29.42,13.06,6.45,4.95,11.41,11.2,15.58,18.12,3.87,6.42,6.9,13.16,7.56,20.7.6,6.89-.11,13.99-1.07,20.83-1.95,13.94-5.01,27.74-7.94,41.49-2.76,12.96-5.7,25.89-8.15,38.92-4.2,22.29-8.37,44.58-12.45,66.9-3.99,21.82-7.9,43.65-11.68,65.5-3.7,21.45-7.27,42.93-10.64,64.44s-6.46,42.43-9.34,63.69c-.69,5.12-1.37,10.25-2.04,15.38-.17,1.3,2.73.84,2.88-.29,2.77-21.34,5.8-42.65,9.04-63.93,3.3-21.67,6.81-43.3,10.48-64.91,3.73-22.01,7.62-44,11.6-65.97,4.06-22.39,8.21-44.76,12.41-67.13,2.76-14.69,5.71-29.3,8.85-43.91,3.14-14.57,6.34-29.16,8.83-43.86,1.06-6.27,1.86-12.55,2.17-18.91.35-7.23-.24-14.28-3.09-21-2.35-5.54-5.53-10.87-9.1-15.72-2.21-3.01-4.71-5.8-7.45-8.33-7.4-6.81-16.42-11.52-25.96-14.58-14.8-4.76-30.64-5.8-46.09-5.36-5.1.14-10.19.47-15.27.94-.55.05-1.53.4-1.6,1.06s.78.82,1.28.77h0Z"/>
    <path class="cls-29" d="M373.78,308.87c6.2-.56,12.02,2.79,16.66,6.58,4.96,4.05,9.21,9.09,12.59,14.53,5.03,8.11,7.68,17.56,9.68,26.81,2.52,11.67,3.94,23.56,5.04,35.43,1.2,13.04,1.96,26.11,2.67,39.18.68,12.49,1.27,24.99,2.21,37.46.11,1.45.22,2.9.35,4.35l.45-.49c-2.73,1.52-5.55,2.92-8.44,4.11-1.72.71-3.49,1.39-5.34,1.62-.61.08-1.17.21-1.77.36-8.37,2.06-16.9,3.56-25.43,4.76-20.15,2.83-40.49,2.66-60.79,2.12-5.38-.14-10.76-.32-16.14-.58l.39.2c-.83-5.39-1.67-10.78-2.5-16.16l-1.78.78c12.22,1.02,24.53,1.46,36.79,1.49,9.69.02,19.39-.26,29.02-1.38,11.39-1.32,22.69-3.51,33.84-6.16,6-1.42,12.01-2.94,17.91-4.76.21-.07,1.11-.33.98-.69s-.97-.18-1.19-.11c-15.18,4.66-30.93,8.07-46.66,10.22-18.46,2.52-37.25,2.19-55.81,1.26-4.5-.22-9-.48-13.49-.85-.38-.03-1.87.17-1.78.78.83,5.39,1.67,10.78,2.5,16.16.02.14.3.19.39.2,14.28.69,28.61,1,42.91.86,10.4-.1,20.73-.61,31.05-1.92,9.76-1.24,19.49-2.91,29.05-5.19.65-.16,1.3-.35,1.95-.48-.87.18.3.02.51-.01.56-.08,1.11-.2,1.65-.34,1.16-.29,2.29-.69,3.41-1.11,3.45-1.32,6.81-2.96,10.03-4.76.18-.1.47-.25.45-.49-1.04-12.46-1.66-24.94-2.32-37.42-.71-13.34-1.44-26.69-2.58-40.01-1.05-12.22-2.41-24.45-4.83-36.49-1.9-9.43-4.36-19.13-9.15-27.55-3.07-5.4-7.04-10.4-11.61-14.61-4.41-4.05-9.77-7.69-15.82-8.56-1.36-.2-2.75-.22-4.12-.1-.36.03-1.29.14-1.45.54s.13.48.54.45h0Z"/>
    <path class="cls-29" d="M545.99,278.11c2.99,5.77,4.58,12.87,4.13,19.34-.39,5.59-2.58,10.86-6.6,14.82-6.05,5.97-14.9,8.26-23.07,9.33-19.48,2.55-39.53-1.22-55.47-13.05-11.76-8.73-20.6-20.88-26.81-34.05-2.22-4.71-4.12-9.57-5.69-14.53-.52-1.64-1-3.3-1.43-4.97-.22-.86-.32-1.87-.64-2.7-.04-.1-.05-.23-.07-.34l-.68.64c4.2-1.47,8.4-2.93,12.59-4.4l-1.49-.06c.62,4.87,2.13,9.72,3.81,14.3,3.82,10.42,9.64,20.18,17.4,28.15,10.72,11,24.81,17.79,39.86,20.5,4.32.78,8.91,1.49,13.31,1.43.86-.01,1.72-.13,2.57-.25,4.33-.59,8.63-1.88,12.48-3.97,5.05-2.75,9.09-7.06,10.87-12.6,2.18-6.82.68-13.74-.71-20.53-.21-1.03-.42-2.06-.63-3.09-.7.23-1.4.46-2.1.69,2.82,1.83,5.63,3.65,8.45,5.48.57.37,2.49-.5,2.03-.8-2.82-1.83-5.63-3.65-8.45-5.48-.4-.26-2.25-.03-2.1.69,1.22,5.96,2.93,12.06,2.38,18.19-.55,6.13-3.39,11.67-8.39,15.32-3.5,2.56-7.81,4.12-11.94,4.86-.72.13-1.44.24-2.16.32-.66.08-.49.07-1.07.1-3.02.14-6.22-.37-9.21-.77-15.26-2.05-29.79-8.2-41.05-18.83-8.16-7.7-14.33-17.32-18.48-27.72-1.41-3.53-2.59-7.15-3.51-10.83-.3-1.18-.56-2.37-.8-3.57-.12-.61-.13-1.34-.33-1.92-.03-.07-.02-.17-.03-.25-.06-.49-1.31-.12-1.49-.06-4.2,1.47-8.4,2.93-12.59,4.4-.22.08-.75.32-.68.64.36,1.88.88,3.74,1.41,5.57,1.35,4.68,3.02,9.28,4.97,13.75,2.68,6.17,5.89,12.1,9.68,17.66,4.36,6.41,9.52,12.3,15.48,17.27,6.65,5.54,14.28,9.88,22.48,12.65,9.84,3.33,20.3,4.4,30.64,3.83,9.72-.54,20.08-2.19,28.39-7.6,5.15-3.35,9-8.31,10.43-14.33,1.16-4.85.83-9.96-.3-14.78-.69-2.94-1.64-5.9-2.97-8.61-.07-.14-.13-.28-.21-.42-.33-.64-2.42.1-2.17.58Z"/>
    <path class="cls-15" d="M544.91,218.16c-10.83-1.37-28.23-4.85-28.23-4.85,0,0,.51,27.52,25.62,30.69,25.12,3.17,26-23.49,26-23.49,0,0-12.56-.98-23.4-2.35Z"/>
    <path class="cls-5" d="M545.02,218.18c-5.15-.65-25.8-4.14-25.8-4.14,0,0,5.6,18.49,24.23,20.84,20.2,2.55,23.51-14.54,23.51-14.54l-21.93-2.16Z"/>
    <path class="cls-14" d="M545.14,218.98c-5.15-.65-20.71-3.5-20.71-3.5,0,0,4.93,6.35,20.38,8.29,15.45,1.95,21.05-2.9,21.05-2.9l-20.72-1.9Z"/>
    <path class="cls-15" d="M569.27,218.61c-.51-.2-1.36-.21-3.8-.74-4.07-.89-5.17-1.53-8.12-2.14-5.04-1.05-8.54.62-10.75.34-2.21-.28-5.19-2.77-10.33-3-3.01-.14-10.54.05-14.7-.1-2.5-.09-5.27-1.45-5.82-1.38-.76.09-.04,5.85,27.8,9.36,27.84,3.51,26.44-2.05,25.73-2.33Z"/>
    <path class="cls-16" d="M346.35,576.27s14.99,35.85,50.79,29.1c35.8-6.75-24.28-39.86-24.28-39.86l-26.52,10.76Z"/>
    <path class="cls-16" d="M476.35,433.81l39.48-46.1s14.76-56.69,17.28-62.93c1.98-4.88,29.89-33.71,43.21-46.45,2.65-2.53,5.91-3.77,9.28-2.35l.63.53c3.98,5.22-1.82,12.69-5.67,17.77-8.9,11.72-21.67,31.34-21.67,31.34,0,0,2.73.83,4.16.82,12.23-.03,22.51,9.34,22.51,9.34,0,0,1.31,5.35,8.68,10.85,7.37,5.49-3.88,12.73-3.88,12.73,0,0,4.31-.23,6.57,9.28,2.27,9.5-15.31,9.2-15.31,9.2,0,0-5.91,4.97-15.12,22.79-9.21,17.82-26.88,17.36-26.88,17.36l-29.55,44.18-33.71-28.33"/>
  </g>
  <g id="Layer_2" data-name="Layer 2">
    <path class="cls-12" d="M852.19,508.07s.56,37.48,0,39.47c-3.48,12.35-13.45,32.65-24.11,42.91-14.22,13.68-38.35,23.3-46.33,11.21-14.45-21.9,22.69-138.25,22.69-138.25l47.75,44.66Z"/>
    <path class="cls-31" d="M792.52,799.61c-1.8-4.38.09,12.53-2.06,8.36-4.85-9.43-10.48-18.36-16.63-26.79-6.32-8.67-13.23-16.82-20.67-24.28-5.06-5.07-10.38-9.85-15.96-14.18,79.04-44.9,263.41-68.66,263.41-68.66,0,0,72.28,1.12,58,78.22-4.28,23.1-19.84,47.29-46.96,54.26-64.22,16.5-166.86-2.79-216.46-3.93-.33,0-2.34-2.98-2.67-2.99Z"/>
    <path class="cls-12" d="M742.33,837.4c17.23,55.35,97.29,208.75,121.34,275.79,0,0,29.06-12.54,35.09-29.02,0,0,14.55-348.85-29.66-356.38-32.59-5.55-88.71,4.38-106.1,17.69-20.87,15.98-34.25,48.33-20.68,91.92Z"/>
    <path class="cls-12" d="M779.02,801.98s11.2-1.75,27.08-.88c-2.84-6.78-3.72-11.79-3.72-11.79,1.53-1.64,3.15-3.31,4.85-5.01,9.02,2.44,17.81,5.68,26.31,9.48,9.89,4.42,19.42,9.59,28.49,15.43,8.74,5.63,17.06,11.92,24.7,18.89,2.16,1.97,4.26,4.02,6.3,6.11-.11.03.63-.04,1.52-.13,1.67-.17-11.19,1.83-10.14,3.14,27.23,34.09,27.08,105.08,37.75,188.55,6.27,49.06,10.35,72.3,10.35,72.3-7.62,15.8-46.52,5.87-46.52,5.87-28.25-87.61-106.97-301.98-106.97-301.98Z"/>
    <path class="cls-25" d="M890.03,1117.66c-.43-1.12-.86-2.24-1.29-3.36-1.21-3.18-2.42-6.35-3.63-9.53-1.88-4.95-3.76-9.89-5.64-14.84-2.44-6.43-4.88-12.87-7.31-19.31-2.89-7.64-5.77-15.28-8.65-22.93-3.22-8.56-6.44-17.13-9.65-25.7-3.45-9.2-6.88-18.41-10.31-27.62-3.56-9.56-7.1-19.13-10.63-28.7-3.56-9.64-7.1-19.28-10.62-28.93-3.44-9.43-6.87-18.86-10.27-28.31-3.22-8.94-6.42-17.88-9.58-26.84-2.89-8.16-5.75-16.34-8.56-24.52-2.44-7.11-4.85-14.22-7.2-21.36-1.89-5.76-3.75-11.54-5.5-17.35-1.25-4.13-2.46-8.29-3.47-12.49-2.39-9.97-2.98-20.58-1.39-30.71,2.04-13.04,8.12-25.54,18.36-34.08,9.58-7.98,21.88-11.82,34.2-12.47,6.73-.35,13.45-.71,20.18-1.06,8.54-.45,17.08-.9,25.62-1.35,1.49-.08,2.99-.16,4.48-.24,1.12-.06,1.76-1.4.27-1.32-5.53.29-11.06.58-16.6.87-9,.47-17.99.95-26.99,1.42-7.91.42-15.7.87-23.35,3.24-13.42,4.15-24.87,12.87-31.65,25.25-6.77,12.36-8.52,26.65-7.05,40.52.55,5.21,1.6,10.19,2.97,15.23s2.88,9.91,4.44,14.83c2.04,6.46,4.16,12.89,6.32,19.31,2.58,7.67,5.22,15.33,7.88,22.97,3.01,8.64,6.07,17.28,9.14,25.9,3.3,9.25,6.63,18.5,9.98,27.74,3.49,9.61,6.99,19.22,10.52,28.82,3.57,9.73,7.16,19.45,10.76,29.17,3.51,9.48,7.03,18.95,10.56,28.41,3.35,8.98,6.71,17.95,10.07,26.92,3.09,8.22,6.18,16.45,9.28,24.67,2.68,7.12,5.37,14.23,8.06,21.34,2.18,5.76,4.36,11.51,6.55,17.27,1.57,4.13,3.14,8.25,4.71,12.37.83,2.17,1.66,4.34,2.49,6.51.1.27.21.54.31.82.32.83,2.47.2,2.17-.58h0Z"/>
    <path class="cls-31" d="M802.3,813.16c-2.24-3.93-4.66-7.73-7.2-11.4-5.74-8.31-12.13-16.02-18.94-23.19-7-7.37-14.47-14.16-22.34-20.21-5.35-4.12-20.55,1.25-26.29-2.08-1.63-103.33,314.48-105.72,314.48-105.72,0,0,15.07,24.98,19.53,70.74,7.57,77.84-161.63,94.38-226.67,102.99-.31.04-32.26-11.15-32.57-11.11Z"/>
    <path class="cls-31" d="M944.32,810.21s-44.88,5.01-45.49,14.05c-.6,9.04,14.15,70.29,14.15,70.29,0,0-107.55,33.35-148.26,20.76-19.85-6.14-22.03-12.53-22.03-12.53,0,0-15.44-60.29-16.69-83.63-1.26-23.34-6.53-79.26,13.36-95.02,19.89-15.75,143,45.38,143,45.38l61.96,40.69Z"/>
    <path class="cls-21" d="M809.68,444.78c-9.18,38.65-20.56,60.72-20.56,60.72l-1.34,2.59s2.65,6.09,5.48,10.17c2.36,3.4,7.69,9.58,7.69,9.58,6.34,4.03,13.44,6.88,19.86,6.01l10.26,5.4,9.7-142.13s-25.02,22.04-31.1,47.66Z"/>
    <path class="cls-5" d="M897.18,281.1c3.82,1.85,6.21,6.28,5.67,10.49-.55,4.21-3.99,7.88-8.16,8.7,1.97,4.82,3.98,9.91,3.37,15.08-.61,5.17-4.82,10.32-10.02,10.01,1.95,3.93,3.95,8.14,3.42,12.5-.53,4.35-4.79,8.52-8.98,7.24,1.44,3.54,2.9,7.29,2.39,11.08-.52,3.79-3.8,7.49-7.59,7.01,2.15,3.9,3.39,8.87,1.14,12.73-2.24,3.85-9.06,4.56-10.77.44-1.01-2.45.15-5.21,1.3-7.6,1.37-2.87,2.75-5.74,4.12-8.61-4.25-5.25-1.93-14.36,4.32-16.93-4.87-6.44-1.49-17.27,6.18-19.79-5.14-7.74-2.18-19.62,5.99-24.05-5.61-7.14-1.89-19.43,6.75-22.25"/>
    <path class="cls-5" d="M970.82,286.25c4.01,1.38,6.92,5.49,6.88,9.74s-3.02,8.3-7.06,9.61c2.53,4.55,5.13,9.36,5.15,14.57.02,5.21-3.56,10.83-8.76,11.14,2.41,3.67,4.9,7.61,4.89,12,0,4.38-3.74,9.03-8.05,8.26,1.85,3.35,3.75,6.89,3.69,10.72s-2.88,7.89-6.7,7.87c2.6,3.62,4.42,8.4,2.66,12.5-1.77,4.09-8.46,5.61-10.64,1.73-1.3-2.31-.47-5.19.38-7.7,1.02-3.01,2.05-6.03,3.07-9.04-4.85-4.71-3.63-14.03,2.27-17.33-5.6-5.81-3.54-16.97,3.77-20.39-6.03-7.07-4.51-19.22,3.08-24.59-6.42-6.42-4.19-19.06,4.04-22.9"/>
    <path class="cls-12" d="M966.51,308.49s-10.29,26.41-5.63,47.59c.8,3.64,17.83,21.16,17.83,21.16l-22.17,17.33c-16.55,7.57-33.02,18.07-50.61,13.41-9.97-2.64-36.12-4.98-43.75-9.1l6.83-17.13,18.17-18.23c1.54-4.11,2.39-36.22,2.39-36.22"/>
    <path class="cls-5" d="M998.61,280.41c4.14.93,7.48,4.69,7.91,8.92.43,4.22-2.08,8.58-5.95,10.33,3.02,4.24,6.14,8.73,6.73,13.91.59,5.18-2.34,11.15-7.47,12.04,2.8,3.38,5.71,7.02,6.19,11.38.48,4.36-2.71,9.39-7.09,9.1,2.21,3.12,4.49,6.43,4.85,10.24.36,3.81-1.99,8.16-5.79,8.56,2.99,3.31,5.32,7.86,4.02,12.13-1.3,4.26-7.78,6.51-10.38,2.89-1.55-2.16-1.05-5.11-.48-7.7.68-3.11,1.36-6.22,2.05-9.33-5.34-4.14-5.16-13.54.34-17.47-6.21-5.15-5.4-16.47,1.49-20.68-6.77-6.36-6.61-18.61.33-24.78-7.09-5.67-6.28-18.48,1.48-23.21"/>
    <path class="cls-5" d="M1003.84,318.43c4.14.93,7.48,4.69,7.91,8.92.43,4.22-2.08,8.58-5.95,10.33,3.02,4.24,6.14,8.73,6.73,13.91.59,5.18-2.34,11.15-7.47,12.04,2.8,3.38,5.71,7.02,6.19,11.38.48,4.36-2.71,9.39-7.09,9.1,2.21,3.12,4.49,6.43,4.85,10.24.36,3.81-1.99,8.16-5.79,8.56,2.99,3.31,5.32,7.86,4.02,12.13-1.3,4.26-7.78,6.51-10.38,2.89-1.55-2.16-1.05-5.11-.48-7.7.68-3.11,1.36-6.22,2.05-9.33-5.34-4.14-5.16-13.54.34-17.47-6.21-5.15-5.4-16.47,1.49-20.68-6.77-6.36-6.61-18.61.33-24.78-7.09-5.67-6.28-18.48,1.48-23.21"/>
    <path class="cls-5" d="M994.15,280.61c4.01,1.38,6.92,5.49,6.88,9.74-.04,4.24-3.02,8.3-7.06,9.61,2.53,4.55,5.13,9.36,5.15,14.57.02,5.21-3.56,10.83-8.76,11.14,2.41,3.67,4.9,7.61,4.89,12,0,4.38-3.74,9.03-8.05,8.26,1.85,3.35,3.75,6.89,3.69,10.72-.06,3.82-2.88,7.89-6.7,7.87,2.6,3.62,4.42,8.4,2.66,12.5-1.77,4.09-8.46,5.61-10.64,1.73-1.3-2.31-.47-5.19.38-7.7,1.02-3.01,2.05-6.03,3.07-9.04-4.85-4.71-3.63-14.03,2.27-17.33-5.6-5.81-3.54-16.97,3.77-20.39-6.03-7.07-4.51-19.22,3.08-24.59-6.42-6.42-4.19-19.06,4.04-22.9"/>
    <path class="cls-5" d="M984.61,283.01c4.01,1.38,6.92,5.49,6.88,9.74-.04,4.24-3.02,8.3-7.06,9.61,2.53,4.55,5.13,9.36,5.15,14.57.02,5.21-3.56,10.83-8.76,11.14,2.41,3.67,4.9,7.61,4.89,12,0,4.38-3.74,9.03-8.05,8.26,1.85,3.35,3.75,6.89,3.69,10.72-.06,3.82-2.88,7.89-6.7,7.87,2.6,3.62,4.42,8.4,2.66,12.5-1.77,4.09-8.46,5.61-10.64,1.73-1.3-2.31-.47-5.19.38-7.7,1.02-3.01,2.05-6.03,3.07-9.04-4.85-4.71-3.63-14.03,2.27-17.33-5.6-5.81-3.54-16.97,3.77-20.39-6.03-7.07-4.51-19.22,3.08-24.59-6.42-6.42-4.19-19.06,4.04-22.9"/>
    <path class="cls-24" d="M944,333.62s-6.99,28.99-55.92,23.88c0,0,.07-6.4.12-8.23l.27-.68,55.52-14.97Z"/>
    <path class="cls-12" d="M957.14,325.3c-15.19,13.17-36.62,28.02-58.72,28.71-18.73.58-24.04-5.45-26.22-8.47-12.01-16.55-19.15-32.69-22.15-50.66-.81-4.88-.31-9.96.67-15.11,1.47-7.71,4.86-22.44,5.7-29.89,2.15-18.97,12.63-34.28,25.1-48.84,25.98-30.35,71.46-24.61,89.49-13.01,21.08,13.56,28.42,36.55,26.83,59.79-.52,7.58-2.19,14.52-4.9,20.78-3.64,3.12-6.9,6.59-9.76,10.35"/>
    <g>
      <path class="cls-5" d="M883.07,193.51s-6.4,10.81-19.2,32.59c3.35-7.02,6.06-17.87,13.59-27.31,26.29-32.95,90.39-19.85,108.33-7.51,20.97,14.42,26.32,38.59,24.51,63.64-.73,10.17-1.14,16.68-5.22,24.67-.15.09-2.17,1.72-2.17,1.72,0,0-20.83,1.29-29.13,12.76l1.1-10.78s.26-6.68-2.05-31.99c0,0,.05-3.97-4.89-20.5-4.94-16.52-11.57-21.91-11.57-21.91,0,0-32.41-9.66-40.3-10.61-7.89-.95-33.01-4.79-33.01-4.79Z"/>
      <path class="cls-5" d="M882.9,193.5c-.97,1.64-1.94,3.29-2.92,4.94-2.92,4.95-5.84,9.9-8.75,14.85-2.51,4.27-5.02,8.54-7.53,12.81l.34.02c2.3-4.84,3.93-9.96,6.15-14.84,2.49-5.47,5.59-10.67,9.69-15.08,5.97-6.42,13.7-10.91,21.96-13.73,8.57-2.92,17.66-4.16,26.69-4.34,8.9-.18,17.82.66,26.56,2.33,7.4,1.42,14.77,3.4,21.73,6.31,2.63,1.1,5.22,2.33,7.63,3.83,4.26,2.65,8.12,6.08,11.4,9.87,7.09,8.19,11.27,18.4,13.18,28.99,1.01,5.58,1.42,11.25,1.4,16.92-.01,5.96-.42,11.97-1.12,17.89-.32,2.76-.8,5.5-1.57,8.17-.39,1.34-.84,2.65-1.37,3.94-.27.65-.55,1.3-.86,1.94-.23.49-.39,1.07-.82,1.4-.62.48-1.28.96-1.86,1.49-.11.1.19-.03.03,0-.08.01-.16.01-.24.02-.88.07-1.75.17-2.62.29-3.44.47-6.86,1.21-10.17,2.25-4.19,1.31-8.32,3.13-11.81,5.82-1.67,1.29-3.17,2.77-4.42,4.48h.36c.23-2.27.46-4.54.69-6.8.14-1.36.35-2.74.41-4.1.12-2.93-.13-5.9-.29-8.82-.21-3.84-.48-7.67-.78-11.51-.31-3.91-.75-7.82-.99-11.74-.08-1.23-.31-2.45-.54-3.66-.68-3.51-1.59-6.98-2.54-10.43-2.39-8.64-5.06-17.53-10.45-24.84-.59-.79-1.2-1.56-1.87-2.29-.3-.33-.61-.7-.97-.97-.14-.11-.27-.14-.44-.19-.57-.17-1.13-.34-1.7-.5-5.59-1.64-11.19-3.25-16.81-4.81-6.18-1.71-12.38-3.46-18.67-4.73-2.15-.43-4.33-.67-6.51-.96-3.43-.47-6.86-.96-10.29-1.46-6.02-.88-12.03-1.78-18.04-2.69-.34-.05-.68-.1-1.03-.16-.16-.02-.38.19-.14.23,4.52.69,9.03,1.37,13.55,2.04,6.48.96,12.96,1.93,19.46,2.75,2.26.28,4.49.82,6.7,1.35,3.23.77,6.44,1.6,9.64,2.46,6.31,1.69,12.59,3.48,18.86,5.3,1.58.46,3.17.92,4.75,1.39.09.03.2.04.29.09-.1-.05,0,.01.06.06.37.32.7.67,1.03,1.03,1.71,1.87,3.12,4,4.38,6.19,2.38,4.16,4.18,8.64,5.63,13.21,1.47,4.66,2.78,9.39,3.91,14.15.51,2.14,1,4.29,1.28,6.47.22,1.67.31,3.36.45,5.06.42,4.77.8,9.54,1.12,14.31.29,4.32.58,8.65.59,12.98,0,.46-.02.9-.06,1.36-.28,2.72-.55,5.44-.83,8.16l-.21,2.09c-.02.18.3.07.36,0,2.78-3.8,6.84-6.43,11.1-8.31,3.81-1.67,7.86-2.8,11.95-3.56,1.36-.25,2.72-.46,4.09-.62.56-.07,1.23-.03,1.77-.17.37-.1.7-.48.99-.72.34-.27.67-.54,1.01-.8s.46-.44.66-.85c1.24-2.51,2.23-5.15,2.92-7.86,1.48-5.79,1.77-11.88,2.13-17.82.34-5.7.32-11.44-.24-17.13-1.05-10.76-4.06-21.47-10.08-30.55-4.87-7.35-11.62-13.62-19.56-17.5-6.42-3.14-13.36-5.26-20.3-6.88-8.51-1.98-17.23-3.14-25.96-3.4-9.07-.27-18.24.44-27.06,2.67-8.39,2.12-16.49,5.7-23.22,11.21-3.86,3.17-7.17,6.94-9.86,11.14-3.3,5.14-5.61,10.79-7.82,16.46-.88,2.25-1.75,4.5-2.78,6.68-.08.18.28.13.34.02,4.01-6.83,8.03-13.66,12.05-20.48,2.07-3.51,4.14-7.02,6.21-10.53.31-.53.62-1.05.93-1.58.09-.16-.27-.14-.34-.02Z"/>
    </g>
    <path class="cls-5" d="M920.66,268.04c2.35-.55,4.75.63,5.99,1.87.29.29,1.07,1.11,1.28,2.32.27,1.54-.77,3.08-2.1,3.9-1.78,1.1-4.39.92-6.22-.12-2.48-1.42-2.88-4.1-1.87-5.85.19-.32,1.02-1.66,2.92-2.1"/>
    <path class="cls-5" d="M909.3,273.35s9.3-7.78,17.43-6.48c11.44,1.83,13.16,7.55,15.14,10.7,0,0-6.23-7.65-15.11-8.89-8.05-1.12-17.46,4.67-17.46,4.67Z"/>
    <path class="cls-5" d="M869.12,259.49c-2.01-1.25-4.71-.88-6.32-.1-.38.18-1.41.71-2.04,1.79-.81,1.37-.38,3.14.58,4.33,1.29,1.59,3.8,2.23,5.9,1.81,2.85-.56,4.19-2.98,3.87-4.94-.06-.36-.37-1.88-1.99-2.89"/>
    <path class="cls-5" d="M880.03,268.41s-4.5-9.98-11.06-11.01c-9.22-1.46-12.36,3.5-14.87,5.93,0,0,7.17-5.52,14.27-4.22,6.44,1.18,11.66,9.3,11.66,9.3Z"/>
    <path class="cls-5" d="M856.17,242.03c0-.06.32-.61.32-.67,1.34-.58,2.85-.9,4.46-1.07,7.99-.83,11.85.02,23.13,4.98l-.05.28c-.23,1.62-.1.71-.33,2.34-.18,1.24-.35,2.47-.54,3.71-3.39-1.56-5.77-3.06-8-3.84-4.41-1.54-9.36-3.96-14.06-3.84-1.53.04-3.38.17-5,.87.14-1.09-.06-1.67.07-2.76Z"/>
    <path class="cls-5" d="M913.03,248.93c-.34,1.6-.15.71-.49,2.31-.26,1.22-.51,2.45-.76,3.67,4.13-.19,7.18-.71,9.81-.61,5.2.2,11.29-.21,16.2,1.65,2.35.89,5.53,1.77,6.8,4.33.34.69.94,3.45,1.99,3.22.43-.09.21-2.2.19-2.42-.46-4.25-3.54-6.64-7.52-8.48-8.13-3.76-12.5-4.4-26.16-3.96"/>
    <g>
      <path class="cls-5" d="M885.33,297.91c1.95,1.45,5.22,1.71,7.57.72.52-.22,2.06.32,1.33.63-3.1,1.3-7.77.73-10.28-1.15-.25-.19-.17-.39.19-.45.37-.06.93.05,1.2.25"/>
      <path class="cls-5" d="M895.24,298.79c1.53-.45,3.19-.55,4.8-.42.24.02.52.16.67.34.12.14.12.31-.07.38-.8.31-1.77.33-2.63.18-.27-.05-.62-.17-.73-.43-.11-.24.18-.34.39-.3.71.13,1.46.1,2.12-.15.2.24.4.48.6.72-1.44-.12-2.92-.01-4.29.39-.27.08-.63-.06-.83-.23-.15-.13-.3-.39-.03-.47"/>
      <path class="cls-5" d="M901.55,300c1.87.25,4.2-.22,5.34-1.48,1.72-1.91.98-5.69-1.14-7.42-.23-.19-.07-.36.2-.37.35-.02.72.17.96.37,1.84,1.51,2.7,4.69,2.08,6.64-.58,1.82-2.57,2.84-4.89,3.02-.69.05-1.41.05-2.11-.04-.28-.04-.78-.2-.88-.45-.11-.25.17-.3.44-.27"/>
      <path class="cls-5" d="M882.06,296.41c.13-.2-.03-.37-.18-.39-.51-.07-1-.29-1.37-.71-.2.18-.39.35-.59.53.99.27,1.95.76,2.76,1.51.16.15.43.11.61,0,.14-.08.3-.3.14-.45"/>
      <path class="cls-5" d="M883.43,296.91c-.9-.84-1.98-1.37-3.09-1.68-.16-.04-.39.01-.54.15-.11.11-.16.26-.05.38"/>
      <path class="cls-5" d="M878.14,296.05c-1.21-.24-2.51-1.28-2.88-2.79-.57-2.27.67-4.66,2.4-5.78.19-.12.13-.33-.03-.41-.21-.11-.48-.02-.68.1-1.51.97-2.66,2.76-2.78,4.79-.11,1.89.85,3.38,2.22,4.15.41.23.85.41,1.3.5.18.04.53,0,.65-.2.13-.21-.03-.34-.2-.37"/>
    </g>
    <path class="cls-6" d="M883.88,179.29c4.36-1.68,10.99-.12,10.99-.12,0,0,6.21-7.52,14.5-10.81,8.29-3.29,18.75,2.77,18.75,2.77,0,0,3.9-4.98,13.17-5.78,9.27-.81,17.79,8.13,17.79,8.13,0,0,10.64-5.61,20.32,1.19,8.15,5.73,10.5,13.09,10.5,13.09,19.12,2.51,23.21,17.34,22,32.74,2.69,1.47,5.59,3.54,6.96,6.16,7.45,14.27-8.58,53.85-17.15,60.42l-.65-2.34,2.4-31.29c-1.18,2.94-2.01,4.71-2.01,4.71l-10.03,23.66-17.52-71.54s-76.71-16.04-85.7-15.66c-8.99.37-19.35,18.82-19.35,18.82,1.89-7.83,4.62-30.12,15.05-34.14Z"/>
    <path class="cls-12" d="M883.49,199.71c11.88-14.94,26.2-16.06,47.45-15.44,21.25.62,48.6,9.57,58.95,32.58,4.55,10.12,4.15,22.86,2.27,33.96-1.35.73-2.63,1.67-3.75,2.82-3.74,3.82-7.23,7.89-10.98,11.7-3.49,3.55-7.67,6.21-11.07,9.94-.57.62-.99,1.31-1.34,2.04-.94-.41-1.85-.92-2.72-1.55-4-2.9-6.93-7.24-9.6-11.32-2.72-4.16-5.29-8.38-8.46-12.22-3.79-4.59-7.47-9.26-11.35-13.77-7.92-9.23-16.79-17.65-28-22.7-8.79-3.96-18.24-5.31-27.72-6.5,2.05-3.58,4.17-6.85,6.32-9.55Z"/>
    <g>
      <path class="cls-5" d="M960.25,234.53c-.7,1.18-1.41,2.41-1.59,3.77-.18,1.36.31,2.91,1.52,3.56.61.33,1.36.42,1.86.9,1.62,1.59-1.47,4.3-.64,6.41.63,1.61,3.05,1.69,4.01,3.13,1.6,2.41-2.05,6.32.12,8.22,1.24,1.09,3.67.53,4.32,2.04.3.68.03,1.46-.21,2.17-.69,2-1.02,4.6.67,5.87,1.66,1.24,4.71.66,5.4,2.62.34.97-.18,2.07.1,3.06.38,1.3,1.98,1.82,3.32,1.72,1.35-.1,3.82-2.24,5.17-2.12,2.69.23,3.76,4.51,6.43,4.16,1.9-.24,3.39-2.22,3.13-4.11-.26-1.9-2.19-3.39-4.09-3.2-.74.07-1.47.37-2.21.24-2.45-.42-2.2-4.5-4.38-5.69-.54-.3-1.2-.39-1.65-.82-1.03-1-.13-2.92-.96-4.09-.91-1.28-3.19-.76-4.15-2-1.34-1.73,1.42-4.31.45-6.27-.78-1.58-3.39-1.46-4.18-3.04-.88-1.77,1.33-4.05.32-5.76-1.2-2.03-5.7-1.1-5.59-3.45.02-.37.18-.72.2-1.09.06-1.26-1.44-1.89-2.57-2.43-1.93-.92-3.5-2.57-4.32-4.54"/>
      <path class="cls-5" d="M960.13,234.52c-.77,1.31-1.63,2.74-1.64,4.31,0,1.14.44,2.38,1.44,3.02.58.37,1.32.43,1.86.86.51.41.65,1,.56,1.62-.17,1.09-.8,2.06-1.09,3.11-.26.95-.17,1.91.6,2.61.82.75,1.97,1.01,2.84,1.69,2.01,1.58.4,4.34.06,6.31-.15.86-.11,1.79.55,2.44.75.75,1.9.81,2.87,1.06.53.14,1.1.34,1.42.83.51.78.11,1.72-.14,2.51-.37,1.14-.63,2.37-.46,3.58.16,1.14.78,2.07,1.83,2.56s2.13.54,3.17.89c.52.17,1.03.43,1.35.88.53.74.3,1.63.26,2.47-.07,1.22.5,2.13,1.66,2.56.91.34,1.9.36,2.79,0,1.08-.45,2.04-1.16,3.12-1.61,2.37-.98,3.75,1.73,5.24,3.05.65.58,1.42.97,2.31.86,1.09-.13,2.06-.82,2.66-1.72,1.41-2.15.23-4.89-2.17-5.62-.54-.16-1.1-.2-1.65-.12-.86.12-1.76.45-2.58-.01-.91-.51-1.31-1.63-1.69-2.53-.37-.89-.75-1.86-1.48-2.53-.36-.33-.79-.51-1.24-.69-.83-.33-1.33-.79-1.43-1.72-.12-1.08.19-2.39-.74-3.19-.82-.7-2.01-.66-2.97-1.05-2.76-1.13.02-4.28-.23-6.22-.32-2.51-4.14-1.85-4.55-4.26-.33-1.93,1.97-4.39-.15-5.89-.76-.54-1.73-.72-2.62-.94-.79-.2-1.96-.41-2.25-1.3-.2-.6.18-1.16.14-1.76-.03-.52-.35-.94-.74-1.27-1.03-.86-2.39-1.21-3.46-2.04-1.18-.92-2.1-2.14-2.7-3.51-.05-.11-.3-.03-.25.07.53,1.23,1.31,2.33,2.31,3.21s2.23,1.34,3.37,2.04c.5.3,1,.69,1.17,1.28.19.66-.28,1.29-.12,1.95s.82,1.01,1.43,1.22c1.69.59,4.65.68,4.36,3.19-.13,1.14-.77,2.19-.78,3.35-.01,1.05.64,1.75,1.52,2.21.95.49,2.23.76,2.81,1.75.63,1.07.02,2.38-.35,3.42-.3.85-.66,1.86-.2,2.72s1.55,1.09,2.45,1.3c.59.14,1.23.29,1.68.73.5.49.56,1.21.57,1.87.03,1.06-.04,2.2,1.04,2.77.54.28,1.14.4,1.62.79s.77.9,1.03,1.43c.43.85.71,1.78,1.19,2.6.4.69.98,1.26,1.79,1.4.72.12,1.42-.14,2.13-.22.82-.1,1.63.1,2.33.54,1.22.76,1.99,2.16,1.73,3.61s-1.54,2.88-3.09,3c-2.1.16-3.28-2.59-4.79-3.62-.66-.45-1.43-.68-2.22-.47-1.05.29-1.98.95-2.93,1.46-1.18.62-2.45.83-3.68.15-.63-.35-1.05-.91-1.13-1.64s.18-1.51.07-2.26c-.34-2.3-3.53-1.95-5.1-2.79-1.26-.67-1.68-2.02-1.62-3.37.02-.58.12-1.15.26-1.72.18-.72.53-1.43.61-2.18.31-2.72-3.37-1.84-4.63-3.24-.7-.78-.55-1.87-.32-2.8.25-1.02.64-2.02.78-3.06.12-.94-.02-1.88-.71-2.57-.78-.78-1.91-1.05-2.8-1.68-2.27-1.6,0-4.01.23-5.99.11-.97-.44-1.62-1.31-1.98-.73-.3-1.4-.5-1.89-1.17-.43-.59-.64-1.33-.67-2.05-.06-1.62.83-3.09,1.62-4.44.07-.12-.19-.11-.24-.02h0Z"/>
    </g>
    <g>
      <path class="cls-5" d="M966.46,223.43c-1.24.96-1.75,2.75-1.21,4.22.54,1.47,2.1,2.5,3.66,2.42-.92,1.81-.03,4.3,1.83,5.12.8.35,1.74.44,2.36,1.05,1.53,1.49-.2,4.58,1.35,6.05.58.55,1.48.68,2.05,1.25,1.17,1.16.29,3.28,1.08,4.73.97,1.77,3.92,1.69,4.79,3.51.61,1.28-.03,3.15,1.12,3.99.6.44,1.51.39,1.99.96.58.68.16,1.71.05,2.6-.27,2.21,2.15,4.29,4.29,3.68-.13,1.49.39,3.03,1.4,4.13,1.1-1.32,2.23-2.7,2.71-4.35.48-1.65.14-3.68-1.26-4.68-.54-.39-1.22-.61-1.65-1.12-1.1-1.29-.04-3.6-1.23-4.81-.8-.81-2.33-.76-2.84-1.77-.24-.49-.15-1.07-.17-1.62-.07-1.94-1.86-3.65-3.8-3.65-.55,0-1.14.11-1.62-.16-1.37-.8.16-2.98-.35-4.49-.51-1.48-2.83-1.75-3.19-3.27-.12-.51.03-1.04-.04-1.55-.1-.82-.71-1.47-1.29-2.05-2.96-3.02-6.03-5.93-9.19-8.74"/>
      <path class="cls-5" d="M966.38,223.38c-1.24,1.02-1.82,2.77-1.25,4.3s2.16,2.5,3.78,2.47l-.11-.09c-.58,1.22-.45,2.64.26,3.78.37.59.89,1.08,1.52,1.38.79.38,1.77.44,2.42,1.07,1.08,1.05.57,2.86.64,4.19.03.61.16,1.22.56,1.7.54.65,1.44.78,2.07,1.3,1.32,1.08.52,3.11,1.07,4.53.48,1.25,1.82,1.71,2.94,2.22.63.29,1.3.62,1.73,1.19.48.62.53,1.4.58,2.15.05.66.07,1.4.48,1.94.44.59,1.17.64,1.79.92,1.25.56.67,1.89.56,2.92-.08.76.13,1.5.54,2.13.84,1.27,2.4,1.99,3.9,1.61l-.15-.06c-.11,1.54.39,3.02,1.41,4.17.05.06.18.03.22-.02,1.23-1.48,2.59-3.1,2.88-5.08.24-1.59-.25-3.32-1.67-4.2-.86-.53-1.65-.9-1.87-1.98-.17-.83-.05-1.69-.19-2.53-.12-.69-.45-1.26-1.07-1.62-.68-.39-1.62-.49-2.15-1.11-.65-.77-.24-2-.56-2.92-.26-.73-.75-1.37-1.36-1.85s-1.42-.8-2.23-.82c-.59-.02-1.25.14-1.77-.23-.38-.28-.46-.75-.44-1.19.06-1.4.86-2.88-.34-4.03-.49-.47-1.1-.77-1.64-1.17-.3-.22-.59-.47-.78-.79-.33-.56-.18-1.16-.21-1.78-.05-1.04-.79-1.78-1.48-2.49-.95-.97-1.91-1.92-2.89-2.87-2-1.95-4.05-3.84-6.14-5.7-.08-.07-.32.03-.23.11,1.79,1.59,3.55,3.21,5.28,4.87.86.83,1.72,1.66,2.57,2.51.75.75,1.64,1.48,2.22,2.38.35.54.42,1.03.41,1.66-.01.42-.03.83.14,1.22.25.56.78.93,1.27,1.25.62.41,1.34.79,1.7,1.47.39.75.17,1.63.02,2.41-.11.58-.29,1.3,0,1.87s.95.68,1.54.68c1.17-.02,2.17.16,3.06.98.68.63,1.16,1.49,1.24,2.42.07.81-.13,1.67.56,2.27.57.5,1.37.61,2.02.98,1.64.94.77,3.05,1.33,4.53.35.92,1.2,1.18,1.95,1.7.87.61,1.35,1.58,1.48,2.62.31,2.49-1.37,4.57-2.86,6.36l.22-.02c-1-1.14-1.49-2.58-1.39-4.09,0-.08-.1-.08-.15-.06-1.68.42-3.47-.74-4.01-2.35-.27-.81-.06-1.56.06-2.37.09-.6.1-1.24-.39-1.68-.6-.53-1.53-.42-2.08-1.03-.49-.53-.51-1.34-.55-2.02-.09-1.35-.42-2.34-1.64-3.04-1.09-.62-2.57-.91-3.33-2-.9-1.28-.22-2.93-.79-4.3-.6-1.45-2.6-1.29-3.05-2.87-.37-1.29.1-2.66-.19-3.96-.42-1.84-2.33-1.63-3.6-2.56-1.43-1.04-1.95-3.1-1.19-4.68.04-.07-.05-.09-.11-.09-1.59.04-3.12-1-3.61-2.53-.45-1.42.07-3.04,1.22-3.97.13-.11-.07-.17-.16-.1h0Z"/>
    </g>
    <g>
      <path class="cls-5" d="M969.91,219.48c-.81,2.31.69,5.14,3.05,5.77.46.12.97.18,1.35.47.79.61.62,1.82.82,2.8.47,2.21,3.01,3.29,5.25,3.58,1.44.19,3.26.5,3.57,1.92.12.56-.05,1.17.16,1.7.57,1.41,3.24,1.09,3.5,2.59.12.68-.41,1.35-.33,2.04.17,1.46,2.49,1.33,3.46,2.44.45.51.56,1.24.64,1.91.26,2.07.52,4.14.78,6.21.06.51.18,1.1.63,1.33.77.4,1.52-.55,1.84-1.36,1.78-4.53,2.37-9.52,1.71-14.34-.17-1.21-.7-2.68-1.92-2.76-.4-.03-.84.12-1.19-.09-.57-.34-.35-1.18-.21-1.82.6-2.65-1.88-5.52-4.59-5.32-.73.05-1.6.25-2.09-.3-.33-.36-.33-.9-.48-1.36-.4-1.19-1.77-1.73-3.01-1.89-1.24-.16-2.56-.1-3.66-.7-1.38-.75-2.17-2.43-3.68-2.87-1.82-.53-4.09.96-5.54-.26"/>
      <path class="cls-5" d="M969.78,219.49c-.45,1.39-.16,2.91.69,4.1.41.57.94,1.06,1.57,1.39.77.4,1.89.35,2.43,1.08.5.67.37,1.64.52,2.42.14.72.5,1.36,1.02,1.87,1.04,1.03,2.55,1.55,3.97,1.78,1.43.23,3.76.36,3.89,2.25.05.76-.06,1.47.6,2,.44.36,1.01.52,1.54.72.55.21,1.24.46,1.44,1.08.28.83-.51,1.62-.23,2.46.37,1.13,2.03,1.25,2.91,1.79s1.02,1.4,1.14,2.31c.15,1.11.28,2.23.42,3.34s.19,2.23.43,3.3c.13.56.47,1.08,1.11,1.03,1.48-.13,1.96-2.61,2.29-3.69.62-2.04,1-4.15,1.15-6.27.14-2.02.11-4.1-.21-6.1-.12-.71-.34-1.48-.82-2.04-.43-.49-.88-.56-1.49-.59-.42-.02-.96-.03-1.1-.49-.06-.18-.05-.39-.03-.58.03-.41.17-.8.22-1.21.08-.75-.07-1.52-.39-2.21-.6-1.28-1.77-2.32-3.15-2.65-.77-.18-1.47,0-2.24-.02-1.34-.03-1.12-1.15-1.59-2.02-.77-1.44-2.67-1.59-4.1-1.72-1.11-.1-2.17-.28-3.06-1-.62-.5-1.12-1.13-1.72-1.65-1.24-1.08-2.55-.97-4.08-.72-.96.16-1.97.31-2.8-.33-.07-.06-.31.04-.24.1,1.14.89,2.6.4,3.89.23,1.01-.13,1.9-.02,2.73.61.61.47,1.09,1.07,1.65,1.59,1.35,1.24,2.93,1.2,4.64,1.43.85.11,1.75.38,2.39.98.31.29.51.64.62,1.05.1.35.13.75.33,1.06.32.48.89.56,1.42.54.94-.04,1.77-.14,2.66.25,1.46.64,2.58,2.11,2.76,3.7.09.81-.27,1.54-.23,2.33.03.56.37.86.92.89s1.02-.07,1.46.27c.32.25.54.62.71.99.34.77.42,1.63.5,2.46.42,4.16-.09,8.4-1.48,12.34-.17.48-.33.99-.59,1.43-.12.2-.26.4-.43.56-.43.41-1.1.34-1.36-.21-.38-.8-.34-1.89-.44-2.76-.14-1.07-.27-2.15-.41-3.22-.11-.87-.11-1.91-.56-2.69-.65-1.11-2.08-1.13-3.05-1.8-.81-.55-.63-1.3-.39-2.13.16-.57.16-1.12-.29-1.54-.82-.78-2.25-.66-2.95-1.6-.54-.72-.08-1.7-.51-2.47-.29-.51-.81-.82-1.35-1.02-1.41-.53-2.96-.46-4.37-1.03-1.44-.58-2.71-1.61-2.96-3.22-.11-.69-.06-1.45-.39-2.08-.4-.75-1.2-.8-1.93-1.03-1.51-.47-2.63-1.86-2.97-3.39-.17-.76-.13-1.54.11-2.28.03-.09-.23-.06-.25.03h0Z"/>
    </g>
    <g>
      <path class="cls-5" d="M973.93,217.21c2.76,1.75,6.72-2.18,9.44-.37,1.32.88,1.99,2.95,3.57,2.89.72-.03,1.41-.55,2.12-.38,1.47.35.87,2.68,1.68,3.95,1.01,1.59,3.84.96,4.89,2.52.3.44.39.98.65,1.44.49.86,1.47,1.29,2.31,1.83.84.53,1.65,1.42,1.45,2.39,2.53-3.13,2.36-8.11-.37-11.06-.29-.32-.62-.63-.78-1.03-.15-.39-.13-.83-.14-1.25-.08-2.13-1.39-4.17-3.29-5.13-.66-.34-1.43-.58-1.86-1.18-.61-.85-.3-2.04-.54-3.05-.56-2.38-3.68-2.99-5.32-4.8-.68-.75-1.09-1.71-1.72-2.51-.67-.85-1.59-1.51-2.61-1.88-.81-.29-1.85-.34-2.41.32-.38.45-.42,1.1-.7,1.63-.69,1.33-2.53,1.44-4.03,1.28-1.49-.16-3.25-.32-4.24.8-1.41,1.59,0,4.15-.56,6.19-.25.9-.88,1.67-1.05,2.58-.15.84.1,1.69.35,2.51.45,1.44.89,2.88,1.34,4.33"/>
      <path class="cls-5" d="M973.82,217.28c1.78,1.07,3.9.07,5.69-.46,1.08-.32,2.31-.62,3.38-.12s1.6,1.59,2.4,2.38c.73.72,1.49.86,2.46.57.7-.22,1.5-.4,1.94.33.28.46.32,1.04.4,1.56.14.95.32,1.91,1.19,2.47s1.95.62,2.9.95c.75.27,1.26.69,1.58,1.43.3.7.51,1.25,1.12,1.75,1.12.9,3.28,1.54,3.02,3.36-.02.14.23.04.27,0,1.35-1.71,1.95-3.91,1.77-6.08-.09-1.1-.38-2.18-.86-3.17-.22-.45-.48-.88-.78-1.27-.4-.53-1.02-.99-1.27-1.61-.22-.56-.11-1.21-.19-1.8s-.26-1.19-.52-1.74c-.45-.95-1.13-1.79-1.98-2.4-1.08-.79-2.67-.98-2.95-2.51-.2-1.08.02-2.15-.6-3.13-1.08-1.71-3.3-2.27-4.71-3.65-.9-.89-1.35-2.11-2.2-3.04-.77-.85-1.85-1.55-2.99-1.75-.78-.14-1.66,0-2.13.69-.3.45-.34,1.01-.59,1.49-.33.62-.94.97-1.6,1.13-2.01.47-4.43-.75-6.25.57-2.14,1.56-.34,4.69-1.04,6.79-.23.7-.67,1.31-.89,2.01-.23.75-.14,1.5.06,2.24.44,1.68,1.02,3.34,1.54,5,.03.11.31.03.27-.07-.42-1.37-.85-2.73-1.27-4.1-.22-.73-.49-1.48-.47-2.25.02-.7.32-1.3.62-1.91.48-.97.67-1.86.59-2.94s-.39-2.27-.09-3.35c.74-2.75,4.11-1.54,6.12-1.69.77-.06,1.59-.25,2.18-.77.9-.8.65-2.49,2.07-2.68,1.33-.18,2.78.79,3.63,1.73s1.25,2.06,2.09,2.93c1.29,1.35,3.23,1.89,4.47,3.3.77.88.8,1.85.86,2.96.07,1.18.56,1.86,1.61,2.36s2,1.09,2.73,2.06,1.12,2.03,1.2,3.18c.05.62-.02,1.24.34,1.78.33.5.81.89,1.16,1.38.71.98,1.19,2.12,1.43,3.3.49,2.45-.06,5.06-1.61,7.02h.27c.19-1.32-.97-2.16-1.96-2.75-.62-.37-1.3-.74-1.71-1.36-.38-.57-.45-1.3-.92-1.82-.68-.75-1.77-.9-2.7-1.14-1.26-.33-2.12-.87-2.4-2.2-.18-.84-.1-2.1-.85-2.69-1.04-.82-2.28.51-3.39-.02-1.03-.49-1.56-1.7-2.39-2.43-.67-.59-1.5-.83-2.38-.79-2.39.11-5.13,2.25-7.43.87-.09-.05-.34.07-.22.14h0Z"/>
    </g>
    <g>
      <path class="cls-5" d="M965.27,215.86c-1.63-1.08-1.95-3.69-.62-5.12.44-.48,1.08-.98.92-1.61-.07-.27-.28-.48-.45-.7-1.11-1.4-.73-3.72.78-4.69.32-.2.68-.36.92-.65,1-1.19-.76-3.47.48-4.4,1.04-.79,2.51.73,3.76.36,1.22-.37,1.38-2.22,2.54-2.72,1.73-.75,4.04,2.03,5.28.61.65-.74.08-1.97-.77-2.47-.85-.5-1.88-.55-2.81-.89-2.4-.88-3.68-3.45-5.68-5.05-2.08-1.66-4.83-2.17-7.45-2.62-1.13-.19-2.29-.39-3.4-.12-1.71.41-3.07,2-3.22,3.75-.03.34-.03.73-.29.96-.15.13-.35.18-.55.23-.97.22-1.95.45-2.92.67-.37.09-.77.19-.99.51-.49.72.46,1.59,1.31,1.79.85.21,1.92.37,2.18,1.2.48,1.56-2.57,2.25-2.5,3.88.07,1.68,3.19,1.67,3.46,3.33.16.99-.85,1.82-.9,2.82-.05,1.03.91,1.81,1.85,2.24.94.43,2,.73,2.63,1.55.47.62.6,1.43.87,2.17.82,2.23,2.95,3.67,4.95,4.96"/>
      <path class="cls-5" d="M965.39,215.81c-1.48-1.03-1.92-3.27-.87-4.77.41-.58,1.44-1.19,1.15-2.03-.13-.38-.49-.66-.68-1.01s-.32-.77-.36-1.18c-.1-.91.18-1.89.8-2.58.52-.59,1.45-.77,1.74-1.56.41-1.13-1.22-4.44,1.12-4.13,1.28.17,2.51,1.22,3.62,0,.53-.58.76-1.39,1.34-1.92.8-.72,1.85-.25,2.69.12s2.12,1.08,2.97.27c.54-.52.44-1.32.05-1.9-.49-.75-1.32-1.02-2.15-1.23-1.1-.28-2.07-.57-2.98-1.28-.72-.57-1.34-1.26-1.95-1.95-1.35-1.53-2.7-2.82-4.63-3.58s-4.09-1.16-6.15-1.41c-1.75-.22-3.46.1-4.66,1.49-.56.65-.93,1.46-1.02,2.31-.02.19,0,.43-.07.61-.16.43-.69.6-1.11.7-.6.14-1.2.28-1.8.41s-1.57.21-1.85.87.47,1.3,1.01,1.55c.78.36,1.92.25,2.43,1.07.43.69-.04,1.32-.56,1.79-.74.67-2.19,1.51-1.74,2.72.42,1.16,2.08,1.35,2.9,2.11,1.49,1.39-1.09,2.98-.19,4.57,1.01,1.77,3.61,1.5,4.54,3.37.43.88.56,1.85,1.08,2.7s1.22,1.57,1.98,2.19c.78.64,1.62,1.2,2.47,1.75.07.05.3-.06.24-.1-1.65-1.07-3.4-2.21-4.44-3.93-.53-.87-.65-1.88-1.11-2.77-.38-.75-1.06-1.18-1.81-1.51-.91-.41-1.93-.73-2.55-1.56-.69-.92-.2-1.78.24-2.67.29-.58.46-1.22.08-1.8-.31-.47-.85-.75-1.34-1.01-.55-.28-1.2-.54-1.61-1.02-.48-.57-.34-1.27.11-1.81.62-.74,2.13-1.39,2.13-2.51,0-.65-.54-1.04-1.09-1.24-.86-.32-2-.31-2.47-1.25-.88-1.75,4.17-1.31,4.67-2.5.16-.39.11-.88.21-1.29.12-.48.32-.93.59-1.34.65-.97,1.67-1.65,2.83-1.81,1.26-.17,2.57.14,3.81.37,1.08.2,2.15.42,3.19.75,2.01.65,3.58,1.76,4.98,3.33,1.13,1.27,2.24,2.69,3.86,3.35,1,.41,2.2.4,3.1,1.04.73.51,1.36,1.8.48,2.48-.68.53-1.75-.12-2.4-.41-.55-.25-1.14-.51-1.75-.54-1.42-.08-1.87,1.18-2.57,2.16-1.28,1.78-2.84-.43-4.39.21-1.27.53-.65,2.12-.52,3.11.05.37.07.75-.06,1.11-.2.54-.74.74-1.18,1.04-.57.4-.98.98-1.2,1.64-.23.69-.25,1.47-.01,2.17.11.33.27.63.48.9.43.55.63.97.17,1.59-.49.66-1.08,1.09-1.32,1.91-.21.71-.19,1.49.03,2.19s.67,1.32,1.28,1.75c.07.05.3-.05.24-.1h0Z"/>
    </g>
    <g>
      <path class="cls-5" d="M963.08,220.19c.12-2.43-3.42-2.93-5.18-4.62-1.34-1.28-1.7-3.46-3.27-4.45-1.13-.71-2.79-.75-3.41-1.94-.36-.69-.2-1.53-.38-2.29-.68-2.89-5.55-3.15-6.13-6.06-.52-2.62,3.03-5.19,1.74-7.53-.4-.73-1.21-1.19-1.51-1.97-.61-1.56,1.12-2.97,2.6-3.76,2.06-1.11,4.12-2.21,6.18-3.32-3.89-2.77-8.58-4.38-13.35-4.59-1.75-.08-3.6.06-5.07,1.01-1.47.95-2.41,2.92-1.69,4.52.21.47.54.88.68,1.38.59,2.18-2.87,4.44-1.5,6.24.32.42.84.65,1.14,1.07.89,1.24-.55,3.1.14,4.46.6,1.18,2.34,1.18,3.29,2.11.57.56.78,1.39,1.16,2.09.53.98,1.41,1.72,2.27,2.43,2.44,2.03,4.87,4.06,7.31,6.09,1.72,1.44,3.6,2.94,5.84,3.1.87,4.15,5.44,7.13,9.59,6.27"/>
      <path class="cls-5" d="M963.21,220.17c.03-1.35-1.03-2.14-2.1-2.75-1.41-.8-2.9-1.41-3.82-2.82s-1.4-3.03-2.97-3.77c-.73-.35-1.57-.5-2.25-.94-1.08-.69-.84-1.83-1.06-2.92-.55-2.75-4.2-3.03-5.67-5.07-1.03-1.42-.32-3.05.4-4.43.62-1.18,1.54-2.64.95-4-.4-.92-1.45-1.41-1.69-2.42-.29-1.24.83-2.27,1.75-2.9,1.04-.72,2.22-1.25,3.33-1.85,1.24-.67,2.48-1.33,3.73-2,.04-.02.07-.07.02-.11-2.45-1.73-5.2-3.02-8.11-3.79-2.67-.71-5.79-1.22-8.52-.58-2.16.5-4.49,2.44-3.89,4.92.15.62.57,1.1.79,1.69.19.53.13,1.08-.05,1.61-.35,1.01-1.05,1.84-1.46,2.81-.35.81-.36,1.63.31,2.27.45.42.99.7,1.14,1.35.15.61-.03,1.26-.15,1.86-.2,1.01-.28,2.06.65,2.74s2.21.75,2.94,1.72c.41.54.59,1.21.91,1.8.36.65.86,1.2,1.4,1.7,1.24,1.14,2.58,2.18,3.88,3.26s2.62,2.19,3.94,3.28c1.13.94,2.26,1.91,3.56,2.6.66.35,1.36.62,2.09.76.41.07.55.09.67.53.09.32.21.64.34.95.53,1.19,1.35,2.23,2.36,3.04,1.93,1.57,4.46,2.3,6.91,1.82.16-.03.12-.17-.04-.14-4.15.81-8.53-2.13-9.44-6.23,0-.03-.05-.04-.08-.04-2.44-.22-4.35-1.89-6.15-3.39-1.94-1.61-3.87-3.23-5.81-4.84-.91-.76-1.88-1.48-2.67-2.36-.72-.81-.97-1.8-1.55-2.68-.92-1.4-3.47-1.2-3.79-3.03-.15-.88.25-1.76.31-2.63.07-.88-.27-1.4-.93-1.93s-.97-1.19-.71-2.05c.23-.74.7-1.39,1.07-2.06.33-.59.66-1.23.7-1.92.06-.93-.61-1.54-.86-2.38-.71-2.35,1.45-4.34,3.53-4.85,2.29-.57,4.9-.22,7.18.26s4.51,1.29,6.58,2.39c.47.25.93.52,1.39.8.21.13.42.26.63.4.24.16.66.3.41.55-.17.17-.53.28-.75.4-.28.15-.57.31-.85.46-.57.31-1.14.61-1.7.92-1.06.57-2.18,1.09-3.2,1.75-.72.47-1.46,1.05-1.87,1.83-.35.67-.33,1.4.08,2.04.52.79,1.39,1.29,1.55,2.3.26,1.62-1.08,3.15-1.66,4.57-.55,1.34-.52,2.71.53,3.78.97.98,2.29,1.51,3.42,2.26.59.39,1.16.85,1.53,1.47.52.87.28,1.86.58,2.78.56,1.7,2.9,1.57,4.06,2.65,1.31,1.23,1.64,3.17,3.06,4.32,1.21.97,2.76,1.41,3.94,2.42.57.49.92,1.11.91,1.88,0,.11.25.06.25-.03h0Z"/>
    </g>
    <g>
      <path class="cls-5" d="M958.25,223.75c-2.96,1.48-6.94.49-8.86-2.21-.64-.9-1.07-1.95-1.8-2.78-2.13-2.4-6.23-2.29-8.23-4.79-1.1-1.37-1.34-3.26-2.38-4.67-2.08-2.81-6.64-2.9-8.52-5.84-.48-.75-.75-1.65-1.37-2.29-1-1.02-2.64-1.12-3.73-2.04-1.43-1.22-1.55-3.55-3.06-4.68-.9-.67-2.18-.82-2.86-1.71-1.19-1.55.28-4.15-1.01-5.6-.51-.57-1.32-.79-1.83-1.35-1.24-1.35.01-3.58,1.56-4.56,1.97-1.25,4.34-1.69,6.63-2.1.54-.1,1.08-.19,1.62-.29,2.74-.49,6.02-.81,7.86,1.28.36.41.64,1.03.35,1.49-.15.24-.42.37-.68.49-1.89.88-3.77,1.77-5.66,2.65,1.56.65,1.54,2.86,1.09,4.49s-.96,3.62.23,4.82c.61.6,1.59.89,1.87,1.7.22.62-.09,1.31-.05,1.97.12,1.97,2.76,2.42,4.37,3.56,1.13.8,1.81,2.06,2.64,3.17.95,1.28,2.13,2.37,3.3,3.46,1.06.98,2.11,1.96,3.17,2.95,2.95,2.74,5.91,5.49,9.03,8.04,2.19,1.79,4.47,3.48,6.82,5.07"/>
      <path class="cls-5" d="M958.18,223.73c-2.83,1.37-6.5.5-8.46-1.96-1.01-1.27-1.51-2.83-2.86-3.82-1.04-.77-2.29-1.2-3.49-1.66-1.27-.49-2.59-1.01-3.57-2-1.19-1.21-1.48-2.93-2.28-4.37-1.3-2.36-3.99-3.07-6.22-4.23-1.26-.66-2.33-1.49-3-2.76-.3-.57-.54-1.17-.97-1.66-.48-.55-1.14-.87-1.81-1.14-.71-.29-1.46-.54-2.05-1.04s-.93-1.15-1.25-1.82c-.56-1.2-1.03-2.47-2.26-3.14-.62-.34-1.33-.53-1.91-.95s-.89-1.06-.97-1.79c-.14-1.3.4-2.85-.35-4.03-.34-.54-.92-.8-1.44-1.14-.67-.44-1.12-1.05-1.09-1.87.07-1.68,1.55-2.93,2.94-3.61,1.97-.97,4.17-1.3,6.31-1.68,1.77-.32,3.59-.68,5.4-.46.89.11,1.78.37,2.52.88.62.43,1.73,1.47,1.01,2.27-.36.4-1.14.62-1.62.84-.51.24-1.02.48-1.52.71-1.02.48-2.03.95-3.05,1.43-.03.01-.08.05-.03.08,1.47.67,1.47,2.57,1.2,3.92-.29,1.45-.99,3.02-.44,4.5.25.67.76,1.08,1.34,1.47.29.19.59.38.81.65.41.48.36,1.04.28,1.63-.19,1.42.43,2.25,1.64,2.93,1.3.73,2.67,1.2,3.68,2.36.58.68,1.05,1.44,1.58,2.16.58.79,1.25,1.51,1.95,2.2,3,2.96,6.16,5.8,9.3,8.61,3.52,3.16,7.21,6.12,11.12,8.77.06.04.29-.06.24-.09-5.3-3.59-10.1-7.77-14.78-12.12-1.18-1.09-2.35-2.19-3.53-3.28-1.12-1.04-2.28-2.07-3.29-3.23-.9-1.03-1.56-2.26-2.48-3.27-.74-.82-1.69-1.28-2.66-1.76-.89-.43-2-.93-2.41-1.9-.47-1.1.44-2.35-.55-3.28-.4-.37-.91-.6-1.31-.96-.48-.43-.74-1-.82-1.63-.16-1.28.33-2.5.58-3.73.2-.95.27-2.05-.13-2.96-.2-.45-.51-.63-.82-.97.38.41-.15-.1-.14-.08-.02-.13.41-.25.49-.29.36-.17.73-.34,1.09-.51.73-.34,1.45-.68,2.18-1.02.67-.32,1.41-.58,2.05-.97.99-.61.38-1.66-.3-2.26-1.65-1.47-4.1-1.41-6.15-1.15-1.37.17-2.74.45-4.1.7-1.28.24-2.55.52-3.77.99-1.79.69-4.25,2.19-4.03,4.46.13,1.31,1.38,1.55,2.2,2.33.88.84.71,2.14.65,3.23s-.02,2.16.86,2.88,2.17.87,2.97,1.78c.78.88,1.09,2.06,1.66,3.06.55.97,1.32,1.54,2.33,1.96.6.25,1.22.45,1.77.81.59.38.96.92,1.28,1.53.52.99,1,1.85,1.9,2.56,1.7,1.32,3.87,1.84,5.65,3.01,1.02.67,1.76,1.53,2.28,2.64s.85,2.34,1.59,3.35c1.33,1.81,3.67,2.32,5.63,3.16,1.07.46,2.11,1.04,2.86,1.95.84,1.02,1.3,2.31,2.21,3.28,1.46,1.55,3.65,2.35,5.76,2.24.96-.05,1.88-.3,2.75-.71.15-.07-.08-.08-.15-.05h0Z"/>
    </g>
    <g>
      <path class="cls-5" d="M925.12,206.52c1.04-.74.44-2.48-.61-3.2-1.05-.72-2.41-.95-3.38-1.77-1.27-1.08-1.59-2.9-2.64-4.19-1.11-1.37-2.88-1.97-4.36-2.91-1.49-.94-2.83-2.67-2.26-4.33.31-.89,1.13-1.83.64-2.64-.49-.82-1.94-.64-2.38-1.49-.49-.96.82-1.96.75-3.04-.04-.72-.71-1.26-1.39-1.5-2.35-.83-4.8.78-6.77,2.3-2.3,1.77-4.6,3.54-6.9,5.31-.16.12-.32.25-.44.41-.54.74.16,1.84,1.03,2.1.88.26,1.81-.02,2.71-.18.9-.17,1.94-.17,2.59.47.65.65.64,1.7,1.1,2.5,1.13,1.94,4.18,1.34,6.04,2.6,1.15.78,1.73,2.22,2.89,2.98,1.18.78,2.73.72,4.05,1.24,1.85.72,3.05,2.48,4.41,3.93,1.36,1.45,3.34,2.73,5.23,2.1"/>
      <path class="cls-5" d="M925.21,206.57c.9-.71.63-1.95,0-2.76-.9-1.14-2.52-1.3-3.67-2.09-1.36-.94-1.73-2.64-2.6-3.96-.84-1.29-2.19-1.98-3.51-2.69-1.42-.77-2.96-1.74-3.44-3.39-.27-.91.02-1.64.42-2.46.27-.55.59-1.21.23-1.8-.59-.97-2.71-.64-2.46-2.15.2-1.16,1.49-2.19.38-3.31-.96-.97-2.6-.95-3.82-.6-1.52.44-2.84,1.39-4.08,2.34-1.61,1.23-3.22,2.48-4.83,3.72-.74.57-1.53,1.1-2.23,1.72-.42.38-.63.82-.44,1.38.46,1.32,1.95,1.33,3.09,1.12.95-.17,2.03-.5,2.95-.02s.96,1.45,1.27,2.28c.96,2.54,4.23,1.84,6.17,3.05,1.48.92,2.04,2.76,3.73,3.43.76.31,1.59.4,2.39.59,1.02.24,1.9.68,2.69,1.37,2.27,1.95,4.4,6.03,8.01,4.95.15-.05.12-.19-.04-.14-3.45,1.04-5.58-3.04-7.74-4.91-1.06-.92-2.22-1.3-3.57-1.58-.77-.16-1.58-.32-2.25-.77-.6-.4-1.04-.98-1.49-1.54-.77-.98-1.55-1.69-2.76-2.05s-2.43-.4-3.52-.94c-.52-.26-.96-.65-1.22-1.18-.31-.61-.37-1.32-.71-1.92-.61-1.09-1.91-1.13-3.01-.93-.92.16-2.03.54-2.92.07-.71-.38-1.23-1.36-.6-2.04s1.53-1.2,2.26-1.76c.79-.61,1.58-1.21,2.36-1.82,1.36-1.04,2.68-2.16,4.12-3.09s3.31-1.8,5.06-1.15c.8.29,1.52.97,1.29,1.89-.14.57-.52,1.05-.72,1.61-.38,1.1.48,1.53,1.37,1.84.7.25,1.28.63,1.14,1.47-.13.77-.71,1.38-.85,2.15-.23,1.27.55,2.48,1.44,3.31,1.17,1.08,2.71,1.6,4,2.48.69.47,1.26,1.04,1.7,1.74s.72,1.44,1.11,2.15c.33.6.72,1.15,1.27,1.57.66.51,1.47.77,2.22,1.11.69.31,1.34.68,1.75,1.33.44.7.63,1.72-.1,2.3-.13.11.08.16.16.09h0Z"/>
    </g>
    <g>
      <path class="cls-5" d="M907.73,200.2c-1.02-1.87-3.99-1.17-5.71-2.42-1.06-.76-1.6-2.24-2.84-2.62-1.49-.46-3.34.9-4.57-.07-.83-.65-.82-2.03-1.7-2.6-.81-.53-1.88-.09-2.71.39-2.85,1.64-5.41,3.77-7.56,6.26-.24.28-.48.58-.54.94-.12.82.84,1.47,1.66,1.35s1.47-.73,2.04-1.33c.57-.6,1.15-1.26,1.94-1.51,2.32-.75,4.52,2.36,6.89,1.77.72-.18,1.35-.7,2.09-.76,1.72-.14,2.94,2.16,4.66,1.96.63-.07,1.17-.48,1.75-.73.96-.41,2.1-.36,3.03.12.43.22.84.54,1.33.6.49.06,1.07-.33.96-.81"/>
      <path class="cls-5" d="M907.86,200.17c-.96-1.62-3.17-1.39-4.74-1.94-1.06-.37-1.65-1.12-2.33-1.95-.59-.71-1.25-1.27-2.22-1.28-1.1-.01-2.29.65-3.37.29-1.09-.37-1.15-1.62-1.74-2.43-1.31-1.8-4.05.37-5.27,1.2-2.12,1.45-4.18,3.2-5.79,5.22-.58.72-.58,1.59.33,2.04.66.33,1.4.16,2-.2,1.15-.69,1.8-2.19,3.16-2.53,1.16-.29,2.32.43,3.29.95.77.41,1.57.85,2.45.94.33.03.67.01.99-.07.77-.19,1.46-.8,2.29-.75,1.15.08,2,1.1,2.96,1.62.76.41,1.5.44,2.29.09.91-.4,1.66-.86,2.72-.73.84.11,1.42.64,2.2.89.59.19,1.56-.04,1.49-.82,0-.05-.26,0-.25.07.05.61-.61.79-1.13.62-.32-.1-.61-.34-.91-.49-.42-.21-.87-.34-1.33-.39-.87-.08-1.65.15-2.41.55-.66.34-1.31.58-2.04.3-.44-.17-.83-.45-1.21-.72-.62-.44-1.26-.97-2.04-1.08-.7-.11-1.32.2-1.94.48-1.28.58-2.35.2-3.52-.41-1.25-.65-2.62-1.56-4.08-1.09-.84.27-1.43.94-2.02,1.56-.55.58-1.28,1.34-2.16,1.28-.54-.04-1.15-.42-1.28-.97s.3-1.05.65-1.45c.42-.48.86-.95,1.32-1.41.85-.85,1.76-1.66,2.71-2.4s1.9-1.39,2.91-2c.71-.43,1.6-1.01,2.47-.82.63.14.96.6,1.22,1.15.33.7.56,1.51,1.33,1.85.72.31,1.54.1,2.27-.05.63-.13,1.32-.29,1.96-.08.51.16.91.52,1.26.91.66.74,1.17,1.57,2.09,2.01,1.62.78,4.15.35,5.18,2.1.04.07.28-.03.25-.07h0Z"/>
    </g>
    <path class="cls-5" d="M986.19,271.6c1.82,1.29-8.54.26-8.24-1.95.3-2.21,1.52-7.65.09-9.36-1.43-1.71,6.36,6.05,6.84-4.75,2.11-1,3.73,6.37,6.04,6.08,3.01-.38-.41-5.48-1.3-8.39-.88-2.9-.7-3.92-1.74-6.77-.39-1.07,1.85-2.83,2.91-3.25.4-.15.85-.09,1.27-.09,1.89,0,3.6-1.34,4.42-3.04.82-1.7-4.33-5.29-4.62-7.15-.49-3.18.46-5.45-1.73-7.82-.88-.95.91-.97.47-2.19-.44-1.21.02-2.88,1.27-3.19.74-.18,1.5.15,2.19.48,3.12,1.52,6.22,3.29,8.45,5.95,2.23,2.66,3.45,6.39,2.36,9.68-.43,1.3-1.21,2.54-1.19,3.91.04,1.71,1.32,3.16,1.63,4.84.61,3.4-2.87,6.67-1.95,10.01.29,1.04.98,1.93,1.34,2.95.64,1.81.08,3.99-1.35,5.27-.86.77-1.98,1.22-2.84,1.99-3.21,2.9-1.4,8.5-3.67,12.19-2.19,3.55-4.99,4-7.16.44"/>
    <path class="cls-5" d="M978,191.76c-1.96-.13-3.35-1.87-4.79-3.2-2.25-2.07-5.18-3.39-8.22-3.7-2.3-.23-4.7.08-6.85-.77-1.24-.49-2.29-1.34-3.4-2.09-3.85-2.62-8.45-4.11-13.11-4.24-1-.03-2.02,0-2.97-.33-1.12-.39-2-1.24-2.99-1.89-2.26-1.48-5.21-1.86-7.77-1.01-3.79,1.26-7.07,5.05-10.97,4.16-2.9-.67-5.55-3.87-8.21-2.54-1.24.62-1.86,2.06-2.99,2.86-2.43,1.72-6.07-.07-8.66,1.39-2.13,1.21-2.71,4.17-4.77,5.49-1.36.88-3.09.87-4.64,1.34-1.55.47-3.12,1.9-2.67,3.46l-1.47,1.83c-8.8,5.25-13.75,20.62-12.02,20.11,1.73-.51,11.79-8.15,12.38-9.85,3.68-10.71,14.42-14.22,17.43-14.69,2.71-.42,5.57-.33,8.07-1.46,1.59-.72,4.01,1.2,5.74,1.05,2.34-.21,3.62-1.57,5.92-2.04,1.22-.25,2.48,1.91,3.47,1.15,2.59-1.98,6.64-1.14,9.76-.19,2.63.79,3.52-2.2,6.21-1.62,1.77.38,2.26,3.67,4.07,3.65,2.61-.03,4.44.13,6.87,1.1,4.2,1.67,10.39.36,14.59,2.03,2.81,1.12,4.71,5.97,6.98,7.97,3.28,2.9,6.25,3.82,10.39,5.25,1.69-2.35,2.01-5.61.83-8.25-1.18-2.64-3.83-4.56-6.71-4.87"/>
    <path class="cls-5" d="M983.8,318.69c3.9,1.68,6.48,6.01,6.11,10.24-.36,4.23-3.65,8.05-7.77,9.04,2.18,4.73,4.4,9.72,4.02,14.92-.38,5.2-4.37,10.52-9.58,10.44,2.12,3.84,4.3,7.97,3.96,12.34-.34,4.37-4.41,8.72-8.66,7.62,1.59,3.48,3.21,7.16,2.86,10.97-.35,3.81-3.47,7.65-7.28,7.33,2.32,3.81,3.77,8.72,1.69,12.66-2.07,3.95-8.86,4.95-10.74.91-1.12-2.41-.08-5.21.97-7.65,1.25-2.93,2.5-5.85,3.75-8.78-4.47-5.07-2.54-14.26,3.59-17.1-5.14-6.22-2.23-17.19,5.32-20.04-5.47-7.51-3.03-19.51,4.95-24.29-5.91-6.9-2.72-19.33,5.78-22.52"/>
    <path class="cls-2" d="M977.96,282.8l.38-3.22-35.73-14.87h0c-12.59-6.54-31.73-5.96-43.46-1.34l-9.6-.94.11-.12c-10.07-8.91-28.36-12.68-43.34-8.95l.19,1.38h0c0,.08.06.29.09.58l.18,1.21c1.05,7.68,2.4,15.84,4.43,18.23,1.36,1.61,6.4,3.02,10.59,3.93,1.58.36,3.03.63,4.08.83,1.26.22,12.41,2.21,14.51.92,2.1-1.28,6.98-12.41,8.42-15.94l9.84,1.01c.83,3.03,1.59,15.64,5.99,18.82,4.41,3.18,29,5.72,31.69,3.02,1.92-1.93,7.65-9.09,9.42-12.93l2.79-4.88,29.42,13.27ZM879.41,279.12c-2.26,1.19-24.51-2.54-26.87-5.31-1.99-2.35-3.49-13.31-4.06-17.42l.02-.16c13.29-2.71,29.78.67,38.56,8.24-2.64,6.07-6.34,13.83-7.65,14.63v.04ZM933.57,286.03c-1.69,1.71-23.3.32-27.84-2.96-3.16-2.27-3.88-11.52-4.76-16.88,11.44-4.34,33.58-3.74,44.67,2.77-3.05,6.02-7.43,12.99-12.07,17.07h0Z"/>
    <path class="cls-10" d="M964.4,679.62c14.19-.06,28.34-.5,41.76-5.63,9.62-3.68,18.76-8.46,28.37-12.16,4.01-1.54,8-3.07,11.7-5.02,1.59-1.22,3.17-2.46,4.73-3.73l-27.22-74.44-21.9-139.72,34.77-35.36s-23.43-21.71-26.61-24.29c-8.71-7.08-32.95-24.29-49.6-28.25h0s-13.93,45.08-54.96,47.24c-30.65,1.61-18-31.35-18-31.35,0,0-48.62,29.25-54.09,34.74h0c3.23-7.05-3.76,52.66-12.69,101.05-2.48,13.44-7.53,42.07,9.95,60.1,5.8,5.98,8.67,66.91,8.67,66.91l-4.03,34.32c-.63,5.34,3.19,10.17,8.53,10.79,19.11,2.22,63.09,6.57,100,4.64,6.48-.34,13.44-.23,20.62.17Z"/>
    <path class="cls-1" d="M951.56,577.45c-.26,2.32-.61,4.63-1.04,6.91-.01-.16-.03-.3.09-.49.23-1.34.58-3.55.95-6.43Z"/>
    <path class="cls-5" d="M986.16,309.74c4.14.93,7.48,4.69,7.91,8.92.43,4.22-2.08,8.58-5.95,10.33,3.02,4.24,6.14,8.73,6.73,13.91.59,5.18-2.34,11.15-7.47,12.04,2.8,3.38,5.71,7.02,6.19,11.38.48,4.36-2.71,9.39-7.09,9.1,2.21,3.12,4.49,6.43,4.85,10.24.36,3.81-1.99,8.16-5.79,8.56,2.99,3.31,5.32,7.86,4.02,12.13-1.3,4.26-7.78,6.51-10.38,2.89-1.55-2.16-1.05-5.11-.48-7.7.68-3.11,1.36-6.22,2.05-9.33-5.34-4.14-5.16-13.54.34-17.47-6.21-5.15-5.4-16.47,1.49-20.68-6.77-6.36-6.61-18.61.33-24.78-7.09-5.67-6.28-18.48,1.48-23.21"/>
    <path class="cls-12" d="M964.4,312.82c9.14,10.34,17.97-4.72,17.97-4.72,9.88-10.74,12.8-22.7,12.86-30.86.06-8.15-8.94-8.45-8.94-8.45-7.68.48-6.64,1.42-18.05,22.58"/>
    <path class="cls-25" d="M973.78,291.37c2.51-4.39,5.33-8.78,9-12.31.93-.89,1.93-1.7,3.02-2.38.28-.18.14-.09.46-.26.18-.1.37-.19.55-.27.16-.07.32-.14.48-.2-.35.14.05-.01.18-.05.12-.03.25-.06.37-.09.27-.08-.32.07,0,0,.21-.04.3,0-.05-.02l-.61-.28c.73.8,1.2,1.87,1.54,2.88.94,2.84.65,5.85-.2,8.67-.16.52.65.68.99.65.52-.04,1.05-.33,1.21-.85,1.04-3.41,1.2-7.2-.39-10.47-.46-.94-.98-2.2-2.2-2.09-3.18.29-6.07,3.02-8.13,5.2-3.28,3.46-5.9,7.54-8.26,11.67-.27.47.24.8.65.85.52.07,1.15-.18,1.42-.65h0Z"/>
    <path class="cls-25" d="M974.08,294.01c5.53.63-3.21,10.68,1.37,10.99,1.26.08,2.29-.78,3.03-1.7,1.15-1.42,1.96-3.16,2.68-4.83,1.01-2.34,1.67-4.37,1.75-6.9.09-3.06-.47-6.54-3.39-8.16-.6-.33-2.61.55-1.73,1.03,2.32,1.28,2.9,4.16,2.96,6.6.04,1.74-.14,3.45-.73,5.09-.7,1.96-1.51,3.9-2.57,5.68-.33.55-.68,1.11-1.11,1.59-.08.1-.49.38-.51.5-.01.05.13-.08.19-.07,1.62.18.47.06.46-.1,0-.28-.25-.59-.24-.93.02-.48.17-.97.31-1.43.34-1.13.79-2.22,1.13-3.34.32-1.05.7-2.34.36-3.43-.36-1.16-1.5-1.62-2.62-1.74-.49-.06-1.18.03-1.54.41-.27.29-.31.69.2.74h0Z"/>
    <path class="cls-21" d="M898.33,398.73s2.4.19,6.86,2.02c4.46,1.82,9.74,14.6,9.74,14.6,0,0,21.67-7.69,34.47-21.4,12.79-13.71,25.55-38.79,25.55-38.79,0,0-3.33-9.09-14.68-11.87,0,0-39.24,48.16-61.93,55.44Z"/>
    <path class="cls-21" d="M898.33,398.73s-13.68,1.81-17.98,11.91c0,0-7.86-12.42-8.75-24.23-.89-11.8-.83-10.96-.83-10.96,0,0,10.65-13.57,16.4-11.94,0,0-2.85,28.36,11.16,35.22Z"/>
    <path class="cls-8" d="M890.3,308.89c8.9,1.12,23.18,2.89,23.18,2.89,0,0-4.6,22.4-25.23,19.8-20.63-2.6-18.94-26.02-18.94-26.02,0,0,12.09,2.21,20.99,3.33Z"/>
    <path class="cls-26" d="M890.22,308.88c4.23.53,21.09,3.02,21.09,3.02,0,0-7.45,14.01-22.75,12.08-16.59-2.09-16.7-16.78-16.7-16.78l18.36,1.67Z"/>
    <path class="cls-9" d="M889.94,309.61c4.23.53,16.91,2.49,16.91,2.49,0,0-5.02,3.7-17.71,2.1-12.69-1.6-16.36-6.23-16.36-6.23l17.16,1.63Z"/>
    <path class="cls-8" d="M869.43,304.72c.47-.07.46-.08,2.59-.03,3.55.09,5.18-1.1,7.75-1.01,4.38.15,6.88,2.52,8.76,2.75,1.88.24,4.89-1.43,9.17-.5,2.51.55,8.35,3.61,11.81,4.41,2.07.48,3.58.88,4.01,1.07.6.26.09,3.28-23.58.3-23.68-2.98-21.16-6.89-20.51-6.99Z"/>
    <path class="cls-25" d="M446.07,176.24c-.95-4.78-2.15-9.56-4.1-14.04-1.01-2.31-2.21-4.63-3.91-6.51-.67-.75-1.53-1.64-2.5-1.99-.98-.36-1.92.62-2.58,1.24-3.06,2.86-4.33,7.06-4.45,11.15-.02.72,1.45.49,1.46-.13.1-3.2.84-6.46,2.78-9.07.51-.69,1.1-1.33,1.76-1.88.19-.16.39-.3.59-.44.11-.08.36-.22.14-.09l-.74.07s.14.03.17.07c-.1-.12.25.14.37.22.63.4,1.18.92,1.67,1.48,2.4,2.67,3.88,6.16,5.05,9.51,1.23,3.52,2.11,7.15,2.84,10.81.12.63,1.58.26,1.45-.39h0Z"/>
    <path class="cls-25" d="M442.93,177.61c-2.31-.5-4.18.55-4.6,2.91-.42,2.33.16,4.73-.27,7.04-.07.38-.37.76-.43,1.08-.01.08.24.15.18-.03-.02-.06-.16-.11-.2-.17-.17-.3-.38-.55-.53-.87-.78-1.76-1.02-3.8-1.21-5.69-.26-2.61-.33-4.97.33-7.49.73-2.76,2.23-6.71,5.43-7.29.67-.12,1.2-.96.2-.78-3.14.57-5.1,2.96-6.27,5.8-.72,1.76-1.36,3.81-1.36,5.73,0,2.6.17,5.23.72,7.78.24,1.11.6,3.2,1.82,3.72.9.38,2-.21,2.44-1.01.5-.9.44-2.1.44-3.1,0-1.58-.13-3.18.11-4.74.1-.61.24-1.31.64-1.8.46-.56.99-.47,1.65-.32.45.1,1.7-.6.89-.77h0Z"/>
    <path class="cls-12" d="M740.02,626.84l10.76-9.4c1.83-1.58,4.07-2.67,6.47-3.13l16.55-3.14c4.44-.84,9.03-.07,12.86,2.17l22.27,13.02,7.88,2.08,15.1,26.3-25.12,6.32s-34.27,12.32-37.92,10.85c-3.65-1.47-10.54-6.21-10.54-6.21,0,0-19.51-2.21-21.61-3.41-7.96-4.57-5.47-6.5-5.47-6.5l-3.42-.8c-.38,1.18-6.33-5.1-6.53-8.78-.12-2.14-.76-2-.76-2-3.42-1.11-6.12-3.62-7.38-6.86-.74-2.07,9.03-6.74,9.03-6.74l21.88-2.17-4.05-1.59Z"/>
    <path class="cls-5" d="M766.97,624.45l-29.96-31.71c-2.2-2.34-5.21-3.4-8.08-2.85l-45.69,8.67c-1.83.35-3,2.34-2.6,4.44h0c.18.91.63,1.74,1.28,2.33l32.79,29.88h0l52.26-10.76Z"/>
    <path class="cls-25" d="M751.64,640.94c-2.22,1.01-4.62,1.5-6.99,2-2.61.55-5.26.96-7.92,1.25-2.59.28-5.18.43-7.78.46-2.68.03-5.39.06-8.01-.53-.65-.15-2.55.85-1.35,1.12,2.71.61,5.49.59,8.26.57s5.72-.19,8.57-.5c2.78-.3,5.54-.75,8.27-1.32s5.32-1.11,7.79-2.24c1.38-.63.11-1.25-.84-.81h0Z"/>
    <path class="cls-25" d="M759.54,651.88c-2.32,1.05-4.89,1.53-7.38,2.03-2.4.48-4.82.85-7.25,1.1-2.56.27-5.12.42-7.69.45-2.66.02-5.35.05-7.96-.54-.46-.1-1.1.08-1.52.29-.17.09-.76.42-.28.52,2.81.64,5.72.6,8.58.57,2.96-.04,5.92-.23,8.85-.57,2.77-.32,5.52-.77,8.24-1.37,2.61-.57,5.19-1.14,7.64-2.25.33-.15.58-.29.28-.52-.28-.22-1.25.17-1.52.29h0Z"/>
    <path class="cls-25" d="M759.28,626.49c-.31-.88-2.39-.1-2.73.29-.17.19-.08.41.14.51.57.25,1.53-.08,2.09-.2,1.71-.35,3.42-.76,5.13-1.13,1.54-.33,3.08-.64,4.63-.9.51-.09,1.03-.17,1.55-.23.11-.01.22-.02.32-.03.12-.01-.22.03.02,0,.04,0,.13.02.16,0-.09.05-.39-.08-.47-.24.33.71,2.45.01,2.17-.58-.29-.63-1.71-.29-2.22-.23-1.43.19-2.85.47-4.26.75-1.99.4-3.98.85-5.96,1.29-.34.07-.68.15-1.02.22-.06.01-.42.09-.35.07.1-.02-.2.04-.23.05-.12.02-.24.04-.36.07-.39.09.45.04.53.08l.14.51h0c-.2.13-.39.27-.59.4-.12.05-.69.13-.3.1.2-.01-.32,0-.07,0-.17,0-.42,0-.5-.23.25.71,2.4.08,2.17-.58h0Z"/>
    <path class="cls-22" d="M762.25,626.15c-.27-.19-.53-.41-.77-.66l-2.02-2.02-7.66-7.55-11.13-11.31-6.55-6.69c-1.14-1.09-2.5-1.81-3.94-2.09-.74-.14-1.48-.17-2.21-.09-.71.14-1.58.3-2.28.43l-31.67,5.86-9.63,1.68-2.61.5c-.31.07-.62.09-.93.08.28-.14.59-.23.9-.26l2.59-.59,9.57-1.99,31.62-6.13c.79-.15,1.58-.3,2.34-.44.8-.09,1.62-.05,2.43.1,1.59.32,3.09,1.13,4.34,2.33l6.54,6.75,11.01,11.47c3.05,3.18,5.55,5.85,7.38,7.79.8.86,1.45,1.6,2.04,2.13.23.21.44.44.63.71Z"/>
    <path class="cls-12" d="M1004.32,598.09c4.97,1.94,13.44-2.2,18.32.48,2.48-8.64,13.06-59.28,19.84-88.97-12.48-3.78-30.22.85-42.98-1.57-7.94-1.51-15.87-3.71-23.72-6.11l-15.94,93.24c14.12,3.97,30.78-2.43,44.48,2.93Z"/>
    <path class="cls-12" d="M986.6,618.62c-4.44-12.66-8.88-20.23-14.17-32.54-58.21,6.76-158.66,41.09-158.66,41.09l5.88,28.77s129.02,3.06,175.47-18.34c-1.16-7.04-6.28-12.62-8.51-18.98Z"/>
    <path class="cls-21" d="M1056.13,481.33c-.03-4.4.37-8.83.7-13.26.04-8.17-.53-15.65-1.7-24.19-2.02-7.57-4.18-18.41-7.75-25.1-4.01-7.52-13.11-17.98-22.83-22.76-.88.02-1.77.08-2.71.19-.73.09-1.34-.03-1.86-.28-3.39.52-6.72,1.28-9.78,2.43-15.51,5.83-23.38,16.35-28.03,31.24-4.84,15.49-8.87,30.91-11.67,46.84-2.69,15.3-4.32,33.54-8.29,45.04,34.27,14.43,83.37,16.51,83.37,16.51,0,0,6.61-33.07,9.23-47.51.46-2.52.9-5.03,1.33-7.55.02-.27.04-.53.06-.8-.05-.25-.08-.52-.09-.81Z"/>
    <path class="cls-12" d="M1023.1,597.37s-5.63,23.77-16.48,34.37c-10.99,10.74-56.56,14.43-56.56,14.43l12.83-66.72,60.22,17.92Z"/>
    <path class="cls-25" d="M961.17,587.33c9.46-.18,18.41,6.55,21.27,15.49.18.56,2.34-.06,2.17-.58-3.06-9.55-12.58-16.04-22.53-15.86-.35,0-1.29.16-1.45.54-.18.4.15.43.53.42h0Z"/>
    <path class="cls-24" d="M412.75,492.26c-3.73,2.37-6.87,5.73-9.83,8.96-3.89,4.25-7.53,8.72-11.04,13.27-3.16,4.1-6.23,8.28-9.13,12.58-2.14,3.17-4.01,6.25-5.12,9.95-1.08,3.6-1.73,7.35-2.13,11.08-.35,3.28-.54,6.64-.19,9.94.07.64,1.85.24,1.77-.48-.65-6.09.26-12.58,1.72-18.49.59-2.38,1.3-4.79,2.48-6.95.72-1.31,1.54-2.56,2.36-3.81,5.78-8.78,12.26-17.24,19.24-25.1,3.29-3.7,6.77-7.68,10.99-10.35,1.01-.64-.51-.98-1.12-.59h0Z"/>
    <path class="cls-25" d="M673.42,497.54c-6.14,2.88-11.64,6.94-15.88,12.26-4.1,5.15-6.87,11.18-8.79,17.44-1.18,3.88-2.04,7.85-2.73,11.84-.16.94,2.04.6,2.18-.23,2.17-12.67,6.38-25.52,16.44-34.14,2.91-2.49,6.2-4.51,9.66-6.13,1.36-.64.13-1.53-.9-1.04h0Z"/>
    <path class="cls-12" d="M786.39,606.07c-13.7-3.87-29.82-21.86-36.39-33.29-20.79-36.13-42.94-123.25-54.2-158.34l21.84,5.98,10.28-7.17,71.13,124.66"/>
    <path class="cls-25" d="M715.01,485.52c6.28,20.79,11.72,42,19.78,62.19,1.66,4.15,3.44,8.29,5.71,12.15.29.49,2.31-.34,2.17-.58-4.45-7.57-7.37-16.1-10.19-24.38-3.65-10.68-6.87-21.51-10.07-32.33-1.74-5.88-3.46-11.76-5.23-17.63-.13-.43-2.3.18-2.17.58h0Z"/>
    <g id="freepik--Character--inject-2">
      <path class="cls-12" d="M737.83,435.9l-9.2-19.06s.52-17.95-1.57-23.09c-2.09-5.14-15.58-22.57-16.48-23.15-.89-.58-6.19-27.74-11.33-28.1-5.15-.36-9.36,2.39-9.49,9.39-.13,7,7.84,22.89,4.3,24.39-2.8.95-5.75,1.35-8.69,1.18,0,0,.31-6.52-3.3-9.96-3.61-3.44-8.18-2.31-8.18-2.31l-.24,6.17-5.69-7.58s-1.13-15.78-7.71-17.22c-.78-3.71-1.29-7.53-3.47-10.62-2.07-2.48-5.74-2.8-8.19-.71-.43.37-.81.79-1.12,1.27h0l3.85,37.69,24.28,43.58s20.91,9.61,24.38,12.31c3.47,2.7,9.77,18.88,11.57,17.78,15.09-9.16,26.27-11.96,26.27-11.96Z"/>
    </g>
    <path class="cls-24" d="M725.37,415.01c-1,1.24-1.97,2.28-3.53,2.74-2.23.67-4.58.76-6.89.88-.45.02-1.15.33-1.21.85-.06.54.59.68.99.66,2.6-.13,5.31-.25,7.8-1.09.91-.3,1.79-.7,2.55-1.3s1.45-1.38,2.08-2.16c.31-.38.22-.83-.27-.99s-1.21,0-1.54.41h0Z"/>
    <path class="cls-24" d="M696,415.25c.13-3.98-1.32-7.5-3.35-10.86-1.05-1.73-2.19-3.39-3.26-5.11-1.24-1.99-2.6-4.08-2.8-6.46-.18-2.18-.06-4.41-.11-6.59-.04-1.99-.08-3.98-.09-5.96-.02-3.97.18-8.79-2.37-12.12-2.27-2.95-6.44-4.79-10.13-4.05-.34.07-.88.38-.91.78-.58,6.71-.76,13.44-1.23,20.16-.23,3.25-.55,6.46-.36,9.72s.83,6.61,1.81,9.8c.28.92,2.45.33,2.17-.58-.96-3.12-1.6-6.32-1.8-9.58-.21-3.35.16-6.67.39-10.01.45-6.57.63-13.15,1.2-19.71l-.91.78c3.03-.61,6.83,1.83,8.29,4.39,2.07,3.63,1.63,8.36,1.67,12.37.04,3.7-.12,7.51.2,11.19.33,3.75,3.24,7.22,5.21,10.28,2.31,3.6,4.32,7.37,4.17,11.76-.04,1.06,2.16.7,2.19-.2h0Z"/>
    <path class="cls-24" d="M668.2,382.87c1.74-10,1.7-20.66-1.22-30.44-.62-2.07-1.41-3.83-3.21-5.13-1.49-1.08-3.33-1.61-5.15-1.28-1.64.3-2.28.8-2.5,2.44-.3,2.16-.42,4.35-.62,6.51-.61,6.58-1.22,13.16-1.83,19.73-.08.85,2.1.44,2.17-.28.47-5.1.94-10.2,1.42-15.29.23-2.47.46-4.93.69-7.4.08-.85.15-1.69.23-2.54.06-.62.32-1.38.29-1.99,0-.14.22-.34-.03-.12-.28.25.07.03.16.06.29.12.88.01,1.24.1,1.06.26,1.98.86,2.77,1.6,1.51,1.4,2.03,3.47,2.55,5.4,1.16,4.32,1.76,8.79,1.94,13.25.21,5.24-.18,10.48-1.07,15.64-.14.81,2.04.45,2.17-.28h0Z"/>
    <path class="cls-24" d="M706.35,376.07c-3.7-.25-7.38.25-10.91,1.39-.22.07-.89.36-.63.67s1.14,0,1.41-.09c2.81-.91,5.8-1.22,8.74-1.02.5.03,1.13-.11,1.54-.41.32-.24.3-.51-.15-.54h0Z"/>
    <path class="cls-25" d="M802.1,565.92c3.39-11.52.6-25.08-5.34-35.31-.67-1.15-1.39-2.26-2.18-3.32-.58-.78-1.32-1.47-1.87-2.25-.17-.24-.3-.54-.44-.8l-2.79-5.1c-3.45-6.31-6.91-12.61-10.36-18.92-3.82-6.98-7.64-13.96-11.47-20.93l-4.15-7.57c-.67-1.22-1.25-2.66-2.08-3.79-.04-.05-.06-.12-.09-.17-.45-.82-2.53-.03-1.99.95,5.39,9.84,10.78,19.68,16.17,29.52,3.58,6.54,7.17,13.08,10.75,19.62l3.41,6.23c.28.52.55,1.06.86,1.57.42.69,1,1.25,1.51,1.88,4.06,5.1,6.56,11.46,7.99,17.76,1.55,6.81,1.86,14.06-.13,20.81-.29.99,1.93.74,2.2-.18h0Z"/>
    <path class="cls-25" d="M792.78,525.32c1.03-1.34,2.06-2.69,3.09-4.03.15-.19.3-.39.45-.58.23-.3-.8-.2-.86-.19-.43.08-1,.21-1.28.58-1.03,1.34-2.06,2.69-3.09,4.03-.15.19-.3.39-.45.58-.23.3.8.2.86.19.43-.08,1-.21,1.28-.58h0Z"/>
  </g>
</svg>