<?xml version="1.0" encoding="UTF-8"?>
<svg xmlns="http://www.w3.org/2000/svg" xmlns:xlink="http://www.w3.org/1999/xlink" viewBox="0 0 1334 1000">
  <defs>
    <style>
      .cls-1 {
        fill: none;
      }

      .cls-2 {
        fill: #040404;
      }

      .cls-3 {
        fill: #0f1f28;
      }

      .cls-4 {
        fill: #5e3527;
      }

      .cls-5 {
        fill: #2a4e73;
      }

      .cls-6, .cls-7 {
        fill: #010101;
      }

      .cls-8 {
        fill: url(#linear-gradient-2);
      }

      .cls-9 {
        fill: #113a54;
      }

      .cls-10 {
        fill: #374f51;
      }

      .cls-11 {
        fill: #745245;
      }

      .cls-12 {
        fill: #afaeaf;
      }

      .cls-13 {
        fill: #a66f53;
      }

      .cls-14 {
        fill: #f0e9d1;
      }

      .cls-15 {
        fill: #f0ecf6;
      }

      .cls-16 {
        fill: #5a3122;
      }

      .cls-17 {
        fill: #a66e53;
      }

      .cls-18 {
        fill: #0a2f44;
      }

      .cls-19 {
        fill: url(#linear-gradient);
        opacity: .5;
      }

      .cls-20 {
        fill: #3d231c;
      }

      .cls-21 {
        fill: #0d1335;
      }

      .cls-22, .cls-23 {
        fill: #fff;
      }

      .cls-7 {
        stroke: #010101;
        stroke-width: .13px;
      }

      .cls-7, .cls-23 {
        stroke-miterlimit: 10;
      }

      .cls-24 {
        fill: #6a7a80;
      }

      .cls-25 {
        fill: #513835;
      }

      .cls-23 {
        stroke: #241f20;
      }

      .cls-26 {
        fill: #4f2f26;
      }

      .cls-27 {
        fill: #552d23;
      }

      .cls-28 {
        fill: #3a221a;
      }

      .cls-29 {
        fill: #28160e;
      }

      .cls-30 {
        fill: #825639;
      }

      .cls-31 {
        fill: #bfc0c1;
      }

      .cls-32 {
        fill: #848280;
      }

      .cls-33 {
        fill: #4f2e25;
      }

      .cls-34 {
        fill: #e8e8e8;
      }

      .cls-35 {
        fill: #4163ae;
      }

      .cls-36 {
        fill: #4d4d4d;
      }
    </style>
    <linearGradient id="linear-gradient" x1="-994.66" y1="3373.14" x2="209.81" y2="3373.14" gradientTransform="translate(-2698.32 977.28) rotate(90) scale(1 -1)" gradientUnits="userSpaceOnUse">
      <stop offset="0" stop-color="#eeeadf"/>
      <stop offset=".18" stop-color="#ece7dc" stop-opacity=".99"/>
      <stop offset=".33" stop-color="#e6e0d3" stop-opacity=".97"/>
      <stop offset=".47" stop-color="#dcd3c4" stop-opacity=".93"/>
      <stop offset=".6" stop-color="#cec1af" stop-opacity=".88"/>
      <stop offset=".72" stop-color="#bcaa94" stop-opacity=".82"/>
      <stop offset=".84" stop-color="#a68d72" stop-opacity=".73"/>
      <stop offset=".96" stop-color="#8d6c4c" stop-opacity=".64"/>
      <stop offset="1" stop-color="#83603d" stop-opacity=".6"/>
    </linearGradient>
    <linearGradient id="linear-gradient-2" x1="18.62" y1="-287.33" x2="46.07" y2="-434.04" gradientTransform="translate(207.23 480.97) rotate(-.8)" gradientUnits="userSpaceOnUse">
      <stop offset=".03" stop-color="#231f20"/>
      <stop offset=".18" stop-color="#230000"/>
      <stop offset="1" stop-color="#a66f54"/>
    </linearGradient>
  </defs>
  <g id="Layer_3" data-name="Layer 3">
    <polyline class="cls-14" points="1483.19 1188.88 1483.19 -6.85 -138.16 -6.85 -138.16 1188.88"/>
    <polyline class="cls-19" points="1485.5 1183.12 -135.85 1183.12 -135.85 -21.35 1485.5 -21.35"/>
  </g>
  <g id="Layer_1" data-name="Layer 1">
    <rect class="cls-4" x="993.04" y="747.71" width="350.87" height="62.28"/>
    <rect class="cls-4" x="977.58" y="711.9" width="380.02" height="40.95"/>
    <polygon class="cls-4" points="1034.39 752.7 1012.64 1025.27 994.31 1025.27 992.99 752.7 1034.39 752.7"/>
    <polygon class="cls-4" points="1301.99 751.46 1323.73 1024.02 1342.06 1024.02 1343.38 751.46 1301.99 751.46"/>
    <rect class="cls-20" x="992.99" y="752.7" width="351.29" height="13.66"/>
    <path class="cls-22" d="M307.71,458.65c6.33-.51,12.64-1.22,18.94-2.11.51-.68,3.48,4.06,4.6,4.06,10.58-.04,22.61-.07,32.63-3.15.18-42.47-3.29-98.56-8.49-119-8.61-33.86-71.62-62.26-75.89-63.98,0,0,9.82,125.17,25.22,172.55,1.05,3.23,2.04,7.15,2.98,11.64Z"/>
    <path class="cls-22" d="M186.34,262.22l-2.41,1.59c-16.69,7.37-72.56,31.68-84.04,45.87-17.26,21.2,53.82,83.15,56.29,100.75,1.25,8.53,8.93,71.91,1.53,121.33-4.86,32.86-7.72,65.98-8.59,99.18l53.35,6.72c26.06,3.28,52.47,2.89,78.39-1.17l63.09-10.66c-1.66-34.02,2.6-62.27,1.31-108.57l-3.93-144.85-12-64.59s-14.19-12.04-15.75-15.28l-43.06-22.55s15.34,35.4-11.09,39.29c-27.3,4.01-41.34-2.03-61.99-17.77,0,0-8.92-19.79-11.1-29.27Z"/>
    <path class="cls-17" d="M183.74,204.66s8.25,42.04,1.17,66.73c-1.14,3.96-20.53,14.84-20.53,14.84l5.88,6c5.07,5.18,89.87,55.98,96.7,58.41,34,12.08,6-33.54,20.27-54.76l-9.08-13.38-7.39-11.54c-1.26-4.69,2.73-39.89,2.73-39.89"/>
    <path class="cls-30" d="M182.28,221.93c0,.09.02.16.03.25-.04-.1-.06-.2-.03-.25Z"/>
    <path class="cls-17" d="M244.03,270.57l28.64-2.06,14.22-3.75c1.46-.02,7.27-14.95,8.2-16.85,2.88-5.89,5.73-14.54,7.41-20.89,1.8-6.81,6.75-11.87,7.49-20.01.54-5.97.43-10.13-3.09-19.7-.89-2.43-1-4.88-.49-7.54,1.1-5.61,1.34-12.13,2.66-19.65.1-.59.69-3.45.44-4.08,0,0-.28-26.41-7.79-42.05-5.4-11.24-12.49-15.78-20.74-17.6-8.26-1.83-32.35.45-32.35.45l-33.52-3.66-27.89,14.98-13.25,34.93,3.41,39.91,5.47,35.57"/>
    <path class="cls-28" d="M258.32,260.9c-.23.16-15.39-1.27-15.69-1.29l-7.91-3.43s-.04-.03-.05-.03c-.7.3-1.53.37-2.48.08-4.94-1.52-9.28-4.1-13.47-7.07-3.77-2.67-8.28-11-12.55-12.82-2.02-.86-1.34-1.5-3.07-2.72.17.44.16,3.09.33,3.53,7.96,9.61,23.61,29.92,34.62,34.94.79.18,3.28.8,9.89,1.14,8.67.45,14.42.52,22.83-.9-.04-6.1.31-13.2.18-19.3-3.11.05-4.1,2.08-12.63,7.88Z"/>
    <path class="cls-6" d="M243.91,175.29c-1.85-.92-3.99-.07-5.17,1.02-.28.25-1.03.98-1.36,2.19-.43,1.55.21,3.29,1.2,4.34,1.32,1.4,3.47,1.61,5.12.81,2.23-1.08,2.92-3.79,2.33-5.75-.11-.36-.61-1.86-2.11-2.61"/>
    <path class="cls-6" d="M294.97,174.87c1.82-.98,3.98-.19,5.2.86.29.25,1.06.95,1.43,2.15.48,1.54-.11,3.29-1.06,4.37-1.27,1.44-3.42,1.72-5.09.97-2.26-1.01-3.03-3.7-2.5-5.67.1-.36.56-1.88,2.03-2.67"/>
    <path class="cls-6" d="M283.26,182.01s6.46-7.49,11.27-8.06c7.01-.83,8.84.92,11.39,4.5,0,0-4.66-3.71-9.58-2.97-4.71.7-13.07,6.54-13.07,6.54Z"/>
    <path class="cls-6" d="M259.48,180.46s-11.17-6.81-16.61-6.87c-7.93-.08-17.3,4.74-19.8,8.57,0,0,12.34-7.07,17.93-6.86,5.34.2,18.47,5.16,18.47,5.16Z"/>
    <path class="cls-6" d="M255.94,150.37c1.12.22.96,1.08,1.45,2.91.15.58.41,1.48.67,2.42.5,1.75-.88,3.5-2.7,3.39-3.27-.19-6.22-.52-8.4-.33-5.88.5-12.01.62-17.46,3.02-2.61,1.15-4.81,2.49-6.7,4.5-.6.63-2.02,3.07-3.22,2.86-.49-.09-.37-2.52-.36-2.77.27-4.91,3.6-7.82,8.01-10.14,8.98-4.75,18.66-4.5,28.71-5.86"/>
    <path class="cls-6" d="M310.89,157.81s-2.62-1.51-2.65-1.52c-5.66-3.29-11.73-5.13-18.05-6.19-3.2-.54-6.28,1.52-7.1,4.67,0,.02,0,.04-.01.06-.16.62-1,2.43-.75,3.04.05.12.15.21.25.29,1.07.88,2.47,1.3,3.86,1.41,1.72.14,3.4-.23,5.11-.16,4.91.21,10.1.37,14.57,2.48.35.17,2.25,1.11,2.59,1.29,2.15-2.13,2.74-4.8,2.18-5.37Z"/>
    <g>
      <path class="cls-6" d="M276,213.11c-2.3,1.28-5.84,1.04-8.2-.4-.52-.32-2.24.02-1.51.47,3.12,1.91,8.19,2.01,11.16.36.29-.17.24-.4-.14-.52-.39-.13-1-.09-1.31.08"/>
      <path class="cls-6" d="M265.28,212.52c-1.57-.73-3.32-1.1-5.07-1.21-.26-.01-.58.09-.77.26-.15.14-.17.32.02.43.81.46,1.84.64,2.78.61.3,0,.69-.09.85-.35.15-.24-.14-.4-.37-.39-.78.03-1.57-.12-2.24-.5-.25.23-.5.46-.75.69,1.56.1,3.13.44,4.53,1.1.28.13.68.04.92-.12.18-.12.38-.38.1-.51"/>
      <path class="cls-6" d="M258.36,212.85c-2.04-.02-4.45-.89-5.48-2.45-1.55-2.35-.2-6.04,2.33-7.6.27-.17.12-.38-.16-.44-.37-.08-.8.07-1.08.25-2.2,1.36-3.59,4.38-3.22,6.6.35,2.07,2.32,3.5,4.77,4.06.73.17,1.5.28,2.27.28.31,0,.86-.1,1.01-.35.15-.25-.14-.36-.42-.36"/>
      <path class="cls-6" d="M279.72,211.99c-.11-.24.09-.4.25-.4.55,0,1.11-.16,1.57-.56.18.22.37.45.55.67-1.1.14-2.2.53-3.18,1.22-.19.14-.48.05-.66-.09-.13-.11-.28-.37-.08-.51"/>
      <path class="cls-6" d="M278.18,212.32c1.09-.77,2.32-1.19,3.55-1.34.18-.02.42.07.55.24.11.13.13.31,0,.43"/>
      <path class="cls-6" d="M283.96,212.21c1.33-.07,2.87-1.01,3.5-2.59.95-2.39-.01-5.19-1.69-6.68-.18-.16-.09-.38.09-.44.24-.08.52.05.71.22,1.46,1.3,2.43,3.43,2.25,5.66-.17,2.08-1.42,3.55-3,4.18-.47.19-.97.31-1.47.34-.2,0-.56-.08-.67-.32-.1-.25.08-.36.27-.37"/>
    </g>
    <path class="cls-17" d="M301.7,114.47c.79,1.18,1.38,3.53,1.83,4.68.13.17.1.42.23.59-1.61-4.15-2.85-8.34-6.83-13.08-13.99-16.69-30.58-21.54-51.52-23.75-2.21-.23-4.5-.39-6.78-.46-24.03-.72-48.07,8.12-61.23,22.53-6.45,7.06-10.38,12.67-13.35,21.92-2.7,8.4-5.15,19.51-3.95,28.01.71,5.04,2.96,21.44,5.96,25.66,1.92,2.7,6.08,6.9,11.26,17.05l15.81-.32c-.46-2.93-.53-14.98-1.18-17.94-4.63-21.25,1.37-43.54,1.37-43.54-.13-4.61,6.01-28.72,9.59-34.41,3.23-5.13,10.54-7.11,22.08-5.89,4.97.53,19.92,5.09,22.68,6.83.87.16,4.05.71,8.06,1.13,5.37.57,12.81.96,17.83-.36.65-.29,5.22-4.01,9.71-3.54,5.15.54,11.26,4.1,18.43,14.9Z"/>
    <path class="cls-17" d="M283.57,254.99c-.2-.02-.39-.08-.55-.18-3.11-1.92-3.39-3.05-4.89-3.36-.35-.07-.53-.19-1.6-.3-4.32-.46-6.95-.83-18.25,6.86-.23.16-15.39-1.27-15.69-1.29l-7.91-3.43c-1.33-.76-31.34-24.42-31.34-24.42-.47-.81-5.94-6.49-6.17-7.26-.09-.04-.18-.09-.28-.12-.03-.01-.11-.04-.19-.07-.01.05-.03.12-.04.16-.04.34-.02.69,0,1.03.11,1.47.33-8.1.82-6.71.75,2.14,1.3,5.01,1.97,7.17.23.76,3,11.41,3.3,12.15,3.4,1.96,24.66,28.74,36.93,34.33.79.18,1.6.46,8.21.8,12.41.64,24.35.24,36.41-3.69,3.15-1.03,5.63-3.37,6.82-6.36,3.37-8.53,10.8-27.49,12.38-40.12-3.14,7.39-9.75,23.21-14.31,33.99-.14.33-4.83.74-5.21.86"/>
    <path class="cls-8" d="M301.75,115.52c.06.09.24.47.5,1.13,1.27,1.66,1.22,3.02,2.32,4.78-1.71-4.79-3.26-9.53-7.65-14.77-13.99-16.69-30.58-21.54-51.52-23.75-2.21-.23-4.5-.39-6.78-.46-24.03-.72-48.07,8.12-61.23,22.53-6.45,7.06-10.38,12.67-13.35,21.92-2.7,8.4-5.15,19.51-3.95,28.01.71,5.04,2.96,21.44,5.96,25.66,1.92,2.7,6.08,6.9,11.26,17.05l15.81-.32c-.46-2.93-.53-14.98-1.18-17.94-4.63-21.25,1.37-43.54,1.37-43.54-.13-4.61,5.41-27.87,8.99-33.56,3.23-5.13,11.14-7.96,22.68-6.74,4.97.53,19.92,5.09,22.68,6.83.87.16,4.05.71,8.06,1.13,5.37.57,12.81.96,17.83-.36.65-.29,5.22-4.01,9.71-3.54,5.15.54,12.04,7.4,18.49,15.95Z"/>
    <path class="cls-17" d="M186.54,222.5c-8.49,13.08-15.77-8.34-15.77-8.34-9.26-10.65-9.49-22.21-9.33-30.11.16-7.91,8.86-7.97,8.86-7.97,7.4.65,10.78,4.54,17.47,29.31"/>
    <polygon class="cls-29" points="931.66 949.75 871.73 949.75 885.39 1024.92 931.66 1024.92 931.66 949.75"/>
    <path class="cls-5" d="M946.35,737.55l-1.13-.43-2-79.6c-2.96-60.07-19.2-103.67-53.76-107.05-23.53,0-103.11-1.09-111.03,5-2.2-104.35,9.15-187.61-161.32-187.61l-187.91.45c-2.01,46.06-7.47,91.97-14.26,137.57-8.51,57.2,8.15,114.05-.56,171.21-4.38,28.73,33.44,57.67,29.73,86.49-3.78,29.36-7.6,58.72-11.31,88.09-5.65,44.66-11.07,89.39-15.72,134.2h536.44v-93.1c13.36-4.37,22.64-18.81,22.71-35.32v-66.4c-.04-25.45-10.82-42.05-29.88-53.51Z"/>
    <path class="cls-5" d="M468.48,985.88c.52-13.08,1.03-26.16,1.43-39.24.92-30.1,54.21-60.19,54.21-90.3l-6.98-487.32-404.34-1.14c-87.55.02-102.12,83.25-104.31,187.61-7.92-6.09-87.5-5-111.03-5-34.56,3.38-50.8,46.98-53.76,107.05l-2,79.6-1.13.43c-19.05,11.46-29.84,28.07-29.88,53.51v66.4c.07,16.51,9.35,30.95,22.71,35.32v93.1H468.48Z"/>
    <path class="cls-21" d="M-204.61,895.91H947.33c.8,0,1.75-.19,2.42-.65.49-.34.52-.71-.19-.71H-202.38c-.8,0-1.75.19-2.42.65-.49.34-.52.71.19.71h0Z"/>
    <path class="cls-21" d="M-198.32,738.23c.67,0,1.33,0,2,0h5.82c3.17-.02,6.34-.02,9.51-.03l12.89-.02,16.18-.03,19.23-.03,22.02-.04c8.27-.01,16.55-.03,24.82-.04,9.04-.02,18.08-.03,27.13-.05l29.56-.05c10.48-.02,20.96-.04,31.44-.06,11.14-.02,22.27-.04,33.41-.06,11.69-.02,23.39-.04,35.08-.06s24.3-.04,36.44-.06l37.95-.07c12.93-.02,25.86-.05,38.8-.07,13.31-.02,26.61-.05,39.92-.07,13.45-.02,26.91-.05,40.36-.07,13.66-.02,27.32-.05,40.97-.07,13.76-.02,27.51-.05,41.27-.07,13.79-.02,27.57-.05,41.36-.07l41.26-.07c13.61-.02,27.22-.05,40.84-.07,13.53-.02,27.06-.05,40.58-.07l39.65-.07c13-.02,26-.05,38.99-.07,12.56-.02,25.12-.04,37.67-.07s24.33-.04,36.5-.06c11.67-.02,23.35-.04,35.02-.06s22.16-.04,33.24-.06,21.04-.04,31.56-.06c9.77-.02,19.53-.03,29.3-.05,9.07-.02,18.13-.03,27.2-.05,8.19-.01,16.38-.03,24.57-.04,7.33-.01,14.65-.03,21.98-.04,6.37-.01,12.74-.02,19.12-.03l16.01-.03c4.28,0,8.56-.02,12.84-.02l9.32-.02h5.71c.61-.01,1.22-.01,1.84-.01.77,0,1.86-.22,2.24-.99.35-.7-.3-1.23-.99-1.22s-1.33,0-2,0h-5.82c-3.17.02-6.34.02-9.51.03l-12.89.02-16.18.03-19.23.03-22.02.04c-8.27.01-16.55.03-24.82.04-9.04.02-18.08.03-27.13.05-9.85.02-19.71.03-29.56.05-10.48.02-20.96.04-31.44.06-11.14.02-22.27.04-33.41.06-11.69.02-23.39.04-35.08.06s-24.3.04-36.44.06l-37.95.07c-12.93.02-25.86.05-38.8.07-13.31.02-26.61.05-39.92.07-13.45.02-26.91.05-40.36.07-13.66.02-27.32.05-40.97.07-13.76.02-27.51.05-41.27.07-13.79.02-27.57.05-41.36.07s-27.51.05-41.26.07c-13.61.02-27.22.05-40.84.07-13.53.02-27.06.05-40.58.07s-26.43.05-39.65.07-26,.05-38.99.07c-12.56.02-25.12.04-37.67.07s-24.33.04-36.5.06c-11.67.02-23.35.04-35.02.06s-22.16.04-33.24.06l-31.56.06c-9.77.02-19.53.03-29.3.05-9.07.02-18.13.03-27.2.05-8.19.01-16.38.03-24.57.04-7.33.01-14.65.03-21.98.04l-19.12.03-16.01.03c-4.28,0-8.56.02-12.84.02-3.11,0-6.21.01-9.32.02h-5.71c-.61.01-1.22.01-1.84.01-.77,0-1.86.22-2.24.99-.35.7.3,1.23.99,1.22h0Z"/>
    <path class="cls-21" d="M847.99,553.36c-10.79-.4-22.1.69-32.18,4.78-4.55,1.84-9.04,4.49-12.16,8.35-3.92,4.83-5.92,11.45-7.26,17.42-2.82,12.55-2.63,25.62-2.98,38.43-.36,13.49-.73,26.98-1.09,40.47-.42,15.59-.84,31.17-1.26,46.76-.23,8.52-.56,17.04-.69,25.56,0,.13,0,.25-.01.38-.04,1.64,3.41,1.05,3.45-.33.19-6.91.37-13.82.56-20.74.4-14.93.81-29.85,1.21-44.78.38-14.23.77-28.45,1.15-42.68.26-9.56.34-19.18,1.06-28.72.52-6.92,1.47-13.87,3.63-20.49,1.7-5.21,4-10.36,8.44-13.76,3.97-3.04,8.74-4.85,13.54-6.09,5.2-1.35,10.57-2.01,15.94-2.26,2.47-.11,4.93-.12,7.4-.03.78.03,1.87-.23,2.24-1,.35-.72-.31-1.24-1-1.27h0Z"/>
    <path class="cls-21" d="M774.24,557.77c-8.01,11.35-16.15,22.98-20.4,36.36-4.18,13.15-4.4,27.18-4.85,40.85-.74,22.18-1.11,44.38-1.53,66.57-.21,11.42-.42,22.85-.66,34.27-.02.83,3.4.28,3.42-.92.46-21.53.8-43.06,1.26-64.59.23-10.73.47-21.47.8-32.2.4-12.88.46-26,3.37-38.61,3.6-15.64,12.63-28.86,21.74-41.78.45-.64-.39-.82-.88-.82-.69,0-1.84.27-2.27.89h0Z"/>
    <path class="cls-21" d="M9.2,555.86c7.84,10.41,15.89,21.08,20.12,33.55s4.37,25.12,4.82,37.78c.74,20.81,1.11,41.63,1.53,62.44.21,10.69.41,21.38.66,32.07.04,1.81,3.51,1.31,3.47-.25-.47-20.56-.81-41.12-1.28-61.68-.23-10.09-.48-20.17-.82-30.25-.41-12.28-.52-24.86-3.69-36.81-3.84-14.45-12.83-26.6-21.68-38.37-.95-1.26-4.21.09-3.13,1.52h0Z"/>
    <path class="cls-22" d="M349.93,349.17l-8.57-36.72s-15.6-15.88-31.28-20.92c-9.34-3-32.58-15.95-38.13-17.7,6.15,10.41,2.6,22.16-2.47,26.18-7.1,5.62-12.06,6.04-21.11,6.27-8.68.23-17.44-1.74-25.59-4.61-15.25-5.38-32.89-25.02-36.44-41.63l-14.14,7.08s-48.35,18.76-55.77,21.78c-7.42,3.02,8.81,197.18,8.81,197.18l-24.3,65.04c-1.7,7.88-36.16,76.77-9.8,138.89,0,0,164.93-50.64,182.21-50.89,20.08-.29,52.09-.44,57.18-10.02,5.09-9.58,19.41-279.93,19.41-279.93Z"/>
    <path class="cls-22" d="M373.27,535.06c19.94,10.96,29.9-51.37,45.33-68.08-5.29-5.32-12.81-23.27-15.97-29.88-6.4-13.42-12.51-26.97-18.58-40.54-7.61-17.02-14.64-34.31-23-50.99-4.21-8.4-8.76-16.63-13.85-24.53-4.36-6.76-8.61-13.33-15.23-18.04-6.67-4.75-14.26-8.54-21.9-11.47l-38.13,74.93s22.41,53.48,41.37,65.58c.62.39,8.05,17.97,10.56,22.9.54,1.06-7.57,2.9-7.44,4.08,1.04,9.11,12.43,51.63,56.83,76.03Z"/>
    <path class="cls-17" d="M490.85,329.82l-36.45,26.44s-67.24,47.19-81.32,56.25c.96,3.33,13.45,12.38,14.49,15.69,5.88,18.85-11.44,71.64-11.44,71.64,57.07,14.21,87.47-74.87,95.35-88.83,8.56-15.17,38.21-54.18,38.21-54.18l-18.84-27.01Z"/>
    <path class="cls-25" d="M492.22,638.32c-.05.02-.1.04-.16.04,0-.13,0-.27,0-.4.05.12.11.24.16.36Z"/>
    <path class="cls-18" d="M396.32,720.52c.74-4.51,1.72-8.98,2.88-13.39,2.62-9.97,6.18-19.68,10.41-29.07,4.34-9.66,9.43-18.99,15.24-27.84,3.95-6.01,8.26-11.82,12.94-17.29-93.58-20.25-297.54-10.27-297.54-10.27,0,0-68.15,2.94-48.48,77.3,17.53,66.25,231.17,41.01,303.51,20.85.35-.1.68-.2,1.02-.3Z"/>
    <path class="cls-35" d="M303.88,847.01s-.05,0-.08-.05c-.1-.18-.08-.14.08.05Z"/>
    <path class="cls-18" d="M416.31,649.92s6.45-36.77-25.42-45.81c-43.41-12.31-256.3,19.38-256.3,19.38l281.72,26.43"/>
    <path class="cls-25" d="M241.69,409.96c.06,0,.12,0,.18.02.03.23.13.46-.05.67-.04-.23-.08-.46-.13-.69Z"/>
    <path class="cls-25" d="M253.37,475.13s-.1.06-.16.08c-.03-.14-.05-.29-.08-.43.08.12.16.24.24.36Z"/>
    <path class="cls-11" d="M294.81,400.69c-.08,0-.16-.01-.24-.02.08-.04.15-.09.23-.13.03.05.04.1.01.15Z"/>
    <path class="cls-11" d="M260.7,406.63c.07-.06.15-.11.22-.17.03.04.05.08.08.12-.1.02-.2.03-.29.05Z"/>
    <path class="cls-11" d="M294.07,400.76c-.11.02-.21.04-.32.05.09-.12.2-.13.32-.05Z"/>
    <path class="cls-17" d="M131.51,324.18s17.2,2.21,15.56,52.19c-1.67,50.79-23.07,157.73-23.07,157.73,0,0,118.3,18.27,140.82,26.42l9.52,33.46c-40.61,7.94-166.63,20.08-194.58,5.22,0,0-25.69-9.87-28.42-35.54-3.02-28.34,16.45-189.51,16.45-189.51"/>
    <path class="cls-10" d="M342.74,509.51c1.14-15.71,1.89-31.45,2.65-47.18.91-18.87,1.73-37.75,2.4-56.64.27-7.78.53-15.56.67-23.34.02-.87-2.16-.41-2.17.28-.27,15.75-.94,31.49-1.6,47.23-.79,18.88-1.66,37.76-2.7,56.62-.43,7.77-.87,15.54-1.43,23.3-.06.85,2.12.43,2.17-.28h0Z"/>
    <path class="cls-33" d="M125.93,534.09c-12.19-1.59-25.18,3.53-32.76,13.26-.61.79,2.05.47,2.5-.11,6.73-8.64,17.62-13.32,28.51-11.9.58.08,1.49-.11,1.94-.52.38-.35.4-.65-.19-.73h0Z"/>
    <path class="cls-10" d="M412.68,455.1c-6.15.47-11.01,4.85-14.51,9.6s-6.41,10.29-7.27,16.04c-.1.65,2.06.26,2.15-.34.77-5.14,3.28-10.19,6.16-14.45,2.81-4.16,7.14-9.42,12.56-9.84.36-.03,1.29-.14,1.45-.55s-.13-.5-.54-.46h0Z"/>
    <g>
      <polygon class="cls-31" points="467.49 591.93 327.6 566.22 347.34 352.83 487.23 378.55 467.49 591.93"/>
      <rect class="cls-12" x="333.19" y="386.31" width="135.96" height="26.25" transform="translate(38.5 -35.26) rotate(5.29)"/>
      <rect class="cls-12" x="331.13" y="420.66" width="135.96" height="2.14" transform="translate(40.55 -34.97) rotate(5.29)"/>
      <rect class="cls-12" x="330.5" y="427.49" width="135.96" height="2.14" transform="translate(41.17 -34.88) rotate(5.29)"/>
      <rect class="cls-12" x="329.87" y="434.33" width="135.96" height="2.14" transform="translate(41.8 -34.8) rotate(5.29)"/>
      <rect class="cls-12" x="329.24" y="441.16" width="135.96" height="2.14" transform="translate(42.43 -34.71) rotate(5.29)"/>
      <rect class="cls-12" x="328.68" y="447.13" width="135.96" height="2.14" transform="translate(42.97 -34.63) rotate(5.29)"/>
      <rect class="cls-12" x="328.05" y="453.96" width="135.96" height="2.14" transform="translate(43.6 -34.55) rotate(5.29)"/>
      <rect class="cls-12" x="358.73" y="461.73" width="38.88" height="2.24" transform="translate(44.24 -32.87) rotate(5.29)"/>
      <rect class="cls-12" x="358.07" y="468.88" width="38.88" height="2.24" transform="translate(44.9 -32.78) rotate(5.29)"/>
      <rect class="cls-12" x="357.4" y="476.04" width="38.88" height="2.24" transform="translate(45.56 -32.69) rotate(5.29)"/>
      <rect class="cls-12" x="400.25" y="501.7" width="59.5" height="2.24" transform="translate(48.15 -37.47) rotate(5.29)"/>
      <rect class="cls-12" x="399.59" y="508.86" width="59.5" height="2.24" transform="translate(48.8 -37.38) rotate(5.29)"/>
      <rect class="cls-12" x="398.92" y="516.02" width="59.5" height="2.24" transform="translate(49.46 -37.29) rotate(5.29)"/>
      <rect class="cls-12" x="356.74" y="483.2" width="38.88" height="2.24" transform="translate(46.21 -32.59) rotate(5.29)"/>
      <rect class="cls-12" x="356.16" y="489.45" width="38.88" height="2.24" transform="translate(46.79 -32.51) rotate(5.29)"/>
      <rect class="cls-12" x="355.5" y="496.61" width="38.88" height="2.24" transform="translate(47.44 -32.42) rotate(5.29)"/>
      <rect class="cls-12" x="354.84" y="503.77" width="38.88" height="2.24" transform="translate(48.1 -32.33) rotate(5.29)"/>
      <rect class="cls-12" x="354.18" y="510.93" width="38.88" height="2.24" transform="translate(48.76 -32.24) rotate(5.29)"/>
      <rect class="cls-12" x="353.52" y="518.08" width="38.88" height="2.24" transform="translate(49.41 -32.15) rotate(5.29)"/>
      <rect class="cls-12" x="352.85" y="525.24" width="38.88" height="2.24" transform="translate(50.07 -32.06) rotate(5.29)"/>
      <rect class="cls-12" x="352.27" y="531.49" width="38.88" height="2.24" transform="translate(50.64 -31.98) rotate(5.29)"/>
      <rect class="cls-12" x="351.61" y="538.65" width="38.88" height="2.24" transform="translate(51.3 -31.89) rotate(5.29)"/>
      <rect class="cls-12" x="350.95" y="545.81" width="38.88" height="2.24" transform="translate(51.96 -31.79) rotate(5.29)"/>
      <rect class="cls-12" x="350.29" y="552.97" width="38.88" height="2.24" transform="translate(52.61 -31.7) rotate(5.29)"/>
      <rect class="cls-12" x="349.71" y="559.22" width="38.88" height="2.24" transform="translate(53.19 -31.62) rotate(5.29)"/>
      <rect class="cls-12" x="349.05" y="566.38" width="38.88" height="2.24" transform="translate(53.84 -31.53) rotate(5.29)"/>
      <rect class="cls-12" x="322.58" y="457.93" width="24.23" height="107.34" transform="translate(48.55 -28.66) rotate(5.29)"/>
      <rect class="cls-12" x="402.24" y="466.76" width="59.5" height="28.97" transform="translate(46.17 -37.75) rotate(5.29)"/>
      <rect class="cls-12" x="395.09" y="557.45" width="59.5" height="2.24" transform="translate(53.26 -36.76) rotate(5.29)"/>
      <rect class="cls-12" x="394.43" y="564.61" width="59.5" height="2.24" transform="translate(53.92 -36.67) rotate(5.29)"/>
      <rect class="cls-12" x="393.77" y="571.77" width="59.5" height="2.24" transform="translate(54.57 -36.58) rotate(5.29)"/>
      <rect class="cls-12" x="397.09" y="522.51" width="59.5" height="28.97" transform="translate(51.28 -37.04) rotate(5.29)"/>
    </g>
    <g>
      <rect class="cls-34" x="309.81" y="379.1" width="167.1" height="214.3" transform="translate(46.46 -34.17) rotate(5.29)"/>
      <rect class="cls-12" x="332.39" y="395.01" width="135.96" height="26.25" transform="translate(39.3 -35.15) rotate(5.29)"/>
      <rect class="cls-12" x="330.33" y="429.37" width="135.96" height="2.14" transform="translate(41.34 -34.86) rotate(5.29)"/>
      <rect class="cls-12" x="329.69" y="436.2" width="135.96" height="2.14" transform="translate(41.97 -34.77) rotate(5.29)"/>
      <rect class="cls-12" x="329.06" y="443.03" width="135.96" height="2.14" transform="translate(42.6 -34.69) rotate(5.29)"/>
      <rect class="cls-12" x="328.43" y="449.86" width="135.96" height="2.14" transform="translate(43.22 -34.6) rotate(5.29)"/>
      <rect class="cls-12" x="327.88" y="455.83" width="135.96" height="2.14" transform="translate(43.77 -34.52) rotate(5.29)"/>
      <rect class="cls-12" x="327.25" y="462.66" width="135.96" height="2.14" transform="translate(44.4 -34.44) rotate(5.29)"/>
      <rect class="cls-12" x="357.92" y="470.43" width="38.88" height="2.24" transform="translate(45.04 -32.76) rotate(5.29)"/>
      <rect class="cls-12" x="357.26" y="477.59" width="38.88" height="2.24" transform="translate(45.7 -32.67) rotate(5.29)"/>
      <rect class="cls-12" x="356.6" y="484.74" width="38.88" height="2.24" transform="translate(46.36 -32.57) rotate(5.29)"/>
      <rect class="cls-12" x="399.44" y="510.41" width="59.5" height="2.24" transform="translate(48.95 -37.36) rotate(5.29)"/>
      <rect class="cls-12" x="398.78" y="517.56" width="59.5" height="2.24" transform="translate(49.6 -37.27) rotate(5.29)"/>
      <rect class="cls-12" x="398.12" y="524.72" width="59.5" height="2.24" transform="translate(50.26 -37.18) rotate(5.29)"/>
      <rect class="cls-12" x="355.94" y="491.9" width="38.88" height="2.24" transform="translate(47.01 -32.48) rotate(5.29)"/>
      <rect class="cls-12" x="355.36" y="498.15" width="38.88" height="2.24" transform="translate(47.59 -32.4) rotate(5.29)"/>
      <rect class="cls-12" x="354.7" y="505.31" width="38.88" height="2.24" transform="translate(48.24 -32.31) rotate(5.29)"/>
      <rect class="cls-12" x="354.03" y="512.47" width="38.88" height="2.24" transform="translate(48.9 -32.22) rotate(5.29)"/>
      <rect class="cls-12" x="353.37" y="519.63" width="38.88" height="2.24" transform="translate(49.56 -32.13) rotate(5.29)"/>
      <rect class="cls-12" x="352.71" y="526.79" width="38.88" height="2.24" transform="translate(50.21 -32.04) rotate(5.29)"/>
      <rect class="cls-12" x="352.05" y="533.94" width="38.88" height="2.24" transform="translate(50.87 -31.95) rotate(5.29)"/>
      <rect class="cls-12" x="351.47" y="540.2" width="38.88" height="2.24" transform="translate(51.44 -31.87) rotate(5.29)"/>
      <rect class="cls-12" x="350.81" y="547.35" width="38.88" height="2.24" transform="translate(52.1 -31.77) rotate(5.29)"/>
      <rect class="cls-12" x="350.15" y="554.51" width="38.88" height="2.24" transform="translate(52.76 -31.68) rotate(5.29)"/>
      <rect class="cls-12" x="349.48" y="561.67" width="38.88" height="2.24" transform="translate(53.41 -31.59) rotate(5.29)"/>
      <rect class="cls-12" x="348.9" y="567.92" width="38.88" height="2.24" transform="translate(53.99 -31.51) rotate(5.29)"/>
      <rect class="cls-12" x="348.24" y="575.08" width="38.88" height="2.24" transform="translate(54.64 -31.42) rotate(5.29)"/>
      <rect class="cls-12" x="321.77" y="466.63" width="24.23" height="107.34" transform="translate(49.35 -28.54) rotate(5.29)"/>
      <rect class="cls-12" x="401.44" y="475.47" width="59.5" height="28.97" transform="translate(46.97 -37.64) rotate(5.29)"/>
      <rect class="cls-12" x="394.28" y="566.16" width="59.5" height="2.24" transform="translate(54.06 -36.65) rotate(5.29)"/>
      <rect class="cls-12" x="393.62" y="573.31" width="59.5" height="2.24" transform="translate(54.72 -36.56) rotate(5.29)"/>
      <rect class="cls-12" x="392.96" y="580.47" width="59.5" height="2.24" transform="translate(55.37 -36.47) rotate(5.29)"/>
      <rect class="cls-12" x="396.28" y="531.22" width="59.5" height="28.97" transform="translate(52.08 -36.93) rotate(5.29)"/>
    </g>
    <path class="cls-17" d="M263.81,559.18l2.48,20.66,2.69,15.57s26.39,1.46,33.84-.37c7.44-1.83,25.41-3.97,25.41-3.97-.64,2.28-.47,4.72.49,6.88,1.28,2.41,3.48,4.2,6.11,4.94l6.27-12.89c2.89,5.2,7.28.43,7.28.43l4.32-11.18c3.29,6.6,9.13.54,9.13.54l1.34-15.04c2.14,2.15,4.69,3.86,7.49,5.02,3.58,1.14,3.94-4.8,3.94-4.8l-15.76-21.08-35.69-5.74-53.37,20.6-5.96.41Z"/>
    <path class="cls-33" d="M337.3,545.08c2.29.34,4.56.84,6.79,1.49,2.5.7,5.27,1.46,8.1,2.56,2.69.97,5.26,2.24,7.68,3.78,1.22.71,2.11,1.87,2.47,3.23.27,1.06.46,2.14.58,3.23.51,2.09.56,4.26.15,6.37-.21,0-.43-2.28-1.25-6.09-.21-.94-.43-2.04-.73-3.05-.33-1.03-1.05-1.88-2.01-2.38-2.38-1.4-4.87-2.58-7.46-3.53-2.74-1.04-5.42-1.83-7.92-2.59-2.5-.76-4.69-1.46-6.55-1.83-2.02-.33-4.07-.33-6.09,0,1.83-1.23,4.09-1.66,6.24-1.19Z"/>
    <path class="cls-33" d="M333.13,558.61c3.59.82,8.68,1.43,14.19,3.05,1.47.32,2.86.97,4.05,1.89.84,1.09,1.5,2.3,1.98,3.59,1.01,2.05,1.48,4.33,1.37,6.61-.25,1.47-.63,2.92-1.13,4.32-.3.97-.58,1.52-.58,1.52,0,0-.12-.61,0-1.64.12-1.04.61-2.53.61-4.26-.03-2.13-.58-4.22-1.58-6.09-.45-1.08-1.03-2.11-1.74-3.05-1.03-.7-2.19-1.2-3.41-1.46-5.33-1.55-10.45-2.38-14.01-3.5-2-.41-3.89-1.22-5.57-2.38,1.97.34,3.91.81,5.82,1.4Z"/>
    <path class="cls-33" d="M342.05,585.98c.5-1.39.58-2.89.21-4.32-.54-1.66-1.86-2.94-3.53-3.44-1.78-.55-3.65-.81-5.51-.76l-4.81-.18c-1.22-.06-2.35-.21-3.05-.21-.7,0-.97.21-1.1.18s.15-.58,1.01-.79c1.08-.19,2.17-.29,3.26-.3l4.81-.15c2.06-.15,4.13.1,6.09.73,2.15.68,3.81,2.4,4.42,4.57.35,1.71.15,3.5-.58,5.09-1.25,2.59-2.44,3.72-2.59,3.72-.24-.12.67-1.61,1.37-4.11Z"/>
    <path class="cls-22" d="M117.52,464.39c7.83,1,15.69,1.6,23.55,1.97l8.52-29.14s19.8-68.68,7.31-102.42c-12.49-33.74-35.51-48.49-35.51-48.49,0,0-44.54,14.77-55.77,75.4-3.11,16.77-7.6,55.42-10.82,84.83,12.69,5.93,41.2,15.12,62.72,17.86Z"/>
    <path class="cls-17" d="M481.69,351.42c-2.05-2.59-3.5-5.73-3.38-9.09.11-3.13,5.01-5.03,7.03-7.37l5.51-5.13s9.72-10.66,14-13.12c4.28-2.45,23.32-7.26,24.27-7.17.95.09,19.5-16.05,23.33-13.47,3.84,2.58,5.32,6.82,1.6,11.8-3.72,4.98-18.02,11.74-16.34,14.74,1.46,2.21,3.33,4.11,5.51,5.61,0,0,4.09-5.82,8.52-6.25,4.43-.43,6.82,4.82,6.82,4.82l-1.18,2.79,4.91-1.55s9.55-11.06,14.99-8.45c2.57-2.17,5.57-3.79,8.79-4.76,2.81-.6,5.58,1.19,6.19,4.01.11.49.14,1,.1,1.51l-23.26,24.31-40.93,17.21s-14.95-1.03-18.87-1.04c-1.22,0-6.25,2.53-12.65,6.01-2.58-1.78-5.08-3.68-7.39-5.8-2.71-2.48-5.24-5.27-7.26-8.38.08-.39.01-.83-.3-1.22Z"/>
    <path class="cls-33" d="M530.29,315.19c-1.9-1.49-3.57-2.52-3.43-2.93.14-.41,2.28.06,4.37,1.7,2.09,1.64,3.08,3.6,2.74,3.82-.34.27-1.78-1.1-3.68-2.59Z"/>
    <path class="cls-33" d="M570.38,337.81c2.62-3.46,6.21-8.37,10.28-14.08l.38-.52-.41-.49c-.78-1.06-1.63-2.08-2.54-3.04-1.18-1.02-2.71-1.52-4.26-1.41-2.34.26-4.54,1.29-6.24,2.92-1.56,1.35-2.98,2.85-4.26,4.48-2.34,3.12-4.19,6.03-5.75,8.49-3.1,4.97-4.83,8.12-4.62,8.22,2.07-2.36,3.96-4.88,5.64-7.53,1.65-2.31,3.63-5.22,5.97-8.2,1.24-1.51,2.61-2.9,4.11-4.15,1.43-1.37,3.26-2.24,5.23-2.49,1.1-.11,2.2.24,3.05.96.73.68,1.57,1.89,2.32,2.78l-.03-1c-4,5.74-7.4,10.78-9.78,14.41-1.39,1.86-2.58,3.86-3.55,5.97,1.67-1.61,3.17-3.4,4.46-5.33Z"/>
    <path class="cls-33" d="M522.95,347.98c3.68-2.6,7.68-4.72,11.9-6.31l.15-.07.07-.15c1.21-1.33,2.31-2.76,3.28-4.28,1.03-1.66,1.86-3.24,2.98-4.87,1.11-1.65,2.31-3.24,3.6-4.76,1.22-1.6,2.8-2.89,4.6-3.78,1.53-.73,3.32-.71,4.83.06,1.47.78,2.69,1.95,3.54,3.39l.02-.84c-4.67,7.66-8.67,14.34-11.44,19.11-.95,1.91-2.29,3.6-3.93,4.97-.63.46-1.21.98-1.73,1.56.02.17.78-.15,2.04-1.03,1.84-1.24,3.36-2.89,4.45-4.82,3.04-4.63,7.22-11.19,12.01-18.84l.2-.44-.24-.41c-.98-1.75-2.45-3.18-4.23-4.12-1.97-1-4.29-1.04-6.29-.1-8.35,4.83-10.38,13.64-14.83,18.3l.28-.18c-4.3,1.75-8.32,4.12-11.93,7.05-.98.81-1.87,1.72-2.66,2.71-.5.74-.7,1.17-.7,1.17.16.13,1.27-1.41,4.04-3.29Z"/>
    <path class="cls-33" d="M490.85,329.82s-.23,7.92,8.36,14.47c0,0-12.84-4.96-8.36-14.47Z"/>
    <path class="cls-17" d="M359.9,982.08l-.31,8.23c13.3,7.72,35.23,18.72,44.64,22.09,12.13,4.35,14.35,5.48,28.75,11.05,5.63,2.18,8.04,3.03,14.4,3.48,6.38.45,12.43-2.56,17.17,2.49,3.13,3.34,1.8,8.31-1.78,11.36-3.59,3.06-8.86,4.57-14.05,5.54-5.19.97-10.55,1.53-15.45,3.17-1.85.62-3.66,1.4-5.66,1.64-4.52.53-9.54-1.78-13.5,0-1.12.5-1.99,1.29-3.11,1.8-1.67.76-3.7.82-5.63.73-13.95-.68-16.57-1.54-29.28-5.05-12.54-3.46-12.95-3-26.01-5.58-6.2-1.23-26.1,1.5-39.87-6.58-7.78-4.57-1.91-13.67-1.15-20.02,1.73-14.42,3.15-29.27,2.43-36.11,0,0,36.75,3.55,48.43,1.77Z"/>
    <path class="cls-17" d="M383.52,989.35c1.87,5.64-.21,18.31-1.82,24.65-1.85,7.3,4.2,12.78,13.39,15.8,7.72,2.54,11.67,2.36,20.01,1.92,10.9-.58,22.53-2.4,33.43-2.97,9.35-.49,38.72-2.86,47.91-1.5,14.31,2.12,23.09.24,29.39-1.76,1.74-.56,2.84-.48,3.64-1.65,2.08-3.03,1.78-6.36-2.95-8.88-5.96-3.17-13.01,1.31-18.58-2.44-.99-.67-1.91-1.42-3.05-1.89-2.23-.93-4.91-.69-7.43-.65-12.58.2-11.68-4.56-28.21-8.14-4.85-1.05-31.79-9.73-36.3-11.51l1.32-25.56h-54.14l3.37,24.58"/>
    <path class="cls-18" d="M495.2,681.18c-10.67,54.39-34.55,218.13-50.73,284.39,0,0-70.33,14.24-78.54-.66,0,0-90.21-348.97-46.07-361.21,32.53-9.02,132.74-7.18,152.12,3.41,23.27,12.71,31.62,31.24,23.22,74.08Z"/>
    <path class="cls-18" d="M442.35,651.89s-11.64-.36-27.72,2.3c2.05-6.74,2.33-11.59,2.33-11.59-1.77-1.37-3.63-2.77-5.57-4.18-8.9,3.36-17.45,7.44-25.65,12.02-9.53,5.33-18.61,11.33-27.13,17.91-8.21,6.34-15.91,13.26-22.83,20.74-1.96,2.12-3.85,4.29-5.66,6.52.29.04.58.08.86.12-26.06,34.82-13.81,102.24-21.46,166.17-5.61,46.88-13.65,111.75-13.65,111.75,9.73,14.08,94.92,7.22,94.92,7.22,17.88-86.21,51.56-328.98,51.56-328.98Z"/>
    <path class="cls-24" d="M300.42,928.7s13.33,6.22,44.41,6.6c31.08.38,51.6-3.19,51.6-3.19l-5.34,48.03s-18.45,5.17-55.5,4.51c-33.7-.6-41.09-9.61-41.09-9.61l5.92-46.33Z"/>
    <path class="cls-24" d="M401.34,924.64c-1.26,9.46-2.9,18.87-4.41,28.29-1.12,6.97-1.64,14.1-2.82,21.08,35.48.41,53.16-4.54,53.16-4.54l5.34-48.03s-20.37,3.55-51.26,3.2Z"/>
    <path class="cls-3" d="M318.88,735.81c2.79-16.14,9.08-31.52,18.38-45,.39-.57-.34-1-.81-1.06-.69-.08-1.41.25-1.8.82-9.39,13.61-15.73,29.2-18.55,45.49-.22,1.29,2.57.9,2.77-.25h0Z"/>
    <path class="cls-3" d="M356.52,605.73c14.55-1.32,29.51-1.44,43.83,1.8,8.89,2.01,17.62,5.45,24.89,11.05,5.53,4.26,9.79,9.6,13.36,15.55,3.29,5.48,5.85,11.24,6.37,17.67.48,5.86-.12,11.88-.94,17.69-1.67,11.87-4.28,23.62-6.77,35.34-2.35,11.05-4.85,22.07-6.94,33.18-3.55,18.86-7.08,37.72-10.53,56.59-3.39,18.52-6.71,37.06-9.91,55.62-3.14,18.22-6.17,36.45-9.04,54.71-2.81,17.94-5.46,35.9-7.9,53.89-.59,4.35-1.17,8.71-1.73,13.06-.14,1.1,2.73.58,2.86-.37,2.35-18.16,4.94-36.29,7.69-54.39,2.8-18.35,5.77-36.68,8.88-54.99,3.16-18.65,6.45-37.28,9.83-55.89,3.45-19.05,6.99-38.08,10.56-57.11,2.35-12.49,4.86-24.93,7.53-37.35,2.67-12.39,5.39-24.8,7.5-37.3.89-5.28,1.56-10.56,1.82-15.9.31-6.22-.2-12.25-2.66-18.02-2-4.69-4.72-9.21-7.75-13.31-1.89-2.55-4.01-4.92-6.35-7.06-6.27-5.74-13.95-9.72-22.02-12.28-12.62-4-26.08-4.92-39.25-4.52-4.32.13-8.63.41-12.94.8-.48.04-1.55.36-1.63.96-.09.64.83.62,1.23.59h0Z"/>
    <path class="cls-32" d="M134.98,315.41c4.84.8,8.7,4.26,11.64,8.01,3.2,4.07,5.59,8.79,7.33,13.65,2.81,7.9,3.64,16.48,4.13,24.79,1.3,22.06-.44,44.36-2.87,66.28-1.34,12.07-3,24.1-5.05,36.07l.94-.67c-2.31.6-4.66,1.1-7.03,1.46-1.62.25-3.3.49-4.94.37-.57-.04-1.1-.15-1.67-.15-6.41-.05-12.84-.51-19.22-1.15-9.16-.93-18.15-2.37-27.03-4.79-7.73-2.11-15.35-4.63-22.9-7.32-4.24-1.51-8.47-3.07-12.65-4.74l.22.38c.46-4.61.92-9.21,1.38-13.82l-1.95.66c9.37,4.31,19.16,7.87,29.03,10.83,8.18,2.45,16.46,4.22,24.94,5.2,8.74,1.01,17.54,1.49,26.34,1.62,4.7.07,9.41.08,14.11-.13.4-.02,1.26-.13,1.44-.59.16-.42-.14-.64-.58-.62-12.04.54-24.23.11-36.22-1.05-8.69-.84-17.2-2.35-25.61-4.71-7.17-2.01-14.22-4.46-21.15-7.17-3.55-1.39-7.1-2.83-10.57-4.42-.46-.21-1.89,0-1.95.66-.46,4.61-.92,9.21-1.38,13.82-.02.17.05.31.22.38,10.94,4.37,22.13,8.25,33.45,11.49,15.74,4.5,32.22,6.45,48.57,6.69,2.25.03,4.4.22,6.78-.09,2.91-.38,5.81-.98,8.65-1.72.29-.08.88-.3.94-.67,3.84-22.44,6.49-45.15,7.71-67.89.58-10.71.83-21.46.34-32.18-.39-8.49-1.07-17.26-3.61-25.42-1.7-5.45-4.26-10.76-7.71-15.32-3.16-4.18-7.41-7.99-12.75-8.87-.48-.08-1.19.04-1.54.41-.29.31-.3.67.2.75h0Z"/>
    <path class="cls-16" d="M269.83,223.67c-9.27.05-24.3-.96-24.3-.96,0,0,3.14,20.59,24.63,20.48,21.5-.11,19.63-20.12,19.63-20.12,0,0-10.69.56-19.96.61Z"/>
    <path class="cls-6" d="M269.92,223.67c-4.41.02-22.18-.63-22.18-.63,0,0,6.42,12.42,22.37,12.34,17.29-.09,18.52-12.32,18.52-12.32l-18.7.61Z"/>
    <path class="cls-15" d="M270.11,224.33c-4.41.02-17.83-.65-17.83-.65,0,0,4.85,4.8,18.08,4.73,13.22-.07,17.4-4.77,17.4-4.77l-17.65.69Z"/>
    <path class="cls-16" d="M290.38,221.36c-.45-.11-1.17-.03-3.28-.21-3.53-.3-4.52-.71-7.07-.9-4.36-.32-7.12,1.47-9.02,1.48-1.9,0-4.67-1.75-9.03-1.39-2.55.22-8.87,1.21-12.39,1.54-2.11.2-4.6-.64-5.05-.52-.63.16.62,4.93,24.44,4.81,23.83-.12,22.04-4.65,21.41-4.81Z"/>
    <g>
      <path class="cls-22" d="M278.47,274.38s22.5,31.72-23.19,40.13c-54.94,10.11-79.51-49.17-79.51-49.17l11.04-6.11s16.62,51.27,70.09,46.18c0,0,24.79-4.3,16.4-28.14l-2.24-6.36,7.42,3.47Z"/>
      <path class="cls-32" d="M277.39,274.67c3.12,4.41,5.2,10.09,5.51,15.47.26,4.63-1.06,9.19-4,12.81-4.58,5.63-11.83,8.43-18.66,10.14-8.46,2.12-17.32,2.78-25.95,1.43-7.17-1.12-14.07-3.57-20.39-7.1-10.78-6.02-19.76-14.94-26.92-24.94-2.57-3.6-4.93-7.35-7.04-11.23-.68-1.25-1.34-2.52-1.96-3.8-.31-.63-.54-1.57-.98-2.12-.06-.07-.08-.19-.12-.28l-.25.32c3.68-2.04,7.36-4.08,11.04-6.11l-1.92.26c1.31,4.03,3.3,7.91,5.4,11.58,4.71,8.25,10.84,15.77,18.29,21.69,9.98,7.92,22.14,12.45,34.84,13.28,3.81.25,7.65.18,11.46-.15.93-.08,1.8-.26,2.71-.49,3.39-.89,6.72-2.31,9.6-4.32,3.9-2.72,6.85-6.59,7.76-11.32,1.12-5.85-.88-11.35-2.8-16.79-.28-.79-.56-1.58-.84-2.37l-2.11.66c2.47,1.16,4.95,2.32,7.42,3.47.41.19,1,.03,1.4-.12.09-.03.99-.46.65-.62-2.47-1.16-4.95-2.32-7.42-3.47-.31-.14-2.3.11-2.11.66,1.64,4.65,3.66,9.33,3.94,14.31.29,5.17-1.48,10.09-5.26,13.66-2.6,2.46-5.99,4.22-9.29,5.25-.38.12-1.01.29-1.49.42-.14.03-.69.15-.3.07-.12.02-.24.06-.36.08-2.95.34-5.97.39-8.93.31-12.64-.35-24.88-4.38-35.07-11.91-7.69-5.69-14.04-13.06-18.96-21.24-1.66-2.76-3.17-5.61-4.48-8.55-.43-.96-.84-1.92-1.22-2.9-.19-.48-.31-1.11-.58-1.55-.03-.06-.05-.14-.07-.21-.17-.52-1.65.11-1.92.26-3.68,2.04-7.36,4.08-11.04,6.11-.06.03-.3.2-.25.32,2.21,5.32,5.28,10.37,8.49,15.13,6.92,10.22,15.63,19.46,26.2,25.96,13.44,8.27,29.17,11.01,44.69,8.38,12.14-2.06,28.98-7.27,30.86-21.65.54-4.12-.26-8.31-1.7-12.17-.88-2.35-1.98-4.79-3.44-6.85-.08-.11-.15-.22-.22-.33-.38-.53-2.35.34-2.17.58Z"/>
    </g>
  </g>
  <g id="Layer_2" data-name="Layer 2">
    <path class="cls-27" d="M182.11,199.35c-1.33-3.92-2.87-7.81-5-11.38-1.12-1.88-2.42-3.71-4.1-5.15-.65-.56-1.43-1.14-2.28-1.38-1-.28-1.73.66-2.29,1.36-2.26,2.8-2.83,6.45-2.48,9.95.06.62,1.52.28,1.45-.39-.27-2.71.03-5.51,1.38-7.91.46-.82,1.22-1.83,1.83-2.27l-.73.2c-.36-.06.43.18.33.13.58.27,1.11.65,1.59,1.07,2.28,1.94,3.9,4.7,5.23,7.34,1.44,2.84,2.59,5.82,3.61,8.83.21.62,1.66.22,1.45-.39h0Z"/>
    <path class="cls-27" d="M179.44,200.78c-2.16-.18-3.6,1-3.64,3.16-.04,1.99.81,4.05.54,6.02-.02.18-.11.36-.13.53,0,.04-.09.12-.09.15l-.07.09.47-.08c-.02.06-.9-1.08-.95-1.17-.78-1.51-1.2-3.23-1.56-4.88-.45-2.1-.68-3.89-.38-5.98.33-2.33,1.19-5.68,3.74-6.5.84-.27.68-.98-.19-.7-2.6.83-3.99,3.07-4.65,5.61-.4,1.54-.7,3.31-.5,4.91.28,2.18.72,4.39,1.46,6.47.34.94.83,2.51,1.86,2.94.79.33,1.8-.11,2.2-.84.43-.78.25-1.87.15-2.71-.16-1.32-.46-2.64-.46-3.97,0-.57.04-1.23.32-1.74.31-.54.71-.54,1.3-.5.54.04,1.54-.72.57-.8h0Z"/>
    <path class="cls-13" d="M1089.68,414.56s-11.47,13.11-12.51,14.89c-6.46,11.08-27.13,40.46-39.43,48.69-16.52,11.05-28.55,11.3-38.37-10.29-10.87-23.88,55.23-108.48,55.23-108.48l35.07,55.18Z"/>
    <path class="cls-13" d="M1017.18,484.78c-6.31.28-16.77-3.25-25.28-13.32-25.79-30.5-62.78-88.43-81.62-120.1l14.99-2,5.44-11.79,95.28,90.11"/>
    <path class="cls-23" d="M1087.85,292.48s-27.14,14.84-36.02,35.88c-13.4,31.75-24.53,45.91-24.53,45.91l-5.79,7.08c.04,3.17,14.91,25.65,29.49,26.1l8.01,6.09,28.85-121.07Z"/>
    <path class="cls-13" d="M1184.26,1064.06c-3.66-25.84,13.21-142.87,4.02-208.91-11.79-84.69,18.21-160.03,26.83-195.27,17.85-72.97,26.81-122.33,6.36-153.45l-174.1,12.73,2.2,34.11c-9.18,38.05,11.37,175.72,14.82,278.82l34.4,217.52s7.79,8.61,24.83,1.9c0,0,1.36,13.97,6,13.83,25.88-.78,18.1,8.85,54.64-1.29Z"/>
    <path class="cls-27" d="M1128.09,1062.52c-.19-1.7-.38-3.4-.57-5.1-.52-4.65-1.04-9.3-1.56-13.96-.77-6.93-1.55-13.85-2.32-20.78-.95-8.49-1.89-16.98-2.84-25.46-1.05-9.45-2.11-18.89-3.16-28.34l-3.25-29.09c-1.03-9.27-2.07-18.54-3.1-27.81-.91-8.17-1.82-16.34-2.73-24.51-.71-6.39-1.43-12.78-2.14-19.18-.44-3.93-.88-7.86-1.31-11.79-.66-5.9-1.33-11.79-1.71-17.72-.32-4.91-.49-9.83-.52-14.75-.02-3.82.21-7.64.17-11.45,0-.73-.05-1.45-.07-2.18-.16-4.6-.31-9.2-.47-13.8-.26-7.66-.52-15.32-.78-22.98-.32-9.31-.63-18.62-.95-27.93-.33-9.67-.66-19.34-.99-29.02-.29-8.63-.59-17.26-.88-25.89-.21-6.22-.42-12.43-.64-18.65-.08-2.42-.03-4.89-.25-7.31-.19-2.13-.8-4.3-1.36-6.34-1.23-4.46-2.98-8.87-5.58-12.72-2.72-4.01-6.54-7.25-11.35-8.33-.49-.11-1.2.01-1.54.41-.29.34-.27.76.23.87,9.71,2.17,14.27,13.07,16.43,21.76.63,2.54.99,4.86,1.08,7.44.16,4.72.32,9.43.48,14.15l.79,23.11c.32,9.34.64,18.68.95,28.01.33,9.66.66,19.32.99,28.98.29,8.54.58,17.09.87,25.63.21,6.12.42,12.24.63,18.35.08,2.44.27,4.9.22,7.34-.19,9.46-.16,18.88.54,28.32.32,4.3.79,8.57,1.27,12.85.29,2.6.58,5.2.87,7.79.59,5.33,1.19,10.66,1.78,15.99.83,7.4,1.65,14.8,2.48,22.21.98,8.81,1.96,17.61,2.95,26.42,1.07,9.58,2.14,19.16,3.21,28.75,1.07,9.61,2.14,19.22,3.22,28.82l3.01,27.02c.86,7.74,1.73,15.47,2.59,23.21l1.94,17.4c.36,3.2.71,6.39,1.07,9.59.05.41.09.83.14,1.24.09.82,2.27.32,2.17-.58h0Z"/>
    <path class="cls-36" d="M1092.9,816.27c20.93,3.19,46.9,1.16,68.01-1.17,20.58-2.27,40.05-4.1,53.83-8.46,6.26-48.71,7.48-114.2,13.12-137.24,17.85-72.97,13.83-122.33-6.62-153.45l-174.1,12.73-1.04,34.11c-7.57,31.36-3.08,152.19,2.75,243.76,9.49,1.59,34.55,8.26,44.06,9.71Z"/>
    <path class="cls-6" d="M1137.01,206.3c3.36,1.52,5.53,5.3,5.16,8.97-.38,3.66-3.28,6.93-6.87,7.73,1.82,4.14,3.68,8.5,3.28,13-.41,4.5-3.94,9.06-8.46,8.92,1.78,3.36,3.62,6.97,3.26,10.76-.36,3.79-3.95,7.5-7.62,6.49,1.33,3.04,2.69,6.26,2.33,9.55-.36,3.3-3.12,6.58-6.42,6.26,1.96,3.34,3.14,7.62,1.29,11.01-1.85,3.39-7.75,4.17-9.33.64-.94-2.1,0-4.52.95-6.62,1.13-2.52,2.25-5.04,3.38-7.56-3.81-4.46-2-12.41,3.36-14.78-4.37-5.47-1.69-14.94,4.9-17.31-4.64-6.59-2.35-16.97,4.63-21-5.03-6.07-2.09-16.8,5.33-19.46"/>
    <path class="cls-6" d="M1200.99,209.05c3.51,1.11,6.13,4.6,6.19,8.29s-2.43,7.27-5.9,8.5c2.3,3.89,4.67,8,4.8,12.52.13,4.52-2.83,9.47-7.34,9.86,2.17,3.12,4.43,6.49,4.52,10.29.1,3.8-3.03,7.92-6.79,7.35,1.68,2.86,3.41,5.89,3.45,9.21.04,3.32-2.31,6.91-5.63,6.98,2.34,3.08,4.03,7.19,2.59,10.78-1.44,3.59-7.2,5.06-9.19,1.74-1.18-1.98-.53-4.49.15-6.69.82-2.64,1.63-5.28,2.45-7.91-4.31-3.97-3.47-12.08,1.57-15.08-4.99-4.91-3.46-14.63,2.8-17.77-5.39-5.99-4.36-16.57,2.1-21.4-5.72-5.42-4.08-16.44,2.97-19.95"/>
    <path class="cls-13" d="M1197.77,228.43s-8.31,23.15-3.78,41.4c.78,3.14,15.96,17.93,15.96,17.93l-18.82,15.55c-14.18,6.95-28.21,16.44-43.58,12.81-8.71-2.06-31.44-3.48-38.16-6.88l-.14-25.07,20.43-8.72c1.24-3.6,1.8-28.93,1.8-28.93"/>
    <path class="cls-6" d="M1224.95,203.34c3.61.71,6.6,3.9,7.07,7.55.47,3.65-1.61,7.49-4.92,9.1,2.72,3.61,5.53,7.43,6.16,11.91.63,4.47-1.77,9.73-6.2,10.62,2.5,2.86,5.12,5.96,5.63,9.73.52,3.77-2.13,8.21-5.93,8.06,1.99,2.66,4.04,5.48,4.45,8.77.4,3.29-1.53,7.12-4.82,7.56,2.67,2.8,4.8,6.7,3.77,10.42-1.03,3.73-6.6,5.83-8.94,2.75-1.39-1.83-1.03-4.4-.59-6.66.52-2.71,1.04-5.42,1.56-8.14-4.73-3.47-4.79-11.62-.11-15.16-5.51-4.33-5.06-14.16.81-17.97-6.02-5.36-6.17-15.98-.29-21.5-6.28-4.75-5.87-15.88.75-20.16"/>
    <path class="cls-6" d="M1230.37,236.18c3.61.71,6.6,3.9,7.07,7.55s-1.61,7.49-4.92,9.1c2.72,3.61,5.53,7.43,6.16,11.91.63,4.47-1.77,9.73-6.2,10.62,2.5,2.86,5.12,5.96,5.63,9.73.52,3.77-2.13,8.21-5.93,8.06,1.99,2.66,4.04,5.48,4.45,8.77s-1.53,7.12-4.82,7.56c2.67,2.8,4.8,6.7,3.77,10.42-1.03,3.73-6.6,5.83-8.94,2.75-1.39-1.83-1.03-4.4-.59-6.66.52-2.71,1.04-5.42,1.56-8.14-4.73-3.47-4.79-11.62-.11-15.16-5.51-4.33-5.06-14.16.81-17.97-6.02-5.36-6.17-15.98-.29-21.5-6.28-4.75-5.87-15.88.75-20.16"/>
    <path class="cls-6" d="M1221.09,203.61c3.51,1.11,6.13,4.6,6.19,8.29.06,3.68-2.43,7.27-5.9,8.5,2.3,3.89,4.67,8,4.8,12.52.13,4.52-2.83,9.47-7.34,9.86,2.17,3.12,4.43,6.49,4.52,10.29.1,3.8-3.03,7.92-6.79,7.35,1.68,2.86,3.41,5.89,3.45,9.21.04,3.32-2.31,6.91-5.63,6.98,2.34,3.08,4.03,7.19,2.59,10.78-1.44,3.59-7.2,5.06-9.19,1.74-1.18-1.98-.53-4.49.15-6.69.82-2.64,1.63-5.28,2.45-7.91-4.31-3.97-3.47-12.08,1.57-15.08-4.99-4.91-3.46-14.63,2.8-17.77-5.39-5.99-4.36-16.57,2.1-21.4-5.72-5.42-4.08-16.44,2.97-19.95"/>
    <path class="cls-6" d="M1212.87,205.91c3.51,1.11,6.13,4.6,6.19,8.29.06,3.68-2.43,7.27-5.9,8.5,2.3,3.89,4.67,8,4.8,12.52.13,4.52-2.83,9.47-7.34,9.86,2.17,3.12,4.43,6.49,4.52,10.29.1,3.8-3.03,7.92-6.79,7.35,1.68,2.86,3.41,5.89,3.45,9.21.04,3.32-2.31,6.91-5.63,6.98,2.34,3.08,4.03,7.19,2.59,10.78-1.44,3.59-7.2,5.06-9.19,1.74-1.18-1.98-.53-4.49.15-6.69.82-2.64,1.63-5.28,2.45-7.91-4.31-3.97-3.47-12.08,1.57-15.08-4.99-4.91-3.46-14.63,2.8-17.77-5.39-5.99-4.36-16.57,2.1-21.4-5.72-5.42-4.08-16.44,2.97-19.95"/>
    <path class="cls-26" d="M1178.83,250.75s-6.05,24.79-48.61,21.5c0,0,.58-5.03.58-6.63l.22-.6,47.8-14.27Z"/>
    <path class="cls-13" d="M1190.04,243.23c-12.86,11.77-31.11,25.15-50.26,26.26-16.23.94-20.97-4.17-22.94-6.73-10.8-14.07-17.37-27.91-20.39-43.42-.82-4.21-.5-8.63.23-13.12,1.1-6.72,3.69-19.57,4.25-26.05,1.42-16.5,10.16-30.02,20.63-42.94,21.82-26.92,61.4-23.01,77.31-13.37,18.59,11.27,25.49,31.04,24.66,51.23-.27,6.58-1.56,12.64-3.76,18.14-3.09,2.79-5.83,5.88-8.23,9.2"/>
    <g>
      <path class="cls-6" d="M1122.73,130.66s-5.3,9.52-15.89,28.71c2.74-6.17,4.84-15.64,11.15-24,22.03-29.19,77.93-19.31,93.77-9.04,18.52,12.02,23.72,32.85,22.74,54.62-.4,8.84-.6,14.49-3.95,21.52-.13.08-1.84,1.54-1.84,1.54,0,0-18.03,1.6-24.97,11.74l.7-9.37s.07-5.8-2.52-27.69c0,0-.05-3.45-4.71-17.66-4.67-14.21-10.54-18.73-10.54-18.73,0,0-28.33-7.62-35.19-8.26-6.86-.64-28.74-3.38-28.74-3.38Z"/>
      <path class="cls-6" d="M1122.56,130.65c-.81,1.45-1.61,2.9-2.42,4.36-2.42,4.37-4.84,8.74-7.26,13.11-2.07,3.75-4.14,7.5-6.21,11.25l.34.02c1.89-4.28,3.2-8.81,5.03-13.12,2.05-4.82,4.65-9.42,8.15-13.35,5.04-5.65,11.61-9.68,18.68-12.29,7.36-2.72,15.21-3.99,23.03-4.35s15.4.17,22.97,1.41c6.45,1.05,12.87,2.6,18.97,4.95,2.31.89,4.58,1.9,6.72,3.15,3.72,2.18,7.12,5.03,10.03,8.2,6.35,6.9,10.23,15.63,12.16,24.74,2.09,9.89,2,20.17,1.11,30.2-.21,2.42-.55,4.83-1.16,7.18-.31,1.21-.68,2.39-1.13,3.56-.22.57-.45,1.14-.7,1.7-.19.43-.33.89-.66,1.21-.26.25-.56.47-.84.7-.2.17-.64.41-.76.65-.06.11.18,0,.06-.02-.07,0-.15.02-.22.02-.75.08-1.51.19-2.25.31-6.64,1.09-13.62,3.22-18.91,7.52-1.42,1.15-2.69,2.48-3.73,3.99h.36c.15-2,.3-3.99.45-5.98.09-1.16.24-2.34.25-3.5.04-2.56-.25-5.16-.46-7.7-.27-3.34-.6-6.67-.95-10.01-.35-3.35-.8-6.7-1.12-10.06-.1-1.07-.33-2.13-.56-3.17-.67-3.01-1.53-5.97-2.43-8.92-2.28-7.46-4.8-15.14-9.67-21.38-.72-.92-1.55-2.07-2.54-2.74-.5-.34-1.3-.4-1.87-.55-4.87-1.29-9.74-2.55-14.63-3.76-5.42-1.34-10.86-2.72-16.37-3.68-1.86-.32-3.74-.48-5.62-.68-2.98-.32-5.95-.67-8.92-1.02-5.26-.62-10.51-1.27-15.77-1.92-.31-.04-.61-.08-.92-.11-.16-.02-.38.21-.13.24,3.93.49,7.86.98,11.8,1.45,5.64.68,11.29,1.38,16.94,1.93,1.97.19,3.91.61,5.85,1.01,2.79.58,5.57,1.23,8.35,1.9,5.51,1.32,11.01,2.72,16.49,4.16,1.39.37,2.78.73,4.17,1.1.2.05.24.06.33.12.34.24.64.58.92.88,1.52,1.58,2.8,3.41,3.94,5.28,2.16,3.56,3.83,7.41,5.19,11.34,1.39,4.02,2.64,8.11,3.73,12.22.48,1.82.95,3.65,1.24,5.51.23,1.46.34,2.89.51,4.4.47,4.12.92,8.24,1.31,12.37.35,3.73.71,7.47.81,11.22.01.39,0,.77-.02,1.16-.18,2.37-.35,4.75-.53,7.12-.05.61-.09,1.22-.14,1.83-.01.18.3.08.36,0,4.37-6.33,12.45-9.27,19.68-10.81,1.18-.25,2.37-.47,3.57-.64.48-.07,1.05-.05,1.52-.19.36-.11.68-.5.95-.73.29-.25.59-.49.88-.74.31-.26.42-.63.59-1,.99-2.22,1.76-4.53,2.28-6.9,1.1-5.1,1.22-10.43,1.37-15.62.14-4.91-.03-9.84-.66-14.71-1.2-9.31-4.12-18.52-9.61-26.22-4.41-6.18-10.39-11.37-17.32-14.51-5.63-2.54-11.66-4.21-17.7-5.44-7.42-1.51-15-2.31-22.57-2.33-7.82-.02-15.69.8-23.24,2.91-7.21,2.02-14.15,5.28-19.87,10.17-3.24,2.78-6.01,6.05-8.25,9.69-2.81,4.55-4.72,9.54-6.52,14.55-.74,2.05-1.46,4.11-2.35,6.11-.08.18.28.14.34.02,3.32-6.02,6.65-12.04,9.98-18.06,1.71-3.09,3.43-6.19,5.14-9.28.26-.46.51-.92.77-1.38.09-.17-.28-.15-.34-.02Z"/>
    </g>
    <path class="cls-6" d="M1157.07,194.42c2.02-.53,4.14.44,5.24,1.48.26.24.95.94,1.16,1.98.27,1.33-.59,2.69-1.73,3.43-1.52.99-3.78.9-5.39.04-2.19-1.17-2.59-3.49-1.76-5.03.15-.28.85-1.46,2.48-1.89"/>
    <path class="cls-6" d="M1147.34,199.29s7.88-6.97,14.97-6.03c9.97,1.32,11.59,6.24,13.38,8.93,0,0-5.58-6.49-13.31-7.36-7.01-.79-15.03,4.46-15.03,4.46Z"/>
    <path class="cls-6" d="M1112.17,188.2c-1.78-1.03-4.1-.65-5.49.06-.33.17-1.2.65-1.73,1.6-.67,1.21-.26,2.73.6,3.74,1.15,1.35,3.35,1.84,5.16,1.43,2.46-.56,3.56-2.68,3.24-4.37-.06-.31-.36-1.62-1.79-2.46"/>
    <path class="cls-6" d="M1121.84,195.68s-4.14-8.55-9.85-9.29c-8.03-1.05-10.64,3.32-12.76,5.49,0,0,6.09-4.95,12.27-3.99,5.61.87,10.33,7.79,10.33,7.79Z"/>
    <path class="cls-6" d="M1100.34,175.75s.1-.59.08-.64c.95-.84,2.1-1.52,3.39-2.09,6.36-2.85,9.77-3.19,20.41-2.16l.04.24c.25,1.4.11.62.36,2.02.19,1.07.38,2.14.56,3.2-3.22-.36-5.59-.96-7.63-1-4.06-.08-8.79-.73-12.63.65-1.25.45-2.74,1.06-3.89,2.07-.18-.93-.5-1.37-.69-2.3Z"/>
    <path class="cls-6" d="M1151.86,174.05c-.63,1.27-.28.56-.91,1.84-.48.97-.96,1.94-1.44,2.92,3.51.74,6.19.96,8.37,1.62,4.33,1.3,9.53,2.27,13.25,4.9,1.78,1.26,4.26,2.69,4.78,5.11.14.65.04,3.1.97,3.14.38.01.65-1.8.68-1.99.53-3.67-1.53-6.34-4.48-8.76-6.01-4.92-9.54-6.4-21.12-9"/>
    <g>
      <path class="cls-6" d="M1127.12,221.15c1.72,1.21,4.57,1.36,6.58.45.45-.2,1.79.23,1.16.51-2.66,1.2-6.72.81-8.94-.75-.22-.16-.15-.33.15-.39.32-.06.81.02,1.04.19"/>
      <path class="cls-6" d="M1135.74,221.68c1.32-.43,2.75-.55,4.15-.48.21.01.46.12.59.28.1.12.11.26-.05.33-.69.29-1.53.33-2.27.22-.24-.04-.54-.14-.65-.36-.1-.2.14-.3.33-.27.62.09,1.27.05,1.84-.18.18.2.36.41.54.61-1.25-.07-2.54.06-3.71.44-.23.08-.54-.03-.73-.18-.14-.11-.27-.33-.03-.41"/>
      <path class="cls-6" d="M1141.24,222.58c1.63.17,3.63-.28,4.59-1.41,1.45-1.69.72-4.96-1.16-6.41-.2-.16-.07-.31.16-.33.3-.02.63.13.84.29,1.63,1.27,2.45,4.01,1.96,5.71-.46,1.59-2.16,2.52-4.17,2.74-.6.06-1.23.08-1.84.01-.25-.03-.68-.16-.78-.37-.1-.21.14-.27.37-.24"/>
      <path class="cls-6" d="M1124.25,219.93c.11-.18-.03-.32-.16-.33-.44-.05-.87-.23-1.21-.58-.17.16-.33.31-.5.47.87.21,1.71.62,2.43,1.25.14.13.38.09.53-.01.12-.07.25-.26.11-.39"/>
      <path class="cls-6" d="M1125.45,220.32c-.8-.7-1.75-1.15-2.72-1.38-.14-.03-.34.02-.46.14-.1.09-.13.23-.03.33"/>
      <path class="cls-6" d="M1120.85,219.7c-1.05-.18-2.2-1.05-2.56-2.35-.54-1.96.47-4.06,1.95-5.07.16-.11.11-.29-.03-.35-.18-.09-.42,0-.59.11-1.28.88-2.25,2.46-2.3,4.22-.05,1.65.82,2.91,2.02,3.55.36.19.75.34,1.14.4.16.03.46,0,.56-.19.1-.19-.03-.29-.18-.32"/>
    </g>
    <path class="cls-7" d="M1123.11,118.31c3.74-1.56,9.53-.36,9.53-.36,0,0,5.21-6.66,12.33-9.71,7.11-3.05,16.33,1.97,16.33,1.97,0,0,3.27-4.41,11.29-5.32,8.02-.92,15.62,6.63,15.62,6.63,0,0,9.1-5.11,17.65.56,7.2,4.78,9.41,11.11,9.41,11.11,16.64,1.73,20.53,14.5,19.84,27.88,2.36,1.21,4.93,2.94,6.18,5.18,6.79,12.2-6.19,46.9-13.47,52.79l-.62-2.02,1.36-27.19c-.96,2.58-1.63,4.13-1.63,4.13l-8.15,20.75-16.86-61.63s-66.9-12.12-74.69-11.59c-7.79.53-16.35,16.77-16.35,16.77,1.46-6.83,3.3-26.23,12.25-29.96Z"/>
    <path class="cls-13" d="M1123.24,136.03c9.95-13.24,22.35-14.54,40.79-14.49,18.44.04,42.37,7.17,51.88,26.88,4.19,8.67,4.13,19.73,2.76,29.4-1.16.66-2.24,1.51-3.19,2.54-3.16,3.4-6.09,7.01-9.25,10.4-2.94,3.16-6.51,5.57-9.37,8.88-.48.55-.83,1.16-1.11,1.8-.82-.33-1.62-.75-2.4-1.28-3.54-2.42-6.17-6.12-8.59-9.59-2.46-3.54-4.78-7.14-7.62-10.4-3.39-3.89-6.7-7.85-10.17-11.68-7.09-7.82-14.97-14.92-24.81-19.03-7.72-3.23-15.94-4.18-24.19-4.99,1.69-3.15,3.46-6.04,5.25-8.43Z"/>
    <g>
      <path class="cls-6" d="M1190.62,164.44c-.58,1.04-1.17,2.12-1.3,3.3-.12,1.18.34,2.52,1.4,3.05.54.27,1.19.33,1.63.74,1.44,1.34-1.17,3.76-.41,5.58.58,1.38,2.69,1.39,3.55,2.62,1.44,2.05-1.63,5.53.29,7.13,1.1.91,3.19.38,3.8,1.67.27.58.06,1.27-.13,1.88-.55,1.75-.78,4.02.72,5.07,1.47,1.04,4.1.46,4.75,2.15.32.83-.11,1.8.16,2.65.36,1.12,1.76,1.53,2.92,1.42,1.17-.11,3.26-2.03,4.43-1.96,2.34.14,3.36,3.82,5.68,3.46,1.64-.26,2.89-2,2.62-3.64-.27-1.64-1.98-2.89-3.62-2.68-.64.08-1.27.35-1.91.26-2.13-.31-2.01-3.85-3.93-4.83-.48-.24-1.05-.31-1.45-.67-.92-.84-.18-2.53-.93-3.53-.82-1.09-2.78-.58-3.65-1.64-1.2-1.47,1.13-3.77.25-5.45-.72-1.35-2.98-1.19-3.69-2.54-.81-1.52,1.06-3.55.14-5-1.09-1.73-4.97-.82-4.93-2.86,0-.32.14-.63.15-.95.02-1.09-1.29-1.61-2.29-2.05-1.69-.75-3.09-2.14-3.85-3.83"/>
      <path class="cls-6" d="M1190.5,164.43c-1,1.79-2.37,4.92-.02,6.35.49.3,1.09.34,1.57.66.51.34.68.85.61,1.44-.12.96-.66,1.82-.88,2.76-.19.82-.09,1.63.56,2.21.72.64,1.73.83,2.5,1.4,1.8,1.32.47,3.74.22,5.47-.11.75-.06,1.55.52,2.1.67.64,1.66.67,2.51.87.5.12,1.04.3,1.31.77.42.72.03,1.57-.17,2.29-.29,1.03-.46,2.17-.2,3.22.56,2.22,2.77,2.02,4.52,2.63.46.16.89.41,1.14.84.4.7.14,1.51.17,2.26.04,1,.68,1.66,1.61,1.94.8.24,1.63.22,2.39-.13.94-.43,1.76-1.09,2.71-1.49,2.01-.85,3.3,1.63,4.63,2.67,1.43,1.12,3.29.49,4.2-1,1.12-1.84.12-4.11-1.87-4.76-.45-.15-.93-.2-1.41-.14-.73.09-1.47.44-2.21.17-.9-.33-1.32-1.35-1.69-2.15s-.69-1.61-1.32-2.2c-.82-.76-2.17-.63-2.41-1.93-.18-.94.12-2.12-.68-2.85-.71-.65-1.78-.58-2.64-.89-2.43-.88-.18-3.65-.36-5.31-.25-2.24-3.56-1.58-4.04-3.61-.41-1.69,1.62-3.9-.29-5.19-.67-.45-1.51-.58-2.29-.75-.69-.15-1.74-.32-2-1.1-.17-.51.13-.99.09-1.49-.04-.42-.28-.76-.59-1.02-.86-.73-2.04-.99-2.97-1.64-1.12-.78-2-1.85-2.58-3.09-.05-.1-.3-.03-.25.07.48,1.03,1.16,1.95,2.03,2.69.93.79,2.01,1.14,3.04,1.74.45.26.93.61,1.04,1.15s-.21,1.03-.09,1.56c.13.58.66.86,1.18,1.04,1.48.51,4.11.45,3.96,2.66-.07,1.01-.62,1.95-.6,2.97.02.86.54,1.44,1.27,1.82.82.42,1.92.59,2.49,1.37.64.85.25,1.95-.05,2.85-.26.78-.63,1.73-.24,2.53s1.29.97,2.08,1.14c.5.1,1.05.2,1.47.51.55.42.64,1.1.67,1.75.04.86.01,1.81.85,2.29.44.25.96.31,1.38.6.39.26.68.64.92,1.04.46.76.73,1.62,1.18,2.38.35.6.83,1.12,1.53,1.27.5.11.99-.01,1.48-.12.83-.17,1.57-.19,2.34.2,1.11.55,1.9,1.71,1.8,2.97s-1.08,2.56-2.37,2.84c-1.9.41-3.03-1.98-4.36-2.9-.56-.38-1.24-.64-1.92-.48-.84.2-1.59.75-2.33,1.18-1.03.6-1.99.98-3.18.54-.56-.21-1.06-.6-1.26-1.18-.22-.67,0-1.37-.04-2.05-.16-2.14-2.81-1.86-4.28-2.45-1.18-.47-1.7-1.58-1.72-2.8s.45-2.23.64-3.39c.42-2.56-2.86-1.68-4.04-2.88-1.28-1.3.12-3.69.24-5.2.07-.78-.09-1.56-.68-2.12-.66-.63-1.58-.85-2.34-1.31-2.2-1.34-.21-3.49-.07-5.31.06-.79-.38-1.35-1.1-1.64-.6-.24-1.18-.37-1.64-.86-.42-.45-.65-1.07-.72-1.67-.19-1.48.58-2.87,1.28-4.12.07-.12-.19-.11-.24-.02h0Z"/>
    </g>
    <g>
      <path class="cls-6" d="M1195.75,154.66c-1.05.86-1.45,2.43-.95,3.69.51,1.26,1.88,2.12,3.23,2.01-.76,1.59.08,3.73,1.7,4.4.7.29,1.52.34,2.08.85,1.36,1.26-.07,3.97,1.31,5.21.52.47,1.3.56,1.81,1.03,1.05.98.32,2.84,1.05,4.08.88,1.52,3.44,1.37,4.23,2.93.56,1.1.05,2.73,1.06,3.44.53.37,1.32.3,1.75.78.52.58.18,1.48.1,2.26-.18,1.92,1.96,3.67,3.81,3.09-.08,1.3.41,2.62,1.31,3.55.93-1.17,1.87-2.39,2.25-3.84.38-1.45.04-3.19-1.2-4.03-.48-.32-1.07-.5-1.46-.93-.98-1.09-.12-3.12-1.18-4.14-.71-.68-2.04-.6-2.5-1.47-.22-.42-.16-.93-.19-1.4-.11-1.68-1.7-3.13-3.38-3.08-.48.01-.99.13-1.41-.1-1.21-.66.07-2.59-.41-3.88-.47-1.27-2.5-1.45-2.84-2.76-.11-.44,0-.9-.07-1.35-.11-.71-.65-1.26-1.16-1.75-2.64-2.55-5.37-5-8.18-7.36"/>
      <path class="cls-6" d="M1195.65,154.65c-1.18,1.03-1.59,2.83-.74,4.21.4.64,1.02,1.12,1.72,1.38.33.12.65.12.98.2.27.06.21,0,.17.25-.03.21-.11.4-.14.61-.16,1.38.57,2.86,1.84,3.46.88.42,2.03.39,2.55,1.35.34.63.31,1.39.3,2.08,0,.74-.06,1.56.31,2.23.43.77,1.28.86,1.95,1.32,1.45,1,.44,3.14,1.39,4.44.87,1.19,2.58,1.2,3.64,2.15.63.57.72,1.35.8,2.14.06.66.12,1.41.68,1.86.72.57,1.97.32,2.08,1.52.09,1-.39,1.84.03,2.82.61,1.43,2.24,2.26,3.74,1.84l-.14-.02c-.05,1.33.41,2.59,1.32,3.56.05.05.2,0,.23-.05,1.06-1.35,2.24-2.84,2.39-4.63.12-1.42-.42-2.78-1.68-3.49-.84-.47-1.42-.84-1.59-1.84-.11-.69-.04-1.41-.21-2.1-.14-.58-.47-1.01-1.01-1.28-.63-.32-1.48-.39-1.91-1.01-.47-.68-.17-1.67-.48-2.43-.26-.65-.73-1.21-1.3-1.6-.52-.35-1.13-.57-1.76-.58-.53-.01-1.17.17-1.63-.16-.28-.21-.39-.54-.41-.88-.05-1.23.72-2.59-.35-3.6-.47-.45-1.09-.71-1.61-1.09-.73-.55-.78-1.13-.81-2-.03-1.03-.76-1.69-1.45-2.35-.83-.8-1.68-1.59-2.53-2.38-1.76-1.62-3.56-3.2-5.39-4.74-.06-.05-.29.05-.24.09,1.59,1.34,3.15,2.7,4.68,4.09.74.67,1.47,1.35,2.19,2.03s1.53,1.31,2.08,2.11c.26.37.38.75.4,1.2s-.05.9.17,1.32c.25.48.74.78,1.19,1.06.54.33,1.17.67,1.47,1.26.32.66.12,1.45.01,2.13-.08.49-.19,1.09.08,1.53.33.54.98.53,1.54.49,1.75-.1,3.43,1.13,3.61,2.94.07.74-.05,1.48.63,1.96.48.34,1.08.42,1.6.69,1.53.78.79,2.63,1.32,3.93.34.84,1.18,1.03,1.85,1.51s1.09,1.31,1.22,2.15c.34,2.17-1.07,4.02-2.33,5.63l.23-.05c-.9-.97-1.35-2.22-1.3-3.54,0-.05-.13-.02-.14-.02-1.5.41-3.14-.66-3.57-2.11-.21-.71,0-1.35.07-2.06.05-.54-.03-1.07-.52-1.38s-1.16-.27-1.62-.67c-.5-.44-.55-1.17-.61-1.78-.11-1.17-.39-2.03-1.48-2.62-.96-.52-2.22-.73-2.93-1.64-.86-1.1-.26-2.6-.83-3.8-.58-1.2-2.28-1.02-2.7-2.39-.35-1.14.06-2.38-.28-3.52-.46-1.53-2.2-1.28-3.28-2.12-1.18-.92-1.62-2.61-1.01-3.97.02-.04-.06-.04-.07-.04-1.37.06-2.71-.76-3.19-2.07s-.04-2.69.95-3.56c.1-.09-.15-.07-.2-.02h0Z"/>
    </g>
    <g>
      <path class="cls-6" d="M1198.65,151.16c-.65,2.02.72,4.44,2.78,4.93.4.1.84.13,1.18.38.7.51.58,1.57.78,2.41.46,1.91,2.68,2.78,4.64,2.99,1.25.13,2.84.36,3.14,1.58.12.48-.02,1.01.18,1.47.52,1.21,2.83.87,3.1,2.16.12.59-.33,1.18-.24,1.78.19,1.27,2.19,1.1,3.06,2.04.4.43.51,1.06.6,1.64.27,1.79.55,3.58.82,5.37.07.44.18.95.58,1.14.68.33,1.31-.52,1.56-1.22,1.44-3.97,1.84-8.31,1.15-12.48-.17-1.04-.67-2.31-1.73-2.35-.35-.01-.73.12-1.03-.05-.5-.28-.33-1.02-.22-1.58.46-2.31-1.76-4.74-4.1-4.5-.63.06-1.38.25-1.82-.21-.29-.31-.31-.78-.45-1.17-.37-1.02-1.58-1.46-2.66-1.57-1.08-.11-2.22-.03-3.19-.53-1.21-.62-1.94-2.06-3.26-2.4-1.59-.41-3.52.93-4.81-.1"/>
      <path class="cls-6" d="M1198.52,151.18c-.36,1.22-.07,2.53.69,3.54.36.48.82.88,1.36,1.15.65.33,1.59.26,2.09.81.46.5.43,1.28.53,1.91s.37,1.22.82,1.7c.88.93,2.2,1.38,3.44,1.58,1.16.18,3.06.12,3.55,1.47.23.63-.06,1.37.42,1.93.34.39.87.55,1.34.72.45.15.98.29,1.3.65.62.69-.11,1.49,0,2.26.16,1.08,1.64,1.21,2.42,1.6.71.35,1.02.93,1.17,1.69.2,1.02.32,2.05.48,3.08.14.95.25,1.91.44,2.85.1.51.33,1.07.94,1.08,1.22.01,1.61-1.83,1.87-2.69.55-1.84.88-3.74,1-5.66.11-1.77.03-3.55-.24-5.3-.17-1.09-.56-2.47-1.84-2.6-.58-.06-1.22.1-1.29-.62-.03-.32.06-.64.11-.96.11-.68.05-1.36-.22-2.01-.48-1.17-1.52-2.12-2.75-2.44-.73-.19-1.37-.01-2.1,0-1.29.01-1.01-1.29-1.65-2.02-1.21-1.41-3.35-.84-4.93-1.3s-2.29-2.22-3.85-2.63-3.39.93-4.79-.09c-.07-.05-.3.05-.24.09,1.01.73,2.24.29,3.36.11.85-.14,1.62-.09,2.35.42.56.39,1.01.93,1.53,1.38,1.2,1.04,2.57.96,4.06,1.13.72.08,1.48.28,2.05.75.62.52.5,1.23.91,1.83.3.44.82.48,1.31.45.87-.06,1.62-.15,2.44.24,1.26.6,2.23,1.89,2.32,3.3.04.61-.23,1.21-.17,1.82s.49.71,1.02.71.89,0,1.27.39c.22.22.37.51.49.79.3.71.38,1.5.47,2.25.43,3.66.03,7.4-1.16,10.89-.14.4-.27.8-.53,1.15-.23.31-.58.69-1.08.36-.18-.12-.26-.35-.33-.54-.29-.83-.31-1.83-.44-2.7s-.27-1.79-.41-2.68c-.11-.73-.16-1.58-.68-2.15-.74-.81-2.13-.66-2.82-1.5-.54-.65.04-1.38.03-2.09-.01-.46-.27-.77-.65-1-.83-.49-2.23-.48-2.53-1.57-.17-.61.04-1.25-.36-1.8-.32-.44-.85-.67-1.36-.82-1.39-.39-2.81-.31-4.15-.96-.7-.34-1.35-.84-1.74-1.53-.36-.65-.35-1.36-.49-2.07-.13-.65-.43-1.12-1.08-1.33-.81-.26-1.5-.35-2.17-.92-1.17-1-1.72-2.64-1.29-4.13.02-.08-.23-.04-.25.04h0Z"/>
    </g>
    <g>
      <path class="cls-6" d="M1202.08,149.09c2.44,1.45,5.78-2.05,8.18-.54,1.16.73,1.79,2.51,3.16,2.43.63-.04,1.21-.51,1.83-.38,1.28.27.81,2.3,1.55,3.38.92,1.35,3.35.74,4.3,2.07.27.37.36.84.6,1.24.45.74,1.31,1.09,2.05,1.53.74.44,1.46,1.19,1.31,2.04,2.12-2.77,1.86-7.09-.58-9.58-.26-.27-.55-.53-.7-.87-.14-.34-.13-.72-.15-1.08-.12-1.84-1.3-3.58-2.97-4.37-.58-.28-1.25-.47-1.64-.98-.55-.73-.31-1.76-.54-2.64-.54-2.05-3.26-2.51-4.72-4.04-.61-.64-.99-1.46-1.55-2.14-.6-.73-1.41-1.28-2.31-1.57-.71-.23-1.62-.25-2.09.33-.32.4-.34.96-.57,1.43-.57,1.17-2.16,1.31-3.46,1.2-1.3-.11-2.83-.21-3.66.79-1.18,1.41.1,3.6-.34,5.39-.2.78-.72,1.47-.85,2.26-.11.73.13,1.47.37,2.17.42,1.24.84,2.48,1.26,3.72"/>
      <path class="cls-6" d="M1201.97,149.17c1.54.86,3.3.02,4.82-.49.91-.3,1.94-.62,2.89-.28,1.02.36,1.53,1.37,2.28,2.07.61.56,1.25.72,2.04.47.62-.19,1.35-.48,1.79.19.26.41.31.94.4,1.41.14.77.31,1.55,1,2.01.75.5,1.71.53,2.55.79.63.19,1.12.51,1.42,1.11s.47,1.14,1.03,1.58c.99.78,2.91,1.26,2.74,2.87-.01.13.23.04.27,0,1.13-1.51,1.59-3.41,1.4-5.29-.1-.95-.37-1.88-.81-2.73-.2-.39-.44-.76-.71-1.11-.33-.42-.8-.76-1.06-1.23-.29-.52-.2-1.12-.3-1.69-.08-.52-.25-1.02-.48-1.49-.42-.84-1.05-1.57-1.83-2.1-.9-.6-2.23-.75-2.54-1.95-.24-.91-.04-1.85-.55-2.7-.9-1.49-2.83-1.95-4.09-3.04-.85-.73-1.28-1.79-2.02-2.61-.67-.74-1.58-1.33-2.56-1.53-.66-.14-1.48-.08-1.94.48-.26.32-.33.73-.45,1.11-.23.69-.71,1.12-1.4,1.33-1.74.51-3.84-.51-5.43.62-1.93,1.37-.25,4.14-.82,5.99-.18.58-.53,1.1-.7,1.68-.2.65-.11,1.29.07,1.94.42,1.47.98,2.91,1.47,4.36.04.1.31.03.27-.07-.41-1.2-.82-2.4-1.22-3.6-.18-.53-.37-1.07-.42-1.62-.06-.71.2-1.3.49-1.94.38-.83.52-1.61.43-2.52s-.38-1.97-.16-2.93c.57-2.46,3.7-1.37,5.46-1.62.61-.09,1.26-.29,1.71-.73.24-.23.39-.51.5-.82.09-.27.14-.56.27-.82.27-.55.79-.76,1.39-.72,1.12.07,2.23.85,2.93,1.68.65.78,1.06,1.73,1.83,2.41,1.2,1.06,2.94,1.51,3.95,2.79.62.79.53,1.67.67,2.61s.64,1.39,1.46,1.75c1.86.83,3.28,2.3,3.5,4.41.06.57.02,1.12.37,1.61.3.41.71.74,1.02,1.14.65.84,1.09,1.84,1.31,2.87.46,2.09.04,4.33-1.24,6.06h.27c.12-1.14-.87-1.84-1.75-2.34-.55-.31-1.14-.61-1.52-1.13-.35-.48-.43-1.11-.84-1.55-.6-.65-1.55-.77-2.37-.95-1.1-.25-1.87-.69-2.15-1.85-.17-.72-.14-1.77-.76-2.29-.85-.71-1.84.32-2.74.11-1.04-.25-1.61-1.49-2.38-2.14-.59-.49-1.3-.68-2.06-.63-2.08.13-4.41,2.07-6.45.93-.09-.05-.34.07-.22.14h0Z"/>
    </g>
    <g>
      <path class="cls-6" d="M1194.54,148.13c-1.44-.89-1.78-3.15-.66-4.43.37-.42.91-.88.76-1.42-.07-.23-.25-.41-.41-.6-1-1.19-.72-3.21.56-4.08.27-.18.58-.33.78-.58.84-1.06-.74-2.99.31-3.83.89-.71,2.2.58,3.27.22,1.05-.35,1.14-1.95,2.14-2.42,1.48-.69,3.55,1.67,4.59.4.54-.66.02-1.71-.73-2.12-.75-.41-1.65-.43-2.46-.71-2.1-.71-3.27-2.91-5.04-4.24-1.85-1.39-4.24-1.77-6.53-2.1-.98-.14-2-.28-2.95-.03-1.48.4-2.62,1.8-2.71,3.33-.02.3-.01.63-.23.84-.13.12-.3.17-.47.21-.84.22-1.68.44-2.52.65-.32.08-.67.19-.85.46-.41.64.43,1.36,1.17,1.52.74.16,1.68.27,1.92.99.45,1.34-2.17,2.01-2.08,3.42.1,1.46,2.8,1.38,3.08,2.81.17.85-.7,1.6-.72,2.46-.02.89.83,1.55,1.65,1.9s1.75.59,2.31,1.28c.43.53.55,1.23.81,1.86.77,1.92,2.64,3.12,4.4,4.19"/>
      <path class="cls-6" d="M1194.66,148.08c-1.26-.84-1.7-2.64-.96-3.97.3-.54,1.19-1.08,1.08-1.79-.06-.37-.42-.63-.61-.93s-.32-.67-.38-1.03c-.12-.78.08-1.62.56-2.24.45-.58,1.34-.78,1.55-1.53.17-.59-.05-1.24-.17-1.82-.06-.29-.12-.58-.09-.88.06-.63.64-.95,1.24-.82,1.03.22,2.12.86,2.98-.09.43-.47.62-1.11,1.04-1.6.68-.8,1.67-.39,2.48-.06.73.3,1.71.79,2.45.22.5-.39.5-1.05.21-1.57-.37-.67-1.05-.94-1.76-1.12-.96-.24-1.86-.41-2.69-.99-.66-.46-1.22-1.05-1.77-1.64-1.23-1.32-2.43-2.46-4.15-3.1s-3.62-.93-5.44-1.1c-1.39-.13-2.77.1-3.78,1.14-.54.55-.91,1.25-1.04,2.01-.08.46.04.92-.39,1.19-.49.31-1.16.39-1.72.53s-1.44.21-1.88.66c-.49.5-.03,1.12.44,1.41.64.4,1.48.28,2.11.71s.58,1.08.16,1.6c-.58.71-1.98,1.36-1.78,2.47.19,1.1,1.77,1.3,2.51,1.88,1.49,1.16-.69,2.57-.01,3.94.83,1.68,3.31,1.3,4.13,3.04.38.81.54,1.65,1.07,2.4.46.67,1.06,1.23,1.7,1.72.68.52,1.41.98,2.14,1.42.06.04.27-.07.24-.08-1.45-.88-2.98-1.83-3.93-3.28-.47-.73-.62-1.57-1.01-2.33s-1.05-1.1-1.78-1.4c-.79-.32-1.65-.6-2.17-1.33-.58-.81-.08-1.57.26-2.35.55-1.27-.34-1.88-1.38-2.37-.98-.46-2.08-1.22-1.18-2.36.53-.67,1.93-1.31,1.77-2.33-.23-1.51-2.7-.69-3.18-2.06-.57-1.6,3.83-.93,4.08-2.41.14-.8.18-1.48.65-2.17.74-1.1,1.91-1.62,3.23-1.59,1.03.02,2.08.23,3.1.4.91.16,1.81.35,2.67.66,1.67.58,2.9,1.61,4.09,2.89,1.06,1.14,2.14,2.28,3.69,2.68.92.24,2.02.29,2.63,1.12.56.76.41,1.98-.77,1.85-1.1-.12-2.01-1.05-3.17-.86-1.08.17-1.35,1.2-1.91,1.98-1.03,1.43-2.44-.32-3.73.22-1.14.47-.53,1.87-.4,2.75.05.32.07.68-.06.98-.19.45-.63.62-.99.9-.52.39-.87.95-1.02,1.58s-.12,1.29.14,1.88c.32.73,1.17,1.18.55,2.02-.46.62-.95,1.03-1.12,1.81-.13.6-.08,1.24.14,1.82s.6,1.07,1.12,1.41c.06.04.27-.06.24-.08h0Z"/>
    </g>
    <g>
      <path class="cls-6" d="M1192.74,151.93c.05-2.11-3.03-2.46-4.6-3.88-1.19-1.08-1.55-2.96-2.94-3.78-1-.59-2.44-.59-3-1.6-.33-.59-.21-1.32-.38-1.97-.66-2.49-4.89-2.6-5.46-5.11-.51-2.26,2.51-4.57,1.33-6.57-.37-.62-1.08-1.01-1.36-1.67-.56-1.34.9-2.6,2.16-3.32,1.76-1.01,3.52-2.01,5.28-3.02-3.43-2.31-7.55-3.6-11.69-3.67-1.52-.02-3.12.14-4.38.99-1.26.86-2.02,2.59-1.36,3.96.19.4.49.75.62,1.18.56,1.88-2.39,3.92-1.16,5.45.29.35.74.54,1.02.91.8,1.06-.41,2.7.22,3.87.55,1.01,2.06.97,2.9,1.75.51.47.71,1.18,1.06,1.79.49.84,1.27,1.46,2.03,2.06,2.16,1.71,4.32,3.41,6.48,5.12,1.53,1.21,3.19,2.47,5.14,2.55.85,3.58,4.88,6.06,8.46,5.21"/>
      <path class="cls-6" d="M1192.87,151.9c-.01-1.23-1.04-1.87-2.03-2.38-1.31-.68-2.55-1.21-3.38-2.51-.75-1.17-1.27-2.48-2.65-3.03-.69-.28-1.52-.39-2.1-.89-.74-.64-.53-1.57-.76-2.43-.62-2.35-3.83-2.45-5.09-4.27-.81-1.18-.27-2.54.29-3.7.51-1.06,1.33-2.39.74-3.58-.38-.77-1.3-1.18-1.51-2.05-.25-1.05.66-1.95,1.42-2.51.9-.67,1.94-1.17,2.91-1.73,1.06-.6,2.11-1.21,3.17-1.81.01,0,.04-.03.02-.05-2.19-1.45-4.61-2.52-7.17-3.11-2.26-.53-4.84-.86-7.14-.34-1.86.42-3.81,1.86-3.59,3.99.11,1.12,1.13,1.83.85,3.03-.2.86-.76,1.6-1.13,2.39-.31.65-.53,1.41-.03,2.04.35.44.93.63,1.17,1.17.23.5.11,1.1.02,1.62-.15.86-.32,1.82.44,2.46s1.88.64,2.59,1.36c.43.43.61,1.02.89,1.54.3.55.7,1.02,1.16,1.44,1.05.96,2.23,1.8,3.35,2.68,1.18.93,2.35,1.86,3.53,2.78,1.04.82,2.08,1.68,3.26,2.3.58.3,1.2.54,1.85.65.33.06.53.04.68.38.11.26.18.53.29.79.46,1.03,1.19,1.93,2.07,2.63,1.71,1.36,3.96,1.96,6.11,1.49.1-.02.22-.14.05-.1-3.6.8-7.46-1.64-8.36-5.2,0-.02-.03-.02-.04-.02-2.07-.14-3.73-1.46-5.29-2.7-1.75-1.38-3.49-2.76-5.24-4.14-.78-.62-1.61-1.2-2.31-1.91-.71-.72-.95-1.6-1.51-2.39-.82-1.17-2.97-.96-3.34-2.47-.19-.75.12-1.52.18-2.26.07-.83-.23-1.27-.86-1.76-1.31-1.03-.44-2.31.18-3.48.27-.51.55-1.06.61-1.64.08-.82-.47-1.34-.75-2.05-.8-2.05,1.08-3.93,2.9-4.43,2.04-.56,4.42-.28,6.46.13s3.99,1.09,5.82,2.04c.42.22.83.45,1.23.69.16.09.44.21.55.35.24.3-.18.4-.44.55-.95.54-1.9,1.09-2.85,1.63-1.33.76-3.37,1.58-3.91,3.17-.56,1.63,1.6,2.25,1.66,3.76s-1.09,2.73-1.49,4.07c-.88,2.89,2.15,3.68,4,4.96.49.34.95.76,1.2,1.31.35.75.13,1.66.53,2.39.68,1.24,2.57,1.09,3.55,2.02,1.14,1.08,1.48,2.74,2.79,3.68,1.07.77,2.42,1.12,3.43,1.98.49.42.76.93.77,1.58,0,.04.25,0,.25-.07h0Z"/>
    </g>
    <g>
      <path class="cls-6" d="M1188.64,155.14c-2.53,1.35-6,.59-7.73-1.71-.58-.77-.97-1.67-1.63-2.37-1.91-2.03-5.45-1.84-7.25-3.97-.98-1.16-1.23-2.79-2.17-3.99-1.87-2.39-5.83-2.36-7.53-4.87-.43-.64-.69-1.41-1.24-1.95-.89-.86-2.31-.91-3.28-1.69-1.27-1.02-1.43-3.04-2.76-3.98-.79-.56-1.91-.66-2.52-1.41-1.06-1.31.15-3.6-1.01-4.84-.45-.48-1.16-.65-1.62-1.13-1.11-1.14-.07-3.1,1.25-3.99,1.68-1.13,3.72-1.57,5.7-1.98.46-.1.93-.19,1.39-.29,2.36-.49,5.2-.84,6.84.93.32.35.58.88.33,1.28-.13.21-.36.33-.58.44-1.62.81-3.23,1.62-4.85,2.43,1.37.53,1.4,2.45,1.05,3.87-.35,1.43-.75,3.16.32,4.17.54.51,1.4.74,1.66,1.43.2.54-.05,1.14,0,1.71.15,1.7,2.45,2.04,3.87,2.99,1,.66,1.62,1.75,2.36,2.69.86,1.09,1.9,2.01,2.94,2.92.94.83,1.88,1.65,2.82,2.48,2.62,2.31,5.25,4.62,8.02,6.76,1.94,1.5,3.96,2.92,6.03,4.24"/>
      <path class="cls-6" d="M1188.56,155.11c-2.46,1.26-5.7.56-7.43-1.59-.86-1.07-1.33-2.34-2.49-3.15-.93-.65-2.03-.99-3.09-1.37-1.14-.4-2.32-.84-3.18-1.71-1.03-1.04-1.31-2.52-2.05-3.74-1.22-2.01-3.61-2.53-5.58-3.52-1.09-.55-1.98-1.26-2.58-2.34-.3-.54-.55-1.11-1.02-1.53s-1.01-.61-1.56-.82c-.65-.24-1.32-.47-1.83-.96-.45-.43-.75-.99-1.02-1.55-.5-1.01-.95-2.01-2-2.53-1.14-.57-2.31-.82-2.51-2.28-.14-1.08.24-2.32-.3-3.33-.57-1.07-2.16-1.08-2.34-2.44-.19-1.43,1.06-2.68,2.18-3.32,1.63-.93,3.5-1.29,5.31-1.66,1.57-.33,3.18-.72,4.8-.62.75.05,1.51.21,2.18.57.59.32,1.57,1.05,1.33,1.83-.15.5-1.05.79-1.48,1s-.88.44-1.32.66c-.88.44-1.76.89-2.64,1.33-.03.01-.08.05-.03.07,1.34.58,1.34,2.32,1.1,3.54s-.75,2.59-.23,3.8c.23.54.66.86,1.14,1.17.22.14.46.28.65.46.46.45.43.93.38,1.53-.11,1.23.44,1.93,1.5,2.48,1.14.6,2.34.98,3.24,1.96.5.54.9,1.16,1.35,1.75.53.69,1.13,1.31,1.76,1.91,2.66,2.5,5.47,4.89,8.26,7.25,3.15,2.67,6.43,5.17,9.91,7.4.06.04.28-.06.24-.09-4.7-3-8.97-6.53-13.15-10.21-1.99-1.75-4.13-3.42-5.94-5.36-.84-.9-1.46-1.99-2.32-2.87-.65-.67-1.45-1.04-2.28-1.42s-1.84-.78-2.21-1.66c-.39-.91.32-1.98-.49-2.75-.35-.33-.82-.52-1.19-.83-.44-.36-.68-.86-.76-1.42-.16-1.07.2-2.1.4-3.14.17-.85.22-1.82-.14-2.62-.13-.3-.33-.58-.6-.77-.23-.17-.35-.11-.1-.31.3-.23.77-.38,1.1-.55,1.19-.6,2.47-1.12,3.6-1.81.9-.55.45-1.43-.21-1.99-1.44-1.23-3.53-1.14-5.29-.88-1.19.18-2.37.45-3.55.7-1.08.23-2.17.5-3.2.91-1.57.63-3.58,1.86-3.55,3.8.02,1.1.88,1.44,1.68,1.97.93.61.98,1.62.95,2.63-.02.85-.1,1.84.48,2.54.65.8,1.79.86,2.58,1.46,1.56,1.18,1.52,3.48,3.42,4.37,1.12.53,2.31.72,3.02,1.84.53.84.88,1.68,1.67,2.33,1.46,1.2,3.4,1.6,5.01,2.54.92.53,1.64,1.23,2.14,2.18s.81,2.05,1.47,2.94c1.18,1.6,3.24,2.01,4.99,2.7.96.38,1.9.86,2.58,1.66.77.9,1.2,2.03,2.06,2.86,1.33,1.29,3.27,1.9,5.11,1.71.79-.08,1.54-.31,2.25-.67.15-.08-.08-.08-.15-.04h0Z"/>
    </g>
    <g>
      <path class="cls-6" d="M1159.51,140.97c.89-.66.33-2.16-.61-2.76-.93-.6-2.11-.76-2.97-1.46-1.12-.9-1.45-2.48-2.39-3.57-.99-1.16-2.54-1.64-3.85-2.43-1.31-.78-2.51-2.25-2.06-3.71.24-.78.93-1.61.49-2.3-.45-.7-1.7-.51-2.1-1.24-.45-.82.67-1.72.58-2.65-.06-.62-.64-1.07-1.24-1.26-2.06-.66-4.14.79-5.82,2.15-1.95,1.59-3.91,3.18-5.86,4.76-.14.11-.27.22-.37.37-.45.65.18,1.59.94,1.8.77.2,1.57-.06,2.34-.22.78-.16,1.68-.2,2.26.35.58.55.59,1.46,1.01,2.14,1.03,1.66,3.66,1.06,5.3,2.12,1.02.65,1.55,1.88,2.58,2.52,1.04.65,2.38.56,3.54.98,1.62.59,2.7,2.08,3.91,3.3,1.21,1.23,2.96,2.29,4.58,1.7"/>
      <path class="cls-6" d="M1159.62,140.95c.8-.68.41-1.85-.24-2.5-.95-.94-2.47-.97-3.47-1.87s-1.31-2.28-2.13-3.31-2.13-1.59-3.3-2.2-2.5-1.56-2.78-2.99c-.14-.73.16-1.33.44-1.99.21-.49.42-1.06.02-1.52-.35-.4-.94-.45-1.4-.64-.67-.28-.84-.8-.59-1.46.17-.46.48-.87.55-1.36.09-.6-.26-1.07-.76-1.37-2.2-1.31-4.89.67-6.53,1.99-1.33,1.07-2.65,2.15-3.97,3.23-.63.51-1.27,1.01-1.89,1.54-.43.36-.67.75-.43,1.32.48,1.14,1.81,1.02,2.8.8.8-.18,1.74-.45,2.51,0,.68.39.8,1.18,1.05,1.85.91,2.35,3.97,1.48,5.69,2.72,1.18.85,1.71,2.27,3.18,2.76.78.26,1.62.3,2.41.52s1.5.66,2.13,1.2c1.95,1.7,3.85,4.89,6.9,3.9.17-.06,0-.08-.09-.05-1.62.53-3.24-.56-4.35-1.65-.89-.88-1.66-1.89-2.67-2.64s-2.12-.93-3.34-1.17c-.68-.14-1.33-.35-1.87-.8-.47-.39-.83-.88-1.22-1.34-.73-.84-1.54-1.28-2.62-1.52-.98-.21-2.09-.26-2.96-.81-1.04-.66-.88-1.86-1.6-2.72-.67-.79-1.83-.63-2.72-.43-.82.18-1.85.48-2.57-.13-.55-.47-.71-1.19-.15-1.72,1.1-1.03,2.37-1.93,3.54-2.88s2.37-2.01,3.64-2.9c1.37-.96,3.45-2.02,5.02-.89,1.22.88.18,1.85-.04,2.9-.25,1.15,1,1.18,1.72,1.56,1.35.71-.09,2.19-.14,3.23-.05,1.16.8,2.19,1.68,2.84,1.13.85,2.53,1.24,3.65,2.11,1.11.86,1.51,2.14,2.25,3.28.81,1.23,2.03,1.51,3.28,2.12.98.47,2.29,2.02,1.12,3.01-.05.04.18.02.23-.02h0Z"/>
    </g>
    <g>
      <path class="cls-6" d="M1144.28,135.89c-.93-1.59-3.49-.92-5.01-1.96-.94-.64-1.44-1.91-2.53-2.21-1.31-.36-2.87.85-3.96.05-.73-.54-.76-1.74-1.54-2.22-.71-.44-1.63-.03-2.34.4-2.43,1.49-4.61,3.4-6.41,5.61-.2.25-.41.51-.44.83-.09.71.76,1.26,1.47,1.14s1.26-.67,1.74-1.2c.48-.54.97-1.12,1.64-1.36,2-.7,3.98,1.94,6.01,1.38.62-.17,1.15-.64,1.8-.71,1.49-.16,2.6,1.8,4.09,1.59.55-.08,1-.45,1.5-.67.82-.38,1.82-.36,2.63.03.38.18.74.45,1.17.49.42.04.92-.31.81-.72"/>
      <path class="cls-6" d="M1144.39,135.84c-.87-1.38-2.8-1.14-4.17-1.58-1.02-.32-1.55-1.11-2.25-1.85-.52-.55-1.12-.88-1.89-.84-.92.04-1.94.62-2.85.32s-.99-1.51-1.61-2.17c-1.29-1.36-3.62.67-4.66,1.44-1.72,1.28-3.43,2.8-4.71,4.53-.47.64-.45,1.37.31,1.76.67.35,1.42.11,1.99-.32.86-.65,1.41-1.82,2.5-2.13,1-.28,2.01.31,2.87.74.68.34,1.4.71,2.18.76.34.02.67-.02,1-.13.54-.19,1.02-.58,1.59-.65,1.02-.11,1.85.8,2.67,1.25.73.4,1.42.45,2.17.08s1.37-.75,2.23-.68c.74.06,1.24.47,1.91.7.56.19,1.44-.01,1.36-.75,0-.1-.26-.04-.25.07.12,1.16-1.42.28-1.84.09-.37-.17-.77-.26-1.18-.27-.91-.04-1.55.35-2.33.72-1.72.83-2.69-1.16-4.26-1.36-.74-.1-1.32.33-1.98.6-.91.38-1.82.05-2.66-.35-1.13-.54-2.39-1.37-3.69-.9-.77.28-1.28.94-1.82,1.53-.42.46-.91.93-1.56,1.01-.57.06-1.26-.3-1.29-.93-.03-.58.56-1.1.92-1.51s.69-.77,1.06-1.14c.74-.76,1.53-1.47,2.36-2.12.76-.6,1.56-1.17,2.39-1.67.55-.34,1.27-.75,1.95-.56.54.15.8.65,1.02,1.11.27.57.52,1.17,1.15,1.42s1.3.06,1.91-.09c.52-.12,1.07-.27,1.6-.16s.94.46,1.31.86c.56.61,1.03,1.28,1.81,1.63,1.42.62,3.58.21,4.51,1.68.05.08.3,0,.23-.11h0Z"/>
    </g>
    <path class="cls-6" d="M1213.98,195.98c1.61,1.08-7.4.43-7.19-1.5.21-1.92,1.14-6.67-.14-8.12-1.28-1.45,5.66,5.09,5.83-4.28,1.8-.91,3.38,5.44,5.38,5.13,2.6-.4-.49-4.75-1.32-7.24-.83-2.5-.7-3.38-1.67-5.83-.36-.92,1.54-2.5,2.45-2.88.34-.14.73-.1,1.1-.11,1.64-.04,3.09-1.25,3.77-2.74.68-1.49-3.88-4.49-4.17-6.1-.5-2.75.27-4.74-1.68-6.74-.78-.8.76-.87.35-1.91-.41-1.04-.05-2.5,1.03-2.8.64-.18,1.31.09,1.91.37,2.74,1.25,5.47,2.71,7.47,4.96,1.99,2.26,3.14,5.46,2.27,8.34-.35,1.14-.99,2.23-.94,3.42.07,1.48,1.22,2.71,1.52,4.16.61,2.94-2.33,5.85-1.46,8.72.27.9.89,1.65,1.23,2.52.6,1.56.17,3.46-1.05,4.6-.73.69-1.69,1.1-2.41,1.79-2.72,2.59-1.02,7.41-2.9,10.65-1.81,3.13-4.23,3.59-6.2.55"/>
    <path class="cls-6" d="M1205.02,126.94c-1.7-.07-2.95-1.54-4.23-2.67-2-1.75-4.57-2.82-7.22-3.02-2-.15-4.08.18-5.96-.51-1.09-.4-2.02-1.11-2.99-1.74-3.4-2.18-7.43-3.37-11.47-3.37-.87,0-1.76.05-2.58-.22-.98-.31-1.76-1.03-2.64-1.57-2-1.23-4.56-1.49-6.76-.69-3.26,1.18-6.02,4.54-9.41,3.86-2.53-.51-4.91-3.23-7.18-2.01-1.06.57-1.56,1.83-2.53,2.55-2.06,1.55-5.27.08-7.47,1.41-1.82,1.1-2.26,3.68-4.01,4.88-1.16.79-2.66.82-3.99,1.27-1.33.44-2.66,1.72-2.24,3.06l-1.23,1.62c-7.51,4.76-11.44,18.2-9.96,17.72,1.49-.48,10.04-7.34,10.51-8.83,2.95-9.37,12.18-12.67,14.77-13.14,2.34-.43,4.82-.42,6.96-1.45,1.36-.66,3.5.95,5,.77,2.03-.24,3.1-1.45,5.09-1.91,1.05-.24,2.19,1.6,3.03.92,2.2-1.78,5.73-1.14,8.46-.4,2.3.63,3.01-1.99,5.35-1.55,1.54.29,2.05,3.13,3.61,3.07,2.27-.09,3.86,0,5.99.79,3.68,1.35,9.02.07,12.7,1.42,2.47.91,4.23,5.07,6.24,6.75,2.91,2.44,5.51,3.17,9.13,4.31,1.41-2.08,1.62-4.91.53-7.17-1.09-2.26-3.43-3.87-5.93-4.06"/>
    <path class="cls-6" d="M1213,236.87c3.42,1.37,5.76,5.06,5.54,8.73-.22,3.68-2.98,7.06-6.53,8.02,2,4.05,4.04,8.33,3.83,12.85-.21,4.51-3.55,9.23-8.07,9.27,1.93,3.28,3.92,6.81,3.72,10.61-.19,3.8-3.63,7.67-7.33,6.81,1.46,2.98,2.95,6.13,2.74,9.44-.22,3.31-2.83,6.71-6.15,6.53,2.1,3.25,3.47,7.47,1.76,10.94-1.71,3.47-7.57,4.5-9.29,1.04-1.03-2.06-.19-4.52.66-6.66,1.02-2.57,2.03-5.13,3.05-7.7-4-4.29-2.54-12.31,2.71-14.92-4.61-5.28-2.34-14.85,4.15-17.5-4.92-6.39-3.08-16.85,3.72-21.18-5.29-5.84-2.81-16.7,4.49-19.67"/>
    <path class="cls-2" d="M1207.1,205.89l.26-2.8-31.33-12.06h0c-11.07-5.38-27.65-4.43-37.72-.15l-8.35-.59.09-.1c-8.94-7.49-24.89-10.34-37.8-6.75l.2,1.2h0c0,.07.06.25.09.5l.19,1.04c1.09,6.64,2.45,13.68,4.26,15.7,1.22,1.36,5.62,2.47,9.27,3.16,1.38.27,2.65.47,3.56.62,1.1.16,10.82,1.62,12.61.46,1.79-1.16,5.76-10.93,6.93-14.02l8.56.64c.79,2.6,1.74,13.53,5.64,16.18,3.9,2.65,25.28,4.29,27.56,1.88,1.62-1.72,6.42-8.06,7.87-11.44l2.3-4.29,25.82,10.83ZM1121.55,204.99c-1.93,1.09-21.31-1.63-23.43-3.98-1.78-1.99-3.34-11.46-3.93-15.02v-.14c11.48-2.66,25.86-.11,33.65,6.25-2.15,5.33-5.17,12.14-6.29,12.86v.03ZM1168.68,209.72c-1.42,1.52-20.2.82-24.21-1.92-2.8-1.89-3.63-9.9-4.52-14.53,9.82-4.03,29.03-4.03,38.81,1.36-2.5,5.29-6.14,11.44-10.07,15.09h0Z"/>
    <path class="cls-9" d="M1150.91,553.79c12.15,1.98,24.32,3.64,36.53,1.18,8.76-1.76,17.27-4.54,26.02-6.33,3.66-.74,7.28-1.48,10.73-2.62,1.54-.82,3.07-1.65,4.58-2.52l-12.6-67.59,1.32-122.69,36.79-26.27s-18.89-20.93-21.24-23.6c-6.43-7.31-24.71-25.51-38.38-31.29h0s-18.39,36.57-53.81,32.53c-26.45-3.02-10.9-29.41-10.9-29.41,0,0-45.8,18.05-51.26,21.96h0c3.78-5.57-10.78,44.52-25.36,84.63-4.05,11.15-12.48,34.91-.11,52.85,4.1,5.95-2.19,58.49-2.19,58.49l-8.37,28.79c-1.3,4.48,1.27,9.16,5.75,10.46,16.03,4.64,53.04,14.68,84.89,18.33,5.59.64,11.54,1.73,17.62,3.11Z"/>
    <path class="cls-1" d="M1159.02,463.5c-.4,1.98-.88,3.95-1.42,5.9,0-.14,0-.26.11-.41.3-1.14.77-3.02,1.3-5.48Z"/>
    <path class="cls-13" d="M1206.81,443.69c6.51-.09,13.03-.34,19.39-1.13,10.23-1.26,20.01-8.82,30.34-8.99,2.13,24.76,5.82,67.6,5.84,72.86.14,32.24-36.4,137.46-36.4,137.46l-24.71-3.78s.62-89.49,13.51-133.19l-7.97-63.23Z"/>
    <path class="cls-6" d="M1217.25,232.67c3.61.71,6.6,3.9,7.07,7.55.47,3.65-1.61,7.49-4.92,9.1,2.72,3.61,5.53,7.43,6.16,11.91.63,4.47-1.77,9.73-6.2,10.62,2.5,2.86,5.12,5.96,5.63,9.73.52,3.77-2.13,8.21-5.93,8.06,1.99,2.66,4.04,5.48,4.45,8.77.4,3.29-1.53,7.12-4.82,7.56,2.67,2.8,4.8,6.7,3.77,10.42-1.03,3.73-6.6,5.83-8.94,2.75-1.39-1.83-1.03-4.4-.59-6.66.52-2.71,1.04-5.42,1.56-8.14-4.73-3.47-4.79-11.62-.11-15.16-5.51-4.33-5.06-14.16.81-17.97-6.02-5.36-6.17-15.98-.29-21.5-6.28-4.75-5.87-15.88.75-20.16"/>
    <path class="cls-23" d="M1255.67,328.41c15.25,18.36,13.79,46.08,15.84,74.24.92,12.7,2.54,41.91,2.54,41.91,0,0-41.7,8.89-73.61,4.19.84-10.52-1.74-26.2-2.8-39.63-1.1-13.99-1.05-27.81-.34-41.88.68-13.52,4.25-29.51,16.02-37.77,5.52-3.87,12.7-6.27,19.14-8.03,0,0,15.73-2.05,23.22,6.96Z"/>
    <path class="cls-13" d="M1184.52,707.32c4.08-6.04,9.44-14.26,9.33-15.63s.33-10.52.75-18.53c.37-4.06-2.07-7.9-5.46-8.57-.88-.17-6.66,17.86-13.49,13.95l2.13-16.52c1.33-5.19,3.22-10.12,5.62-14.66,3.27-5.41,16.87-16.68,16.87-16.68l2.31-21.14,31.03,9.29-5.54,20.06,2.29,21.2s-3.01,38.79-6.15,42.87-13.16,7.25-13.16,7.25c-3.33,6.2-11.96,4.99-11.96,4.99-8.36,7.86-9.05-.49-9.05-.49-.23.35-.53.61-.89.75-3.82,1.58-7.08-4.57-4.63-8.15Z"/>
    <path class="cls-27" d="M1204.37,683.39c.45,6.2-.15,13.1-3.17,18.64-1.32,2.42-2.97,4.64-4.95,6.56-2.03,1.98-4.37,3.94-6.98,5.09-1.37.6-.15,1.66.93,1.18,2.74-1.21,5.09-3.17,7.28-5.17,2.23-2.04,4.09-4.48,5.57-7.1,3.32-5.9,3.97-13.12,3.48-19.77-.07-.91-2.25-.41-2.17.58h0Z"/>
    <path class="cls-27" d="M1212.14,686.13c.13,3.7.09,7.59-.79,11.21-.89,3.66-2.95,6.65-5.41,9.44s-4.66,5.94-7.58,8.04c-1.2.86.59,1.49,1.42.9,3.19-2.29,5.66-5.76,8.25-8.7,2.33-2.66,4.33-5.6,5.3-9.03,1.09-3.86,1.15-8.07,1.01-12.05-.04-1.08-2.23-.7-2.19.19h0Z"/>
    <path class="cls-27" d="M1219.99,689.02c-.32-.08-.19-.27-.22-.11-.02.09.06.3.07.39.06.47.03.97.01,1.45-.08,2.01-.32,4.01-.56,6-.17,1.41-.23,2.91-.62,4.28s-1.33,2.63-2.22,3.75c-.93,1.17-1.93,2.29-3.08,3.25-.5.42-1.03.82-1.6,1.15-.1.06-.55.22-.63.32-.04.05.71.19.76.25-.6-.69-2.68.15-2,.93.63.72,1.9.16,2.57-.19,1.42-.73,2.68-1.79,3.81-2.91,1.25-1.24,2.34-2.64,3.31-4.1,1.05-1.59,1.41-3.13,1.65-5.01.34-2.68.71-5.38.8-8.08.02-.77.25-2.48-.79-2.75-.5-.13-1.2-.02-1.54.41-.28.36-.25.85.26.98h0Z"/>
    <path class="cls-13" d="M1196.04,232.24c8.17,8.76,15.47-4.52,15.47-4.52,8.32-9.54,10.57-19.99,10.43-27.06-.14-7.07-7.95-7.12-7.95-7.12-6.65.59-5.73,1.39-15.13,20"/>
    <path class="cls-27" d="M1203.85,213.17c1.69-3.15,3.55-6.24,5.82-9.01,1.2-1.46,2.54-2.89,4.11-3.97.56-.38.68-.45,1.28-.72.19-.09-.24.09-.05.02.05-.02.09-.04.14-.05.07-.03.14-.05.21-.07-.5.19.44-.07-.11.03.26-.05.08-.01-.03,0,.32-.02-.53.06-.46-.09-.01.03.7.99.74,1.04,1.58,2.75,1.55,6.07.73,9.06-.14.49,1.99.21,2.15-.37.81-2.95.91-6.22-.55-9-.24-.45-.57-1.15-.99-1.46-.26-.19-.7-.12-1.01-.07-2.9.44-5.34,2.66-7.22,4.75-2.76,3.07-4.94,6.66-6.88,10.28-.2.37.76.26.88.24.39-.06,1.06-.22,1.27-.61h0Z"/>
    <path class="cls-27" d="M1205.38,213.15c4.76.41-2.63,9.47,1.51,9.5,2.83.02,4.21-3.85,5.05-5.95.81-2.03,1.29-3.77,1.31-5.94.02-2.65-.59-5.62-3.14-6.94-.55-.29-2.56.55-1.75.97,2.04,1.05,2.6,3.55,2.7,5.66.08,1.51-.03,2.99-.5,4.43-.53,1.61-1.15,3.21-1.94,4.71-.3.56-.62,1.11-1.01,1.61-.13.16-.29.3-.41.46-.38.49.79-.18.8-.11-.03-.25-.26-.49-.26-.81,0-.41.11-.84.22-1.24.26-.97.62-1.91.89-2.88s.58-2.08.27-3.04c-.33-1.03-1.36-1.4-2.36-1.48-.51-.04-1.14.07-1.54.41-.31.26-.3.61.17.65h0Z"/>
    <path class="cls-23" d="M1134.71,303.98s2.02.51,5.58,2.71c3.55,2.2,6.24,13.89,6.24,13.89,0,0,19.65-3.46,32.56-13.36,12.91-9.9,24.86-29.95,24.86-29.95,0,0-1.54-8.26-10.86-12.27,0,0-37.92,36-58.38,38.97Z"/>
    <path class="cls-23" d="M1134.71,303.98s-11.96-.42-17.09,7.61c0,0-4.94-11.76-4-21.98.93-10.23.87-9.5.87-9.5,0,0,11.06-10.08,15.74-7.86,0,0-6.51,23.86,4.49,31.74Z"/>
    <g id="freepik--Character--inject-2">
      <path class="cls-13" d="M949.06,357.46l-12.89-13.18s-4.5-14.96-7.65-18.61c-3.15-3.66-19.17-14.3-20.07-14.53-.9-.23-12.77-21.17-17.16-20.04-4.38,1.13-7.13,4.56-5.32,10.38,1.81,5.81,12.82,16.71,10.28,18.93-2.07,1.56-4.41,2.71-6.91,3.38,0,0-1.53-5.47-5.48-7.31-3.95-1.84-7.44.36-7.44.36l1.5,5.16-6.82-4.68s-5.27-12.71-11.15-12.07c-1.67-2.84-3.15-5.85-5.81-7.8-2.4-1.47-5.54-.72-7.02,1.68-.26.42-.45.88-.58,1.36h0l13.56,30.03,32.19,29.23s18.29,2.7,21.92,3.97c3.63,1.27,12.45,13.15,13.64,11.75,10.05-11.74,21.21-18.01,21.21-18.01Z"/>
    </g>
    <path class="cls-26" d="M932.7,343.83c-.26.69-.52,1.4-.93,2.01-.38.58-.88,1.05-1.45,1.46-1.61,1.15-3.5,1.85-5.33,2.56-.23.09-.9.4-.62.73.27.31,1.13.06,1.42-.06,2.15-.84,4.34-1.7,6.23-3.04.65-.46,1.26-1.01,1.71-1.68.49-.72.82-1.51,1.12-2.32.16-.42-.71-.36-.9-.33-.38.06-1.1.24-1.26.66h0Z"/>
    <path class="cls-26" d="M908.88,352.16c-.97-3.28-3.15-5.77-5.72-7.93-1.34-1.13-2.74-2.18-4.09-3.29-1.5-1.24-3.19-2.54-4.05-4.33s-1.36-3.83-2.03-5.71-1.27-3.59-1.89-5.39c-1.09-3.22-2.34-7.18-5.45-9.04-2.85-1.71-6.9-1.96-9.83-.31-.18.1-.49.31-.43.56,1.42,5.94,3.21,11.77,4.7,17.69.68,2.71,1.33,5.4,2.43,7.98s2.43,4.84,4.01,7.04c.38.53,2.48-.18,2.03-.82-1.61-2.24-2.98-4.63-4.02-7.19s-1.69-5.32-2.38-8.04c-1.47-5.77-3.21-11.46-4.59-17.25l-.43.56c2.44-1.38,6.3-.06,8.06,1.89,2.48,2.74,3.38,6.59,4.57,10,.5,1.44,1.02,2.87,1.53,4.31.6,1.7,1.02,3.62,2,5.16,1.68,2.64,4.76,4.5,7.15,6.45,2.77,2.26,5.22,4.76,6.26,8.27.2.67,2.37.08,2.17-.58h0Z"/>
    <path class="cls-26" d="M876.78,333.14c-1.31-8.76-4.28-17.61-9.46-24.86-1.07-1.49-2.2-2.65-4-3.19-1.56-.47-3.38-.38-4.89.26-.48.2-1.2.49-1.53.9s-.21.89-.12,1.41c.32,1.86.84,3.71,1.27,5.55,1.31,5.66,2.63,11.31,3.94,16.97.09.4,2.28-.14,2.17-.58-1-4.3-2-8.6-3-12.91-.5-2.15-1-4.3-1.5-6.45-.24-1.05-.97-2.78-.81-3.89.24-1.66,3.42-.28,4.26.28,1.43.96,2.42,2.72,3.32,4.14,2.06,3.25,3.71,6.75,5.02,10.37,1.48,4.08,2.53,8.3,3.17,12.59.05.36,2.25-.09,2.17-.58h0Z"/>
    <path class="cls-26" d="M905.95,316.9c-3.1.8-6.01,2.18-8.59,4.07-.36.26-.23.61.18.68.52.09,1.12-.11,1.54-.41,2.16-1.58,4.61-2.73,7.13-3.38.29-.08,1.06-.35.96-.77s-.97-.25-1.21-.19h0Z"/>
    <path class="cls-16" d="M1131.69,231.55c8.43.54,22.15.44,22.15.44,0,0-3.97,18.55-23.5,17.28-19.54-1.26-16.76-19.36-16.76-19.36,0,0,9.68,1.09,18.11,1.64Z"/>
    <path class="cls-6" d="M1131.61,231.54c4.01.26,20.2.63,20.2.63,0,0-6.51,10.94-21,10.01-15.71-1.02-16.17-12.2-16.17-12.2l16.97,1.57Z"/>
    <path class="cls-15" d="M1131.4,232.13c4.01.26,16.24.37,16.24.37,0,0-4.67,4.1-16.69,3.32-12.02-.78-15.56-5.28-15.56-5.28l16.01,1.59Z"/>
    <path class="cls-16" d="M1113.13,228.33c.42-.08,1.06.04,3,0,3.22-.08,4.15-.4,6.48-.44,3.98-.06,6.39,1.72,8.12,1.83,1.72.11,4.34-1.34,8.29-.77,2.31.33,8,1.58,11.18,2.07,1.91.3,4.21-.33,4.62-.2.56.18-.83,4.45-22.48,3.05-21.65-1.4-19.78-5.42-19.2-5.53Z"/>
    <path class="cls-26" d="M1013.91,417.56c8.72,11.48,12.79,26.24,11.18,40.57-.08.73,2.09.32,2.16-.32,1.64-14.55-2.45-29.4-11.31-41.05-.39-.51-2.48.21-2.03.8h0Z"/>
  </g>
</svg>