<?xml version="1.0" encoding="UTF-8"?>
<svg xmlns="http://www.w3.org/2000/svg" xmlns:xlink="http://www.w3.org/1999/xlink" viewBox="0 0 1334 1000">
  <defs>
    <style>
      .cls-1 {
        fill: none;
      }

      .cls-2 {
        fill: #040404;
      }

      .cls-3 {
        fill: #0f1f28;
      }

      .cls-4 {
        fill: #5e3527;
      }

      .cls-5 {
        fill: #2a4e73;
      }

      .cls-6, .cls-7 {
        fill: #010101;
      }

      .cls-8 {
        fill: url(#linear-gradient-2);
      }

      .cls-9 {
        fill: #113a54;
      }

      .cls-10 {
        fill: #745245;
      }

      .cls-11 {
        fill: #a66f53;
      }

      .cls-12 {
        fill: #f0e9d1;
      }

      .cls-13 {
        fill: #f0ecf6;
      }

      .cls-14 {
        fill: #5a3122;
      }

      .cls-15 {
        fill: #a66e53;
      }

      .cls-16 {
        fill: #0a2f44;
      }

      .cls-17 {
        fill: url(#linear-gradient);
        opacity: .5;
      }

      .cls-18 {
        fill: #3d231c;
      }

      .cls-19 {
        fill: #0d1335;
      }

      .cls-20, .cls-21 {
        fill: #fff;
      }

      .cls-7 {
        stroke: #010101;
        stroke-width: .13px;
      }

      .cls-7, .cls-21 {
        stroke-miterlimit: 10;
      }

      .cls-22 {
        fill: #646464;
      }

      .cls-23 {
        fill: #6a7a80;
      }

      .cls-24 {
        fill: #513835;
      }

      .cls-21 {
        stroke: #241f20;
      }

      .cls-25 {
        fill: #4f2f26;
      }

      .cls-26 {
        fill: #552d23;
      }

      .cls-27 {
        fill: #3a221a;
      }

      .cls-28 {
        fill: #28160e;
      }

      .cls-29 {
        fill: #825639;
      }

      .cls-30 {
        fill: #848280;
      }

      .cls-31 {
        fill: #4f2e25;
      }

      .cls-32 {
        fill: #4163ae;
      }

      .cls-33 {
        fill: #4d4d4d;
      }
    </style>
    <linearGradient id="linear-gradient" x1="-3379.34" y1="5760.97" x2="-2331.03" y2="5760.97" gradientTransform="translate(-5082.49 3361.45) rotate(90) scale(1 -1)" gradientUnits="userSpaceOnUse">
      <stop offset="0" stop-color="#eeeadf"/>
      <stop offset=".18" stop-color="#ece7dc" stop-opacity=".99"/>
      <stop offset=".33" stop-color="#e6e0d3" stop-opacity=".97"/>
      <stop offset=".47" stop-color="#dcd3c4" stop-opacity=".93"/>
      <stop offset=".6" stop-color="#cec1af" stop-opacity=".88"/>
      <stop offset=".72" stop-color="#bcaa94" stop-opacity=".82"/>
      <stop offset=".84" stop-color="#a68d72" stop-opacity=".73"/>
      <stop offset=".96" stop-color="#8d6c4c" stop-opacity=".64"/>
      <stop offset="1" stop-color="#83603d" stop-opacity=".6"/>
    </linearGradient>
    <linearGradient id="linear-gradient-2" x1="148.37" y1="-252.32" x2="175.83" y2="-399.02" gradientTransform="translate(207 447.76) rotate(-.8)" gradientUnits="userSpaceOnUse">
      <stop offset=".03" stop-color="#231f20"/>
      <stop offset=".18" stop-color="#230000"/>
      <stop offset="1" stop-color="#a66f54"/>
    </linearGradient>
  </defs>
  <g id="Layer_3" data-name="Layer 3">
    <polyline class="cls-12" points="1362.81 1001.98 1362.81 -38.73 -48.16 -38.73 -48.16 1001.98"/>
    <polyline class="cls-17" points="1362.81 1026.96 -5.85 1026.96 -5.85 -21.35 1362.81 -21.35"/>
  </g>
  <g id="Layer_1" data-name="Layer 1">
    <polygon class="cls-28" points="1061.66 949.75 1001.73 949.75 1015.39 1024.92 1061.66 1024.92 1061.66 949.75"/>
    <path class="cls-5" d="M1076.35,737.55l-1.13-.43-2-79.6c-2.96-60.07-19.2-103.67-53.76-107.05-23.53,0-103.11-1.09-111.03,5-2.2-104.35,9.15-187.61-161.32-187.61l-187.91.45c-2.01,46.06-7.47,91.97-14.26,137.57-8.51,57.2,8.15,114.05-.56,171.21-4.38,28.73,33.44,57.67,29.73,86.49-3.78,29.36-7.6,58.72-11.31,88.09-5.65,44.66-11.07,89.39-15.72,134.2h536.44v-93.1c13.36-4.37,22.64-18.81,22.71-35.32v-66.4c-.04-25.45-10.82-42.05-29.88-53.51Z"/>
    <path class="cls-5" d="M598.48,985.88c.52-13.08,1.03-26.16,1.43-39.24.92-30.1,54.21-60.19,54.21-90.3l-6.98-487.32-404.34-1.14c-87.55.02-102.12,83.25-104.31,187.61-7.92-6.09-87.5-5-111.03-5-34.56,3.38-50.8,46.98-53.76,107.05l-2,79.6-1.13.43c-19.05,11.46-29.84,28.07-29.88,53.51v66.4c.07,16.51,9.35,30.95,22.71,35.32v93.1h635.09Z"/>
    <path class="cls-15" d="M495.57,686.55l11.87,39.4-5.14,19.65-8.43,18.57-25.94,25.37s-4.88-.57-.99-8.68c3.88-7.15,8.35-14.09,13.35-20.76l1.13-20.91-5.91-8.67-5.8,1.52s3.84,25.8.29,31.37c-.62.96-1.14,1.77-1.59,2.44-1.25,1.87-3.82,2.24-5.57.83l-2.58-2.08-4.38-38.49s.96-17.19,1.76-21.29c1.26-4.09,3.51-10.05,5.47-13.99l.08-5.4,30.55-3.98,1.82,5.09Z"/>
    <path class="cls-15" d="M403.49,277.17c4.31,1.71,68.96,25.68,77.92,59.76,8.96,34.09,9.31,149.5,13.55,179.49,5.43,34.95,4.71,90.27,5.26,98.93l-8.27,89.08-27.27-7.29s-5.14-201.51-21.06-249.19c-15.92-47.68-40.13-170.79-40.13-170.79Z"/>
    <path class="cls-20" d="M454.14,299.21s29.42,21.19,34.18,51.13c5.57,34.99,17.58,121.56,17.58,121.56l-.21.09c-13.06,5.84-27.73,7.04-41.57,3.4h0"/>
    <rect class="cls-4" x="1123.04" y="747.71" width="350.87" height="62.28"/>
    <rect class="cls-4" x="1107.58" y="711.9" width="380.02" height="40.95"/>
    <polygon class="cls-4" points="1164.39 752.7 1142.64 1025.27 1124.31 1025.27 1122.99 752.7 1164.39 752.7"/>
    <rect class="cls-18" x="1122.99" y="752.7" width="351.29" height="13.66"/>
    <path class="cls-20" d="M437.71,458.65c6.33-.51,12.64-1.22,18.94-2.11.51-.68,3.48,4.06,4.6,4.06,10.58-.04,22.61-.07,32.63-3.15.18-42.47-3.29-98.56-8.49-119-8.61-33.86-71.62-62.26-75.89-63.98,0,0,9.82,125.17,25.22,172.55,1.05,3.23,2.04,7.15,2.98,11.64Z"/>
    <path class="cls-20" d="M316.34,262.22l-2.41,1.59c-16.69,7.37-59.25,21.03-70.74,35.22-17.26,21.2,40.51,93.8,42.99,111.4,1.25,8.53,8.93,71.91,1.53,121.33-4.86,32.86-7.72,65.98-8.59,99.18l53.35,6.72c26.06,3.28,52.47,2.89,78.39-1.17l63.09-10.66c-1.66-34.02,2.6-62.27,1.31-108.57l-.93-144.85-15-64.59s-14.19-12.04-15.75-15.28l-43.06-22.55s15.34,35.4-11.09,39.29c-27.3,4.01-41.34-2.03-61.99-17.77,0,0-8.92-19.79-11.1-29.27Z"/>
    <path class="cls-15" d="M313.74,204.66s8.25,42.04,1.17,66.73c-1.14,3.96-20.53,14.84-20.53,14.84l5.88,6c5.07,5.18,89.87,55.98,96.7,58.41,34,12.08,6-33.54,20.27-54.76l-9.08-13.38-7.39-11.54c-1.26-4.69,2.73-39.89,2.73-39.89"/>
    <path class="cls-29" d="M312.28,221.93c0,.09.02.16.03.25-.04-.1-.06-.2-.03-.25Z"/>
    <path class="cls-15" d="M374.03,270.57l28.64-2.06,14.22-3.75c1.46-.02,7.27-14.95,8.2-16.85,2.88-5.89,5.73-14.54,7.41-20.89,1.8-6.81,6.75-11.87,7.49-20.01.54-5.97.43-10.13-3.09-19.7-.89-2.43-1-4.88-.49-7.54,1.1-5.61,1.34-12.13,2.66-19.65.1-.59.69-3.45.44-4.08,0,0-.28-26.41-7.79-42.05-5.4-11.24-12.49-15.78-20.74-17.6-8.26-1.83-32.35.45-32.35.45l-33.52-3.66-27.89,14.98-13.25,34.93,3.41,39.91,5.47,35.57"/>
    <path class="cls-27" d="M388.32,260.9c-.23.16-15.39-1.27-15.69-1.29l-7.91-3.43s-.04-.03-.05-.03c-.7.3-1.53.37-2.48.08-4.94-1.52-9.28-4.1-13.47-7.07-3.77-2.67-8.28-11-12.55-12.82-2.02-.86-1.34-1.5-3.07-2.72.17.44.16,3.09.33,3.53,7.96,9.61,23.61,29.92,34.62,34.94.79.18,3.28.8,9.89,1.14,8.67.45,14.42.52,22.83-.9-.04-6.1.31-13.2.18-19.3-3.11.05-4.1,2.08-12.63,7.88Z"/>
    <path class="cls-6" d="M373.91,175.29c-1.85-.92-3.99-.07-5.17,1.02-.28.25-1.03.98-1.36,2.19-.43,1.55.21,3.29,1.2,4.34,1.32,1.4,3.47,1.61,5.12.81,2.23-1.08,2.92-3.79,2.33-5.75-.11-.36-.61-1.86-2.11-2.61"/>
    <path class="cls-6" d="M424.97,174.87c1.82-.98,3.98-.19,5.2.86.29.25,1.06.95,1.43,2.15.48,1.54-.11,3.29-1.06,4.37-1.27,1.44-3.42,1.72-5.09.97-2.26-1.01-3.03-3.7-2.5-5.67.1-.36.56-1.88,2.03-2.67"/>
    <path class="cls-6" d="M413.26,182.01s6.46-7.49,11.27-8.06c7.01-.83,8.84.92,11.39,4.5,0,0-4.66-3.71-9.58-2.97-4.71.7-13.07,6.54-13.07,6.54Z"/>
    <path class="cls-6" d="M389.48,180.46s-11.17-6.81-16.61-6.87c-7.93-.08-17.3,4.74-19.8,8.57,0,0,12.34-7.07,17.93-6.86,5.34.2,18.47,5.16,18.47,5.16Z"/>
    <path class="cls-6" d="M385.94,150.37c1.12.22.96,1.08,1.45,2.91.15.58.41,1.48.67,2.42.5,1.75-.88,3.5-2.7,3.39-3.27-.19-6.22-.52-8.4-.33-5.88.5-12.01.62-17.46,3.02-2.61,1.15-4.81,2.49-6.7,4.5-.6.63-2.02,3.07-3.22,2.86-.49-.09-.37-2.52-.36-2.77.27-4.91,3.6-7.82,8.01-10.14,8.98-4.75,18.66-4.5,28.71-5.86"/>
    <path class="cls-6" d="M440.89,157.81s-2.62-1.51-2.65-1.52c-5.66-3.29-11.73-5.13-18.05-6.19-3.2-.54-6.28,1.52-7.1,4.67,0,.02,0,.04-.01.06-.16.62-1,2.43-.75,3.04.05.12.15.21.25.29,1.07.88,2.47,1.3,3.86,1.41,1.72.14,3.4-.23,5.11-.16,4.91.21,10.1.37,14.57,2.48.35.17,2.25,1.11,2.59,1.29,2.15-2.13,2.74-4.8,2.18-5.37Z"/>
    <g>
      <path class="cls-6" d="M406,213.11c-2.3,1.28-5.84,1.04-8.2-.4-.52-.32-2.24.02-1.51.47,3.12,1.91,8.19,2.01,11.16.36.29-.17.24-.4-.14-.52-.39-.13-1-.09-1.31.08"/>
      <path class="cls-6" d="M395.28,212.52c-1.57-.73-3.32-1.1-5.07-1.21-.26-.01-.58.09-.77.26-.15.14-.17.32.02.43.81.46,1.84.64,2.78.61.3,0,.69-.09.85-.35.15-.24-.14-.4-.37-.39-.78.03-1.57-.12-2.24-.5-.25.23-.5.46-.75.69,1.56.1,3.13.44,4.53,1.1.28.13.68.04.92-.12.18-.12.38-.38.1-.51"/>
      <path class="cls-6" d="M388.36,212.85c-2.04-.02-4.45-.89-5.48-2.45-1.55-2.35-.2-6.04,2.33-7.6.27-.17.12-.38-.16-.44-.37-.08-.8.07-1.08.25-2.2,1.36-3.59,4.38-3.22,6.6.35,2.07,2.32,3.5,4.77,4.06.73.17,1.5.28,2.27.28.31,0,.86-.1,1.01-.35.15-.25-.14-.36-.42-.36"/>
      <path class="cls-6" d="M409.72,211.99c-.11-.24.09-.4.25-.4.55,0,1.11-.16,1.57-.56.18.22.37.45.55.67-1.1.14-2.2.53-3.18,1.22-.19.14-.48.05-.66-.09-.13-.11-.28-.37-.08-.51"/>
      <path class="cls-6" d="M408.18,212.32c1.09-.77,2.32-1.19,3.55-1.34.18-.02.42.07.55.24.11.13.13.31,0,.43"/>
      <path class="cls-6" d="M413.96,212.21c1.33-.07,2.87-1.01,3.5-2.59.95-2.39-.01-5.19-1.69-6.68-.18-.16-.09-.38.09-.44.24-.08.52.05.71.22,1.46,1.3,2.43,3.43,2.25,5.66-.17,2.08-1.42,3.55-3,4.18-.47.19-.97.31-1.47.34-.2,0-.56-.08-.67-.32-.1-.25.08-.36.27-.37"/>
    </g>
    <path class="cls-15" d="M431.7,114.47c.79,1.18,1.38,3.53,1.83,4.68.13.17.1.42.23.59-1.61-4.15-2.85-8.34-6.83-13.08-13.99-16.69-30.58-21.54-51.52-23.75-2.21-.23-4.5-.39-6.78-.46-24.03-.72-48.07,8.12-61.23,22.53-6.45,7.06-10.38,12.67-13.35,21.92-2.7,8.4-5.15,19.51-3.95,28.01.71,5.04,2.96,21.44,5.96,25.66,1.92,2.7,6.08,6.9,11.26,17.05l15.81-.32c-.46-2.93-.53-14.98-1.18-17.94-4.63-21.25,1.37-43.54,1.37-43.54-.13-4.61,6.01-28.72,9.59-34.41,3.23-5.13,10.54-7.11,22.08-5.89,4.97.53,19.92,5.09,22.68,6.83.87.16,4.05.71,8.06,1.13,5.37.57,12.81.96,17.83-.36.65-.29,5.22-4.01,9.71-3.54,5.15.54,11.26,4.1,18.43,14.9Z"/>
    <path class="cls-15" d="M413.57,254.99c-.2-.02-.39-.08-.55-.18-3.11-1.92-3.39-3.05-4.89-3.36-.35-.07-.53-.19-1.6-.3-4.32-.46-6.95-.83-18.25,6.86-.23.16-15.39-1.27-15.69-1.29l-7.91-3.43c-1.33-.76-31.34-24.42-31.34-24.42-.47-.81-5.94-6.49-6.17-7.26-.09-.04-.18-.09-.28-.12-.03-.01-.11-.04-.19-.07-.01.05-.03.12-.04.16-.04.34-.02.69,0,1.03.11,1.47.33-8.1.82-6.71.75,2.14,1.3,5.01,1.97,7.17.23.76,3,11.41,3.3,12.15,3.4,1.96,24.66,28.74,36.93,34.33.79.18,1.6.46,8.21.8,12.41.64,24.35.24,36.41-3.69,3.15-1.03,5.63-3.37,6.82-6.36,3.37-8.53,10.8-27.49,12.38-40.12-3.14,7.39-9.75,23.21-14.31,33.99-.14.33-4.83.74-5.21.86"/>
    <path class="cls-8" d="M431.75,115.52c.06.09.24.47.5,1.13,1.27,1.66,1.22,3.02,2.32,4.78-1.71-4.79-3.26-9.53-7.65-14.77-13.99-16.69-30.58-21.54-51.52-23.75-2.21-.23-4.5-.39-6.78-.46-24.03-.72-48.07,8.12-61.23,22.53-6.45,7.06-10.38,12.67-13.35,21.92-2.7,8.4-5.15,19.51-3.95,28.01.71,5.04,2.96,21.44,5.96,25.66,1.92,2.7,6.08,6.9,11.26,17.05l15.81-.32c-.46-2.93-.53-14.98-1.18-17.94-4.63-21.25,1.37-43.54,1.37-43.54-.13-4.61,5.41-27.87,8.99-33.56,3.23-5.13,11.14-7.96,22.68-6.74,4.97.53,19.92,5.09,22.68,6.83.87.16,4.05.71,8.06,1.13,5.37.57,12.81.96,17.83-.36.65-.29,5.22-4.01,9.71-3.54,5.15.54,12.04,7.4,18.49,15.95Z"/>
    <path class="cls-15" d="M316.54,222.5c-8.49,13.08-15.77-8.34-15.77-8.34-9.26-10.65-9.49-22.21-9.33-30.11.16-7.91,8.86-7.97,8.86-7.97,7.4.65,10.78,4.54,17.47,29.31"/>
    <path class="cls-19" d="M-74.61,895.91h1151.95c.8,0,1.75-.19,2.42-.65.49-.34.52-.71-.19-.71H-72.38c-.8,0-1.75.19-2.42.65-.49.34-.52.71.19.71h0Z"/>
    <path class="cls-19" d="M-68.32,738.23c.67,0,1.33,0,2,0h5.82c3.17-.02,6.34-.02,9.51-.03l12.89-.02,16.18-.03,19.23-.03,22.02-.04c8.27-.01,16.55-.03,24.82-.04,9.04-.02,18.08-.03,27.13-.05l29.56-.05c10.48-.02,20.96-.04,31.44-.06,11.14-.02,22.27-.04,33.41-.06,11.69-.02,23.39-.04,35.08-.06s24.3-.04,36.44-.06l37.95-.07c12.93-.02,25.86-.05,38.8-.07,13.31-.02,26.61-.05,39.92-.07,13.45-.02,26.91-.05,40.36-.07,13.66-.02,27.32-.05,40.97-.07,13.76-.02,27.51-.05,41.27-.07,13.79-.02,27.57-.05,41.36-.07l41.26-.07c13.61-.02,27.22-.05,40.84-.07,13.53-.02,27.06-.05,40.58-.07l39.65-.07c13-.02,26-.05,38.99-.07,12.56-.02,25.12-.04,37.67-.07s24.33-.04,36.5-.06c11.67-.02,23.35-.04,35.02-.06,11.08-.02,22.16-.04,33.24-.06s21.04-.04,31.56-.06c9.77-.02,19.53-.03,29.3-.05,9.07-.02,18.13-.03,27.2-.05,8.19-.01,16.38-.03,24.57-.04,7.33-.01,14.65-.03,21.98-.04,6.37-.01,12.74-.02,19.12-.03l16.01-.03c4.28,0,8.56-.02,12.84-.02l9.32-.02h5.71c.61-.01,1.22-.01,1.84-.01.77,0,1.86-.22,2.24-.99.35-.7-.3-1.23-.99-1.22s-1.33,0-2,0h-5.82c-3.17.02-6.34.02-9.51.03l-12.89.02-16.18.03-19.23.03-22.02.04c-8.27.01-16.55.03-24.82.04-9.04.02-18.08.03-27.13.05-9.85.02-19.71.03-29.56.05-10.48.02-20.96.04-31.44.06-11.14.02-22.27.04-33.41.06-11.69.02-23.39.04-35.08.06s-24.3.04-36.44.06l-37.95.07c-12.93.02-25.86.05-38.8.07-13.31.02-26.61.05-39.92.07-13.45.02-26.91.05-40.36.07-13.66.02-27.32.05-40.97.07-13.76.02-27.51.05-41.27.07-13.79.02-27.57.05-41.36.07s-27.51.05-41.26.07c-13.61.02-27.22.05-40.84.07-13.53.02-27.06.05-40.58.07s-26.43.05-39.65.07-26,.05-38.99.07c-12.56.02-25.12.04-37.67.07s-24.33.04-36.5.06c-11.67.02-23.35.04-35.02.06-11.08.02-22.16.04-33.24.06l-31.56.06c-9.77.02-19.53.03-29.3.05-9.07.02-18.13.03-27.2.05-8.19.01-16.38.03-24.57.04-7.33.01-14.65.03-21.98.04l-19.12.03-16.01.03c-4.28,0-8.56.02-12.84.02l-9.32.02h-5.71c-.61.01-1.22.01-1.84.01-.77,0-1.86.22-2.24.99-.35.7.3,1.23.99,1.22h0Z"/>
    <path class="cls-19" d="M976.99,559.35c-10.33-.36-21.1.55-30.89,4.02-4.47,1.59-8.84,3.77-12.28,7.09-3.97,3.84-6.1,9.42-7.63,14.61-3.63,12.29-3.38,25.4-3.75,38.13-.36,12.58-.73,25.17-1.09,37.75-.43,14.76-.85,29.52-1.28,44.29-.24,8.18-.58,16.37-.71,24.55,0,.12,0,.25-.01.37-.05,1.64,3.41,1.05,3.45-.33.19-6.62.38-13.25.57-19.87.41-14.14.82-28.27,1.22-42.41.38-13.31.77-26.62,1.15-39.93.27-9.49.32-19.07,1.25-28.53.65-6.56,1.82-13.16,4.37-19.27,1.03-2.48,2.2-5.06,3.95-7.13,1.35-1.61,2.97-2.93,4.74-4.06,4.03-2.58,8.72-4.07,13.36-5.12,5.08-1.15,10.29-1.71,15.48-1.9,2.28-.09,4.56-.08,6.85,0,.78.03,1.86-.23,2.24-1,.35-.72-.31-1.25-1-1.27h0Z"/>
    <path class="cls-19" d="M903.24,563.56c-7.87,10.45-15.92,21.17-20.25,33.66-4.24,12.23-4.52,25.38-4.98,38.18-.76,20.93-1.13,41.88-1.55,62.81-.21,10.75-.42,21.5-.66,32.25-.02.83,3.4.28,3.42-.92.46-20.31.8-40.62,1.26-60.93.23-10.14.48-20.27.81-30.41.4-12.08.5-24.41,3.5-36.18,3.71-14.56,12.69-26.71,21.59-38.53.47-.63-.41-.82-.88-.82-.71,0-1.81.28-2.27.89h0Z"/>
    <path class="cls-20" d="M479.93,349.17l-8.57-33.72s-15.6-18.88-31.28-23.92c-9.34-3-32.58-15.95-38.13-17.7,6.15,10.41,2.6,22.16-2.47,26.18-7.1,5.62-12.06,6.04-21.11,6.27-8.68.23-17.44-1.74-25.59-4.61-15.25-5.38-32.89-25.02-36.44-41.63l-14.14,7.08s-42.39,23.77-49.82,26.79c-7.42,3.02-17.14,192.17-17.14,192.17l-4.3,65.04c-1.7,7.88-33.16,76.77-6.8,138.89,0,0,161.93-50.64,179.21-50.89,20.08-.29,52.09-.44,57.18-10.02,5.09-9.58,19.41-279.93,19.41-279.93Z"/>
    <path class="cls-24" d="M622.22,638.32c-.05.02-.1.04-.16.04,0-.13,0-.27,0-.4.05.12.11.24.16.36Z"/>
    <path class="cls-16" d="M526.32,720.52c.74-4.51,1.72-8.98,2.88-13.39,2.62-9.97,6.18-19.68,10.41-29.07,4.34-9.66,9.43-18.99,15.24-27.84,3.95-6.01,8.26-11.82,12.94-17.29-93.58-20.25-354.87-2.05-354.87-2.05,0,0-5.58,15.91,8.86,69.08,17.96,66.13,231.17,41.01,303.51,20.85.35-.1.68-.2,1.02-.3Z"/>
    <path class="cls-32" d="M433.88,847.01s-.05,0-.08-.05c-.1-.18-.08-.14.08.05Z"/>
    <path class="cls-16" d="M546.31,649.92s6.45-36.77-25.42-45.81c-43.41-12.31-307.96,26.77-307.96,26.77l333.38,19.04"/>
    <path class="cls-24" d="M371.69,409.96c.06,0,.12,0,.18.02.03.23.13.46-.05.67-.04-.23-.08-.46-.13-.69Z"/>
    <path class="cls-24" d="M383.37,475.13s-.1.06-.16.08c-.03-.14-.05-.29-.08-.43.08.12.16.24.24.36Z"/>
    <path class="cls-10" d="M424.81,400.69c-.08,0-.16-.01-.24-.02.08-.04.15-.09.23-.13.03.05.04.1.01.15Z"/>
    <path class="cls-10" d="M390.7,406.63c.07-.06.15-.11.22-.17.03.04.05.08.08.12-.1.02-.2.03-.29.05Z"/>
    <path class="cls-10" d="M424.07,400.76c-.11.02-.21.04-.32.05.09-.12.2-.13.32-.05Z"/>
    <path class="cls-15" d="M270.63,534.1c6.3-13.97,26.49-2.77,41.68-8.49-4.01-26.93-19.26-135.38-31.85-175.38-15.01-47.7-31.97-44.09-31.97-44.09l-40.57,68.59s25.04,158.2,37.28,183.94c3.7,7.78,9.23,13.04,14.95,16.61.24-14.24,5.01-29.05,10.48-41.17Z"/>
    <path class="cls-15" d="M487.81,530.15c-25.43-6.91-156.64-15.6-156.64-15.6,0,0-29.81-1.42-29.6-3.25-15.78,1.75-20.97,3.67-30.14,14.07-8.77,9.96-12.75,32.54-16.01,46.07,6.04,6.31,13.42,7.46,13.42,7.46,32,13.31,188.83-5.58,232.55-15.79l-13.57-32.97Z"/>
    <g>
      <path class="cls-20" d="M475.51,477.28c1.94-26.67,1.41-68.05,1.88-94.78"/>
      <path class="cls-30" d="M476.61,477.2c1.81-25.01,1.52-50.18,1.68-75.24.04-6.51.09-13.03.2-19.54.02-1.12-2.18-.79-2.2.17-.43,25.09-.11,50.19-.91,75.27-.21,6.51-.49,13.01-.96,19.51-.08,1.11,2.13.8,2.2-.17h0Z"/>
    </g>
    <path class="cls-20" d="M278.6,462.08c7.86-.73,23.9-.71,32.85-7.65l-7.45-25.85s4.4-71.34-15.13-101.56c-19.53-30.21-27.2-41.21-27.2-41.21,0,0-58.27,25.69-56.05,87.31.61,17.04,1.01,59.2,4.26,88.6,13.67,3.04,47.12,2.35,68.72.35Z"/>
    <path class="cls-15" d="M475.9,982.08l-.31,8.23c13.3,7.72,35.23,18.72,44.64,22.09,12.13,4.35,14.35,5.48,28.75,11.05,5.63,2.18,8.04,3.03,14.4,3.48,6.38.45,12.43-2.56,17.17,2.49,3.13,3.34,1.8,8.31-1.78,11.36-3.59,3.06-8.86,4.57-14.05,5.54-5.19.97-10.55,1.53-15.45,3.17-1.85.62-3.66,1.4-5.66,1.64-4.52.53-9.54-1.78-13.5,0-1.12.5-1.99,1.29-3.11,1.8-1.67.76-3.7.82-5.63.73-13.95-.68-16.57-1.54-29.28-5.05-12.54-3.46-12.95-3-26.01-5.58-6.2-1.23-26.1,1.5-39.87-6.58-7.78-4.57-1.91-13.67-1.15-20.02,1.73-14.42,3.15-29.27,2.43-36.11,0,0,36.75,3.55,48.43,1.77Z"/>
    <path class="cls-15" d="M499.52,989.35c1.87,5.64-.21,18.31-1.82,24.65-1.85,7.3,4.2,12.78,13.39,15.8,7.72,2.54,11.67,2.36,20.01,1.92,10.9-.58,22.53-2.4,33.43-2.97,9.35-.49,38.72-2.86,47.91-1.5,14.31,2.12,23.09.24,29.39-1.76,1.74-.56,2.84-.48,3.64-1.65,2.08-3.03,1.78-6.36-2.95-8.88-5.96-3.17-13.01,1.31-18.58-2.44-.99-.67-1.91-1.42-3.05-1.89-2.23-.93-4.91-.69-7.43-.65-12.58.2-11.68-4.56-28.21-8.14-4.85-1.05-31.79-9.73-36.3-11.51l1.32-25.56h-54.14l3.37,24.58"/>
    <path class="cls-16" d="M611.2,681.18c-10.67,54.39-34.55,218.13-50.73,284.39,0,0-70.33,14.24-78.54-.66,0,0-90.21-348.97-46.07-361.21,32.53-9.02,132.74-7.18,152.12,3.41,23.27,12.71,31.62,31.24,23.22,74.08Z"/>
    <path class="cls-16" d="M558.35,651.89s-11.64-.36-27.72,2.3c2.05-6.74,2.33-11.59,2.33-11.59-1.77-1.37-3.63-2.77-5.57-4.18-8.9,3.36-17.45,7.44-25.65,12.02-9.53,5.33-18.61,11.33-27.13,17.91-8.21,6.34-15.91,13.26-22.83,20.74-1.96,2.12-3.85,4.29-5.66,6.52.29.04.58.08.86.12-26.06,34.82-13.81,102.24-21.46,166.17-5.61,46.88-13.65,111.75-13.65,111.75,9.73,14.08,94.92,7.22,94.92,7.22,17.88-86.21,51.56-328.98,51.56-328.98Z"/>
    <path class="cls-23" d="M416.42,928.7s13.33,6.22,44.41,6.6c31.08.38,51.6-3.19,51.6-3.19l-5.34,48.03s-18.45,5.17-55.5,4.51c-33.7-.6-41.09-9.61-41.09-9.61l5.92-46.33Z"/>
    <path class="cls-23" d="M517.34,924.64c-1.26,9.46-2.9,18.87-4.41,28.29-1.12,6.97-1.64,14.1-2.82,21.08,35.48.41,53.16-4.54,53.16-4.54l5.34-48.03s-20.37,3.55-51.26,3.2Z"/>
    <path class="cls-3" d="M434.88,735.81c2.79-16.14,9.08-31.52,18.38-45,.39-.57-.34-1-.81-1.06-.69-.08-1.41.25-1.8.82-9.39,13.61-15.73,29.2-18.55,45.49-.22,1.29,2.57.9,2.77-.25h0Z"/>
    <path class="cls-3" d="M472.52,605.73c14.55-1.32,29.51-1.44,43.83,1.8,8.89,2.01,17.62,5.45,24.89,11.05,5.53,4.26,9.79,9.6,13.36,15.55,3.29,5.48,5.85,11.24,6.37,17.67.48,5.86-.12,11.88-.94,17.69-1.67,11.87-4.28,23.62-6.77,35.34-2.35,11.05-4.85,22.07-6.94,33.18-3.55,18.86-7.08,37.72-10.53,56.59-3.39,18.52-6.71,37.06-9.91,55.62-3.14,18.22-6.17,36.45-9.04,54.71-2.81,17.94-5.46,35.9-7.9,53.89-.59,4.35-1.17,8.71-1.73,13.06-.14,1.1,2.73.58,2.86-.37,2.35-18.16,4.94-36.29,7.69-54.39,2.8-18.35,5.77-36.68,8.88-54.99,3.16-18.65,6.45-37.28,9.83-55.89,3.45-19.05,6.99-38.08,10.56-57.11,2.35-12.49,4.86-24.93,7.53-37.35,2.67-12.39,5.39-24.8,7.5-37.3.89-5.28,1.56-10.56,1.82-15.9.31-6.22-.2-12.25-2.66-18.02-2-4.69-4.72-9.21-7.75-13.31-1.89-2.55-4.01-4.92-6.35-7.06-6.27-5.74-13.95-9.72-22.02-12.28-12.62-4-26.08-4.92-39.25-4.52-4.32.13-8.63.41-12.94.8-.48.04-1.55.36-1.63.96-.09.64.83.62,1.23.59h0Z"/>
    <g>
      <path class="cls-20" d="M263.79,312.16c10.26-.69,20.67,11.23,25.49,20.3,12.81,24.14,20.25,82.84,22.17,121.98,0,0-9.11,4.69-12.96,4.68,0,0-14.04,3.19-33.08,4.41-19.04,1.22-55.52-1.79-55.52-1.79l-1.66-13.79s32,3.78,54.4,2.09c22.41-1.69,45-7.79,45-7.79"/>
      <path class="cls-30" d="M263.65,312.78c5.32-.29,10.28,3.01,14.06,6.42,4.07,3.68,7.53,8.16,10.17,12.97,3.93,7.15,6.41,15.14,8.55,22.98,5.7,20.9,8.79,42.57,11.11,64.08,1.27,11.8,2.24,23.64,2.83,35.5l.65-.76c-2.35,1.21-4.77,2.3-7.24,3.23-1.54.58-3.11,1.11-4.76,1.28-.51.05-.96.13-1.46.24-7.18,1.52-14.48,2.54-21.77,3.31-17.2,1.82-34.47,1.09-51.7.03-4.6-.28-9.19-.59-13.78-.96l.67.35c-.55-4.6-1.1-9.19-1.66-13.79l-1.5.93c10.33,1.22,20.75,1.95,31.15,2.33,8.15.29,16.34.33,24.48-.32,9.73-.79,19.4-2.33,28.96-4.25,5.15-1.04,10.3-2.16,15.37-3.52,1.3-.35,1.01-1.49-.31-1.14-13.04,3.52-26.51,5.95-39.94,7.32-15.77,1.6-31.75.76-47.51-.57-3.8-.32-7.59-.67-11.38-1.11-.49-.06-1.58.28-1.5.93.55,4.6,1.1,9.19,1.66,13.79.03.28.47.33.67.35,12.02.99,24.08,1.67,36.14,1.96,17.22.43,34.4-.86,51.31-4.29.57-.12,1.14-.26,1.71-.36-.89.15.11.04.31.02.48-.05.95-.14,1.42-.24.98-.21,1.94-.51,2.89-.83,2.96-1.02,5.85-2.3,8.63-3.73.32-.16.67-.36.65-.76-1.1-22.23-3.38-44.46-6.98-66.43-1.73-10.61-3.79-21.18-6.54-31.58-2.15-8.11-4.64-16.32-8.55-23.77-2.8-5.32-6.53-10.28-11.03-14.28-4.3-3.82-9.58-6.88-15.51-6.56-1.1.06-1.79,1.33-.28,1.25h0Z"/>
    </g>
    <path class="cls-14" d="M399.83,223.67c-9.27.05-24.3-.96-24.3-.96,0,0,3.14,20.59,24.63,20.48,21.5-.11,19.63-20.12,19.63-20.12,0,0-10.69.56-19.96.61Z"/>
    <path class="cls-6" d="M399.92,223.67c-4.41.02-22.18-.63-22.18-.63,0,0,6.42,12.42,22.37,12.34,17.29-.09,18.52-12.32,18.52-12.32l-18.7.61Z"/>
    <path class="cls-13" d="M400.11,224.33c-4.41.02-17.83-.65-17.83-.65,0,0,4.85,4.8,18.08,4.73,13.22-.07,17.4-4.77,17.4-4.77l-17.65.69Z"/>
    <path class="cls-14" d="M420.38,221.36c-.45-.11-1.17-.03-3.28-.21-3.53-.3-4.52-.71-7.07-.9-4.36-.32-7.12,1.47-9.02,1.48-1.9,0-4.67-1.75-9.03-1.39-2.55.22-8.87,1.21-12.39,1.54-2.11.2-4.6-.64-5.05-.52-.63.16.62,4.93,24.44,4.81,23.83-.12,22.04-4.65,21.41-4.81Z"/>
    <path class="cls-31" d="M311.44,512.59c-5.57.29-9.82,4.06-13.44,7.94-3.58,3.84-6.93,8.48-6.78,13.97.01.47,2.76.05,2.74-.73-.13-4.77,2.54-8.95,5.58-12.41,1.46-1.66,3.02-3.27,4.71-4.71,1.72-1.46,3.68-2.82,5.99-2.94.49-.03,1.55-.2,1.83-.66s-.26-.48-.65-.46h0Z"/>
    <g>
      <path class="cls-20" d="M477.54,466.93c21.94.64,27.06-4.66,27.06-4.66l1.3,9.63s-6.58,6.02-28.52,5.38"/>
      <path class="cls-30" d="M477.15,467.66c6.42.18,12.95,0,19.25-1.35,2.76-.59,5.63-1.42,8.03-2.95.37-.24.75-.5,1.06-.82l-1.98.02c.43,3.21.86,6.42,1.3,9.63l.19-.56c.19-.17.17-.09-.02.01s-.39.28-.59.41c-.71.46-1.54.87-2.49,1.28-3.76,1.61-7.89,2.36-11.94,2.8s-8.12.53-12.19.42c-.46-.01-1.23.14-1.42.64-.17.46.15.8.64.82,8.29.22,17.02-.15,24.85-3.14,1.46-.56,2.93-1.23,4.22-2.12.22-.15.57-.35.73-.57.38-.52.1-1.35.02-1.94-.37-2.75-.74-5.51-1.11-8.26-.11-.84-1.65-.33-1.98.02-.15.15-.03.03.02,0-.16.13-.32.25-.49.36-.62.42-1.23.72-2.11,1.09-3.54,1.49-7.47,2.07-11.27,2.43s-7.94.43-11.91.32c-.46-.01-1.23.14-1.42.64-.17.46.15.8.64.82h0Z"/>
    </g>
    <path class="cls-19" d="M64.23,553.3c10.37-.39,21.58.66,31.15,4.95,4.27,1.92,8.34,4.64,10.92,8.63,3.56,5.51,5.31,12.43,6.42,18.82,2.02,11.65,1.92,23.63,2.24,35.43.37,13.53.73,27.06,1.1,40.59.41,15.31.83,30.63,1.24,45.94.23,8.38.43,16.77.68,25.15,0,.13,0,.25.01.38.04,1.66,3.49,1.03,3.45-.33-.19-7.11-.38-14.21-.58-21.32-.41-15.15-.82-30.3-1.23-45.44-.38-14.2-.77-28.41-1.15-42.61-.29-10.58-.3-21.26-1.39-31.78-.73-7.01-2.04-14.03-4.77-20.56-1.06-2.55-2.26-5.14-4.01-7.3-1.45-1.79-3.23-3.33-5.14-4.63-8.83-6.02-20.48-7.78-30.94-8.19-2.54-.1-5.08-.1-7.62,0-.67.02-1.83.51-1.91,1.3-.08.85.92.99,1.54.97h0Z"/>
    <path class="cls-19" d="M134.36,556.04c8.1,11.48,16.31,23.25,20.43,36.84,3.95,13.02,4.14,26.84,4.59,40.32.73,22.12,1.1,44.25,1.52,66.37.21,11.3.41,22.6.65,33.9.02.87,3.45.26,3.42-.92-.46-21.78-.81-43.56-1.27-65.33-.23-10.68-.47-21.37-.8-32.05-.41-13.06-.48-26.38-3.57-39.14-3.74-15.4-12.76-28.5-21.77-41.26-.57-.81-3.89.29-3.2,1.27h0Z"/>
    <g>
      <path class="cls-20" d="M407,273.2s22.5,31.72-23.19,40.13c-54.94,10.11-77.13-48.34-77.13-48.34l9.66-4.95s15.62,49.27,69.09,44.18c0,0,24.79-4.3,16.4-28.14l-2.24-6.36,7.42,3.47Z"/>
      <path class="cls-30" d="M405.92,273.49c3.09,4.37,5.16,9.98,5.5,15.31.29,4.6-.97,9.15-3.85,12.79-4.48,5.65-11.67,8.49-18.44,10.23-15.51,3.97-31.85,2.61-45.93-5.26-10.55-5.9-19.24-14.74-26.03-24.66-2.41-3.53-4.61-7.21-6.55-11.02-.64-1.26-1.26-2.53-1.84-3.83-.28-.62-.48-1.55-.9-2.09-.05-.07-.07-.18-.1-.26l-.46.44c3.22-1.65,6.44-3.3,9.66-4.95l-1.71.15c1.24,3.9,3.18,7.66,5.21,11.19,4.65,8.07,10.76,15.37,18.18,21.02,10.08,7.68,22.32,11.8,34.94,12.41,3.81.18,7.87.28,11.65-.33.66-.11,1.31-.28,1.95-.45,3.4-.93,6.73-2.37,9.6-4.42,3.86-2.76,6.74-6.66,7.57-11.39,1.02-5.78-.95-11.19-2.84-16.55l-.84-2.37-2.11.66c2.47,1.16,4.95,2.32,7.42,3.47.41.19,1,.03,1.4-.12.09-.03.99-.46.65-.62-2.47-1.16-4.95-2.32-7.42-3.47-.31-.14-2.3.11-2.11.66,1.62,4.6,3.62,9.24,3.93,14.17s-1.36,10.01-5.04,13.6c-2.6,2.53-5.87,4.27-9.3,5.39-.35.11-.96.29-1.49.43-.19.05-.39.1-.59.14-.05.01.14,0-.18.04-2.68.36-5.46.39-8.17.36-12.58-.14-24.9-3.76-35.21-11.05-7.64-5.4-13.97-12.52-18.83-20.49-1.64-2.68-3.11-5.47-4.4-8.33-.41-.93-.81-1.86-1.18-2.81-.18-.46-.29-1.11-.56-1.52-.03-.05-.05-.13-.06-.19-.14-.45-1.48.03-1.71.15-3.22,1.65-6.44,3.3-9.66,4.95-.1.05-.53.24-.46.44,2,5.26,4.88,10.28,7.92,14.99,6.51,10.08,14.86,19.19,25.11,25.55,13.3,8.25,28.96,10.72,44.3,8.04,12.09-2.11,28.72-7.36,30.54-21.68.52-4.09-.28-8.26-1.72-12.09-.88-2.35-1.97-4.8-3.44-6.85-.08-.11-.15-.22-.22-.33-.38-.53-2.35.34-2.17.58Z"/>
    </g>
  </g>
  <g id="Layer_2" data-name="Layer 2">
    <path class="cls-26" d="M312.11,199.35c-1.33-3.92-2.87-7.81-5-11.38-1.12-1.88-2.42-3.71-4.1-5.15-.65-.56-1.43-1.14-2.28-1.38-1-.28-1.73.66-2.29,1.36-2.26,2.8-2.83,6.45-2.48,9.95.06.62,1.52.28,1.45-.39-.27-2.71.03-5.51,1.38-7.91.46-.82,1.22-1.83,1.83-2.27l-.73.2c-.36-.06.43.18.33.13.58.27,1.11.65,1.59,1.07,2.28,1.94,3.9,4.7,5.23,7.34,1.44,2.84,2.59,5.82,3.61,8.83.21.62,1.66.22,1.45-.39h0Z"/>
    <path class="cls-26" d="M309.44,200.78c-2.16-.18-3.6,1-3.64,3.16-.04,1.99.81,4.05.54,6.02-.02.18-.11.36-.13.53,0,.04-.09.12-.09.15l-.07.09.47-.08c-.02.06-.9-1.08-.95-1.17-.78-1.51-1.2-3.23-1.56-4.88-.45-2.1-.68-3.89-.38-5.98.33-2.33,1.19-5.68,3.74-6.5.84-.27.68-.98-.19-.7-2.6.83-3.99,3.07-4.65,5.61-.4,1.54-.7,3.31-.5,4.91.28,2.18.72,4.39,1.46,6.47.34.94.83,2.51,1.86,2.94.79.33,1.8-.11,2.2-.84.43-.78.25-1.87.15-2.71-.16-1.32-.46-2.64-.46-3.97,0-.57.04-1.23.32-1.74.31-.54.71-.54,1.3-.5.54.04,1.54-.72.57-.8h0Z"/>
    <path class="cls-11" d="M855.27,405.78s.12,16.32,0,18.38c-.77,12.8-14.52,78.33-23.18,90.33-8.21,11.39-20.55,6.57-39.04-8.28-6.03-4.84-13.47-.02-8.54-16.09,11.32-36.88,21.59-117.82,21.59-117.82l49.16,33.48Z"/>
    <path class="cls-11" d="M832.09,514.49c-3.09,6.3-11.98,12.18-25.1,13.47-39.76,3.91-108.44,1.45-145.21-1.03l6.87-13.48-6.62-11.18,128.28-27.24"/>
    <path class="cls-21" d="M813.13,306.09s-20.05,23.55-20.83,46.38c-1.17,34.44-6.51,51.64-6.51,51.64l-2.88,8.69c1.17,2.95,23.09,18.63,36.87,13.84l9.65,2.83-16.31-123.38Z"/>
    <path class="cls-11" d="M994.26,1064.06c-3.66-25.84,13.21-142.87,4.02-208.91-11.79-84.69,18.21-160.03,26.83-195.27,17.85-72.97,26.81-122.33,6.36-153.45l-174.1,12.73,2.2,34.11c-9.18,38.05,11.37,175.72,14.82,278.82l34.4,217.52s7.79,8.61,24.83,1.9c0,0,1.36,13.97,6,13.83,25.88-.78,18.1,8.85,54.64-1.29Z"/>
    <path class="cls-25" d="M938.09,1062.52c-.19-1.7-.38-3.4-.57-5.1-.52-4.65-1.04-9.3-1.56-13.96-.77-6.93-1.55-13.85-2.32-20.78-.95-8.49-1.89-16.98-2.84-25.46-1.05-9.45-2.11-18.89-3.16-28.34-1.08-9.7-2.16-19.39-3.25-29.09-1.03-9.27-2.07-18.54-3.1-27.81-.91-8.17-1.82-16.34-2.73-24.51-.71-6.39-1.43-12.78-2.14-19.18-.44-3.93-.88-7.86-1.31-11.79-.66-5.9-1.33-11.79-1.71-17.72-.32-4.91-.49-9.83-.52-14.75-.02-3.82.21-7.64.17-11.45,0-.73-.05-1.45-.07-2.18-.16-4.6-.31-9.2-.47-13.8-.26-7.66-.52-15.32-.78-22.98-.32-9.31-.63-18.62-.95-27.93-.33-9.67-.66-19.34-.99-29.02-.29-8.63-.59-17.26-.88-25.89-.21-6.22-.42-12.43-.64-18.65-.08-2.42-.03-4.89-.25-7.31-.19-2.13-.8-4.3-1.36-6.34-1.23-4.46-2.98-8.87-5.58-12.72-2.72-4.01-6.54-7.25-11.35-8.33-.49-.11-1.2.01-1.54.41-.29.34-.27.76.23.87,9.71,2.17,14.27,13.07,16.43,21.76.63,2.54.99,4.86,1.08,7.44.16,4.72.32,9.43.48,14.15.26,7.7.53,15.41.79,23.11.32,9.34.64,18.68.95,28.01s.66,19.32.99,28.98c.29,8.54.58,17.09.87,25.63.21,6.12.42,12.24.63,18.35.08,2.44.27,4.9.22,7.34-.19,9.46-.16,18.88.54,28.32.32,4.3.79,8.57,1.27,12.85.29,2.6.58,5.2.87,7.79l1.78,15.99c.83,7.4,1.65,14.8,2.48,22.21.98,8.81,1.96,17.61,2.95,26.42,1.07,9.58,2.14,19.16,3.21,28.75s2.14,19.22,3.22,28.82c1,9.01,2.01,18.01,3.01,27.02.86,7.74,1.73,15.47,2.59,23.21.65,5.8,1.29,11.6,1.94,17.4l1.07,9.59c.05.41.09.83.14,1.24.09.82,2.27.32,2.17-.58h0Z"/>
    <path class="cls-33" d="M902.9,816.27c20.93,3.19,46.9,1.16,68.01-1.17,20.58-2.27,40.05-4.1,53.83-8.46,6.26-48.71,7.48-114.2,13.12-137.24,17.85-72.97,5.18-144.01-15.26-175.13l-165.46,34.41-1.04,34.11c-7.57,31.36-3.08,152.19,2.75,243.76,9.49,1.59,34.55,8.26,44.06,9.71Z"/>
    <path class="cls-6" d="M829.75,206.38c3.68.22,7.06,2.98,8.02,6.53.96,3.56-.59,7.64-3.66,9.68,3.18,3.21,6.47,6.62,7.7,10.97,1.23,4.35-.44,9.88-4.72,11.35,2.87,2.5,5.87,5.22,6.89,8.88,1.02,3.67-1.01,8.42-4.8,8.78,2.33,2.36,4.74,4.88,5.59,8.09.84,3.21-.56,7.26-3.76,8.14,3.02,2.42,5.66,5.99,5.14,9.82-.52,3.83-5.75,6.66-8.48,3.93-1.63-1.63-1.61-4.23-1.48-6.52.15-2.76.3-5.51.45-8.27-5.15-2.8-6.31-10.87-2.15-15.01-6.04-3.55-6.92-13.35-1.61-17.91-6.69-4.5-8.26-15.01-3.17-21.27-6.87-3.87-7.95-14.95-1.97-20.08"/>
    <path class="cls-6" d="M890.5,186.09c3.68-.22,7.37,2.11,8.74,5.53s.33,7.66-2.48,10.04c3.54,2.81,7.22,5.8,8.96,9.97,1.74,4.17.74,9.86-3.33,11.83,3.14,2.14,6.45,4.48,7.9,8,1.45,3.52,0,8.48-3.72,9.29,2.59,2.07,5.29,4.28,6.51,7.37,1.22,3.08.31,7.28-2.76,8.53,3.29,2.04,6.33,5.27,6.27,9.14-.06,3.87-4.92,7.3-7.96,4.91-1.81-1.42-2.1-4-2.25-6.3-.18-2.76-.36-5.51-.54-8.27-5.45-2.17-7.56-10.04-3.92-14.64-6.42-2.8-8.46-12.43-3.74-17.59-7.18-3.67-9.99-13.92-5.69-20.74-7.28-3.02-9.68-13.89-4.35-19.7"/>
    <path class="cls-11" d="M894.41,205.35s.51,24.59,11.27,40.02c1.85,2.65,21.31,11.05,21.31,11.05l-12.02,21.25c-10.76,11.56-20.48,25.44-36.13,27.54-8.87,1.19-30.61,7.98-38.1,7.21l-9.09-23.36,15.97-15.44c-.13-3.8-8.66-27.66-8.66-27.66"/>
    <path class="cls-6" d="M910.84,172.19c3.63-.63,7.56,1.28,9.3,4.52,1.75,3.24,1.18,7.57-1.35,10.26,3.83,2.4,7.82,4.97,10.01,8.92,2.19,3.95,1.82,9.72-2,12.13,3.36,1.78,6.91,3.74,8.74,7.07,1.83,3.34.94,8.43-2.66,9.65,2.81,1.77,5.73,3.67,7.29,6.6,1.55,2.93,1.11,7.2-1.8,8.78,3.49,1.66,6.88,4.54,7.25,8.39.37,3.85-4.08,7.8-7.36,5.76-1.95-1.21-2.53-3.75-2.93-6.01-.48-2.72-.97-5.44-1.45-8.16-5.65-1.55-8.62-9.14-5.52-14.12-6.69-2.07-9.79-11.41-5.66-17.07-7.54-2.85-11.47-12.72-7.95-19.98-7.57-2.2-11.16-12.74-6.51-19.1"/>
    <path class="cls-6" d="M927.64,200.94c3.63-.63,7.56,1.28,9.3,4.52,1.75,3.24,1.18,7.57-1.35,10.26,3.83,2.4,7.82,4.97,10.01,8.92,2.19,3.95,1.82,9.72-2,12.13,3.36,1.78,6.91,3.74,8.74,7.07s.94,8.43-2.66,9.65c2.81,1.77,5.73,3.67,7.29,6.6,1.55,2.93,1.11,7.2-1.8,8.78,3.49,1.66,6.88,4.54,7.25,8.39.37,3.85-4.08,7.8-7.36,5.76-1.95-1.21-2.53-3.75-2.93-6.01-.48-2.72-.97-5.44-1.45-8.16-5.65-1.55-8.62-9.14-5.52-14.12-6.69-2.07-9.79-11.41-5.66-17.07-7.54-2.85-11.47-12.72-7.95-19.98-7.57-2.2-11.16-12.74-6.51-19.1"/>
    <path class="cls-6" d="M907.33,173.83c3.68-.22,7.37,2.11,8.74,5.53,1.38,3.42.33,7.66-2.48,10.04,3.54,2.81,7.22,5.8,8.96,9.97,1.74,4.17.74,9.86-3.33,11.83,3.14,2.14,6.45,4.48,7.9,8,1.45,3.52,0,8.48-3.72,9.29,2.59,2.07,5.29,4.28,6.51,7.37,1.22,3.08.31,7.28-2.76,8.53,3.29,2.04,6.33,5.27,6.27,9.14-.06,3.87-4.92,7.3-7.96,4.91-1.81-1.42-2.1-4-2.25-6.3-.18-2.76-.36-5.51-.54-8.27-5.45-2.17-7.56-10.04-3.92-14.64-6.42-2.8-8.46-12.43-3.74-17.59-7.18-3.67-9.99-13.92-5.69-20.74-7.28-3.02-9.68-13.89-4.35-19.7"/>
    <path class="cls-6" d="M900.48,178.92c3.68-.22,7.37,2.11,8.74,5.53,1.38,3.42.33,7.66-2.48,10.04,3.54,2.81,7.22,5.8,8.96,9.97,1.74,4.17.74,9.86-3.33,11.83,3.14,2.14,6.45,4.48,7.9,8,1.45,3.52,0,8.48-3.72,9.29,2.59,2.07,5.29,4.28,6.51,7.37,1.22,3.08.31,7.28-2.76,8.53,3.29,2.04,6.33,5.27,6.27,9.14-.06,3.87-4.92,7.3-7.96,4.91-1.81-1.42-2.1-4-2.25-6.3-.18-2.76-.36-5.51-.54-8.27-5.45-2.17-7.56-10.04-3.92-14.64-6.42-2.8-8.46-12.43-3.74-17.59-7.18-3.67-9.99-13.92-5.69-20.74-7.28-3.02-9.68-13.89-4.35-19.7"/>
    <path class="cls-25" d="M884.7,232.96s3.2,25.32-37.72,37.45c0,0-1.26-4.91-1.82-6.4v-.64s39.54-30.41,39.54-30.41Z"/>
    <path class="cls-11" d="M892.48,221.93c-7.81,15.59-20.06,34.61-37.56,42.48-14.82,6.68-21.08,3.6-23.83,1.91-15.12-9.28-26.2-19.86-34.55-33.27-2.27-3.64-3.55-7.88-4.47-12.33-1.38-6.67-3.54-19.6-5.34-25.85-4.57-15.92-1.24-31.67,3.93-47.48,10.76-32.94,49.13-43.43,67.43-40.11,21.39,3.88,34.9,19.88,41.33,39.03,2.1,6.25,3.06,12.36,2.97,18.29-1.89,3.71-3.35,7.57-4.4,11.53"/>
    <g>
      <path class="cls-6" d="M789.4,140.84s-1.54,10.79-4.58,32.49c.36-6.74-1.07-16.34,1.84-26.4,10.15-35.14,65.88-45.88,84.35-41.95,21.59,4.6,33.89,22.21,40.76,42.89,2.79,8.4,4.62,13.75,4,21.51-.09.13-1.17,2.1-1.17,2.1,0,0-16.27,7.94-19.12,19.89l-2.69-9s-2.01-5.44-12.25-24.96c0,0-1.27-3.2-10.71-14.81-9.44-11.61-16.54-13.73-16.54-13.73,0,0-29.18,3.01-35.82,4.86-6.64,1.85-28.05,7.11-28.05,7.11Z"/>
      <path class="cls-6" d="M789.22,140.87c-.24,1.64-.47,3.29-.7,4.93-.7,4.94-1.4,9.89-2.09,14.83-.6,4.24-1.19,8.49-1.78,12.73l.36-.08c.27-5.26-.23-10.53.1-15.79.32-5.2,1.32-10.36,3.37-15.17,2.88-6.74,7.58-12.53,13.14-17.26,5.81-4.94,12.51-8.78,19.49-11.81s14.05-5.19,21.37-6.73c6.28-1.32,12.71-2.17,19.13-2.22,2.46-.02,4.92.08,7.36.43,3.85.55,7.65,1.76,11.19,3.33,8.36,3.71,15.27,9.95,20.5,17.38,5.7,8.08,9.28,17.24,12.29,26.6,1.64,5.11,2.94,10.28,2.74,15.69-.02.52.05,1.25-.13,1.74-.13.34-.38.67-.55.98-.16.29-.35.58-.48.88-.02.06-.17.24-.02.12-.01,0-.03.01-.04.02-.45.34-1.08.56-1.57.84-5.9,3.33-11.74,7.79-15.3,13.66-1.02,1.69-1.82,3.51-2.29,5.43l.36-.08c-.57-1.9-1.13-3.79-1.7-5.69-.34-1.13-.63-2.3-1.03-3.42-.87-2.4-2.07-4.71-3.17-7.01-1.45-3.02-2.95-6.02-4.47-9s-3.15-5.97-4.64-8.99c-.47-.95-1.05-1.85-1.63-2.73-1.66-2.51-3.47-4.91-5.31-7.28-4.87-6.28-10.06-12.7-16.99-16.82-.71-.42-1.44-.82-2.19-1.16-.32-.15-.7-.36-1.05-.43-.64-.12-1.47.12-2.12.19-5.03.54-10.05,1.11-15.07,1.72-5.5.68-11.04,1.33-16.48,2.4-1.85.36-3.65.9-5.47,1.37-2.9.76-5.81,1.5-8.71,2.23-5.11,1.29-10.23,2.56-15.34,3.82-.3.07-.6.15-.9.22-.22.05-.18.18.04.13,3.83-.94,7.65-1.89,11.47-2.84,5.51-1.38,11.03-2.74,16.51-4.25,1.89-.52,3.84-.83,5.78-1.14,2.81-.45,5.63-.84,8.45-1.21,5.62-.74,11.25-1.39,16.89-2.01,1.45-.16,2.9-.31,4.35-.47.1-.01.22-.04.32-.03.03,0-.1-.02.04.02.39.11.78.3,1.14.47,2.07.97,3.99,2.28,5.79,3.68,3.38,2.64,6.38,5.76,9.11,9.06s5.19,6.44,7.6,9.8c1.07,1.5,2.14,3.02,3.05,4.62.79,1.38,1.48,2.83,2.21,4.24,1.89,3.63,3.75,7.28,5.56,10.95,1.62,3.28,3.25,6.58,4.66,9.96.15.37.28.72.4,1.1.68,2.27,1.36,4.54,2.04,6.81.18.59.35,1.17.53,1.76.03.09.34,0,.36-.08,1-4.11,3.5-7.67,6.42-10.66,2.57-2.63,5.51-4.89,8.61-6.86.98-.63,1.99-1.22,3.01-1.78.32-.17.83-.33,1.08-.59.17-.18.27-.5.39-.72.2-.37.4-.74.61-1.1.18-.32.19-.55.21-.94.05-.76.07-1.52.07-2.29,0-2.62-.32-5.22-.88-7.77-.61-2.74-1.46-5.42-2.34-8.09-.84-2.57-1.7-5.14-2.67-7.67-1.72-4.46-3.75-8.8-6.18-12.91-4.63-7.84-10.82-14.86-18.7-19.55-6.11-3.64-13.06-5.89-20.17-6.22-6.05-.28-12.15.32-18.12,1.32-7.25,1.22-14.41,3.12-21.3,5.71-7.1,2.66-13.97,6.08-20.14,10.5-5.97,4.27-11.31,9.54-15.05,15.89-1.98,3.36-3.48,6.99-4.43,10.78-1.47,5.85-1.57,11.88-1.45,17.87.05,2.37.12,4.74,0,7.11,0,.07.35.01.36-.08.95-6.81,1.91-13.62,2.87-20.43.49-3.5.99-7,1.49-10.5.07-.52.15-1.04.22-1.56.01-.1-.35-.04-.36.06Z"/>
    </g>
    <path class="cls-6" d="M844.25,188.12c1.7-1.22,4.02-1.07,5.43-.49.33.13,1.23.53,1.79,1.43.73,1.15.4,2.72-.39,3.82-1.07,1.47-3.21,2.19-5.02,1.96-2.46-.31-3.67-2.34-3.44-4.07.04-.32.27-1.67,1.64-2.65"/>
    <path class="cls-6" d="M836.9,196.15s4.87-9.32,11.83-10.98c9.78-2.33,13.05,1.69,15.68,3.56,0,0-7.53-4.07-15.06-2.12-6.83,1.77-12.45,9.53-12.45,9.53Z"/>
    <path class="cls-6" d="M800.1,198.36c-2.03-.33-4.07.86-5.1,2.02-.24.27-.89,1.04-1.04,2.11-.19,1.37.73,2.64,1.9,3.28,1.56.85,3.79.52,5.33-.51,2.1-1.4,2.37-3.77,1.46-5.24-.17-.27-.92-1.39-2.55-1.66"/>
    <path class="cls-6" d="M811.8,201.89s-6.92-6.5-12.52-5.16c-7.88,1.89-8.75,6.9-9.96,9.69,0,0,3.92-6.8,10.04-8.11,5.55-1.19,12.43,3.59,12.43,3.59Z"/>
    <path class="cls-6" d="M784.6,190.95s-.12-.59-.15-.63c.59-1.12,1.42-2.17,2.42-3.16,4.92-4.94,7.99-6.47,18.29-9.31l.12.22c.73,1.21.32.54,1.06,1.76.56.93,1.12,1.86,1.67,2.79-3.14.81-5.56,1.1-7.48,1.8-3.82,1.38-8.47,2.46-11.57,5.12-1.01.86-2.18,1.96-2.89,3.32-.5-.81-.95-1.1-1.47-1.9Z"/>
    <path class="cls-6" d="M832.1,170.96c-.14,1.41-.06.62-.19,2.04-.1,1.08-.2,2.16-.3,3.24,3.55-.57,6.12-1.31,8.39-1.48,4.51-.33,9.71-1.28,14.12-.15,2.11.54,4.94.99,6.29,3.07.36.56,1.15,2.88,2.03,2.58.36-.12-.03-1.92-.08-2.1-.82-3.62-3.7-5.38-7.31-6.58-7.37-2.45-11.2-2.57-22.94-.86"/>
    <g>
      <path class="cls-6" d="M825.83,223.78c2.04.52,4.75-.36,6.31-1.93.34-.35,1.75-.43,1.27.06-2.05,2.07-5.99,3.16-8.62,2.49-.26-.07-.26-.26,0-.42.28-.17.76-.27,1.04-.2"/>
      <path class="cls-6" d="M834.07,221.2c1.08-.87,2.37-1.5,3.71-1.93.2-.06.47-.05.65.05.14.08.2.21.07.33-.54.51-1.31.85-2.05,1.02-.23.05-.55.07-.73-.1-.17-.16.03-.33.21-.37.61-.13,1.2-.4,1.65-.82.24.13.48.25.72.38-1.2.38-2.35.96-3.31,1.74-.19.15-.52.16-.74.09-.17-.05-.37-.22-.18-.37"/>
      <path class="cls-6" d="M839.52,220.08c1.59-.42,3.29-1.56,3.79-2.95.75-2.1-1.1-4.89-3.37-5.57-.25-.07-.17-.27.04-.36.27-.13.64-.1.89-.03,1.98.6,3.72,2.86,3.87,4.63.14,1.65-1.12,3.13-2.92,4.04-.53.27-1.12.51-1.71.67-.24.06-.69.09-.86-.07-.17-.16.03-.3.26-.36"/>
      <path class="cls-6" d="M822.71,223.67c.04-.2-.15-.29-.27-.25-.43.11-.9.1-1.34-.11-.1.21-.2.41-.3.62.89-.11,1.82-.03,2.71.3.18.07.38-.05.49-.2.08-.11.14-.34-.04-.41"/>
      <path class="cls-6" d="M823.98,223.61c-1-.37-2.04-.44-3.03-.32-.14.02-.31.14-.38.29-.06.12-.04.26.09.32"/>
      <path class="cls-6" d="M819.45,224.68c-1.05.21-2.43-.2-3.23-1.28-1.21-1.63-1.01-3.96,0-5.43.11-.16,0-.31-.16-.32-.2-.02-.4.14-.51.31-.88,1.28-1.22,3.1-.64,4.76.54,1.55,1.8,2.43,3.16,2.59.4.05.82.05,1.21-.03.16-.03.42-.17.45-.38.03-.21-.13-.26-.28-.23"/>
    </g>
    <path class="cls-7" d="M785.34,129.17c2.94-2.79,8.77-3.74,8.77-3.74,0,0,2.49-8.09,8.04-13.48,5.55-5.39,15.95-4,15.95-4,0,0,1.48-5.28,8.64-9,7.16-3.72,16.96.61,16.96.61,0,0,6.67-8.02,16.68-5.78,8.43,1.89,12.76,7.01,12.76,7.01,16.16-4.33,24.35,6.2,28.49,18.96,2.64.29,5.66.99,7.62,2.63,10.7,8.97,10.98,46.01,6.28,54.12l-1.3-1.66-8.45-25.88c.03,2.75-.05,4.44-.05,4.44l-.2,22.29-37.77-51.54s-66.81,12.58-73.9,15.86c-7.09,3.28-9.28,21.5-9.28,21.5-1.08-6.9-6.29-25.68.74-32.36Z"/>
    <path class="cls-11" d="M791.79,145.67c4.57-15.92,15.68-21.56,32.92-28.11,17.24-6.55,42.13-8.45,58.06,6.57,7.01,6.6,10.91,16.95,13.08,26.47-.84,1.03-1.55,2.21-2.07,3.51-1.73,4.3-3.18,8.72-4.92,13.02-1.62,4-4.09,7.52-5.58,11.64-.25.68-.36,1.38-.39,2.08-.89-.01-1.79-.12-2.7-.34-4.17-1-7.95-3.51-11.45-5.89-3.56-2.43-7.02-4.97-10.83-6.99-4.56-2.42-9.06-4.94-13.67-7.28-9.41-4.77-19.31-8.58-29.97-8.91-8.36-.26-16.39,1.79-24.37,3.98.46-3.54,1.07-6.88,1.9-9.75Z"/>
    <g>
      <path class="cls-6" d="M864.87,148.13c-.17,1.18-.34,2.4-.03,3.55.31,1.15,1.22,2.23,2.4,2.35.6.06,1.23-.12,1.79.11,1.83.73.25,3.93,1.61,5.36,1.04,1.08,3.01.34,4.25,1.18,2.08,1.4.45,5.74,2.82,6.55,1.35.46,3.12-.79,4.14.2.46.45.51,1.16.55,1.81.11,1.83.71,4.03,2.49,4.48,1.75.45,4-1.03,5.2.31.6.66.54,1.72,1.1,2.42.73.91,2.19.8,3.24.28,1.05-.52,2.32-3.06,3.44-3.42,2.23-.71,4.5,2.37,6.54,1.2,1.44-.83,1.98-2.9,1.14-4.33-.84-1.44-2.88-1.99-4.34-1.21-.57.3-1.06.78-1.69.92-2.1.47-3.25-2.88-5.4-3.11-.53-.06-1.09.09-1.59-.11-1.16-.46-1.07-2.3-2.13-2.96-1.16-.73-2.81.45-3.99-.23-1.64-.94-.29-3.93-1.72-5.18-1.15-1.01-3.2-.05-4.36-1.05-1.3-1.13-.28-3.69-1.66-4.72-1.63-1.23-4.93,1.01-5.62-.91-.11-.3-.09-.64-.2-.94-.37-1.03-1.78-1.04-2.87-1.1-1.85-.1-3.66-.9-4.97-2.2"/>
      <path class="cls-6" d="M864.75,148.15c-.29,2.02-.46,5.43,2.24,5.92.65.12,1.37-.13,2,.15.44.2.67.59.79,1.04.22.87.06,1.8.14,2.69s.39,1.64,1.21,2.01c1.02.45,2.19.15,3.22.55,1.83.7,1.56,3.19,1.86,4.76.13.68.36,1.4.96,1.8.76.52,1.71.31,2.54.16.62-.11,1.35-.27,1.9.15s.61,1.11.65,1.72c.08,1.08.22,2.18.74,3.15.41.79,1.08,1.41,1.97,1.58,1.01.19,2.04-.15,3.04-.26.65-.08,1.34-.06,1.85.4s.59,1.13.8,1.73c.31.89.93,1.44,1.89,1.5.79.05,1.72-.18,2.34-.7.7-.59,1.21-1.4,1.8-2.1.34-.4.72-.86,1.23-1.03.66-.22,1.41,0,2.03.24.87.35,1.68.88,2.6,1.13,1.74.47,3.24-.85,3.48-2.57.29-2.03-1.37-3.64-3.36-3.62-1.03.01-1.69.52-2.54,1.02-1.23.71-2.22-.06-3.09-.91-.61-.59-1.19-1.26-1.95-1.65-.95-.5-2.3.05-3.03-.81-.59-.7-.64-1.74-1.34-2.37s-1.65-.42-2.47-.29c-.66.11-1.4.2-1.96-.26-.37-.31-.53-.77-.62-1.23-.16-.91-.03-1.86-.27-2.75s-.9-1.41-1.81-1.54c-1.06-.15-2.43.2-3.26-.66-1.27-1.31.02-4.1-2.01-4.87-.73-.28-1.56-.15-2.31-.04s-2.02.48-2.63-.23c-.36-.42-.24-.99-.48-1.46-.2-.4-.57-.62-.98-.75-1.04-.34-2.19-.18-3.25-.44-1.35-.33-2.56-1.02-3.56-1.98-.06-.06-.3.03-.24.1.87.84,1.89,1.47,3.04,1.85,1.09.36,2.17.3,3.28.48.56.09,1.17.28,1.45.82.22.43.13.94.4,1.36.35.54,1.01.6,1.59.56.88-.05,1.75-.31,2.64-.29,1.16.03,1.83.72,2.02,1.84.15.9.05,1.91.5,2.74.41.75,1.17.98,1.97,1.04,1.13.08,2.56-.15,3.19,1.04.43.81.33,1.81.4,2.69.06.73.21,1.53.88,1.95.78.49,1.74.18,2.57.07.65-.08,1.3-.06,1.78.44.35.38.53.88.73,1.35.31.72.69,1.36,1.53,1.47.61.08,1.2-.07,1.8.17.44.18.82.48,1.18.79.65.57,1.2,1.26,1.92,1.75.53.36,1.14.55,1.78.4.47-.11.86-.38,1.25-.64.69-.46,1.42-.71,2.26-.6,2.44.31,3.6,3.13,2.07,5.07-1.72,2.19-4.04-.29-6.01-.61-1.77-.29-2.63,1.2-3.61,2.41-.79.97-1.8,1.7-3.14,1.43-1.46-.29-1.32-1.72-1.94-2.75-1.16-1.91-3.92-.11-5.58-.66-1.08-.35-1.66-1.39-1.97-2.42-.14-.49-.23-.99-.29-1.49-.06-.57-.03-1.17-.23-1.72-.82-2.22-3.76.12-5.15-1.18-.57-.53-.71-1.38-.81-2.12-.11-.85-.14-1.71-.38-2.54-.21-.72-.6-1.36-1.3-1.69-.92-.43-1.98-.24-2.94-.47-2.3-.56-1.3-3.2-1.75-4.84-.2-.74-.75-1.14-1.51-1.18-.69-.04-1.34.1-1.99-.24-.59-.31-1.05-.87-1.33-1.47-.6-1.29-.38-2.77-.19-4.12.01-.1-.24-.05-.25.03h0Z"/>
    </g>
    <g>
      <path class="cls-6" d="M866.17,137.17c-.67,1.18-.49,2.79.43,3.78.92,1,2.51,1.3,3.74.72-.14,1.75,1.4,3.46,3.16,3.5.75.02,1.54-.22,2.24.06,1.72.69,1.36,3.74,3.09,4.4.65.25,1.41.05,2.06.32,1.33.54,1.32,2.54,2.44,3.44,1.37,1.1,3.7.05,5,1.23.91.83,1.02,2.54,2.22,2.83.63.15,1.34-.19,1.91.11.7.36.69,1.32.9,2.07.52,1.86,3.14,2.72,4.66,1.53.39,1.24,1.32,2.3,2.49,2.85.44-1.43.89-2.9.73-4.39-.16-1.49-1.11-2.99-2.56-3.33-.56-.13-1.18-.08-1.69-.35-1.31-.67-1.22-2.87-2.58-3.44-.91-.38-2.12.17-2.86-.48-.36-.31-.48-.81-.68-1.24-.7-1.53-2.7-2.31-4.25-1.66-.44.18-.88.47-1.35.41-1.37-.19-.86-2.45-1.77-3.48-.9-1.02-2.85-.47-3.64-1.57-.26-.37-.32-.84-.55-1.23-.35-.62-1.05-.94-1.71-1.22-3.38-1.43-6.8-2.75-10.27-3.96"/>
      <path class="cls-6" d="M866.05,137.19c-.7,1.32-.47,3.07.69,4.05,1.01.86,2.45.99,3.65.47h-.17c-.06,1.37.76,2.66,2.01,3.24,1.35.62,3.16-.36,4.18.93.72.91.79,2.16,1.46,3.1.22.31.51.57.87.71.83.32,1.8-.03,2.52.61.95.84.96,2.33,1.96,3.14s2.52.48,3.74.68c.8.13,1.37.53,1.78,1.22.28.47.46.99.77,1.44.28.41.65.7,1.16.76.34.04.67-.04,1.01-.04.68,0,1.07.28,1.28.91.24.7.23,1.42.67,2.04.34.49.84.85,1.39,1.07,1.03.41,2.22.31,3.12-.35l-.23.02c.43,1.27,1.31,2.28,2.52,2.87.05.03.21-.01.23-.07.55-1.77,1.16-3.77.44-5.59-.27-.67-.7-1.29-1.28-1.71s-1.27-.49-1.99-.6c-1.68-.27-1.7-1.94-2.56-3.07-1.05-1.37-3.18,0-3.97-1.62-.33-.67-.53-1.26-1.12-1.75-.49-.41-1.09-.68-1.71-.78-.57-.1-1.16-.05-1.7.14-.49.17-1.09.59-1.61.39-.32-.12-.5-.42-.62-.72-.41-1.04-.24-2.46-1.38-3.07-.62-.33-1.35-.35-2.01-.52-.34-.09-.7-.21-.96-.46-.37-.35-.44-.83-.65-1.27-.35-.75-1.1-1.1-1.82-1.41-1.1-.47-2.21-.92-3.32-1.37-2.3-.92-4.61-1.78-6.95-2.59-.06-.02-.29.08-.21.11,2,.69,3.98,1.42,5.95,2.19.97.38,1.93.76,2.88,1.16.86.36,1.86.65,2.6,1.23.7.54.65,1.46,1.27,2.03.42.39,1.01.49,1.55.6.7.13,1.52.24,1.98.85.4.53.47,1.25.61,1.88.21.98.69,1.8,1.82,1.42.45-.15.85-.41,1.33-.5.5-.09,1.03-.04,1.52.11.76.23,1.45.74,1.86,1.42.36.59.44,1.39,1.12,1.72.6.29,1.3.12,1.94.17,1.64.13,1.75,1.84,2.53,2.94.44.62,1.03.8,1.75.89,1,.12,1.8.49,2.4,1.32,1.4,1.93.7,4.39.06,6.46l.23-.07c-1.18-.58-2.05-1.58-2.47-2.83-.02-.07-.19,0-.23.02-1.19.88-2.94.52-3.89-.55-.42-.48-.56-1.02-.69-1.63-.11-.54-.24-1.17-.77-1.45s-1.18-.02-1.76-.09c-.75-.09-1.12-.74-1.43-1.36-.5-.99-.96-1.8-2.12-2.04-1.28-.26-2.89.19-3.94-.78-.86-.8-.93-2.11-1.74-2.94-.95-.97-2.53-.2-3.42-1.3-.67-.84-.79-1.98-1.32-2.89-.24-.4-.56-.76-1-.93-.79-.31-1.63,0-2.44-.07-1.71-.15-3.02-1.79-2.94-3.46,0-.05-.16,0-.17,0-1.37.6-3.08.13-3.89-1.14-.64-1.01-.67-2.3-.11-3.35.03-.05-.21-.03-.25.04h0Z"/>
    </g>
    <g>
      <path class="cls-6" d="M867.63,132.86c.12,2.12,2.26,3.89,4.36,3.61.41-.05.83-.17,1.24-.07.84.23,1.1,1.26,1.59,1.97,1.11,1.62,3.5,1.64,5.4,1.13,1.21-.33,2.78-.68,3.5.35.28.41.34.95.69,1.31.92.94,2.96-.2,3.66.91.32.51.12,1.22.41,1.74.63,1.12,2.44.25,3.58.81.53.26.86.81,1.15,1.32.89,1.57,1.79,3.15,2.68,4.72.22.39.51.82.95.86.75.07,1.04-.95,1.02-1.7-.08-4.22-1.25-8.42-3.38-12.07-.53-.91-1.45-1.91-2.45-1.57-.33.11-.64.37-.98.32-.57-.08-.67-.83-.77-1.39-.4-2.32-3.34-3.8-5.44-2.74-.57.29-1.2.73-1.77.46-.38-.18-.56-.61-.84-.93-.71-.82-1.99-.8-3.04-.52-1.05.28-2.09.77-3.17.65-1.35-.15-2.55-1.23-3.9-1.08-1.64.18-2.96,2.13-4.53,1.63"/>
      <path class="cls-6" d="M867.5,132.89c.11,1.34.93,2.52,2.1,3.17.51.29,1.08.47,1.66.51.86.06,1.81-.43,2.49.3.46.49.64,1.17,1.05,1.69.37.48.89.83,1.46,1.03,1.15.42,2.46.33,3.64.06.75-.17,1.5-.43,2.28-.41.44.01.88.11,1.21.42.36.34.44.82.67,1.23.57.99,1.76.7,2.71.73s1.29.47,1.38,1.35c.07.61.19,1.17.82,1.41,1.25.47,2.64-.37,3.63.86.54.67.91,1.51,1.34,2.26.53.93,1.06,1.86,1.59,2.79.26.45.53,1.11,1.08,1.28.37.12.75-.03.99-.33.32-.39.39-.95.39-1.43,0-.89-.08-1.8-.19-2.68-.22-1.76-.64-3.5-1.23-5.18-.56-1.59-1.25-3.27-2.23-4.65-.34-.49-.8-.99-1.38-1.18-.24-.08-.49-.11-.74-.06-.43.08-.96.58-1.4.22s-.39-1.3-.58-1.8c-.2-.54-.54-1.01-.97-1.4-.83-.76-1.96-1.19-3.09-1.13-.73.04-1.28.33-1.93.64-.44.21-.87.42-1.36-.02-.13-.12-.23-.29-.33-.43-.21-.29-.44-.54-.76-.72-1.46-.79-3.09.13-4.53.44-1.2.26-2.12-.14-3.2-.59-.67-.28-1.37-.5-2.1-.38-1.49.26-2.73,2.04-4.31,1.61-.09-.03-.3.11-.15.15,1.03.28,1.91-.28,2.75-.81.7-.44,1.42-.89,2.28-.82.8.06,1.53.49,2.26.77,1.5.58,2.7.14,4.18-.29.8-.23,1.69-.37,2.48-.02.69.3.86,1.1,1.5,1.41.43.21.91.05,1.31-.14.72-.34,1.33-.68,2.16-.65,1.31.04,2.61.78,3.29,1.91.35.58.37,1.18.56,1.8.11.36.3.71.71.77.21.03.41-.04.6-.12.57-.23,1.02-.36,1.58,0,.7.45,1.12,1.22,1.51,1.93,1.67,3.05,2.68,6.45,2.97,9.91.06.76.19,1.6-.02,2.35-.16.55-.67,1.09-1.24.52-.28-.27-.45-.66-.64-.99-.9-1.58-1.72-3.24-2.72-4.75-.74-1.13-1.71-1.09-2.93-1.08-.76,0-1.49-.13-1.66-.99-.11-.57-.02-1.22-.54-1.62-.81-.61-1.99-.06-2.88-.34-.82-.25-.81-1.09-1.26-1.67-.29-.37-.72-.56-1.18-.62-1.47-.2-2.92.59-4.39.6-.81,0-1.65-.12-2.35-.54s-1.03-1.04-1.42-1.74c-.31-.55-.67-1.07-1.34-1.15-.3-.04-.59.03-.89.07-.51.07-.99.08-1.49-.06-1.59-.42-2.83-1.84-2.96-3.48,0-.1-.26-.04-.25.07h0Z"/>
    </g>
    <g>
      <path class="cls-6" d="M870.09,129.71c2.8.48,4.66-3.97,7.45-3.42,1.35.27,2.57,1.7,3.82,1.14.57-.26.95-.91,1.57-1.01,1.29-.2,1.58,1.86,2.65,2.61,1.34.94,3.39-.5,4.75.4.38.25.64.66,1,.94.68.53,1.61.55,2.46.7.85.15,1.79.59,1.96,1.44.99-3.35-.8-7.29-3.97-8.74-.34-.16-.71-.3-.97-.57-.25-.26-.38-.62-.53-.96-.77-1.68-2.5-2.88-4.34-3.02-.64-.05-1.34,0-1.88-.33-.77-.48-.91-1.53-1.44-2.27-1.24-1.72-3.94-1.18-5.86-2.09-.8-.38-1.45-1.01-2.21-1.44-.82-.46-1.77-.69-2.72-.64-.75.04-1.6.34-1.83,1.06-.16.49.03,1.02-.02,1.54-.11,1.3-1.55,1.99-2.8,2.36-1.25.36-2.71.82-3.14,2.05-.6,1.74,1.38,3.32,1.61,5.15.1.8-.15,1.63.02,2.42.16.72.64,1.32,1.12,1.89.84,1.01,1.67,2.02,2.51,3.02"/>
      <path class="cls-6" d="M869.98,129.76c1.5.22,2.72-.75,3.8-1.66.72-.61,1.45-1.3,2.34-1.64,1.31-.5,2.34.35,3.47.87.64.29,1.31.39,1.95.06.56-.3,1.1-1.16,1.84-.85.42.17.68.62.9.99.44.72.85,1.56,1.73,1.81s1.77-.06,2.62-.14c.76-.07,1.4.06,1.95.6.48.47.85.86,1.52,1.05,1.2.34,3.12.16,3.51,1.7.01.05.26-.02.27-.06.52-1.83.27-3.79-.61-5.47-.42-.81-.99-1.55-1.66-2.16-.34-.3-.7-.57-1.09-.81-.44-.26-.95-.41-1.36-.71-.49-.36-.62-.95-.91-1.46-.22-.41-.51-.78-.83-1.11-.69-.71-1.58-1.22-2.54-1.46-1.06-.27-2.41.09-3.15-.91-.54-.73-.68-1.67-1.4-2.28-1.44-1.23-3.62-.84-5.28-1.56-1.03-.45-1.81-1.31-2.85-1.75-.84-.36-1.83-.52-2.74-.35-.61.11-1.31.39-1.56,1.01-.2.49-.02,1.01-.05,1.51-.03.57-.29,1.04-.71,1.41-1.39,1.24-3.75.96-4.92,2.52-1.41,1.87,1.06,3.89,1.3,5.74.08.66-.08,1.32-.04,1.98s.33,1.24.73,1.77c.92,1.24,1.97,2.39,2.95,3.58.05.06.29-.06.27-.07-.84-1.01-1.67-2.01-2.51-3.02-.73-.89-1.22-1.69-1.17-2.88.05-1.07.03-1.91-.46-2.88-.39-.78-.92-1.52-1.14-2.38-.62-2.42,2.08-2.9,3.73-3.53.63-.24,1.27-.57,1.73-1.08.24-.27.42-.6.48-.96.1-.61-.17-1.25.1-1.83.36-.79,1.44-.88,2.19-.82.68.06,1.34.25,1.94.57.91.48,1.64,1.24,2.61,1.62,1.56.61,3.47.34,4.89,1.31.84.58,1.02,1.51,1.54,2.32.47.73,1.19.88,2.01.92,2.2.1,3.98,1.27,4.89,3.28.23.5.47.83.96,1.08.45.23.9.42,1.32.7.87.58,1.61,1.36,2.16,2.25,1.1,1.77,1.48,3.95.91,5.97l.27-.06c-.27-1.06-1.42-1.37-2.38-1.51-.64-.1-1.32-.16-1.88-.52s-.84-.94-1.43-1.2c-.87-.38-1.87-.06-2.76.04-.59.07-1.22.07-1.73-.29-.42-.29-.69-.74-.94-1.17-.35-.57-.73-1.39-1.49-1.46-1.03-.08-1.48,1.13-2.45,1.15-1.17.02-2.1-1.09-3.24-1.28-.63-.11-1.27.03-1.84.3-1.82.85-3.33,3.46-5.54,3.13-.06,0-.29.09-.23.1h0Z"/>
    </g>
    <g>
      <path class="cls-6" d="M862.7,131.5c-1.67-.32-2.79-2.31-2.19-3.9.2-.53.54-1.15.2-1.6-.15-.19-.38-.29-.6-.41-1.35-.75-1.82-2.74-.93-4.01.19-.27.42-.51.52-.82.4-1.29-1.76-2.53-1.08-3.69.58-.98,2.26-.25,3.14-.96.85-.7.37-2.23,1.14-3.03,1.14-1.18,3.91.29,4.43-1.26.27-.81-.59-1.61-1.44-1.72-.85-.11-1.69.18-2.55.22-2.21.09-4.09-1.55-6.22-2.16-2.22-.64-4.59-.13-6.84.37-.97.22-1.97.45-2.77,1.03-1.24.9-1.8,2.62-1.34,4.07.09.28.21.6.09.86-.07.16-.22.26-.36.37-.71.5-1.41,1.01-2.12,1.51-.27.19-.56.41-.63.73-.16.74.89,1.12,1.64,1,.75-.12,1.66-.34,2.15.24.9,1.09-1.31,2.65-.72,3.94.61,1.33,3.11.28,3.88,1.52.46.74-.08,1.74.21,2.56.3.84,1.33,1.15,2.22,1.18s1.85-.08,2.62.37c.59.34.96.95,1.42,1.45,1.4,1.52,3.58,1.97,5.61,2.34"/>
      <path class="cls-6" d="M862.75,131.4c-1.68-.38-2.67-2.28-2.08-3.88.21-.57.56-1.24.02-1.73-.32-.29-.74-.4-1.05-.73-.27-.29-.48-.65-.61-1.02-.26-.75-.22-1.61.2-2.3.34-.56.79-.97.62-1.67-.22-.89-2.2-2.77-.59-3.36,1.06-.39,2.51.18,3.04-1.17.26-.67.16-1.43.48-2.08.37-.74,1.22-.79,1.95-.79.83,0,2.13.24,2.64-.63.29-.51.12-1.08-.28-1.48-.52-.52-1.22-.63-1.92-.58-.99.08-1.89.33-2.89.14-.92-.18-1.77-.6-2.61-1.01-1.6-.79-3.13-1.38-4.94-1.36s-3.92.44-5.73,1c-1.44.44-2.59,1.36-2.99,2.86-.18.68-.16,1.38.03,2.05.1.34.14.72-.09,1.03-.13.18-.45.32-.62.45-.45.32-.9.64-1.35.96-.41.29-1.08.68-.96,1.3.1.5.69.73,1.14.8.73.11,1.5-.32,2.22-.08.92.32.66,1.2.33,1.86-.4.8-1.21,2.02-.27,2.77s2.32.12,3.25.79c.81.59.32,1.67.42,2.49.07.58.42,1.01.94,1.27.58.29,1.23.34,1.86.34,1.2.01,2.12.1,2.95,1.06.52.61,1,1.18,1.69,1.61s1.46.74,2.25.96,1.56.37,2.35.52c.13.02.25-.16.09-.19-1.71-.31-3.54-.66-4.94-1.75-.64-.5-1.05-1.21-1.66-1.74-.56-.49-1.25-.62-1.98-.65-.82-.03-1.67.05-2.43-.33-1.01-.51-.84-1.41-.8-2.36.05-1.23-.78-1.66-1.88-1.77-.58-.05-1.26-.01-1.78-.32-.64-.38-.57-1.11-.32-1.7.33-.78,1.33-1.95.55-2.76-.37-.39-.95-.39-1.44-.34-.66.07-1.93.4-2.24-.47-.22-.59.54-.99.93-1.28.45-.32.9-.64,1.35-.96.59-.42.97-.67.76-1.43-.49-1.73.05-3.56,1.72-4.44.85-.45,1.84-.63,2.78-.83,1.02-.22,2.04-.43,3.08-.51s2.17-.03,3.22.28c.8.24,1.55.62,2.3.98,1.46.71,2.88,1.33,4.54,1.1,1-.14,2.26-.46,3,.47.65.82.05,1.59-.84,1.67-1,.09-2.19-.25-3.09.35-1.18.79-.34,2.83-1.67,3.39-.88.37-2.44-.17-2.92.94-.43.99.77,1.95,1.08,2.79s-.42,1.35-.72,2.08c-.22.54-.26,1.14-.14,1.71s.41,1.15.85,1.56c.25.24.55.35.82.55.62.43.29,1.09.08,1.65-.43,1.14-.11,2.42.74,3.28.41.42.92.69,1.5.82.13.03.25-.15.09-.19h0Z"/>
    </g>
    <g>
      <path class="cls-6" d="M862.39,135.69c-.71-1.99-3.71-1.22-5.68-1.99-1.5-.59-2.51-2.21-4.09-2.48-1.14-.2-2.49.33-3.37-.42-.52-.43-.67-1.16-1.06-1.71-1.5-2.09-5.5-.68-6.93-2.83-1.29-1.93.71-5.17-1.11-6.61-.56-.45-1.37-.55-1.87-1.08-1-1.05-.09-2.75.83-3.87,1.28-1.57,2.57-3.14,3.85-4.71-4.03-.93-8.33-.67-12.22.75-1.43.52-2.86,1.24-3.73,2.49-.87,1.25-.97,3.14.14,4.18.32.31.73.53,1,.88,1.19,1.55-.83,4.51.86,5.5.39.23.89.24,1.27.48,1.13.7.58,2.67,1.59,3.53.87.75,2.27.17,3.34.6.65.26,1.09.85,1.63,1.29.75.61,1.7.91,2.63,1.2,2.63.82,5.25,1.64,7.88,2.46,1.86.58,3.86,1.16,5.71.55,2.08,3.04,6.72,3.92,9.77,1.85"/>
      <path class="cls-6" d="M862.51,135.66c-.42-1.05-1.46-1.35-2.49-1.49-1.37-.18-2.78-.14-3.98-.92s-2.1-1.95-3.55-2.12c-.84-.1-1.72.16-2.55-.08-.91-.26-1.1-1.14-1.55-1.85-1.41-2.25-4.73-.94-6.58-2.48-2.2-1.83.65-5.48-1.63-7.17-.7-.52-1.74-.6-2.1-1.51s.19-1.98.69-2.74c.59-.88,1.32-1.67,1.99-2.49.77-.94,1.54-1.88,2.31-2.82.03-.03,0-.06-.04-.07-2.67-.6-5.43-.71-8.13-.31-2.29.34-4.86.96-6.76,2.35-1.54,1.13-2.71,3.43-1.4,5.18.34.45.85.7,1.21,1.12.31.37.43.82.45,1.29.04.91-.23,1.79-.24,2.7,0,.83.29,1.45,1.09,1.74.58.21,1.11.31,1.42.9.21.41.27.88.36,1.32.17.83.42,1.66,1.31,1.94,1.16.36,2.34-.16,3.38.67.46.37.83.82,1.32,1.14s1.05.55,1.62.74c1.31.45,2.64.83,3.96,1.25,1.47.46,2.94.92,4.4,1.38,1.3.41,2.63.83,4.01.88.3.01.61,0,.91-.03.23-.02.7-.21.9-.17.27.06.46.43.64.63s.38.39.59.56c.8.68,1.76,1.16,2.77,1.44,2.03.57,4.27.3,6.04-.87.14-.09-.08-.13-.16-.07-3.06,2.02-7.47,1.12-9.57-1.86-.02-.03-.1-.02-.13-.01-2.16.66-4.37-.17-6.43-.81s-4.17-1.3-6.26-1.96c-.95-.3-1.95-.54-2.82-1.04-.76-.44-1.27-1.22-2.05-1.61-1.37-.7-3.4.38-4.02-1.54-.39-1.19-.24-2.45-1.64-2.9-.8-.26-1.31-.58-1.39-1.47-.05-.67.1-1.34.18-2.01.06-.55.11-1.14-.05-1.67-.22-.73-.86-1.02-1.36-1.53-1.28-1.31-.75-3.47.4-4.66,1.41-1.45,3.61-2.1,5.52-2.56,2.07-.49,4.2-.67,6.32-.53.55.04,1.11.09,1.66.17.38.05,1.12.05,1.44.26.27.17,0,.36-.17.57-.15.19-.31.38-.46.56-.36.44-.72.88-1.08,1.32-.67.82-1.37,1.63-2.02,2.48-.46.6-.88,1.28-1.04,2.03-.15.66-.02,1.35.51,1.8.6.51,1.47.59,2,1.21.95,1.1.43,2.83.38,4.13-.05,1.19.21,2.37,1.31,3.01s2.4.61,3.59.81c.67.11,1.36.28,1.92.68.66.47.85,1.21,1.28,1.86.98,1.47,2.93.47,4.31,1.01s2.32,1.95,3.8,2.41c1.25.39,2.58.26,3.84.6.7.19,1.27.57,1.54,1.26.03.09.28.01.25-.07h0Z"/>
    </g>
    <g>
      <path class="cls-6" d="M859.7,140.15c-1.88,2.17-5.4,2.69-7.83,1.17-.81-.51-1.5-1.21-2.37-1.63-2.51-1.22-5.75.23-8.19-1.11-1.33-.73-2.15-2.17-3.45-2.95-2.6-1.56-6.29-.12-8.77-1.86-.63-.44-1.15-1.08-1.86-1.38-1.14-.49-2.49-.02-3.66-.4-1.55-.5-2.42-2.33-4-2.74-.94-.24-2.02.07-2.86-.42-1.46-.85-1.15-3.42-2.67-4.16-.59-.29-1.32-.19-1.92-.47-1.45-.67-1.18-2.87-.26-4.18,1.16-1.66,2.92-2.79,4.62-3.88.4-.26.8-.51,1.2-.77,2.03-1.3,4.56-2.64,6.72-1.58.43.21.85.61.77,1.08-.04.24-.22.44-.38.62-1.22,1.34-2.44,2.67-3.66,4.01,1.47,0,2.18,1.78,2.37,3.24s.43,3.22,1.79,3.78c.69.28,1.57.19,2.06.74.38.43.36,1.08.61,1.59.75,1.54,3.01,1.03,4.68,1.41,1.17.26,2.14,1.05,3.17,1.67,1.19.71,2.49,1.19,3.79,1.68,1.17.44,2.35.87,3.52,1.31,3.28,1.22,6.55,2.44,9.9,3.45,2.35.71,4.74,1.31,7.15,1.8"/>
      <path class="cls-6" d="M859.59,140.12c-1.78,1.99-4.88,2.58-7.26,1.34-1.16-.61-2.04-1.65-3.3-2.07-1.14-.38-2.36-.33-3.55-.3-1.43.04-2.98.1-4.25-.68-1.09-.67-1.82-1.76-2.82-2.54-1.99-1.53-4.6-1.01-6.92-1.34-.7-.1-1.39-.29-2.01-.64s-1.04-.85-1.59-1.24c-1.1-.79-2.33-.49-3.59-.62-1.41-.15-2.22-1.22-3.24-2.06-.88-.73-1.71-.89-2.83-.92-.71-.02-1.39-.11-1.89-.67-.36-.4-.55-.93-.73-1.43-.28-.78-.53-1.71-1.25-2.21-1-.7-2.51-.17-3.01-1.58-.37-1.02.03-2.27.62-3.13.98-1.43,2.45-2.46,3.88-3.39s2.84-1.93,4.4-2.59c.87-.37,1.82-.63,2.77-.55.85.08,2.63.67,1.79,1.81-.52.7-1.2,1.32-1.79,1.96-.67.73-1.33,1.46-2,2.18-.05.05,0,.11.06.11,1.49.07,2.07,1.79,2.27,3.03.18,1.15.24,2.51,1.07,3.42.35.39.79.59,1.29.71.91.21,1.58.3,1.87,1.31.15.54.26,1.03.7,1.42.38.33.88.48,1.37.56,1.4.24,2.76.07,4.07.74.69.35,1.32.82,1.99,1.22.74.44,1.51.79,2.3,1.11,3.31,1.34,6.7,2.54,10.07,3.73,3.93,1.39,7.92,2.56,12.01,3.41.1.02.3-.13.15-.16-5.37-1.11-10.54-2.84-15.68-4.74-2.54-.94-5.2-1.76-7.64-2.95-1.11-.54-2.08-1.33-3.19-1.86-.85-.4-1.73-.49-2.66-.55s-2.1-.06-2.75-.83c-.59-.7-.36-1.81-1.27-2.27s-1.93-.25-2.59-1.21c-.56-.82-.69-1.87-.81-2.83-.11-.86-.32-1.75-.82-2.48-.21-.31-.48-.59-.82-.77-.14-.07-.28-.12-.43-.16-.3-.07-.23-.06-.01-.3.94-1.03,1.88-2.06,2.83-3.09.6-.65,1.39-1.39.43-2.13-1.59-1.24-3.99-.41-5.55.4-1.06.55-2.05,1.22-3.06,1.87s-1.9,1.23-2.77,1.97c-1.34,1.14-2.74,2.75-2.45,4.65.11.71.53,1.29,1.22,1.53.55.19,1.16.14,1.69.39.46.21.76.61.97,1.05.68,1.39.81,3.17,2.67,3.39.58.07,1.17,0,1.75.11.54.1,1,.36,1.42.7.73.58,1.33,1.33,2.15,1.8.91.52,1.9.42,2.9.44.71.02,1.34.15,1.93.57.45.32.83.73,1.28,1.04,1.69,1.17,3.88.93,5.82,1.07,1.15.08,2.31.31,3.26.99.88.63,1.53,1.52,2.36,2.21,1.73,1.43,3.9,1.14,5.99,1.13,1.23,0,2.45.14,3.51.82.89.57,1.64,1.32,2.62,1.73,1.62.69,3.53.63,5.14-.08.81-.36,1.52-.87,2.11-1.53.1-.12-.14-.14-.21-.06h0Z"/>
    </g>
    <g>
      <path class="cls-6" d="M827.43,137.33c.59-.94-.47-2.13-1.55-2.36-1.08-.23-2.25.04-3.3-.3-1.37-.44-2.24-1.8-3.5-2.49-1.34-.73-2.96-.63-4.46-.89-1.5-.26-3.15-1.2-3.25-2.73-.05-.82.3-1.84-.36-2.33-.67-.5-1.77.13-2.4-.41-.71-.61,0-1.85-.4-2.69-.27-.56-.98-.77-1.61-.74-2.16.12-3.59,2.22-4.67,4.09-1.26,2.18-2.51,4.36-3.77,6.54-.09.15-.18.3-.22.47-.18.77.74,1.43,1.52,1.34.79-.08,1.44-.61,2.11-1.04.67-.43,1.5-.78,2.23-.48.73.31,1.08,1.16,1.71,1.64,1.55,1.18,3.79-.31,5.7.08,1.18.25,2.12,1.2,3.31,1.43,1.21.23,2.42-.33,3.65-.35,1.72-.03,3.26.98,4.83,1.69,1.57.71,3.59,1.08,4.89-.05"/>
      <path class="cls-6" d="M827.55,137.34c.52-.96-.3-1.93-1.17-2.31-1.39-.6-2.98.06-4.35-.72-1.11-.63-1.88-1.73-3.04-2.29-1.22-.59-2.61-.57-3.92-.75s-2.92-.75-3.44-2.1c-.34-.88.37-2.45-.59-3.04-.37-.23-.82-.18-1.24-.16s-.89.06-1.19-.3c-.26-.31-.22-.74-.2-1.11.03-.47.13-1-.09-1.45s-.68-.67-1.14-.75c-2.21-.39-3.9,1.72-4.92,3.36-.87,1.39-1.65,2.83-2.46,4.25-.43.74-.85,1.48-1.28,2.22-.27.47-.8,1.08-.73,1.66.12.94,1.3,1.23,2.07,1.01,1.4-.4,2.92-2.45,4.37-1.1.38.36.65.82,1.05,1.17s.89.53,1.42.58c1.28.11,2.5-.44,3.78-.43,1.59.01,2.68,1.35,4.21,1.53.74.09,1.48-.09,2.21-.22,1.06-.2,2.05-.19,3.07.17,2.42.83,5.49,3.32,8.01,1.28.13-.11-.07-.17-.16-.1-2.39,1.94-5.39-.54-7.69-1.34-1.23-.42-2.33-.34-3.59-.1-.8.15-1.6.27-2.39,0-.66-.23-1.23-.63-1.85-.94-.97-.48-1.91-.5-2.95-.32-1.17.2-2.59.68-3.66-.07-.85-.6-1.21-1.78-2.4-1.82s-1.99.88-2.95,1.36c-.7.35-1.66.43-2.14-.33-.44-.69.35-1.59.69-2.18.77-1.34,1.54-2.67,2.31-4.01,1.16-2.01,2.56-5.22,5.21-5.48.73-.07,1.58.17,1.77.97.12.53-.06,1.08-.03,1.61.06.95.83,1.08,1.63,1.05.73-.03,1.4.08,1.5.93.06.57-.1,1.13-.02,1.7.14.98.93,1.68,1.77,2.11,1.17.58,2.46.6,3.73.76.83.1,1.65.27,2.38.71.62.37,1.13.88,1.68,1.35,1,.85,1.93,1.23,3.25,1.25.85.01,1.76-.06,2.5.43.64.42,1.16,1.19.75,1.95-.06.12.19.1.24.02h0Z"/>
    </g>
    <g>
      <path class="cls-6" d="M811.39,138.03c-1.44-1.16-3.59.39-5.38-.04-1.1-.26-2.02-1.27-3.15-1.16-1.35.13-2.38,1.82-3.68,1.46-.88-.25-1.33-1.35-2.23-1.52-.82-.15-1.53.55-2.04,1.21-1.74,2.26-3.09,4.82-3.98,7.53-.1.3-.2.63-.12.94.17.7,1.16.9,1.78.54s.94-1.07,1.19-1.74c.25-.67.5-1.39,1.05-1.86,1.61-1.37,4.41.39,6.11-.86.52-.38.85-1.01,1.43-1.3,1.33-.68,3.07.75,4.38.03.48-.27.78-.77,1.16-1.17.64-.65,1.57-.99,2.47-.91.42.04.86.16,1.26.04.41-.12.74-.62.5-.97"/>
      <path class="cls-6" d="M811.5,137.98c-1.45-1.08-3.28.07-4.87.01-1.11-.04-1.91-.85-2.93-1.15-.63-.18-1.22-.07-1.79.23-.82.43-1.75,1.49-2.75,1.11-.75-.28-1.12-1.11-1.86-1.41-1.68-.67-3.03,1.86-3.74,2.95-.59.92-1.12,1.88-1.59,2.86s-.99,2.11-1.26,3.21c-.18.74.18,1.32.95,1.41.67.08,1.25-.27,1.64-.8.59-.81.7-1.87,1.3-2.67.71-.94,1.9-.89,2.96-.79.79.08,1.61.2,2.39.04s1.25-.59,1.77-1.15c.58-.62,1.19-.83,2.03-.69.48.08.95.23,1.43.31.83.14,1.56,0,2.16-.62.47-.49.82-1.01,1.44-1.32.77-.38,1.45-.25,2.26-.21.57.03,1.61-.35,1.21-1.11-.04-.08-.29,0-.25.07.11.22.09.45-.07.64-.36.44-1.03.22-1.49.18-.34-.03-.69,0-1.02.07-.75.17-1.37.58-1.87,1.15-.38.44-.73.92-1.33,1.03-.48.09-.98-.03-1.45-.14-.65-.15-1.35-.35-2.02-.2-.73.16-1.12.73-1.63,1.22-.72.71-1.65.74-2.6.67-1.23-.1-2.7-.42-3.76.42-.63.5-.88,1.28-1.16,2-.17.45-.37.89-.69,1.25-.44.49-1.24.73-1.77.23-.43-.41-.22-1.01-.06-1.49s.33-.94.52-1.39c.41-1,.87-1.97,1.4-2.91.5-.89,1.06-1.75,1.66-2.58.64-.88,1.65-2.18,2.82-1.28.52.4.91,1.01,1.57,1.2.49.14.99,0,1.43-.22.86-.45,1.66-1.36,2.72-1.21.93.13,1.66.85,2.55,1.11,1.77.52,3.91-1.12,5.49.06.07.05.3-.05.24-.1h0Z"/>
    </g>
    <path class="cls-6" d="M897.96,169.25c1.89.43-6.76,3.04-7.25,1.17-.49-1.87-1.32-6.64-3.03-7.54-1.72-.9,7.11,2.74,3.91-6.07,1.36-1.5,5.1,3.87,6.86,2.87,2.29-1.3-2.15-4.26-3.82-6.29-1.67-2.03-1.86-2.91-3.64-4.85-.67-.73.54-2.89,1.26-3.57.27-.26.65-.35.99-.49,1.51-.62,2.44-2.27,2.54-3.9.1-1.63-5.23-2.8-6.08-4.2-1.45-2.39-1.44-4.52-3.98-5.69-1.02-.47.4-1.08-.35-1.91-.75-.83-.94-2.31-.04-2.98.53-.39,1.25-.38,1.92-.34,3.01.18,6.08.57,8.75,1.97,2.67,1.39,4.89,3.98,5.1,6.98.08,1.19-.13,2.44.35,3.53.6,1.36,2.11,2.09,2.91,3.34,1.62,2.53-.09,6.3,1.75,8.67.58.74,1.42,1.22,2.05,1.92,1.12,1.24,1.39,3.17.66,4.68-.44.9-1.18,1.63-1.61,2.54-1.62,3.39,1.69,7.28,1.1,10.99-.57,3.57-2.67,4.86-5.59,2.73"/>
    <path class="cls-6" d="M864.92,107.96c-1.62.55-3.3-.39-4.9-.98-2.49-.92-5.28-1-7.82-.24-1.92.58-3.74,1.63-5.75,1.65-1.16.02-2.28-.32-3.42-.55-3.95-.83-8.14-.49-11.91.95-.81.31-1.62.67-2.49.72-1.03.06-2.02-.33-3.02-.53-2.3-.44-4.79.23-6.57,1.77-2.62,2.27-3.99,6.39-7.41,6.97-2.54.43-5.74-1.26-7.42.69-.79.91-.81,2.26-1.45,3.28-1.38,2.18-4.89,1.95-6.48,3.99-1.31,1.68-.79,4.24-2,5.99-.8,1.15-2.19,1.72-3.27,2.61-1.09.89-1.87,2.56-1,3.66l-.57,1.95c-5.31,7.13-4.18,21.09-2.97,20.11,1.22-.98,6.75-10.44,6.66-12.01-.6-9.81,6.85-16.18,9.1-17.56,2.03-1.24,4.35-2.11,5.99-3.85,1.04-1.1,3.61-.36,4.95-1.07,1.81-.95,2.38-2.46,4.07-3.6.89-.6,2.62.71,3.16-.22,1.42-2.44,4.95-3.11,7.76-3.39,2.37-.23,2.1-2.93,4.44-3.35,1.54-.28,3.03,2.19,4.47,1.58,2.09-.89,3.61-1.37,5.87-1.4,3.92-.05,8.45-3.15,12.37-3.21,2.63-.04,5.76,3.22,8.24,4.08,3.59,1.24,6.28.99,10.07.76.57-2.44-.25-5.16-2.07-6.89-1.82-1.72-4.59-2.39-6.99-1.68"/>
    <path class="cls-6" d="M911.66,207.79c3.68.06,7.18,2.67,8.29,6.18,1.11,3.51-.26,7.66-3.23,9.82,3.31,3.07,6.75,6.34,8.17,10.63,1.42,4.29-.02,9.89-4.22,11.54,2.97,2.38,6.09,4.96,7.27,8.58,1.18,3.62-.65,8.46-4.41,8.98,2.43,2.26,4.95,4.67,5.93,7.84.98,3.17-.25,7.28-3.41,8.29,3.12,2.28,5.91,5.74,5.56,9.59-.35,3.85-5.46,6.91-8.31,4.29-1.69-1.56-1.79-4.15-1.76-6.45.03-2.76.06-5.52.09-8.28-5.27-2.58-6.77-10.59-2.79-14.9-6.19-3.28-7.49-13.04-2.38-17.83-6.88-4.21-8.9-14.64-4.09-21.11-7.03-3.57-8.59-14.59-2.83-19.97"/>
    <path class="cls-2" d="M895.07,180.96l-.76-2.71-33.57-.07h0c-12.26-1.07-27.41,5.74-35.28,13.34l-8.01,2.43.05-.13c-11.02-3.8-26.94-.76-37.72,7.2l.61,1.05h0c.02.07.14.21.27.43l.55.91c3.39,5.81,7.17,11.9,9.59,13.14,1.63.84,6.13.29,9.79-.36,1.38-.24,2.64-.5,3.54-.69,1.08-.24,10.68-2.35,11.94-4.07,1.26-1.73,1.48-12.27,1.46-15.57l8.22-2.46c1.67,2.15,6.46,12.02,11.05,13.1,4.59,1.08,25.14-5.03,26.41-8.09.9-2.19,3.11-9.82,3.27-13.49l.62-4.83,27.98.88ZM814.85,210.68c-1.42,1.71-20.49,6.09-23.3,4.65-2.38-1.22-7.21-9.51-9.03-12.62l-.04-.14c9.76-6.58,24.1-9.34,33.65-6.18-.1,5.74-.49,13.19-1.28,14.26v.03ZM860.56,198.27c-.79,1.93-18.57,7.98-23.3,6.86-3.29-.77-6.93-7.95-9.41-11.95,7.74-7.27,25.68-14.13,36.73-12.6-.45,5.84-1.65,12.88-4.02,17.69h0Z"/>
    <path class="cls-9" d="M966.9,525.98c12.06-2.49,24.02-5.29,34.54-11.95,7.55-4.78,14.5-10.41,22.04-15.21,3.15-2,6.27-3.98,9.09-6.28,1.15-1.31,2.28-2.64,3.38-3.99l-31.25-60.42-47.27-113.28,21.55-40.94s-21.69-9.53-24.84-11.19c-8.62-4.53-32.19-15-47.02-15.51h0s-4.11,40.73-38.64,49.61c-25.79,6.63-20.69-23.57-20.69-23.57,0,0-36.33,33.22-40.03,38.83h0c1.54-6.55,5.84,45.43,6.55,88.11.2,11.86.81,37.07,18.78,49.4,5.96,4.09,18.86,55.41,18.86,55.41l2.46,29.88c.38,4.65,4.46,8.1,9.1,7.71,16.63-1.39,54.78-5.24,85.83-13.22,5.45-1.4,11.39-2.51,17.57-3.39Z"/>
    <path class="cls-1" d="M942.22,438.74c.33,2,.59,4.01.78,6.01-.05-.13-.09-.25-.04-.43-.13-1.17-.37-3.1-.74-5.59Z"/>
    <path class="cls-11" d="M985.6,398.8c6.05-2.41,12.05-4.98,17.71-7.98,9.1-4.83,15.53-15.39,25.13-19.24,10.83,22.37,29.59,61.06,31.49,65.96,11.65,30.07,15.12,141.39,15.12,141.39l-24.43,5.3s-31.4-83.8-34.97-129.22l-30.04-56.21Z"/>
    <path class="cls-6" d="M914.13,202.34c3.63-.63,7.56,1.28,9.3,4.52s1.18,7.57-1.35,10.26c3.83,2.4,7.82,4.97,10.01,8.92,2.19,3.95,1.82,9.72-2,12.13,3.36,1.78,6.91,3.74,8.74,7.07,1.83,3.34.94,8.43-2.66,9.65,2.81,1.77,5.73,3.67,7.29,6.6,1.55,2.93,1.11,7.2-1.8,8.78,3.49,1.66,6.88,4.54,7.25,8.39.37,3.85-4.08,7.8-7.36,5.76-1.95-1.21-2.53-3.75-2.93-6.01-.48-2.72-.97-5.44-1.45-8.16-5.65-1.55-8.62-9.14-5.52-14.12-6.69-2.07-9.79-11.41-5.66-17.07-7.54-2.85-11.47-12.72-7.95-19.98-7.57-2.2-11.16-12.74-6.51-19.1"/>
    <path class="cls-21" d="M991.08,281.32c16.63,17.12,22.48,34.83,34.46,60.4,5.4,11.53,17.34,38.24,17.34,38.24,0,0-35.77,23.2-67.26,30.21-2.97-10.13-10.99-23.85-16.77-36.02-6.03-12.67-10.92-25.6-15.28-38.99-4.19-12.87-6.57-29.08,1.47-41,3.77-5.59,9.63-10.39,15.01-14.34,4.01-2.94,8.26-4.6,12.61-6.07,0,0,9.91-1.2,18.42,7.56Z"/>
    <path class="cls-11" d="M1059.8,655.07c1.65-7.11,3.71-16.73,3.11-17.96s-3.46-9.97-5.95-17.62c-1.11-3.94-4.77-6.66-8.17-6.07-.89.15.18,19.1-7.6,17.88l-3.93-16.23c-.61-5.33-.62-10.62-.01-15.73,1.11-6.23,9.78-21.63,9.78-21.63l-5.42-20.61,32.32-2.38,2.02,20.76,9.74,19.03s11.1,37.39,9.62,42.33c-1.48,4.94-9.69,11.49-9.69,11.49-.89,6.99-9.38,8.94-9.38,8.94-4.99,10.34-8.63,2.77-8.63,2.77-.09.41-.28.76-.56,1.02-3,2.84-8.26-1.75-7.24-5.98Z"/>
    <path class="cls-25" d="M1069.59,625.21c2.64,5.63,4.62,12.28,3.84,18.54-.36,2.9-1.13,5.77-2.38,8.42s-2.71,5.3-4.76,7.34c-.91.9,1.21.95,1.76.41,2.08-2.07,3.57-4.68,4.86-7.3s2.22-5.68,2.64-8.69c.91-6.54-1.02-13.41-3.78-19.3-.37-.79-2.5-.11-2.17.58h0Z"/>
    <path class="cls-25" d="M1077.91,625.18c1.42,3.35,2.75,6.93,3.25,10.56.53,3.83-.3,7.47-1.63,11.05-1.29,3.46-2.28,7.37-4.31,10.45-.61.93,1.59.85,2.05.15,2.13-3.23,3.16-7.34,4.5-10.96,1.27-3.42,2.04-6.94,1.65-10.59-.42-3.87-1.83-7.69-3.34-11.25-.37-.87-2.52-.23-2.17.58h0Z"/>
    <path class="cls-25" d="M1086.27,624.87c-.92.1-.31-.2-.26.08.02.12.18.3.23.41.25.49.42,1.02.59,1.54.64,1.91,1.13,3.87,1.62,5.82.34,1.37.82,2.78.93,4.19.12,1.58-.36,3.19-.83,4.68-.44,1.38-.97,2.73-1.67,4-.37.67-.77,1.32-1.26,1.91-.13.16-.3.31-.43.48-.32.41-.68.09.54-.06l.83.06-.04-.02c-.42-.21-.99-.07-1.41.09-.1.04-1,.48-.63.67,2.08,1.05,4.06-2.58,4.74-3.87.91-1.74,1.57-3.63,2-5.54.43-1.91.31-3.47-.15-5.36-.66-2.68-1.28-5.39-2.19-8-.28-.81-.59-2.16-1.69-2.03-.35.04-1.29.14-1.45.53s.12.46.53.42h0Z"/>
    <path class="cls-11" d="M894.16,209.52c10.76,5.26,12.84-9.75,12.84-9.75,4.36-11.89,2.73-22.45.07-29-2.66-6.56-9.97-3.81-9.97-3.81-6,2.93-4.86,3.34-6.98,24.09"/>
    <path class="cls-26" d="M894.78,189.29c.57-4.41,1.37-8.92,3.17-13.01.71-1.63,1.61-3.36,3.01-4.52-.1.08.06-.04.15-.11.07-.05.14-.08.21-.13-.24.18.18-.04-.24.12l-1.4.1c3.27,1.53,4.71,5.69,5.04,8.99.04.45,2.23.03,2.17-.58-.3-3.01-1.37-6.01-3.66-8.09-1-.91-1.87-1.49-3.23-.83-2.3,1.11-3.63,3.99-4.52,6.22-1.55,3.89-2.3,8.09-2.84,12.23-.07.57,2.08.18,2.15-.37h0Z"/>
    <path class="cls-26" d="M896.63,188.08c3.18-.92.43,8.49,3.82,8.52,3.22.03,3.08-4.65,3.12-6.82s-.1-4.14-.9-6.22c-.95-2.49-2.63-5.05-5.51-5.37-.5-.06-1.15.07-1.54.41-.31.27-.29.6.17.65,2.31.26,3.71,2.5,4.52,4.46.67,1.6,1.01,3.1,1.06,4.82.06,1.8.03,3.64-.32,5.41-.11.56-.29,1.06-.48,1.59-.03.08-.13.15-.14.23l-.03.04c.41,0,.8-.08,1.19-.25-.05-.08-.25-.17-.32-.26-.44-.56-.44-1.54-.48-2.21-.07-1-.08-2.01-.21-3.01-.11-.88-.3-1.91-.97-2.55-.85-.81-2.22-.64-3.25-.34-.27.08-1.07.34-.96.75s.97.24,1.21.17h0Z"/>
    <path class="cls-21" d="M862.51,298.44s2.07-.25,6.18.54c4.1.79,10.79,10.75,10.79,10.75,0,0,17.11-10.25,25.64-24.11,8.53-13.86,12.52-36.86,12.52-36.86,0,0-4.39-7.16-14.52-7.58,0,0-22.55,47.18-40.6,57.26Z"/>
    <path class="cls-21" d="M862.51,298.44s-11.32,3.88-13.24,13.21c0,0-8.81-9.22-11.59-19.1-2.78-9.88-2.58-9.18-2.58-9.18,0,0,6.73-13.37,11.89-12.97,0,0,2.45,24.61,15.53,28.04Z"/>
    <g id="freepik--Character--inject-2">
      <path class="cls-11" d="M687.58,498.18l-18.47,1.65s-14.51-6.02-19.36-5.89c-4.86.13-23.34,5.82-24.09,6.38-.75.56-24.61-3.53-26.53.6-1.91,4.13-.99,8.46,4.69,10.75,5.68,2.29,21.17.66,21.28,4.04-.1,2.6-.7,5.16-1.77,7.53,0,0-5.23-2.29-9.18-.38-3.94,1.9-4.46,6.02-4.46,6.02l4.97,2.12-7.98,2.33s-13.25-3.98-16.49,1c-3.28-.51-6.56-1.28-9.77-.44-2.68.93-4.09,3.86-3.16,6.53.16.47.4.91.69,1.32h0l32.01,8.56,43.25-6.45s13.75-12.52,17.05-14.54c3.3-2.02,18.16-1.32,17.83-3.14-2.75-15.3-.52-27.98-.52-27.98Z"/>
    </g>
    <path class="cls-25" d="M666.03,501.59c.85,1.46,1.4,2.85,1.23,4.57-.2,2.06-.84,4.04-1.48,6-.19.59,1.95.32,2.16-.33.65-2.01,1.33-4.06,1.49-6.18.06-.79.05-1.58-.16-2.34-.23-.82-.65-1.56-1.07-2.3-.37-.63-2.43.13-2.17.58h0Z"/>
    <path class="cls-25" d="M658.43,526.75c-3.33-1.38-6.79-1.29-10.29-.66-1.92.35-3.82.83-5.73,1.2-1.03.2-2.08.4-3.13.46-1.28.08-2.41-.3-3.6-.74-3.36-1.25-6.73-2.44-10.09-3.69s-6.98-2.36-10.49-1.26c-2.98.94-6.18,3.44-6.75,6.67-.04.07-.02.14.05.18,5.47,2.65,11.1,4.95,16.61,7.53,2.5,1.17,4.97,2.37,7.62,3.19s5.63,1.32,8.52,1.5c.45.03,1.19-.09,1.54-.41.27-.25.35-.46-.13-.49-2.84-.18-5.63-.66-8.34-1.51s-5.34-2.18-7.96-3.4c-2.57-1.19-5.17-2.32-7.76-3.47-1.26-.56-2.52-1.12-3.78-1.69-.62-.28-1.24-.56-1.85-.85-.55-.26-1.62-.51-2.01-.95-.61-.68.34-2.01.81-2.67.79-1.09,1.87-2.04,3.06-2.67,2.53-1.33,5.96,0,8.45.9,2.4.87,4.79,1.76,7.19,2.62s4.82,2.16,7.38,2.1c6.29-.13,12.43-3.76,18.65-1.18.43.18.98.04,1.4-.12.08-.03,1-.48.65-.63h0Z"/>
    <path class="cls-25" d="M623.01,539.4c-7.69-4.58-16.44-7.88-25.42-8.58-3.36-.26-7.45.57-8.82,4.15-.5,1.31-.42,2.16.79,2.87,1.61.94,3.35,1.68,5.02,2.5,5.31,2.61,10.63,5.23,15.94,7.84.48.24,1.12.2,1.55-.15.29-.23.64-.82.13-1.06-3.99-1.96-7.97-3.92-11.96-5.88-1.99-.98-3.99-1.96-5.98-2.94-.66-.33-1.33-.65-1.99-.98-.38-.19-1.34-.5-1.56-.87-.56-.98,1.04-2.68,1.78-3.2,1.51-1.05,3.2-.89,4.94-.73,3.97.37,7.86,1.28,11.64,2.56,4.27,1.44,8.36,3.36,12.23,5.67.77.46,2.7-.61,1.69-1.21h0Z"/>
    <path class="cls-25" d="M627.99,506.09c-1.26,2.74-2.01,5.66-2.18,8.67-.03.5.57.56.95.52.35-.04,1.2-.29,1.23-.77.15-2.87.83-5.71,2.03-8.33.46-.99-1.71-.79-2.04-.09h0Z"/>
    <path class="cls-14" d="M833.81,231.87c8.07-2.5,20.84-7.5,20.84-7.5,0,0,2.92,18.74-15.78,24.54-18.7,5.8-22.57-12.09-22.57-12.09,0,0,9.44-2.44,17.5-4.94Z"/>
    <path class="cls-6" d="M833.73,231.89c3.83-1.19,19.09-6.63,19.09-6.63,0,0-2.17,12.55-16.04,16.85-15.04,4.66-19.46-5.62-19.46-5.62l16.41-4.6Z"/>
    <path class="cls-13" d="M833.74,232.52c3.83-1.19,15.3-5.46,15.3-5.46,0,0-2.9,5.5-14.4,9.07-11.5,3.57-16.42.63-16.42.63l15.52-4.24Z"/>
    <path class="cls-14" d="M815.32,235.5c.36-.22,1.01-.35,2.8-1.08,2.98-1.22,3.73-1.86,5.9-2.72,3.7-1.48,6.59-.68,8.24-1.19,1.65-.51,3.58-2.81,7.46-3.68,2.28-.51,8.03-1.38,11.18-2.06,1.89-.41,3.82-1.82,4.24-1.84.59-.03.82,4.45-19.91,10.88-20.73,6.43-20.41,2-19.91,1.69Z"/>
    <path class="cls-11" d="M556.07,522.31l-11.88-8.87c-2.02-1.49-4.42-2.44-6.94-2.72l-17.37-1.93c-4.66-.52-9.35.64-13.13,3.26l-22,15.24-7.99,2.77-3.78,33.06,16.74-.1s36.43,10.02,40.09,8.21c3.66-1.81,10.41-7.26,10.41-7.26,0,0,20.01-3.83,22.08-5.24,7.87-5.36,5.14-7.16,5.14-7.16l3.47-1.1c.49,1.19,6.14-5.78,6.05-9.6-.05-2.22.63-2.13.63-2.13,3.44-1.42,6.04-4.23,7.09-7.68.6-2.2-9.88-6.26-9.88-6.26l-22.8-.5,4.07-1.96Z"/>
    <path class="cls-6" d="M529.76,521.88l27.24-33.66c2-2.49,4.89-3.76,7.78-3.43l45.87,5.11c1.84.21,3.14,2.08,2.91,4.2h0c-.11.91-.49,1.77-1.09,2.41l-30.18,32.06h0l-52.53-6.68Z"/>
    <path class="cls-26" d="M544.14,539.03c4.27,1.56,9.15,1.92,13.66,2.21,4.83.31,9.69.24,14.5-.25,5.12-.52,11.27-1.49,12.76-7.33.27-1.05-1.96-.81-2.2.16-.55,2.18-2.13,3.81-4.28,4.44-.24.07-.48.12-.73.17.61-.13-.81.23-.98.27-2.05.55-4.2.68-6.31.85-4.24.33-8.5.35-12.74.04s-8.54-.62-12.43-2.04c-.94-.34-2.54,1.01-1.25,1.48h0Z"/>
    <path class="cls-26" d="M536.37,550.44c2.58.94,5.29,1.3,8.01,1.66,2.9.38,5.81.61,8.73.7s6.08.03,9.11-.2c2.81-.21,5.61-.42,8.31-1.26.28-.09,1.07-.35.96-.77s-.96-.27-1.22-.19c-2.56.79-5.26.97-7.91,1.15s-5.58.23-8.37.14-5.36-.3-8.02-.64-5.33-.67-7.85-1.58c-.47-.17-1.12-.04-1.53.23-.23.15-.71.58-.21.76h0Z"/>
    <path class="cls-26" d="M534.99,522.72c-.12.46-1,.61-1.28.64.06,0,.11,0,.17,0,.07,0-.25-.08-.08,0,.11.05.06.04-.11-.04l-.21-.34h0c.32-.21.64-.42.95-.63.1-.02.76-.1.51-.08.02,0,.28.03.08,0-.14-.02-.27-.03-.41-.04-.64-.07-1.28-.16-1.91-.25-2.12-.3-4.24-.62-6.37-.87-1.5-.18-3-.35-4.51-.42-.77-.04-2.32-.11-2.66.78-.24.62,1.91.37,2.16-.31-1.18.49-1.54.7-1.08.63h.05s-.28,0-.02,0c.18,0,.37,0,.56.01.5.02,1.01.06,1.51.11,1.66.15,3.31.36,4.96.58,1.76.23,3.51.51,5.26.74.7.09,1.42.24,2.12.08.27-.06.89-.29.95-.63h0c.03-.18-.06-.27-.21-.34-.67-.33-2.41-.06-2.61.7-.18.69,1.98.38,2.16-.31h0Z"/>
    <path class="cls-22" d="M534.56,523.21c.26-.21.49-.45.71-.71l1.85-2.16,7.01-8.06,10.15-12.04,5.97-7.12c1.04-1.16,2.34-1.98,3.74-2.37.72-.2,1.45-.28,2.18-.26.71.08,1.59.18,2.29.25l31.78,3.39,9.66.93,2.62.29c.31.04.62.05.93.01-.29-.12-.6-.18-.91-.19l-2.61-.38-9.62-1.24-31.75-3.66c-.79-.09-1.59-.18-2.35-.26-.8-.03-1.61.07-2.4.29-1.55.44-2.97,1.35-4.12,2.64l-5.96,7.18-10.02,12.19c-2.77,3.38-5.05,6.21-6.71,8.27-.73.92-1.31,1.7-1.86,2.27-.21.22-.4.47-.57.75Z"/>
    <path class="cls-26" d="M494.09,519.63c-3.88,2.32-7.76,4.65-11.64,6.97-.55.33-1.11.66-1.66.99l1.54-.41c-1.62-.17-3.24-.33-4.87-.5-.47-.05-1.16.13-1.54.41-.33.25-.31.42.13.47,1.51.15,3.02.34,4.54.47,1.15.1,1.97-.44,2.9-.99,3.12-1.87,6.24-3.74,9.36-5.6.97-.58,1.94-1.16,2.91-1.74.39-.23.24-.41-.13-.47-.47-.08-1.14.17-1.54.41h0Z"/>
    <path class="cls-26" d="M475.98,568.32c3.17-.7,6.34-1.38,9.51-2.03,1.82-.37,3.66-.79,5.51-1.03-.29.04.07,0,.11-.01.47-.04.93-.03,1.4.03.74.09,1.47.27,2.17.49.78.24,1.55.54,2.28.91.52.26,1.35,0,1.86-.19.12-.04,1.3-.56.88-.78-2.12-1.08-4.62-1.79-7-1.6-1.91.15-3.83.61-5.71.98-3.49.7-6.98,1.45-10.46,2.22-.3.07-1.71.34-1.71.76,0,.46.85.3,1.15.24h0Z"/>
    <path class="cls-25" d="M789.68,475.73c4.91,1.78,9.24,4.88,12.28,9.14s4.66,9.81,4.69,15.22c0,1.09,2.2.73,2.2-.19-.03-5.7-1.56-11.3-4.89-15.97-3.21-4.5-7.84-7.74-13.01-9.62-.88-.32-2.55.94-1.27,1.41h0Z"/>
  </g>
</svg>