<svg width="446" height="215" viewBox="0 0 446 215" fill="none" xmlns="http://www.w3.org/2000/svg">
  <g filter="url(#filter0_d_332_6522)">
    <g clip-path="url(#clip0_332_6522)">
      <path
        d="M307.637 110.497C332.267 124.341 384.794 96.8382 404.079 123.887C423.364 150.937 376.912 192.166 347.922 170.565C318.931 148.965 313.006 130.46 298.166 117.289C283.325 104.118 245.993 92.0389 233.02 58.4215C220.047 24.804 253.582 10.8059 266.985 36.291C280.389 61.776 276.85 93.1933 307.637 110.497Z"
        stroke="#63934C" />
      <path
        d="M318.323 105.517C342.952 119.361 395.48 91.8582 414.765 118.908C434.05 145.957 387.598 187.186 358.607 165.585C329.616 143.985 323.692 125.48 308.851 112.309C294.011 99.1381 256.678 87.059 243.706 53.4415C230.733 19.8241 264.268 5.82595 277.671 31.311C291.074 56.796 287.536 88.2133 318.323 105.517Z"
        stroke="#63934C" />
      <path
        d="M327.731 99.5829C352.361 113.426 404.888 85.9237 424.173 112.973C443.458 140.022 397.006 181.252 368.015 159.651C339.025 138.05 333.1 119.546 318.26 106.375C303.419 93.2036 266.087 81.1244 253.114 47.5069C240.141 13.8895 273.676 -0.108618 287.079 25.3764C300.483 50.8614 296.944 82.2788 327.731 99.5829Z"
        stroke="#63934C" />
      <path
        d="M336.018 93.8109C360.648 107.654 413.175 80.1517 432.46 107.201C451.745 134.25 405.293 175.48 376.302 153.879C347.312 132.278 341.387 113.774 326.547 100.603C311.706 87.4316 274.374 75.3524 261.401 41.735C248.428 8.11751 281.963 -5.88059 295.366 19.6044C308.77 45.0894 305.231 76.5068 336.018 93.8109Z"
        stroke="#63934C" />
      <path
        d="M143.748 90.2686C119.559 72.4886 60.6091 94.7127 43.7623 63.6948C26.9155 32.677 81.23 -4.80868 109.017 21.7158C136.803 48.2404 140.663 68.5214 154.614 84.3285C168.565 100.136 206.379 117.695 215.72 154.825C225.062 191.955 187.887 202.389 177.041 173.78C166.195 145.172 173.984 112.494 143.748 90.2686Z"
        stroke="#63934C" />
      <path
        d="M131.835 94.1411C107.647 76.3611 48.697 98.5852 31.8502 67.5674C15.0034 36.5495 69.3179 -0.936118 97.1044 25.5884C124.891 52.1129 128.751 72.394 142.702 88.201C156.653 104.008 194.466 121.568 203.808 158.698C213.15 195.828 175.974 206.262 165.129 177.653C154.283 149.044 162.071 116.366 131.835 94.1411Z"
        stroke="#63934C" />
      <path
        d="M121.148 99.1856C96.9593 81.4056 38.0095 103.63 21.1627 72.6118C4.31586 41.594 58.6304 4.10832 86.4169 30.6328C114.203 57.1574 118.063 77.4384 132.014 93.2455C145.965 109.053 183.779 126.612 193.121 163.742C202.462 200.872 165.287 211.306 154.441 182.697C143.595 154.089 151.384 121.411 121.148 99.1856Z"
        stroke="#63934C" />
      <path
        d="M111.662 104.203C87.4729 86.4231 28.5232 108.647 11.6764 77.6294C-5.17047 46.6116 49.1441 9.12589 76.9306 35.6504C104.717 62.1749 108.577 82.456 122.528 98.2631C136.479 114.07 174.293 131.63 183.634 168.76C192.976 205.89 155.801 216.324 144.955 187.715C134.109 159.106 141.898 126.428 111.662 104.203Z"
        stroke="#63934C" />
    </g>
  </g>
  <defs>
    <filter id="filter0_d_332_6522" x="-0.666016" y="-0.221191" width="447" height="215"
      filterUnits="userSpaceOnUse" color-interpolation-filters="sRGB">
      <feFlood flood-opacity="0" result="BackgroundImageFix" />
      <feColorMatrix in="SourceAlpha" type="matrix"
        values="0 0 0 0 0 0 0 0 0 0 0 0 0 0 0 0 0 0 127 0" result="hardAlpha" />
      <feOffset dy="2" />
      <feGaussianBlur stdDeviation="4" />
      <feComposite in2="hardAlpha" operator="out" />
      <feColorMatrix type="matrix"
        values="0 0 0 0 0.4 0 0 0 0 0.623529 0 0 0 0 0.294118 0 0 0 0.25 0" />
      <feBlend mode="normal" in2="BackgroundImageFix" result="effect1_dropShadow_332_6522" />
      <feBlend mode="normal" in="SourceGraphic" in2="effect1_dropShadow_332_6522" result="shape" />
    </filter>
    <clipPath id="clip0_332_6522">
      <rect x="7.33398" y="5.77881" width="431" height="199" rx="12" fill="white" />
    </clipPath>
  </defs>
</svg>