<?xml version="1.0" encoding="UTF-8"?>
<svg xmlns="http://www.w3.org/2000/svg" viewBox="0 0 1334 1000">
  <defs>
    <style>
      .cls-1 {
        fill: none;
      }

      .cls-2 {
        fill: #efe1bf;
      }

      .cls-3 {
        fill: #67402e;
      }

      .cls-4, .cls-5, .cls-6 {
        fill: #010101;
      }

      .cls-7 {
        fill: #271912;
      }

      .cls-8 {
        fill: #1d3942;
      }

      .cls-9 {
        fill: #636666;
      }

      .cls-10 {
        fill: #653c29;
      }

      .cls-11 {
        fill: #eeebf4;
      }

      .cls-12 {
        fill: #542e24;
      }

      .cls-13 {
        fill: #503126;
      }

      .cls-14 {
        fill: #f1eef7;
      }

      .cls-15 {
        fill: #a66f53;
      }

      .cls-16 {
        fill: #7d5443;
      }

      .cls-17 {
        fill: #a66e53;
      }

      .cls-18 {
        fill: #ce8d2a;
      }

      .cls-19 {
        fill: #6c3a26;
      }

      .cls-20, .cls-21 {
        fill: #fff;
      }

      .cls-5 {
        stroke-width: .13px;
      }

      .cls-5, .cls-6 {
        stroke: #010101;
      }

      .cls-5, .cls-6, .cls-21 {
        stroke-miterlimit: 10;
      }

      .cls-6 {
        stroke-width: .12px;
      }

      .cls-22 {
        fill: #7b5342;
      }

      .cls-23 {
        fill: #12351e;
      }

      .cls-24 {
        fill: #513835;
      }

      .cls-25 {
        fill: #a66f55;
      }

      .cls-21 {
        stroke: #241f20;
      }

      .cls-26 {
        fill: #67412f;
      }

      .cls-27 {
        fill: #4f2f26;
      }

      .cls-28 {
        fill: #552d23;
      }

      .cls-29 {
        fill: #8e6528;
      }

      .cls-30 {
        fill: #b15e27;
      }

      .cls-31 {
        fill: #24180f;
      }

      .cls-32 {
        fill: #a83123;
      }

      .cls-33 {
        fill: #de8b27;
      }

      .cls-34 {
        fill: #381c13;
      }

      .cls-35 {
        fill: #241f20;
      }

      .cls-36 {
        fill: #662117;
      }

      .cls-37 {
        fill: #4f2e25;
      }
    </style>
  </defs>
  <g id="Layer_3" data-name="Layer 3">
    <rect class="cls-2" x="-46.05" y="-27.88" width="1542.83" height="1158.01"/>
    <g>
      <path class="cls-3" d="M1376.08,422.21h-205.83s-14.23,58.53-14.03,57.97c.19-.56,207.46-2.36,207.46-2.36l12.4-55.61Z"/>
      <g>
        <rect class="cls-22" x="903.99" y="816.04" width="408.12" height="59.68" transform="translate(2216.09 1691.76) rotate(-180)"/>
        <rect class="cls-3" x="903.99" y="816.04" width="169.1" height="59.68" transform="translate(1977.08 1691.76) rotate(-180)"/>
        <polygon class="cls-22" points="1085.01 1183.24 1070.48 1183.24 1070.48 875.72 1094.32 875.72 1085.01 1183.24"/>
        <polygon class="cls-3" points="1074.65 1183.24 1061.51 1183.24 1052.21 875.72 1074.65 875.72 1074.65 1183.24"/>
        <polygon class="cls-22" points="1300.21 1183.24 1287.73 1183.24 1287.73 875.72 1311.38 875.72 1300.21 1183.24"/>
        <polygon class="cls-3" points="1290.51 1183.24 1278.95 1183.24 1269.65 875.72 1290.51 875.72 1290.51 1183.24"/>
        <polygon class="cls-3" points="1151.42 875.72 1155.36 875.72 1172.06 875.72 1162.76 1183.24 1155.36 1183.24 1151.42 1183.24 1140.08 1183.24 1130.78 875.72 1151.42 875.72"/>
        <polygon class="cls-22" points="938.38 1170.1 925.83 1170.1 925.83 875.72 947.68 875.72 938.38 1170.1"/>
        <polygon class="cls-3" points="925.83 1170.1 913.29 1170.1 903.99 875.72 925.83 875.72 925.83 1170.1"/>
        <path class="cls-22" d="M1312.1,816.04s8.66-139.18,21.46-197.39c12.8-58.21,47.97-205.69,47.97-205.69h-31.41s-34.01,150.82-44.48,201.54c-10.47,50.72-21.59,201.54-21.59,201.54h28.05Z"/>
        <path class="cls-3" d="M1295.08,816.04s7.45-139.18,18.44-197.39c11-58.21,47.97-205.69,47.97-205.69h-22.26s-35.01,150.82-44.01,201.54c-9,50.72-24.26,201.54-24.26,201.54h24.11Z"/>
        <path class="cls-22" d="M1115.2,816.04s8.66-139.18,21.46-197.39c12.23-55.62,8.14-51.22,52.63-205.69h-36.07s-34.01,150.82-44.48,201.54c-10.47,50.72-21.59,201.54-21.59,201.54h28.05Z"/>
        <path class="cls-3" d="M1098.17,816.04s7.44-139.18,18.44-197.39c11-58.21,47.97-205.69,47.97-205.69h-22.26s-35.01,150.82-44.01,201.54c-9,50.72-24.26,201.54-24.26,201.54h24.11Z"/>
      </g>
      <path class="cls-3" d="M1329.31,526.16h-205.83s-14.23,58.53-14.03,57.97c.19-.56,207.46-2.36,207.46-2.36l12.4-55.61Z"/>
    </g>
    <g>
      <path class="cls-3" d="M340.48,423.21h205.83s14.23,58.53,14.03,57.97c-.19-.56-207.46-2.36-207.46-2.36l-12.4-55.61Z"/>
      <g>
        <rect class="cls-22" x="404.45" y="817.04" width="408.12" height="59.68"/>
        <rect class="cls-3" x="643.47" y="817.04" width="169.1" height="59.68"/>
        <polygon class="cls-22" points="631.54 1184.24 646.07 1184.24 646.07 876.72 622.24 876.72 631.54 1184.24"/>
        <polygon class="cls-3" points="641.9 1184.24 655.04 1184.24 664.35 876.72 641.9 876.72 641.9 1184.24"/>
        <polygon class="cls-22" points="416.34 1184.24 428.83 1184.24 428.83 876.72 405.18 876.72 416.34 1184.24"/>
        <polygon class="cls-3" points="426.04 1184.24 437.6 1184.24 446.91 876.72 426.04 876.72 426.04 1184.24"/>
        <polygon class="cls-3" points="565.14 876.72 561.19 876.72 544.49 876.72 553.8 1184.24 561.19 1184.24 565.14 1184.24 576.47 1184.24 585.78 876.72 565.14 876.72"/>
        <polygon class="cls-22" points="778.17 1171.1 790.72 1171.1 790.72 876.72 768.87 876.72 778.17 1171.1"/>
        <polygon class="cls-3" points="790.72 1171.1 803.26 1171.1 812.57 876.72 790.72 876.72 790.72 1171.1"/>
        <path class="cls-22" d="M404.45,817.04s-8.66-139.18-21.46-197.39c-12.8-58.21-47.97-205.69-47.97-205.69h31.41s34.01,150.82,44.48,201.54c10.47,50.72,21.59,201.54,21.59,201.54h-28.05Z"/>
        <path class="cls-3" d="M421.47,817.04s-7.45-139.18-18.44-197.39c-11-58.21-47.97-205.69-47.97-205.69h22.26s35.01,150.82,44.01,201.54c9,50.72,24.26,201.54,24.26,201.54h-24.11Z"/>
        <path class="cls-22" d="M601.36,817.04s-8.66-139.18-21.46-197.39c-12.23-55.62-8.14-51.22-52.63-205.69h36.07s34.01,150.82,44.48,201.54c10.47,50.72,21.59,201.54,21.59,201.54h-28.05Z"/>
        <path class="cls-3" d="M618.38,817.04s-7.44-139.18-18.44-197.39c-11-58.21-47.97-205.69-47.97-205.69h22.26s35.01,150.82,44.01,201.54c9,50.72,24.26,201.54,24.26,201.54h-24.11Z"/>
      </g>
      <path class="cls-3" d="M387.24,527.16h205.83s14.23,58.53,14.03,57.97c-.19-.56-207.46-2.36-207.46-2.36l-12.4-55.61Z"/>
    </g>
    <path class="cls-25" d="M325.3,459.44l-1.37-74.17-54.58,30.9s1.64,55.86,20.66,66.33"/>
    <path class="cls-25" d="M269.13,466.5c1.19,9.21,7.2,36.45,22.45,38.64,46.19,6.63,133.71,2.89,176.75,1.91l-8.18-17.72,6.69-9.51-124.31-24.79s-27.43-6.96-45.96,4.37"/>
    <path class="cls-17" d="M441.88,507.17l18.43,1.49s20.65,15.03,32.21,17.86c8.43,1.74,17.05,2.33,25.61,1.76l26.19,6.9s9.58,9.17,12.69,6.51c3.11-2.67.44-7-2.16-11.21-2.6-4.21-56.4-47.87-56.4-47.87,7.14-.73,14.34-.86,21.52-.39,11.03.8,16.72-4.7,13.02-9.41-2.28-2.91-17.71-7.55-23.24-4.49-5.53,3.06-18.01-4.89-29.22-4.18-11.21.71-21.73,11.43-21.73,11.43-5.87,1.11-14.55,15.53-14.55,15.53-5.69,8.93-2.38,16.08-2.38,16.08Z"/>
    <path class="cls-37" d="M541.55,534.32c1-.21,1.36-1.67,1.47-2.5.22-1.69-.28-3.56-1.36-4.87-1.82-2.2-4.14-3.97-6.57-5.45-1.94-1.18-3.98-2.2-6.08-3.03-.72-.29-2.47-1.24-3.03-.23-.07.12-.05.3.03.41.45.59,1.88.81,2.51,1.02l.83-.99c-3.52-1.04-7.14-1.74-10.8-2.02s-7.25-.41-10.78.28c-.92.18-.63,1.18.27,1.01,3.41-.66,7.04-.47,10.48-.18s6.73.94,10,1.91c.62.18,1.72-.7.83-.99-.54-.18-1.08-.36-1.6-.56-.09-.04-.3-.16-.39-.16-.06,0-.1-.04-.1-.04.03-.03.14.43.12.48l-.76.45c-.2.03-.22-.08-.04.03.14.09.37.12.53.17.54.18,1.07.39,1.59.61,1.69.7,3.33,1.52,4.9,2.45,1.83,1.08,3.6,2.32,5.15,3.78.98.92,1.99,1.93,2.46,3.21.28.75.41,1.58.38,2.39-.02.49-.09.96-.29,1.42-.13.31-.48.5-.02.4-.91.19-.63,1.2.27,1.01h0Z"/>
    <path class="cls-37" d="M526.61,517.4c.33-.63-1.06-1.6-1.42-1.92-1.17-1.05-2.39-2.04-3.61-3.02-2.65-2.13-5.36-4.16-8.21-6.01-.93-.6-3.07-2.42-4.23-1.35-.25.23-.12.47.15.57.32.11.78-.05,1.02-.27-.15.14-.81.16-.74.28.02.04.19.08.24.1.29.13.56.29.84.45.77.44,1.52.93,2.26,1.42,1.61,1.07,3.51,2.42,4.87,3.46,1.85,1.42,3.67,2.88,5.43,4.4.48.42.97.84,1.42,1.29.15.15.31.3.44.47.16.21.08.24.18.06-.34.64,1.11.53,1.36.07h0Z"/>
    <path class="cls-37" d="M458.74,476.08c-1.04,4.98-.57,10.18,1.33,14.89.23.57,1.66.15,1.45-.39-1.87-4.65-2.35-9.74-1.32-14.65.13-.62-1.34-.41-1.46.15h0Z"/>
    <path class="cls-37" d="M498.87,482.92c-3.27,6.55-8.9,11.79-15.66,14.59-.94.39-.07.74.54.48,7.13-2.96,13.1-8.36,16.55-15.29.17-.34-1.23-.21-1.44.21h0Z"/>
    <path class="cls-37" d="M505.44,518.62c3.16-4.76,4.21-10.69,2.89-16.25-.13-.55-1.58-.18-1.45.39,1.28,5.41.28,11.16-2.8,15.79-.39.59,1.07.5,1.36.07h0Z"/>
  </g>
  <g id="Layer_1" data-name="Layer 1">
    <g>
      <path class="cls-4" d="M161.25,201.17l-.82,1.29c-1.51,9.11.35,15.94,7.48,19.84-.02.08-2.97,18.06,14.99,24.71,15.59,5.78,23.16.95,23.16.95,0,0,5.39,6.33,9.45,7.06,9.14,1.65,15.93-7.41,17.9-14.12,2.68-9.14,3.11-16.66,3.11-16.66,0,0-.92-7.56-2.07-13.1-1.14-5.54-9.02-12.54-9.02-12.54,0,0,5.99-8.44,2.06-11.43-3.93-2.99-13.14-15.72-13.14-15.72,0,0-5.34-1.03-15.56,1.19,0,0-7.21-1.83-12.73,5.88-1.2,1.67-2.32,3.85-3.27,6.68,0,0-3.54-1.49-11.16,1.47-3.29,1.27-9.22,7.58-10.37,14.5Z"/>
      <path class="cls-4" d="M161.07,201.17c-.25.4-.58.8-.78,1.23-.13.29-.14.65-.19.97-.08.54-.14,1.08-.2,1.62-.19,1.87-.22,3.77,0,5.64.39,3.34,1.67,6.52,4.04,8.94.58.59,1.22,1.13,1.89,1.62.34.25.68.48,1.03.7.15.09.8.36.85.46.07.14-.08.61-.09.76-.13,1.4-.13,2.81-.02,4.21.38,4.93,2.17,9.75,5.49,13.46,2.27,2.54,5.16,4.46,8.28,5.8,3.99,1.71,8.34,2.85,12.67,3.26,2.79.26,5.64.19,8.38-.43.81-.19,1.62-.42,2.4-.73.39-.15.86-.31,1.21-.56.05-.03.1-.05.15-.08h-.29c1.3,1.54,2.76,2.95,4.31,4.22,1.14.93,2.37,1.82,3.72,2.41s2.75.71,4.16.66c6.41-.23,11.45-5.47,14.13-10.9,1.65-3.35,2.44-7.13,3.17-10.77.57-2.83,1.02-5.7,1.27-8.58.11-1.26-.13-2.46-.31-3.71-.24-1.71-.49-3.41-.76-5.11-.3-1.85-.55-3.74-1.02-5.55-.75-2.91-2.75-5.5-4.66-7.74-.86-1.01-1.77-1.99-2.72-2.93-.32-.32-.65-.64-.99-.96-.16-.15-.4-.31-.53-.49-.06-.08-.04,0-.04.03,0-.03.08-.12.1-.15.19-.22.33-.5.48-.75.55-.89,1.06-1.81,1.51-2.76.9-1.94,1.96-4.65.9-6.73-.45-.88-1.34-1.41-2.04-2.08-.86-.82-1.67-1.7-2.45-2.58-1.88-2.13-3.66-4.36-5.4-6.61-1.27-1.64-2.52-3.3-3.75-4.98-.14-.19-.29-.52-.5-.63-.27-.14-.77-.11-1.06-.13-2.36-.22-4.76-.11-7.12.12-1.97.19-3.92.49-5.86.87-.52.1-1.11.33-1.62.31-.19,0-.4-.07-.59-.09-5.53-.68-10.44,2.84-13.18,7.41-1.02,1.7-1.79,3.53-2.43,5.4l.34-.12c-.6-.25-1.3-.32-1.94-.36-1.89-.14-3.81.16-5.65.62-2.18.54-4.32,1.23-6.12,2.6-1.81,1.39-3.35,3.14-4.65,5.01-1.71,2.46-3.01,5.25-3.52,8.22-.03.15.36.09.38-.04.81-4.73,3.62-9.21,7.2-12.37.68-.6,1.4-1.16,2.19-1.61,1.05-.6,2.26-.95,3.41-1.29,1.98-.58,4.05-1,6.12-.93.73.02,1.6.07,2.27.35.11.04.3,0,.34-.12,1.28-3.75,3.19-7.43,6.35-9.94,2.1-1.66,4.7-2.66,7.39-2.68.6,0,1.19.05,1.79.15.12.02.19.03.31.03.59-.02,1.25-.26,1.84-.37s1.11-.2,1.66-.29c3.06-.5,6.17-.82,9.27-.73.72.02,1.45.06,2.16.15.13.02.31.01.43.06.11.04-.07-.07.04.04.34.36.61.83.9,1.23.58.79,1.17,1.57,1.77,2.36,1.64,2.16,3.31,4.3,5.04,6.38,1.52,1.82,3.06,3.69,4.86,5.25.82.71,1.52,1.3,1.75,2.42.24,1.17,0,2.4-.34,3.52-.6,1.96-1.6,3.82-2.73,5.52-.07.11-.14.21-.22.32-.02.02-.02.06,0,.08,1.2,1.06,2.32,2.22,3.39,3.41,1.97,2.17,3.9,4.57,5.04,7.3.62,1.47.84,3.07,1.11,4.63.31,1.76.59,3.52.85,5.28.19,1.3.37,2.61.54,3.92.05.37.13.85.13,1.15-.04,1.98-.41,4-.72,5.95-.61,3.82-1.38,7.72-2.63,11.39-1.9,5.6-6.28,11.4-12.22,12.99-1.63.44-3.36.52-5.03.22-1.35-.24-2.58-.94-3.69-1.72-2.03-1.4-3.84-3.15-5.49-4.99-.1-.11-.2-.22-.3-.34-.07-.08-.23-.03-.29.01-1.61,1.02-3.74,1.41-5.59,1.64-5.84.74-11.85-.59-17.3-2.62-4.68-1.74-8.88-4.68-11.6-8.93-1.93-3.01-3.02-6.49-3.4-10.03-.2-1.85-.28-3.83.04-5.67,0-.03-.01-.06-.04-.07-2.84-1.58-5.2-3.87-6.52-6.87s-1.57-6.53-1.3-9.85c.04-.53.1-1.07.17-1.6.06-.45.05-1.05.23-1.47s.54-.85.79-1.25c.1-.15-.28-.13-.35-.01Z"/>
    </g>
    <g>
      <path class="cls-4" d="M336.97,199.25l-.88-1.23c-7.71-5.08-14.56-6.36-20.63-1.99-.07-.05-10.15-6.84-22.58,5.51-10.79,10.73-9.12,19.13-9.12,19.13,0,0-7.65,1.9-9.76,5.02-4.75,7.02-6.49,21.54-.16,24.47,6.34,2.93,6.44,6.18,6.44,6.18,0,0,9.73,4.6,15.15,5.95,5.42,1.35,14.54-2.91,14.54-2.91,0,0,11.94,3.61,16.05,1.55,4.11-2.06,7.65-10.41,7.65-10.41,0,0,12.87,1.19,14.52-8.36,0,0,5.45-4.67.44-12.55-1.08-1.71-2.66-3.56-4.88-5.55,0,0,2.61-2.36,2.66-10.02.02-3.31-3.57-10.94-9.43-14.8Z"/>
      <path class="cls-4" d="M337.16,199.2c-.23-.33-.46-.65-.7-.98-.41-.57-1.15-.88-1.74-1.24-1.71-1.03-3.51-1.94-5.39-2.6-2.99-1.06-6.21-1.44-9.31-.61-1.71.46-3.29,1.26-4.72,2.28l.34-.08c-1.12-.76-2.51-1.21-3.82-1.52-3.08-.72-6.32-.42-9.29.62-4.95,1.73-9.04,5.33-12.38,9.26-2.77,3.26-5.11,7.04-6.15,11.22-.4,1.62-.74,3.5-.41,5.17l.17-.1c-2.44.61-4.91,1.5-7.1,2.75-1.41.8-2.5,1.76-3.34,3.15-.96,1.59-1.69,3.32-2.26,5.09-1.16,3.58-1.78,7.47-1.4,11.23.3,3.01,1.34,6.11,4.24,7.49,2.03.97,4.14,2.25,5.42,4.16.36.54.76,1.24.79,1.91h.01c3.7,1.76,7.48,3.39,11.34,4.77,2.33.83,4.62,1.58,7.13,1.44,2.58-.15,5.12-.83,7.55-1.65.95-.32,1.88-.67,2.81-1.06.27-.11.54-.23.81-.35.07-.03.17-.06.23-.1.17-.11-.06.04-.04-.02-.08.17-.18-.05-.05.05.04.03.15.04.2.06.24.07.49.14.73.21.82.22,1.64.43,2.47.63,2.33.55,4.69,1,7.08,1.19,1.84.15,3.95.24,5.66-.56,2.1-.98,3.63-3.1,4.86-4.99,1.07-1.65,2.01-3.4,2.82-5.2.05-.1.09-.21.14-.31l-.33.1c2.62.24,5.43-.11,7.92-.95,1.95-.66,3.8-1.73,5.1-3.35.76-.95,1.3-2.06,1.62-3.23.08-.3.09-.72.25-.97.09-.14.25-.25.36-.37,1.26-1.41,2.02-3.26,2.14-5.15.22-3.51-1.66-6.76-3.85-9.36-.61-.72-1.25-1.4-1.92-2.06-.23-.22-1.22-.96-1.18-1.15.02-.09.22-.25.27-.32.16-.21.3-.43.44-.65,1.26-2.13,1.69-4.73,1.85-7.16.09-1.33.11-2.58-.22-3.87s-.83-2.51-1.41-3.69c-1.4-2.84-3.34-5.48-5.72-7.58-.64-.56-1.31-1.08-2.02-1.55-.08-.05-.38.09-.34.12,3.93,2.62,6.98,6.76,8.62,11.17.3.8.55,1.62.7,2.46.17,1,.11,2.02.04,3.03-.14,2.08-.49,4.21-1.34,6.13-.3.68-.67,1.47-1.24,1.98-.02.01-.03.03,0,.04,3.18,2.87,6.48,6.57,6.94,11.02.25,2.41-.5,4.91-2.15,6.69-.1.11-.26.21-.33.33-.12.19-.12.52-.17.74-.09.38-.21.76-.35,1.13-.49,1.29-1.29,2.45-2.33,3.37-1.93,1.71-4.49,2.53-7,2.88-1.42.2-2.91.29-4.35.16-.08,0-.29.01-.33.1-1.22,2.86-2.82,5.73-4.87,8.08-.7.8-1.49,1.57-2.41,2.11-.76.44-1.61.61-2.48.69-2.04.18-4.12-.08-6.13-.41-1.78-.29-3.55-.68-5.3-1.13-.56-.14-1.11-.29-1.66-.45-.2-.06-.42-.16-.62-.14-.23.03-.49.2-.7.29-.65.28-1.31.55-1.98.8-2.07.77-4.2,1.43-6.38,1.8-1.17.2-2.36.32-3.54.27-1.09-.05-2.11-.31-3.15-.62-2.2-.66-4.36-1.5-6.48-2.37-1.87-.77-3.73-1.57-5.58-2.41-.49-.22-.98-.45-1.47-.67-.2-.09-.21-.08-.28-.22-.14-.31-.17-.68-.32-1-.27-.58-.65-1.11-1.07-1.59-.7-.8-1.54-1.47-2.43-2.05-1.06-.7-2.28-1.14-3.33-1.84-3.12-2.08-3.51-6.68-3.37-10.07.17-4.36,1.31-8.88,3.45-12.7.46-.82.95-1.62,1.66-2.25.78-.7,1.7-1.25,2.63-1.72,1.66-.84,3.43-1.48,5.21-2,.3-.09.59-.17.89-.25.03,0,.18-.05.17-.1-.24-1.23-.08-2.6.13-3.81.61-3.56,2.27-6.9,4.34-9.84,4.93-7.03,13.21-14.24,22.45-12.52,1.51.28,3.14.77,4.44,1.64.08.05.27-.03.34-.08,1.77-1.25,3.76-2.15,5.91-2.45,1.95-.27,3.93-.06,5.83.44,2.14.56,4.17,1.49,6.09,2.57.48.27.96.56,1.43.85.38.24.84.45,1.13.79s.52.73.78,1.09c.06.08.39-.07.36-.1Z"/>
    </g>
    <path class="cls-25" d="M224.19,189.27s10,28.52-2.18,45.58c-2.09,2.93-20.69,22.43-20.69,22.43l8.12,13.16c11.84,13.01,22.5,28.59,39.91,31.12,9.87,1.43,17.22,33.75,25.57,32.98l27.2-50.39-19.4-17.67c.19-4.24,2.83-28.36,2.83-28.36"/>
    <path class="cls-13" d="M240.85,220.2s-1.69,27.5,43.09,34.93c0,0,.48-5.98.89-7.63l1.75-.4-45.73-26.9Z"/>
    <path class="cls-5" d="M203.27,146.58s-17.08-62.2,21-60.66c0,0,3.21-6.17,11.32-10,9.62-4.55,18.2,2.05,18.2,2.05,0,0,8.92-6.62,17.02-4.48,8.1,2.13,10.8,7.14,10.8,7.14,0,0,10.21-3.78,17.05.41,6.85,4.19,11.21,11.81,11.21,11.81,0,0,6.12-.37,9.73,1.78,8.64,5.16,7.64,25.35,8.12,32.58,0,0-5.09-24.73-13.01-26.43-7.92-1.71-79.67,7.57-79.67,7.57l-26.48,60.76-5.28-22.52Z"/>
    <path class="cls-25" d="M230.03,216.06c11.45,14,29.95,31.63,53.55,35.76,16.61,2.9,22.15-1.16,24.55-3.5,13.18-12.84,21.99-26.06,27.39-41.54,1.47-4.2,1.8-8.79,1.72-13.5-.13-7.07-.88-20.64-.49-27.38,1-17.15-5.96-32.33-14.79-47.15-18.39-30.89-59.61-32.76-77.37-25.23-20.76,8.8-30.79,28.07-32.94,48.92-.7,6.8-.28,13.21,1.16,19.18,2.75,3.32,5.11,6.9,7.08,10.67"/>
    <g>
      <path class="cls-4" d="M321.75,111.84s4.02,10.56,12.04,31.84c-1.9-6.74-2.64-16.77-7.87-26.29-18.27-33.24-77.12-31.43-94.92-23.23-20.8,9.58-29.24,30.19-31.48,52.69-.91,9.13-1.54,14.96.85,22.67.12.11,1.66,1.86,1.66,1.86,0,0,18.27,4.33,23.88,15.77l.68-9.73s.79-5.97,6.71-28.05c0,0,.56-3.53,7.47-17.43,6.91-13.9,13.61-17.66,13.61-17.66,0,0,30.22-3.61,37.36-3.24,7.14.36,30.01.8,30.01.8Z"/>
      <path class="cls-4" d="M321.57,111.89c.61,1.61,1.22,3.22,1.83,4.83,1.84,4.84,3.67,9.69,5.5,14.53,1.57,4.16,3.14,8.32,4.71,12.48.04.12.4.02.36-.1-1.43-5.13-2.13-10.44-3.58-15.57-1.46-5.15-3.57-10.12-6.65-14.52-4.43-6.33-10.56-11.25-17.35-14.86-7.06-3.75-14.78-6.16-22.61-7.66-7.7-1.48-15.57-2.1-23.41-1.99-6.74.09-13.52.7-20.11,2.13-2.53.55-5.04,1.22-7.47,2.14-3.78,1.44-7.36,3.53-10.61,5.93-7.7,5.7-13.31,13.67-16.95,22.48-4,9.7-5.53,20.04-6.41,30.43-.46,5.4-.48,10.76.95,16.03.13.47.2,1.07.47,1.47.2.3.51.56.74.83.27.31.58.82.94,1.02.43.23,1.07.28,1.54.42,2.93.86,5.8,1.97,8.55,3.31,3.69,1.79,7.25,4.03,10.12,7,1.43,1.48,2.67,3.15,3.58,4.99.05.1.36.04.36-.07.14-2.03.28-4.07.42-6.1.09-1.24.11-2.5.27-3.73.33-2.56.99-5.11,1.57-7.62.75-3.28,1.56-6.55,2.38-9.82.9-3.55,1.91-7.07,2.77-10.63.24-.98.57-1.93.92-2.86,1.05-2.81,2.28-5.56,3.54-8.27,3.52-7.57,7.31-15.39,13.42-21.25.96-.92,1.98-1.69,3.05-2.47.14-.1-.16.02-.04,0s.24-.03.36-.04c.58-.07,1.15-.13,1.73-.2,5.22-.6,10.45-1.17,15.68-1.69,5.69-.56,11.41-1.17,17.13-1.31,1.99-.05,3.97.09,5.95.16,3.11.11,6.22.19,9.33.27,5.38.14,10.77.26,16.15.36.32,0,.63.01.95.02.13,0,.39-.2.14-.2-4.13-.08-8.27-.17-12.4-.27-5.89-.14-11.78-.28-17.67-.54-2.06-.09-4.14.05-6.2.18-2.95.18-5.9.43-8.85.7-5.88.54-11.74,1.16-17.61,1.83-1.47.17-2.93.33-4.4.51-.59.07-1.02.46-1.49.81-1.79,1.36-3.37,3.02-4.81,4.74-2.8,3.34-5.12,7.07-7.13,10.94s-3.92,7.93-5.66,11.99c-.79,1.85-1.57,3.72-2.17,5.64-.43,1.37-.75,2.78-1.11,4.16-1.12,4.22-2.21,8.46-3.24,12.7-.93,3.82-1.86,7.66-2.54,11.54-.07.4-.13.79-.16,1.19-.17,2.46-.34,4.92-.51,7.38-.04.65-.09,1.29-.13,1.94l.36-.07c-3.49-7.04-11.11-11.27-18.18-13.96-1.23-.47-2.48-.9-3.75-1.29-.62-.19-1.31-.3-1.91-.54-.03-.01-.08,0-.11-.03.11.06,0-.05-.03-.07-.13-.13-.25-.28-.37-.42-.27-.31-.55-.62-.82-.93-.35-.39-.46-.66-.61-1.2-.73-2.53-1.19-5.13-1.35-7.77-.17-2.76-.03-5.53.19-8.28.24-2.91.51-5.82.87-8.72.62-4.95,1.56-9.86,2.94-14.65,2.65-9.17,7.02-17.97,13.71-24.88,5.41-5.58,12.23-9.93,19.72-12.06,6.05-1.73,12.37-2.53,18.64-2.89,7.66-.44,15.38-.16,22.99.89s15.74,3.01,23.08,6.16c7.06,3.03,13.68,7.25,18.88,12.95,2.86,3.14,5.23,6.7,7.03,10.54,2.52,5.39,3.87,11.17,5.05,16.97.47,2.28.91,4.56,1.54,6.8l.36-.1c-2.52-6.67-5.03-13.35-7.56-20.02-1.3-3.43-2.6-6.86-3.9-10.29-.19-.51-.39-1.02-.58-1.53-.05-.12-.41-.01-.36.1Z"/>
    </g>
    <path class="cls-25" d="M228.4,205.21c-9.71,7.82-15.21-6.94-15.21-6.94-7.11-11.07-7.84-22.17-6.63-29.44,1.21-7.27,9.24-6.16,9.24-6.16,6.74,1.59,5.67,2.28,12.52,22.86"/>
    <path class="cls-4" d="M277.02,172.18c-2-.85-4.31-.16-5.6.74-.3.21-1.12.82-1.49,1.86-.47,1.33.21,2.85,1.27,3.78,1.41,1.24,3.75,1.48,5.53.84,2.42-.88,3.18-3.2,2.55-4.9-.12-.31-.65-1.63-2.26-2.31"/>
    <path class="cls-4" d="M286.28,178.63s-7.06-8.32-14.47-8.42c-10.43-.13-12.82,4.69-15.06,7.18,0,0,6.69-5.83,14.76-5.57,7.31.23,14.77,6.81,14.77,6.81Z"/>
    <path class="cls-4" d="M324.03,172.48c1.98-.8,4.31-.06,5.62.88.31.22,1.14.85,1.53,1.9.51,1.34-.14,2.84-1.18,3.75-1.38,1.21-3.71,1.39-5.51.7-2.44-.94-3.26-3.28-2.67-4.97.11-.31.61-1.61,2.21-2.26"/>
    <path class="cls-4" d="M312.99,178.72s5.52-8.16,11.49-8.07c8.4.12,10.43,4.99,12.28,7.54,0,0-5.51-5.99-12.01-5.92-5.89.06-11.77,6.46-11.77,6.46Z"/>
    <g>
      <path class="cls-4" d="M303.78,204.07c-1.95.99-4.89.71-6.82-.52-.43-.27-1.87-.03-1.27.35,2.55,1.63,6.78,1.83,9.29.56.25-.13.21-.32-.1-.43-.32-.11-.83-.1-1.1.04"/>
      <path class="cls-4" d="M294.85,203.34c-1.29-.63-2.74-.98-4.19-1.11-.21-.02-.49.06-.65.2-.12.11-.15.26,0,.35.66.4,1.52.57,2.3.56.25,0,.57-.06.72-.27.13-.19-.1-.33-.3-.33-.65,0-1.31-.13-1.86-.46-.22.18-.43.36-.64.54,1.3.12,2.59.44,3.75,1,.23.11.56.05.77-.08.16-.09.33-.3.09-.42"/>
      <path class="cls-4" d="M289.08,203.44c-1.7-.06-3.69-.83-4.51-2.13-1.23-1.95,0-5.19,2.14-6.4.23-.13.11-.31-.12-.36-.3-.07-.67.04-.91.18-1.87,1.06-3.11,3.75-2.86,5.57.24,1.7,1.84,2.91,3.87,3.43.6.15,1.25.26,1.88.29.26,0,.72-.06.85-.26.13-.2-.1-.3-.35-.3"/>
      <path class="cls-4" d="M306.91,203.25c-.09-.2.08-.32.22-.32.46.02.93-.1,1.33-.42.15.19.29.37.44.56-.92.09-1.85.38-2.68.92-.17.11-.4.03-.54-.09-.11-.09-.22-.31-.06-.42"/>
      <path class="cls-4" d="M305.61,203.48c.93-.6,1.97-.92,3-1.01.15-.01.34.07.45.21.09.11.1.26-.01.35"/>
      <path class="cls-4" d="M310.43,203.52c1.11-.03,2.42-.75,2.98-2.03.85-1.93.12-4.24-1.24-5.49-.15-.14-.07-.31.09-.36.2-.06.43.05.59.2,1.19,1.1,1.94,2.86,1.73,4.67-.2,1.7-1.27,2.87-2.6,3.34-.4.14-.82.23-1.23.25-.17,0-.47-.08-.55-.28-.08-.21.07-.29.23-.3"/>
    </g>
    <path class="cls-6" d="M327.66,106.18c-3.17-2.72-9.41-6.39-15.4-7.3-.25-.04-.49-.07-.73-.09l-3.36.92-.12.03s.08-.03.13-.04c.6-.2,1.92-.73,1.47-1.5-.16-.27-.53-.57-1.22-.89-1.02-.47-2.59-.95-4.32-1.38,0,0,0-.02,0-.03-.17-.03-.33-.06-.5-.09-.16-.04-.33-.08-.49-.12,0,0,0,.02,0,.03-1.75-.32-3.38-.53-4.5-.52-.76,0-1.23.13-1.48.31-.73.51.25,1.54.72,1.97.04.03.07.06.1.09l-.09-.08-2.68-2.22c-.23-.08-.46-.16-.7-.22-7.18-2.02-19.84,1.48-21.09,2.15-1.24.66-.83,2.28-.81,2.41l-1.71-1.98s-9.45,1.52-11.18,2.27c-1.73.76-2.97,3.19-2.97,3.19,0,0-2.87.4-3.76-.12-.89-.51-6.39.99-9.07,3.49-1.71,1.6-1.63,3.48-2.63,4.99h0c-.57.85-.91,1.42-.91,1.42l-5.49.6c-4.53,1.09-5.33,9.76-5.33,9.76-10.2,8.16-12.42,16.51-10.76,26.37.64,3.8-10.11,5.17-3.68,6.42,6.52,1.26,12.04,25.97,12.04,25.97,0,0,2.65-9.96,3.71-13.58,1.07-3.62,1.62-14.92,1.62-14.92l3.22.23s2.07-.36,5.26-4.04c3.2-3.68.6-12,.6-12l-.26-4.75,6.01,1.74c6.11.26,7.82-6.06,7.82-6.06l1.27-10.85,2.77,4.33s1,1.98,3.08,2.26c9.29,1.28,11.59-4.18,11.59-4.18l2.38-5.09,1.98,2.04c2.02,2.54,8.85,7.26,13.02,6.44,1.1-.22,6.02-2.56,6.8-2.87,2.24-.99,3.39-3.27,3.94-4.81,1.77,2.61,4.24,5.44,6.89,6.13,3.21.84,10.49,1,11.67-.32.8-.88-.21-1.23.97-.92,1.03.27,1.75,1.2,2.25,2.1,0,0,1.48,9.43,9.03,14.34,7.55,4.91,11.16-14.96,4.13-19.34,0,0,.94-10.78-9.24-11.71Z"/>
    <path class="cls-5" d="M206.32,112.43s-9.16,1.29-12.57,5.76c-8.79,11.51-9,49.36-2.4,56.5l11.84.34,3.13-62.6Z"/>
    <path class="cls-34" d="M224.5,184.62c-1.01-3.79-2.2-7.59-3.95-11.11-.85-1.71-1.85-3.45-3.21-4.81-.5-.5-1.12-1.06-1.82-1.27-1.02-.32-1.71.58-2.24,1.31-2.01,2.77-2.51,6.32-2.3,9.66.02.38,1.48.1,1.45-.39-.17-2.67.13-5.42,1.32-7.85.31-.64.69-1.25,1.13-1.8.13-.16.29-.31.42-.48.11-.14,0-.02.09-.09l-1.02.27c-.13-.02-.09-.05,0,0,.11.07.25.1.37.17.39.21.9.65,1.27,1.02,1.94,1.96,3.18,4.61,4.22,7.13,1.15,2.8,2.05,5.7,2.83,8.62.11.43,1.56.05,1.45-.39h0Z"/>
    <path class="cls-34" d="M221.64,185.19c-5.33-.42-2.65,6.08-3.12,9.03-.03.16-.06.32-.12.47-.02.06-.1.15-.1.21l-.04.06c-.2.24.03.21.69-.1-.01-.06-.3-.27-.34-.32-.18-.23-.31-.52-.43-.78-.62-1.4-.91-2.97-1.17-4.47-.36-2.12-.56-4.06-.27-6.18s1-5.69,3.34-6.61c.96-.37.06-.58-.51-.36-2.33.91-3.39,3.18-3.94,5.49-.39,1.63-.64,3.38-.47,5.05.2,1.99.49,4,1.04,5.92.23.82.55,2.32,1.4,2.77.68.36,1.76-.09,2.13-.72.42-.7.3-1.71.24-2.48-.1-1.29-.31-2.57-.31-3.86,0-.82.07-2.59,1.06-2.51.27.02.84-.05,1.02-.27.15-.18.26-.31-.09-.34h0Z"/>
    <g>
      <path class="cls-20" d="M278.77,425.61c-1.35-2.34-5.4-.23-8.1-.45-2.07-14.89-4.71-33.93-4.71-33.93l33.48-24.32,13.57-73.47s21.14,18.85,19.61,48.88c-.82,16.09-5.2,48.1-5.2,48.1l1.16,26.25c-.3.75-16.72,9.07-25.31,8.54,0,0-18.32,11.14-24.5.39Z"/>
      <path class="cls-35" d="M279.49,425.42c-1.02-1.56-3-1.33-4.62-1.07-.54.09-1.08.2-1.62.29-.37.06-1.42.39-1.7.2-.43-.28-.36-1.39-.42-1.82-.11-.79-.22-1.59-.33-2.38-.75-5.37-1.49-10.74-2.23-16.11-.53-3.81-1.06-7.62-1.58-11.43-.09-.68-.23-1.37-.28-2.05.01.16-.3.29-.03.14.15-.08.29-.21.43-.31,9.12-6.62,18.23-13.24,27.35-19.86l4.77-3.47c.45-.33.85-.51,1.01-1.03.29-.94.37-2.01.55-2.98l1.07-5.8c2.29-12.42,4.59-24.85,6.88-37.27,1.07-5.77,2.13-11.54,3.2-17.31.37-2.02.75-4.04,1.12-6.07.2-1.09.52-2.23.62-3.33.01-.14.05-.28.08-.42l-1.4.37c2.22,1.99,4.17,4.35,5.97,6.71,4.4,5.74,7.92,12.18,10.28,19.02,3.03,8.77,3.73,17.74,3.07,26.94-.6,8.37-1.54,16.72-2.53,25.06-.71,5.97-1.46,11.94-2.26,17.89-.38,2.8.02,5.7.15,8.51.25,5.76.51,11.52.76,17.27.02.5.17,1.16.07,1.65-.04.22.13-.12-.05.06-.25.25-.66.43-.97.6-2.8,1.59-5.79,2.89-8.78,4.07-3.73,1.47-7.64,2.82-11.64,3.29-1.14.13-2.58-.16-3.63.33-.57.26-1.1.62-1.65.91-5.08,2.65-12.32,5.66-17.93,2.93-1.58-.77-2.82-2.04-3.72-3.54-.24-.4-1.61.12-1.45.39,4.84,8.16,16.28,4.29,22.99.99.9-.44,1.81-.91,2.67-1.43l-.89.19c3.05.16,6.12-.5,9.04-1.33,3.33-.94,6.59-2.17,9.76-3.56,2.23-.97,4.48-1.99,6.57-3.24.87-.52,1.14-.69,1.1-1.65-.2-4.47-.39-8.94-.59-13.41-.18-3.98-.55-8-.53-11.98,0-.35.16-1.34.24-1.93.28-2.13.56-4.26.83-6.39.86-6.76,1.68-13.52,2.41-20.29.73-6.79,1.49-13.63,1.75-20.46.31-8.22-1.09-16.43-4.01-24.11-2.19-5.77-5.21-11.21-8.86-16.18-1.94-2.64-4.05-5.27-6.47-7.51-.12-.11-.23-.22-.36-.33-.26-.23-1.33,0-1.4.37-.99,5.38-1.99,10.76-2.98,16.14l-5.93,32.08c-1.45,7.84-2.9,15.68-4.34,23.52-.1.55-.16,1.13-.31,1.67,0,.03.28-.2-.05.02s-.66.48-.98.72c-3.31,2.4-6.61,4.8-9.92,7.2-7.31,5.31-14.63,10.62-21.94,15.94l-.45.32c-.08.06-.17.14-.16.25,1.57,11.31,3.13,22.62,4.71,33.93.01.1.2.13.26.14,1.28.07,2.52-.18,3.77-.4,1.37-.25,3.16-.67,4.06.71.26.4,1.61-.14,1.45-.39Z"/>
    </g>
    <path class="cls-25" d="M140.61,1141.87c3.63-28.79-8-206.21,2.31-256.83,21.72-106.61-24.37-154.25-32.93-193.51-17.72-81.31-26.61-136.3-6.32-170.97l172.83,14.19-2.19,38.01c8.61,40.02-1.55,170.28-5.6,281.38-.48,13.31-1.83,26.56-4.05,39.69l-39.21,231.96s-7.73,9.59-24.65,2.11c0,0-1.35,15.56-5.96,15.41-25.69-.87-17.97,9.86-54.24-1.43Z"/>
    <path class="cls-12" d="M184.48,1140.39c.31-1.85.61-3.7.92-5.54.84-5.06,1.68-10.13,2.52-15.19,1.25-7.53,2.5-15.06,3.74-22.59,1.55-9.33,3.09-18.67,4.64-28,1.72-10.36,3.43-20.71,5.15-31.07,1.78-10.74,3.56-21.48,5.34-32.22,1.72-10.37,3.44-20.73,5.16-31.1,1.54-9.27,3.07-18.55,4.61-27.82,1.23-7.44,2.47-14.88,3.7-22.32.82-4.94,1.64-9.89,2.46-14.83.42-2.52.85-5.02,1.14-7.55,1.68-14.75,1.95-29.47,1.63-44.3-.09-4.23-.18-8.47-.28-12.7-.17-8.03-.35-16.05-.52-24.08-.22-10.19-.44-20.37-.66-30.56-.24-10.83-.47-21.67-.71-32.5-.21-9.82-.43-19.65-.64-29.47-.16-7.3-.32-14.6-.48-21.9-.07-3.12-.34-6.31-.2-9.43,0-.17,0,.11,0-.03.03-.31.09-.61.14-.91.25-1.49.57-2.97.93-4.44,1.23-4.98,3.01-9.92,5.71-14.31,2.88-4.68,6.97-8.74,12.49-9.97.88-.2.68-.92-.19-.73-10.95,2.43-16.41,13.92-19.08,23.78-.6,2.2-1.34,4.62-1.44,6.91-.04.77.03,1.56.05,2.33.11,5.15.22,10.29.34,15.44.19,8.65.38,17.3.56,25.94.23,10.53.46,21.06.69,31.58.23,10.76.47,21.51.7,32.27.21,9.46.41,18.93.62,28.39.14,6.52.28,13.04.42,19.56.11,4.98.29,9.96.33,14.94.07,10.89-.48,21.79-1.65,32.62-.19,1.76-.37,3.51-.66,5.25-.56,3.35-1.11,6.71-1.67,10.06-1.04,6.28-2.08,12.55-3.12,18.83-1.4,8.44-2.8,16.87-4.2,25.31-1.65,9.94-3.29,19.87-4.94,29.81-1.77,10.68-3.54,21.36-5.31,32.04-1.77,10.66-3.53,21.31-5.3,31.97-1.66,9.99-3.31,19.98-4.97,29.97-1.42,8.56-2.84,17.11-4.25,25.67-1.06,6.37-2.11,12.75-3.17,19.12-.58,3.52-1.17,7.03-1.75,10.55-.07.45-.15.9-.22,1.35-.09.56,1.37.31,1.45-.18h0Z"/>
    <path class="cls-23" d="M79.7,843.17c3.8,2.22,6.11,3.17,10.51,4.56,2.49.79,5.01,1.45,7.57,2,1.63.35,3.26.64,4.9.92.13.02.78.11,1.16.16,5.1.59,10.25.81,15.38.83,20.33.06,41.89-5.51,61.8.1,10.07,2.84,18.33,7.6,26.98,10.57,10.06,3.46,15.72,3.67,25.13.34,7.94-2.81,17.76-8.42,27.25-11.84,4.71-1.7,9.68-3.29,14.62-4.06,5.4-.84,10.95-.76,15.53-2.05,2.32-103.77-4.78-223.5-11.54-256.75l-.69-90.28-163.63-27.95c-38.28,82.78-39.16,112.98-20.93,201.45,4.54,22.04-10.64,112.73-14.04,172Z"/>
    <g>
      <path class="cls-20" d="M315.76,296.92c-3.75-6.25-28.41-30.99-28.41-30.99,0,0-9.62,56.54-24.36,55.57l-42.87-77.26c-15.51.54-29.47,6.72-46.17,12.62-5.5,1.95-27.67,12.23-27.67,12.23l20.53,44.92-38.95,129.16-11.62,13.43c4.6,5.3,3.71,7.36,9.21,11.75,9.91,7.9,22.82,2.73,34.08,8.23,11.13,5.44,22.84,10.55,34.81,13.58,25.05,6.35,49.63,12.87,76.14,10.48,5.65-.51,10.48-4.7,12.08-10.52,4.72-17.14,15.33-55.13,19.16-58.91,8.79-8.68,13.26-33.3,13.73-46.49.77-21.75-.12-9.54,8.05-32.35"/>
      <path class="cls-35" d="M316.48,296.73c-1.17-1.92-2.69-3.65-4.15-5.35-2.28-2.66-4.66-5.25-7.05-7.82-4.63-4.98-9.36-9.87-14.13-14.72-1.04-1.06-2.08-2.12-3.13-3.17-.24-.24-1.34.02-1.4.37-1.55,9.12-3.7,18.2-6.33,27.07-1.91,6.46-4.1,12.95-7.28,18.91-1.25,2.35-2.69,4.66-4.56,6.58-1.14,1.16-3,2.8-4.8,2.57-.29-.04.17.22,0,.06-.06-.05-.11-.19-.14-.25-.17-.36-.39-.7-.58-1.05-.71-1.27-1.41-2.54-2.12-3.82-2.46-4.44-4.92-8.87-7.38-13.31-6.65-11.99-13.3-23.98-19.96-35.97-2.74-4.93-5.47-9.86-8.21-14.79-1.41-2.54-2.71-5.19-4.25-7.65-.07-.11-.13-.24-.2-.35-.08-.15-.27-.15-.42-.14-14.78.57-28.63,6.18-42.35,11.17-8.35,3.03-16.41,6.64-24.48,10.33-2.58,1.18-5.16,2.36-7.73,3.55-.08.04-.36.2-.3.33,2.4,5.25,4.8,10.5,7.2,15.74,3.71,8.11,7.42,16.23,11.13,24.34l1.58,3.47c.17.38.58.94.62,1.36-.02-.15-.11.32-.14.42l-.44,1.45c-1.4,4.64-2.8,9.29-4.2,13.93l-6.98,23.14c-2.78,9.23-5.57,18.47-8.35,27.7-2.74,9.08-5.47,18.15-8.21,27.23-2.23,7.38-4.45,14.76-6.68,22.15-1.22,4.03-2.43,8.06-3.65,12.09-.32,1.07-.41,1.07-1.2,1.99-2.85,3.29-5.7,6.59-8.55,9.88-.7.81-1.4,1.62-2.1,2.42-.07.08-.09.15-.02.23,1.76,2.06,3.07,4.32,4.49,6.6,1.4,2.23,3.25,4.1,5.37,5.65,4.97,3.63,11.1,4.28,17.06,4.64,3.12.19,6.26.34,9.35.89,3.47.62,6.49,1.96,9.64,3.47,6.78,3.25,13.68,6.3,20.76,8.82,7.05,2.51,14.31,4.26,21.56,6.07,7.17,1.79,14.36,3.5,21.61,4.91,14.62,2.85,29.62,4.44,44.51,3.08,5.15-.47,9.73-3.35,12.15-7.96,1.07-2.03,1.55-4.32,2.16-6.52s1.19-4.28,1.79-6.42c2.77-9.87,5.6-19.73,8.7-29.5,1.28-4.04,2.6-8.07,4.1-12.03.87-2.31,1.7-5.05,3.24-7.03,1.04-1.34,2.22-2.49,3.16-3.92,1.26-1.92,2.3-3.98,3.21-6.09,2.16-4.99,3.65-10.27,4.83-15.57,1.14-5.11,1.97-10.3,2.48-15.51.48-4.89.51-9.8.72-14.7.1-2.39.16-4.86,1-7.13,1-2.7,2.39-5.26,3.49-7.92,1.15-2.78,2.21-5.61,3.23-8.44.13-.35-1.29-.18-1.44.23-1.74,4.85-3.66,9.61-5.83,14.29-.97,2.1-1.55,4.09-1.74,6.41-.4,4.97-.3,9.97-.66,14.94-.43,5.89-1.33,11.77-2.59,17.54s-2.9,11.65-5.39,17.08c-1.07,2.33-2.3,4.62-3.88,6.64-.83,1.06-1.84,1.93-2.52,3.1-1.69,2.89-2.77,6.21-3.88,9.36-1.73,4.91-3.29,9.87-4.81,14.85-3.18,10.41-6.14,20.89-9.03,31.38-.77,2.8-1.59,5.45-3.49,7.72-2.29,2.73-5.36,4.26-8.89,4.57-8.55.73-17.16.52-25.69-.37-16.61-1.72-32.83-5.93-48.98-10.03-8.12-2.06-15.99-4.96-23.67-8.31-3.84-1.67-7.62-3.46-11.39-5.29-3.12-1.51-6.46-2.32-9.9-2.74-6.77-.82-13.98-.18-20.33-3.1-3.02-1.39-5.83-3.62-7.81-6.3-1.56-2.11-2.67-4.5-4.29-6.58-.15-.19-1.06-1.08-1.06-1.12,0-.09.23-.25.28-.32.31-.46.76-.88,1.12-1.3,1.27-1.47,2.54-2.93,3.8-4.4,1.38-1.6,2.77-3.2,4.15-4.8.7-.81,1.63-1.62,2.19-2.53.26-.42.35-.99.49-1.46l1.28-4.24c1.56-5.17,3.12-10.34,4.68-15.51,2.21-7.33,4.42-14.65,6.63-21.98,2.52-8.37,5.05-16.73,7.57-25.1,2.46-8.16,4.92-16.33,7.39-24.49,2.06-6.84,4.13-13.69,6.19-20.53,1.32-4.36,2.63-8.73,3.95-13.09.26-.85.69-1.79.81-2.67.09-.65-.38-1.27-.66-1.88-2.87-6.28-5.74-12.56-8.61-18.83-3.19-6.97-6.37-13.94-9.56-20.91-.55-1.19-1.09-2.39-1.64-3.58l-.3.33c6.02-2.79,12.06-5.55,18.13-8.23,3.09-1.37,6.19-2.78,9.37-3.93,7.2-2.6,14.35-5.35,21.63-7.71,7.78-2.53,15.77-4.47,23.97-4.78l-.42-.14c3.63,6.55,7.27,13.1,10.9,19.64,6.77,12.2,13.54,24.41,20.31,36.61,2.68,4.82,5.35,9.65,8.03,14.47.83,1.5,1.66,3,2.49,4.49.31.56.63,1.54,1.1,1.99.93.88,3.67-.3,4.61-.81,1.99-1.06,3.56-2.79,4.87-4.59,3.76-5.16,6.1-11.39,8.13-17.39,3.57-10.55,6.16-21.49,8.11-32.45.03-.19.07-.39.1-.58l-1.4.37c7.94,7.97,15.85,16.04,23.26,24.5,1.78,2.04,3.69,4.1,5.1,6.42.24.4,1.61-.12,1.45-.39h0Z"/>
    </g>
    <path class="cls-1" d="M177.73,451.54c-.4,2.22-.71,4.46-.95,6.69.06-.14.11-.27.05-.48.16-1.31.45-3.45.89-6.22Z"/>
    <g>
      <path class="cls-20" d="M300.83,277.51c-.01-1.6-1.17-6.88-2.25-7.83,0,0-1.52-2.45-2.64-3.46-2.63-2.39-2.99-3.07-5.84-5.18-2.59-1.92-4.78-2.82-5.96-3.09l-1.13,10.99c-.07.59-.23,1.09-.46,1.53-.8,3.4-2.29,11.16-4.33,14.33-5.17,8.01-15.42,38.84-15.42,38.84l4.88,7.53,15.17-24.07-1.37-12.18,12.38,6.58c3.43-5.01,3.65-7.06,5.19-13.17.81-3.21,1.79-7.51,1.77-10.81Z"/>
      <path class="cls-35" d="M301.55,277.32c-.05-2.08-.64-4.32-1.38-6.25-.58-1.52-1.75-3.02-2.78-4.27-1.58-1.91-3.67-3.73-5.62-5.27-2.08-1.64-4.44-3.24-7.05-3.9-.26-.07-1.27.03-1.31.42-.21,2.04-.42,4.07-.63,6.11-.23,2.27-.36,4.46-1.01,6.63-1.11,3.72-1.59,7.58-2.94,11.24-.89,2.41-2.39,4.55-3.5,6.87-5.14,10.69-8.95,22.11-12.75,33.33-.14.4-.48,1-.48,1.43s.43.88.68,1.26c1.39,2.14,2.78,4.29,4.17,6.43.26.4,1.25,0,1.44-.31,2.99-4.75,5.98-9.5,8.98-14.24,1.73-2.74,3.45-5.48,5.18-8.22.28-.45.86-1.07,1-1.59.17-.64-.15-1.65-.23-2.29-.38-3.33-.75-6.66-1.13-9.99l-1.4.45c4.13,2.19,8.26,4.39,12.38,6.58.33.17,1.12.04,1.34-.29,2.18-3.22,3.56-6.46,4.5-10.22,1.14-4.55,2.51-9.2,2.53-13.92,0-.3-1.45-.08-1.45.39-.02,4.67-1.39,9.27-2.52,13.76-.92,3.69-2.24,6.89-4.38,10.05l1.34-.29c-4.13-2.19-8.26-4.39-12.38-6.58-.27-.15-1.46-.02-1.4.45.33,2.91.66,5.82.98,8.73.08.72.16,1.44.24,2.16.04.36.22.92.14,1.27,0,.04-.53.8-.68,1.04-3.63,5.76-7.27,11.53-10.9,17.29-1.19,1.9-2.39,3.79-3.58,5.69l1.44-.31c-1.2-1.86-2.41-3.72-3.61-5.58l-.9-1.39c-.05-.08-.38-.61-.37-.48-.02-.22.21-.62.28-.83,1.56-4.64,3.18-9.26,4.86-13.86,2.27-6.23,4.59-12.46,7.34-18.49.99-2.17,2.18-4.19,3.3-6.29,1.82-3.39,2.55-7.43,3.39-11.15.32-1.43.89-2.89,1.06-4.33.14-1.14.24-2.29.35-3.43.25-2.44.5-4.87.75-7.31l-1.31.42c2.66.67,5.05,2.34,7.15,4.04,1.85,1.49,3.82,3.22,5.33,5.04,1.06,1.28,2.21,2.82,2.78,4.39.67,1.87,1.23,4,1.28,6,0,.31,1.46.07,1.45-.39Z"/>
    </g>
    <g>
      <path class="cls-20" d="M242.84,499.82s18.52-51.87,26.52-110.58c8.1-59.39.94-58.94.94-58.94,0,0-36.33-64.77-41.24-76.49-1.94-4.63-2.86-9.69-3.11-14.36-.19-.63-.29-1.33-.24-2.13l.82-12.4s-25.51,18.87-25.52,18.87c-1.66,1.02-2.78,9.24-3.17,11.35-.82,4.36,4.33,21.64,11.63,29.52l.69-.5,22.72-9.41-4.74,15.82,36.59,41.27s0,15.78-1.23,43.79c-1.07,24.52-11.33,67.94-29.4,123.02"/>
      <path class="cls-35" d="M243.56,499.7c2.44-6.85,4.58-13.81,6.66-20.78,5.1-17.09,9.53-34.38,13.21-51.83,4.38-20.74,7.64-41.74,9.52-62.86.57-6.36,1-12.76.99-19.15,0-3.41-.09-6.87-.7-10.23-.26-1.47-.65-4.39-2.44-4.86-.06-.02-.14,0-.2,0l.42.12c-1.85-3.29-3.68-6.59-5.52-9.89-4.22-7.58-8.43-15.17-12.61-22.78-4.63-8.43-9.24-16.87-13.76-25.35-3.1-5.82-6.31-11.63-9-17.65-1.2-2.7-2.06-5.53-2.64-8.43-.38-1.95-.64-3.92-.78-5.9-.08-1.11-.33-2.16-.27-3.29.21-3.68.49-7.35.73-11.03l.07-1.06c.02-.34-1.17.07-1.28.16-7.01,5.18-14.02,10.37-21.03,15.55-1.33.98-2.65,1.96-3.98,2.94-1.21.89-1.71,2.01-2.14,3.46-.82,2.76-1.32,5.69-1.72,8.54-.33,2.32.31,4.83.85,7.06,1,4.05,2.42,8.02,4.15,11.81,1.74,3.81,3.83,7.55,6.67,10.65.23.25,1.03-.06,1.24-.22.17-.13.91-.63.4-.36.09-.05.19-.08.28-.12.48-.19.95-.39,1.43-.59,1.75-.72,3.5-1.45,5.25-2.17,4.23-1.75,8.47-3.5,12.7-5.26,1.02-.42,2.03-.84,3.05-1.26l-.97-.06c-.72,2.4-1.44,4.8-2.16,7.2-.52,1.73-1.04,3.47-1.56,5.2-.3.99-.87,2.16-.96,3.2-.06.68.78,1.27,1.24,1.78l4.48,5.05c9.12,10.29,18.25,20.58,27.37,30.87,1.07,1.21,2.2,2.38,3.22,3.64.2.24.18.22.2.33.1.43,0,1.02,0,1.47-.06,7.38-.24,14.76-.47,22.13-.32,10.41-.46,20.87-1.71,31.21-1.1,9.1-2.78,18.13-4.7,27.09-5.34,25-12.5,49.61-20.25,73.96-1.14,3.59-2.3,7.18-3.48,10.77-.1.31,1.3.15,1.43-.24,8.34-25.43,16.07-51.13,22.07-77.22,2.19-9.52,4.15-19.1,5.58-28.77,1.35-9.12,1.83-18.21,2.18-27.41.36-9.53.64-19.05.77-28.59.01-1.09.03-2.18.04-3.27,0-.43.13-1.09,0-1.52-.16-.57-.92-1.15-1.31-1.6-8.68-9.79-17.36-19.57-26.03-29.36-1.94-2.19-3.88-4.37-5.82-6.56-1.06-1.2-2.07-2.52-3.22-3.64-.33-.32-.22-.12-.13-.44.31-1.12.67-2.22,1-3.33,1.01-3.36,2.01-6.72,3.02-10.07.21-.71.42-1.42.64-2.13.11-.36-.86-.11-.97-.06-6.93,2.87-13.87,5.74-20.8,8.61-1.04.43-2,.78-2.92,1.45l1.24-.22c-5-5.47-8.04-12.92-10.09-19.95-.77-2.64-1.54-5.46-1.57-8.23-.03-2.43.7-5.07,1.22-7.43.37-1.67.69-4.03,2.12-5.15,1.12-.87,2.28-1.68,3.41-2.52,4.26-3.15,8.51-6.29,12.77-9.44,3.03-2.24,6.06-4.48,9.1-6.73l-1.28.16c-.22,3.37-.45,6.75-.67,10.12-.38,5.68.61,11.7,2.53,17.06,2.15,5.99,5.51,11.66,8.47,17.27,4.42,8.35,8.93,16.65,13.48,24.94,4.35,7.94,8.73,15.86,13.14,23.78,1.51,2.71,3.01,5.41,4.52,8.12.47.85.95,1.7,1.42,2.55.24.42.45,1.01.77,1.38.04.05.07.12.1.17.08.14.28.12.42.12-.24.01-.15,0-.15,0,.13.15.35.25.49.41.72.82,1.04,2.2,1.28,3.27.64,2.88.78,5.88.85,8.83.14,5.69-.17,11.39-.6,17.06-1.55,20.55-4.61,41.04-8.66,61.24-3.6,17.96-8.02,35.77-13.14,53.36-1.65,5.68-3.38,11.34-5.2,16.97-.84,2.61-1.93,5.21-2.63,7.85-.03.12-.08.23-.12.34-.11.3,1.29.15,1.43-.24h0Z"/>
    </g>
    <ellipse class="cls-21" cx="269.09" cy="344.28" rx="1.8" ry="2.16" transform="translate(-111.17 559.55) rotate(-81.5)"/>
    <ellipse class="cls-21" cx="266.88" cy="379.45" rx="1.8" ry="2.16" transform="translate(-147.84 587.34) rotate(-81.5)"/>
    <ellipse class="cls-21" cx="259.51" cy="421.12" rx="1.8" ry="2.16" transform="translate(-195.33 615.56) rotate(-81.5)"/>
    <ellipse class="cls-21" cx="251.04" cy="454.2" rx="1.8" ry="2.16" transform="translate(-235.26 635.38) rotate(-81.5)"/>
    <path class="cls-25" d="M132.01,295.86l40.31,22.67-5.84,26.21-19.02,92.38c-11.89,2.03-24.12-16.67-36.08-16.45-6.92.13-5.67-1.26-12.59-.76.14-5.54,17.83-78.3,18.34-83.41,1.45-14.59,5.65,1.39,14.87-40.64Z"/>
    <path class="cls-25" d="M124.81,307.74s-20.03,66.07-20.82,68.54c-6.98,21.79-14.44,69.84-11.88,81.37,5.39,24.26,13.24,10.23,38.95-2.88,28.44-14.51,3.22-99.18,3.22-99.18l-9.48-47.85Z"/>
    <path class="cls-25" d="M97.49,469.8c4.02,6.45,33.1,14.44,49.57,16.35,49.88,5.78,136.28,8.87,182.63,6.98l-8.87-13.52,5.13-7.88-177.05-44.03"/>
    <path class="cls-25" d="M367.63,460.09l-9.13-5.63c-1.7-1.53-.16,1.93-2.4,1.5l-24.38-2.88-24.49,11.93-12.42.8-4.96,27.2,15.05.98s36.04,7.35,39.47,5.88c3.43-1.46,9.87-4.06,9.87-4.06,0,0,14.23.01,16.2-1.18,7.48-4.52,5.17-6.38,5.17-6.38l3.2-.81c.35,1.14,5.96-5.03,6.17-8.62.13-2.09.73-1.96.73-1.96,3.2-1.11,7.62-3.97,8.82-7.14.71-2.02-10.26-6.12-10.26-6.12l-20.45-1.94,3.8-1.58Z"/>
    <path class="cls-37" d="M330.65,453.52c5.59.66,11.19,1.32,16.78,1.98,2.46.29,4.93.62,7.39.87.96.1,1.98,0,2.43-.99.1-.22.26-.64.22-.89l.03-.13c.12-.35-.11-.29-.72.18.01.08.29.22.35.28.21.21.57.35.82.5,2.77,1.71,5.54,3.42,8.31,5.12l.28-.7c-1.27.53-2.54,1.05-3.8,1.58-.48.2-.59.72.02.77,6.56.62,13.11,1.25,19.67,1.87.12.01.96.11.63.04s.07.04.15.08c.26.12.54.21.81.32,1.91.76,3.8,1.58,5.61,2.54,1.08.57,3.96,1.75,3.18,3.32-1.5,3-4.88,4.97-7.89,6.16.25-.1.27-.09.02,0-.2.08-.4.09-.6.21-.28.17-.45.41-.58.71-.28.63-.23,1.33-.34,1.99-.12.71-.38,1.39-.69,2.04-.62,1.29-1.44,2.5-2.34,3.61-.44.54-.9,1.06-1.41,1.54-.16.15-.36.28-.5.44-.05.06-.22.11-.24.17-.02.02-.05.03-.08.05-.2.09,0,.11.58.06-.14-.3-.56-.27-.83-.2-1.07.27-2.14.54-3.2.81-.16.04-.9.41-.56.69.86.72-.3,2.18-.81,2.73-1.11,1.18-2.76,2.57-4.26,3.16-.93.37-2.07.39-3.05.49-2.89.28-5.8.36-8.7.41-1.34.03-3.03-.25-4.31.2-3.3,1.16-6.52,2.64-9.74,4.01l.73-.09c-8.26-1.33-16.53-2.66-24.79-3.99-3.65-.59-7.29-1.18-10.94-1.76-2.84-.45-5.87-.29-8.74-.4-4.63-.18-9.26-.36-13.89-.54-.59-.02-1.53.85-.55.88,6.61.26,13.21.51,19.82.77l1.65.06c.1,0,.86.04.48,0,.52.05,1.04.17,1.55.25l9.41,1.51c7.65,1.23,15.3,2.46,22.95,3.69.69.11,1.4.27,2.1.34.6.06,1.05-.17,1.6-.4,1.31-.55,2.62-1.09,3.93-1.63,1.23-.51,2.46-1.01,3.7-1.51.36-.15.74-.28,1.1-.44.65-.3,0,.15-.18-.04.12.12.97,0,1.14,0,.86,0,1.71-.02,2.57-.04,2.25-.04,4.49-.11,6.73-.25,1.81-.11,3.72-.18,5.48-.68,1.06-.3,1.97-.98,2.86-1.61,1.02-.72,2.03-1.5,2.84-2.45.61-.71,1.42-1.88.94-2.87-.07-.14-.15-.29-.27-.39l-.56.69c1.07-.27,2.14-.54,3.2-.81l-.83-.2c.71,1.57,3.33-1.27,3.76-1.76,1.65-1.86,3.47-4.27,3.83-6.81.03-.18.39-1.93.38-1.95-.05-.06-1.1.33-.33.16.35-.08.7-.23,1.03-.37,1.68-.68,3.28-1.61,4.72-2.71,1.29-.98,2.53-2.16,3.33-3.58.42-.74.69-1.32.15-2.04-1.17-1.58-3.56-2.5-5.28-3.3-1.54-.72-3.16-1.55-4.79-2.02-.81-.23-1.74-.22-2.58-.3l-6.5-.62c-3.9-.37-7.8-.74-11.7-1.11l.02.77c1.27-.53,2.54-1.05,3.8-1.58.26-.11.65-.47.28-.7-2.47-1.52-4.95-3.05-7.42-4.57-.64-.4-1.83-1.44-2.61-1.52-.53-.05-1.05.21-1.27.68-.11.24-.12.53-.17.79-.09.42-.06.37-.37.41-.56.07-1.29-.15-1.85-.22l-4.18-.49c-3.74-.44-7.47-.88-11.21-1.32-2.38-.28-4.76-.56-7.14-.84-.6-.07-1.52.77-.55.88h0Z"/>
    <path class="cls-37" d="M331.41,452.73c-7.35,3.81-14.71,7.62-22.06,11.42-1.06.55-2.12,1.1-3.19,1.65l.73-.08c-4.96-.95-9.93-1.9-14.89-2.86-.52-.1-1.71.69-.87.86,3.01.58,6.02,1.16,9.03,1.73l5.04.97c.63.12,1.13.25,1.74-.02,2.41-1.07,4.72-2.45,7.06-3.66,3.72-1.93,7.44-3.85,11.16-5.78,2.28-1.18,4.56-2.36,6.84-3.54.88-.46.08-1.04-.6-.69h0Z"/>
    <path class="cls-4" d="M350.65,460.04l25.4-28.64c1.87-2.12,4.39-3.09,6.79-2.63l38.1,7.23c1.53.29,2.48,2.05,2.12,3.94h0c-.16.81-.55,1.56-1.09,2.1l-27.75,27.03h0l-43.57-9.02Z"/>
    <path class="cls-12" d="M355.67,474.67c2.27,1.06,4.72,1.56,7.16,2.07,2.69.56,5.4.97,8.13,1.23,2.54.24,5.1.36,7.66.34,1.9-.01,3.67.01,5.5-.47.86-.23.69-.88-.17-.65-1.77.47-3.64.37-5.47.37-2.53,0-5.06-.15-7.57-.42s-4.8-.64-7.17-1.14-4.71-.98-6.9-2c-.39-.18-1.72.4-1.16.66h0Z"/>
    <path class="cls-12" d="M348.03,485.18c2.28,1.06,4.72,1.58,7.16,2.09,2.58.54,5.2.95,7.82,1.21,2.65.27,5.32.4,7.99.38,2.5-.02,4.99-.04,7.43-.64.89-.22.66-1.08-.23-.86-2.41.59-4.93.57-7.39.57-2.43,0-4.85-.14-7.26-.38-2.52-.26-5.02-.64-7.49-1.16-2.34-.49-4.71-.97-6.89-1.98-.5-.23-1.8.46-1.13.77h0Z"/>
    <path class="cls-9" d="M354.58,461.51c.23-.17.45-.37.65-.6l1.71-1.83,6.49-6.83,9.43-10.22,5.55-6.05c.96-.98,2.11-1.64,3.31-1.91.62-.14,1.24-.17,1.85-.1.59.11,1.32.25,1.9.36l26.41,4.88,8.03,1.39,2.18.41c.26.06.52.08.78.06-.24-.12-.49-.2-.75-.23l-2.16-.49-7.98-1.67-26.36-5.12c-.66-.13-1.32-.25-1.95-.37-.67-.07-1.35-.03-2.03.12-1.33.31-2.6,1.04-3.66,2.13l-5.54,6.1-9.33,10.36c-2.58,2.87-4.71,5.28-6.26,7.04-.68.78-1.23,1.45-1.73,1.93-.2.19-.38.4-.53.64Z"/>
    <path class="cls-12" d="M149.3,427.13c-5.55.05-11.31.6-16.37,3.05-4.92,2.39-8.44,6.51-10.7,11.44-.33.73,1.12.7,1.38.14,2.15-4.71,5.46-8.67,10.21-10.9,4.76-2.23,10.15-2.67,15.33-2.72.81,0,1.13-1.02.14-1.01h0Z"/>
    <path class="cls-4" d="M284.69,148.58c-7.44,3.9-7.62,4.66-23.94,9.68-4.33,1.33-6.86,4.85-7.01,8.85,0,.2-.07,2.18.38,2.21,1.09.07,1.49-2.56,1.78-3.24,1.1-2.53,4.27-3.77,6.6-4.91,4.86-2.38,11.09-2.81,16.37-3.69,2.2-.37,4.9-.7,7.58-2.47,1.04-.69,2.16-1.67,1.82-2.73-.18-.55-.53-1.79-.71-2.34,0,0-.29-2.7-2.87-1.35Z"/>
    <path class="cls-4" d="M336.54,161.68c.06-.19.12-.38.17-.58-.21-.66-.51-1.29-.77-1.94-12.2-4.04-12.97-5-19.68-8.61-2.56-1.38-2.89,1.32-2.89,1.32-.18.54-.55,1.79-.73,2.33-.36,1.06.75,2.06,1.78,2.76,2.66,1.8,5.35,2.16,7.55,2.56,4.57.82,9.85,1.31,14.32,3.01.07-.29.16-.58.24-.84Z"/>
    <path class="cls-19" d="M296.32,215.12c-8.07-.36-21.95,4.59-21.95,4.59,0,0,1.77,1.2,2.25,2.4,1.24,3.07,2.92,8.49,10.61,11.39,2.34.88,5.92.45,9.27.6s5.56.77,7.84.02c6.92-2.29,8.29-7.72,9.41-10.82.48-1.34,2.17-2.31,2.17-2.31,0,0-11.54-5.51-19.61-5.86Z"/>
    <path class="cls-7" d="M296.4,215.12c-3.84-.17-17.67,2.68-17.67,2.68,0,0,2.63,6.72,11.06,9.57,1.95.66,4.14.84,6.74.96,2.68.12,4.94.12,6.76-.4,8.36-2.38,8.4-10.1,8.4-10.1l-15.29-2.71Z"/>
    <path class="cls-11" d="M296.61,216.62c-3.84-.17-15.39-.36-15.39-.36,0,0,3.9,3.9,15.41,4.4,11.51.51,15.46-2.9,15.46-2.9l-15.48-1.14Z"/>
    <path class="cls-19" d="M315.93,220.98c-.41-.13-3.56-3.37-5.12-4.99-2.24-2.33-2.47-3.63-4.79-3.93-3.96-.52-5.76,1.31-7.49,1.23-1.73-.08-4.18-1.95-8.17-1.78-2.34.1-8.13,4.22-11.06,5.6-2.25,1.06-4.52,2.5-4.93,2.6-.58.13,1.6.37,18.25-2.63,1.48-.27,3.69,1,6.28,1.22,2.97.25,6.32-.5,7.44-.06,7.81,3.04,10.07,2.89,9.58,2.74Z"/>
    <path class="cls-12" d="M293.55,156.54c2.12.83,4.73-.29,5.95-2.13,1.48-2.25.78-5.17-.46-7.35-.25-.44-1.64.05-1.45.39,1.07,1.87,1.77,4.23.92,6.32-.6,1.47-2.17,2.75-3.79,2.12-.31-.12-.74-.01-1.02.15-.17.1-.46.38-.14.5h0Z"/>
    <g>
      <path class="cls-20" d="M169.93,279.01c19.08,17.55,15.87,35.68,13.46,54.42-1.22,9.46-5.25,19.49-9.99,35.55-4.31,14.62-4.67,16.26-8.31,26.17-34.04,1.17-67.33-14.63-66.63-20.38,0,0,9.88-38.62,13.93-50.7,9.2-27.42,18.46-50.86,36.54-56.1"/>
      <path class="cls-35" d="M169.26,279.3c6.79,6.3,12.03,14,14.09,23.12,1.75,7.76,1.2,15.78.27,23.61-.44,3.72-.83,7.49-1.56,11.17-.69,3.53-1.67,6.99-2.71,10.43-2.77,9.16-5.75,18.26-8.45,27.45-1.99,6.79-4.1,13.5-6.54,20.14l.82-.52c-17.38.56-35.34-2.85-51.34-9.67-4.53-1.93-9.64-4.15-13.17-7.69-.67-.68-1.58-1.63-1.48-2.67.07-.74.39-1.53.58-2.24,2.64-10.23,5.32-20.44,8.13-30.63,3.51-12.74,7.43-25.32,12.34-37.6,2.89-7.24,6.17-14.44,10.55-20.93,3.6-5.33,8.14-10.33,13.98-13.23,1.38-.68,2.81-1.24,4.28-1.68.87-.26.66-1.07-.22-.81-13.62,4.03-21.44,17.36-26.95,29.51-5.86,12.94-10.3,26.57-14.14,40.23-3.12,11.11-6.06,22.27-8.95,33.44-.44,1.7-1.61,4.01-.65,5.69.82,1.44,2.26,2.53,3.58,3.48,2.18,1.57,4.57,2.87,6.98,4.05,6.86,3.35,14.17,5.8,21.56,7.68,9.08,2.31,18.43,3.71,27.8,3.98,2.31.07,4.63.05,6.94-.02.32-.01.7-.21.82-.52,2.12-5.76,4.02-11.57,5.75-17.46,2.74-9.29,5.62-18.52,8.5-27.76,1.14-3.65,2.24-7.32,3.07-11.06s1.21-7.2,1.67-10.83c.98-7.8,1.75-15.75.45-23.56-1.7-10.14-7.19-18.76-14.66-25.68-.41-.38-1.77.19-1.34.59h0Z"/>
    </g>
  </g>
  <g id="Layer_2" data-name="Layer 2">
    <g id="freepik--Character--inject-2">
      <path class="cls-15" d="M862.11,460.58l-21.42-6.02s-13.71-12.93-19.21-14.86c-5.5-1.93-28.66-3.41-29.74-3.11-1.08.3-26.1-14.45-30.01-10.63-3.9,3.82-4.71,9.07.69,14.06,5.4,4.99,23.46,9.76,22.15,13.6-1.22,2.88-2.98,5.49-5.19,7.7,0,0-4.9-4.79-10.13-4.34-5.23.45-7.56,4.86-7.56,4.86l4.67,4.49-9.95-.79s-13.17-10.11-18.92-5.91c-3.46-1.97-6.81-4.23-10.77-4.65-3.4-.09-6.23,2.59-6.32,5.99-.02.6.05,1.19.21,1.77h0l32.26,23.23,51.26,11.18s20.76-8.19,25.32-9.04c4.56-.86,20.93,6.26,21.34,4.07,3.43-18.33,11.33-31.61,11.33-31.61Z"/>
    </g>
    <path class="cls-27" d="M836.74,455.65c.15.93.29,1.87.21,2.82-.09.98-.44,1.87-.88,2.74-1.06,2.07-2.53,3.89-3.98,5.7-.32.4-.19.88.29,1.07s1.21,0,1.54-.41c1.59-1.98,3.2-4,4.34-6.29.46-.93.82-1.94.91-2.97s-.06-2.18-.24-3.24-2.34-.47-2.17.58h0Z"/>
    <path class="cls-27" d="M816.94,479.72c-3.16-3.01-7.09-4.33-11.3-5.08-2.22-.39-4.46-.66-6.69-1.05-2.44-.43-4.8-.89-6.76-2.5-3.53-2.88-6.94-5.95-10.36-8.96-3.07-2.7-6.73-5.87-11.05-5.97-3.81-.09-8.32,1.68-10.3,5.09-.09.16-.09.45.04.59,5.15,5.46,10.65,10.57,15.86,15.97,2.29,2.38,4.56,4.72,7.2,6.72,2.63,1.99,5.5,3.62,8.5,4.98.88.4,2.51-.87,1.26-1.43-2.92-1.32-5.69-2.95-8.24-4.9-2.71-2.07-4.99-4.53-7.36-6.97-5.02-5.16-10.28-10.08-15.22-15.32l.04.59c1.58-2.71,5.62-4.2,8.65-3.67,4.18.74,7.6,4.39,10.66,7.06,2.96,2.58,5.87,5.32,8.97,7.72,3.14,2.43,7.75,2.63,11.54,3.2,4.56.68,9.14,1.6,12.59,4.89.69.66,2.74-.23,1.99-.95h0Z"/>
    <path class="cls-27" d="M771.93,479.23c-6.48-8.18-14.63-15.36-24.07-19.93-2.04-.99-4.06-1.82-6.36-1.59-2.05.21-4.31.98-5.72,2.55-.37.41-1,1.25-1.04,1.82-.04.54.51,1.08.83,1.46,1.54,1.84,3.27,3.54,4.91,5.3,4.7,5.03,9.39,10.06,14.09,15.1.45.49,2.51-.29,2.03-.8-3.63-3.89-7.27-7.79-10.9-11.68-1.84-1.98-3.69-3.95-5.53-5.93-.61-.65-1.22-1.3-1.83-1.96-.4-.43-1.22-1.1-1.36-1.68s.54-1.38.95-1.78c.84-.82,1.96-1.22,3.11-1.33,2.15-.21,4.35,1.1,6.2,2.05,4.19,2.16,8.1,4.87,11.71,7.9,4.03,3.39,7.69,7.19,10.96,11.32.4.5,2.49-.23,2.03-.8h0Z"/>
    <path class="cls-27" d="M792.05,444.66c-2.55,2.5-4.62,5.46-6.07,8.73-.15.33.74.18.86.16.32-.06,1.12-.2,1.28-.56,1.41-3.19,3.4-6.09,5.89-8.53.34-.33-.3-.32-.5-.3-.44.04-1.12.17-1.46.5h0Z"/>
    <path class="cls-32" d="M997.36,516.39c-5.85-6.8-6.21-6.26-11.65-13.39l-102.31-33.72c-3.17-1.58-20.84-9.62-36.17-16.16-5.25,16.7-5.81,28.92-19.4,39.47,13.65,10.36,34.13,25.86,37.39,28.06,20.81,14.03,74.41,47.87,87.25,52.93,58.06,22.89,77.69,8.44,94.51-6.57,11.78-10.51,7.89-39.69-2.27-68.49,0,0-38.59,28.04-47.35,17.86Z"/>
    <path class="cls-32" d="M977.49,501.92c-7.53,19.66-10.12,23.95-10.12,23.95l72.86-8.11,29.52-64.28,5.91-126.33-1.44-12.56s-52.97,39.47-66.81,52.86l-29.91,134.47Z"/>
    <path class="cls-36" d="M976.33,502.19c6.62,4,11.72,10.26,15.69,16.8,4.17,6.87,7.33,14.55,8.66,22.5.65,3.91.84,7.94.14,11.86-.03.15,2.06.04,2.17-.58,1.33-7.36-.35-15.1-2.87-22.02-2.82-7.73-7.01-15.11-12.46-21.29-2.71-3.07-5.77-5.86-9.28-7.98-.51-.31-2.26.59-2.05.71h0Z"/>
    <path class="cls-24" d="M877.79,706.03c-.06.03-.13.05-.2.06,0-.17,0-.35,0-.52.07.16.14.31.21.46Z"/>
    <path class="cls-8" d="M1276.1,610.69s37.24,89.7-2.45,164.86c-18.91,35.79-75.49,35.76-75.49,35.76l-58.04-72.99v-120.71s135.98-6.92,135.98-6.92Z"/>
    <path class="cls-32" d="M1042.3,535.8c-1.18-7.86-1.99-16.35-4.07-24.02-4.03-14.8-19.29-22.95-32.02-29.22-3.09-1.52,5.4-2.55,2.24-3.87.14-11.21-6.39-24.46-6.3-35.67.15-18.05-1.61-43.13.14-61.13,1.65-17,7.92-28.44,21.31-40.3,5.61-4.97,18.01-14.29,24.55-17.83l9.1-5.18c.74-.21,11.82-5.92,12.58-6.08,1.63-.34,2.79-.3,3.49-1.3l8.16-3.05,52.1-26.94,36.5,12.81s66.16,27.51,76.5,34.59c12.65,8.63-7.85,163.96-7.85,163.96,0,0,4.92,66.4,48.56,132.12.29.43,1.51,3.53,1.69,4.02.56,1.54-9.01,8.67-10.27,9.56-3.91,2.72-10.58,3.69-15,5.45-9.01,3.58-16.67,3.19-26.15,4.95-12.91,2.4-25.9,4.4-38.99,5.48-12.2,1.01-25.01-.79-37.04.87l-128.1,13.67s1.49-10.47,1.49-10.47c1.3-7.11-13.95-12.71-12.93-19.9,1.06-7.49,8.43-81.39,8.49-88.95.03-3.7,12.23-8.52,11.99-12.21-.03-.46-.08-.91-.15-1.36Z"/>
    <path class="cls-8" d="M889.91,726.83c2.93,80.3,15.44,227.3,29.41,309.27,0,0,60.07,24.01,134.93,0,0,0-36.62-164.72-3.31-263.14,29.33-86.67,207.35-93.29,184.75-101.14-35.58-12.37-263.88-39.36-307.98-24.84-29.24,9.63-39.74,26.62-37.79,79.86Z"/>
    <path class="cls-8" d="M1205.57,666.04s-115.47-14.12-221.26-14.79c-14.58,25.79-32.21,50.15-49.17,74.25-9.58,13.62-18.67,27.58-28.21,41.21.1.98.2,1.95.28,2.93.39.15.77,8.64,1.17,8.79,82.86,30.34,324.32,85.42,356.77-12.19,24.48-73.65-59.57-100.21-59.57-100.21Z"/>
    <path class="cls-8" d="M924.06,661.21s12.68.29,29.89,4.47c-1.61-8.21-1.47-14.04-1.47-14.04,2.05-1.53,4.19-3.09,6.43-4.67,9.35,4.57,18.27,10,26.75,16,9.87,6.97,19.17,14.73,27.82,23.15,8.34,8.11,16.07,16.88,22.9,26.28,1.93,2.66,29.69,5.39,31.45,8.16-.31.03-.05,15.98-.37,16.01,25.12,43.36-14.35,107.53-11.89,184.65,2.16,67.71,2.36,77.39,6.34,113.36-11.86,16.28-103.94,8.66-103.94,8.66-11.54-104.48-33.93-382.03-33.93-382.03Z"/>
    <line class="cls-29" x1="1075.99" y1="447.64" x2="1075.93" y2="449.07"/>
    <path class="cls-36" d="M1016.95,376.09c4.23,6.17,5.59,14.51,4.43,21.77-1.38,8.65-3.71,17.14-5.32,25.75-2.22,11.87-3.72,23.97-3.33,36.06.34,10.52,1.88,21.63,6.66,31.14,1.43,2.84,3.16,5.49,5.2,7.92,1.52,1.81,3.22,3.46,4.81,5.21,1.29,1.42,2.41,2.89,3.11,4.69.21.55.11,1.4.09,2.16-.4,11.45-.79,22.89-1.19,34.34-.36,10.3-.71,20.61-1.07,30.91,0,.17-.01.35-.02.52-.04,1.03,2.16.64,2.19-.22.3-8.83.61-17.66.91-26.49.43-12.4.86-24.79,1.28-37.19.04-1.2.13-2.42.13-3.62,0-1.27-.77-2.53-1.46-3.56-1.15-1.72-2.66-3.17-4.08-4.66-1.91-2.01-3.73-4.09-5.28-6.4-5.29-7.86-7.45-17.52-8.5-26.8-1.42-12.51-.39-25.2,1.58-37.59,1.53-9.59,3.83-19.02,5.76-28.53.82-4.05,1.4-8.06.97-12.21-.45-4.31-1.79-8.53-3.84-12.35-.32-.6-.65-1.2-1.04-1.76-.49-.71-2.58.06-2,.91h0Z"/>
    <path class="cls-17" d="M1171.76,227.69s-20.1,34.86-9.09,59.89c1.53,3.49,18.91,11.47,18.91,11.47l-19.26,9.62c-4.41,2.68-9.2,4.68-14.23,5.82-14.5,3.31-34.4,6.03-51.6,4.26-9.02-.93-21.44.45-28.24-5.55h0s15.95-7.05,16.67-11.48c.72-4.44-3.92-41.66-3.92-41.66"/>
    <path class="cls-37" d="M1084.52,291.03s8.01-2.9,13.51-3.53c5.5-.63,14.44,1.14,42.07-15.96,0,0-13.11,24.35-44.93,24.88,0,0-7.84-.13-10.43-.95l-.23-4.44Z"/>
    <path class="cls-17" d="M1082.44,128.66c-.11.17-.25.34-.4.51.13-.07.25-.14.38-.21l.02-.29ZM1068.13,130.89l-.02.25c.24-.16.47-.33.68-.49.02-.29-.66.25-.66.25ZM1163.13,248.47l2.09-4.74c5.51,9.46,16.97,3.72,18.94-8.68,4.07-5.86,10.9-26.1,6.48-33.09l-.52-1.01c-3.31-3.19-9.6-5.11-12.81-.62-1.11,1.99-.66,4.67-1.76,6.66-1.13,2.28-4.96,6.43-6.7,8.37,0,0-.74-12.15-.03-17.7.71-5.55-1.97-21.97-11.32-30.61,0,0,1.72-19.65-2.34-25.84l-1.56-.7c-.96-.07-1.62.18-2.58.11.02-.29.36-.56.4-1.15-1.64.47-2.9.09-4.18,0,.34-.27,1-.52,1.02-.81-1.3.2-2.56-.18-3.84-.27.34-.27,1.02-.81,1.04-1.1-1.64.47-2.56-.18-3.84-.27.34-.27.7-.84.72-1.13-1.32.5-2.58.11-3.86.02.34-.27.7-.83,1.04-1.11-1.64.47-2.56-.18-3.84-.27-.32-.02.68-.54.7-.84-.98.23-2.26.13-3.22.07.02-.29.68-.54.7-.83-1.96.45-2.88-.21-4.16-.3l1.04-1.11c-1.34.79-2.62.7-3.88.31.34-.27,1.02-.81,1.04-1.1-1.66.77-3.6.92-5.16.22.32.02,1.02-.81,1.04-1.11-1.68,1.06-2.94.68-4.54.56.34-.27.7-.83,1.38-1.38-2,1.04-4.28,1.47-6.14.45.32.02.7-.84.73-1.13-1.36,1.08,1.14-.21-.44-.62,0,0-3.76.91-3.74.62-1.34.79,3.73-4.74,2.13-4.85.36-.57-9.22-.11-8.53-.65-1.68,1.06-1.31.48-3.21.05,0,0-6.9,3.04-6.56,2.77-1.7,1.35-2.34.07-4.23-.36.34-.27,1.07,1.31,1.41,1.04-1.36,1.08-.84-.35-2.44-.47.02-.29-5.09-2.28-5.07-2.57-1.66.77-1.15.93-3.07.79.02-.29-1.43,3.15-1.09,2.88-1.36,1.08-1.23.12-2.81-.28l-1.66.98c-1.7,1.35.54.87-1.36.44.01-.2,7.15,1.43,7.47,1.07-1.27.71-2.77,1.36-4.25,1.52.02-.29.38-.86.41-1.15-1.37,1.08-3.35,1.83-5.24,1.4.32.02.68-.54.7-.83-1.7,1.35-3.69,2.1-5.54,1.08v-.05c-1.3.89-2.98,1.65-4.62,1.78.06-.88.72-1.13.72-1.13l-1.28-.09c-1.77,2.24-3.51,4.18-4.36,7.07,0,0-12.39,16.02-12.84,26.9-.45,10.88.2,29.54.18,34.26-.03,10.41-3.86,20.03-3.55,30.52.29,9.7,2.99,19.41,7.68,27.75,4.87,8.65,7.72,10.63,14.64,19.46,4.15,5.3,4.81,14.69,24.7,15.24,19.88.56,40.37-9.68,53.93-21.53"/>
    <path class="cls-18" d="M1169.97,241.33c2.81.52,4.97,2.78,5.15,5.68.09,1.37-.33,2.72-1.13,3.82-.1.13-1.17,1.23-1.19,1.19,0-.01.33-.16.14-.08-.07.03-.13.07-.2.1-.04.02-.09.04-.13.06-.24.12.27-.09.08-.03-.14.04-.27.1-.4.15-.25.09.04-.01.08-.02-.11.03-.23.06-.34.09.36-.1-.18.03-.29.05-.23.03.19-.01-.04,0-.12,0-.23.02-.35.02-.06,0-.41-.01-.57-.03-1.1-.12-2.09-.63-2.95-1.3-.44-.35-1.45,0-1.91.16-.19.07-1.3.52-.88.85,1.86,1.46,4.19,1.8,6.48,1.35,1.39-.27,2.89-.71,4.01-1.61,2.57-2.06,3.39-5.75,1.55-8.58-1.07-1.65-2.77-2.67-4.69-3.03-.68-.12-1.46.08-2.07.38-.23.11-1.04.66-.36.78h0Z"/>
    <path d="M1165.77,191.58l-.34,28.68,10.94-11.89s-7.54-12.03-10.6-16.79Z"/>
    <g>
      <path class="cls-4" d="M1081.02,235.12c2.27,1.4,5.89,1.37,8.37.07.55-.29,2.28.15,1.51.56-3.28,1.71-8.45,1.52-11.38-.28-.29-.18-.22-.41.17-.5.4-.1,1.02-.03,1.33.16"/>
      <path class="cls-4" d="M1091.97,235.14c1.64-.63,3.44-.9,5.23-.91.26,0,.59.12.77.3.14.14.16.32-.04.42-.85.41-1.91.53-2.86.44-.3-.03-.69-.13-.85-.4-.14-.25.16-.38.4-.36.79.07,1.61-.03,2.31-.36.24.24.48.48.73.72-1.59,0-3.21.26-4.67.83-.29.11-.69,0-.93-.17-.18-.12-.36-.4-.07-.51"/>
      <path class="cls-4" d="M1098.99,235.86c2.08.1,4.58-.63,5.71-2.11,1.71-2.24.54-6.05-1.95-7.73-.27-.18-.11-.38.18-.42.38-.05.81.12,1.09.31,2.16,1.47,3.41,4.62,2.91,6.8-.46,2.03-2.55,3.33-5.08,3.75-.75.12-1.55.19-2.32.15-.31-.02-.87-.15-1.01-.4-.14-.26.16-.35.45-.33"/>
      <path class="cls-4" d="M1077.29,233.8c.13-.23-.07-.4-.23-.41-.56-.02-1.12-.22-1.57-.64-.2.21-.4.42-.6.63,1.11.2,2.21.65,3.17,1.39.19.15.48.08.67-.06.14-.1.3-.35.11-.5"/>
      <path class="cls-4" d="M1078.84,234.21c-1.07-.83-2.3-1.31-3.55-1.53-.18-.03-.43.05-.57.21-.12.13-.15.3-.02.42"/>
      <path class="cls-4" d="M1072.96,233.77c-1.35-.15-2.87-1.16-3.42-2.76-.83-2.42.3-5.14,2.09-6.51.19-.15.11-.37-.07-.44-.24-.1-.53.02-.74.18-1.56,1.2-2.66,3.26-2.6,5.47.06,2.07,1.25,3.6,2.82,4.31.47.21.97.37,1.47.42.2.02.58-.05.7-.28.12-.24-.06-.36-.25-.38"/>
    </g>
    <path d="M1075.2,200.02s-9.26-8.23-13.62-8.78c-6.37-.79-13.47,3.81-15.81,6.96,0,0,9.68-6.32,14.16-5.63,4.28.66,15.27,7.44,15.27,7.44Z"/>
    <path d="M1104.06,203.27s10.1-7.03,14.92-7.05c7.03-.04,15.14,5.31,17.33,8.72,0,0-10.74-7.36-15.69-7.2-4.73.15-16.56,5.53-16.56,5.53Z"/>
    <path d="M1070.97,182.19c0-1.32,0-2.63,0-3.94-9.67-1.1-16.94-.57-19.57.11-3.63.95-5.91,2.68-6.12,2.84-.25,1.05-.64,2.17-.39,3.14.11.43.28.82.46,1.21.48-.24.99-.47,1.59-.74.92-.42,3.28-1.47,6.07-1.96,2.66-.46,5-.1,9.58.63,2.17.35,5.04.88,8.39,1.7,0-1,0-2,0-3Z"/>
    <path d="M1105.14,178.87c0,1.31,0,2.62,0,3.94,0,1,0,2,.02,3,3.92-.83,7.27-1.36,9.8-1.71,5.35-.74,8.09-1.1,11.19-.64,3.26.48,6.03,1.53,7.1,1.95,1.51.59,2.53.96,3.74,1.71,2.63,1.64,3.7,3.48,4.13,3.32.39-.14-.25-1.76-.31-1.93-1.63-4.07-5.31-6.49-5.58-6.68,0,0-2.76-1.88-7.21-2.87-3.07-.68-11.57-1.21-22.87-.1"/>
    <path d="M1056.24,191.7c.36.06.71.17,1.03.36,1.24.7,1.6,2.01,1.67,2.32.41,1.69-.3,3.96-2.24,4.78-1.43.6-3.26.33-4.31-.92-.79-.93-1.25-2.43-.82-3.73,1.64-.78,3.16-1.79,4.67-2.8Z"/>
    <path d="M1112.27,198.98c.4-.19.81-.36,1.22-.55.86-.39,1.7-.85,2.36-1.53.01-.01.02-.03.03-.04.98.1,1.88.41,2.39.9.23.22.86.85,1.12,1.89.34,1.33-.24,2.8-1.1,3.67-1.15,1.17-2.99,1.3-4.37.59-1.83-.94-2.37-3.16-1.9-4.8.09-.04.17-.09.26-.13Z"/>
    <path class="cls-28" d="M1172.03,222.74c1.88-3.73,3.94-7.41,6.45-10.76,1.33-1.77,2.8-3.51,4.58-4.84.47-.35.92-.65,1.45-.9.08-.04.19-.09.41-.17-.13.05.36-.12.1-.04.21-.07.16.06.07-.02.16.14-.14-.25-.28-.07,0,0,.65,1.15.7,1.26,1.59,3.49,1.34,7.52.34,11.13-.1.37,1.32.17,1.44-.23.98-3.53,1.25-7.44-.15-10.89-.19-.48-.49-1.41-.94-1.75-.2-.16-.51-.11-.75-.07-2.97.42-5.47,3.19-7.25,5.35-3.06,3.71-5.44,7.96-7.6,12.24-.14.28,1.23.17,1.44-.23h0Z"/>
    <path class="cls-28" d="M1173.94,225.15c4.74-.06-1.85,11.56,2.45,11.31,1.1-.06,1.73-1.19,2.14-2.07.84-1.78,1.34-3.74,1.76-5.65.54-2.46.78-4.59.52-7.08-.29-2.86-1.11-6.51-3.99-7.84-.53-.25-1.82.48-1.13.81,2.43,1.13,3.2,4.09,3.55,6.52.26,1.83.33,3.65.01,5.48-.36,2.1-.82,4.22-1.54,6.24-.24.67-.5,1.35-.86,1.96-.09.16-.34.4-.38.56.05-.18-.22.67.04.12.18.03.24.01.17-.05-.03-.04-.06-.07-.09-.11.01-.26-.26-.71-.27-1.03-.02-.54.06-1.1.13-1.64.18-1.26.45-2.5.59-3.77.13-1.09.24-2.38-.26-3.4-.52-1.08-1.6-1.36-2.71-1.34-.8,0-1.13,1.01-.14,1h0Z"/>
    <path class="cls-30" d="M1055.48,149.9c8.98-16.54,29.54-24.6,70.33-26.64,40.79-2.04,71.34,15.01,71.34,15.01-14.67-59.27-73.56-61.56-86.66-62.5-13.1-.93-79.71,48.78-65.68,94.87l.76,4.61s8.27-22.36,9.91-25.36Z"/>
    <path class="cls-30" d="M1208.39,126.98s7.44-35.94-18.18-50.02c-34.23-18.8-81.99-29.43-101.96,6.61l120.14,43.4Z"/>
    <path class="cls-33" d="M1198.46,214.77c3.14-2.74,2.96-11.2,5.71-14.33,14.4-16.43,11.42-33.74,7.12-44.21-1.87-4.56,1.76-12.05,1.82-15.93.35-20.3-1.93-21.09-30.51-43.99-23.26-18.64-49.84-19.78-65.26-20.05-24.68-.44-35.63.32-45.48,17.14-1.28,2.19-.21,4.12-1.34,6.79-1.6,3.78-7.19,6.95-8.55,11.78,0,0,30.13,11.77,56.14,28.32,26.01,16.55,70.04,76.61,66.86,93.43-.1.53,10-15.92,13.48-18.95Z"/>
    <path class="cls-30" d="M1214.64,177.38s-42.3-60.56-93-64.67c0,0,65.54-3.84,90.99,45.09l.55,1.92c1.45,5.06,1.99,10.33,1.61,15.58l-.15,2.09Z"/>
    <path class="cls-30" d="M1069.79,100.8l3.53-1.04c8.21-2.41,16.73-3.63,25.28-3.6l14.34.04s-34.03-8.5-42.32-.32l-.83,4.92Z"/>
    <path class="cls-30" d="M1184.06,179.83s16.68,19.9,17.54,27.37l2.57-6.76s-4.46-13.72-20.11-20.61Z"/>
    <polygon class="cls-26" points="371.91 1198.6 345.2 1198.6 357.4 718.92 427.84 718.92 371.91 1198.6"/>
    <g>
      <path class="cls-16" d="M1649.84,694.83H333.28s1.18-51.61,1.18-51.61h1316.56"/>
      <polygon class="cls-26" points="357.48 741.74 1620.6 741.74 1629.77 693.5 348.3 693.5 357.48 741.74"/>
    </g>
    <path class="cls-32" d="M1210.35,502.87l3.79,38.12c-.39.42-1,.64-1.62.3-5.25-2.89-10.2-4.3-15.24-7.62l-142.28,29.77,2.77,50.79s115.29,25.24,181.71-4.49c1.51-.67,17.5-7.74,19.02-8.27,14.7-5.08,24.36-23.19,28.35-37.3,4.95-17.52,1.69-44.3-.92-61.98-5.16-35-4.89-70.12-10.55-105.05-2.7-16.68-2.03-24.82-8.88-40.28-9.62-21.69-16.53-31.47-41.67-37.91l-29.58-4.87"/>
    <path class="cls-36" d="M1043.97,637.41c.37,2.03.74,4.07,1.1,6.1.03.19.5.14.61.13,6.39-.63,12.77-1.29,19.16-1.95,14.46-1.51,28.91-3.07,43.36-4.73,15.82-1.81,31.63-3.7,47.4-5.9,19.44-2.71,38.75-6.25,57.67-11.55,17.98-5.04,35.99-11.4,52.14-20.91,1.63-.96,3.23-1.95,4.81-2.99.38-.25.24-.37-.12-.44-.43-.09-1.18.17-1.54.41-15.14,9.93-32.48,16.46-49.74,21.64-19.23,5.78-38.93,9.66-58.79,12.51-15.4,2.22-30.86,4.08-46.32,5.87-14.69,1.7-29.38,3.31-44.09,4.85-5.1.54-10.2,1.06-15.3,1.58-2.42.25-4.99.27-7.38.74-.1.02-.21.02-.32.03l.61.13c-.37-2.03-.74-4.07-1.1-6.1-.07-.41-2.27.07-2.17.58h0Z"/>
    <path class="cls-36" d="M1222.17,340.77c-4.49.93-8.23,3.93-11.18,7.32-3.72,4.27-6.47,9.39-8.61,14.6-3.24,7.88-5.63,16.73-5.54,25.31.05,4.52.43,9.04.81,13.55.56,6.64,1.24,13.27,1.96,19.89,1.79,16.5,3.82,32.97,5.92,49.43,1.96,15.37,3.99,30.73,6.06,46.09.71,5.24,1.42,10.47,2.14,15.7.23,1.66.46,3.33.69,4.99.12.84.15,1.75.36,2.58.03.11.03.23.05.34l.88-1.08c-3.9.87-7.76,1.94-11.61,3.02-11.01,3.08-21.92,6.55-32.74,10.25-17.12,5.85-34,12.35-50.74,19.2-16.68,6.83-33.72,12.77-50.88,18.28-9.27,2.97-18.59,5.73-27.94,8.47-.14.04-.29.08-.43.12-.52.14-.93.52-.88,1.08.57,6.27,1.15,12.55,1.72,18.82.1,1.05,2.27.51,2.17-.58-.57-6.27-1.15-12.55-1.72-18.82l-.88,1.08c7.77-2.15,15.48-4.52,23.17-6.93,16.64-5.23,33.16-10.88,49.41-17.24,9.17-3.59,18.24-7.42,27.42-10.96,8.19-3.16,16.42-6.2,24.7-9.1,11.6-4.06,23.3-7.87,35.11-11.26,3.31-.95,6.63-1.86,9.97-2.72,1.44-.37,2.93-.66,4.36-1.08.06-.02.13-.03.19-.04.5-.11.95-.54.88-1.08-.87-6.24-1.73-12.49-2.58-18.74-1.98-14.54-3.91-29.09-5.79-43.64-2.13-16.54-4.2-33.09-6.07-49.67-1.38-12.2-2.85-24.46-3.42-36.73-.28-5.97.4-11.74,1.84-17.57s3.58-11.64,6.47-16.96c2.42-4.44,5.48-8.84,9.63-11.83,1.66-1.2,3.5-2.08,5.51-2.5,1.37-.29.94-1.86-.42-1.58h0Z"/>
    <path class="cls-36" d="M1214.86,539.76c6.37.63,11.77,4.31,16.87,7.89,4.39,3.08,9.26,6.7,10.24,12.32.07.41,2.26-.07,2.17-.58-.99-5.67-5.94-9.36-10.36-12.47-5.18-3.63-10.67-7.34-17.13-7.98-.5-.05-1.07.05-1.52.29-.13.07-.78.48-.27.53h0Z"/>
    <path class="cls-17" d="M1042.77,604.12l2.14,17.11,1.9,17.22s-26.36,4.9-34.32,4.6-26.47-1.68-26.47-1.68c1.16,1.98,1.52,4.26,1.03,6.44-.76,2.46-2.61,4.53-5.11,5.7l-9.22-10.71c-1.79,5.34-7.29,1.76-7.29,1.76l-6.85-9.5c-1.88,6.7-9.14,2.21-9.14,2.21l-4.69-13.61c-1.7,2.38-3.9,4.43-6.49,6.03-3.38,1.72-5.05-3.68-5.05-3.68l11.33-22.39,34.96-11.97,58.42,13.16,4.86-.7Z"/>
    <path class="cls-37" d="M964.68,601.23c-2.91.98-5.68,2.24-8.45,3.56-2.83,1.35-5.61,2.82-8.2,4.59-2.03,1.39-4.99,3.17-5.44,5.81-.24,1.41,0,2.91.06,4.33.06,1.64.49,3.22,1.17,4.71.31.68,2.43-.01,2.17-.58-.59-1.31-1-2.67-1.13-4.1s-.33-3.07-.14-4.5,1-2.25,2.02-3.11c1.08-.92,2.22-1.77,3.4-2.55,4.69-3.08,10.05-5.6,15.36-7.38.3-.1.85-.43.6-.79s-1.14-.07-1.43.03h0Z"/>
    <path class="cls-37" d="M973.41,611.83c-2.8,1.14-5.67,2.09-8.48,3.19-2.95,1.16-6.31,2.29-8.71,4.43-1.13,1-1.61,2.48-1.94,3.93-.35,1.58-.63,3.13-.52,4.76.19,2.8,1.75,5.66,3.56,7.77.57.67,2.65-.15,2-.91-1.65-1.93-3.09-4.48-3.35-7.02-.16-1.59.14-3.08.46-4.63.34-1.62.87-2.94,2.25-3.92,1.2-.84,2.63-1.39,3.97-1.98,1.43-.63,2.89-1.21,4.35-1.77,2.44-.93,4.91-1.76,7.33-2.75.39-.16.82-.58.54-1.01s-1.1-.25-1.46-.1h0Z"/>
    <path class="cls-37" d="M985.92,626.65c-1.85.06-3.66.37-5.48.66-1.56.24-3.14.42-4.68.74-2.63.55-5.65,1.6-7.38,3.77s-1.81,4.74-.57,7.12c.7,1.35,1.8,2.46,2.95,3.43.53.45,1.27,1.14,2.02,1.17.48.02,1.2-.15,1.42-.63.21-.46-.18-.78-.63-.79.26,0,.31.15.11-.01-.14-.11-.31-.19-.46-.3-.5-.35-.96-.77-1.4-1.2-1.2-1.18-2.18-2.48-2.55-4.16-.32-1.45-.02-2.9.88-4.09s2.29-1.85,3.67-2.36c1.88-.68,3.89-.89,5.85-1.19s3.99-.67,6.01-.74c1.17-.04,1.73-1.47.24-1.42h0Z"/>
    <path class="cls-10" d="M1087.56,247.16c9.33,0,24.44-1.1,24.44-1.1,0,0-2.96,22.13-24.58,22.14-21.62,0-23.15-22.35-23.15-22.35,0,0,13.96,1.32,23.28,1.32Z"/>
    <path class="cls-31" d="M1086.83,247.14c4.43,0,22.31-.75,22.31-.75,0,0-6.26,14.33-22.29,14.33-17.39,0-19.78-14.12-19.78-14.12l19.76.55Z"/>
    <path class="cls-14" d="M1087.28,247.83c4.43,0,17.93-.75,17.93-.75,0,0-4.86,4.89-18.16,4.89-13.3,0-17.53-4.74-17.53-4.74l17.76.61Z"/>
    <path class="cls-10" d="M1063.41,245.31c.47-.12,1.78.12,3.98-.07,3.67-.32,5.97-1.29,8.63-1.5,4.54-.35,7.42,1.45,9.4,1.45,1.97,0,4.86-1.8,9.4-1.45,2.66.21,9.24,1.18,12.91,1.49,2.2.19,4.78-.67,5.26-.56.65.16-.62,5-25.43,5-24.81,0-24.8-4.21-24.14-4.37Z"/>
  </g>
</svg>