<?xml version="1.0" encoding="UTF-8"?>
<svg id="Layer_1" data-name="Layer 1" xmlns="http://www.w3.org/2000/svg" viewBox="0 0 1334 1000">
  <defs>
    <style>
      .cls-1 {
        fill: #a99231;
      }

      .cls-2 {
        fill: #622515;
      }

      .cls-3 {
        fill: #6b3926;
      }

      .cls-4 {
        fill: #271810;
      }

      .cls-5 {
        fill: #273339;
      }

      .cls-6 {
        fill: #5e5f5f;
      }

      .cls-7 {
        fill: #010101;
      }

      .cls-8 {
        fill: #1d3942;
      }

      .cls-9 {
        fill: #ababab;
      }

      .cls-10 {
        fill: #f1edf6;
      }

      .cls-11 {
        fill: #745245;
      }

      .cls-12 {
        fill: #643c2a;
      }

      .cls-13 {
        stroke: #4f2e25;
      }

      .cls-13, .cls-14, .cls-15 {
        fill: none;
        stroke-miterlimit: 10;
      }

      .cls-16 {
        fill: #a66e53;
      }

      .cls-17 {
        fill: #ce8d2a;
      }

      .cls-14 {
        stroke: #010101;
      }

      .cls-14, .cls-15 {
        stroke-width: .75px;
      }

      .cls-18 {
        fill: #fff;
      }

      .cls-19 {
        fill: #070505;
      }

      .cls-15 {
        stroke: #552d23;
      }

      .cls-20 {
        fill: #0d0b09;
      }

      .cls-21 {
        fill: #513835;
      }

      .cls-22 {
        fill: #ccb631;
      }

      .cls-23 {
        fill: #8e6528;
      }

      .cls-24 {
        fill: #b15e27;
      }

      .cls-25 {
        fill: #8f9699;
      }

      .cls-26 {
        fill: #f2ebd1;
      }

      .cls-27 {
        fill: #5d483b;
      }

      .cls-28 {
        fill: #706027;
      }

      .cls-29 {
        fill: #a53b23;
      }

      .cls-30 {
        fill: #a83123;
      }

      .cls-31 {
        fill: #de8b27;
      }

      .cls-32 {
        fill: #662117;
      }

      .cls-33 {
        fill: #4f2e25;
      }
    </style>
  </defs>
  <polyline class="cls-26" points="1688.05 1397.57 1688.05 -79.27 -314.46 -79.27 -314.46 1397.57"/>
  <path class="cls-27" d="M1558.91,905.08l-1.7-.65-3.01-119.77c-4.46-90.39-28.9-155.99-80.9-161.08-35.4,0-155.15-1.64-167.07,7.53-3.3-157.02,13.76-282.3-242.74-282.3l-282.75.68c-3.02,69.31-11.24,138.39-21.45,207-12.8,86.06,12.27,171.61-.84,257.62-6.59,43.23,50.32,86.77,44.74,130.14-5.69,44.18-11.44,88.36-17.03,132.55-8.5,67.21-16.65,134.51-23.66,201.93h807.19v-140.09c20.1-6.57,34.07-28.3,34.17-53.15v-99.92c-.06-38.29-16.28-63.28-44.95-80.52Z"/>
  <path class="cls-27" d="M806.15,1277.61c.79-19.68,1.55-39.36,2.15-59.05,1.39-45.29,47.86-90.57,47.86-135.88l-10.51-733.29-608.42-1.72c-131.74.02-153.66,125.27-156.96,282.3-11.92-9.17-131.67-7.53-167.07-7.53-52,5.09-76.44,70.69-80.9,161.08l-3.01,119.77-1.7.65c-28.67,17.24-44.89,42.23-44.95,80.52v99.92c.11,24.85,14.08,46.57,34.17,53.15v140.09h989.34Z"/>
  <path class="cls-20" d="M-162.83,903.72c.25,0,.5,0,.75,0h2.24c1.23,0,2.45,0,3.68-.01h5.09c2.15-.01,4.31-.02,6.46-.02h7.8c3.03-.02,6.06-.02,9.09-.03l10.35-.02c3.86,0,7.72-.01,11.58-.02l12.76-.02,13.85-.02c5.03,0,10.05-.02,15.08-.03l16.03-.03c5.71-.01,11.42-.02,17.13-.03,6.04-.01,12.09-.02,18.13-.03,6.37-.01,12.73-.02,19.1-.03,6.67-.01,13.35-.02,20.02-.04,6.97-.01,13.94-.02,20.91-.04,7.25-.01,14.51-.03,21.76-.04s15.05-.03,22.58-.04,15.57-.03,23.36-.04,16.06-.03,24.1-.04l24.8-.04c8.49-.02,16.98-.03,25.47-.05,8.7-.02,17.4-.03,26.1-.05l26.58-.05c9.12-.02,18.23-.03,27.35-.05,9.22-.02,18.43-.03,27.65-.05,9.41-.02,18.83-.03,28.24-.05,9.56-.02,19.12-.03,28.68-.05,9.7-.02,19.39-.03,29.09-.05,9.82-.02,19.64-.03,29.46-.05,9.93-.02,19.86-.04,29.79-.05s20.06-.04,30.09-.05l30.35-.05c10.19-.02,20.38-.04,30.57-.05l30.75-.05,30.9-.05c10.34-.02,20.67-.04,31.01-.05s20.72-.04,31.08-.05c10.33-.02,20.66-.04,30.99-.05,10.41-.02,20.83-.04,31.24-.06s20.63-.04,30.95-.05c10.38-.02,20.75-.04,31.13-.06l30.76-.05c10.25-.02,20.49-.04,30.74-.05,10.18-.02,20.37-.04,30.55-.05s20.22-.04,30.33-.05c10.02-.02,20.04-.04,30.07-.05,9.92-.02,19.85-.04,29.77-.05l29.43-.05c9.69-.02,19.37-.03,29.06-.05s19.1-.03,28.65-.05,18.8-.03,28.2-.05,18.48-.03,27.72-.05,18.06-.03,27.09-.05,17.83-.03,26.75-.05c8.65-.02,17.3-.03,25.94-.05s17.01-.03,25.52-.05l24.65-.04c8.01-.01,16.03-.03,24.04-.04l23.3-.04c7.51-.01,15.01-.03,22.52-.04,7.23-.01,14.47-.03,21.7-.04s13.9-.02,20.84-.04,13.3-.02,19.95-.04,12.68-.02,19.02-.03,12.04-.02,18.06-.03l17.05-.03c5.34,0,10.68-.02,16.01-.03,4.98,0,9.96-.02,14.94-.03l13.82-.02,12.62-.02,11.53-.02c3.41,0,6.81-.01,10.22-.02l9-.02h7.7c2.12-.02,4.24-.02,6.36-.02h4.98c1.19-.01,2.38-.01,3.57-.02h2.12c.21,0,.43,0,.64,0,.56,0,1.53-.85.56-.85-.25,0-.5,0-.75,0h-2.24c-1.23,0-2.45,0-3.68.01h-5.09c-2.15.01-4.31.02-6.46.02h-7.8c-3.03.02-6.06.02-9.09.03l-10.35.02c-3.86,0-7.72.01-11.58.02l-12.76.02-13.85.02c-5.03,0-10.05.02-15.08.03l-16.03.03c-5.71.01-11.42.02-17.13.03-6.04.01-12.09.02-18.13.03-6.37.01-12.73.02-19.1.03-6.67.01-13.35.02-20.02.04-6.97.01-13.94.02-20.91.04s-14.51.03-21.76.04c-7.53.01-15.05.03-22.58.04s-15.57.03-23.36.04-16.06.03-24.1.04l-24.8.04c-8.49.02-16.98.03-25.47.05-8.7.02-17.4.03-26.1.05-8.86.02-17.72.03-26.58.05-9.12.02-18.23.03-27.35.05s-18.43.03-27.65.05c-9.41.02-18.83.03-28.24.05-9.56.02-19.12.03-28.68.05-9.7.02-19.39.03-29.09.05-9.82.02-19.64.03-29.46.05l-29.79.05c-10.03.02-20.06.04-30.09.05-10.12.02-20.23.04-30.35.05l-30.57.05-30.75.05c-10.3.02-20.6.04-30.9.05-10.34.02-20.67.04-31.01.05s-20.72.04-31.08.05c-10.33.02-20.66.04-30.99.05-10.41.02-20.83.04-31.24.06s-20.63.04-30.95.05c-10.38.02-20.75.04-31.13.06-10.25.02-20.51.04-30.76.05s-20.49.04-30.74.05c-10.18.02-20.37.04-30.55.05s-20.22.04-30.33.05c-10.02.02-20.04.04-30.07.05-9.92.02-19.85.04-29.77.05l-29.43.05c-9.69.02-19.37.03-29.06.05s-19.1.03-28.65.05-18.8.03-28.2.05-18.48.03-27.72.05c-9.03.02-18.06.03-27.09.05s-17.83.03-26.75.05c-8.65.02-17.3.03-25.94.05s-17.01.03-25.52.05l-24.65.04c-8.01.01-16.03.03-24.04.04l-23.3.04c-7.51.01-15.01.03-22.52.04s-14.47.03-21.7.04l-20.84.04c-6.65.01-13.3.02-19.95.04s-12.68.02-19.02.03-12.04.02-18.06.03l-17.05.03c-5.34,0-10.68.02-16.01.03-4.98,0-9.96.02-14.94.03l-13.82.02-12.62.02-11.53.02c-3.41,0-6.81.01-10.22.02l-9,.02h-7.7c-2.12.02-4.24.02-6.36.02h-4.98c-1.19.01-2.38.01-3.57.02h-2.12c-.21,0-.43,0-.64,0-.56,0-1.53.85-.56.85h0Z"/>
  <path class="cls-20" d="M1304.97,634.79c-11.37,15.11-22,31.23-29.77,48.51-4.13,9.18-6.88,18.77-8.43,28.72-1.67,10.79-2.14,21.72-2.57,32.62-.59,14.86-.97,29.73-1.33,44.59-.43,17.54-.79,35.07-1.14,52.61-.31,15.43-.6,30.86-.94,46.29-.03,1.55-.07,3.1-.1,4.65,0,.3,1.44.08,1.45-.39.33-14.79.62-29.58.91-44.37.35-17.41.7-34.83,1.11-52.24.36-15.44.74-30.89,1.3-46.33.73-20.18,1.2-40.94,8.52-60.03,3.39-8.83,7.85-17.24,12.64-25.38,4.92-8.35,10.29-16.44,15.97-24.29,1.22-1.69,2.46-3.37,3.71-5.04.32-.42-1.09-.25-1.32.06h0Z"/>
  <path class="cls-20" d="M1368.64,634.79c-11.37,15.11-22,31.23-29.77,48.51-4.13,9.18-6.88,18.77-8.43,28.72-1.67,10.79-2.14,21.72-2.58,32.62-.59,14.86-.97,29.73-1.33,44.59-.43,17.54-.79,35.07-1.14,52.61-.31,15.43-.6,30.86-.94,46.29-.03,1.55-.07,3.1-.1,4.65,0,.29,1.44.08,1.45-.39.33-14.79.62-29.58.91-44.37.35-17.41.7-34.83,1.11-52.24.36-15.44.74-30.89,1.3-46.33.73-20.18,1.2-40.94,8.52-60.03,3.39-8.83,7.85-17.24,12.64-25.38,4.92-8.35,10.29-16.44,15.96-24.29,1.22-1.69,2.46-3.37,3.71-5.04.31-.42-1.09-.24-1.32.07h0Z"/>
  <path class="cls-20" d="M96.97,629.18c10,16.11,19.18,33.17,25.35,51.14,3.29,9.59,5.13,19.46,5.74,29.58.66,10.94.12,21.9-.43,32.83-.75,14.91-1.7,29.81-2.68,44.71-1.13,17.26-2.31,34.53-3.51,51.78-1.06,15.32-2.14,30.64-3.18,45.96-.1,1.5-.2,3-.3,4.5-.05.7,1.42.46,1.46-.14.99-14.82,2.03-29.64,3.06-44.46,1.21-17.44,2.42-34.87,3.57-52.31,1.02-15.38,2.01-30.77,2.83-46.17,1.08-20.33,2.43-41.22-3.31-61.02-2.64-9.11-6.36-17.9-10.45-26.44-4.12-8.62-8.68-17.03-13.57-25.24-1.07-1.79-2.15-3.57-3.25-5.35-.31-.5-1.7.01-1.33.61h0Z"/>
  <path class="cls-20" d="M19.36,637.44c11.39,15.15,22.07,31.31,29.82,48.66,4.11,9.22,6.82,18.85,8.34,28.83,1.64,10.78,2.09,21.7,2.51,32.58.58,14.89.96,29.78,1.32,44.67.42,17.42.78,34.84,1.13,52.25.31,15.35.6,30.71.93,46.06.03,1.5.07,3.01.1,4.51.02.76,1.48.55,1.47-.11-.34-14.91-.62-29.82-.92-44.73-.35-17.48-.7-34.95-1.11-52.43-.36-15.44-.75-30.89-1.31-46.33-.73-20.19-1.26-40.96-8.65-60.04-3.39-8.75-7.81-17.09-12.57-25.16-4.91-8.32-10.25-16.39-15.91-24.22-1.26-1.74-2.53-3.47-3.83-5.19-.4-.53-1.78.04-1.33.64h0Z"/>
  <path class="cls-16" d="M745.75,469.48l-14.23-17.96s-29.93-10.49-40.85-20.4c-7.62-7.46-14.16-15.94-19.45-25.2l-25.22-22.09s-16.19-3.28-15.54-8.42c.65-5.14,7.04-5.51,13.23-5.86,6.2-.36,88.91,23.73,88.91,23.73-4.14-7.9-8.96-15.44-14.39-22.52-8.42-10.82-6.57-20.68.91-20.25,4.61.26,20.08,12.85,20.68,20.77.6,7.92,17.5,15.08,24.47,27.18,6.97,12.1,2.96,30.7,2.96,30.7,2.87,6.87,8.96,15.61,8.96,15.61-5.44,12.33-30.44,24.7-30.44,24.7Z"/>
  <path class="cls-33" d="M652.15,388.21c-.17-.38.47-1.1.69-1.38.66-.81,1.59-1.44,2.55-1.84,1.68-.71,3.35-.5,5.09-.18,2.83.53,5.56,1.52,8.16,2.73,2.05.96,4.03,2.06,5.92,3.29.62.41,1.24.83,1.83,1.27.14.11.33.32.5.39.34.15,0,.29.23-.05l.96-.39c.48.02-.09-.16-.36-.35-.58-.4-1.14-.83-1.7-1.26-.38-.29-1.73.24-1.35.56,3.36,2.75,6.44,5.84,9.14,9.25,2.72,3.42,5.42,7.09,7.08,11.15.2.48,1.63.05,1.45-.39-1.63-3.99-4.27-7.6-6.91-10.98-2.77-3.54-5.94-6.74-9.41-9.59l-1.35.56c.56.43,2.81,2.71,3.7,1.56.52-.67-1.89-1.91-2.33-2.21-5.1-3.37-11.08-6.18-17.25-6.66-1.86-.14-3.8.45-5.37,1.45-.83.53-1.61,1.16-2.17,1.98-.21.31-.75,1.04-.56,1.46.21.48,1.64.03,1.45-.39h0Z"/>
  <path class="cls-33" d="M680,392.6c-.65,1.12-.71.19-.45.35.08.05.3.03.39.04.35.05.7.12,1.05.19,1,.21,1.99.48,2.98.75,1.93.53,3.85,1.1,5.76,1.69,2.03.63,4.03,1.33,6.02,2.07,1.53.57,3.05,1.16,4.54,1.83.51.23,1.02.46,1.5.73.17.1.35.19.5.31.17.13.11.17.13.01-.09.72,1.38.53,1.47-.12.14-1.07-3.06-2.03-3.72-2.31-2.72-1.15-5.51-2.17-8.31-3.08-3.15-1.02-6.34-1.99-9.56-2.74-.9-.21-3.04-.98-3.67.12-.4.69,1.07.7,1.38.16h0Z"/>
  <path class="cls-33" d="M711.28,415.35c.45.2.1.31.28.01.1-.16.16-.43.24-.61.29-.64.66-1.24,1.06-1.81,1.34-1.92,3.06-3.57,4.98-4.89,2.43-1.68,5.25-2.83,8.18-3.26.97-.14,1.97-.23,2.96-.17.31.02.63.04.93.1.42.09.24.18.26-.13-.05.73,1.42.52,1.47-.12.07-.94-2.1-.89-2.64-.9-2.38-.05-4.78.42-7.01,1.22-4.45,1.6-8.54,4.69-11,8.77-.32.54-1.52,2.31-.54,2.75.59.26,1.68-.59.84-.96h0Z"/>
  <path class="cls-22" d="M923.98,543.97l-53.45,24.02-98.67-134.43c-5.98,10.93-16.33,26.65-45.66,37.22,0,0,65.52,135.2,74.76,150.8,32.68,55.19,77.43,66.16,114.76,37.56,12.48-9.56,44.5-70.78,44.42-85.71-.02-3.41-36.85-29.59-36.17-29.46Z"/>
  <path class="cls-6" d="M1136.25,159.79c-5.73-8.22-14.71-13.75-24.29-11.24.55-18.68-17.46-29.82-36.14-30.48-9.6.09-19.49,4.35-28.52,1.11-5.63-2.01-9.87-6.47-14.67-10.2-20.11-15.13-51.98,2.04-69.27,20.35-17.28,18.31-13.18,38.91-4.59,62.55,3.99,11,3.29,16.96,4.45,28.68,1.09,11.06,7.63,31.65,7.68,42.63.04,10.98-17.19,22.34-6.11,23.29l120.7-13.35c17.9,3.66,29.38-1.68,38.66-17.41,6.05-10.69,4.06-11.19,4.94-23.42,1.54-15.98,17.88-27.89,17.04-43.93-.22-10.07-4.64-20-9.88-28.6Z"/>
  <path class="cls-29" d="M1151.23,159.22s-41.55-20.97-95.39-15.39c-53.84,5.58-80.33,38.36-89.9,61.93-9.57,23.57.28,48.49.28,48.49,0,0-13.47,3.55-22.07-44.92-12.53-70.65,59.88-112.69,77.27-112.33,17.4.36,106.47-17,129.81,62.22Z"/>
  <path class="cls-16" d="M1107.82,278.07s-11.06,36.48,8.03,70.04c2.16,3.8,27.48,22.67,27.48,22.67l-38.93,12.13c-21.53,4.86-75.9,32.12-96.63,24.57l-11.94-33.17s22.87-11.06,23.96-16.1c1.09-5.03-2.62-43.21-2.62-43.21"/>
  <path class="cls-33" d="M1017.87,351.7s11.27-1.47,17.47-3.21c6.19-1.74,16.8-1.36,45.35-26.12,0,0-8.39,30.44-44.83,36.94,0,0-11.7,1.97-17.89.46l-.1-8.08Z"/>
  <path class="cls-16" d="M988.19,166.27c-.09.22-.22.44-.36.66.13-.11.27-.21.39-.31l-.03-.34ZM972.18,171.47l.03.28c.24-.23.48-.46.69-.69-.03-.34-.71.41-.71.41ZM1103.03,288.91l1.52-5.83c8.08,9.85,20.18,1.13,20.14-13.48,3.59-7.49,7.69-31.99,1.32-39.2l-.78-1.06c-4.39-3.05-11.97-4.09-14.83,1.66-.9,2.49.11,5.49-.79,7.97-.87,2.83-3.77-4.03-5.41-1.48,0,0-3.84-1.48-4.04-7.99-.21-6.51,11.03-54.99-1.3-63.17,0,0-19.03,7.24-24.83.88l-1.92-.52c-1.11.1-1.83.5-2.94.6-.03-.34.31-.71.25-1.4-1.8.85-3.31.64-4.8.77.34-.37,1.06-.78,1.02-1.12-1.45.47-2.97.26-4.46.4.34-.37,1.02-1.12.99-1.46-1.8.85-2.97.26-4.46.4.34-.38.65-1.09.62-1.43-1.43.81-2.94.61-4.43.74.34-.37.65-1.09.99-1.46-1.8.85-2.97.26-4.46.4-.37.03.68-.75.65-1.09-1.08.44-2.57.57-3.69.67-.03-.34.68-.75.65-1.09-2.17.88-3.34.3-4.83.43l.99-1.46c-1.39,1.15-2.88,1.29-4.39,1.08.34-.37,1.02-1.12.99-1.46-1.76,1.19-3.96,1.73-5.88,1.21.37-.03,1.02-1.12.99-1.46-1.74,1.53-3.25,1.32-5.11,1.49.34-.37.65-1.09,1.33-1.84-2.11,1.56-4.65,2.48-6.97,1.65.37-.03.65-1.09.62-1.43-1.37,1.5,1.27-.46-.62-.63,0,0-4.15,1.75-4.18,1.4-1.39,1.16,3.4-6.13,1.55-5.97.31-.72-10.6,1.58-9.92.83-1.74,1.53-1.42.79-3.68.65,0,0-7.36,4.77-7.02,4.39-1.7,1.87-2.67.51-4.93.37.34-.37,1.47,1.31,1.81.94-1.37,1.5-1.03-.25-2.88-.09-.03-.34-6.27-1.68-6.3-2.02-1.77,1.19-1.15,1.28-3.38,1.48-.03-.34-1.06,3.88-.72,3.51-1.37,1.5-1.39.37-3.28.19l-1.73,1.43c-1.71,1.87.78.9-1.48.76-.02-.24,8.48.32,8.78-.16-1.33,1.05-2.93,2.07-4.6,2.54-.03-.34.28-1.06.25-1.4-1.37,1.5-3.5,2.72-5.76,2.57.37-.03.68-.75.65-1.09-1.71,1.87-3.84,3.09-6.17,2.27v-.06c-1.34,1.26-3.13,2.45-4.99,2.91-.09-1.02.62-1.43.62-1.43l-1.49.13c-1.61,2.89-6.47,1.49-6.91,4.96,0,0-8.06,24.65-6.56,37.23,1.49,12.58,5.69,33.89,6.55,39.31.74,4.7.98,12.18.84,17.14-.31,11.11-.1,14.02,3.61,24.82,3.59,10.44,6.76,15.92,13.66,24.58,7.19,9.03,13.04,12.75,19.76,22.57,6.65,9.71,14.57,9.99,22.85,9.64,23.12-.96,50.98-18.63,64.36-34.75"/>
  <g>
    <path class="cls-7" d="M1006.27,288.78c2.86,1.18,7.01.48,9.62-1.47.58-.43,2.65-.25,1.84.36-3.45,2.57-9.42,3.31-13.12,1.78-.37-.15-.33-.43.1-.61.44-.19,1.17-.23,1.56-.06"/>
    <path class="cls-7" d="M1018.85,286.78c1.76-1.03,3.79-1.67,5.83-2.01.3-.05.7.03.94.21.19.14.24.34.03.49-.9.63-2.09.96-3.21,1.04-.35.03-.82-.02-1.05-.3-.21-.26.11-.47.39-.49.92-.06,1.84-.33,2.59-.85.32.23.64.46.97.7-1.83.3-3.63.89-5.21,1.82-.31.18-.79.13-1.1-.02-.23-.11-.49-.39-.18-.58"/>
    <path class="cls-7" d="M1027.05,286.31c2.41-.27,5.15-1.57,6.17-3.48,1.55-2.88-.5-7.05-3.67-8.52-.34-.16-.19-.42.13-.52.42-.13.95-.02,1.31.15,2.76,1.28,4.77,4.68,4.6,7.27-.16,2.42-2.31,4.29-5.14,5.24-.84.28-1.74.5-2.64.6-.36.04-1.03,0-1.23-.28-.21-.27.12-.43.46-.47"/>
    <path class="cls-7" d="M1001.74,287.96c.1-.29-.15-.45-.34-.43-.65.08-1.33-.05-1.92-.44-.19.28-.38.56-.57.83,1.32.03,2.66.33,3.89,1.01.25.13.57,0,.76-.19.14-.14.28-.46.04-.6"/>
    <path class="cls-7" d="M1003.6,288.14c-1.38-.75-2.88-1.08-4.35-1.1-.22,0-.48.13-.62.35-.11.17-.12.37.06.49"/>
    <path class="cls-7" d="M996.77,288.73c-1.57.08-3.51-.8-4.44-2.54-1.41-2.62-.61-5.95,1.19-7.87.2-.21.06-.44-.16-.49-.29-.07-.61.12-.81.34-1.57,1.67-2.46,4.23-1.97,6.76.45,2.37,2.1,3.9,4.04,4.43.58.16,1.18.24,1.77.21.24-.01.66-.16.75-.45.09-.3-.14-.4-.36-.39"/>
  </g>
  <path d="M976.73,243.55c-2.16-.88-4.74.22-5.98,1.54-.29.31-.82,1.22-1.1,2.61-.36,1.78.51,3.68,1.7,4.78,1.59,1.47,4.04,1.52,5.82.49,2.41-1.4,2.96-4.5,2.14-6.65-.15-.39-.84-2.05-2.58-2.76"/>
  <path d="M995.75,248.79s-10.74-7.01-15.92-7.06c-7.56-.08-16.42,4.89-18.74,8.85,0,0,11.66-7.29,16.98-7.08,5.09.2,17.67,5.3,17.67,5.3Z"/>
  <path d="M1039.31,238.77c1.97-1.25,5.31-1.25,6.77-.18.34.25,1.27.98,1.79,2.3.66,1.69.15,3.71-.83,5-1.31,1.72-3.71,2.21-5.64,1.51-2.62-.95-3.71-3.91-3.28-6.17.08-.41-.4-1.16,1.19-2.17"/>
  <path d="M1026.77,245.44s10.7-8.22,16.26-8.88c8.12-.96,18.25,2.94,21.23,6.6,0,0-13.43-5.88-19.13-5.05-5.45.79-18.36,7.33-18.36,7.33Z"/>
  <path class="cls-9" d="M992.31,221.48c0,1.52-.02,3.05-.03,4.58-.01,1.17-.02,2.33-.04,3.49-3.89-1-7.22-1.65-9.74-2.08-5.32-.91-8.04-1.35-11.13-.85-3.25.53-6.01,1.73-7.08,2.2-1.51.67-2.52,1.09-3.73,1.96-2.63,1.88-3.7,4.01-4.13,3.83-.39-.17.26-2.04.33-2.24,1.66-4.72,5.33-7.5,5.61-7.72,0,0,2.76-2.16,7.2-3.27,3.06-.77,11.52-1.3,22.76.09"/>
  <path class="cls-9" d="M1021.9,217.52c.25,1.5.5,3.01.76,4.52.2,1.15.39,2.3.59,3.44,4.02-1.65,7.5-2.87,10.13-3.72,5.57-1.81,8.42-2.71,11.82-2.74,3.57-.03,6.73.68,7.95.96,1.72.4,2.88.64,4.31,1.29,3.12,1.41,4.61,3.33,5.04,3.07.39-.24-.6-1.97-.7-2.15-2.52-4.37-6.9-6.49-7.24-6.66,0,0-3.31-1.66-8.24-2-3.41-.23-12.58.69-24.43,3.99"/>
  <path class="cls-14" d="M1108.25,258.06c7.75-19.64,13.61-19.92,13.61-19.92,0,0,4.06,4.4,2.34,13.46"/>
  <path class="cls-14" d="M1111.33,259.74c5.24-.66,1.46,9.26,2.97,11.53,1.51,2.27,3.27-3.92,3.73-11.34,0,0-.25-10-5.27-11.7"/>
  <path class="cls-9" d="M966.36,163.18c.16-.24-.07.1,0,0,3.19-4.58,5.19-9.46,8.57-13.9,3.32-4.35,6.57-8.29,10.12-12.45.21-.24,4.47-.4,4.68-.65.04-.05.18-.2.22-.26.11-.13.23-.26.34-.39.26-.3.53-.59.8-.89,20.11-9.01,44.5-10.51,66.59-3.97,42.9,12.7,67.39,57.78,54.69,100.68-1.09,3.68,1.15,8.09-2.42,10.19-3.57,2.1-4,1.08-7.43-1.25-3.27-2.54-5.91-5.8-7.71-9.54-9.47-17.58-12-45.69-8-65.26-2.33,3.71-18.85.04-22.48,2.49-14.39,9.66-33.88,5.83-43.54-8.55-1.47,2.19-3.12,4.25-4.92,6.16-16.53,17.54-38.23,26.18-56.56,14.08-.67-.44,5.06-13.61,7.05-16.52Z"/>
  <path class="cls-5" d="M1110.3,238.08l-.47-4.27-48.88-4.4h0c-16-4.86-37.4,1.33-49.32,10.63l-11.08,1.52.09-.18c-13.82-8.63-35.48-8.3-51.32.78l.6,1.73h0c.01.11.15.36.27.72l.54,1.5c3.33,9.61,7.12,19.76,10.07,22.26,1.98,1.69,8.05,2.07,13.02,2.06,1.88.01,3.59-.05,4.82-.09,1.48-.07,14.6-.68,16.6-2.94,2-2.25,4.4-18.01,5.04-22.97l11.36-1.5c1.78,3.67,6.15,19.74,12,22.58,5.85,2.84,34.25-.86,36.54-5.12,1.62-3.04,4.87-13.98,5.8-19.45l1.78-7.09,42.54,4.21ZM993.78,265.98c-2.22,2.18-28.31,3.69-31.75.79-2.9-2.47-7.65-16.18-9.43-21.33l-.02-.22c14.22-7.27,33.73-7.6,45.73-.34-1.28,8.59-3.28,19.65-4.54,21.05v.05ZM1056.71,259.5c-1.42,2.69-26.15,7.03-32.18,4.1-4.2-2.03-7.58-13.76-10.07-20.43,11.68-8.86,35.5-14.19,49.81-8.95-1.75,8.64-4.28,17.1-7.56,25.28h0Z"/>
  <path class="cls-2" d="M1133.59,239.37s40.51-29.59,24.92-61.16c-2.99-6.06-3.31-4.07-3.51-9.31-1.01-27.5,8.64-20.98-31.77-53.01-40.41-32.03-46.32-31.46-107.81-26.66-31.71,2.47-49.03,15.79-57.63,35.92-3.86,9.05-5.97,19.47-6.82,30.9,0,0,64.75-18.71,103.41,1.97,38.67,20.68,79.42,88.29,71.26,110.05-2.29,6.11,7.94-28.7,7.94-28.7Z"/>
  <path class="cls-29" d="M1158.52,209.18s-55.28-79.94-128.6-82.13c0,0,90.53-10,130.83,54.55l.62,7.6c.39,4.73-.04,9.49-1.27,14.08l-1.58,5.91Z"/>
  <path class="cls-12" d="M1015.52,300.78c11.72-1.32,30.58-4.77,30.58-4.77,0,0-.94,29.87-28.12,32.93-27.18,3.06-28.98-27.12-28.98-27.12,0,0,14.79.29,26.52-1.03Z"/>
  <path class="cls-19" d="M1015.41,300.79c5.57-.63,26.24-3.68,26.24-3.68,0,0-5.01,18.63-25.18,20.9-21.86,2.46-24.62-15.92-24.62-15.92l23.56-1.29Z"/>
  <path class="cls-10" d="M1015.26,301.62c5.57-.63,22.44-3.43,22.44-3.43,0,0-5.45,6.49-22.17,8.38-16.72,1.88-22.67-3.16-22.67-3.16l22.41-1.79Z"/>
  <path class="cls-12" d="M987.65,301.82c.58-.2,1.25.01,3.99-.52,4.57-.9,5.61-2.32,8.92-2.94,5.66-1.06,9.53.67,12.01.39,2.48-.28,5.86-2.83,11.62-3.05,3.37-.13,11.78.09,16.43-.05,2.79-.09,5.92-1.47,6.53-1.4.84.1-.1,6.03-31.29,9.54-31.19,3.51-29.01-1.68-28.21-1.96Z"/>
  <path class="cls-1" d="M1190.27,669.12s79.01,110.61,30.54,193.73c-33.32,49.25-186.61,44.86-186.61,44.86l23.53-86.03v-133.5s132.54-19.06,132.54-19.06Z"/>
  <path class="cls-1" d="M758.17,838.98c-.58-6.11,3.27,23.59,2.08,17.58-2.69-13.59,15.25,6.87,10.21-6.08-5.18-13.31-2.69-7.17-10.07-19.52,0,0-1.71-4.01-1.67-4.23,3.18-18.01,17.64-43.48,32.22-53.22,90.74-60.63,154.88-85.76,154.88-85.76,0,0,299.89,71.52,269.98,151.05-39.63,105.4-343.29,67.22-444.48,34.47-.48-.16-9.02,14-13.15-34.28Z"/>
  <path class="cls-22" d="M956.14,385.78s-21.93,10.46-34.37,25.5c-9.38,11.33-65.7,159.4-73.8,177.33,4.06,7.01-37.18,3.41-34.29,10.98,6.74,17.65,19.95,4.25,20.49,23.11.41,14.26,30.1,10.36,27.5,24.4,14.27-.58,33.53-7.62,40.85-14.94,7.91-7.91,27.82-31.74,27.82-31.74l25.79-214.64Z"/>
  <path class="cls-22" d="M1015.22,362.07l-59.09,23.71c-3.33,1.55-11.64,6.79-14.8,8.6-2.08,16.37-11.77,21.53-16.05,37.43-2.95,10.98-6.16,21.88-9.31,32.8-3.27,11.32-6.1,22.71-8.59,34.22-2.59,11.96-4.65,24.05-5.24,36.28-.5,10.42,1.47,20.2,4.92,30.02,3.22,9.17,10.26,17.08,12.55,26.55,2.21,9.14,2.06,34.45,2.06,34.45-.58,19.8-13.06,54.72-17.07,81.69-.25,1.67,27.98,26.89,27.2,28.38l48.84,8.28c22.95,2.48,15.14-48.59,46.96-29.81l32.71,13.59c26.61,1.3,50.15,22.43,98.78,44.18l77.75,33.76s5.3-29.77.57-56.2c-4.74-26.43-30.33-133.31-30.33-133.31,0,0,19.28-205.2,5.71-218.46-8.49-8.33-75.63-41.85-96.93-50.12,0,0-26.45,42.59-71.98,39.26-45.53-3.33-28.65-25.31-28.65-25.31Z"/>
  <path class="cls-28" d="M859.43,553.88c2.83,3.43,5.12,7.43,7.11,11.38,4.53,8.99,7.42,18.86,7.97,28.93.39,7.22-.51,14.45-2.54,21.38-.34,1.14,2.6.76,2.91-.32,5.86-19.98,1.3-41.54-10.02-58.73-.86-1.31-1.75-2.62-2.75-3.83-.7-.85-3.48.21-2.68,1.18h0Z"/>
  <path class="cls-1" d="M757.42,934.93c23.42,98.25,45.45,192.78,84.97,290.49,0,0,95.27,8.31,105.21-16.19,0,0-20.99-160.26,2.8-289.38,20.95-113.71,201.12-163.82,167.08-168.18-53.58-6.86-265.56,4.13-324.82,32.4-39.29,18.75-50.77,85.72-35.24,150.86Z"/>
  <path class="cls-22" d="M1174.75,382.83s48.72-1.14,70.44,62.91c2.85,8.41,8.08,36.15,9.7,44.88,9.08,48.81,31.6,156.47,10.52,204.15-26.82,60.67-264.48,71.94-264.48,71.94l-24.24-59.57,201.2-94.85s3.79-75.95,4.72-107.44c.93-31.49-7.87-122.03-7.87-122.03Z"/>
  <path class="cls-28" d="M1170.77,418.04c-5.68,4.1-10.47,9.29-13.75,15.5-2.91,5.5-4.56,11.55-5.32,17.7-1.29,10.46.24,20.77,1.17,31.17,1.39,15.56,3.79,31,6.44,46.39,3,17.43,6.34,34.8,9.54,52.2,3.25,17.66,6.39,35.35,8.89,53.13.3,2.11.58,4.22.86,6.33l.75-.59c-1.98.67-3.96,1.34-5.93,2.01l-15.92,5.38c-7.7,2.6-15.4,5.21-23.1,7.81-9.15,3.09-18.3,6.19-27.45,9.28-9.67,3.27-19.33,6.54-29,9.81s-18.49,6.25-27.73,9.38c-7.88,2.67-15.76,5.33-23.64,8-5.58,1.89-11.16,3.78-16.75,5.66-2.34.79-4.69,1.59-7.03,2.38-.24.08.42-.13.17-.05-.38.11-.77.23-1.15.34l-5.33,1.57c-4.49,1.32-8.97,2.64-13.46,3.96l-2.6.77c-.3.09-1.04.28-1.05.68-.03,1.31-.06,2.61-.09,3.92,0,.38,2.28.07,2.3-.62.03-1.31.06-2.61.09-3.92l-1.05.68c7.17-2.11,14.33-4.22,21.5-6.33,1.91-.56,3.78-1.22,5.66-1.86l14.53-4.91c7.42-2.51,14.83-5.02,22.25-7.52,8.99-3.04,17.98-6.08,26.97-9.12,9.65-3.26,19.3-6.53,28.94-9.79s18.81-6.36,28.22-9.54c8.15-2.75,16.29-5.51,24.44-8.26,6.01-2.03,12.01-4.06,18.02-6.09,2.88-.97,5.76-1.92,8.63-2.92.12-.04.25-.08.37-.13.2-.07.79-.28.75-.59-2.29-17.48-5.27-34.86-8.42-52.2-3.16-17.4-6.51-34.77-9.59-52.18-2.78-15.69-5.41-31.44-7.09-47.29-.55-5.13-1.05-10.27-1.57-15.4-.55-5.45-.91-10.94-.68-16.42.54-12.97,4.79-25.57,14.5-34.55,1.42-1.32,2.93-2.53,4.5-3.67.39-.28.25-.44-.14-.53-.45-.11-1.25.17-1.62.43h0Z"/>
  <path class="cls-28" d="M1229.16,724.84c-8.21,2.64-16.47,5.14-24.74,7.59-17.43,5.17-34.95,10.06-52.61,14.37-10.01,2.44-20.06,4.7-30.21,6.48-.38.07-1.27.29-1.3.8s.61.6,1,.53c18.53-3.24,36.81-7.91,54.95-12.85,14.97-4.08,29.87-8.44,44.69-13.02,2.85-.88,5.7-1.77,8.54-2.68,1.35-.43,1.06-1.66-.33-1.21h0Z"/>
  <path class="cls-28" d="M1179.39,641.36c10.58.15,20.88,4.24,28.67,11.41.68.62,2.85-.28,2.12-.96-8.14-7.49-18.89-11.79-29.95-11.95-.5,0-1.28.15-1.5.67-.21.48.18.82.66.83h0Z"/>
  <path class="cls-1" d="M1030.36,898.96c1.44,3.99,1.59,15.29,10.68,56.82,17.78,81.29,4.25,190.98,17.68,233.44-13.13,22.68-160.37,33.91-160.37,33.91-22.61-71.58-44.74-237.56-72.39-330.54l204.4,6.37Z"/>
  <path class="cls-33" d="M975.45,205.18c17.34,1.88,35.03-.94,50.94-8.1.9-.41.1-1.18-.64-.85-15.55,7-32.84,9.73-49.79,7.9-.71-.08-1.48.94-.5,1.05h0Z"/>
  <path class="cls-28" d="M911.88,460.89c2.88,7.02,4.01,14.52,3.52,22.08-.48,7.44-2.33,14.71-4.58,21.79-4.65,14.62-11.06,28.86-13,44.2-.99,7.88-.68,15.91,1.35,23.61,2.43,9.22,7.19,17.66,13.08,25.11,1.74,2.19,3.57,4.31,5.48,6.36.27.29.71.62.91.96,2.01,3.42.14-.23.19-.1,0,.02-.01.05,0,.07.04.11-.04.28-.03.4.07,1.37-.23,2.87-.33,4.24-.45,5.67-.89,11.35-1.34,17.02-.84,10.68-1.68,21.35-2.52,32.03l-.05.58c-.1,1.21,2.24.91,2.33-.16.73-9.22,1.45-18.45,2.18-27.67.49-6.25.98-12.49,1.48-18.74.16-1.97.31-3.95.47-5.92.04-.53.1-1.06.13-1.6.04-.69-.12-.89-.7-1.5-7.08-7.46-13.29-15.98-17-25.63-2.94-7.63-4.17-15.76-3.76-23.91.79-15.63,7-30.22,11.96-44.86,4.74-14,8.52-28.96,4.4-43.61-.51-1.82-1.14-3.61-1.86-5.36-.43-1.05-2.71-.4-2.3.62h0Z"/>
  <path class="cls-21" d="M991.39,829.73c.07.03.15.05.23.06,0-.19,0-.38,0-.58-.08.17-.15.34-.23.51Z"/>
  <path class="cls-18" d="M848.13,666.46s-.15,66.46-.14,67.8c-1.06,22.65,90.68,22.99,90.58.22l.14-67.8-90.58-.22Z"/>
  <path class="cls-18" d="M850.27,686.1c-3.55-1.46-7.36-2.2-11.2-2.19-2.94-.26-5.84.84-7.86,2.99-1.12,1.8-1.71,3.88-1.67,6-.84,5.33.46,10.77,3.6,15.15,2.25,2.36,5.21,3.92,8.43,4.44,3.18.54,6.41.72,9.62.54.02,3.45.03,6.89.05,10.34-5.46.47-10.96-.3-16.08-2.25-5.19-2-9.46-5.83-12-10.78-2.11-5.61-2.74-11.66-1.82-17.58,0-3.15.84-6.24,2.42-8.96,2.62-3.05,6.31-4.97,10.31-5.37,5.41-.9,10.92-.92,16.33-.07"/>
  <path class="cls-25" d="M881.65,580.15c.94-.07,1.8-.58,2.31-1.38,1.02-1.14,1.01-2.86-.02-3.99-1.54-1.31-3.76-1.43-5.43-.3-1.96,1.49-2.86,4-2.29,6.39.65,2.8,2.06,5.37,4.07,7.43,2.36,2.37,4.28,5.13,5.68,8.17,1.33,3.57.59,7.57-1.93,10.43-2.49,2.89-5.62,4.67-7.93,7-1.12,1.1-1.88,2.51-2.19,4.05-.26,1.47-.02,2.98.69,4.29,1.47,2.47,3.53,4.54,5.99,6.03,2.23,1.38,4.24,3.08,5.96,5.06,2.41,3,3.7,6.74,3.64,10.59,0,1.02-.13,2.04-.36,3.04-.06.36-.18.7-.34,1.02.15-1.35.23-2.7.24-4.06-.13-3.68-1.48-7.22-3.83-10.05-1.74-1.85-3.72-3.46-5.89-4.78-2.64-1.55-4.84-3.73-6.41-6.35-.82-1.52-1.12-3.28-.83-4.99.34-1.76,1.2-3.38,2.46-4.65,2.45-2.61,5.55-4.36,7.86-7,2.26-2.53,2.93-6.11,1.72-9.29-1.33-2.91-3.14-5.57-5.37-7.87-2.13-2.22-3.59-4.98-4.24-7.99-.58-2.77.52-5.62,2.82-7.28,2-1.29,4.62-1.05,6.36.57.69.69,1.02,1.67.87,2.64-.11.78-.44,1.51-.94,2.12-.65.88-1.69,1.38-2.78,1.34-.37-.03-.72-.18-1-.41.05-.12.35.14,1.09.23Z"/>
  <path class="cls-25" d="M882.74,647.61c.12-2.38-.48-4.74-1.72-6.77-1.94-2.97-4.43-5.53-7.34-7.55-3.76-2.53-6.77-6.03-8.7-10.12-.94-2.26-1.02-4.78-.24-7.1.82-2.06,2.1-3.9,3.76-5.38,3-2.82,5.92-5.02,7.23-7.74,1.08-2.09,1.07-4.58-.03-6.66-.47-.72-1.07-1.36-1.75-1.89.02-.05.26.02.67.25.59.34,1.09.82,1.47,1.39,1.35,2.21,1.48,4.96.33,7.28-1.31,3-4.36,5.4-7.2,8.15-1.51,1.37-2.69,3.08-3.44,4.98-.67,2.06-.57,4.29.26,6.29,1.89,3.91,4.78,7.25,8.37,9.69,2.98,2.15,5.49,4.88,7.39,8.02,1.24,2.19,1.74,4.72,1.42,7.21-.12.66-.32,1.31-.59,1.93-.23.42-.39.58-.39.58-.12-.05.37-.88.5-2.55Z"/>
  <path class="cls-16" d="M982.05,709.9l-5.53,2.32-67.52-9.88-39.97,15.87-12.71,28.37s1.99,6.75,5.85,4.5c2.94-2.07,5.45-4.7,7.36-7.73l5.56,16.97s8.4,5.47,10.47-2.99l7.99,11.76s6.36,4.36,8.34-2.39l10.72,13.22c2.86-1.54,4.95-4.17,5.79-7.28.54-2.75.09-5.6-1.26-8.06,0,0,21.46-2.2,30.6-2.02,9.14.18,36.91-10.35,36.91-10.35l8.09-6.49c-6.61-14.22-10.69-35.83-10.69-35.83Z"/>
  <path class="cls-33" d="M894.11,713.71c-3.72,1.45-7.24,3.29-10.73,5.22-3.39,1.87-6.73,3.89-9.76,6.3-2.48,1.97-5.73,4.29-6.09,7.7-.19,1.86.08,3.83.19,5.68.13,2.09.66,4.11,1.49,6.03.2.47,1.62.02,1.45-.39-1.45-3.36-1.75-7.12-1.71-10.76.05-3.81,3.41-6.2,6.17-8.35,2.97-2.32,6.24-4.26,9.54-6.06,3.26-1.78,6.54-3.49,10.01-4.84.95-.37.08-.78-.56-.53h0Z"/>
  <path class="cls-33" d="M903.57,728.9c-2.92,1.37-5.94,2.54-8.89,3.85-1.76.78-3.51,1.61-5.22,2.49-1.55.8-3.13,1.55-4.48,2.66s-2.02,2.19-2.53,3.86-.88,3.65-.97,5.47c-.08,1.7.02,3.57.57,5.2.57,1.67,1.58,3.29,2.51,4.78.26.41,1.67-.06,1.34-.57-.9-1.43-1.87-2.99-2.41-4.6-.55-1.62-.67-3.51-.56-5.21.1-1.6.41-3.27.83-4.82.54-1.98,1.51-3.35,3.22-4.5,2.83-1.89,6.15-3.25,9.26-4.6,2.62-1.14,5.29-2.19,7.88-3.41.91-.43.08-.91-.57-.6h0Z"/>
  <path class="cls-33" d="M912.97,747.17c-3.27.62-6.77,1.01-9.9,2.17-2.62.97-5.18,2.38-6.51,4.95-1.4,2.7-.93,5.83.68,8.34.84,1.3,1.97,2.5,3.17,3.48.47.39,1.07.94,1.72.93.45,0,1.57-.68.6-.67.36,0,.07-.05-.15-.18-.35-.21-.67-.48-.98-.74-.95-.81-1.85-1.74-2.59-2.74-1.66-2.24-2.4-5.24-1.36-7.89,1.75-4.48,6.87-5.45,11.07-6.25,1.33-.25,2.67-.51,4-.76.19-.04.82-.16.84-.43s-.42-.24-.6-.2h0Z"/>
  <path class="cls-33" d="M731.75,451.69c2.73.14,5.53.25,8.14-.69,1.91-.68,3.57-1.86,5.07-3.22,3.24-2.93,5.75-6.85,9.8-8.77.9-.43.09-1.1-.62-.76-3.63,1.72-6.13,4.88-8.87,7.7-1.39,1.43-2.89,2.83-4.69,3.73-2.59,1.3-5.49,1.18-8.31,1.03-.65-.03-1.5.92-.52.97h0Z"/>
  <path class="cls-21" d="M560.95,781.6c.07.03.15.06.23.06,0-.2,0-.39,0-.59-.08.17-.15.35-.23.52Z"/>
  <path class="cls-11" d="M736.53,434.97c.1-.02.2-.03.3-.05-.1-.05-.2-.09-.3-.14-.04.06-.04.13,0,.19Z"/>
  <path class="cls-11" d="M792.24,442.4c-.11-.07-.21-.13-.32-.2-.03.06-.06.12-.09.17.14,0,.27.02.41.03Z"/>
  <path class="cls-11" d="M737.45,434.98c.13.01.27.02.4.03-.12-.14-.26-.15-.4-.03Z"/>
  <path class="cls-16" d="M580.97,524.53l22.63-3.72s15.26-9.1,21.18-10.47c5.92-1.36,30.07-.24,31.16.2,1.09.44,28.69-11.97,32.3-7.56,3.6,4.4,3.84,9.93-2.32,14.48-6.16,4.55-25.42,7.41-24.5,11.54.93,3.12,2.46,6.03,4.5,8.57,0,0,6.89-5.4,12.26-4.33,5.37,1.07,6.33,8.11,6.33,8.11l-2.38,2.87,6.33-.08s15.2-9.63,20.68-4.61c3.81-1.64,7.91-2.48,12.05-2.47,3.53.29,6.16,3.39,5.86,6.93-.05.62-.19,1.23-.42,1.81h0l-36.08,20.36-54.37,5.7s-20.96-9.01-25.59-10.42l-13.39,3.03-16.22-39.93Z"/>
  <path class="cls-33" d="M630.25,556.36c2.34-3.31,5.88-5.35,9.7-6.52s7.91-1.36,11.94-1.99c2.09-.33,3.63-1.28,5.14-2.73,1.82-1.74,3.64-3.47,5.54-5.12,3.3-2.88,7.41-7.17,12.16-6.93,4.26.21,8.09,3.54,8.97,7.68l.3-.5c-5.39,3.4-9.01,8.69-12.88,13.62-3.91,4.99-8.82,10.25-15.44,11.14-.81.11-1.31,1.13-.2.98,14.31-1.92,18.52-18.24,29.53-25.18.16-.1.34-.28.3-.5-.81-3.79-3.86-6.73-7.52-7.82-4.34-1.29-8.35.58-11.76,3.22-2.13,1.65-4.19,3.41-6.19,5.21-.94.85-1.87,1.71-2.79,2.58-1.06,1.02-2.1,2.28-3.45,2.91-1.21.57-2.64.58-3.95.7-1.15.11-2.3.24-3.45.41-2.13.31-4.25.73-6.32,1.36-4.39,1.33-8.46,3.6-11.15,7.4-.45.64,1.18.56,1.51.08h0Z"/>
  <path class="cls-33" d="M674.91,554.24c5.6-5.14,11.36-10.48,18.46-13.46,3.58-1.5,7.45-2.39,11.35-2.17.89.05,1.98.08,2.79.5.71.37,1.15,1.05,1.56,1.72,1.12,1.82,2.03,3.76,2.81,5.74l.31-.44c-3.97,2.61-8.63,3.85-12.57,6.47-2.22,1.47-4.22,3.26-6.41,4.78-2.35,1.65-4.79,3.17-7.28,4.6-.94.54.48.74.99.45,2.43-1.38,4.79-2.87,7.09-4.46s4.32-3.4,6.6-4.92c1.84-1.23,3.89-2.07,5.91-2.95,2.31-1.01,4.55-2.13,6.66-3.52.12-.08.38-.25.31-.44-.81-2.05-1.76-4.05-2.92-5.93-1.03-1.67-2.23-2.21-4.15-2.4-3.93-.39-7.89.26-11.6,1.55-8.27,2.87-14.85,8.82-21.19,14.64-.68.62.91.58,1.29.24h0Z"/>
  <path class="cls-33" d="M608.97,539.08c-3.02-1.93-3.86-6-3.91-9.33-.03-1.62-.1-3.26.12-4.87.2-1.48.58-3.2,1.75-4.23.27-.24.15-.48-.15-.58-.35-.11-.87.07-1.14.31-2.57,2.26-2.22,6.45-2.19,9.53.04,3.64.96,7.85,4.25,9.95.45.29,1.93-.37,1.28-.78h0Z"/>
  <path class="cls-33" d="M660.95,528.89c-.94-3.25-3.05-6.11-5.88-7.96-.31-.2-.74-.13-1.06,0-.12.05-.74.41-.44.6,2.78,1.82,4.85,4.59,5.77,7.78.15.52,1.76.08,1.61-.43h0Z"/>
  <path class="cls-8" d="M154.06,659.33s-82.75,105.86-45.72,194.3c17.64,42.11,81.22,47.77,81.22,47.77l72.55-76.17,12.14-135.62-120.2-30.28Z"/>
  <path class="cls-30" d="M389.83,588.45c.83-8.93,1.19-18.54,3.05-27.31,3.59-16.93,20.26-27.08,34.18-34.96,3.38-1.91-6.24-2.52-2.77-4.22-.88-12.61,5.63-27.96,4.8-40.58-1.33-20.32-3.88-48.94-7-69.09-2.95-19.04-7.82-31.26-23.66-43.76-6.64-5.24-21.2-14.94-28.79-18.5l-10.58-5.25c-.85-.19-13.69-5.91-14.56-6.04-1.85-.28-3.16-.16-4.02-1.24l-9.39-2.92-60.4-27-40.28,16.77s-56.33,17.84-67.51,26.48c-13.7,10.53,2.94,201.53,2.94,201.53,0,0-1.29,75.1-46.21,151.91-.29.5-1.48,4.07-1.65,4.64-.53,1.77,10.7,9.19,12.18,10.1,4.58,2.82,12.15,3.48,17.24,5.17,10.37,3.46,18.98,2.53,29.77,3.9,14.69,1.87,29.45,3.29,44.26,3.68,13.81.36,28.11-2.5,41.78-1.4l145.15,7.18s-10.19-72.73-10.19-72.73c-1.92-7.92-3.06-28.92-4.67-36.96-1.67-8.37-2.79-16.84-3.34-25.35-.27-4.16-.44-8.34-.4-12.51,0-.52.03-1.03.08-1.54Z"/>
  <path class="cls-8" d="M547.28,817.07c-3.31,90.58-17.42,244.41-33.17,336.86,0,0-67.76,27.09-152.21,0,0,0,41.31-185.81,3.74-296.83-33.09-97.77-234.57-118.97-209.07-127.83,40.13-13.95,298.34-18.66,348.08-2.28,32.98,10.86,44.82,30.03,42.63,90.08Z"/>
  <path class="cls-8" d="M191.2,736.49s130.26-15.93,249.59-16.68c16.44,29.09,36.33,56.57,55.47,83.76,10.81,15.36,21.06,31.11,31.83,46.49-.11,1.1-.23,2.2-.32,3.3-.44.17-.87,9.75-1.32,9.91-93.47,34.22-365.84,96.36-402.44-13.75-27.62-83.08,67.2-113.04,67.2-113.04Z"/>
  <path class="cls-8" d="M464.73,731.05s-14.3,30.32-33.72,35.05c1.82-9.27,1.65-15.84,1.65-15.84-2.31-1.73-4.73-3.49-7.25-5.27-10.55,5.16-20.61-18.72-30.18-11.95-11.13,7.87-21.63,16.62-31.39,26.11-9.41,9.14-18.13,19.04-25.83,29.65-2.18,3-33.49,6.08-35.48,9.21.35.03.06,18.03.41,18.06-28.34,48.91,16.19,121.3,13.42,208.29-2.44,76.38-2.66,87.3-7.15,127.88,13.37,18.36,117.24,9.76,117.24,9.76,13.01-117.86,38.27-430.95,38.27-430.95Z"/>
  <line class="cls-23" x1="345.86" y1="501.34" x2="345.87" y2="502.95"/>
  <path class="cls-16" d="M239.76,236.22s9.39,51.5-1.4,80.4c-1.5,4.03-21.38,11.4-21.38,11.4l23.13,12.33c5.13,2.74,10.66,4.68,16.4,5.65,16.54,2.8,39.12,4.59,58.39,1.49,10.1-1.63,24.18-.87,31.45-8.06h0s-18.41-6.92-19.51-11.86c-1.09-4.95,1.75-47.17,1.75-47.17"/>
  <path class="cls-33" d="M327.95,320.25s-8.59-4.31-14.66-5.74-16.33-.64-45.01-23.46c0,0,11.46,29.01,47.03,33.83,0,0,8.8.89,11.8.32l.84-4.95Z"/>
  <path class="cls-16" d="M351.78,138.97c.13.1.26.19.39.29-.14-.2-.28-.41-.38-.62l-.02.33ZM366.81,142.66c.21.22.45.43.7.64v-.28s-.68-.7-.7-.37ZM264.69,290.44c13.62,15.07,35.21,29.26,57.56,31.27,22.36,2.01,24.33-8.42,29.69-13.81,8.92-8.98,12.38-10.82,18.98-19.87,6.37-8.73,10.68-19.25,12.29-30.07,1.74-11.71-1.28-23,.06-34.65.61-5.29,3.81-26.11,4.74-38.36.93-12.25-10.82-31.84-10.82-31.84-.57-3.35-2.27-5.75-3.95-8.49l-1.44-.07s.71.36.66,1.36c-1.82-.37-3.6-1.44-4.95-2.61v.05c-2.22.89-4.34-.2-6.07-1.94-.02.33.31,1.01.68,1.03-2.18.23-4.3-.86-5.69-2.26-.02.33.32,1.01.3,1.34-1.63-.38-3.23-1.31-4.56-2.27.31.45,8.52-.44,8.51-.21-2.18.23.26,1.07-1.47-.67l-1.73-1.32c-1.82.25-1.81,1.34-3.19-.05.35.35-.83-3.7-.84-3.37-2.17-.1-1.57-.22-3.33-1.3-.02.33-6.01,1.88-6.02,2.21-1.8-.08-1.41,1.6-2.79.2.35.35,1.37-1.33,1.71-.98-2.18.23-3.06,1.59-4.79-.16.35.35-6.98-3.97-6.98-3.97-2.18.23-1.85.93-3.59-.48.69.7-9.98-1.08-9.65-.4-1.8-.08,3.14,6.78,1.74,5.72-.02.33-4.11-1.19-4.11-1.19-1.82.25.81,2.03-.57.64-.02.33.3,1.34.66,1.36-2.22.89-4.71.11-6.82-1.32.69.7,1.02,1.38,1.37,1.73-1.81-.08-3.27.18-5.01-1.23-.02.33.66,1.36,1.02,1.38-1.84.58-3.99.15-5.75-.93-.02.33.68,1.03,1.02,1.38-1.46.26-2.9.2-4.3-.86l1.02,1.38c-1.44-.07-2.56.54-4.7-.22-.02.33.69.7.68,1.03-1.09-.05-2.53-.12-3.6-.5-.02.33,1.04,1.05.67,1.03-1.44-.07-2.56.55-4.33-.2.34.35.67,1.03,1.02,1.38-1.45-.07-2.91.2-4.32-.53-.02.33.31,1.01.66,1.36-1.45-.07-2.56.54-4.34-.2-.02.33.68,1.03,1.02,1.38-1.45-.07-2.91.2-4.34-.2-.02.33.69.7,1.04,1.05-1.45-.07-2.91.2-4.68-.55-.03.66.31,1.01.3,1.34-1.08-.05-1.79-.41-2.87-.46l-1.84.58c-5.37,6.4-6.04,28.63-6.04,28.63-11.62,8.43-16.8,26.47-16.74,32.79.07,6.32-2.37,19.83-2.37,19.83-1.7-2.4-5.44-7.56-6.4-10.27-.98-2.37-.11-5.32-1.09-7.69-3-5.46-10.31-4.14-14.43-1.01l-.71,1.06c-5.88,7.24-.91,30.82,2.88,37.93.56,14.15,12.64,22.11,20.07,12.24l1.71,5.59"/>
  <path class="cls-17" d="M237.66,251.38c-4.12.26-7.98,3.12-8.53,7.37-.25,1.87.24,3.78,1.3,5.33.87,1.27,1.94,2.01,3.35,2.58,2.89,1.17,5.99.75,8.62-.85.54-.33.73-1.11.17-1.5-.64-.45-1.52-.18-2.12.19-1.54.94-3.23.87-4.82.25-.4-.15-.45-.18-.72-.32-.21-.11-.42-.23-.61-.36-.08-.05-.16-.1-.23-.16.22.17-.13-.14-.19-.21-.16-.17-.31-.35-.46-.54-1.81-2.34-1.72-5.65.07-7.76.33-.38.41-.46.73-.72.18-.15.38-.28.57-.41.03-.02.24-.14.04-.03.08-.05.17-.09.25-.14.22-.11.44-.21.67-.3-.26.1.33-.1.4-.11.08-.02.64-.14.43-.1.27-.04.53-.07.8-.08.64-.04,1.55-.46,1.63-1.18s-.79-.98-1.36-.94h0Z"/>
  <path d="M250.11,198.08l-3.42,32.17-10.68-14.77s10.04-12.47,14.1-17.4Z"/>
  <g>
    <path class="cls-7" d="M339.28,258.08c-2.73,1.26-6.77.75-9.38-1.03-.58-.39-2.58-.13-1.77.42,3.44,2.35,9.26,2.82,12.78,1.19.35-.16.3-.43-.12-.59-.44-.17-1.14-.17-1.52,0"/>
    <path class="cls-7" d="M327.01,256.66c-1.75-.93-3.74-1.46-5.73-1.71-.29-.03-.68.06-.9.24-.18.14-.22.34,0,.48.9.57,2.07.84,3.15.88.34.01.79-.05,1-.34.19-.26-.13-.45-.4-.46-.89-.02-1.8-.24-2.54-.71-.3.24-.61.48-.91.71,1.78.22,3.56.72,5.12,1.55.31.17.77.09,1.07-.07.22-.12.46-.4.15-.57"/>
    <path class="cls-7" d="M319.05,256.53c-2.34-.17-5.05-1.31-6.12-3.12-1.62-2.73.2-6.85,3.2-8.41.33-.17.17-.42-.15-.5-.42-.11-.92.02-1.26.2-2.62,1.36-4.43,4.73-4.16,7.23.25,2.34,2.42,4.07,5.19,4.87.82.24,1.71.41,2.58.48.35.02,1-.05,1.18-.32.19-.27-.13-.41-.46-.43"/>
    <path class="cls-7" d="M343.63,257.09c-.11-.27.13-.44.32-.43.63.05,1.29-.1,1.85-.51.2.26.39.52.58.78-1.27.08-2.56.43-3.73,1.13-.23.14-.55.03-.75-.15-.14-.13-.29-.43-.06-.58"/>
    <path class="cls-7" d="M341.84,257.35c1.31-.78,2.75-1.16,4.17-1.25.21-.01.47.11.62.31.11.16.13.36-.03.48"/>
    <path class="cls-7" d="M348.48,257.64c1.53.01,3.37-.92,4.2-2.64,1.26-2.6.35-5.79-1.48-7.57-.2-.19-.08-.43.14-.49.28-.08.59.09.8.3,1.59,1.55,2.55,4,2.19,6.47-.34,2.31-1.88,3.86-3.73,4.45-.55.17-1.14.28-1.71.28-.23,0-.64-.13-.74-.41-.1-.29.12-.4.33-.4"/>
  </g>
  <path d="M350.45,219.54s11.46-8,16.42-8.03c7.24-.05,14.58,6.05,16.79,9.9,0,0-10.01-8.36-15.11-8.18-4.88.17-18.09,6.31-18.09,6.31Z"/>
  <path d="M317.69,219.35s-10.39-9.21-15.78-9.88c-7.87-.97-17.66,3.95-20.57,7.48,0,0,13-6.82,18.52-5.99,5.28.8,17.82,8.39,17.82,8.39Z"/>
  <path d="M386.91,208.23c0-.2-.04-.4-.01-.58.09-.59.18-1.18.25-1.78-.02-.41,0-.81.09-1.2,0-.03,0-.03-.01-.06-.28-.46-.49-.94-.65-1.42-.72-.87-1.29-1.39-1.38-1.48,0,0-2.49-2.31-6.69-3.75-2.89-.99-11.03-2.2-22-1.78-.12,1.47-.23,2.95-.34,4.43-.09,1.13-.17,2.25-.25,3.38,3.84-.64,7.11-1,9.58-1.21,5.21-.44,7.88-.65,10.83.09,3.1.78,5.66,2.17,6.66,2.71,1.4.77,2.35,1.26,3.44,2.2.17.15.33.3.49.45Z"/>
  <path d="M319.99,194.18c-.33,1.44-.67,2.88-1.01,4.33-.26,1.1-.52,2.2-.78,3.29-4.09-1.9-7.64-3.34-10.34-4.37-5.69-2.17-8.61-3.26-12.14-3.55-3.71-.3-7.01.16-8.3.34-1.81.26-3.02.41-4.54.93-3.3,1.13-4.95,2.89-5.38,2.6-.4-.26.72-1.87.83-2.04,2.83-4.05,7.48-5.78,7.83-5.92,0,0,3.51-1.36,8.65-1.32,3.55.03,13.02,1.61,25.16,5.7"/>
  <path d="M372.79,212.73c-.41.03-.82.1-1.2.26-1.48.62-2.05,2.04-2.18,2.37-.68,1.84-.19,4.48,1.88,5.65,1.52.87,3.61.8,4.95-.46,1.01-.94,1.73-2.56,1.42-4.07-1.73-1.09-3.31-2.43-4.86-3.76Z"/>
  <path d="M309.05,213.45c-.42-.27-.86-.52-1.29-.77-.91-.55-1.8-1.17-2.44-2.03-.01-.02-.02-.03-.03-.05-1.11-.02-2.16.21-2.8.69-.29.22-1.07.84-1.5,1.97-.55,1.44-.1,3.16.75,4.25,1.13,1.46,3.17,1.86,4.82,1.24,2.17-.81,3.07-3.22,2.77-5.12-.09-.06-.18-.12-.27-.18Z"/>
  <path class="cls-15" d="M239.76,232.38c-7.49-20.63-13.61-21.12-13.61-21.12,0,0-4.39,4.43-2.87,13.9"/>
  <path class="cls-15" d="M236.49,234.04c-5.45-.85-1.81,9.57-3.47,11.88s-3.3-4.17-3.55-11.89c0,0,.58-10.37,5.88-11.97"/>
  <path class="cls-24" d="M379.18,166c-7.87-19.72-29.83-31.47-75.25-39.16-45.42-7.69-81.91,7.36-81.91,7.36,24.28-64.45,90.56-59.22,105.36-58.53,14.8.69,82.84,65.2,61.01,114.98l-1.47,5.07s-6.31-26.14-7.74-29.73Z"/>
  <path class="cls-24" d="M210.91,120.07s-3.58-41.25,26.99-53.62c40.84-16.53,95.75-22.11,113.34,20.92l-140.34,32.71Z"/>
  <path class="cls-31" d="M210.41,219.73c-3.16-3.49-1.83-12.93-4.5-16.81-13.96-20.31-8.33-39.31-2.12-50.47,2.7-4.86-.37-13.74.07-18.08,2.3-22.78,4.95-23.37,40-45.24,28.53-17.8,58.45-15.55,75.76-13.82,27.71,2.77,39.87,5.08,48.67,25.22,1.15,2.63-.31,4.64.6,7.78,1.3,4.44,7.13,8.73,8.02,14.33,0,0-35.31,9.19-66.64,24.29s-88.61,76.54-87.27,95.81c.04.61-9.1-19.15-12.59-23.02Z"/>
  <path class="cls-24" d="M197.24,175.7s55.41-62.24,112.75-60.13c0,0-72.91-12.98-107.91,38.46l-.87,2.08c-2.29,5.47-3.6,11.31-3.87,17.24l-.11,2.36Z"/>
  <path class="cls-24" d="M369.65,109.1l-3.82-1.63c-8.88-3.79-18.26-6.28-27.85-7.38l-16.07-1.85s39.25-5.01,47.45,5.25l.28,5.62Z"/>
  <path class="cls-24" d="M231.17,182.49s-21.32,20.08-23.27,28.34l-1.99-7.91s6.81-14.78,25.26-20.43Z"/>
  <path class="cls-3" d="M332.51,269c-10.41-.59-27.09-1.56-27.09-1.56,0,0-.27,27.21,23.85,28.57,24.12,1.36,25.93-26.46,25.93-26.46,0,0-12.28.03-22.69-.55Z"/>
  <path class="cls-4" d="M332.61,269c-4.95-.28-24.74-.95-24.74-.95,0,0,4.77,17.8,22.66,18.81,19.4,1.09,21.4-15.89,21.4-15.89l-19.32-1.97Z"/>
  <path class="cls-10" d="M331.26,269.52c-4.95-.28-19.85-.67-19.85-.67,0,0,4.95,5.51,19.79,6.34,14.84.84,20.01-3.91,20.01-3.91l-19.95-1.76Z"/>
  <path class="cls-3" d="M355.85,268.56c-.52-.19-.52-.19-2.99-.59-4.12-.67-3.76-2.44-6.74-2.89-5.1-.77-8.49,1.51-10.72,1.39-2.23-.13-5.35-2.77-10.5-2.58-3.02.11-10.43,2.51-14.6,2.71-2.5.12-4.33.28-4.87.41-.75.18-.81,3.89,27.21,5.47,28.01,1.58,23.94-3.64,23.22-3.91Z"/>
  <path class="cls-30" d="M420.38,551.71c8.2-5.92,1.67-3.11,9.51-9.5l121.31-13.77c3.89-.9,25.39-5.07,43.93-8.2,1.36,19.7,4.87,35.65,17,50.8-17.7,7.77-44.24,19.39-48.4,20.94-26.52,9.92-93.75,32.11-109.16,34.28-69.71,9.83-83.41-8.9-97.91-29.79-10.15-14.63,1.79-45.61,20.52-74.53,0,0,30.91,38.63,43.2,29.77Z"/>
  <path class="cls-30" d="M448.51,553.94c7.77,22.44,10.54,27.37,10.54,27.37l-81.85-11.79-30.94-73.54-2.06-142.64,2.08-14.11s58.29,46.43,73.4,62.03l28.82,152.69Z"/>
  <path class="cls-32" d="M410.32,421.3c-4.26,5.8-6.4,13.75-6.29,20.84.05,3.47.67,6.92,1.28,10.33.77,4.34,1.62,8.66,2.4,13,4.19,23.26,7,47.68,1.03,70.89-2,7.8-5.14,15.4-10.37,21.6-2.89,3.44-6.65,6.21-9.21,9.92-.7,1.01-1.53,2.31-1.56,3.56-.03,1.39.11,2.8.17,4.18.24,5.88.47,11.75.71,17.63.44,11.06.89,22.12,1.33,33.19l.03.63c.04,1.06,2.23.67,2.19-.2-.38-9.54-.76-19.08-1.15-28.62-.26-6.47-.52-12.94-.78-19.4-.08-2.01-.16-4.03-.24-6.04-.03-.85-.19-1.68.13-2.48,1.54-3.85,5.25-6.52,8.03-9.43,4.77-5,8.27-10.89,10.64-17.38,8.14-22.2,6.33-47.1,2.69-70.02-1.38-8.7-3.3-17.31-4.6-26.03-1.26-8.51.2-17.07,4.65-24.49.31-.51.62-1.03.98-1.51.33-.45-.28-.77-.64-.82-.55-.08-1.11.21-1.42.64h0Z"/>
  <path class="cls-32" d="M447.07,539.76c-5.99,1.83-10.93,5.87-14.48,10.98-4.13,5.95-6.3,12.95-8.18,19.86-.17.64,1.98.33,2.16-.32,3.13-11.49,8.05-25.73,20.74-29.61.24-.07,1.1-.34.97-.74s-.95-.24-1.21-.16h0Z"/>
  <path class="cls-18" d="M481.07,645.02s-5.33,58.08-5.43,59.25c-2.7,19.71,77.46,27.2,79.16,7.28l5.43-59.25-79.16-7.28Z"/>
  <path class="cls-18" d="M481.41,662.36c-2.99-1.55-6.26-2.5-9.62-2.79-2.55-.45-5.17.28-7.11,2-1.12,1.48-1.79,3.26-1.93,5.12-1.15,4.59-.45,9.45,1.96,13.53,1.78,2.24,4.25,3.84,7.02,4.54,2.74.72,5.54,1.13,8.37,1.22-.26,3.01-.51,6.03-.77,9.04-4.81-.02-9.55-1.12-13.88-3.23-4.38-2.15-7.81-5.84-9.64-10.36-1.4-5.06-1.48-10.41-.22-15.51.25-2.75,1.22-5.39,2.82-7.64,2.53-2.46,5.91-3.85,9.44-3.89,4.8-.36,9.62.05,14.28,1.21"/>
  <path class="cls-16" d="M365.78,686.07l-9.01,31.89,6.25,3.21s37.64,7.95,46.41,6.04c8.77-1.92,29.88-3.86,29.88-3.86-.83,2.65-.7,5.51.36,8.08,1.42,2.87,3.95,5.03,7,5.98l7.75-14.9c3.23,6.18,8.51.73,8.51.73l5.4-12.96c3.65,7.83,10.67.92,10.67.92l2.04-17.57c2.44,2.58,5.37,4.66,8.61,6.12,4.16,1.45,4.76-5.49,4.76-5.49l-17.8-25.17-41.62-7.82-66.39,25.2-2.81-.37Z"/>
  <path class="cls-13" d="M480.88,694.75c-.25,0-.43-2.69-1.27-7.17-.22-1.11-.44-2.4-.76-3.59-.35-1.21-1.17-2.23-2.28-2.84-2.74-1.71-5.63-3.17-8.63-4.37-3.18-1.3-6.29-2.31-9.19-3.28-2.9-.97-5.45-1.86-7.61-2.34"/>
  <path class="cls-13" d="M468.74,708.75c.17-1.21.79-2.94.85-4.97.03-2.49-.55-4.95-1.67-7.18-.5-1.28-1.15-2.5-1.94-3.62-1.19-.86-2.53-1.47-3.95-1.82-6.19-1.98-12.16-3.1-16.3-4.53"/>
  <path class="cls-13" d="M453.91,722.59c-.28-.15.83-1.87,1.73-4.77.63-1.61.77-3.37.38-5.06-.59-1.96-2.09-3.5-4.03-4.14-2.07-.7-4.24-1.06-6.43-1.06l-5.63-.36c-1.42-.11-2.74-.32-3.56-.34"/>
  <path class="cls-30" d="M189.78,548.01l-4.7,42.96c.43.48,1.12.73,1.82.35,5.95-3.21,11.55-4.74,17.27-8.43l169.53,79.05-12.58,66.91s-131.28-19.03-205.87-53.3c-1.69-.78-19.72-8.77-21.36-9.53-23.93-11.1-28.99-34.09-31.08-49.71-2.72-20.36-1.42-49.99,1.72-69.91,6.21-39.42,6.29-79.04,13.06-118.37,3.23-18.79,2.54-25.72,10.44-43.08,11.09-24.36,18.99-35.32,47.42-42.3l41.52-14.63"/>
  <path class="cls-32" d="M360.32,725.38c-.49,2.28-.98,4.56-1.47,6.84l1.74-.75c-6.7-1.74-13.41-3.42-20.13-5.09-15.84-3.93-31.71-7.73-47.63-11.35-18.53-4.22-37.12-8.24-55.81-11.71-16.35-3.04-32.18-8.92-47.6-15.02-15.51-6.14-30.8-12.88-45.84-20.1-1.42-.68-2.83-1.37-4.24-2.06-.7-.34-2.67.65-1.71,1.12,14.41,7.05,29.07,13.62,43.93,19.68,15.81,6.46,31.98,12.69,48.66,16.52,8.58,1.97,17.31,3.37,25.93,5.14,9.52,1.96,19.01,4.01,28.49,6.14,16.61,3.72,33.18,7.65,49.71,11.72,8.2,2.02,16.37,4.22,24.58,6.19.12.03.24.06.35.09.55.14,1.6-.1,1.74-.75.49-2.28.98-4.56,1.47-6.84.19-.9-2.01-.57-2.18.24h0Z"/>
  <path class="cls-32" d="M184.15,365.61c4.99,1.2,8.93,4.84,12,8.79,3.93,5.05,6.73,10.97,8.86,16.98,3.08,8.68,5.23,18.25,4.79,27.51-.24,5.15-.85,10.28-1.46,15.4-.89,7.51-1.91,15.01-2.98,22.5-1.27,8.92-2.6,17.83-3.97,26.74-1.46,9.52-2.96,19.04-4.49,28.55-1.47,9.18-2.97,18.36-4.48,27.54-1.31,7.91-2.63,15.83-3.96,23.74-.98,5.82-1.97,11.65-2.96,17.47-.48,2.78-1.09,5.58-1.44,8.38-.01.12-.04.24-.06.36-.03.15.05.27.2.32,2.2.69,4.34,1.72,6.44,2.65,9.09,4.01,18.01,8.41,26.9,12.85,19.17,9.56,38.11,19.56,57.08,29.51,19.3,10.13,38.8,19.89,58.35,29.53,11.29,5.56,22.6,11.09,33.94,16.53.17.08.35.17.52.25l-.2-.32c-.78,5-1.55,10-2.33,15-1.24,8.02-2.49,16.03-3.73,24.05-.28,1.83-.57,3.67-.85,5.5-.11.7,2.06.32,2.16-.32.78-5,1.55-10,2.33-15,1.24-8.02,2.49-16.03,3.73-24.05.28-1.83.57-3.67.85-5.5.03-.17-.05-.24-.2-.32-9.45-4.53-18.87-9.12-28.27-13.74-19.33-9.49-38.6-19.1-57.71-29.01-19.63-10.18-39.12-20.61-58.88-30.55-9.92-4.99-19.87-9.94-30-14.5-2.04-.92-4.09-1.82-6.16-2.66-.4-.16-1.69-.94-2.14-.82-.02,0-.06-.02-.07-.02l.2.32c.34-1.94.67-3.88,1-5.82.89-5.21,1.78-10.42,2.66-15.64,1.28-7.57,2.55-15.14,3.8-22.72,1.49-8.98,2.96-17.96,4.41-26.94,1.54-9.56,3.07-19.12,4.55-28.68,1.43-9.19,2.82-18.38,4.15-27.58,1.15-7.9,2.25-15.82,3.24-23.74.71-5.71,1.41-11.43,1.82-17.17.53-7.38-.37-14.67-2.14-21.86-1.6-6.48-3.89-12.84-7.09-18.71-2.64-4.83-5.98-9.61-10.52-12.84-1.86-1.32-3.92-2.36-6.15-2.89-.49-.12-1.09-.04-1.53.24-.19.12-.75.59-.22.72h0Z"/>
  <path class="cls-32" d="M185.74,587.83c-7.62.49-14.16,4.45-20.4,8.51-5.27,3.44-11.29,7.52-12.65,14.11-.14.68,2.03.33,2.16-.32,1.23-5.97,6.43-9.75,11.22-12.92,5.67-3.74,11.8-7.86,18.78-8.31.37-.02,1.28-.14,1.44-.56s-.13-.54-.56-.51h0Z"/>
</svg>