<?xml version="1.0" encoding="UTF-8"?>
<svg id="Layer_1" data-name="Layer 1" xmlns="http://www.w3.org/2000/svg" xmlns:xlink="http://www.w3.org/1999/xlink" viewBox="0 0 1334 1000">
  <defs>
    <style>
      .cls-1 {
        fill: #151312;
      }

      .cls-2 {
        fill: #6b3925;
      }

      .cls-3 {
        fill: #542c23;
      }

      .cls-4 {
        fill: #a9aaaa;
      }

      .cls-5 {
        fill: #546b88;
      }

      .cls-6 {
        fill: #11172d;
      }

      .cls-7 {
        fill: #24170e;
      }

      .cls-8 {
        fill: #4f2f25;
      }

      .cls-9 {
        fill: #273239;
      }

      .cls-10 {
        fill: #8b552a;
      }

      .cls-11 {
        fill: #372119;
      }

      .cls-12 {
        fill: #f0ecf5;
      }

      .cls-13 {
        fill: none;
        stroke: #000;
        stroke-width: .96px;
      }

      .cls-13, .cls-14 {
        stroke-miterlimit: 10;
      }

      .cls-15 {
        fill: #a66e53;
      }

      .cls-16 {
        fill: #7b5043;
      }

      .cls-14 {
        stroke: #161412;
        stroke-width: .13px;
      }

      .cls-17 {
        fill: url(#linear-gradient);
        opacity: .5;
      }

      .cls-18 {
        fill: #fff;
      }

      .cls-19 {
        fill: #568fa0;
      }

      .cls-20 {
        fill: #26143a;
      }

      .cls-21 {
        fill: #566b89;
      }

      .cls-22 {
        fill: #0a1a29;
      }

      .cls-23 {
        fill: #553733;
      }

      .cls-24 {
        fill: #b6c6cb;
      }

      .cls-25 {
        fill: #6b6b6b;
      }

      .cls-26 {
        fill: #0f0d0c;
      }

      .cls-27 {
        fill: #513935;
      }

      .cls-28 {
        fill: #141529;
      }

      .cls-29 {
        fill: #636464;
      }

      .cls-30 {
        fill: #3e403f;
      }

      .cls-31 {
        fill: #8c6528;
      }

      .cls-32 {
        fill: #4d596a;
      }

      .cls-33 {
        fill: #efe8cf;
      }

      .cls-34 {
        fill: #3e535a;
      }
    </style>
    <linearGradient id="linear-gradient" x1="-4296.77" y1="6633.04" x2="-3321.2" y2="6633.04" gradientTransform="translate(-5954.81 4233.77) rotate(90) scale(1 -1)" gradientUnits="userSpaceOnUse">
      <stop offset="0" stop-color="#ede8de"/>
      <stop offset=".18" stop-color="#ebe5db" stop-opacity=".99"/>
      <stop offset=".33" stop-color="#e5ded2" stop-opacity=".97"/>
      <stop offset=".47" stop-color="#dbd1c3" stop-opacity=".93"/>
      <stop offset=".6" stop-color="#cdbfae" stop-opacity=".88"/>
      <stop offset=".72" stop-color="#bba993" stop-opacity=".81"/>
      <stop offset=".84" stop-color="#a58d71" stop-opacity=".73"/>
      <stop offset=".96" stop-color="#8b6c4a" stop-opacity=".64"/>
      <stop offset="1" stop-color="#82603c" stop-opacity=".6"/>
    </linearGradient>
  </defs>
  <polyline class="cls-33" points="1381.75 971.47 1381.75 -66.22 -25.29 -66.22 -25.29 971.47"/>
  <polyline class="cls-17" points="1381.75 909.35 -25.29 909.35 -25.29 -66.22 1381.75 -66.22"/>
  <path class="cls-34" d="M1519.34,913.52l-1.76-.67-3.12-124.12c-4.62-93.67-29.95-125.31-83.84-130.59-36.68,0-160.78-1.7-173.13,7.8-3.93-213.86,14.26-247.65-251.55-247.65l-293.01.71c-3.13,71.83-11.65,62.18-22.23,133.28-13.27,89.19,12.72,177.84-.87,266.97-6.83,44.8,52.15,89.92,46.36,134.86-5.89,45.79-11.85,91.56-17.64,137.36-8.81,69.65-17.26,139.4-24.52,209.26h836.49v-145.17c20.83-6.81,35.3-29.33,35.41-55.08v-103.54c-.06-39.68-16.87-65.57-46.59-83.44Z"/>
  <path class="cls-34" d="M832.86,1299.78c.82-20.39,1.61-40.79,2.23-61.19,1.44-46.94,49.6-93.86,49.6-140.81l-10.89-678.67-630.51-1.78c-136.52.02-163.44,35.25-162.66,253.7-12.36-9.5-136.45-4.17-173.13-4.17-53.89,5.28-79.22,27.22-83.84,120.9l-3.12,124.12-1.76.67c-29.71,17.87-46.52,43.76-46.59,83.44v103.54c.11,25.75,14.59,48.26,35.41,55.08v145.17H832.86Z"/>
  <line class="cls-31" x1="115" y1="507.16" x2="114.9" y2="508.89"/>
  <path class="cls-26" d="M-179.84,914.96c.25,0,.49,0,.74,0h2.2c1.21-.01,2.41-.02,3.62-.02,1.67,0,3.34-.01,5.01-.02l6.36-.02,7.67-.03c2.98-.01,5.96-.02,8.95-.03,3.4-.01,6.79-.02,10.19-.03,3.8-.01,7.59-.03,11.39-.04,4.18-.01,8.37-.03,12.55-.04,4.56-.02,9.12-.03,13.69-.05,4.93-.02,9.85-.03,14.78-.05,5.28-.02,10.56-.04,15.84-.05,5.62-.02,11.24-.04,16.86-.06,5.95-.02,11.89-.04,17.84-.06,6.26-.02,12.53-.04,18.79-.06,6.57-.02,13.13-.04,19.7-.07,6.86-.02,13.72-.05,20.57-.07l21.41-.07c7.4-.03,14.81-.05,22.21-.08,7.66-.03,15.32-.05,22.98-.08,7.9-.03,15.8-.05,23.71-.08s16.27-.06,24.4-.08c8.35-.03,16.7-.06,25.06-.09,8.56-.03,17.12-.06,25.67-.09,8.75-.03,17.5-.06,26.26-.09,8.93-.03,17.87-.06,26.8-.09,9.1-.03,18.21-.06,27.31-.09l27.79-.09c9.41-.03,18.81-.06,28.22-.1,9.54-.03,19.08-.06,28.62-.1l28.99-.1c9.77-.03,19.54-.07,29.31-.1,9.87-.03,19.74-.07,29.6-.1s19.91-.07,29.86-.1c10.03-.03,20.05-.07,30.08-.1,10.13-.03,20.25-.07,30.38-.1,10.09-.03,20.19-.07,30.28-.1,10.21-.03,20.42-.07,30.63-.1,10.15-.03,20.3-.07,30.46-.1,10.25-.03,20.49-.07,30.74-.1,10.16-.03,20.33-.07,30.49-.1l30.7-.1c10.13-.03,20.25-.07,30.38-.1,10.17-.03,20.34-.07,30.52-.1,10.04-.03,20.08-.07,30.12-.1,10.06-.03,20.12-.07,30.18-.1,9.91-.03,19.81-.07,29.72-.1,9.9-.03,19.8-.07,29.7-.1l29.17-.1c9.69-.03,19.39-.07,29.08-.1l28.48-.1c9.44-.03,18.87-.06,28.31-.1,9.21-.03,18.43-.06,27.64-.09,9.13-.03,18.26-.06,27.39-.09l26.65-.09c8.77-.03,17.55-.06,26.32-.09,8.51-.03,17.02-.06,25.52-.09,8.37-.03,16.74-.06,25.11-.09,8.08-.03,16.17-.05,24.25-.08,7.92-.03,15.83-.05,23.75-.08,7.61-.03,15.22-.05,22.83-.08,7.41-.03,14.83-.05,22.24-.08s14.18-.05,21.26-.07c6.86-.02,13.73-.05,20.59-.07,6.52-.02,13.03-.04,19.55-.07,6.26-.02,12.53-.04,18.79-.06,5.9-.02,11.8-.04,17.69-.06,5.62-.02,11.23-.04,16.85-.06,5.23-.02,10.46-.04,15.69-.05l14.76-.05c4.52-.02,9.03-.03,13.55-.05,4.17-.01,8.35-.03,12.52-.04,3.75-.01,7.5-.03,11.25-.04,3.38-.01,6.76-.02,10.13-.03,2.94,0,5.88-.02,8.81-.03l7.6-.03,6.23-.02c1.64,0,3.28-.01,4.92-.02h3.5c.7-.01,1.4-.02,2.1-.02.21,0,.42,0,.63,0,.67,0,2.35-1,.91-.99-.25,0-.49,0-.74,0h-2.2c-1.21.01-2.41.02-3.62.02-1.67,0-3.34.01-5.01.02l-6.36.02-7.67.03c-2.98.01-5.96.02-8.95.03-3.4.01-6.79.02-10.19.03-3.8.01-7.59.03-11.39.04-4.18.01-8.37.03-12.55.04-4.56.02-9.12.03-13.69.05-4.93.02-9.85.03-14.78.05-5.28.02-10.56.04-15.84.05-5.62.02-11.24.04-16.86.06l-17.84.06c-6.26.02-12.53.04-18.79.06-6.57.02-13.13.04-19.7.07-6.86.02-13.72.05-20.57.07l-21.41.07c-7.4.03-14.81.05-22.21.08l-22.98.08c-7.9.03-15.8.05-23.71.08l-24.4.08c-8.35.03-16.7.06-25.06.09-8.56.03-17.12.06-25.67.09-8.75.03-17.5.06-26.26.09-8.93.03-17.87.06-26.8.09-9.1.03-18.21.06-27.31.09-9.26.03-18.52.06-27.79.09l-28.22.1c-9.54.03-19.08.06-28.62.1l-28.99.1c-9.77.03-19.54.07-29.31.1-9.87.03-19.74.07-29.6.1s-19.91.07-29.86.1c-10.03.03-20.05.07-30.08.1-10.13.03-20.25.07-30.38.1-10.09.03-20.19.07-30.28.1-10.21.03-20.42.07-30.63.1-10.15.03-20.3.07-30.46.1-10.25.03-20.49.07-30.74.1-10.16.03-20.33.07-30.49.1-10.23.03-20.47.07-30.7.1s-20.25.07-30.38.1l-30.52.1c-10.04.03-20.08.07-30.12.1-10.06.03-20.12.07-30.18.1l-29.72.1-29.7.1-29.17.1c-9.69.03-19.39.07-29.08.1-9.49.03-18.98.06-28.48.1-9.44.03-18.87.06-28.31.1-9.21.03-18.43.06-27.64.09-9.13.03-18.26.06-27.39.09l-26.65.09c-8.77.03-17.55.06-26.32.09-8.51.03-17.02.06-25.52.09l-25.11.09c-8.08.03-16.17.05-24.25.08-7.92.03-15.83.05-23.75.08-7.61.03-15.22.05-22.83.08-7.41.03-14.83.05-22.24.08-7.09.02-14.18.05-21.26.07-6.86.02-13.73.05-20.59.07-6.52.02-13.03.04-19.55.07l-18.79.06c-5.9.02-11.8.04-17.69.06-5.62.02-11.23.04-16.85.06-5.23.02-10.46.04-15.69.05l-14.76.05c-4.52.02-9.03.03-13.55.05-4.17.01-8.35.03-12.52.04l-11.25.04-10.13.03c-2.94,0-5.88.02-8.81.03l-7.6.03-6.23.02c-1.64,0-3.28.01-4.92.02h-3.5c-.7.01-1.4.02-2.1.02-.21,0-.42,0-.63,0-.67,0-2.35,1-.91.99h0Z"/>
  <path class="cls-26" d="M1252.55,665.92c-11.34,13.25-22.06,27.46-30.19,42.94-4.19,7.98-7.23,16.34-8.98,25.19-1.94,9.8-2.53,19.79-2.99,29.75-.65,13.9-1.06,27.82-1.45,41.73-.45,16.09-.83,32.18-1.19,48.27-.33,14.3-.63,28.59-.99,42.89-.04,1.42-.07,2.83-.11,4.24-.02.9,2.16.46,2.17-.27.35-13.7.65-27.4.96-41.1.37-16.1.74-32.2,1.17-48.29.38-14.08.78-28.15,1.37-42.22.78-18.56,1.57-37.59,9.43-54.76,3.61-7.89,8.19-15.34,13.06-22.51,4.98-7.34,10.34-14.42,15.98-21.26,1.25-1.52,2.52-3.03,3.8-4.53.35-.41-.3-.63-.59-.65-.52-.04-1.1.21-1.43.6h0Z"/>
  <path class="cls-26" d="M1318.55,666.01c-11.28,13.19-21.96,27.33-30.09,42.71-4.25,8.03-7.33,16.45-9.09,25.37-1.93,9.76-2.53,19.71-2.99,29.63-.65,13.92-1.07,27.85-1.46,41.78-.45,16.15-.83,32.3-1.2,48.45-.33,14.3-.63,28.59-.99,42.89-.04,1.42-.07,2.83-.11,4.24-.01.4,2.16.1,2.17-.58.35-13.64.65-27.28.95-40.92.36-16.1.74-32.19,1.17-48.29.38-14.09.78-28.19,1.37-42.27.78-18.61,1.58-37.65,9.46-54.86,3.6-7.86,8.14-15.27,12.98-22.42,4.98-7.36,10.36-14.45,16.01-21.32,1.25-1.52,2.52-3.03,3.8-4.53.48-.56-1.61-.31-1.98.12h0Z"/>
  <path class="cls-26" d="M78.84,672.53c11.34,13.26,22.09,27.49,30.2,42.99,4.19,8.01,7.19,16.43,8.91,25.31,1.91,9.88,2.47,19.95,2.94,29.99.63,13.73,1.04,27.47,1.42,41.22.45,16.09.83,32.18,1.19,48.27.33,14.23.63,28.47.98,42.7.04,1.42.07,2.83.11,4.24.02.61,2.19.21,2.17-.58-.35-13.76-.65-27.52-.96-41.29-.37-16.1-.74-32.2-1.17-48.29-.38-14.15-.78-28.3-1.38-42.45-.79-18.6-1.65-37.6-9.6-54.77-3.63-7.84-8.17-15.24-13.01-22.38-4.98-7.34-10.34-14.42-15.98-21.26-1.25-1.52-2.52-3.03-3.8-4.53-.45-.53-2.53.23-2.02.83h0Z"/>
  <path class="cls-26" d="M12.85,672.49c11.35,13.27,22.1,27.52,30.22,43.03,4.19,8.01,7.19,16.43,8.91,25.31,1.91,9.88,2.47,19.95,2.94,29.99.63,13.73,1.04,27.47,1.42,41.22.45,16.09.83,32.18,1.19,48.27.33,14.23.63,28.47.98,42.7.04,1.42.07,2.83.11,4.24,0,.34,2.19.02,2.17-.58-.35-13.76-.65-27.52-.96-41.29-.37-16.1-.74-32.2-1.17-48.29-.38-14.15-.78-28.3-1.38-42.45-.79-18.6-1.65-37.6-9.6-54.77-3.67-7.92-8.27-15.4-13.18-22.6s-10.24-14.23-15.8-20.99c-1.25-1.52-2.52-3.03-3.8-4.53-.34-.39-2.37.36-2.05.73h0Z"/>
  <path class="cls-15" d="M877.9,510.35l-121.77,38.97-56.7,29.49-41.72-106.1c-3.36,2.12-28.4,4.29-31.68,6.52-8.21,5.58-16.21,11.48-24.06,17.55-7.87,6.09-15.59,12.37-23.23,18.75-7.46,6.22-14.85,12.53-22.23,18.85-1.94,1.66-3.89,3.32-5.83,4.97,10.88,15.92,21.7,31.89,32.03,48.26,12.81,20.31,35.11,59.11,55.48,72.64,16.4,10.89,35.65,14.03,60.01,6.77,14.07-4.19,71.56-28,73.6-28.88,35.72-15.61,158.27-83.35,158.27-83.35l-52.16-44.44Z"/>
  <polygon class="cls-10" points="597.09 974.89 636.66 977.3 611.77 1074.71 576.21 1072.55 597.09 974.89"/>
  <path class="cls-25" d="M608.16,904.07c1.89-6.3,4.12-12.51,6.59-18.58,5.58-13.75,12.46-26.96,20.22-39.59,7.98-12.99,16.96-25.38,26.9-36.94,6.75-7.86,13.97-15.36,21.67-22.31-129.89-46.17-442.6-92.59-442.6-92.59,0,0-66.4,66.97-26.63,178.48,10.94,30.67,60.71,37.56,103.61,41.92,101.61,10.32,212.96.77,288.72-10.16.51-.07,1.01-.16,1.51-.23Z"/>
  <path class="cls-25" d="M626.95,887.6c2.44-6.11,5.2-12.1,8.19-17.94,6.76-13.2,14.77-25.76,23.62-37.67,9.09-12.24,9.71.54,20.63-10.1,7.42-7.24,44.46-12.27,52.74-18.52-23.11-114.29-437.44-79.13-437.44-79.13,0,0-73.12-56.55-91.2,63.89-29.43,195.98,313.99,105.56,421.94,99.57.52-.03,1.02-.07,1.53-.1Z"/>
  <path class="cls-27" d="M511.16,549.28c-.08.03-.16.04-.24.04"/>
  <path class="cls-25" d="M741.32,902.99c-23.66,76.01-75.23,263.96-108.26,356.02,0,0-99.34,8.52-107.63-14.11,0,0-13.31-461.19,47.4-471.53,44.75-7.62,117.46-21.62,141.34-3.34,28.66,21.94,45.79,73.1,27.16,132.96Z"/>
  <path class="cls-25" d="M665.48,850.24s-15.91-2.94-38.42-2.44c3.93-9.31,5.11-16.25,5.11-16.25-2.2-2.35-4.52-4.75-6.95-7.2-12.76,3-25.17,7.12-37.18,12.02-13.96,5.71-27.41,12.49-40.18,20.21-12.31,7.44-24.03,15.83-34.75,25.2-3.04,2.65-5.99,5.4-8.84,8.23.39.11,17.65-.82,18.03-.71-41.52,44.85-35.86,144.75-56.92,235.45-15.45,66.52-56.76,120.76-56.76,120.76,11.03,22.35,136.05,31.23,136.05,31.23,38.79-120.76,120.81-426.51,120.81-426.51Z"/>
  <path class="cls-30" d="M554.55,739.12c.05,0,.1,0,.15,0,.4-.01-.29,0,.16,0,.56-.01,1.13-.02,1.69-.03,2.1-.02,4.21-.01,6.31.03,7.25.13,14.5.55,21.72,1.23,9.83.92,19.61,2.34,29.27,4.38,10.77,2.28,21.43,5.32,31.61,9.56,10.03,4.17,19.7,9.51,27.99,16.58,8.17,6.96,14.89,15.61,18.97,25.58,4.76,11.64,5.77,24.39,4.35,36.8-1.13,9.84-3.93,19.27-6.8,28.71-2.18,7.18-4.36,14.35-6.55,21.52-3.01,9.87-6.02,19.75-9.03,29.62-3.64,11.93-7.28,23.87-10.92,35.8-4.11,13.46-8.22,26.92-12.33,40.39-4.39,14.36-8.77,28.72-13.16,43.07-4.46,14.61-8.93,29.22-13.39,43.83-4.38,14.35-8.77,28.69-13.15,43.04-4.11,13.44-8.22,26.88-12.32,40.32-3.64,11.9-7.28,23.8-10.91,35.7-3,9.83-6.01,19.66-9.02,29.49-2.18,7.12-4.35,14.24-6.53,21.36-1.16,3.8-2.33,7.6-3.49,11.41-.15.48-.29.96-.44,1.44-.27.9,2.03.6,2.29-.25.62-2.01,1.23-4.02,1.85-6.04,1.72-5.63,3.44-11.26,5.17-16.9,2.64-8.64,5.29-17.29,7.93-25.93,3.38-11.05,6.76-22.1,10.14-33.15,3.93-12.85,7.86-25.7,11.78-38.55,4.29-14.04,8.58-28.09,12.88-42.13,4.47-14.63,8.94-29.26,13.41-43.89,4.46-14.61,8.93-29.22,13.39-43.82s8.54-27.96,12.81-41.94c3.89-12.75,7.78-25.49,11.67-38.24,3.33-10.9,6.65-21.81,9.98-32.71,2.57-8.44,5.14-16.87,7.71-25.31,1.75-5.74,3.54-11.47,5.22-17.22,3.97-13.56,6.03-27.98,3.87-42.04-1.7-11.1-6.2-21.61-13.15-30.44-6.68-8.49-15.35-15.26-24.7-20.59-9.66-5.5-20.11-9.54-30.76-12.65-10.25-2.99-20.74-5.1-31.3-6.62-8.68-1.24-17.43-2.07-26.19-2.51-5.18-.26-10.37-.4-15.55-.33-.78.01-1.56.02-2.34.05-1.19.04-1.84,1.47-.27,1.41h0Z"/>
  <path class="cls-4" d="M498.93,68.16c-10.09-4.14-17.26-2.6-27.79-5.63-.91-.26-1.93-.52-2.75-.17-.68.28-1.05.91-1.38,1.5-7.73,14.06-16.05,27.75-20.48,43.02-1.89,6.5-3.48,13.17-3.08,20,.36,6.16-1.12,12.96.83,18.99,1.71,5.29,3.42,10.58,5.13,15.87.64,1.98,1.32,4.02,2.86,5.63,4.53,4.71,13.13,2.86,18.41-.55,11.32-7.33,17.38-19.36,20.14-31.61,2.75-12.25,2.61-25,3.85-37.53.85-8.64,2.37-17.19,4.53-25.58"/>
  <path class="cls-15" d="M465.87,184.55s-4.13,38.3-24.34,62c-3.24,3.8-39.97,33.72-39.97,33.72l33.67,100.69c21.85,12.27,65.51,2.74,90.51,1.15l59.62-45.38s-28.3-31.98-27.86-37.85c.45-5.87,11.37-45.49,11.37-45.49"/>
  <path class="cls-15" d="M651.36,104.97s-.02-.07-.01-.12c-1.66,1-13.24-12.32-14.96-13.76-18.09-15.12-26.1-26.07-49.54-28.54-12.24-1.29-26.2,7.62-38.5,7.79-11.8.16-21.28-10.24-32.91-12.59-4.03-.81-8.04,11.89-6.09,9.41-4.87-2.1-8.64-4.42-8.64-4.42-15.27,6.5-13.11,62.52-14.71,69.69-1.59,7.17-6.05,17.98-6.05,17.98-1.27-3.17-2.92-5.68-3.28-8.99-.47-2.94-1.76-6.52-2.23-9.46-1.93-6.97-11.58-8.71-17.04-6.24l-3.09,2.68c-8.51,6.65-6.06,34.31-3.69,43.34-3.11,16.17,8.35,28.34,19.3,19.11l.44,6.77,14.04,37.04c11.31,20.63,38.21,45.99,63.41,51.86,9.03,2.1,21.13,5.89,30.48-3.49,9.45-9.48,13.32-14.83,23.12-23.34,9.4-8.16,14.03-13.57,20.17-24.39,6.35-11.19,7.19-14.37,9.18-26.74.89-5.53,2.73-13.76,4.53-18.81,2.08-5.83,11.17-28.55,15.46-42.18,4.29-13.63.62-42.59.62-42.59Z"/>
  <path class="cls-13" d="M471.62,160.2c-4.47-23.03-10.84-24.56-10.84-24.56,0,0-5.37,3.95-5.35,14.2"/>
  <path class="cls-13" d="M467.9,161.4c-5.62-1.81-3.51,9.8-5.64,11.96-2.13,2.16-2.79-4.95-1.76-13.14,0,0,2.34-10.85,8.2-11.66"/>
  <path class="cls-4" d="M582.99,136.21c-16.47-8.03-28.61-11.47-33.7-12.18-3.98-.56-8.01-.5-11.96.03,0,0-11.61,4.33-13.25,5.61-1.64,1.29,6.15.87,6.15.87,1.62.09,2.78-.03,4.39.22,8.87,1.4,17.6,1.84,25.99,5.13,7.19,2.78,16.28,8.85,22.79,12.93.97-2.59,1.8-8.22,3.04-10.7"/>
  <path class="cls-4" d="M648.03,157.69c-.06-.24.17-1.86.1-2.1,0,0-.12-.26-.12-.27-1.48-1.01-3.15-2.73-5.42-3.74-3.99-1.77-14.02-6.54-29.39-8.1-.69,2.6-2.45,7.42-3.15,10.02,6.49-.12,10.87.4,17.28,1.55,6.02,1.09,14.43,3.04,20.2,5.33.3-.5-.06-.02.2-.55.12-.37.23-.75.31-1.13.01-.33.02-.67,0-1.01Z"/>
  <path class="cls-15" d="M580.07,269.56c-.26-.09-.49-.24-.68-.43-3.57-3.6-3.57-5.22-5.5-6.12-.45-.21-.65-.43-2.06-.93-5.66-2.02-9.09-3.36-26.78,3.38-.36.14-20.31-6.69-20.7-6.8l-9.54-7.19c-1.54-1.46-34.29-43.11-34.29-43.11-.37-1.24-5.9-10.68-5.96-11.81-.11-.09-.22-.18-.34-.26-.04-.03-.14-.09-.23-.16-.03.07-.08.15-.1.2-.16.44-.25.93-.33,1.39-.32,2.02-.32,4.08-.11,6.12.31,3.14.23,6.26.42,9.38.07,1.11.19,2.21.35,3.3,3.94,3.75,15.2,44.33,39.92,57.5,1.01.5,4.16,2.14,12.94,4.73,16.49,4.87,29.4,12.9,46.9,11.47,4.57-.37,8.67-2.74,11.23-6.4,7.29-10.44,31.7-51.95,37.89-68.5-6.6,8.97-26.43,36.23-36.05,49.33-.29.4-5.9,5-6.46,5.04"/>
  <path class="cls-15" d="M473.34,64.34s15.84-28.05,53.52-30.84c28.44-2.1,80.49,11.09,98.62,25.1,26.26,20.3,26.36,52.11,26.36,52.11l-178.5-46.37Z"/>
  <path class="cls-11" d="M559.22,290.01s-44.52-11.43-53.27-20.1c-8.75-8.67-17.63-22.36-23.69-41.35,0,0,5.46,41,27.53,49.81,29.1,11.62,48.82,15.54,48.82,15.54l.61-3.9Z"/>
  <path class="cls-24" d="M561.85,512.13c9.6.98,19.2,1.72,28.82,2.26.91-.66,20.49,54,22.16,54.27,15.88,2.57,73.71-20.44,81.41-32.82-29.39-84.78-28.76-122.58-37.48-145.99-18.02-48.36-95.29-85.51-101.35-88.54,0,0-9.5,138.68,4.25,196.74.94,3.95,1.65,8.7,2.18,14.06Z"/>
  <path class="cls-24" d="M260.18,612.75c9.58-26.81,6.38,11.89,12.22-18.88-.54-.1-1.08-.18-1.62-.28,1.68-4.83,3.62-11,5.73-18.14.65-2.42,1.31-4.74,2-6.87,17.23-59.97,43.8-172.68,43.8-172.68l38.99,2.8c-22.54-35.28-66.94-89.96-42.69-104.57,20.61-12.5,98.65-47.58,125.31-50.71.9,11.44,56.65,63.17,56.65,63.17,26.81,24.35,33.11,61.1,33.11,61.1,12.07,1.16,18.52-36.76,24-44.5,12.8-18.09,11.56-27.33,11.56-27.33l46.82,42.59c10.11,8.71,18.14,19.77,25.11,31.15,4.41,7.2,8.72,13.22,8.72,13.22l1.18,60.41-37.42,172.14c-8.24,53.19-8.54,66.32-13.52,105.6l-.32-.02c-.1.68-1.55,6.86-2.8,9.93-42.31,7.53-87.27-1.57-129.05-4.22-29.18-1.85-74.65.33-103.47,5.25-34.89,5.96-69.86,25.2-97.46,21.18-45.91-6.69-54.28-14.54-54.28-14.54,0,0,18.31-103.02,47.45-125.8Z"/>
  <path class="cls-28" d="M653.11,445.82c-5.73,16.49-11.37,33.04-15.73,49.96-2.08,8.05-3.86,16.17-5.4,24.34-1.57,8.38-2.74,16.81-4.08,25.23-1.12,6.99-2.32,13.98-3.79,20.9-.11.53,2.03.2,2.15-.37,3.02-14.2,4.72-28.63,7.28-42.91,2.91-16.2,6.9-32.14,11.81-47.85,3.11-9.95,6.49-19.82,9.91-29.66.16-.45-1.95-.21-2.15.37h0Z"/>
  <path class="cls-24" d="M559.22,290.01l-2.68,11.98-23.04,54.69-23.05-51.71s-50.64-38.46-56.81-79.06l-38.96,20.82s11.34,58.68,41.63,81.44l11.46,8.72,27.44-17.45s33.19,47.68,34.21,49.34l-2.28,63.42c2.69-22.88,17.57-44.5,25.6-65.88,4.39-11.69,2.45-14.25,7.45-25.73l11.45.12s11.84,9.45,15.07-23.48c0,0-2.67-23.76-27.51-27.23Z"/>
  <path class="cls-28" d="M585.13,311.36c-.84,8.52-1.66,17.4-4.32,25.59-.47,1.45-1.01,2.95-1.87,4.22-.24.35-.4.52-.69.8-.05.05-.15.14-.17.12,0,0,.31-.14.44-.17.22-.06.68-.1.68-.08.02-.05.18.12.05,0-.18-.17-.45-.3-.66-.44-2.27-1.52-4.54-3.04-6.81-4.56-2.42-1.62-4.84-3.24-7.26-4.86-.44-.29-.87-.6-1.31-.88-1.73-1.1-3.76-1.18-5.7-.63-1.12.32-2.21.86-3.07,1.67-.97.91-1.53,2.15-2.22,3.27-1.77,2.86-3.75,5.59-5.9,8.18-4.06,4.91-8.7,9.39-13.8,13.2-.41.3.36.33.5.32.49-.02,1.06-.21,1.46-.51,4.51-3.37,8.63-7.25,12.34-11.48,1.91-2.18,3.71-4.45,5.37-6.82.84-1.2,1.64-2.42,2.4-3.67s1.31-2.5,2.55-3.26c2.23-1.37,4.86,1,6.66,2.21,2.65,1.78,5.31,3.55,7.96,5.33,1.16.78,2.32,1.55,3.48,2.33.62.42,1.27.99,1.95,1.3.48.22,1,.13,1.51,0,2.16-.57,3.09-2.79,3.81-4.7,1.14-3.04,1.83-6.27,2.43-9.45,1.09-5.82,1.79-11.72,2.37-17.61.02-.24-2.11-.05-2.17.58h0Z"/>
  <path class="cls-28" d="M534.5,356.2c-.83-1.31-2-2.48-2.99-3.66-2.23-2.65-4.47-5.28-6.72-7.92-5.64-6.61-11.31-13.2-16.98-19.79-2.25-2.62-4.51-5.24-6.77-7.85-2.41-2.79-5.8-2.98-8.82-1.06-4.76,3.03-9.52,6.05-14.28,9.08-4.7,2.99-9.39,5.97-14.09,8.96l1.56-.13c-3.95-3.64-7.89-7.27-11.84-10.91-2.05-1.89-4.27-3.54-6.33-5.4-3.57-3.22-6.78-6.83-9.66-10.68-9.6-12.85-15.61-28.27-19.11-43.84-.75-3.31-1.44-6.68-1.82-10.05-.11-1-2.29-.46-2.17.58,1.08,9.53,3.82,19.08,7.16,28.04,3.09,8.28,7.03,16.29,12.05,23.58,2.69,3.9,5.69,7.58,9.04,10.94,2.5,2.51,5.34,4.57,7.93,6.95,4.36,4.02,8.72,8.03,13.08,12.05.41.38,1.17.11,1.56-.13,9.01-5.73,18.02-11.46,27.03-17.19,1.92-1.22,3.88-2.5,6.03-.58,1.13,1.01,2.07,2.35,3.06,3.5,1.17,1.36,2.35,2.73,3.52,4.09,5.48,6.36,10.96,12.73,16.42,19.12,2.57,3.01,5.14,6.02,7.69,9.04,1.15,1.36,2.5,2.71,3.46,4.22.53.83,2.6,0,1.99-.96h0Z"/>
  <path class="cls-1" d="M625.26,172.64c2.42-.45,4.85,1.25,5.86,2.88.24.38.59,1.44.57,2.94-.02,1.91-1.32,3.7-2.79,4.57-1.96,1.17-4.5.71-6.12-.74-2.2-1.97-2.1-5.3-.78-7.34.24-.37,1.31-1.93,3.27-2.3"/>
  <path class="cls-1" d="M602.37,174.02s12.62-4.93,17.99-3.87c7.83,1.55,15.92,8.6,17.47,13.19,0,0-10.49-10.06-16.04-10.99-5.31-.89-19.42,1.67-19.42,1.67Z"/>
  <path class="cls-1" d="M560.82,155.56c-1.76-1.72-5.22-2.44-6.96-1.64-.41.19-1.52.74-2.34,1.99-1.05,1.6-.95,3.81-.21,5.35.98,2.06,3.36,3.09,5.51,2.78,2.92-.42,4.68-3.24,4.73-5.68,0-.45.66-1.11-.76-2.5"/>
  <path class="cls-1" d="M571.21,165.59s-9.29-10.8-14.9-12.69c-8.19-2.74-19.51-.89-23.38,2.25,0,0,15.16-3.19,20.88-1.1,5.46,2,17.41,11.54,17.41,11.54Z"/>
  <g>
    <path d="M584.89,213.33c-3.16.88-7.41-.39-9.9-2.76-.55-.53-2.75-.6-1.98.14,3.29,3.13,9.46,4.67,13.53,3.54.4-.11.4-.41-.03-.65-.44-.26-1.2-.39-1.63-.27"/>
    <path d="M571.96,209.64c-1.72-1.3-3.76-2.23-5.86-2.85-.31-.09-.74-.06-1.01.1-.21.12-.3.33-.09.51.86.77,2.07,1.27,3.23,1.5.36.07.86.08,1.13-.18.25-.25-.06-.51-.34-.56-.96-.18-1.89-.58-2.6-1.22-.37.2-.74.41-1.11.61,1.88.55,3.7,1.4,5.23,2.57.31.23.82.23,1.16.12.26-.09.57-.35.26-.58"/>
    <path d="M563.42,208.09c-2.49-.59-5.2-2.3-6.03-4.43-1.26-3.22,1.43-7.33,4.93-8.47.38-.12.26-.42-.07-.56-.43-.19-.99-.14-1.39,0-3.05,1-5.6,4.3-5.75,7.03-.14,2.56,1.88,4.8,4.72,6.15.84.4,1.76.75,2.69.97.38.09,1.08.12,1.33-.13.25-.26-.07-.46-.42-.55"/>
    <path d="M589.74,213.04c-.07-.32.21-.45.41-.4.67.16,1.4.12,2.07-.22.16.32.33.63.49.95-1.38-.14-2.83.01-4.21.56-.27.11-.6-.07-.78-.29-.13-.17-.24-.52.04-.63"/>
    <path d="M587.77,213c1.54-.61,3.16-.76,4.71-.6.23.03.49.2.61.44.09.19.07.41-.12.5"/>
    <path d="M594.87,214.48c1.64.28,3.78-.39,4.98-2.09,1.81-2.57,1.4-6.16-.25-8.4-.18-.24,0-.47.23-.5.31-.03.62.21.81.46,1.43,1.95,2.04,4.75,1.21,7.35-.78,2.42-2.7,3.82-4.8,4.13-.62.09-1.27.1-1.88,0-.25-.04-.67-.25-.72-.57-.06-.32.19-.41.43-.37"/>
  </g>
  <path class="cls-9" d="M525.17,146.94l.78,7.95c.12,6.06,1.87,18.42,3.13,21.97,1.78,4.97,31.9,13.57,38.69,11.44,6.79-2.13,14.11-18.8,16.63-22.48l12.05,3.46c-.11,5.47-.07,22.9,1.74,25.66,1.8,2.76,15.89,5.55,17.48,5.86,1.32.24,3.17.59,5.2.88,5.37.82,11.99,1.39,14.41-.12,3.6-2.23,9.33-12.59,14.48-22.45l.83-1.54c.19-.37.38-.62.41-.74h0l.93-1.78c-15.65-12.38-39.02-16.24-55.37-9.14l.07.21-11.74-3.43c-11.4-11.99-33.53-22.14-51.62-19.47h0l-53.56-3.15-1.2,4.54,46.68,2.32ZM599.99,193.57c-1.13-1.72-1.51-14.01-1.5-23.5,14.15-5.92,35.2-2.41,49.4,7.76l-.06.23c-2.77,5.28-10.11,19.35-13.65,21.54-4.18,2.59-32.16-3.26-34.2-5.98v-.05ZM532.98,176.44c-2.22-9.38-3.59-18.94-4.09-28.56,16.32-3.36,41.22,6.26,52.42,17.73-3.77,6.81-9.33,18.96-14.19,20.47-7,2.2-33.04-6.5-34.14-9.64h0Z"/>
  <path class="cls-15" d="M380.77,614.05l-30.13-5.02c-36.61,12.39-63.72,30.94-77.73,66.96,4.29,14.78,25.01,30.7,37.83,33.89,14.25,3.55,83.47,8.25,85.67,8.52,38.69,4.72,217.57-4.17,217.57-4.17l1.15-45.38-234.36-54.8Z"/>
  <path class="cls-15" d="M277.33,683.78c17.1-34.56,50.14-61.53,87.15-72.41l4.64-293.63-54.98-5.98c-33.68,21.68-38.38,23.51-47.78,53.95-6.7,21.7-7,42.14-7.97,64.82-2.03,47.47.45,94.64-.91,142.14-.69,24,1.22,70.02,10.59,92.61,2.66,6.4,5.57,12.7,9.28,18.51Z"/>
  <path class="cls-24" d="M389.45,525.27l-1.88-223.93-57.8-13.52s-53.03,22.23-68.6,72.02c-7.81,26.44-11.15,117.56-13.89,168.9,69.44,12.27,113.2,4.07,142.18-3.47Z"/>
  <path class="cls-20" d="M341.26,328.04c7.19.44,13.81,4.74,19.18,9.23,5.73,4.79,10.78,10.52,14.86,16.77,6.3,9.65,8.47,21.09,9.84,32.37,1.75,14.37,2.06,28.9,2.08,43.36.02,16.03-.43,32.05-.8,48.07-.34,14.46-.69,28.95-.25,43.41.05,1.53.1,3.05.17,4.57l.95-.8c-7.47,1.74-14.93,3.54-22.43,5.14-1.32.28-1.04,1.29.27,1.01,7.5-1.6,14.96-3.39,22.43-5.14.37-.09.97-.35.95-.8-.65-14.39-.35-28.83-.03-43.22.35-16.05.84-32.09.9-48.14.06-14.89-.14-29.84-1.69-44.65-1.17-11.19-2.84-23.16-8.55-33.06-3.67-6.35-8.41-12.14-13.76-17.14-5.28-4.94-11.49-9.49-18.56-11.4-1.54-.42-3.11-.66-4.71-.76-.79-.05-2.32,1.08-.86,1.17h0Z"/>
  <path class="cls-8" d="M560.56,102.38c7.99,2.66,16.01,5.26,24.04,7.8,7.75,2.45,15.54,4.96,23.6,6.17,4.58.69,9.23.91,13.85.47,1.2-.11,1.69-1.68.21-1.54-10.44.99-20.7-1.67-30.6-4.71-9.99-3.07-19.92-6.32-29.83-9.62-.9-.3-2.56,1-1.27,1.43h0Z"/>
  <path class="cls-15" d="M927.48,321.5s-.74,52.43,6.97,69.45c1.87,4.13,26.8,14.42,26.8,14.42l-99.27,63.51-52.78-47.63s34.63-15.67,35.65-20.92c1.02-5.25-3.91-43.71-3.91-43.71"/>
  <path class="cls-3" d="M844.07,394.79s20.96-1.15,26.7-2.87c5.74-1.72,15.54-4.91,41.74-28.4,0,0-8.24,25.87-37.82,34.31,0,0-27.49,5.77-30.21,1.58l-.41-4.62Z"/>
  <path class="cls-14" d="M778.56,252.98s0,0,0,0c-3.73-9.91-5.41-16.1-3.53-23.49,1.33-5.21,9.11-11.35,9.11-11.35,0,0,.14-15.2,6.92-13.84,0,0,4.15-20.71,23.8-17.66,0,0,5.63-2.16,9.29,1.22,0,0,7.04-18.2,24.8-8.06,0,0,5.86-4.91,8.58.05,0,0,9.8-12.03,21.63-4.48,0,0,27.01-8.68,35.8,8.54,0,0,12.61-8.51,21,3.93,0,0,7.01-.19,8.15,9.79,0,0,10.72,2.02,12.41,8.46,0,0,6.51,4.25,7.28,14.74.22,3-.83,2.31-1.31,6.45,7.05,11.29-1.51,13.67-1.51,13.67,10.11,10.08.48,25.06.48,25.06,0,0,5.37,8.09,3.56,13.84-2.47,7.85-15.46,17.61-15.46,17.61,0,0-5.6-19.8-6.25-32.67-.66-12.87-13.22-34.05-17.09-38.51-3.86-4.46-26.78,6.86-63.36,10.97-36.57,4.11-44.69-1.86-48.91-.16-8.76,3.53-12.6,37.61-11.2,47.64,1.39,10.03.58,29.32.58,29.32,0,0-20.41-6.44-17.1-23.89,0,0-7.78-11.46-6.12-19.07,0,0-.05-3.08,1.63-4.83-.03-.03-7.47-6.78-3.17-13.26Z"/>
  <path class="cls-15" d="M918.19,355.97c-12.53,18.47-25.54,30.96-45.58,37.91-19.65,6.82-42.13,1.81-45.34-.8-17.61-14.32-24.46-25.56-32.8-43.97-2.26-5-3.18-10.6-3.6-16.4-.62-8.7-1.2-25.46-2.42-33.69-3.12-20.96-3.33-40.32,5.88-59.51,19.2-39.98,76.72-46.89,99.37-39.6,26.48,8.53,40.93,31.09,45.87,56.47,1.61,8.28,1.8,16.2.69,23.7-3.02,4.39-5.52,9.04-7.52,13.89"/>
  <g>
    <path d="M794.63,241.67s-1.46,1.86-8.67,30.91c1.5-9.14,1.16-22.52,6.41-35.69,18.34-46,94.74-50.2,117.64-41.21,26.77,10.51,39.7,36.96,45.24,66.56,2.25,12.02,4.07,25.96,2.09,36.44-.59,9.27-8.91,14.14-8.91,14.14,0,0-15.14-10.12-20.62,5.64l-3.33-5.95s-10.99-13.28-14.62-49.36c0,0-2.1-15.2-2.52-19.79-1.28-14.15-12.58-9.66-20.38-6.36-4.85,2.05-15.63,4.35-20.84,4.91-13.31,1.45-30.38,1.51-36.59,2.39-8.73,1.23-34.91-2.63-34.91-2.63Z"/>
    <path d="M794.46,241.6c-.49.63-.69,1.64-.94,2.37-1.45,4.3-2.61,8.7-3.78,13.08-1.38,5.17-2.69,10.35-3.98,15.54l.39-.03c1.02-6.3,1.24-12.71,2.16-19.02,1-6.85,2.68-13.65,5.68-19.91,3.87-8.07,9.8-14.96,16.82-20.46,7.2-5.63,15.45-9.85,24.01-13,8.64-3.19,17.67-5.34,26.78-6.65,8.35-1.21,16.82-1.74,25.26-1.46,6.58.21,13.29.84,19.64,2.63,4.06,1.15,7.95,2.97,11.59,5.08,4.83,2.8,9.24,6.29,13.13,10.29,8,8.26,13.65,18.52,17.62,29.25,2.11,5.69,3.76,11.54,5.08,17.46,1.52,6.83,2.69,13.78,3.43,20.75.39,3.71.64,7.44.63,11.17-.01,3.31-.31,6.55-.82,9.82-.23,1.51-.38,2.96-.89,4.41-.44,1.27-1.04,2.48-1.77,3.61-1.12,1.75-2.53,3.32-4.12,4.65-.65.54-1.33,1.09-2.06,1.52h.24c-1.71-1.13-3.69-1.98-5.65-2.55-3.53-1.02-7.44-1.02-10.52,1.21-2.37,1.71-3.82,4.37-4.78,7.07l.36-.06c-.51-.92-1.03-1.84-1.54-2.76-.58-1.04-1.11-2.15-1.76-3.15-.26-.39-.56-.76-.82-1.15-2.19-3.25-3.87-6.86-5.32-10.48-3.02-7.52-5.03-15.43-6.48-23.39-.49-2.7-.91-5.42-1.27-8.14-.28-2.13-.47-4.27-.75-6.39-.33-2.55-.69-5.09-1.03-7.63-.46-3.48-.92-6.96-1.31-10.46-.36-3.28-.65-6.94-3.17-9.37-2.06-1.98-5.03-2.22-7.74-1.82-3.13.47-6.12,1.65-9.03,2.87-3.84,1.6-7.86,2.64-11.91,3.54-4.32.96-8.65,1.65-13.06,2.04-9.8.88-19.65.98-29.46,1.69-2.81.2-5.57.62-8.39.61-3.64,0-7.28-.27-10.9-.59-6.11-.54-12.2-1.27-18.27-2.13-.35-.05-.7-.1-1.05-.15-.2-.03-.39.26-.13.29,4.57.67,9.16,1.24,13.75,1.73,3.74.4,7.49.75,11.25.97,3.07.17,6.2.33,9.27.02,3.4-.35,6.79-.62,10.21-.78,5.05-.24,10.11-.44,15.16-.74,4.82-.28,9.68-.55,14.45-1.29,4.44-.69,8.85-1.64,13.18-2.85,1.81-.51,3.6-1.06,5.33-1.79,1.48-.62,2.95-1.24,4.46-1.77,2.84-1.01,6.04-1.94,9.08-1.38,3.41.63,5.26,3.47,6.01,6.67.38,1.63.48,3.32.66,4.98s.4,3.38.62,5.06c.43,3.38.88,6.77,1.34,10.15.44,3.24.75,6.49,1.2,9.73,1.25,8.96,3.13,17.89,6.11,26.45,1.58,4.52,3.45,9,5.94,13.1.48.79.98,1.57,1.54,2.31.81,1.06,1.37,2.36,2.02,3.52.49.88.99,1.77,1.48,2.65.07.12.32.06.36-.06.86-2.44,2.12-4.84,4.13-6.52,1.5-1.25,3.33-1.97,5.27-2.15,3.12-.28,6.27.7,9.04,2.08.63.31,1.26.65,1.84,1.04.06.04.17.05.24,0,2.52-1.48,4.72-3.79,6.29-6.22,1.46-2.26,2.42-4.82,2.68-7.49.16-1.6.48-3.18.63-4.78.16-1.71.24-3.43.26-5.14.09-7.38-.83-14.76-2.04-22.03-1.07-6.42-2.38-12.8-4.17-19.06-1.66-5.8-3.71-11.51-6.26-16.98-2.43-5.2-5.31-10.2-8.76-14.79-3.36-4.48-7.25-8.58-11.65-12.06-4.51-3.58-9.54-6.48-14.88-8.63-2.57-1.03-5.25-1.75-7.96-2.3-3.29-.66-6.62-1.08-9.96-1.36-3.87-.32-7.75-.43-11.63-.38-4.3.05-8.6.3-12.88.72-4.51.45-8.99,1.1-13.44,1.96-4.59.89-9.14,2-13.62,3.37-4.45,1.36-8.83,2.97-13.08,4.87-4.18,1.87-8.24,4.03-12.09,6.52s-7.37,5.23-10.62,8.37c-3.2,3.09-6.06,6.51-8.47,10.25-2.93,4.55-5.1,9.5-6.61,14.69-2.04,7.02-2.83,14.29-3.52,21.55-.27,2.87-.53,5.74-.99,8.59-.03.21.35.15.39-.03,1.92-7.73,3.86-15.46,6.07-23.11.7-2.41,1.36-4.89,2.32-7.21.06-.15.14-.3.2-.45.03-.07.04-.08.04-.07.15-.2-.21-.27-.33-.12Z"/>
  </g>
  <path class="cls-15" d="M923.17,335.69c12.09,9.52,19.84-6.62,19.84-6.62,8.61-13.76,6.82-26.92,5.22-35.88-1.6-8.95-11.48-7.47-11.48-7.47-8.29,2.06-6.97,2.89-15.12,28.38"/>
  <path d="M866.58,296.51c2.33-1.49,5.28-.65,7.01.62.41.3,1.51,1.16,2.12,2.72.79,2,.18,4.4-.98,5.93-1.55,2.05-4.39,2.63-6.68,1.81-3.11-1.12-4.41-4.62-3.91-7.3.09-.49.55-2.56,2.43-3.77"/>
  <path d="M854.6,308.2s7.56-12.43,16.67-13.32c12.81-1.25,16.4,5.28,19.48,8.55,0,0-9.01-7.52-18.89-6.33-8.96,1.08-17.25,11.1-17.25,11.1Z"/>
  <path d="M803.69,302.23c-2.4-1.06-4.96.27-6.32,1.82-.32.36-1.18,1.4-1.47,3.04-.37,2.1.61,4.36,1.94,5.67,1.78,1.74,4.49,1.83,6.45.62,2.66-1.64,3.23-5.32,2.3-7.87-.17-.47-.96-2.43-2.89-3.29"/>
  <path d="M820.82,311.53s-8.38-10.89-16.25-10.13c-11.07,1.06-13.09,8.14-15.19,11.91,0,0,6.47-9.02,15.05-9.62,7.78-.54,16.4,7.84,16.4,7.84Z"/>
  <g>
    <path d="M833.19,342.28c2.5,1,6.09.34,8.32-1.39.5-.38,2.3-.25,1.6.29-2.95,2.28-8.13,3-11.35,1.71-.32-.13-.29-.37.08-.53.38-.17,1.01-.21,1.35-.07"/>
    <path d="M844.07,340.4c1.51-.92,3.26-1.5,5.03-1.82.26-.05.61.02.82.17.16.12.22.3.03.43-.77.56-1.8.86-2.77.94-.3.03-.71,0-.91-.25-.18-.23.09-.41.33-.43.8-.07,1.59-.31,2.23-.77.28.2.57.4.85.6-1.58.29-3.14.82-4.49,1.65-.27.16-.69.12-.96,0-.2-.09-.43-.34-.16-.5"/>
    <path d="M851.18,339.89c2.08-.27,4.44-1.43,5.3-3.11,1.3-2.54-.57-6.38-3.34-7.63-.3-.14-.17-.37.11-.46.37-.12.82-.02,1.14.12,2.41,1.09,4.24,4.26,4.13,6.53-.1,2.12-1.95,3.78-4.38,4.64-.72.26-1.5.46-2.28.56-.32.04-.89,0-1.07-.23-.18-.24.09-.37.39-.41"/>
    <path d="M829.25,341.61c.09-.25-.14-.39-.3-.37-.56.07-1.15-.03-1.68-.37-.16.25-.32.49-.48.74,1.14,0,2.31.26,3.39.83.21.11.49,0,.66-.17.12-.13.24-.4.02-.52"/>
    <path d="M830.86,341.75c-1.21-.64-2.52-.91-3.79-.92-.19,0-.42.12-.53.31-.09.15-.1.33.06.43"/>
    <path d="M824.94,342.34c-1.36.09-3.06-.66-3.89-2.17-1.26-2.27-.62-5.2.92-6.89.17-.18.05-.39-.15-.43-.25-.06-.53.11-.7.31-1.34,1.48-2.07,3.73-1.61,5.93.43,2.06,1.88,3.39,3.57,3.82.5.13,1.03.2,1.54.17.21-.01.57-.15.64-.41.08-.26-.12-.35-.32-.34"/>
  </g>
  <path d="M854.45,267.52c-.63,1.94-1.26,3.89-1.89,5.85-.48,1.49-.95,2.98-1.42,4.46,4.78.17,11.12,1.22,14.12,1.6,5.95.76,12,1.99,17.37,4.77,2.57,1.33,4.71,2.86,6.48,5.09.56.71,1.82,3.38,3.06,3.2.51-.07.57-2.7.58-2.97.1-5.31-3.07-8.55-7.38-11.22-8.78-5.44-18.46-8.3-28.58-10.14"/>
  <path d="M786.76,296.07c-.24-1.29-.61-2.54-1.16-3.75.64-.83,1.35-1.63,2.14-2.42,7.21-7.18,15.87-12.04,25.2-16,1.05,1.75,2.1,3.52,3.15,5.28.8,1.34,1.59,2.69,2.38,4.03-4.56,1.19-8.32,2.44-11.12,3.46-5.55,2.01-11.1,4.51-15.62,8.38-1.31,1.12-2.44,2.28-3.41,3.58l-1.55-2.56Z"/>
  <path class="cls-12" d="M841.72,354.32c4.29-.64,17.23-2.17,17.23-2.17,0,0-3.87,5.19-16.73,7.1-12.86,1.91-17.74-1.8-17.74-1.8l17.24-3.13Z"/>
  <path class="cls-23" d="M411.33,440.11c.09.01.18.04.26.08-.02.34.06.72-.28.97,0-.35.02-.7.03-1.05Z"/>
  <path class="cls-23" d="M408.64,539.11c-.08.04-.17.06-.26.06"/>
  <path class="cls-16" d="M491.96,442.66c-.12-.03-.23-.07-.35-.1.13-.04.25-.08.38-.12.04.08.03.15-.03.22Z"/>
  <path class="cls-16" d="M440.19,441c.12-.06.25-.12.37-.18.03.07.05.13.08.2-.15,0-.3-.01-.45-.02Z"/>
  <path class="cls-16" d="M490.86,442.55c-.16,0-.32-.01-.48-.02.17-.14.33-.14.48.02Z"/>
  <path class="cls-19" d="M412.46,440.18c.14-.13.28-.14.41,0-.14,0-.28,0-.41,0Z"/>
  <path class="cls-22" d="M751.19,898.63c-1.76-5.32-1.26,14.7-3.47,9.59-5.01-11.55-11.05-22.59-17.78-33.11-6.92-10.81-14.63-21.07-23.08-30.59-5.74-6.47-11.85-12.61-18.32-18.26,103.26-44.53,345.84-86.63,345.84-86.63,0,0,79.26,41.88,53.1,130.8-7.84,26.64-25.91,33.39-60.41,38.78-81.72,12.75-214.28-4.14-275.88-10.57-.42-.04.41.05,0,0Z"/>
  <path class="cls-22" d="M659.29,910.19c22.52,64.39,72.28,246.52,103.31,324.38,0,0,85.33,4.34,91.76-15.29,0,0,1.86-436.13-50.44-443.17-38.55-5.19-104.16,8.77-124.06,25.14-23.89,19.64-38.3,58.23-20.56,108.95Z"/>
  <path class="cls-22" d="M701,867.03s13.11-2.51,31.81-2.14c-3.62-7.85-4.86-13.71-4.86-13.71,1.74-1.99,3.57-4.02,5.5-6.09,10.71,2.5,21.18,5.96,31.33,10.08,11.81,4.79,23.24,10.49,34.14,16.98,10.51,6.26,20.56,13.32,29.82,21.21,2.62,2.23,5.18,4.55,7.66,6.93-.32.1,5.14-.71,4.83-.61,36.19,37.79,35.27,122.15,56.2,198.69,15.35,56.14,35.39,121.11,35.39,121.11-8.31,18.89-111.81,26.64-111.81,26.64-36.8-101.88-120.01-379.09-120.01-379.09Z"/>
  <path class="cls-5" d="M1046.91,443.95c-6.04-10.68-34.18-26.79-46.25-31.12-31.44-11.24-59.48-20.75-59.48-20.75,0,0-28.94,47.7-75.8,44.24-46.86-3.45-26.14-29.87-26.14-29.87l-13.93,5.79c-20.78,10.01-40.18,20.19-55.4,37.63-12.96,14.85-19.35,22.98-27.8,46.29-4.29,11.84-6.04,24.29-18.29,59.12-1.2,3.42-12.32,23.06-12.42,23.73-.71,5.03,20.63,21.53,41.81,26.51,10.72,2.52,14.63,22.81,19.36,24.55.61,1.02,16.4,55.36,16.61,56.79,3.42,22.71,5.04,41.71,5.69,67.01.01.57,5.58,38.51,5.6,39.08,1.91-.18-7.78.76-5.87.59,30.08-2.65,50.22-10.71,82.58-15.18,15.05-2.08,33.94-3.84,49.12-3.73,3.08.02,5.13.09,8.39.07,2.82-.02,5.63-.08,8.45-.15,15.46-.38,52.61-9.76,68.07-9.57,16.38.2,47.52-3.34,63.53-.02,3.08.64,12.69,29.72,16.03,30.77-.12-6.31-9.81-31.96-9.97-38.27-1.56-54.21-29.13-74.22-38.36-173.57l3.81-10.83,21.69-23.43c-5.33-61.72-5.93-78.97-21.02-105.67Z"/>
  <g>
    <path class="cls-21" d="M934.2,387.69s-16.57,45.47-62.63,47.02-26.72-34.38-26.72-34.38l-4.86,2.48-10.07,10.08s-.91,11.37,5.63,21.62c6.55,10.25,22.53,15.41,51.59,9.99,17.05-3.18,30.54-10.25,42.99-24.14,14.9-16.63,17.6-26.93,17.6-26.93l-13.53-5.74Z"/>
    <path class="cls-6" d="M933.16,387.55c-1.77,4.85-4.42,9.49-7.23,13.79-6.28,9.63-14.49,18.2-24.46,24.04-6.18,3.62-12.93,6.14-19.96,7.46-7.73,1.45-16.11,1.69-23.83.05-4.72-1-9.54-3.03-12.55-6.95-2.23-2.91-3.19-6.54-3.19-10.16-.01-5.31,1.68-10.27,3.83-15.05.04-.09.09-.17.13-.26.49-.91-1.02-1.06-1.53-.79-1.6.81-3.34,1.52-4.85,2.48-1.22.77-2.24,2.14-3.26,3.15-1.8,1.8-3.6,3.61-5.4,5.41-.7.7-1.91,1.49-2.05,2.52-.29,2.11.07,4.52.35,6.61.54,4.02,1.68,7.97,3.45,11.63,2.34,4.83,5.72,8.69,10.46,11.28,5.19,2.83,11.1,4.08,16.95,4.54,8.43.66,16.93-.2,25.24-1.64,8.08-1.39,15.99-3.64,23.33-7.34,7.33-3.69,13.88-8.72,19.61-14.57,5.91-6.03,11.28-12.78,15.67-20,1.87-3.07,3.7-6.34,4.79-9.78.06-.2.12-.39.18-.59.08-.32-.24-.57-.48-.67-4.51-1.91-9.02-3.83-13.53-5.74-.94-.4-2.52.95-1.25,1.49,4.51,1.91,9.02,3.83,13.53,5.74l-.48-.67c.07-.25-.01.05-.08.25-.14.42-.29.83-.45,1.25-.63,1.61-1.38,3.18-2.19,4.71-3.3,6.27-7.58,12.01-12.15,17.4-5.45,6.41-11.51,12.24-18.64,16.76-6.52,4.13-13.76,6.99-21.25,8.81-8.26,2.01-16.9,3.15-25.41,3.19-6.19.03-12.56-.62-18.38-2.87-4.2-1.62-8.06-4.18-10.76-7.84-4.16-5.64-6.16-13.03-6.34-19.98-.02-.67.12-1.46.02-2.12-.08-.5.16.1-.16.14.09-.01.3-.3.37-.37,1.41-1.41,2.81-2.82,4.22-4.22,1.57-1.57,3.14-3.14,4.71-4.71.19-.19.4-.37.57-.57.37-.42-.04.17-.19.11.13.05.8-.41.93-.47l1.67-.85,2.21-1.13c-.51-.26-1.02-.53-1.53-.79-2.21,4.11-3.61,8.95-4,13.58-.31,3.73.16,7.54,1.9,10.89,2.17,4.17,6.16,6.92,10.49,8.51,7.05,2.59,15.04,2.76,22.43,2.17,7.72-.61,15.32-2.54,22.35-5.79,11.4-5.27,21-13.87,28.33-23.99,3.86-5.33,7.53-11.25,9.82-17.47.03-.09.07-.19.11-.28.43-1.19-1.74-1.2-2.08-.27Z"/>
  </g>
  <path class="cls-22" d="M750.45,919.06c-2.38-4.83-5.01-9.52-7.8-14.08-6.31-10.31-13.55-19.97-21.37-29.03-8.04-9.31-16.77-17.98-26.11-25.83-6.34-5.33,12.77-22.31,5.84-26.75-26.02-77.64,367.38-61.9,367.38-61.9,0,0,24.38-6.02,25.69,73.05,1.52,92.31-259.24,68.1-343.65,72.3-.4.02.43,12.23.03,12.24Z"/>
  <path class="cls-32" d="M814.98,1232.43c-.09-.26-.17-.51-.26-.77-.25-.75-.5-1.49-.75-2.24-.41-1.21-.81-2.41-1.22-3.62-.55-1.65-1.11-3.3-1.66-4.95-.69-2.05-1.37-4.1-2.06-6.15-.81-2.43-1.63-4.86-2.44-7.29-.94-2.8-1.87-5.59-2.8-8.39-1.04-3.11-2.08-6.22-3.12-9.33-1.14-3.41-2.27-6.82-3.41-10.23-1.23-3.7-2.46-7.39-3.69-11.09-1.31-3.92-2.61-7.85-3.92-11.77-1.38-4.14-2.75-8.28-4.12-12.42-1.44-4.35-2.88-8.69-4.33-13.04s-2.97-8.98-4.46-13.47c-1.54-4.64-3.07-9.29-4.6-13.93s-3.12-9.46-4.68-14.19c-1.58-4.81-3.17-9.62-4.75-14.42s-3.21-9.76-4.81-14.64-3.2-9.77-4.8-14.65c-1.6-4.9-3.2-9.8-4.8-14.7-1.58-4.85-3.16-9.7-4.74-14.55s-3.11-9.58-4.66-14.37c-1.53-4.73-3.06-9.45-4.58-14.18-1.48-4.59-2.96-9.18-4.43-13.78-1.43-4.45-2.85-8.9-4.27-13.36s-2.74-8.61-4.1-12.91-2.58-8.18-3.86-12.27c-1.21-3.87-2.42-7.73-3.62-11.6-1.13-3.63-2.25-7.26-3.36-10.9-1.02-3.34-2.04-6.68-3.05-10.02-.91-3.03-1.82-6.07-2.72-9.1-.8-2.71-1.59-5.42-2.37-8.14-.67-2.34-1.33-4.68-1.97-7.03-.54-1.96-1.06-3.92-1.56-5.89-.39-1.54-.77-3.07-1.11-4.62-1.48-6.67-2.39-13.5-2.56-20.33-.19-7.25.49-14.53,2.25-21.57,1.47-5.88,3.69-11.58,6.65-16.87,3.45-6.17,7.97-11.7,13.39-16.25,5.4-4.53,11.59-8.06,18.17-10.58,6.52-2.5,13.4-3.99,20.34-4.63.39-.04.74-.47.13-.41-7.13.66-14.19,2.21-20.89,4.78-6.5,2.5-12.64,5.96-18.02,10.39-5.41,4.46-9.98,9.86-13.48,15.92-3.02,5.23-5.33,10.86-6.88,16.7-1.82,6.84-2.6,13.93-2.56,21.01.05,7.32.96,14.64,2.53,21.79.33,1.52.7,3.04,1.09,4.55.49,1.94,1.01,3.88,1.54,5.81.64,2.34,1.3,4.68,1.97,7.02.77,2.7,1.56,5.39,2.35,8.08.89,3.03,1.8,6.06,2.71,9.09,1.01,3.34,2.02,6.68,3.04,10.02,1.11,3.62,2.23,7.24,3.35,10.86,1.2,3.87,2.41,7.75,3.62,11.62,1.29,4.1,2.58,8.2,3.87,12.3,1.36,4.3,2.72,8.59,4.09,12.89,1.42,4.47,2.85,8.93,4.28,13.4,1.48,4.61,2.96,9.22,4.44,13.83,1.52,4.72,3.05,9.45,4.58,14.17,1.56,4.81,3.12,9.62,4.68,14.43,1.58,4.87,3.17,9.74,4.75,14.61s3.2,9.8,4.8,14.7,3.21,9.81,4.82,14.72,3.2,9.76,4.81,14.64c1.59,4.85,3.19,9.7,4.79,14.55,1.57,4.75,3.13,9.5,4.7,14.25,1.53,4.64,3.07,9.29,4.6,13.93,1.49,4.51,2.98,9.02,4.48,13.53,1.44,4.35,2.88,8.69,4.33,13.04,1.38,4.16,2.76,8.31,4.14,12.47,1.31,3.94,2.62,7.88,3.93,11.82,1.23,3.69,2.46,7.39,3.69,11.08,1.14,3.42,2.28,6.84,3.42,10.26,1.04,3.12,2.08,6.24,3.12,9.36.93,2.79,1.87,5.58,2.8,8.37.81,2.43,1.63,4.87,2.44,7.3.69,2.05,1.37,4.1,2.06,6.15.55,1.64,1.1,3.28,1.65,4.92.4,1.2.81,2.4,1.21,3.6.25.73.49,1.47.74,2.2.08.24.16.48.24.72.09.26.94.01.86-.23h0Z"/>
  <path class="cls-15" d="M1055.13,506h-85.96l8.85,53.43,11.37,99.64c15.52,3.45,43.64-7.26,59.44-5.92,9.15.77,7.65-.97,16.75.24.42-6.51-8.21-85.65-8.31-91.7-.31-17.26,5.41-5.5-2.13-55.7Z"/>
  <path class="cls-15" d="M1060,568.12s6.16,65.48,6.41,68.53c1.53,18.96,2.52,43.4-5.48,63.83-10.74,27.44-38.11,28.76-68.34,10.81-33.45-19.86,8.79-78.6,8.79-78.6l58.62-64.57Z"/>
  <path class="cls-5" d="M1061.65,485.69s9.48,49.79,13.05,88.51c0,0-58.19,19.7-99.35,12.61-43.62-7.52-25.68-101.11-25.68-101.11h111.98Z"/>
  <path class="cls-6" d="M989.14,438.78c.26-.04,0,.06-.11-.01-.32-.22-.84.54-.61-.78-.06.36.34-.77.3-.32,0,.01-.06.03-.06.04,0,0,.29-.16.03-.02-.11.06-.22.11-.33.17-.84.44-1.66.9-2.47,1.4-2.92,1.81-5.58,4.05-7.95,6.52-9.27,9.64-14.24,22.71-16.73,35.66-2.18,11.33-2.34,22.81-2.12,34.31.21,10.92.68,21.85,1.67,32.74,1.02,11.28,2.31,22.91,5.84,33.72.55,1.68,1.14,3.37,1.98,4.93.24.44.3.57.87.71.93.23,1.98.23,2.93.33l5.07.58,2.61.3c.97.11,2.26-1.26.79-1.43-3.54-.4-7.08-.81-10.61-1.21l.6.26c-.1-.15-.18-.31-.27-.47.12.22-.18-.37-.24-.51-.15-.31-.28-.63-.42-.95-1-2.4-1.73-4.91-2.38-7.42-3.2-12.37-4.42-25.29-5.27-38.01-.76-11.32-1.17-22.71-1.08-34.05.08-9.74.98-19.54,3.3-29.01,2.78-11.35,7.74-22.63,16.2-30.91,2.1-2.06,4.4-3.9,6.92-5.42.2-.12.39-.23.59-.35.4-.23,0-.01.38-.21.27-.15.55-.29.82-.44.44-.23,1.48-.65,1.06-1.31-.2-.31-.75-.29-1.07-.24-.4.06-1.19.29-1.21.82s.56.67.97.6h0Z"/>
  <path class="cls-3" d="M844.58,285.72c-.98.36-2.21-.04-3.1-.48-1.17-.58-2.19-1.48-2.88-2.59-1.57-2.55-1.59-5.73-1.04-8.58.05-.25-1.07-.02-1.16,0-.29.08-.94.22-1.01.58-.61,3.19-.52,6.92,1.72,9.5,2.08,2.39,5.26,3.06,8.2,1.97.17-.06.89-.29.66-.56-.2-.24-1.19.08-1.39.16h0Z"/>
  <path class="cls-3" d="M929.01,312.02c1.37-4.63,2.9-9.26,5.05-13.59,1.01-2.03,2.19-4.18,3.82-5.77.49-.48.73-.65,1.15-.9.24-.14-.2.14,0,0,.06-.04.15-.07.22-.09-.4.1.15.06-.21.06.22,0-.32-.02-.13,0-.67-.11-.34-.02-.36-.04.54.59,1.34,1.02,1.92,1.61,3.04,3.12,4.2,7.41,3.82,11.69-.07.83,2.11.41,2.17-.29.37-4.17-.59-8.32-3.35-11.56-.73-.85-2.11-2.56-3.38-2.59-3.13-.08-5.52,3.9-6.8,6.17-2.74,4.86-4.52,10.25-6.09,15.58-.21.72,1.96.42,2.17-.29h0Z"/>
  <path class="cls-3" d="M930.03,315.31c5.89-.87-.6,11.58,4.5,11.94,1.51.11,2.44-1.22,2.95-2.46.87-2.13,1.23-4.49,1.48-6.76.32-2.88.3-5.28-.46-8.06-.93-3.38-2.8-7.02-6.48-7.92-.51-.12-1.2-.03-1.54.41-.28.36-.25.88.27,1.01,3.01.74,4.55,3.72,5.4,6.47.61,1.97.95,3.91.82,5.95-.15,2.4-.43,4.83-1.06,7.16-.21.79-.46,1.62-.88,2.32-.03.06-.3.4-.29.42.02.05.59-.08.59-.06,0,0-.24-.21-.25-.25-.27-1-.4-1.83-.37-2.9.05-1.34.18-2.68.15-4.02-.02-1.22-.11-2.62-.87-3.64-.87-1.17-2.4-1.35-3.75-1.15-.43.06-1.18.31-1.2.85-.02.51.55.74.99.67h0Z"/>
  <path class="cls-15" d="M702.88,674.02l.02.02c8.1,6.39,18.39,10.4,28.75,8.16,11.14-2.41,23.81-11.54,29.59-20.96,5.25-8.54,4.17-8.95,8.09-18.14,3.47-8.14,6.35-25.43,8.1-34.11l19.17-130.53c-11.17,2.23-11.04-12.94-25.12-18.24,0,0-65.42,139.54-70.93,155.17-9.98,28.32-6.56,46.53,2.34,58.63Z"/>
  <path class="cls-7" d="M839.26,353.33c7.73-1.27,25.7,1.38,29.7,4.29,0,0-5.8,12.4-23.73,15.35-17.93,2.95-23.93-7.51-23.93-7.51,0,0,8.11-10.51,17.96-12.13Z"/>
  <path class="cls-18" d="M861.04,354.97s-9.96.76-17.79,2.05c-7.83,1.29-17.49,3.76-17.49,3.76,0,0-2.3-6.14,11.89-8.47,14.19-2.34,23.39,2.67,23.39,2.67Z"/>
  <path class="cls-2" d="M841.68,366.1c8.17-2.76,17.38-7.58,27.28-8.48,0,0-1.83,13.25-22.91,16.72-21.08,3.47-24.75-8.88-24.75-8.88,9.67-2.32,11.75.64,20.38.64Z"/>
  <path class="cls-2" d="M829.3,350c4.36-1.11,7.49.37,9.42.06,1.92-.32,4.41-2.72,8.9-3.07,4.21-.33,23.68,8.52,21.97,10.37-1.71,1.84-16.73-4.54-30.06-2.34-13.33,2.19-16.69,11.6-18.9,10.4-2.21-1.2,4.58-14.37,8.67-15.41Z"/>
  <path class="cls-15" d="M780.16,486.06c4.75,2.97,9.47,5.99,14.17,9.03.13-.52.26-1.06.39-1.57l2.09-6.61c.52-.77,8.72-12.86,12.49-18.02,1.01-2.7,1.43-5.55,1.24-8.39l-1.44-6.67c-.27.08-.41.04-.06-.26l-.11-.5c.38-.03.63-.03.8,0,.04-.03.08-.05.12-.08l3.25-1.07c2.15.42,8.73-4.44,9.83-6.21,1.49-2.19,4.08-7.47,5.96-10.96,3.44-6.39,5.23-9.34,5.23-9.34,0,0,5.61-7.92,5.66-11.46.05-3.54-2.1-9.5-2.1-9.5,0,0,1.23-5.6.3-8-1.41-3.7-5.71-5.91-10.49-5.06-4.07.72-23.9,2.89-23.9,2.89l-3.3-3.76.25-12.57,11.34-2.68s6.89,3.44,12.3,2c1.9-.45,3.62-1.41,4.93-2.76.9-.99.76-2.46-.31-3.27-.1-.08-.21-.15-.32-.21-4.38-2.43-14.46-7.9-17.83-8.46-4.34-.72-21.99,5.51-23.58,7.73-.33.45-5.04,27.82-5.04,27.82-3.07,2.72-5.02,6.33-5.54,10.21-.59,6.13-5.45,55.87-5.45,55.87l.44,9.82-6.35,2.3s3.75,3.15,3.58,3.42c5.15,3.04,6.39,3.17,11.45,6.33Z"/>
  <g>
    <path class="cls-3" d="M830.42,434.8c1.64-3.04,3.25-6.1,5.05-9.05.89-1.46,1.9-2.86,2.78-4.33,1.57-2.65,3.34-5.62,3.09-8.79-.15-1.91-.63-3.81-1.16-5.65-.19-.67-.4-1.33-.62-1.99-.07-.21-.15-.41-.21-.62-.05-.18-.06-.28-.07-.08.01-1.19.44-2.46.55-3.66.15-1.63.24-3.4-.45-4.93-1.66-3.66-5.71-5.33-9.55-5.2-2.18.07-4.4.45-6.56.66-2.36.24-4.72.45-7.07.71-4.19.48-8.37,1.22-12.54,1.84l.73.12c-.83-.47-2.52-.04-3.38.02-1.85.12-3.69.16-5.54.21-4.38.12-8.72.38-12.82,2.06-.38.16-.82.57-.55,1s1.1.24,1.46.09c5.42-2.23,11.49-1.58,17.21-1.96.57-.04,1.13-.08,1.7-.12.21-.01,1.13-.19.23-.14.32-.02.68.12,1.03.08,1.12-.13,2.23-.33,3.34-.49,4.51-.67,8.99-1.31,13.53-1.77,2.42-.24,4.85-.45,7.27-.73,2.25-.27,4.38-.16,6.39,1.02,1.81,1.06,3.22,2.85,3.45,4.97.2,1.85-.1,3.79-.43,5.62-.16.9-.1,1.21.19,2.08,1.13,3.45,2.5,7.41,1.09,10.94-1.23,3.1-3.15,5.82-4.93,8.61-1.92,3-3.55,6.22-5.23,9.35-.54,1,1.65.88,2.05.15h0Z"/>
    <path class="cls-3" d="M801.27,378.73c3.78-.89,7.56-1.79,11.34-2.68l-.83-.03c2.64,1.3,5.68,2.18,8.62,2.38,2.18.15,4.34-.12,6.37-.97,1.75-.73,4.42-2.24,4.55-4.39.12-2.04-1.71-2.82-3.22-3.65-1.62-.89-3.25-1.77-4.9-2.62-3.26-1.7-6.59-3.51-10.1-4.65-3.16-1.03-7.18-.57-10.15.81-1.34.62-.16,1.92.99,1.39,1.97-.91,4.46-1.14,6.62-.95,1.39.13,2.77.81,4.03,1.36,4.33,1.88,8.51,4.14,12.64,6.42.96.53,2.38,1.27,1.72,2.61-.71,1.45-3.07,2.34-4.49,2.7-2.56.64-5.31.19-7.79-.56-1.25-.38-2.43-1.05-3.67-1.41-.9-.26-2.21.3-3.08.5-3.03.72-6.06,1.43-9.09,2.15-1.37.32-.93,1.92.43,1.6h0Z"/>
  </g>
  <path class="cls-3" d="M809.52,453.28c2.45.46,5.47-.84,7.48-2.1,2.6-1.63,4.89-4.05,6.78-6.44,2-2.54,3.62-5.37,5.12-8.23s3.06-5.89,3.77-9.19c.65-3.05-.16-6.19-2.43-8.38s-5.34-3.43-8.27-4.08c-3.28-.73-6.66-.89-9.92-1.69-3.44-.84-6.36-2.62-9.59-3.95-3.46-1.43-7.05-2-10.69-.91-1.7.51-3.34,1.23-4.86,2.16-1.09.68-2.51,1.75-2.64,3.13-.09.98,1.62.65,1.99.18.23-.29.34-.65.55-.97.62-.95-1.58-.92-2.06-.19-.06.1-.61,1.02-.28.6.66.06,1.33.12,1.99.18.12-1.28,1.94-2.13,2.93-2.63,1.37-.68,2.85-1.24,4.36-1.49,2.88-.49,6.02.58,8.59,1.85,2.6,1.28,5.17,2.57,7.99,3.32,2.75.73,5.61.99,8.41,1.45,5.26.87,12.14,3.47,11.97,9.9-.08,2.86-1.38,5.76-2.7,8.24-1.34,2.53-2.61,5.09-4.16,7.5s-3.55,4.81-5.77,6.82c-1.26,1.14-2.59,2.15-4.17,2.79-1.04.43-2.5.88-3.62.67-1-.19-2.23,1.21-.78,1.48h0Z"/>
  <path class="cls-3" d="M810.07,452.33c-.23-1.47-.64-2.87-1.09-4.28-.49-1.52-.89-3.07-1.36-4.6-.85-2.81-1.71-5.73-3.02-8.37-.24-.47-2.31.3-2.17.58,1.31,2.63,2.17,5.56,3.02,8.37.46,1.53.86,3.08,1.36,4.6.46,1.41.86,2.81,1.09,4.28.06.36,2.25-.1,2.17-.58h0Z"/>
  <path class="cls-3" d="M803.29,436.03c1.57-.47,2.65-1.78,3.23-3.3.44-1.15-.11-2.53-.35-3.67-.72.19-1.45.39-2.17.58.1.29.18.6.31.87.22.47.82.59,1.28.8,1.5.66,3.02,1.27,4.57,1.81,1.02.36,2.05.75,3.09,1.04.9.25,1.69-.26,2.46-.64-.51-.13-1.01-.26-1.52-.39-1.5,1.31-3.27,3.16-2.86,5.32.13.67,1.88.06,2.09-.3l.15-.25c.45-.77-1.12-.48-1.41-.37-1.55.57-2.98,1.43-4.15,2.6-1.08,1.07-2.22,2.64-2.35,4.2-.07.77,2.11.34,2.16-.31.22-2.65,2.83-4.87,5.16-5.73l-1.41-.37-.15.25,2.09-.3c-.34-1.81,1.15-3.39,2.41-4.48.29-.25.3-.51-.08-.64-.45-.16-1.04.06-1.43.25l-.87.43,1.53-.23c-2.97-.99-5.89-2.03-8.74-3.33l.21.2-.36-1.01c-.24-.65-2.32-.1-2.17.58.19.88.51,1.79.5,2.7,0,.56-.26,1.03-.55,1.49-.14.23-.3.44-.46.66-.08.1-.32.54-.45.58-.28.08-1.07.34-.96.77s.97.26,1.21.18h0Z"/>
  <path class="cls-3" d="M831.53,424.38c-.05.21-.07.43-.06.65-.03,1.01,1.94.41,2.18-.25,1.52-4.19,2.28-9.45.54-13.67-1.72-4.16-5.62-6.22-9.95-6.69-5.14-.56-10.39-.59-15.56-.84-4.58-.22-9.16-.46-13.74-.63-4.56-.17-10.37-.5-13.96,2.9-.93.88,1.2.94,1.76.41,1.62-1.54,4.32-1.96,6.46-2.1,1.87-.12,3.78.04,5.65.12,4.03.16,8.06.36,12.08.55,4.59.22,9.18.44,13.77.69,4.34.24,8.85,1.16,10.98,5.42,2.14,4.28,1.37,9.73-.21,14.08l2.18-.25c0-.22.01-.43.06-.65.14-.89-2.05-.54-2.18.25h0Z"/>
  <path class="cls-3" d="M838.92,404.09c-1.01-3.56-3.58-6.49-6.33-8.86s-7.05-4.08-10.84-3.51c-.44.07-1.16.3-1.21.84-.05.51.58.7.98.64,3.4-.51,7.14,1.18,9.6,3.44,2.42,2.23,4.7,4.8,5.62,8.03.26.93,2.44.34,2.17-.58h0Z"/>
  <path class="cls-3" d="M713.1,584.26c-3.51,7.25-6.85,14.59-10.05,21.98-2.44,5.63-4.8,11.3-6.85,17.09-1.93,5.42-3.11,10.82-4.05,16.49-.19,1.16-.38,2.32-.52,3.48-.04.37-.23,1.04-.11,1.41.25.79,1.84.27,2.23-.28.23-.32-.79-.22-.87-.2-.42.07-1.01.22-1.27.59.48-.68,1.96.06,2.08-.64.05-.3.02-.64.05-.94.23-2.31.67-4.61,1.08-6.9.91-5.1,2.23-9.9,4.01-14.77,3.79-10.35,8.33-20.44,12.98-30.43,1.13-2.43,2.27-4.86,3.44-7.27.15-.31-1.87-.17-2.14.39h0Z"/>
  <path class="cls-7" d="M571.98,231.75c-8.84-2.29-29.99-1.1-34.94,1.85,0,0,5.43,15.01,25.94,20.32,20.51,5.31,28.58-6.2,28.58-6.2,0,0-8.31-13.06-19.58-15.97Z"/>
  <path class="cls-18" d="M546.52,231.36s11.49,1.93,20.44,4.25c8.96,2.32,19.92,6.21,19.92,6.21,0,0,3.32-6.89-12.92-11.09-16.24-4.21-27.45.64-27.45.64Z"/>
  <path class="cls-2" d="M567.83,246.32c-9.19-4.07-19.38-10.63-30.79-12.72,0,0,.73,15.58,24.84,21.83,24.11,6.25,29.68-7.7,29.68-7.7-10.99-3.71-13.72-.5-23.73-1.4Z"/>
  <path class="cls-2" d="M583.9,228.92c-4.95-1.74-8.74-.36-10.94-.93-2.2-.57-4.84-3.63-10.02-4.5-4.85-.82-28.4,7.4-26.61,9.73,1.79,2.32,19.91-3.51,35.15.44,15.25,3.95,18.16,15.22,20.85,14.06,2.7-1.16-3.8-17.17-8.44-18.81Z"/>
  <path class="cls-4" d="M581.82,219.56l-2.44,5.35c-.37.82-.35,1.71.05,2.21,2.79,3.47,18.66,14.06,15.43,18.34-.45.6-1.5,3.56-1.41,3.59l1.27-.16c1.31.59,5.22-8.43,4.58-9.96-1.94-4.67-3.92-8.46-5.26-10.61-1.68-2.68-7.13-7.77-9.81-9.98-.71-.58-1.86,0-2.4,1.21Z"/>
  <path class="cls-4" d="M572.92,216l-.94,5.81c-.15.89-.83,1.59-1.72,1.74-6.1,1.02-34.72-.08-33.87,5.37.12.76-.4,5.44-.53,5.41l-1.43-1.66c-1.87-3.66-.64-11.51,1.31-12.33,5.93-2.51,11.25-4.3,14.55-5.17,4.12-1.08,15.52-1.57,20.53-1.65,1.32-.02,2.33,1.17,2.11,2.48Z"/>
  <path class="cls-15" d="M1049.8,716.4c-6.23,6.99-23.73,13.43-43.23,12.07-59.08-4.12-158.88-24.7-212.01-37.43l13.38-18-5.36-20.79,192.71-5.28"/>
  <path class="cls-15" d="M719.11,633.69l14.63-9.03c2.48-1.52,5.33-2.33,8.24-2.34l28.39-.07,29.38,26.63,8.76,4.34.22,39.89-19.06-2.29s-42.75,7.21-46.69,4.58c-3.95-2.63-10.96-10.01-10.96-10.01,0,0-22.32-7.17-24.51-9.11-8.3-7.41-4.97-9.2-4.97-9.2l-3.82-1.76c-.71,1.35-6.28-7.68-5.71-12.23.33-2.64-.45-2.62-.45-2.62-3.75-2.14-6.36-5.83-7.12-10.08-.41-2.7,12.03-6.18,12.03-6.18l26.04,2.36-4.39-2.87Z"/>
  <path d="M678.31,638.69h5.43l56.63-.91-35.84-47.93c-1.84-2.5-4.77-3.98-7.87-3.96l-49.37.12c-1.98,0-6.84,1.62-6.84,3.6l10.78,13.99"/>
  <path class="cls-3" d="M729.9,653.77c-3.03.79-6.25.78-9.37.82s-6.46-.08-9.68-.37-6.1-.71-9.11-1.29-5.96-1.15-8.74-2.41c-.54-.24-2.53.59-1.76.93,2.82,1.28,5.86,1.86,8.89,2.44,3.41.66,6.85,1.13,10.31,1.41,3.3.27,6.61.37,9.92.29,3.29-.07,6.57-.16,9.77-.99.23-.06,1.1-.34.97-.72s-.96-.2-1.2-.14h0Z"/>
  <path class="cls-3" d="M736.98,668.43c-2.53.65-5.1.72-7.7.81s-5.31.06-7.96-.08c-5.35-.29-10.59-1.09-15.82-2.21-4.67-1-8.82-2.99-11.62-7.04-2.04-2.95-2.11-6.32-.29-9.4.36-.62-.51-.77-.9-.76.62-.01-.25,0-.4-.01-.55-.02-1.09-.06-1.63-.11-1.66-.17-3.32-.52-4.89-1.1-1.8-.67-3.5-1.7-4.7-3.21-1.52-1.92-1.9-4.34-1.65-6.73.1-.99-2.1-.62-2.19.22-.26,2.52.11,5.07,1.64,7.16,1.29,1.77,3.21,2.95,5.22,3.73,2.61,1.03,5.54,1.5,8.35,1.45l-.9-.76c-1.67,2.85-2.02,6.05-.5,9.04,1.18,2.31,3.1,4.14,5.18,5.64,1.85,1.33,3.83,2.2,6.05,2.78,5.3,1.39,10.85,2.19,16.31,2.59,3.15.23,6.32.3,9.48.22,3.12-.08,6.22-.17,9.26-.95,1.32-.34.99-1.61-.34-1.27h0Z"/>
  <path class="cls-3" d="M732.88,638.51c-.11.29-.93.46-.55.58.07.02.02-.03.11-.03.27.01.6-.09.87-.12.9-.11,1.81-.19,2.72-.26,2.59-.2,5.19-.34,7.78-.44,2.56-.1,5.13-.17,7.69-.16.89,0,1.78.02,2.67.06.27.01.58.09.84.06.41-.04.23.3.03-.22.33.85,2.49.22,2.17-.58-.38-.99-3.17-.68-3.94-.7-3.15-.05-6.3.04-9.44.17-3.08.13-6.18.28-9.25.58-1.05.1-3.42.04-3.88,1.28-.31.83,1.89.58,2.19-.23h0Z"/>
  <path class="cls-29" d="M727.4,624.7c-.25-.22-.47-.47-.67-.73l-1.71-2.18-6.52-8.17-9.4-12.18-5.52-7.2c-.97-1.18-2.25-2.07-3.7-2.57-.74-.25-1.51-.41-2.29-.46-.77,0-1.71,0-2.46,0l-34.19-.05-10.38-.11h-2.82c-.33.02-.67-.01-.99-.08.32-.08.66-.11.99-.09l2.82-.09,10.38-.18,34.19-.2h2.53c.86.05,1.7.22,2.51.5,1.59.56,3,1.55,4.08,2.86l5.51,7.25,9.24,12.3c2.56,3.41,4.65,6.26,6.17,8.34.67.92,1.2,1.71,1.72,2.29.2.23.38.48.51.75Z"/>
  <path class="cls-3" d="M735.42,627.9c2.27-1.35,4.56-2.73,7.05-3.63,2.75-1,5.67-.96,8.56-1.08,2.74-.12,5.48-.23,8.22-.35,1.02-.04,2.17.06,3.14-.34.26-.11.6-.38.39-.19,0,0-.24.08-.24.08.04,0,.17-.03.24-.03.27,0,.54,0,.8.02,2.06.19,4.04,1.12,5.83,2.09,4.19,2.26,7.91,5.36,11.43,8.54.4.36,2.32-.48,2.05-.71-4.17-3.76-8.76-7.68-14.05-9.77-2.02-.8-4.22-1.3-6.37-.73-.54.14-1.1.33-1.55.66.56-.17,1.13-.34,1.69-.52-2.74.12-5.48.23-8.22.35-2.59.11-5.21.11-7.79.42-4.7.57-8.82,2.82-12.83,5.2-.39.23-.24.34.11.41.44.08,1.16-.19,1.54-.41h0Z"/>
  <path class="cls-3" d="M988.56,647.41c6.51,2.8,12.73,6.35,18.37,10.64,5.56,4.23,10.87,9.35,13.99,15.69,1.57,3.19,2.49,6.65,2.45,10.21,0,.42,2.17.1,2.17-.58.06-6.71-3.27-12.77-7.55-17.73-4.84-5.62-10.95-10.13-17.32-13.87-3.34-1.96-6.8-3.71-10.36-5.24-.51-.22-2.48.59-1.77.89h0Z"/>
  <path class="cls-15" d="M603.12,714.94l21.24.68s48.33,12.56,62.43,10.89c10.14-1.64,20.01-4.87,29.31-9.58l12.17,2.37c5.6,1.09,11.33-.01,16.22-3.13l3.76-2.4s14.6,7.5,16.93,2.59c2.33-4.91-2.5-9.32-7.2-13.6-4.69-4.28-96.31-38.86-96.31-38.86,7.65-4.26,22.6-3.76,30.81-6.48,12.64-4.07,16.03-10.79,9.89-15.22-3.79-2.73-14.62-3.78-21.21.52s-41.06-.59-53.25,5.53c-12.2,6.12-19.35,24.96-19.35,24.96-.99.66-3.47.2-3.47.2-.26,1.88-1.97,41.54-1.97,41.54Z"/>
  <path class="cls-8" d="M681.47,670.42c-6.44-2.11-12.85-4.29-19.27-6.47l.02.81c4.57-2.49,10.17-3.03,15.25-3.68,5.04-.65,10.26-1.04,15.12-2.61,4.47-1.44,9.9-3.58,12.57-7.73,1.91-2.97.92-6.11-1.78-8.17-3.38-2.58-8.49-2.9-12.56-2.66-2.61.16-5.23.69-7.64,1.71-1.42.6-2.64,1.58-4.13,2.02-3.14.92-6.61.95-9.86,1.06-4.55.14-9.09.11-13.64.16-5.27.05-10.55.15-15.8.68-4.12.42-8.47,1.04-12.23,2.89-1.1.54-.1,1.21.72.81,3.14-1.55,6.72-2.11,10.16-2.52,4.42-.52,8.88-.67,13.33-.75,8.07-.14,16.33.37,24.35-.72,1.28-.17,2.57-.4,3.8-.82,1.54-.52,2.83-1.53,4.34-2.13,4.51-1.79,10.08-1.86,14.69-.38,2.93.94,6.23,3.5,5.37,6.97-1.07,4.37-6.75,6.74-10.49,8.11-5.39,1.97-11.19,2.38-16.84,3.12-5.36.7-11.05,1.43-15.86,4.05-.43.23-.43.66.02.81,6.42,2.17,12.83,4.36,19.27,6.47.61.2,2.08-.69,1.07-1.02h0Z"/>
  <path class="cls-8" d="M747.45,713.18c-5.65-2.27-11.68-3.71-17.55-5.31-7.18-1.95-14.38-3.82-21.49-5.99-2.87-.87-5.77-1.76-8.51-2.98-.7-.31-2.05.69-1.04,1.14,5.55,2.47,11.62,3.94,17.47,5.56,7.17,1.98,14.37,3.84,21.52,5.92,2.88.84,5.78,1.68,8.57,2.8.71.28,2.07-.73,1.04-1.14h0Z"/>
  <path class="cls-8" d="M714.71,716.2c-9.65-1.85-19.29-3.71-28.94-5.56-1.37-.26-2.74-.53-4.1-.79-.38-.07-.91.02-1.24.22-.12.08-.63.39-.21.47,9.65,1.85,19.29,3.71,28.94,5.56,1.37.26,2.74.53,4.1.79.38.07.91-.02,1.24-.22.12-.08.63-.39.21-.47h0Z"/>
  <path class="cls-8" d="M365.15,610.83c-3.45-.33-6.94.85-10.07,2.18-3.73,1.59-7.27,3.61-10.65,5.83-2.64,1.73-5.31,3.55-7.64,5.71-2.08,1.92-3.43,4.59-4.74,7.06-1.12,2.11-2.15,4.27-2.99,6.51-.58,1.57-1.2,3.3-1.1,5,.04.59,2.22.17,2.17-.58-.09-1.41.43-2.88.89-4.19.61-1.74,1.37-3.42,2.17-5.07,1.32-2.7,2.75-5.74,4.81-7.98,1.66-1.8,3.83-3.24,5.82-4.63,3.05-2.13,6.25-4.08,9.58-5.75,3.07-1.53,6.84-3.35,10.38-3.01.48.05,1.18-.05,1.54-.41.28-.28.32-.62-.18-.67h0Z"/>
  <path class="cls-30" d="M502.88,916.37c5.25-13.23,15.31-24.32,28.02-30.75.39-.2.59-.49.23-.78s-1.28.08-1.61.24c-13.07,6.62-23.5,17.99-28.91,31.61-.24.61,2,.36,2.27-.33h0Z"/>
</svg>