<?xml version="1.0" encoding="UTF-8"?>
<svg xmlns="http://www.w3.org/2000/svg" xmlns:xlink="http://www.w3.org/1999/xlink" viewBox="0 0 1334 1000">
  <defs>
    <style>
      .cls-1 {
        fill: #cb8c2a;
      }

      .cls-2 {
        fill: #6b3925;
      }

      .cls-3 {
        fill: #542c23;
      }

      .cls-4 {
        fill: #26180f;
      }

      .cls-5 {
        fill: #1d3942;
      }

      .cls-6 {
        fill: url(#linear-gradient-2);
      }

      .cls-7 {
        fill: none;
        stroke: #542c23;
        stroke-miterlimit: 10;
        stroke-width: .75px;
      }

      .cls-8 {
        fill: #4f2f25;
      }

      .cls-9 {
        fill: #604739;
      }

      .cls-10 {
        fill: #f0ecf5;
      }

      .cls-11 {
        fill: #a66e53;
      }

      .cls-12 {
        fill: #f09923;
      }

      .cls-13 {
        fill: url(#linear-gradient);
        opacity: .5;
      }

      .cls-14 {
        fill: #fff;
      }

      .cls-15 {
        fill: #0a1a29;
      }

      .cls-16 {
        fill: #662118;
      }

      .cls-17 {
        fill: #8c3f1e;
      }

      .cls-18 {
        fill: #c5cc8a;
      }

      .cls-19 {
        fill: #b03829;
      }

      .cls-20 {
        fill: #dc8828;
      }

      .cls-21 {
        fill: #0f0d0c;
      }

      .cls-22 {
        fill: #a57351;
      }

      .cls-23 {
        fill: #636464;
      }

      .cls-24 {
        fill: #8c6528;
      }

      .cls-25 {
        fill: #4d596a;
      }

      .cls-26 {
        fill: #b05f28;
      }

      .cls-27 {
        fill: #efe8cf;
      }
    </style>
    <linearGradient id="linear-gradient" x1="-2562.92" y1="4874.11" x2="-1812.12" y2="4874.11" gradientTransform="translate(-4218.07 2497.03) rotate(90) scale(1 -1)" gradientUnits="userSpaceOnUse">
      <stop offset="0" stop-color="#ede8de"/>
      <stop offset=".18" stop-color="#ebe5db" stop-opacity=".99"/>
      <stop offset=".33" stop-color="#e5ded2" stop-opacity=".97"/>
      <stop offset=".47" stop-color="#dbd1c3" stop-opacity=".93"/>
      <stop offset=".6" stop-color="#cdbfae" stop-opacity=".88"/>
      <stop offset=".72" stop-color="#bba993" stop-opacity=".81"/>
      <stop offset=".84" stop-color="#a58d71" stop-opacity=".73"/>
      <stop offset=".96" stop-color="#8b6c4a" stop-opacity=".64"/>
      <stop offset="1" stop-color="#82603c" stop-opacity=".6"/>
    </linearGradient>
    <linearGradient id="linear-gradient-2" x1="908.45" y1="-3001.21" x2="926.18" y2="-2846.42" gradientTransform="translate(9.78 -2591.59) rotate(.28) scale(1 -1)" gradientUnits="userSpaceOnUse">
      <stop offset=".16" stop-color="#a46f54"/>
      <stop offset=".53" stop-color="#a46f54"/>
      <stop offset=".62" stop-color="#7c543f"/>
      <stop offset=".75" stop-color="#483123"/>
      <stop offset=".86" stop-color="#211610"/>
      <stop offset=".94" stop-color="#0d0b0b"/>
      <stop offset=".99" stop-color="#000"/>
    </linearGradient>
  </defs>
  <g id="Layer_3" data-name="Layer 3">
    <polyline class="cls-27" points="1359.56 1005.46 1359.56 -32.23 -47.48 -32.23 -47.48 1005.46"/>
    <polyline class="cls-13" points="1359.56 682.43 -47.48 682.43 -47.48 -68.37 1359.56 -68.37"/>
    <g>
      <rect class="cls-14" x="1095.84" y="74.72" width="162.81" height="134.15"/>
      <path class="cls-22" d="M1259.68,73.66c-47.52,0-95.05,0-142.57,0-6.75,0-13.49,0-20.24,0-.85,0-3.46.52-3.46,1.71,0,39.16,0,78.33,0,117.49,0,5.55,0,11.11,0,16.66,0,.48,1.17.41,1.4.41,47.52,0,95.05,0,142.57,0,6.75,0,13.49,0,20.24,0,.85,0,3.46-.52,3.46-1.71,0-39.16,0-78.33,0-117.49,0-5.55,0-11.11,0-16.66,0-.92-4.85-.2-4.85,1.3,0,39.16,0,78.33,0,117.49,0,5.55,0,11.11,0,16.66,1.15-.57,2.3-1.14,3.46-1.71-47.52,0-95.05,0-142.57,0-6.75,0-13.49,0-20.24,0l1.4.41c0-39.16,0-78.33,0-117.49,0-5.55,0-11.11,0-16.66-1.15.57-2.3,1.14-3.46,1.71,47.52,0,95.05,0,142.57,0,6.75,0,13.49,0,20.24,0,1.42,0,5.27-2.11,2.06-2.11Z"/>
    </g>
    <rect class="cls-18" x="1134.5" y="100.7" width="84.88" height="85.16" transform="translate(2353.88 286.56) rotate(-180)"/>
    <path class="cls-27" d="M1219.69,128.12c-4.35.19-8.64.97-12.49,2.35-10.42,3.72-17.28,11.3-28.31,14.09-8.41,2.13-18.02,1.06-26.13-1.54-6.57-2.1-12.36-5.13-17.94-8.3v-36.56h84.88v29.96Z"/>
    <g>
      <rect class="cls-14" x="904.02" y="74.72" width="162.81" height="134.15"/>
      <path class="cls-22" d="M903.05,210.16c47.52,0,95.05,0,142.57,0,6.75,0,13.49,0,20.24,0,1.09,0,3.39-.52,3.39-1.93,0-39.16,0-78.33,0-117.49,0-5.55,0-11.11,0-16.66,0-.56-1.13-.63-1.46-.63-47.52,0-95.05,0-142.57,0-6.75,0-13.49,0-20.24,0-1.09,0-3.39.52-3.39,1.93,0,39.16,0,78.33,0,117.49,0,5.55,0,11.11,0,16.66,0,1.33,4.85.48,4.85-1.3,0-39.16,0-78.33,0-117.49,0-5.55,0-11.11,0-16.66-1.13.64-2.26,1.29-3.39,1.93,47.52,0,95.05,0,142.57,0,6.75,0,13.49,0,20.24,0l-1.46-.63c0,39.16,0,78.33,0,117.49,0,5.55,0,11.11,0,16.66,1.13-.64,2.26-1.29,3.39-1.93-47.52,0-95.05,0-142.57,0-6.75,0-13.49,0-20.24,0-1.71,0-5.19,2.57-1.94,2.57Z"/>
    </g>
    <rect class="cls-18" x="943.3" y="97.73" width="84.88" height="85.16"/>
    <path class="cls-27" d="M942.99,155.47c4.35-.19,8.64-.97,12.49-2.35,10.42-3.72,17.28-11.3,28.31-14.09,8.41-2.13,18.02-1.06,26.13,1.54,6.57,2.1,12.36,5.13,17.94,8.3v36.56h-84.88v-29.96Z"/>
  </g>
  <g id="Layer_1" data-name="Layer 1">
    <path class="cls-9" d="M821.71,1247.82c.78-19.47,1.53-38.95,2.13-58.43,1.37-44.82,47.36-89.62,47.36-134.45l-10.4-648.01-602.02-1.7c-130.35.02-152.04,46.39-155.31,201.76-11.8-9.07-130.29-7.45-165.31-7.45-51.46,5.04-75.64,69.95-80.05,159.39l-2.98,118.51-1.68.64c-28.37,17.06-44.42,41.79-44.48,79.67v98.87c.11,24.59,13.93,46.08,33.81,52.59v138.61h978.94Z"/>
    <path class="cls-19" d="M607.92,586.36c-2.59-4.77,3.81,2.21,2.41-3.04-1.29-4.82-.48-14.72-.76-19.7-.54-9.76,3.03-3.91,5.33-13.4,3.37-13.86,11.61-11.3,20.58-22.68-17.01-23.62-98.54-155.37-111.62-166.96-8.62-7.64-18.11-14.07-26.97-17.09l-59.66-16.85h0c-15.54,25.19-11.78,39.96-2.5,65.38,6.61,18.12,14.8,27.74,25.79,43.58,23.01,33.15,48.91,63.78,72.38,96.6,11.86,16.58,33.73,47.17,51.67,57.63,8.73,5.09,21.43,10.15,33.67,11.71-.62-1.04-9.76-14.11-10.34-15.18Z"/>
    <path class="cls-9" d="M1479.5,879l-1.68-.64-2.98-118.51c-4.41-89.44-28.59-154.35-80.05-159.39-35.03,0-153.51-1.62-165.31,7.45-3.75-168.99,13.62-201.76-240.19-201.76l-279.78.68c-2.99,68.59-11.13,59.37-21.23,127.26-12.67,85.16,12.14,169.8-.83,254.91-6.52,42.77,49.79,85.86,44.27,128.77-5.63,43.72-11.31,87.43-16.85,131.16-8.41,66.5-16.48,133.1-23.41,199.81h798.7v-138.61c19.89-6.51,33.71-28,33.81-52.59v-98.87c-.06-37.89-16.11-62.61-44.48-79.67Z"/>
    <path class="cls-19" d="M599.75,519.79c-5.63,8.13,4.31,27.98,1.07,37.31-3.1,8.93-4.82,8.15-5.1,17.62-.16,5.21,7.3,2.28,8.35,7.39,1.08,5.24-7.47-6.16-5.29-1.27.08.18,7.4,18.01,7.48,18.18,6.71,1.5,15.65,3.71,21.49,2.12,19.8-.38,58.9-15.64,60.22-17.39,43.87-19.59,109.96-30.05,140.95-46.81l10.43-20.95,1.06-16.33,6.6-26.07-1.93-6.15s-56.98,12.13-109.51,24.72c-44.89,10.76-118.8,17.56-118.8,17.56"/>
    <path class="cls-11" d="M969.33,337.57s-9.89,49.08-5.64,66.41c1.03,4.21,22.63,18.23,22.63,18.23l-104.31,42.21-35.66-42.45s29.72-20.14,31.6-24.89c1.88-4.75,4-41.71,4-41.71"/>
    <path class="cls-3" d="M878.19,391.74s19.88,2.59,25.56,1.99c5.69-.6,15.45-1.89,44.16-19.34,0,0-12.41,23.98-41.66,26.72,0,0-26.81.59-28.63-3.81l.57-5.56Z"/>
    <path class="cls-11" d="M954.57,368.29c-15,15.14-29.55,25.73-49.57,28.74-19.64,2.95-39.86-5.69-42.42-8.7-14.02-16.53-18.33-29.42-22.93-48.17-1.25-5.09-1.13-10.51-.5-16.02.94-8.27,3.34-24.11,3.63-32.05.75-20.22.6-40.35,12.61-56.75,25.03-34.16,83.57-28.64,103.56-17.82,23.36,12.64,32.96,36.36,33.15,61.05.06,8.05-1.15,15.52-3.51,22.36-3.6,3.59-6.77,7.52-9.49,11.72"/>
    <path class="cls-11" d="M962.8,350.13c9.68,11.05,19.78-2.74,19.78-2.74,10.49-11.4,11.12-24.07,11.19-32.76.07-8.68-9.47-9.03-9.47-9.03-8.14.48-7.05,1.49-19.17,23.98"/>
    <path d="M911.97,302.85c2.44-.99,5.07.31,6.47,1.81.33.35,1.21,1.35,1.52,2.93.39,2.01-.6,4.16-1.96,5.39-1.81,1.65-4.58,1.7-6.59.52-2.72-1.6-3.33-5.11-2.39-7.54.17-.44.97-2.31,2.94-3.11"/>
    <path d="M898.66,311.73s9.28-10.34,17.98-9.58c12.24,1.07,14.46,7.83,16.78,11.44,0,0-7.14-8.64-16.62-9.25-8.6-.56-18.14,7.39-18.14,7.39Z"/>
    <path d="M856.52,297.78c-2.06-1.42-4.71-.61-6.26.6-.37.28-1.35,1.11-1.91,2.6-.72,1.91-.19,4.2.83,5.66,1.37,1.95,3.89,2.5,5.94,1.71,2.78-1.08,3.96-4.42,3.53-6.98-.08-.47-.47-2.45-2.14-3.59"/>
    <path d="M870.97,309.51s-5.96-11.69-13.48-12.36c-10.58-.94-13.71,5.34-16.35,8.52,0,0,7.65-7.33,15.81-6.39,7.4.85,14.02,10.23,14.02,10.23Z"/>
    <g>
      <path d="M877.18,340.54c2.17,1.38,5.66,1.39,8.06.15.53-.27,2.2.17,1.45.56-3.17,1.63-8.15,1.39-10.96-.39-.28-.18-.21-.4.17-.49.39-.1.99-.02,1.28.17"/>
      <path d="M887.73,340.68c1.58-.6,3.33-.84,5.04-.83.25,0,.57.12.74.3.13.14.15.32-.05.41-.82.39-1.84.49-2.76.4-.29-.03-.67-.13-.81-.4-.13-.24.16-.37.39-.35.76.08,1.55-.01,2.23-.33.23.24.46.47.69.71-1.53,0-3.09.22-4.51.76-.28.11-.67,0-.9-.17-.17-.12-.35-.39-.06-.5"/>
      <path d="M894.49,341.45c2,.11,4.42-.56,5.52-1.99,1.67-2.15.58-6.09-1.79-7.75-.26-.18-.1-.37.18-.41.36-.05.78.12,1.05.31,2.07,1.45,3.23,4.74,2.74,6.85-.47,1.97-2.49,3.21-4.92,3.59-.72.11-1.49.17-2.24.12-.3-.02-.84-.15-.97-.4-.13-.25.15-.34.44-.32"/>
      <path d="M873.61,339.22c.13-.22-.06-.39-.22-.4-.54-.03-1.08-.23-1.51-.64-.19.2-.39.4-.58.61,1.07.21,2.12.65,3.04,1.38.18.15.46.08.65-.05.14-.1.3-.34.11-.48"/>
      <path d="M875.1,339.64c-1.02-.81-2.2-1.29-3.4-1.53-.18-.03-.41.04-.55.2-.11.12-.15.29-.02.41"/>
      <path d="M869.44,339.15c-1.3-.16-2.75-1.15-3.27-2.71-.78-2.35.33-4.98,2.07-6.3.19-.14.11-.36-.06-.43-.23-.1-.51.01-.71.16-1.51,1.15-2.6,3.14-2.56,5.29.04,2.01,1.17,3.51,2.68,4.21.45.21.93.37,1.42.43.2.02.56-.04.67-.27.12-.23-.05-.35-.24-.37"/>
    </g>
    <path d="M905.01,275.55c-.72,1.81-1.43,3.64-2.15,5.46-.54,1.39-1.09,2.78-1.62,4.17,4.54.45,10.52,1.83,13.36,2.37,5.62,1.08,11.32,2.62,16.26,5.59,2.37,1.43,4.31,3,5.87,5.24.49.71,1.53,3.33,2.72,3.23.49-.04.71-2.54.73-2.8.41-5.05-2.41-8.34-6.36-11.14-8.04-5.71-17.09-9.02-26.63-11.37"/>
    <path d="M842.1,287.58c-.32-1.87-.26-3.72-.26-3.72.69-.58,1.44-1.11,2.24-1.61,7.35-4.56,15.47-6.62,23.97-7.68.54,1.87,1.08,3.76,1.62,5.64.41,1.44.82,2.87,1.22,4.3-4.02-.16-7.38-.04-9.9.12-5,.32-10.08,1.09-14.57,3.36-1.3.66-2.46,1.4-3.51,2.32l-.8-2.74Z"/>
    <path class="cls-3" d="M972.39,328.89c2.07-4.05,4.29-8.06,7-11.72.8-1.07,1.64-2.13,2.58-3.08.35-.36.72-.71,1.11-1.04.15-.13.3-.26.46-.38.08-.06.45-.33.33-.25.26-.18.53-.34.8-.49.22-.12-.17.06.12-.06.1-.04.2-.08.31-.12.13-.05-.28.07.02,0s-.12,0-.04,0c.38-.02-.1-.02.07-.02.25,0-.22-.07-.06,0,.05.02-.34-.31-.24-.08.08.18.39.39.53.54.32.36.62.74.9,1.14,2.45,3.49,2.8,7.86,1.66,11.9-.2.73,1.97.42,2.17-.29,1.11-3.94.85-8.12-1.3-11.66-.52-.85-1.43-2.58-2.57-2.7-1.03-.11-2.11.33-2.99.82-1.82,1-3.31,2.6-4.62,4.17-3.34,4.02-5.9,8.69-8.26,13.32-.45.88,1.71.62,2.01.01h0Z"/>
    <path class="cls-3" d="M972.66,332.26c3.27.13,1.93,4.23,1.44,6.26-.39,1.59-1.69,5.99,1.38,5.8,1.38-.09,2.3-1.31,2.95-2.4,1.11-1.86,1.81-3.98,2.43-6.04.76-2.57,1.09-4.71.87-7.37-.28-3.43-1.45-7.02-4.8-8.54-.86-.39-2.51.84-1.27,1.41,2.62,1.19,3.51,4.37,3.82,6.99.22,1.88.21,3.75-.24,5.59-.53,2.15-1.19,4.3-2.12,6.32-.32.69-.66,1.4-1.11,2.01-.05.07-.51.54-.5.57,0,.02.44.02.48-.04-.02.03-.3-.87-.31-.96-.02-.55.1-1.12.2-1.66.25-1.26.62-2.5.87-3.76s.47-2.68-.06-3.87c-.57-1.29-1.92-1.74-3.24-1.79-.49-.02-1.21.14-1.42.65-.19.47.17.84.65.86h0Z"/>
    <g>
      <path d="M943.56,185.47c-.18.09-.2.09,0,0h0Z"/>
      <path d="M950.44,199.36c-.1-.19-.2-.34-.28-.43.09.17.18.33.28.49,0-.02,0-.04,0-.06Z"/>
      <path d="M950.44,199.43s0,.04,0,.05l.1.13c-.04-.06-.07-.12-.11-.18Z"/>
    </g>
    <path class="cls-6" d="M946.12,242.1c6.63,2.32,15.22,23.77,14.45,30.75-.95,8.6-1.83,18.79-1.32,20.47,1.16,3.83,2.2,4.41,5.64,15.73l-1.43,8.14c0,1.82-.6,6.57-.54,10.95,1.07.56,1.79,1.38,2.98,1.2,3.97-.19,1.65-3.56,2.8-7.24,1.8-5.8,3.37-10.56,8.21-14.62,1.6-1.35,5.9-.95,7.75-1.68,4.78-.15,7.06,3,7.06,3,0,0,.31-3.98.86-6.06,1.43-6.37,3.87-10.54,6.25-27.69,3.67-26.13-39.29-54.06-64.04-57.45-13.61-1.87-73.11,2.56-84.73,8.32-7.4,3.66.88,11.04-2.05,22.14,3.94-1.81,2.54-7.92,6.75-8.95,10.85-2.67,3.09-.76,23.08,4.63,7.32,1.98,15.02,2.13,22.42.46,12.42-2.8,33.52-6.42,45.86-2.11Z"/>
    <path d="M852.72,229.79c-1.61-.29-2.85-1.58-3.08-3.2-.37-1.6-.24-3.19-.58-4.68-.47-2.09-1.8-4.27-.89-6.21.9-1.94,3.2-2.31,5.21-2.29-1.05-1.88-.38-4.25,1.5-5.3,1.28-.72,2.86-.65,4.08.17-.32-3.68,2.41-6.93,6.09-7.25,1.4-.12,2.81.2,4.02.92-.61-2.7-.32-5.92,1.82-7.66,2.15-1.74,6.29-.5,6.21,2.26.16-2.21,2.06-3.88,4.28-3.74,2.19.29,3.85,2.12,3.95,4.32,1.73-1.59,1.71-4.42,3.22-6.16,2.29-2.54,7.42-.57,7.43,2.84,1.21-2.26,2.65-4.77,5.11-5.51,2.82-.7,5.68,1.01,6.38,3.83.08.32.13.65.15.99,1.3-2.36,3.28-4.28,5.69-5.49.74-.43,1.59-.63,2.44-.58,1.8.23,2.8,2.2,3.17,3.95.37,1.76.82-.52,2.12.72.86-2.47,1.94-1.08,4.61-1.53,3.4-.61,5.87,2.18,7.05,5.42,1.05-2.5,2.57-4.32,5.28-4.15,1.74.26,3.17,1.52,3.65,3.21.5,1.63,1.11,1.07.96,2.77,1.43-2.64,3.08-2.6,5.62-4.2.67-.52,1.51-.75,2.35-.64.85.33,1.51,1.01,1.82,1.86,1.07,2.14,1.68,4.48,1.78,6.87,1.68-1.51,3.52-2.82,5.5-3.9.53-.36,1.16-.55,1.8-.55,1.29.12,1.99,1.6,2.17,2.85-.02,1.29.27,2.56.84,3.72,2.11-1.41,4.69-2.72,7.12-1.97,2.44.75,7.02,5.28,4.77,6.46l2.99-1.75c3.64-.67,6.42,2.31,6.85,3.17.29.59.23,1.3-.17,1.83l-.82,2.7c2.82-1.25,6.08-.93,8.61.84,2.32,1.94,5.9,7.35,3.29,8.89,3.33,1.15,6.54,2.78,5.39,6.1-.15.44-.35.85-.59,1.25,3.26,4.31,3.71,6.45.61,22.82.09,1.29-4.73,27.43-5.43,28.53-1.38,1.72-6.64-29.82-8.66-30.66-5.98-2.5-5.22-8-10.31-12.11-11.25-8.92-26.76-9.49-41.13-9.67"/>
    <path class="cls-21" d="M-121.9,878.24c.23,0,.47,0,.7,0h2.08c1.14-.01,2.28-.02,3.42-.02,1.58,0,3.15-.01,4.73-.02,1.99,0,3.98-.01,5.97-.02l7.23-.02c2.81,0,5.62-.02,8.44-.03,3.2-.01,6.4-.02,9.6-.03l10.74-.04,11.84-.04c4.3-.01,8.6-.03,12.91-.04,4.63-.02,9.25-.03,13.88-.05,4.98-.02,9.95-.03,14.93-.05,5.3-.02,10.6-.04,15.89-.05,5.61-.02,11.22-.04,16.82-.06,5.91-.02,11.81-.04,17.72-.06,6.16-.02,12.33-.04,18.49-.06l19.4-.07,20.19-.07c6.98-.02,13.96-.05,20.95-.07,7.22-.02,14.45-.05,21.67-.07,7.45-.03,14.9-.05,22.36-.08,7.67-.03,15.34-.05,23.01-.08,7.84-.03,15.68-.05,23.52-.08,8.07-.03,16.14-.06,24.21-.08,8.25-.03,16.51-.06,24.76-.09,8.42-.03,16.85-.06,25.27-.09,8.58-.03,17.17-.06,25.75-.09,8.73-.03,17.47-.06,26.2-.09,8.87-.03,17.74-.06,26.61-.09l26.87-.09c9.11-.03,18.22-.06,27.33-.09,9.21-.03,18.43-.06,27.64-.1,9.3-.03,18.61-.06,27.91-.1l28.15-.1c9.45-.03,18.91-.07,28.36-.1,9.51-.03,19.02-.07,28.53-.1,9.51-.03,19.03-.07,28.54-.1l28.77-.1c9.61-.03,19.22-.07,28.84-.1,9.62-.03,19.25-.07,28.87-.1,9.62-.03,19.25-.07,28.87-.1,9.57-.03,19.14-.07,28.71-.1,9.59-.03,19.17-.07,28.76-.1,9.55-.03,19.1-.07,28.66-.1l28.52-.1c9.45-.03,18.9-.07,28.34-.1s18.76-.06,28.14-.1c9.3-.03,18.6-.06,27.89-.1,9.17-.03,18.33-.06,27.5-.09,9.1-.03,18.21-.06,27.31-.09,8.99-.03,17.97-.06,26.96-.09,8.86-.03,17.72-.06,26.58-.09,8.72-.03,17.44-.06,26.17-.09,8.57-.03,17.15-.06,25.72-.09,8.41-.03,16.82-.06,25.23-.09s16.41-.06,24.61-.08c8.06-.03,16.11-.06,24.17-.08,7.86-.03,15.72-.05,23.58-.08,7.65-.03,15.31-.05,22.96-.08l22.3-.08c7.17-.02,14.35-.05,21.52-.07,6.96-.02,13.93-.05,20.89-.07,6.71-.02,13.42-.05,20.13-.07,6.45-.02,12.89-.04,19.34-.07,6.17-.02,12.34-.04,18.51-.06,5.88-.02,11.77-.04,17.65-.06l16.75-.06c5.25-.02,10.5-.04,15.75-.05,4.95-.02,9.91-.03,14.86-.05l13.86-.05c4.28-.01,8.55-.03,12.83-.04,3.92-.01,7.84-.03,11.76-.04,3.55-.01,7.1-.02,10.65-.04,3.17-.01,6.34-.02,9.51-.03,2.77,0,5.54-.02,8.31-.03,2.38,0,4.76-.02,7.14-.02l5.9-.02c1.54,0,3.08-.01,4.62-.02,1.1,0,2.21,0,3.31-.01h1.97c.2,0,.4,0,.6,0,.43,0,1.24-.14,1.43-.61.18-.44-.15-.7-.61-.7-.23,0-.47,0-.7,0h-2.08c-1.14.01-2.28.02-3.42.02-1.58,0-3.15.01-4.73.02-1.99,0-3.98.01-5.97.02l-7.23.02c-2.81,0-5.62.02-8.44.03-3.2.01-6.4.02-9.6.03l-10.74.04-11.84.04c-4.3.01-8.6.03-12.91.04-4.63.02-9.25.03-13.88.05-4.98.02-9.95.03-14.93.05-5.3.02-10.6.04-15.89.05-5.61.02-11.22.04-16.82.06-5.91.02-11.81.04-17.72.06-6.16.02-12.33.04-18.49.06-6.47.02-12.93.04-19.4.07-6.73.02-13.46.05-20.19.07-6.98.02-13.96.05-20.95.07-7.22.02-14.45.05-21.67.07-7.45.03-14.9.05-22.36.08-7.67.03-15.34.05-23.01.08-7.84.03-15.68.05-23.52.08-8.07.03-16.14.06-24.21.08-8.25.03-16.51.06-24.76.09s-16.85.06-25.27.09c-8.58.03-17.17.06-25.75.09l-26.2.09c-8.87.03-17.74.06-26.61.09s-17.92.06-26.87.09c-9.11.03-18.22.06-27.33.09-9.21.03-18.43.06-27.64.1-9.3.03-18.61.06-27.91.1-9.38.03-18.77.06-28.15.1-9.45.03-18.91.07-28.36.1-9.51.03-19.02.07-28.53.1s-19.03.07-28.54.1-19.18.07-28.77.1c-9.61.03-19.22.07-28.84.1-9.62.03-19.25.07-28.87.1-9.62.03-19.25.07-28.87.1-9.57.03-19.14.07-28.71.1-9.59.03-19.17.07-28.76.1-9.55.03-19.1.07-28.66.1-9.51.03-19.01.07-28.52.1-9.45.03-18.9.07-28.34.1l-28.14.1c-9.3.03-18.6.06-27.89.1-9.17.03-18.33.06-27.5.09-9.1.03-18.21.06-27.31.09-8.99.03-17.97.06-26.96.09-8.86.03-17.72.06-26.58.09-8.72.03-17.44.06-26.17.09-8.57.03-17.15.06-25.72.09-8.41.03-16.82.06-25.23.09-8.2.03-16.41.06-24.61.08-8.06.03-16.11.06-24.17.08-7.86.03-15.72.05-23.58.08-7.65.03-15.31.05-22.96.08-7.43.03-14.87.05-22.3.08-7.17.02-14.35.05-21.52.07-6.96.02-13.93.05-20.89.07-6.71.02-13.42.05-20.13.07s-12.89.04-19.34.07-12.34.04-18.51.06c-5.88.02-11.77.04-17.65.06s-11.17.04-16.75.06c-5.25.02-10.5.04-15.75.05-4.95.02-9.91.03-14.86.05l-13.86.05c-4.28.01-8.55.03-12.83.04-3.92.01-7.84.03-11.76.04-3.55.01-7.1.02-10.65.04-3.17.01-6.34.02-9.51.03-2.77,0-5.54.02-8.31.03-2.38,0-4.76.02-7.14.02l-5.9.02c-1.54,0-3.08.01-4.62.02h-3.31c-.66.01-1.31.02-1.97.02-.2,0-.4,0-.6,0-.43,0-1.24.14-1.43.61-.18.44.15.7.61.7h0Z"/>
    <path class="cls-21" d="M1224.65,611.91c-11.34,15.39-21.92,31.79-29.59,49.34-4.11,9.4-6.78,19.21-8.27,29.35-1.58,10.75-2.03,21.63-2.45,32.47-.58,15.01-.96,30.03-1.31,45.04-.42,17.68-.78,35.36-1.12,53.04-.31,15.55-.59,31.09-.93,46.64-.03,1.55-.07,3.1-.1,4.65,0,.37,2.16.07,2.17-.58.33-14.97.61-29.93.9-44.9.34-17.62.69-35.23,1.1-52.85.36-15.56.73-31.12,1.28-46.68.72-20.33,1.18-41.25,8.42-60.53,3.37-8.98,7.83-17.56,12.63-25.85,4.83-8.34,10.09-16.44,15.65-24.31,1.24-1.75,2.49-3.49,3.76-5.21.24-.33-.8-.25-.88-.23-.44.07-.99.23-1.27.61h0Z"/>
    <path class="cls-21" d="M1287.71,611.71c-11.3,15.34-21.82,31.66-29.51,49.13-4.12,9.36-6.84,19.13-8.35,29.24-1.63,10.87-2.08,21.87-2.51,32.83-.58,15.01-.96,30.03-1.31,45.04-.42,17.68-.78,35.36-1.12,53.04-.31,15.55-.59,31.09-.93,46.64-.03,1.55-.07,3.1-.1,4.65-.02.87,2.15.41,2.17-.28.33-14.97.61-29.93.9-44.9.34-17.62.69-35.23,1.1-52.85.36-15.56.73-31.12,1.28-46.68.72-20.24,1.16-41.08,8.3-60.29,3.37-9.06,7.85-17.69,12.68-26.04,4.83-8.34,10.09-16.44,15.65-24.31,1.24-1.75,2.49-3.49,3.76-5.21.56-.77-1.61-.59-2.02-.03h0Z"/>
    <path class="cls-21" d="M103.25,612.02c11.34,15.39,21.92,31.78,29.59,49.34,4.07,9.32,6.74,19.05,8.23,29.12,1.61,10.83,2.06,21.8,2.48,32.73.58,15.03.96,30.06,1.31,45.1.42,17.62.77,35.24,1.12,52.86.31,15.55.59,31.09.93,46.64.03,1.55.07,3.1.1,4.65,0,.3,2.19-.01,2.17-.58-.33-15.03-.61-30.05-.91-45.08-.34-17.56-.69-35.11-1.09-52.67-.36-15.61-.74-31.21-1.29-46.81-.72-20.32-1.19-41.24-8.42-60.5-3.38-8.98-7.83-17.55-12.63-25.85-4.83-8.34-10.09-16.44-15.65-24.31-1.24-1.75-2.49-3.49-3.76-5.21-.36-.5-2.3.41-2.17.58h0Z"/>
    <path class="cls-21" d="M40.25,612.02c11.34,15.39,21.92,31.78,29.59,49.34,4.07,9.32,6.74,19.05,8.23,29.12,1.61,10.83,2.06,21.8,2.48,32.73.58,15.03.96,30.06,1.31,45.1.42,17.62.77,35.24,1.12,52.86.31,15.55.59,31.09.93,46.64.03,1.55.07,3.1.1,4.65,0,.41,2.19.07,2.17-.58-.33-15.03-.61-30.05-.91-45.08-.34-17.56-.69-35.11-1.09-52.67-.36-15.61-.74-31.21-1.29-46.81-.72-20.32-1.19-41.24-8.42-60.5-3.38-8.98-7.83-17.55-12.63-25.85-4.83-8.34-10.09-16.44-15.65-24.31-1.24-1.75-2.49-3.49-3.76-5.21-.41-.55-2.37.31-2.17.58h0Z"/>
    <path class="cls-15" d="M793.55,860.73c-1.63-4.94-1.17,13.65-3.22,8.9-4.65-10.73-10.26-20.98-16.51-30.75-6.43-10.04-13.59-19.57-21.43-28.41-5.33-6-11-11.71-17.01-16.96,95.89-41.36,321.18-80.45,321.18-80.45,0,0,73.61,38.89,49.32,121.47-7.28,24.74-24.06,31.01-56.1,36.01-75.89,11.85-198.99-3.84-256.2-9.82-.39-.04.38.04,0,0Z"/>
    <path class="cls-15" d="M708.21,871.47c20.92,59.8,67.13,228.94,95.94,301.25,0,0,79.24,4.03,85.21-14.2,0,0,1.73-405.02-46.84-411.57-35.8-4.82-96.73,8.14-115.21,23.34-22.19,18.24-35.57,54.08-19.1,101.18Z"/>
    <path class="cls-15" d="M746.94,831.39s12.17-2.34,29.55-1.98c-3.36-7.29-4.51-12.73-4.51-12.73,1.61-1.84,3.32-3.73,5.11-5.66,9.95,2.33,19.67,5.53,29.1,9.36,10.97,4.45,21.58,9.74,31.71,15.77,9.76,5.81,19.09,12.37,27.69,19.7,2.44,2.07,4.81,4.22,7.11,6.44-.29.09,4.78-.66,4.48-.57,33.6,35.09,32.76,113.43,52.2,184.52,14.26,52.14,32.86,112.47,32.86,112.47-7.72,17.54-103.84,24.74-103.84,24.74-34.17-94.62-111.45-352.06-111.45-352.06Z"/>
    <path class="cls-12" d="M1068.18,438.49c-5.61-9.92-31.74-24.88-42.95-28.9-29.2-10.44-55.24-19.27-55.24-19.27,0,0-26.88,44.3-70.39,41.09-43.52-3.21-24.28-27.74-24.28-27.74l-12.93,5.38c-19.3,9.29-37.31,18.75-51.45,34.94-12.03,13.79-17.97,21.34-25.82,42.99-3.98,10.99-5.61,22.56-16.99,54.9-1.12,3.17-11.45,21.41-11.54,22.04-.66,4.67,19.16,19.99,38.82,24.62,9.96,2.34,18.97,1.41,23.37,3.03.57.95,9.84,71.18,10.04,72.51,3.17,21.09,4.68,38.74,5.29,62.23.01.53,5.18,35.76,5.2,36.29,1.77-.17-7.22.71-5.45.55,27.93-2.46,46.64-9.95,76.69-14.1,13.98-1.93,31.52-3.57,45.62-3.46,2.86.02,4.77.09,7.79.06,2.62-.02,5.23-.08,7.85-.14,14.36-.35,48.85-9.06,63.21-8.89,15.21.18,44.14-3.1,59-.01,2.86.59,11.79,27.6,14.88,28.57-.12-5.86-9.11-29.68-9.26-35.54-1.45-50.34-27.06-68.93-35.62-161.19l3.54-10.06,20.15-21.76c-4.95-57.32-5.51-73.34-19.52-98.13Z"/>
    <g>
      <path class="cls-12" d="M963.51,386.23s-15.39,42.23-58.16,43.67c-42.77,1.44-32.22-22.35-32.22-22.35l2.89-7.28-14.39,9.36s-.85,10.56,5.23,20.08c6.08,9.52,25.96,14.31,52.95,9.28,15.83-2.95,28.36-9.52,39.92-22.42,13.84-15.45,16.34-25.01,16.34-25.01l-12.56-5.33Z"/>
      <path class="cls-17" d="M962.44,386.44c-1.72,4.71-4.33,9.21-7.08,13.38-6.11,9.25-14.14,17.37-23.89,22.76-6.12,3.39-12.84,5.58-19.78,6.46-7.68.97-15.92.87-23.49-.87-7.23-1.66-14.65-5.87-15.12-14.04-.25-4.34,1.62-8.07,3.18-12,.27-.69.55-1.37.82-2.06.18-.46-1.72.09-1.89.2-2.95,1.92-5.9,3.83-8.84,5.75-1.6,1.04-3.19,2.08-4.79,3.11-.24.16-.64.32-.84.55-.27.31-.21.66-.22,1.09-.13,6.37,1.52,12.98,4.79,18.45,2.47,4.13,6.49,6.79,10.89,8.56,5.85,2.35,12.22,3.28,18.48,3.56,8.41.38,16.87-.47,25.12-2.03,7.15-1.35,14.15-3.54,20.64-6.86,6.73-3.45,12.76-8.12,18.02-13.55,5.32-5.5,10.19-11.59,14.16-18.13,1.71-2.82,3.42-5.83,4.41-9,.04-.14.09-.27.12-.41.04-.07.02-.12-.04-.16-4.19-1.78-8.38-3.56-12.56-5.33-.41-.17-1,.01-1.39.15-.08.03-.97.43-.66.57,3.12,1.33,6.25,2.65,9.37,3.98l2.34.99c.2.09.89.5.8.21.09.33-.4,1.2-.51,1.49-1.41,3.65-3.42,7.08-5.56,10.34-4.14,6.3-9.02,12.28-14.46,17.51-5.05,4.87-10.78,9.02-17.13,12.04-6.52,3.1-13.48,4.9-20.59,6.04-7.66,1.23-15.5,1.79-23.24,1.17-5.71-.46-11.52-1.52-16.76-3.92-4.29-1.97-7.7-4.78-9.96-8.96-2.8-5.19-4.22-11.26-4.13-17.15,0-.33.01-.66.04-.98l-.26.29c4.8-3.12,9.6-6.24,14.39-9.36l-1.89.2c-1.62,4.08-3.88,8.3-4.05,12.8-.1,2.79.58,5.58,2.14,7.92,2.38,3.55,6.3,5.65,10.27,6.92,7.18,2.31,15.09,2.53,22.56,2.14,7.36-.38,14.63-1.99,21.43-4.85,11.11-4.68,20.48-12.7,27.62-22.33,2.55-3.43,4.83-7.06,6.8-10.85.65-1.25,1.28-2.52,1.86-3.82.29-.64.76-1.41.89-2.11.02-.09.07-.18.1-.27.11-.31-1.94-.13-2.14.41Z"/>
    </g>
    <path class="cls-15" d="M792.86,879.71c-2.21-4.48-4.65-8.84-7.25-13.08-5.86-9.57-12.58-18.54-19.85-26.96-7.47-8.65-15.57-16.7-24.25-23.99-5.89-4.95,11.86-20.72,5.42-24.85-24.17-72.11,341.18-57.48,341.18-57.48,0,0,22.65-5.59,23.85,67.84,1.41,85.73-240.75,63.24-319.14,67.14-.37.02.39,11.36.02,11.37Z"/>
    <path class="cls-25" d="M852.82,1170.73c-.08-.24-.16-.47-.24-.71-.23-.69-.47-1.39-.7-2.08-.38-1.12-.75-2.24-1.13-3.35-.51-1.53-1.02-3.06-1.54-4.58-.64-1.91-1.28-3.82-1.92-5.72-.76-2.26-1.51-4.53-2.27-6.79-.87-2.59-1.73-5.18-2.6-7.78-.97-2.89-1.93-5.79-2.9-8.69-1.05-3.16-2.11-6.32-3.16-9.47-1.14-3.42-2.28-6.85-3.42-10.27-1.22-3.65-2.43-7.3-3.64-10.95-1.28-3.85-2.56-7.7-3.84-11.56-1.34-4.03-2.67-8.06-4.01-12.08-1.38-4.18-2.77-8.36-4.15-12.53-1.42-4.28-2.83-8.56-4.25-12.85-1.45-4.4-2.91-8.8-4.36-13.2s-2.95-8.95-4.42-13.43c-1.49-4.52-2.97-9.05-4.46-13.57-1.49-4.55-2.98-9.09-4.47-13.64s-2.96-9.04-4.43-13.56c-1.47-4.51-2.94-9.03-4.41-13.54-1.45-4.46-2.9-8.92-4.34-13.38-1.42-4.38-2.83-8.76-4.24-13.14s-2.75-8.55-4.12-12.83c-1.32-4.12-2.64-8.25-3.96-12.38s-2.54-7.98-3.8-11.97-2.4-7.61-3.6-11.42c-1.13-3.6-2.25-7.2-3.37-10.8-1.04-3.37-2.08-6.73-3.12-10.1-.95-3.11-1.9-6.22-2.84-9.33-.85-2.81-1.69-5.62-2.52-8.44-.74-2.51-1.48-5.03-2.2-7.55-.62-2.18-1.24-4.36-1.84-6.55-.5-1.82-.99-3.64-1.45-5.47-.37-1.43-.72-2.87-1.04-4.31-1.39-6.23-2.23-12.61-2.38-18.99-.16-6.65.47-13.33,2.07-19.8,1.36-5.51,3.45-10.84,6.23-15.79,3.2-5.71,7.4-10.82,12.42-15.03,5.01-4.19,10.75-7.45,16.85-9.78,6.05-2.32,12.44-3.7,18.89-4.3.47-.04.67-.67.08-.61-6.64.62-13.2,2.06-19.43,4.45-6.04,2.32-11.75,5.56-16.74,9.69-5.03,4.16-9.27,9.2-12.52,14.85-2.79,4.84-4.9,10.05-6.34,15.44-1.71,6.42-2.44,13.08-2.38,19.72.06,6.75.91,13.51,2.35,20.1.31,1.42.66,2.83,1.01,4.24.46,1.8.94,3.6,1.42,5.39.59,2.17,1.2,4.34,1.82,6.51.71,2.5,1.44,5,2.18,7.49.83,2.82,1.67,5.64,2.52,8.46.93,3.1,1.87,6.19,2.82,9.28,1.03,3.37,2.07,6.74,3.12,10.11,1.11,3.59,2.23,7.18,3.36,10.77,1.2,3.82,2.4,7.63,3.61,11.45,1.26,3.98,2.52,7.96,3.79,11.94,1.32,4.16,2.65,8.32,3.99,12.47,1.37,4.27,2.74,8.54,4.12,12.81s2.84,8.8,4.26,13.19c1.44,4.46,2.89,8.92,4.34,13.37,1.47,4.53,2.95,9.07,4.43,13.6,1.48,4.54,2.96,9.09,4.45,13.63,1.49,4.57,2.99,9.13,4.49,13.7,1.48,4.52,2.97,9.05,4.46,13.57,1.48,4.5,2.96,8.99,4.44,13.49s2.9,8.81,4.36,13.21c1.43,4.32,2.86,8.65,4.29,12.97,1.38,4.18,2.77,8.36,4.15,12.54s2.68,8.09,4.03,12.14c1.28,3.85,2.56,7.7,3.84,11.56s2.44,7.34,3.66,11c1.14,3.42,2.28,6.85,3.42,10.27,1.06,3.18,2.12,6.37,3.19,9.55.96,2.89,1.93,5.78,2.9,8.67.87,2.6,1.74,5.2,2.61,7.8.75,2.26,1.51,4.51,2.27,6.77.64,1.91,1.28,3.82,1.92,5.73.51,1.52,1.02,3.04,1.53,4.56.37,1.12.75,2.23,1.12,3.35.23.68.46,1.36.68,2.04.07.22.15.44.22.67.13.38.99.14.86-.23h0Z"/>
    <path class="cls-11" d="M1075.81,496.11h-79.83l8.22,49.62,10.56,92.53c14.41,3.21,40.52-6.74,55.2-5.5,8.49.72,7.1-.9,15.55.22.39-6.05-7.62-79.54-7.72-85.16-.28-16.03,5.03-5.11-1.98-51.72Z"/>
    <path class="cls-11" d="M1080.33,553.8s5.72,60.81,5.95,63.64c1.42,17.6,2.34,40.3-5.09,59.27-9.97,25.48-35.39,26.71-63.47,10.04-31.06-18.44,8.16-72.99,8.16-72.99l54.44-59.96Z"/>
    <path class="cls-11" d="M1073.81,687.67c-4.59,7.39-16.72,16.54-34.78,18.4-54.71,5.64-149.3,2.71-199.93-.48l9.37-18.6-8.22-18.16,175.48-35.52"/>
    <path class="cls-12" d="M1081.87,477.25s8.8,46.24,12.12,82.19c0,0-54.04,18.3-92.27,11.71-40.51-6.98-23.85-93.9-23.85-93.9h103.99Z"/>
    <g>
      <path class="cls-12" d="M1014.64,433.03c2.76-.45-27.51,7.73-27.09,64.92.44,60.42,9.06,73.5,9.06,73.5,0,0,4.58,3.11,9.86,1.13"/>
      <path class="cls-17" d="M1014.46,433.52c.26-.04-.32.01-.35,0-.5-.18-.3-.69-.03-.66-.1,0-.37.2-.46.24-.69.36-1.36.74-2.03,1.14-2.61,1.6-4.99,3.54-7.14,5.71-8.29,8.34-12.96,19.7-15.43,31.03-2.1,9.6-2.64,19.42-2.54,29.22.11,10.62.47,21.25,1.32,31.83.88,11.13,2.06,22.51,5.23,33.26.55,1.87,1.16,3.76,2.01,5.52.13.28.26.62.45.86.9,1.13,3.16,1.6,4.48,1.85,2.34.45,4.67.16,6.9-.62.27-.1.86-.38.62-.74s-1.16-.03-1.42.06c-2.36.83-4.9.48-7.16-.51-.39-.17-.91-.36-1.24-.65-.09-.08.08.13.01.05-.17-.18-.27-.49-.38-.71-.81-1.63-1.39-3.38-1.92-5.12-3.14-10.28-4.33-21.21-5.24-31.88-.87-10.13-1.27-20.3-1.43-30.47s.11-20.49,2.12-30.58c2.32-11.67,6.85-23.44,15.26-32.12,2.01-2.08,4.55-4.18,6.82-5.57.33-.2,3.29-1.55,2.94-2.08-.16-.23-.8-.12-1.02-.09-.29.05-1.24.26-1.26.66-.02.43.61.38.9.33h0Z"/>
    </g>
    <path class="cls-3" d="M1014.04,633.96c5.94,1.44,11.86,3.17,17.41,5.76,5.17,2.41,10.21,5.61,13.62,10.27,1.88,2.58,3.09,5.52,3.59,8.67.14.87,2.32.34,2.17-.58-1.99-12.41-14.42-18.83-25.19-22.5-3.39-1.15-6.84-2.1-10.31-2.94-.49-.12-1.2,0-1.54.41-.29.35-.26.78.24.91h0Z"/>
    <path class="cls-5" d="M243.32,649.93s-73.79,114.08-28.52,199.8c21.57,40.82,86.11,40.79,86.11,40.79l66.2-83.25v-137.68l-123.78-19.66Z"/>
    <path class="cls-19" d="M501.61,594.01c1.48-8.95,2.77-9.81,5.29-18.52,0,0,4.77-5.92,14.13-14.68,2.87-2.69,10.91-13.92,14.27-37.03.03-12.79,10.66-24.38,10.74-37.17.14-20.59,7.15-39.33,5.47-59.89-1.59-19.41-13.13-42.4-28.19-56.15-6.31-5.76-8.46-9.63-15.85-13.77l-22.13-13.04c-.84-.25-13.38-6.95-14.24-7.15-1.85-.42-3.17-.39-3.96-1.54l-9.26-3.62-58.96-31.62-41.85,13.99s-58.11,13.9-70.01,21.8c-14.58,9.62-11.67,203.47-11.67,203.47,0,0-6.75,75.65-57.64,149.85-.33.49-1.79,3.99-2,4.56-.66,1.75,10.13,10.05,11.55,11.07,4.41,3.17,12,4.39,17.01,6.47,10.21,4.24,18.95,3.92,29.74,6.1,14.68,2.96,29.46,5.46,44.37,6.92,13.9,1.36,28.53-.47,42.23,1.62l155.35,1.07s-11.89-70.73-11.89-70.74c-1.37-8.13-3.59-16.03-4.63-24.25-1.08-8.56-.82,1.61-.75-7.02.03-4.22.49-15.03.83-19.24.04-.52,1.95-10.98,2.04-11.49Z"/>
    <path class="cls-5" d="M676.22,803.25c-3.34,100.27-13.35,271.53-29.28,373.88,0,0-77.2,38.36-88.62,15.92,0,0-27.78-209.3-65.77-332.21-33.46-108.24-236.5-116.5-210.72-126.31,40.58-15.44,300.98-36.54,351.28-18.41,33.35,12.02,45.32,20.63,43.11,87.12Z"/>
    <path class="cls-5" d="M635.43,726.9c-3.58-3.05-7.42-5.95-11.47-8.49-132.74-11.23-338.53,3.23-338.53,3.23,0,0-95.88,30.29-67.95,114.3,37.01,111.33,312.42,38.99,406.93,4.38.45-.17.89-.34,1.33-.5.54-6.46,1.41-12.88,2.52-19.23,2.51-14.36,6.31-28.43,11.01-42.11,4.79-13.93,9.97-16.68,16.77-29.61-6.14-7.98-12.97-15.45-20.61-21.97Z"/>
    <path class="cls-5" d="M625.56,721.3s-14.46.36-34.1,5.59c1.84-10.26,2.13,4.44,2.13,4.44-2.33-1.92-15.06.93-17.61-1.04-10.67,5.71-11.02-14.28-20.7-6.79-11.25,8.71-21.87,18.4-31.74,28.9-9.51,10.12-18.33,21.08-26.12,32.82-2.2,3.32-33.86,6.73-35.88,10.2.36.03.06,19.96.42,19.99-28.65,54.15,16.37,134.28,13.56,230.59-2.46,84.56-2.69,96.65-7.23,141.57,13.52,20.33,118.55,10.81,118.55,10.81,13.16-130.47,38.7-477.08,38.7-477.08Z"/>
    <line class="cls-24" x1="460.65" y1="500.7" x2="460.54" y2="502.33"/>
    <path class="cls-19" d="M315.11,547.79l-1.94,43.65c.47.46,1.18.67,1.86.24,5.8-3.62,11.35-5.53,16.88-9.63l129.01,49.72-4.95,61.01s-135.22-19.86-167.36-27.81c-1.83-.45-21.75-1.7-23.51-2.2-17.06-4.87-33.06-16.31-38.49-32.13-6.74-19.64-2.43-58.48-.56-78.79,3.69-40.18,4.12-80.29,8.38-120.42,2.04-19.17,2.14-31.81,8.98-49.84,9.6-25.3,16.4-38.94,44.64-47.84l48.08-14.87"/>
    <path class="cls-16" d="M312.08,579.09c-5.52-.93-10.98.57-16.06,2.67-2.47,1.02-4.92,2.14-7.29,3.37-2.11,1.09-4.12,2.39-5.52,4.35-.79,1.11,1.25,1.36,1.8.59,1.28-1.79,3.07-2.93,5.01-3.9,2.13-1.07,4.31-2.08,6.51-3.01,4.69-1.98,9.67-3.4,14.78-2.54,1.03.17,2.22-1.27.77-1.51h0Z"/>
    <path class="cls-16" d="M497.08,626.13c.3,1.35.6,2.71.9,4.06l.97-.73c-8.4,2.24-16.83,4.38-25.27,6.49-18.22,4.56-36.5,8.92-54.85,12.89-18.49,4-37.05,7.49-55.86,9.65-21.7,2.5-43.6,3.61-65.44,2.82-11.3-.41-22.6-1.36-33.78-3.05-1.41-.21-2.91-.3-4.26-.77-1.08-.37-2.15-.78-3.21-1.2-3.68-1.47-7.3-3.17-10.62-5.32-1.71-1.11-3.33-2.34-4.76-3.79-.46-.47-2.5.33-2.03.8,4.98,5.05,12.16,8.13,18.77,10.43,1.19.41,2.44.53,3.68.73,2.82.44,5.65.83,8.49,1.17,5.58.68,11.19,1.19,16.8,1.56,22.24,1.45,44.6.74,66.78-1.39,19.14-1.83,38.06-4.96,56.88-8.88,19.14-3.98,38.17-8.45,57.15-13.14,10.46-2.58,20.93-5.16,31.33-7.99.16-.04.31-.08.47-.12.26-.07,1.06-.33.97-.73-.3-1.35-.6-2.71-.9-4.06-.14-.61-2.32-.07-2.17.58h0Z"/>
    <path class="cls-16" d="M300.45,365.71c11.6,1.73,17.53,14.32,20.7,24.26,2.42,7.58,4.2,15.65,4.28,23.64.06,5.35-.2,10.71-.49,16.05-.4,7.47-.93,14.93-1.51,22.38-.67,8.74-1.42,17.47-2.2,26.21-.82,9.14-1.67,18.27-2.56,27.4-.85,8.8-1.73,17.59-2.62,26.38-.77,7.58-1.56,15.16-2.36,22.73-.58,5.53-1.17,11.06-1.77,16.59-.29,2.63-.74,5.31-.87,7.95,0,.12-.03.23-.04.35-.07.67,1.19.33,1.49.23-.55.19.02,0,.22-.06.5-.13,1-.25,1.5-.36.09-.02.18-.04.26-.06-.04,0-.19.04.06-.01.22-.04.45-.09.67-.13.49-.09.99-.18,1.49-.26,1.3-.21,2.62-.38,3.93-.53,10.29-1.15,20.75-1.05,31.08-.66,18.91.71,37.68,3.19,56.57,4.13,17.65.88,35.33.99,53,.56,5.96-.15,11.92-.36,17.87-.64,2.81-.14,5.79-.05,8.58-.48.12-.02.26-.02.38-.03l-.65-.27c.57,1.99,1.13,3.98,1.7,5.98.19.67,2.36.08,2.17-.58-.57-1.99-1.13-3.98-1.7-5.98-.07-.24-.45-.28-.65-.27-7.32.52-14.65.79-21.98,1.02-17.22.53-34.46.53-51.68-.15-10.09-.4-20.16-1.04-30.21-2.04-9.32-.93-18.66-1.71-28.01-2.17-11.36-.56-22.82-.76-34.15.3-2.59.24-5.17.56-7.72,1.05-1.04.2-2.16.37-3.16.74-.13.05-.26.08-.38.13l1.49.23c.21-1.85.41-3.7.61-5.56.54-4.96,1.07-9.91,1.6-14.87.77-7.22,1.52-14.43,2.26-21.65.89-8.68,1.77-17.35,2.62-26.03.9-9.21,1.78-18.42,2.62-27.63.82-8.97,1.6-17.95,2.32-26.93.63-7.81,1.21-15.62,1.67-23.43.35-5.86.66-11.74.72-17.61.06-6.29-.78-12.28-2.18-18.45-1.45-6.39-3.44-12.76-6.57-18.54-2.5-4.62-5.81-9.01-10.41-11.7-2.05-1.2-4.3-1.97-6.64-2.32-.47-.07-1.19.06-1.54.41-.29.29-.3.6.18.67h0Z"/>
    <path class="cls-16" d="M535.49,425.96c-2.09,2.45-3.66,5.44-4.92,8.38-2.29,5.33-3.37,11.15-2.85,16.94.42,4.69,1.37,9.34,2.23,13.97,1.15,6.26,2.29,12.52,3.19,18.83,2.11,14.87,3.02,30.17.25,45.01-2.16,11.58-6.2,23.8-14.25,32.69-2.22,2.45-4.74,4.56-7.27,6.68-1.94,1.62-3.95,3.32-5.26,5.52-.31.52-.57,1.07-.8,1.64-.3.72,1.88.48,2.18-.26.92-2.25,2.68-3.96,4.48-5.52,2.35-2.04,4.8-3.95,7-6.16,7.76-7.81,12.03-18.19,14.74-28.7,3.79-14.7,3.65-30.06,1.95-45.05-1.36-11.95-4.06-23.65-5.79-35.54-.77-5.25-.74-10.37.71-15.53,1.22-4.38,3.24-8.64,6.01-12.26.15-.19.3-.39.45-.57.35-.41-.3-.65-.6-.68-.53-.05-1.1.21-1.43.6h0Z"/>
    <path class="cls-11" d="M369.16,234.83s9.46,43.4-3.52,71.77c-1.81,3.95-28.13,11.73-28.13,11.73l35.23,16.76c16.37,4.88,44.26,10.26,67.85,8.19,10.3-.91,24.45.87,32.31-5.84h0s-18.07-8.31-18.81-13.38c-.74-5.07,5.19-47.45,5.19-47.45"/>
    <path class="cls-8" d="M454.19,316.27s-9.39-5.77-15.38-7.74c-5.99-1.98-16.39-2.08-43.27-27.6,0,0,6.87,30.19,42.28,38.18,0,0,9.9,2.62,16.03,1.42l.34-4.26Z"/>
    <path class="cls-11" d="M493.08,135.11c.12.11.24.22.37.33-.12-.22-.24-.44-.32-.66l-.04.33ZM507.9,140.16c.19.24.42.47.64.71l.04-.28s-.64-.76-.68-.43ZM391.99,280c12.39,16.38,32.89,32.58,55.22,36.57,22.34,4,25.25-6.33,31.12-11.29,9.78-8.26,13.43-9.81,20.87-18.33,7.18-8.23,12.46-18.44,15.03-29.21,2.78-11.64.74-23.28,3.12-34.9,1.08-5.27,6.14-25.96,8.16-38.22,2.02-12.26-8.09-33.03-8.09-33.03-.28-3.42-1.77-6-3.23-8.9l-1.45-.2s.68.43.54,1.43c-1.8-.53-3.5-1.77-4.75-3.07v.05c-2.32.7-4.36-.59-5.95-2.49-.04.33.23,1.05.59,1.1-2.22.04-4.26-1.25-5.53-2.78-.04.33.23,1.05.19,1.38-1.61-.52-3.14-1.6-4.39-2.69.27.48,8.63.31,8.59.54-2.22.04.17,1.1-1.42-.81l-1.63-1.48c-1.86.09-1.94,1.19-3.21-.34.32.38-.5-3.8-.55-3.47-2.18-.29-1.56-.36-3.24-1.6-.04.33-6.22,1.36-6.26,1.7-1.81-.24-1.56,1.48-2.83-.04.32.38,1.5-1.22,1.81-.84-2.22.04-3.22,1.33-4.81-.58.32.38-6.68-4.62-6.68-4.62-2.22.04-1.94.77-3.58-.8.64.76-9.95-1.97-9.68-1.26-1.81-.24,2.57,7.11,1.25,5.92-.05.33-4.04-1.56-4.04-1.56-1.86.09.64,2.12-.63.59-.04.33.18,1.38.55,1.43-2.31.71-4.76-.3-6.75-1.93.64.76.91,1.48,1.23,1.86-1.81-.24-3.31-.11-4.94-1.68-.04.33.54,1.43.91,1.48-1.9.42-4.03-.2-5.71-1.45-.04.33.59,1.1.9,1.48-1.49.14-2.94-.06-4.26-1.25l.91,1.48c-1.45-.2-2.63.32-4.71-.64-.04.33.64.76.59,1.1-1.09-.15-2.54-.34-3.58-.82-.04.33.95,1.14.59,1.1-1.45-.2-2.63.32-4.35-.59.32.38.59,1.1.91,1.48-1.45-.2-2.94-.06-4.31-.92-.04.33.23,1.05.55,1.43-1.45-.2-2.63.32-4.35-.59-.04.33.59,1.09.91,1.48-1.45-.2-2.95-.06-4.35-.59-.04.33.64.76.95,1.14-1.45-.2-2.94-.06-4.67-.97-.09.66.23,1.05.18,1.38-1.09-.15-1.77-.58-2.85-.72l-1.9.42c-5.97,5.97-8.61,28.31-8.61,28.31-12.45,7.47-19.26,25.18-19.75,31.55-.49,6.37-4.14,19.77-4.14,19.77-1.5-2.57-4.81-8.1-5.54-10.91-.77-2.48.36-5.37-.42-7.85-2.54-5.76-10.02-5.08-14.45-2.29l-.81,1c-6.56,6.77-3.64,30.97-.45,38.46-.68,14.3,10.78,23.38,19.13,14.1l1.23,5.78"/>
    <path class="cls-1" d="M368.6,238.63c-4.19-.1-8.79,2.38-9.62,6.77-.37,1.95.06,3.89,1.17,5.53.75,1.11,1.74,1.77,2.97,2.32,2.77,1.24,5.89.87,8.56-.46.36-.18.91-.69.32-.94s-1.54.06-2.08.33c-2.14,1.07-5.27-.04-6.7-1.92-1.94-2.55-1.83-6.21.33-8.59.51-.56,1.17-1.04,1.72-1.28-.09.04.59-.22.3-.12.1-.03.2-.06.3-.09.25-.07-.01,0,.14-.04.5-.09.82-.1,1.37-.09.61.01,1.59-.24,1.97-.75.41-.55-.36-.65-.75-.66h0Z"/>
    <path d="M385.45,185.68l-6.29,32.1-9.45-15.82s11.21-11.68,15.74-16.28Z"/>
    <g>
      <path d="M469.98,253.99c-2.86,1.03-6.89.16-9.36-1.86-.55-.45-2.58-.36-1.82.27,3.26,2.67,9.08,3.66,12.77,2.33.37-.13.34-.4-.07-.6-.43-.21-1.14-.27-1.53-.13"/>
      <path d="M457.75,251.47c-1.68-1.09-3.64-1.8-5.62-2.23-.29-.06-.69,0-.93.16-.19.13-.25.32-.05.48.85.65,2.01,1.03,3.09,1.16.34.04.81.02,1.04-.25.21-.25-.09-.47-.36-.5-.9-.1-1.79-.4-2.5-.94-.33.21-.65.43-.98.64,1.78.38,3.52,1.04,5.02,2.01.3.19.77.16,1.08.03.23-.1.5-.36.2-.56"/>
      <path d="M449.74,250.64c-2.34-.38-4.97-1.77-5.89-3.68-1.39-2.89.81-6.88,3.97-8.18.34-.14.21-.4-.11-.52-.41-.15-.93-.06-1.29.09-2.76,1.14-4.88,4.37-4.83,6.91.05,2.38,2.08,4.31,4.8,5.36.81.31,1.68.57,2.56.71.35.06,1.01.04,1.22-.22.21-.26-.1-.42-.43-.48"/>
      <path d="M474.45,253.38c-.09-.29.17-.43.36-.4.63.1,1.3.01,1.9-.35.17.28.35.56.52.84-1.29-.03-2.62.21-3.86.81-.25.12-.56-.02-.74-.22-.13-.15-.26-.46,0-.59"/>
      <path d="M472.63,253.48c1.39-.67,2.87-.93,4.32-.89.21,0,.47.15.59.37.1.17.1.37-.08.48"/>
      <path d="M479.29,254.35c1.54.15,3.47-.63,4.46-2.29,1.49-2.5.86-5.8-.82-7.76-.18-.21-.04-.44.18-.48.29-.05.59.15.78.37,1.46,1.7,2.22,4.25,1.63,6.71-.55,2.3-2.23,3.73-4.15,4.16-.57.13-1.17.18-1.74.13-.23-.02-.63-.19-.71-.48-.08-.3.15-.39.37-.37"/>
    </g>
    <path d="M484.64,216.15s12.25-7.04,17.25-6.64c7.3.59,14.16,7.39,16.03,11.45,0,0-9.35-9.31-14.5-9.57-4.93-.25-18.78,4.76-18.78,4.76Z"/>
    <path d="M451.66,213.07s-9.65-10.19-15.02-11.34c-7.84-1.68-18.14,2.42-21.38,5.72,0,0,13.7-5.73,19.19-4.4,5.25,1.27,17.21,10.02,17.21,10.02Z"/>
    <path d="M520.04,210.38c.06-.19.09-.4.18-.57.3-.54.59-1.09.86-1.65.12-.4.28-.78.49-1.13,0-.03,0-.03,0-.06-.13-.53-.18-1.06-.18-1.57-.45-1.06-.85-1.73-.92-1.84,0,0-1.77-2.98-5.57-5.61-2.62-1.82-10.53-5.4-21.89-8.25-.62,1.39-1.23,2.79-1.85,4.19-.47,1.07-.93,2.13-1.39,3.2,4.14.51,7.61,1.14,10.2,1.67,5.48,1.12,8.27,1.71,11.04,3.3,2.9,1.67,5.06,3.78,5.89,4.6,1.17,1.16,1.97,1.92,2.78,3.15.13.2.24.39.35.58Z"/>
    <path d="M457.61,182.63c0,1.49,0,2.99-.01,4.49,0,1.14-.01,2.28-.03,3.42-5.13-.94-9.52-1.55-12.83-1.94-7.01-.84-10.59-1.25-14.66-.72-4.27.55-7.9,1.76-9.3,2.23-1.98.67-3.31,1.09-4.9,1.96-3.44,1.87-4.85,3.97-5.41,3.79-.51-.16.33-2.01.41-2.2,2.15-4.64,6.96-7.4,7.32-7.62,0,0,3.62-2.14,9.45-3.28,4.02-.78,15.16-1.39,29.96-.14"/>
    <path d="M507.2,211.11c-.44-.01-.88.03-1.31.17-1.64.53-2.38,1.98-2.55,2.33-.9,1.9-.62,4.76,1.47,6.21,1.55,1.07,3.78,1.19,5.33-.03,1.16-.91,2.08-2.57,1.89-4.21-1.75-1.33-3.3-2.9-4.84-4.47Z"/>
    <path d="M441.66,206.05c-.43-.33-.87-.63-1.3-.95-.92-.67-1.81-1.42-2.42-2.39-.01-.02-.02-.04-.03-.06-1.18-.13-2.33.02-3.05.47-.33.2-1.22.8-1.79,1.97-.73,1.49-.4,3.37.4,4.61,1.07,1.66,3.22,2.28,5.03,1.78,2.39-.66,3.59-3.15,3.44-5.21-.09-.07-.18-.15-.27-.22Z"/>
    <path class="cls-3" d="M373.09,219.03c-1.34-4.98-2.91-9.97-5.22-14.59-1.14-2.28-2.45-4.58-4.27-6.39-.72-.72-1.61-1.51-2.61-1.81-1.39-.41-2.29.88-3,1.86-2.66,3.67-3.31,8.38-3.03,12.79.05.84,2.23.36,2.17-.58-.22-3.47.19-7.09,1.78-10.23.54-1.06,1.22-2.19,2.14-2.98-.51.14-1.02.27-1.54.41.04,0,.13.02.16.04.12.11.06.02.02,0,.1.04.2.09.29.14.66.38,1.13.76,1.65,1.29,2.55,2.56,4.18,6.02,5.55,9.31,1.52,3.67,2.7,7.48,3.73,11.32.24.88,2.41.3,2.17-.58h0Z"/>
    <path class="cls-3" d="M368.93,219.87c-6.51-1.45-4.54,8.04-5.52,11.48-.04.14-.31.67-.3.68h.75s-.06-.04-.09-.07c0-.07-.11-.14-.13-.2-.11-.32-.28-.62-.38-.96-.57-1.92-.67-4-.72-5.99-.08-2.79,0-5.33.79-7.99.81-2.74,2.22-6.76,5.36-7.5,1.36-.32.93-1.9-.42-1.59-3.34.78-5.28,3.96-6.42,6.96-.9,2.36-1.46,4.75-1.52,7.26-.07,2.56-.02,5.17.39,7.71.19,1.18.43,3.03,1.57,3.71s2.53-.19,3.04-1.28.53-2.37.58-3.52c.08-1.67.05-3.36.35-5.01.23-1.25.53-2.35,1.94-2.04,1.12.25,2.16-1.34.73-1.66h0Z"/>
    <path class="cls-26" d="M518.3,164.76c-6.18-20.56-27.27-34.33-72.35-46.08-45.08-11.75-83.16.19-83.16.19,30.15-62.77,96.45-51.66,111.29-49.66,14.85,2,77.68,72.99,51.3,121.2l-1.92,4.98s-4.05-26.89-5.17-30.63Z"/>
    <path class="cls-26" d="M352.86,103.64s.04-41.87,31.92-51.63c42.59-13.04,98.4-13.82,112.32,31.07l-144.25,20.56Z"/>
    <path class="cls-20" d="M343.56,203.98c-2.87-3.79-.7-13.19-3.04-17.33-12.27-21.69-4.92-40.34,2.32-51.02,3.15-4.65.84-13.87,1.66-18.21,4.33-22.75,7.05-23.1,44.29-42.03,30.31-15.41,60.25-10.51,77.53-7.23,27.67,5.24,39.71,8.63,46.8,29.7.92,2.75-.73,4.64-.08,7.89.91,4.59,6.41,9.43,6.81,15.14,0,0-36.38,6.14-69.27,18.58-32.9,12.44-96.01,69.28-96.37,88.8-.01.61-7.47-20.1-10.65-24.3Z"/>
    <path class="cls-26" d="M334.18,158.47s61.31-57.8,118.88-50.62c0,0-72.3-19.51-112.09,29.21l-1.06,2.02c-2.79,5.31-4.63,11.07-5.42,17.02l-.31,2.37Z"/>
    <path class="cls-26" d="M513.72,106.6l-3.7-1.98c-8.61-4.6-17.84-7.94-27.4-9.89l-16.02-3.28s39.97-1.58,47.34,9.47l-.21,5.68Z"/>
    <path class="cls-26" d="M367.76,168.3s-23.25,18.35-25.94,26.49l-1.3-8.14s8.17-14.29,27.24-18.35Z"/>
    <path class="cls-11" d="M499.64,626.05l14.03-3.79s42.64,10.13,54.98,8.4c8.87-1.63,17.47-4.64,25.54-8.95l10.72,1.86c4.94.86,9.94-.22,14.17-3.05l3.26-2.18s12.95,6.32,14.9,1.96c1.95-4.35-2.37-8.13-6.57-11.8-4.2-3.67-85.23-32.32-85.23-32.32,6.63-3.88,19.76-3.72,26.91-6.25,11.02-3.81,13.87-9.77,8.4-13.53-3.37-2.32-12.9-3.05-18.6.85-5.68,3.88-36.04.24-46.63,5.84-10.59,5.59-16.51,22.26-16.51,22.26-.86.6-8.76,1.47-8.76,1.47-.19,1.65,9.39,39.26,9.39,39.26Z"/>
    <path class="cls-8" d="M621.72,617.82c-4.95-1.87-10.21-3.01-15.34-4.3-6.33-1.58-12.69-3.09-18.97-4.86-2.53-.71-5.09-1.42-7.52-2.44-.39-.16-.92-.13-1.26.14-.21.17-.55.61-.13.79,4.93,2.07,10.27,3.27,15.44,4.58,6.37,1.62,12.78,3.13,19.13,4.83,2.55.69,5.12,1.37,7.6,2.31.64.24,2.07-.68,1.06-1.06h0Z"/>
    <path class="cls-8" d="M593.06,621.08c-8.51-1.45-17.02-2.9-25.53-4.35-1.19-.2-2.39-.41-3.58-.61-.38-.06-.91.04-1.24.23-.11.07-.63.37-.22.44,8.51,1.45,17.02,2.9,25.53,4.35,1.19.2,2.39.41,3.58.61.38.06.91-.04,1.24-.23.11-.07.63-.37.22-.44h0Z"/>
    <path class="cls-17" d="M818.6,592.14c-1.96-20.11-7.58-39.61-10.57-59.56-.84-5.6-1.46-11.23-1.74-16.88-.04-.83-2.22-.36-2.17.58,1.01,20.2,6.43,39.77,9.94,59.6.99,5.58,1.82,11.19,2.37,16.84.08.85,2.26.35,2.17-.58h0Z"/>
    <path class="cls-2" d="M459.95,264.14c-10.46-2.14-27.22-5.6-27.22-5.6,0,0-2.04,26.97,22.2,31.93,24.24,4.96,29.95-22.1,29.95-22.1,0,0-14.48-2.09-24.93-4.23Z"/>
    <path class="cls-4" d="M460.05,264.16c-4.97-1.02-24.92-4.63-24.92-4.63,0,0,4.46,18.18,22.44,21.86,19.49,3.99,23.8-12.07,23.8-12.07l-21.32-5.16Z"/>
    <path class="cls-10" d="M460.08,265.12c-4.97-1.02-20.01-3.63-20.01-3.63,0,0,4.2,6.31,19.11,9.36,14.91,3.05,20.86-.99,20.86-.99l-19.96-4.75Z"/>
    <path class="cls-2" d="M485.69,267.46q-.5-.27-2.94-1.05c-4.07-1.29-5.47-3.33-8.43-4.23-5.05-1.54-8.83.27-11.07-.19-2.24-.46-5-3.6-10.25-4.17-3.08-.33-10.94.99-15.19.58-2.55-.25-4.42-.36-4.99-.31-.79.07-1.4,3.83,26.75,9.58,28.15,5.76,26.83.16,26.13-.21Z"/>
    <path class="cls-11" d="M811.39,477.87c4.6,2.88,9.17,5.8,13.71,8.75.13-.51.25-1.02.38-1.52l2.02-6.4c.5-.74,8.44-12.45,12.09-17.44.98-2.61,1.38-5.37,1.2-8.12l-1.4-6.46c-.26.08-.39.04-.05-.25l-.11-.49c.36-.03.61-.03.77,0,.04-.03.08-.05.12-.08l3.14-1.03c2.08.41,8.45-4.3,9.51-6.01,1.44-2.12,3.95-7.23,5.76-10.61,3.33-6.18,5.06-9.05,5.06-9.05,0,0,5.43-7.67,5.48-11.09.05-3.42-2.04-9.19-2.04-9.19,0,0,1.19-5.42.29-7.74-1.36-3.58-5.53-5.72-10.15-4.9-3.94.7-23.13,2.79-23.13,2.79l-3.2-3.64.24-12.16,10.98-2.6s6.67,3.33,11.9,1.94c1.84-.44,3.5-1.37,4.78-2.68.87-.96.74-2.38-.3-3.17-.1-.07-.2-.14-.31-.2-4.24-2.36-14-7.65-17.26-8.19-4.2-.7-21.29,5.34-22.82,7.48-.32.44-4.88,26.93-4.88,26.93-2.97,2.63-4.86,6.12-5.37,9.88-.57,5.93-5.27,54.08-5.27,54.08l.43,9.51-6.15,2.22s3.63,3.05,3.47,3.31c4.98,2.94,6.19,3.07,11.09,6.13Z"/>
    <g>
      <path class="cls-3" d="M831.83,373.98c3.66-.87,7.32-1.73,10.98-2.6l-.83-.03c2.61,1.29,5.64,2.15,8.54,2.32,2.12.13,4.23-.18,6.18-1.04,1.65-.72,4.12-2.16,4.24-4.19.11-1.9-1.52-2.67-2.94-3.44-1.61-.88-3.22-1.75-4.85-2.6-3.17-1.65-6.4-3.41-9.81-4.53-3.08-1.01-7-.57-9.9.77-1.34.62-.15,1.89.99,1.37,1.9-.88,4.29-1.1,6.36-.91,1.35.12,2.7.79,3.93,1.32,4.22,1.83,8.28,4.03,12.3,6.25.93.52,2.15,1.2,1.58,2.47-.57,1.28-2.71,2.14-3.93,2.49-2.6.75-5.39.32-7.93-.45-1.22-.37-2.43-1.11-3.66-1.39-.83-.19-2.01.32-2.8.5-2.96.7-5.92,1.4-8.89,2.1-1.36.32-.93,1.9.42,1.58h0Z"/>
      <path class="cls-3" d="M860.07,428.22c1.63-3.02,3.2-6.12,5.04-9.01,1.41-2.21,2.89-4.36,4.06-6.73.7-1.41,1.45-2.97,1.52-4.56.09-2.07-.49-4.22-1.04-6.19-.23-.82-.48-1.63-.74-2.43-.06-.19-.15-.38-.2-.58-.07-.31-.04.16-.03-.11.07-1.56.54-3.1.59-4.68.06-1.99-.3-3.71-1.61-5.28-1.36-1.63-3.37-2.66-5.43-3.04-2.71-.51-5.7.11-8.43.39-4.63.47-9.2,1-13.8,1.67-1.61.24-3.23.48-4.84.71-.15.02-.89.02-.97.14-.14.19,1.02.13.57.05-.18-.04-.35-.06-.53-.07-.42-.02-.87.04-1.29.07-6.4.46-13.09-.18-19.14,2.3-.35.14-.83.5-.57.91s1.13.17,1.44.04c5.37-2.2,11.44-1.53,17.11-1.93.43-.03.87-.03,1.3-.09.83-.11-.19-.05.28-.03.33.01.59,0,.92-.04,1.1-.15,2.19-.32,3.29-.49,4.34-.64,8.64-1.26,13-1.7,2.32-.23,4.65-.43,6.96-.7,2.24-.27,4.36-.12,6.32,1.1,1.74,1.09,3.03,2.85,3.21,4.92.15,1.76-.12,3.59-.44,5.32-.16.87-.06,1.2.22,2.06,1.11,3.42,2.36,7.18.97,10.66-1.18,2.94-3.01,5.54-4.71,8.18-1.87,2.89-3.43,6.02-5.06,9.05-.5.93,1.67.74,2.03.08h0Z"/>
    </g>
    <path class="cls-3" d="M839.3,445.83c2.26.42,5.02-.6,6.98-1.62,2.68-1.4,4.91-3.69,6.85-5.97,2.01-2.36,3.6-5.04,5.06-7.76,1.64-3.06,3.3-6.11,4.04-9.54.63-2.95-.1-5.86-2.29-7.98-2.05-1.98-5.05-3.17-7.79-3.78-3.45-.77-7.04-.88-10.45-1.86s-6.17-2.83-9.4-3.97-6.47-1.39-9.86-.33c-1.62.51-3.21,1.17-4.65,2.07-1,.62-2.32,1.54-2.44,2.81-.04.45,1.97-.25,2.16-.49.16-.21.25-.52.4-.76.21-.32-.78-.2-.86-.18-.39.07-1.04.21-1.28.58-.15.23-.24.55-.4.76l2.16-.49c.12-1.23,1.68-2.09,2.64-2.61,1.44-.78,3.11-1.44,4.75-1.57,2.83-.23,5.84.97,8.31,2.25,2.41,1.24,4.9,2.35,7.55,2.99s5.57.92,8.34,1.39c4.86.83,10.79,3.47,11.18,9.09.19,2.73-1,5.72-2.21,8.12-1.26,2.49-2.55,4.99-4.01,7.37-1.58,2.55-3.42,4.89-5.61,6.95-1.15,1.08-2.37,2.15-3.79,2.86-.77.38-1.59.66-2.44.79-.27.04-.51.07-.77.08-.11,0-.6-.06-.36-.01-.48-.09-1.09.06-1.52.29-.16.08-.77.44-.27.53h0Z"/>
    <path class="cls-3" d="M840.39,445.21c-.22-1.42-.62-2.78-1.06-4.15-.48-1.47-.86-2.97-1.31-4.45-.82-2.72-1.66-5.55-2.92-8.1-.34-.69-2.45.02-2.17.58,1.27,2.55,2.1,5.38,2.92,8.1.45,1.48.84,2.98,1.31,4.45.44,1.37.84,2.72,1.06,4.15.1.65,2.29.16,2.17-.58h0Z"/>
    <path class="cls-3" d="M833.8,429.52c1.54-.46,2.58-1.78,3.15-3.26.43-1.11-.11-2.47-.35-3.57l-2.17.58c.1.28.19.57.3.84.2.49.8.61,1.26.81,1.41.62,2.84,1.19,4.29,1.71,1.01.36,2.02.69,3.04,1.02.86.28,1.52-.08,2.27-.45-.43-.2-.86-.41-1.3-.61-1.46,1.28-3.16,3.1-2.77,5.21.14.75,1.86.13,2.1-.27l.14-.25c.48-.82-1.11-.58-1.44-.46-1.5.55-2.91,1.4-4.03,2.55-1.04,1.06-2.14,2.56-2.27,4.09-.07.86,2.11.44,2.17-.28.11-1.28.97-2.56,1.84-3.47s1.95-1.58,3.15-2.02l-1.44-.46-.14.25,2.1-.27c-.32-1.74,1.14-3.24,2.33-4.28.25-.22.31-.51,0-.69-.35-.2-.96-.08-1.29.08l-.84.41,1.29-.08c-2.87-.96-5.7-1.96-8.46-3.22l.22.23-.35-.98c-.26-.73-2.34-.18-2.17.58.18.86.51,1.76.48,2.64-.02.51-.27.95-.54,1.38-.14.22-.29.43-.44.64-.07.1-.28.48-.42.52-.31.09-1.06.37-.94.82s.94.33,1.23.24h0Z"/>
    <path class="cls-3" d="M861.08,418.15c-.05.21-.07.42-.06.63-.04,1.1,1.93.49,2.19-.22,1.47-4.07,2.21-9.16.51-13.25-1.68-4.05-5.45-6.06-9.67-6.54-5.06-.57-10.23-.58-15.32-.83-4.43-.22-8.86-.44-13.29-.6-4.38-.16-9.87-.42-13.31,2.84-.37.35-.18.75.24.91.49.18,1.18-.07,1.54-.41,1.51-1.43,4.02-1.83,6-1.99,1.8-.15,3.65.01,5.45.08,3.88.15,7.76.34,11.64.53,4.49.22,8.99.43,13.48.68,4.22.23,8.6,1.03,10.71,5.17,2.1,4.12,1.33,9.44-.19,13.64l2.19-.22c0-.21.01-.42.06-.63.15-.97-2.05-.63-2.19.22h0Z"/>
    <path class="cls-3" d="M868.31,398.51c-.98-3.46-3.48-6.31-6.15-8.62-2.75-2.38-6.85-4-10.52-3.45-.48.07-1.14.32-1.19.9-.05.52.57.81,1.01.74,3.28-.49,6.82,1.09,9.22,3.25,2.36,2.12,4.58,4.65,5.46,7.76.29,1.03,2.47.45,2.17-.58h0Z"/>
    <path class="cls-11" d="M736.02,664.97l.02.02c8.24,6.51,18.73,10.59,29.28,8.31,11.35-2.45,24.25-11.76,30.14-21.35,5.34-8.7,4.24-9.11,8.24-18.48,3.54-8.29,6.47-25.91,8.25-34.74l19.53-132.95c-11.37,2.27-11.24-13.18-25.59-18.57,0,0-66.64,142.12-72.25,158.04-10.17,28.84-6.68,47.39,2.38,59.71Z"/>
    <path class="cls-11" d="M760.94,665.14l11.95-10.59c2.03-1.78,4.51-2.98,7.17-3.46l25.96-4.59,31.12,19.68,8.7,2.58,6.55,36.46-17.8.94s-37.96,13.41-41.99,11.63c-4.03-1.78-11.62-7.41-11.62-7.41,0,0-21.56-3-23.87-4.43-8.78-5.46-6.01-7.62-6.01-7.62l-3.78-1.01c-.43,1.35-6.97-6.03-7.17-10.28-.12-2.47-.83-2.33-.83-2.33-3.77-1.36-6.74-4.32-8.12-8.09-.81-2.4,10.02-7.57,10.02-7.57l24.2-1.99-4.47-1.92Z"/>
    <path d="M781.04,665.5l-28.33-27.06c-2.08-2-4.99-2.88-7.83-2.37l-45.15,7.98c-1.81.32-3.02,2.05-2.7,3.86h0c.15.78.56,1.49,1.18,2l31.17,25.44h0l51.67-9.85Z"/>
    <path class="cls-7" d="M774.18,682.17c-1.58.74-3.26,1.27-4.98,1.57-8.19,1.94-16.61,2.69-25.01,2.23-1.75,0-3.49-.24-5.18-.7"/>
    <path class="cls-7" d="M783.07,694.64c-1.58.74-3.26,1.27-4.98,1.57-4.09.98-8.24,1.65-12.43,2.02-4.19.38-8.4.45-12.6.21-1.75,0-3.48-.24-5.17-.7"/>
    <path class="cls-7" d="M781.04,665.5c6.12-1.32,14.35-2.91,14.4-2.59"/>
    <path class="cls-23" d="M775.61,666.46l-1.92-1.72-7.26-6.44-10.54-9.65-6.2-5.71c-1.08-.92-2.39-1.54-3.79-1.76-.72-.12-1.45-.13-2.17-.05-.7.12-1.56.28-2.25.4l-31.29,5.4-9.51,1.55-2.58.46c-.3.06-.61.09-.92.08.28-.12.59-.2.89-.24l2.57-.53,9.46-1.82,31.25-5.63,2.31-.41c.79-.08,1.59-.06,2.38.06,1.55.26,3,.94,4.18,1.97l6.19,5.76,10.42,9.78c2.88,2.72,5.25,4.99,6.98,6.65.76.74,1.37,1.37,1.93,1.82"/>
    <path class="cls-3" d="M770.26,655.03c2.44-1.69,4.97-3.25,7.42-4.91.42-.28.14-.13.29-.2-.21.09.13-.03.16-.04.33-.06.65-.13.98-.18,1-.15,2-.25,3.01-.34,2.35-.21,4.7-.35,7.05-.53,1.54-.11,3.26-.1,4.75-.56.27-.08,1.07-.34.96-.76s-.97-.26-1.21-.18c-1.19.37-3.44.38-4.99.49-2.48.17-4.96.33-7.44.59-1.6.17-3.44.26-4.83,1.14-2.65,1.68-5.28,3.43-7.86,5.21-.4.28-.19.57.18.67.49.13,1.14-.14,1.54-.41h0Z"/>
    <path class="cls-3" d="M894.03,285.17c-2.22-.48-3.75-2.47-4.38-4.56-.82-2.74-.2-5.67.39-8.39.09-.42-2.03-.11-2.14.4-.61,2.83-1.29,5.92-.36,8.76.72,2.2,2.38,4.1,4.7,4.6.48.1,1.09-.09,1.52-.29.17-.08.75-.42.28-.52h0Z"/>
    <path class="cls-4" d="M880.32,351.91c6.92.17,19.67,5.52,22.67,8.49,0,0-5.01,8.89-21.04,8.49-16.04-.4-19.19-9.95-19.19-9.95,0,0,8.76-7.25,17.57-7.03Z"/>
    <path class="cls-14" d="M898.95,356.63s-8.21-.92-14.78-1.09c-6.56-.16-14.81.35-14.81.35,0,0-.92-5.33,10.98-5.04,11.9.3,18.61,5.78,18.61,5.78Z"/>
    <path class="cls-2" d="M880.37,367.65c7.54-.97,15.21-7.96,23.96-7.16,0,0-2.65,14.99-21.51,14.52-18.85-.47-21.12-15.58-21.12-15.58,8.77-.37,11.19,6.88,18.68,8.22Z"/>
    <path class="cls-2" d="M872.23,347.66c3.97-.22,6.44,1.47,8.16,1.51,1.72.04,4.28-1.52,8.23-1.1,3.7.39,17.25,11.27,15.47,12.5-1.79,1.23-11.87-6.95-23.8-7.25-11.92-.3-16.38,8.35-18.11,7.03s6.33-12.48,10.05-12.68Z"/>
    <path class="cls-16" d="M621.72,508.84c-7.06,6.44-10.62,16.16-9.36,25.64.1.79,2.29.28,2.17-.58-1.21-9.07,2.18-18.46,8.94-24.64.37-.33.19-.69-.22-.83-.48-.16-1.18.08-1.54.41h0Z"/>
  </g>
</svg>