<?xml version="1.0" encoding="UTF-8"?>
<svg xmlns="http://www.w3.org/2000/svg" xmlns:xlink="http://www.w3.org/1999/xlink" viewBox="0 0 1334 1000">
  <defs>
    <style>
      .cls-1 {
        fill: #cb8c2a;
      }

      .cls-2 {
        fill: #6b3925;
      }

      .cls-3 {
        fill: #542c23;
      }

      .cls-4 {
        fill: #26180f;
      }

      .cls-5 {
        fill: #1d3942;
      }

      .cls-6 {
        fill: url(#linear-gradient-2);
      }

      .cls-7 {
        fill: #4f2f25;
      }

      .cls-8 {
        fill: #604739;
      }

      .cls-9 {
        fill: #f0ecf5;
      }

      .cls-10 {
        fill: #a66e53;
      }

      .cls-11 {
        fill: #f09923;
      }

      .cls-12 {
        fill: url(#linear-gradient);
        opacity: .5;
      }

      .cls-13 {
        fill: #fff;
      }

      .cls-14 {
        fill: #0a1a29;
      }

      .cls-15 {
        fill: #662118;
      }

      .cls-16 {
        fill: #8c3f1e;
      }

      .cls-17 {
        fill: #c5cc8a;
      }

      .cls-18 {
        fill: #b03829;
      }

      .cls-19 {
        fill: #dc8828;
      }

      .cls-20 {
        fill: #0f0d0c;
      }

      .cls-21 {
        fill: #a57351;
      }

      .cls-22 {
        fill: #636464;
      }

      .cls-23 {
        fill: #8c6528;
      }

      .cls-24 {
        fill: #4d596a;
      }

      .cls-25 {
        fill: #b05f28;
      }

      .cls-26 {
        fill: #efe8cf;
      }
    </style>
    <linearGradient id="linear-gradient" x1="-4034.94" y1="6360.54" x2="-3316.7" y2="6360.54" gradientTransform="translate(-5695.04 3974.01) rotate(90) scale(1 -1)" gradientUnits="userSpaceOnUse">
      <stop offset="0" stop-color="#ede8de"/>
      <stop offset=".18" stop-color="#ebe5db" stop-opacity=".99"/>
      <stop offset=".33" stop-color="#e5ded2" stop-opacity=".97"/>
      <stop offset=".47" stop-color="#dbd1c3" stop-opacity=".93"/>
      <stop offset=".6" stop-color="#cdbfae" stop-opacity=".88"/>
      <stop offset=".72" stop-color="#bba993" stop-opacity=".81"/>
      <stop offset=".84" stop-color="#a58d71" stop-opacity=".73"/>
      <stop offset=".96" stop-color="#8b6c4a" stop-opacity=".64"/>
      <stop offset="1" stop-color="#82603c" stop-opacity=".6"/>
    </linearGradient>
    <linearGradient id="linear-gradient-2" x1="901.25" y1="-47.26" x2="918.98" y2="107.52" gradientTransform="translate(2.58 362.35) rotate(.28) scale(1 -1)" gradientUnits="userSpaceOnUse">
      <stop offset=".16" stop-color="#a46f54"/>
      <stop offset=".53" stop-color="#a46f54"/>
      <stop offset=".62" stop-color="#7c543f"/>
      <stop offset=".75" stop-color="#483123"/>
      <stop offset=".86" stop-color="#211610"/>
      <stop offset=".94" stop-color="#0d0b0b"/>
      <stop offset=".99" stop-color="#000"/>
    </linearGradient>
  </defs>
  <g id="Layer_3" data-name="Layer 3">
    <polyline class="cls-26" points="1369.02 977.96 1369.02 -59.72 -38.02 -59.72 -38.02 977.96"/>
    <polyline class="cls-12" points="1369.02 654.94 -38.02 654.94 -38.02 -63.3 1369.02 -63.3"/>
    <g>
      <rect class="cls-13" x="1085.33" y="73.98" width="162.81" height="134.15"/>
      <path class="cls-21" d="M1249.17,72.92c-47.52,0-95.05,0-142.57,0-6.75,0-13.49,0-20.24,0-.85,0-3.46.52-3.46,1.71,0,39.16,0,78.33,0,117.49,0,5.55,0,11.11,0,16.66,0,.48,1.17.41,1.4.41,47.52,0,95.05,0,142.57,0,6.75,0,13.49,0,20.24,0,.85,0,3.46-.52,3.46-1.71,0-39.16,0-78.33,0-117.49,0-5.55,0-11.11,0-16.66,0-.92-4.85-.2-4.85,1.3,0,39.16,0,78.33,0,117.49,0,5.55,0,11.11,0,16.66,1.15-.57,2.3-1.14,3.46-1.71-47.52,0-95.05,0-142.57,0-6.75,0-13.49,0-20.24,0l1.4.41c0-39.16,0-78.33,0-117.49,0-5.55,0-11.11,0-16.66l-3.46,1.71c47.52,0,95.05,0,142.57,0,6.75,0,13.49,0,20.24,0,1.42,0,5.27-2.11,2.06-2.11Z"/>
    </g>
    <rect class="cls-17" x="1123.99" y="99.96" width="84.88" height="85.16" transform="translate(2332.85 285.08) rotate(-180)"/>
    <path class="cls-26" d="M1209.17,127.38c-4.35.19-8.64.97-12.49,2.35-10.42,3.72-17.28,11.3-28.31,14.09-8.41,2.13-18.02,1.06-26.13-1.54-6.57-2.1-12.36-5.13-17.94-8.3v-36.56h84.88v29.96Z"/>
    <g>
      <rect class="cls-13" x="893.51" y="73.98" width="162.81" height="134.15"/>
      <path class="cls-21" d="M892.54,209.42c47.52,0,95.05,0,142.57,0,6.75,0,13.49,0,20.24,0,1.09,0,3.39-.52,3.39-1.93,0-39.16,0-78.33,0-117.49,0-5.55,0-11.11,0-16.66,0-.56-1.13-.63-1.46-.63-47.52,0-95.05,0-142.57,0-6.75,0-13.49,0-20.24,0-1.09,0-3.39.52-3.39,1.93,0,39.16,0,78.33,0,117.49,0,5.55,0,11.11,0,16.66,0,1.33,4.85.48,4.85-1.3,0-39.16,0-78.33,0-117.49,0-5.55,0-11.11,0-16.66l-3.39,1.93c47.52,0,95.05,0,142.57,0,6.75,0,13.49,0,20.24,0l-1.46-.63c0,39.16,0,78.33,0,117.49,0,5.55,0,11.11,0,16.66l3.39-1.93c-47.52,0-95.05,0-142.57,0-6.75,0-13.49,0-20.24,0-1.71,0-5.19,2.57-1.94,2.57Z"/>
    </g>
    <rect class="cls-17" x="932.79" y="96.99" width="84.88" height="85.16"/>
    <path class="cls-26" d="M932.48,154.73c4.35-.19,8.64-.97,12.49-2.35,10.42-3.72,17.28-11.3,28.31-14.09,8.41-2.13,18.02-1.06,26.13,1.54,6.57,2.1,12.36,5.13,17.94,8.3v36.56h-84.88v-29.96Z"/>
  </g>
  <g id="Layer_1" data-name="Layer 1">
    <path class="cls-8" d="M821.71,1247.82c.78-19.47,1.53-38.95,2.13-58.43,1.37-44.82,47.36-89.62,47.36-134.45l-10.4-648.01-602.02-1.7c-130.35.02-152.04,46.39-155.31,201.76-11.8-9.07-130.29-7.45-165.31-7.45-51.46,5.04-75.64,69.95-80.05,159.39l-2.98,118.51-1.68.64c-28.37,17.06-44.42,41.79-44.48,79.67v98.87c.11,24.59,13.93,46.08,33.81,52.59v138.61h978.94Z"/>
    <path class="cls-18" d="M613.12,612.07c-2-5.05,3.52,2.65,2.75-2.73-.7-4.94,1.28-14.67,1.61-19.65.64-9.76,3.48-3.52,6.9-12.67,5-13.36,12.88-9.83,23.15-20.05-14.06-25.49-79.22-166.06-90.81-179.12-7.64-8.62-16.29-16.14-24.73-20.2l-57.22-23.87h0c-18.45,23.15-16.48,38.27-10.31,64.61,4.39,18.78,11.37,29.32,20.38,46.36,18.87,35.67,40.92,69.18,60.29,104.57,9.79,17.89,27.84,50.87,44.39,63.4,8.06,6.1,20.06,12.64,32.03,15.65-.49-1.11-8-15.18-8.44-16.31Z"/>
    <path class="cls-8" d="M1479.5,879l-1.68-.64-2.98-118.51c-4.41-89.44-28.59-154.35-80.05-159.39-35.03,0-153.51-1.62-165.31,7.45-3.75-168.99,13.62-201.76-240.19-201.76l-279.78.68c-2.99,68.59-11.13,59.37-21.23,127.26-12.67,85.16,12.14,169.8-.83,254.91-6.52,42.77,49.79,85.86,44.27,128.77-5.63,43.72-11.31,87.43-16.85,131.16-8.41,66.5-16.48,133.1-23.41,199.81h798.7v-138.61c19.89-6.51,33.71-28,33.81-52.59v-98.87c-.06-37.89-16.11-62.61-44.48-79.67Z"/>
    <path class="cls-18" d="M612.99,545c-6.56,7.4.93,28.29-3.41,37.17-4.15,8.5-5.76,7.51-7.17,16.88-.78,5.15,6.97,3.13,7.41,8.34.45,5.33-6.67-7.01-5.1-1.9.06.18,5.19,18.76,5.25,18.95,6.48,2.3,15.09,5.55,21.08,4.68,19.7,2,60.34-8.47,61.87-10.05,45.9-14.2,112.77-16.66,145.55-29.59l12.87-19.54,3.01-16.09,9.68-25.09-1.18-6.34s-58.02,5.21-111.68,11.43c-45.86,5.31-120.04,3.21-120.04,3.21"/>
    <path class="cls-10" d="M969.33,337.57s-9.89,49.08-5.64,66.41c1.03,4.21,22.63,18.23,22.63,18.23l-104.31,42.21-35.66-42.45s29.72-20.14,31.6-24.89c1.88-4.75,4-41.71,4-41.71"/>
    <path class="cls-3" d="M878.19,391.74s19.88,2.59,25.56,1.99,15.45-1.89,44.16-19.34c0,0-12.41,23.98-41.66,26.72,0,0-26.81.59-28.63-3.81l.57-5.56Z"/>
    <path class="cls-10" d="M954.57,368.29c-15,15.14-29.55,25.73-49.57,28.74-19.64,2.95-39.86-5.69-42.42-8.7-14.02-16.53-18.33-29.42-22.93-48.17-1.25-5.09-1.13-10.51-.5-16.02.94-8.27,3.34-24.11,3.63-32.05.75-20.22.6-40.35,12.61-56.75,25.03-34.16,83.57-28.64,103.56-17.82,23.36,12.64,32.96,36.36,33.15,61.05.06,8.05-1.15,15.52-3.51,22.36-3.6,3.59-6.77,7.52-9.49,11.72"/>
    <path class="cls-10" d="M962.8,350.13c9.68,11.05,19.78-2.74,19.78-2.74,10.49-11.4,11.12-24.07,11.19-32.76.07-8.68-9.47-9.03-9.47-9.03-8.14.48-7.05,1.49-19.17,23.98"/>
    <path d="M911.97,302.85c2.44-.99,5.07.31,6.47,1.81.33.35,1.21,1.35,1.52,2.93.39,2.01-.6,4.16-1.96,5.39-1.81,1.65-4.58,1.7-6.59.52-2.72-1.6-3.33-5.11-2.39-7.54.17-.44.97-2.31,2.94-3.11"/>
    <path d="M898.66,311.73s9.28-10.34,17.98-9.58c12.24,1.07,14.46,7.83,16.78,11.44,0,0-7.14-8.64-16.62-9.25-8.6-.56-18.14,7.39-18.14,7.39Z"/>
    <path d="M856.52,297.78c-2.06-1.42-4.71-.61-6.26.6-.37.28-1.35,1.11-1.91,2.6-.72,1.91-.19,4.2.83,5.66,1.37,1.95,3.89,2.5,5.94,1.71,2.78-1.08,3.96-4.42,3.53-6.98-.08-.47-.47-2.45-2.14-3.59"/>
    <path d="M870.97,309.51s-5.96-11.69-13.48-12.36c-10.58-.94-13.71,5.34-16.35,8.52,0,0,7.65-7.33,15.81-6.39,7.4.85,14.02,10.23,14.02,10.23Z"/>
    <g>
      <path d="M877.18,340.54c2.17,1.38,5.66,1.39,8.06.15.53-.27,2.2.17,1.45.56-3.17,1.63-8.15,1.39-10.96-.39-.28-.18-.21-.4.17-.49.39-.1.99-.02,1.28.17"/>
      <path d="M887.73,340.68c1.58-.6,3.33-.84,5.04-.83.25,0,.57.12.74.3.13.14.15.32-.05.41-.82.39-1.84.49-2.76.4-.29-.03-.67-.13-.81-.4-.13-.24.16-.37.39-.35.76.08,1.55-.01,2.23-.33.23.24.46.47.69.71-1.53,0-3.09.22-4.51.76-.28.11-.67,0-.9-.17-.17-.12-.35-.39-.06-.5"/>
      <path d="M894.49,341.45c2,.11,4.42-.56,5.52-1.99,1.67-2.15.58-6.09-1.79-7.75-.26-.18-.1-.37.18-.41.36-.05.78.12,1.05.31,2.07,1.45,3.23,4.74,2.74,6.85-.47,1.97-2.49,3.21-4.92,3.59-.72.11-1.49.17-2.24.12-.3-.02-.84-.15-.97-.4-.13-.25.15-.34.44-.32"/>
      <path d="M873.61,339.22c.13-.22-.06-.39-.22-.4-.54-.03-1.08-.23-1.51-.64-.19.2-.39.4-.58.61,1.07.21,2.12.65,3.04,1.38.18.15.46.08.65-.05.14-.1.3-.34.11-.48"/>
      <path d="M875.1,339.64c-1.02-.81-2.2-1.29-3.4-1.53-.18-.03-.41.04-.55.2-.11.12-.15.29-.02.41"/>
      <path d="M869.44,339.15c-1.3-.16-2.75-1.15-3.27-2.71-.78-2.35.33-4.98,2.07-6.3.19-.14.11-.36-.06-.43-.23-.1-.51.01-.71.16-1.51,1.15-2.6,3.14-2.56,5.29.04,2.01,1.17,3.51,2.68,4.21.45.21.93.37,1.42.43.2.02.56-.04.67-.27.12-.23-.05-.35-.24-.37"/>
    </g>
    <path d="M900.32,284.23c.13,1.95.26,3.9.39,5.86.1,1.49.21,2.98.31,4.46,4.3-1.54,10.29-2.85,13.09-3.57,5.55-1.43,11.35-2.48,17.09-1.9,2.75.28,5.18.87,7.55,2.23.75.43,2.81,2.36,3.85,1.76.43-.25-.45-2.6-.54-2.84-1.78-4.74-5.75-6.5-10.51-7.35-9.71-1.73-19.3-.85-28.94,1.1"/>
    <path d="M842.77,282.64c.47-1.14.84-2.32,1.05-3.57.85-.3,1.73-.54,2.66-.73,8.48-1.7,16.81-.8,25.15,1.18-.15,1.95-.3,3.9-.46,5.85-.12,1.49-.24,2.97-.36,4.46-3.71-1.55-6.9-2.62-9.32-3.35-4.79-1.45-9.82-2.51-14.83-1.94-1.45.16-2.8.46-4.1.95l.2-2.85Z"/>
    <path class="cls-2" d="M883.38,352.58c8.7.32,22.64.81,22.64.81,0,0-3.65,23.35-23.82,22.61-20.16-.74-19.4-24.87-19.4-24.87,0,0,11.87,1.13,20.57,1.46Z"/>
    <path class="cls-4" d="M883.3,352.57c4.13.15,20.64,1.13,20.64,1.13,0,0-7.11,15.14-22.07,14.59-16.21-.6-16.45-15.74-16.45-15.74l17.88.02Z"/>
    <path class="cls-9" d="M883.09,353.33c4.13.15,16.55.98,16.55.98,0,0-4.54,4.19-16.95,3.74-12.4-.46-16.34-4.8-16.34-4.8l16.73.09Z"/>
    <path class="cls-2" d="M862.34,350.25c.45-.12.45-.12,2.53-.26,3.48-.24,4.98-1.58,7.49-1.73,4.3-.24,6.94,1.92,8.81,1.99,1.86.07,4.66-1.89,8.93-1.33,2.5.33,8.48,2.89,11.93,3.38,2.07.29,3.58.57,4.02.72.61.21.37,3.3-23.04,2.44-23.41-.86-21.29-5.04-20.66-5.2Z"/>
    <path class="cls-3" d="M972.39,328.89c2.07-4.05,4.29-8.06,7-11.72.8-1.07,1.64-2.13,2.58-3.08.35-.36.72-.71,1.11-1.04.15-.13.3-.26.46-.38.08-.06.45-.33.33-.25.26-.18.53-.34.8-.49.22-.12-.17.06.12-.06.1-.04.2-.08.31-.12.13-.05-.28.07.02,0s-.12,0-.04,0c.38-.02-.1-.02.07-.02.25,0-.22-.07-.06,0,.05.02-.34-.31-.24-.08.08.18.39.39.53.54.32.36.62.74.9,1.14,2.45,3.49,2.8,7.86,1.66,11.9-.2.73,1.97.42,2.17-.29,1.11-3.94.85-8.12-1.3-11.66-.52-.85-1.43-2.58-2.57-2.7-1.03-.11-2.11.33-2.99.82-1.82,1-3.31,2.6-4.62,4.17-3.34,4.02-5.9,8.69-8.26,13.32-.45.88,1.71.62,2.01.01h0Z"/>
    <path class="cls-3" d="M972.64,332.2c5.87.23-2.69,12.32,2.76,12.05,1.36-.07,2.29-1.19,2.95-2.27,1.11-1.82,1.83-3.91,2.44-5.94.78-2.59,1.14-4.75.94-7.43-.25-3.29-1.33-7.04-4.59-8.51-.48-.22-1.12-.14-1.55.17-.28.2-.66.74-.16.97,2.68,1.22,3.66,4.18,4.01,6.91.23,1.78.3,3.66-.12,5.42-.55,2.29-1.23,4.59-2.22,6.73-.31.67-.64,1.33-1.06,1.94-.14.2-.43.43-.53.64-.23.49.54-.31.52.02,0-.04-.26-.38-.29-.45-.07-.18-.09-.39-.1-.59-.03-.53.09-1.09.19-1.61.25-1.29.63-2.56.88-3.85.24-1.22.48-2.67-.05-3.85-.57-1.28-1.92-1.68-3.23-1.73-.46-.02-1.21.15-1.43.63s.18.74.62.76h0Z"/>
    <g>
      <path d="M943.56,185.47c-.18.09-.2.09,0,0h0Z"/>
      <path d="M950.44,199.36c-.1-.19-.2-.34-.28-.43.09.17.18.33.28.49,0-.02,0-.04,0-.06Z"/>
      <path d="M950.44,199.43s0,.04,0,.05l.1.13c-.04-.06-.07-.12-.11-.18Z"/>
    </g>
    <path class="cls-6" d="M946.12,242.1c6.63,2.32,15.22,23.77,14.45,30.75-.95,8.6-1.83,18.79-1.32,20.47,1.16,3.83,2.2,4.41,5.64,15.73l-1.43,8.14c0,1.82-.6,6.57-.54,10.95,1.07.56,1.79,1.38,2.98,1.2,3.97-.19,1.65-3.56,2.8-7.24,1.8-5.8,3.37-10.56,8.21-14.62,1.6-1.35,5.9-.95,7.75-1.68,4.78-.15,7.06,3,7.06,3,0,0,.31-3.98.86-6.06,1.43-6.37,3.87-10.54,6.25-27.69,3.67-26.13-39.29-54.06-64.04-57.45-13.61-1.87-73.11,2.56-84.73,8.32-7.4,3.66.88,11.04-2.05,22.14,3.94-1.81,2.54-7.92,6.75-8.95,10.85-2.67,3.09-.76,23.08,4.63,7.32,1.98,15.02,2.13,22.42.46,12.42-2.8,33.52-6.42,45.86-2.11Z"/>
    <path d="M852.72,229.79c-1.61-.29-2.85-1.58-3.08-3.2-.37-1.6-.24-3.19-.58-4.68-.47-2.09-1.8-4.27-.89-6.21.9-1.94,3.2-2.31,5.21-2.29-1.05-1.88-.38-4.25,1.5-5.3,1.28-.72,2.86-.65,4.08.17-.32-3.68,2.41-6.93,6.09-7.25,1.4-.12,2.81.2,4.02.92-.61-2.7-.32-5.92,1.82-7.66,2.15-1.74,6.29-.5,6.21,2.26.16-2.21,2.06-3.88,4.28-3.74,2.19.29,3.85,2.12,3.95,4.32,1.73-1.59,1.71-4.42,3.22-6.16,2.29-2.54,7.42-.57,7.43,2.84,1.21-2.26,2.65-4.77,5.11-5.51,2.82-.7,5.68,1.01,6.38,3.83.08.32.13.65.15.99,1.3-2.36,3.28-4.28,5.69-5.49.74-.43,1.59-.63,2.44-.58,1.8.23,2.8,2.2,3.17,3.95.37,1.76.82-.52,2.12.72.86-2.47,1.94-1.08,4.61-1.53,3.4-.61,5.87,2.18,7.05,5.42,1.05-2.5,2.57-4.32,5.28-4.15,1.74.26,3.17,1.52,3.65,3.21.5,1.63,1.11,1.07.96,2.77,1.43-2.64,3.08-2.6,5.62-4.2.67-.52,1.51-.75,2.35-.64.85.33,1.51,1.01,1.82,1.86,1.07,2.14,1.68,4.48,1.78,6.87,1.68-1.51,3.52-2.82,5.5-3.9.53-.36,1.16-.55,1.8-.55,1.29.12,1.99,1.6,2.17,2.85-.02,1.29.27,2.56.84,3.72,2.11-1.41,4.69-2.72,7.12-1.97,2.44.75,7.02,5.28,4.77,6.46l2.99-1.75c3.64-.67,6.42,2.31,6.85,3.17.29.59.23,1.3-.17,1.83l-.82,2.7c2.82-1.25,6.08-.93,8.61.84,2.32,1.94,5.9,7.35,3.29,8.89,3.33,1.15,6.54,2.78,5.39,6.1-.15.44-.35.85-.59,1.25,3.26,4.31,3.71,6.45.61,22.82.09,1.29-4.73,27.43-5.43,28.53-1.38,1.72-6.64-29.82-8.66-30.66-5.98-2.5-5.22-8-10.31-12.11-11.25-8.92-26.76-9.49-41.13-9.67"/>
    <path class="cls-10" d="M871.6,516.86l-77.63-18.6-6.2,42.62,3.99,224.3c13.27,6.48,51.96-7.92,65.94-3.29,8.09,2.68-12.25-80.41-4.29-77.35,1.79-5.79,6.84-111.43,8.05-116.91,3.46-15.66,6.08-3.8,10.13-50.76Z"/>
    <path class="cls-20" d="M-121.9,878.24c.23,0,.47,0,.7,0h2.08c1.14-.01,2.28-.02,3.42-.02,1.58,0,3.15-.01,4.73-.02l5.97-.02,7.23-.02c2.81,0,5.62-.02,8.44-.03,3.2-.01,6.4-.02,9.6-.03l10.74-.04,11.84-.04c4.3-.01,8.6-.03,12.91-.04,4.63-.02,9.25-.03,13.88-.05,4.98-.02,9.95-.03,14.93-.05l15.89-.05c5.61-.02,11.22-.04,16.82-.06,5.91-.02,11.81-.04,17.72-.06,6.16-.02,12.33-.04,18.49-.06,6.47-.02,12.93-.04,19.4-.07,6.73-.02,13.46-.05,20.19-.07,6.98-.02,13.96-.05,20.95-.07,7.22-.02,14.45-.05,21.67-.07,7.45-.03,14.9-.05,22.36-.08,7.67-.03,15.34-.05,23.01-.08,7.84-.03,15.68-.05,23.52-.08,8.07-.03,16.14-.06,24.21-.08,8.25-.03,16.51-.06,24.76-.09,8.42-.03,16.85-.06,25.27-.09,8.58-.03,17.17-.06,25.75-.09,8.73-.03,17.47-.06,26.2-.09s17.74-.06,26.61-.09l26.87-.09c9.11-.03,18.22-.06,27.33-.09,9.21-.03,18.43-.06,27.64-.1,9.3-.03,18.61-.06,27.91-.1,9.38-.03,18.77-.06,28.15-.1,9.45-.03,18.91-.07,28.36-.1,9.51-.03,19.02-.07,28.53-.1s19.03-.07,28.54-.1c9.59-.03,19.18-.07,28.77-.1,9.61-.03,19.22-.07,28.84-.1,9.62-.03,19.25-.07,28.87-.1,9.62-.03,19.25-.07,28.87-.1s19.14-.07,28.71-.1c9.59-.03,19.17-.07,28.76-.1,9.55-.03,19.1-.07,28.66-.1,9.51-.03,19.01-.07,28.52-.1,9.45-.03,18.9-.07,28.34-.1s18.76-.06,28.14-.1c9.3-.03,18.6-.06,27.89-.1,9.17-.03,18.33-.06,27.5-.09,9.1-.03,18.21-.06,27.31-.09,8.99-.03,17.97-.06,26.96-.09,8.86-.03,17.72-.06,26.58-.09,8.72-.03,17.44-.06,26.17-.09l25.72-.09c8.41-.03,16.82-.06,25.23-.09,8.2-.03,16.41-.06,24.61-.08l24.17-.08c7.86-.03,15.72-.05,23.58-.08,7.65-.03,15.31-.05,22.96-.08,7.43-.03,14.87-.05,22.3-.08,7.17-.02,14.35-.05,21.52-.07,6.96-.02,13.93-.05,20.89-.07,6.71-.02,13.42-.05,20.13-.07,6.45-.02,12.89-.04,19.34-.07s12.34-.04,18.51-.06c5.88-.02,11.77-.04,17.65-.06l16.75-.06c5.25-.02,10.5-.04,15.75-.05l14.86-.05,13.86-.05c4.28-.01,8.55-.03,12.83-.04,3.92-.01,7.84-.03,11.76-.04,3.55-.01,7.1-.02,10.65-.04,3.17-.01,6.34-.02,9.51-.03,2.77,0,5.54-.02,8.31-.03,2.38,0,4.76-.02,7.14-.02l5.9-.02,4.62-.02c1.1,0,2.21,0,3.31-.01h1.97c.2,0,.4,0,.6,0,.43,0,1.24-.14,1.43-.61.18-.44-.15-.7-.61-.7-.23,0-.47,0-.7,0-.69,0-1.38,0-2.08,0-1.14,0-2.28,0-3.42.01-1.58,0-3.15.01-4.73.02l-5.97.02c-2.41,0-4.82.02-7.23.02-2.81,0-5.62.02-8.44.03-3.2.01-6.4.02-9.6.03-3.58.01-7.16.02-10.74.04-3.95.01-7.89.03-11.84.04-4.3.01-8.6.03-12.91.04-4.63.02-9.25.03-13.88.05-4.98.02-9.95.03-14.93.05-5.3.02-10.6.04-15.89.05-5.61.02-11.22.04-16.82.06-5.91.02-11.81.04-17.72.06l-18.49.06c-6.47.02-12.93.04-19.4.07-6.73.02-13.46.05-20.19.07-6.98.02-13.96.05-20.95.07-7.22.02-14.45.05-21.67.07-7.45.03-14.9.05-22.36.08-7.67.03-15.34.05-23.01.08-7.84.03-15.68.05-23.52.08-8.07.03-16.14.06-24.21.08-8.25.03-16.51.06-24.76.09-8.42.03-16.85.06-25.27.09-8.58.03-17.17.06-25.75.09-8.73.03-17.47.06-26.2.09-8.87.03-17.74.06-26.61.09-8.96.03-17.92.06-26.87.09-9.11.03-18.22.06-27.33.09-9.21.03-18.43.06-27.64.1-9.3.03-18.61.06-27.91.1-9.38.03-18.77.06-28.15.1-9.45.03-18.91.07-28.36.1-9.51.03-19.02.07-28.53.1-9.51.03-19.03.07-28.54.1-9.59.03-19.18.07-28.77.1-9.61.03-19.22.07-28.84.1-9.62.03-19.25.07-28.87.1-9.62.03-19.25.07-28.87.1-9.57.03-19.14.07-28.71.1-9.59.03-19.17.07-28.76.1-9.55.03-19.1.07-28.66.1-9.51.03-19.01.07-28.52.1-9.45.03-18.9.07-28.34.1s-18.76.06-28.14.1-18.6.06-27.89.1c-9.17.03-18.33.06-27.5.09l-27.31.09c-8.99.03-17.97.06-26.96.09-8.86.03-17.72.06-26.58.09-8.72.03-17.44.06-26.17.09l-25.72.09c-8.41.03-16.82.06-25.23.09-8.2.03-16.41.06-24.61.08-8.06.03-16.11.06-24.17.08l-23.58.08c-7.65.03-15.31.05-22.96.08-7.43.03-14.87.05-22.3.08-7.17.02-14.35.05-21.52.07-6.96.02-13.93.05-20.89.07-6.71.02-13.42.05-20.13.07-6.45.02-12.89.04-19.34.07-6.17.02-12.34.04-18.51.06-5.88.02-11.77.04-17.65.06L0,876.51c-5.25.02-10.5.04-15.75.05l-14.86.05-13.86.05c-4.28.01-8.55.03-12.83.04-3.92.01-7.84.03-11.76.04-3.55.01-7.1.02-10.65.04-3.17.01-6.34.02-9.51.03l-8.31.03c-2.38,0-4.76.02-7.14.02l-5.9.02c-1.54,0-3.08.01-4.62.02-1.1,0-2.21,0-3.31.01h-1.97c-.2,0-.4,0-.6,0-.43,0-1.24.14-1.43.61-.18.44.15.7.61.7h0Z"/>
    <path class="cls-20" d="M1224.65,611.91c-11.34,15.39-21.92,31.79-29.59,49.34-4.11,9.4-6.78,19.21-8.27,29.35-1.58,10.75-2.03,21.63-2.45,32.47-.58,15.01-.96,30.03-1.31,45.04-.42,17.68-.78,35.36-1.12,53.04-.31,15.55-.59,31.09-.93,46.64-.03,1.55-.07,3.1-.1,4.65,0,.37,2.16.07,2.17-.58.33-14.97.61-29.93.9-44.9.34-17.62.69-35.23,1.1-52.85.36-15.56.73-31.12,1.28-46.68.72-20.33,1.18-41.25,8.42-60.53,3.37-8.98,7.83-17.56,12.63-25.85,4.83-8.34,10.09-16.44,15.65-24.31,1.24-1.75,2.49-3.49,3.76-5.21.24-.33-.8-.25-.88-.23-.44.07-.99.23-1.27.61h0Z"/>
    <path class="cls-20" d="M1287.71,611.71c-11.3,15.34-21.82,31.66-29.51,49.13-4.12,9.36-6.84,19.13-8.35,29.24-1.63,10.87-2.08,21.87-2.51,32.83-.58,15.01-.96,30.03-1.31,45.04-.42,17.68-.78,35.36-1.12,53.04-.31,15.55-.59,31.09-.93,46.64-.03,1.55-.07,3.1-.1,4.65-.02.87,2.15.41,2.17-.28.33-14.97.61-29.93.9-44.9.34-17.62.69-35.23,1.1-52.85.36-15.56.73-31.12,1.28-46.68.72-20.24,1.16-41.08,8.3-60.29,3.37-9.06,7.85-17.69,12.68-26.04,4.83-8.34,10.09-16.44,15.65-24.31,1.24-1.75,2.49-3.49,3.76-5.21.56-.77-1.61-.59-2.02-.03h0Z"/>
    <path class="cls-20" d="M103.25,612.02c11.34,15.39,21.92,31.78,29.59,49.34,4.07,9.32,6.74,19.05,8.23,29.12,1.61,10.83,2.06,21.8,2.48,32.73.58,15.03.96,30.06,1.31,45.1.42,17.62.77,35.24,1.12,52.86.31,15.55.59,31.09.93,46.64.03,1.55.07,3.1.1,4.65,0,.3,2.19-.01,2.17-.58-.33-15.03-.61-30.05-.91-45.08-.34-17.56-.69-35.11-1.09-52.67-.36-15.61-.74-31.21-1.29-46.81-.72-20.32-1.19-41.24-8.42-60.5-3.38-8.98-7.83-17.55-12.63-25.85s-10.09-16.44-15.65-24.31c-1.24-1.75-2.49-3.49-3.76-5.21-.36-.5-2.3.41-2.17.58h0Z"/>
    <path class="cls-20" d="M40.25,612.02c11.34,15.39,21.92,31.78,29.59,49.34,4.07,9.32,6.74,19.05,8.23,29.12,1.61,10.83,2.06,21.8,2.48,32.73.58,15.03.96,30.06,1.31,45.1.42,17.62.77,35.24,1.12,52.86.31,15.55.59,31.09.93,46.64.03,1.55.07,3.1.1,4.65,0,.41,2.19.07,2.17-.58-.33-15.03-.61-30.05-.91-45.08-.34-17.56-.69-35.11-1.09-52.67-.36-15.61-.74-31.21-1.29-46.81-.72-20.32-1.19-41.24-8.42-60.5-3.38-8.98-7.83-17.55-12.63-25.85-4.83-8.34-10.09-16.44-15.65-24.31-1.24-1.75-2.49-3.49-3.76-5.21-.41-.55-2.37.31-2.17.58h0Z"/>
    <path class="cls-14" d="M793.55,860.73c-1.63-4.94-1.17,13.65-3.22,8.9-4.65-10.73-10.26-20.98-16.51-30.75-6.43-10.04-13.59-19.57-21.43-28.41-5.33-6-11-11.71-17.01-16.96,95.89-41.36,321.18-80.45,321.18-80.45,0,0,75.61,38.89,51.32,121.47-7.28,24.74-26.06,31.01-58.1,36.01-75.89,11.85-198.99-3.84-256.2-9.82-.39-.04.38.04,0,0Z"/>
    <path class="cls-14" d="M708.21,871.47c20.92,59.8,67.13,228.94,95.94,301.25,0,0,79.24,4.03,85.21-14.2,0,0,1.73-405.02-46.84-411.57-35.8-4.82-96.73,8.14-115.21,23.34-22.19,18.24-35.57,54.08-19.1,101.18Z"/>
    <path class="cls-14" d="M746.94,831.39s12.17-2.34,29.55-1.98c-3.36-7.29-4.51-12.73-4.51-12.73,1.61-1.84,3.32-3.73,5.11-5.66,9.95,2.33,19.67,5.53,29.1,9.36,10.97,4.45,21.58,9.74,31.71,15.77,9.76,5.81,19.09,12.37,27.69,19.7,2.44,2.07,4.81,4.22,7.11,6.44-.29.09,4.78-.66,4.48-.57,33.6,35.09,32.76,113.43,52.2,184.52,14.26,52.14,32.86,112.47,32.86,112.47-7.72,17.54-103.84,24.74-103.84,24.74-34.17-94.62-111.45-352.06-111.45-352.06Z"/>
    <path class="cls-11" d="M1068.18,438.49c-5.61-9.92-31.74-24.88-42.95-28.9-29.2-10.44-55.24-19.27-55.24-19.27,0,0-26.88,44.3-70.39,41.09-43.52-3.21-24.28-27.74-24.28-27.74l-12.93,5.38c-19.3,9.29-37.31,18.75-51.45,34.94-12.03,13.79-17.97,21.34-25.82,42.99-3.98,10.99-2.48,29.73-13.86,62.08-1.12,3.17-7.68,25.52-7.77,26.15-.66,4.67,12.26,8.71,31.93,13.33,9.96,2.34,18.97,1.41,23.37,3.03.57.95,9.84,71.18,10.04,72.51,3.17,21.09,4.68,38.74,5.29,62.23.01.53,5.18,35.76,5.2,36.29,1.77-.17-7.22.71-5.45.55,27.93-2.46,46.64-9.95,76.69-14.1,13.98-1.93,31.52-3.57,45.62-3.46,2.86.02,4.77.09,7.79.06,2.62-.02,5.23-.08,7.85-.14,14.36-.35,48.85-9.06,63.21-8.89,15.21.18,44.14-3.1,59-.01,2.86.59,11.79,27.6,14.88,28.57-.12-5.86-9.11-29.68-9.26-35.54-1.45-50.34-27.06-68.93-35.62-161.19l3.54-10.06,17.78-69c-.34-15.72-3.14-26.11-17.16-50.89Z"/>
    <g>
      <path class="cls-11" d="M963.51,386.23s-15.39,42.23-58.16,43.67c-42.77,1.44-32.22-22.35-32.22-22.35l2.89-7.28-14.39,9.36s-.85,10.56,5.23,20.08,25.96,14.31,52.95,9.28c15.83-2.95,28.36-9.52,39.92-22.42,13.84-15.45,16.34-25.01,16.34-25.01l-12.56-5.33Z"/>
      <path class="cls-16" d="M962.44,386.44c-1.72,4.71-4.33,9.21-7.08,13.38-6.11,9.25-14.14,17.37-23.89,22.76-6.12,3.39-12.84,5.58-19.78,6.46-7.68.97-15.92.87-23.49-.87-7.23-1.66-14.65-5.87-15.12-14.04-.25-4.34,1.62-8.07,3.18-12,.27-.69.55-1.37.82-2.06.18-.46-1.72.09-1.89.2-2.95,1.92-5.9,3.83-8.84,5.75-1.6,1.04-3.19,2.08-4.79,3.11-.24.16-.64.32-.84.55-.27.31-.21.66-.22,1.09-.13,6.37,1.52,12.98,4.79,18.45,2.47,4.13,6.49,6.79,10.89,8.56,5.85,2.35,12.22,3.28,18.48,3.56,8.41.38,16.87-.47,25.12-2.03,7.15-1.35,14.15-3.54,20.64-6.86,6.73-3.45,12.76-8.12,18.02-13.55,5.32-5.5,10.19-11.59,14.16-18.13,1.71-2.82,3.42-5.83,4.41-9,.04-.14.09-.27.12-.41.04-.07.02-.12-.04-.16-4.19-1.78-8.38-3.56-12.56-5.33-.41-.17-1,.01-1.39.15-.08.03-.97.43-.66.57,3.12,1.33,6.25,2.65,9.37,3.98l2.34.99c.2.09.89.5.8.21.09.33-.4,1.2-.51,1.49-1.41,3.65-3.42,7.08-5.56,10.34-4.14,6.3-9.02,12.28-14.46,17.51-5.05,4.87-10.78,9.02-17.13,12.04-6.52,3.1-13.48,4.9-20.59,6.04-7.66,1.23-15.5,1.79-23.24,1.17-5.71-.46-11.52-1.52-16.76-3.92-4.29-1.97-7.7-4.78-9.96-8.96-2.8-5.19-4.22-11.26-4.13-17.15,0-.33.01-.66.04-.98l-.26.29c4.8-3.12,9.6-6.24,14.39-9.36l-1.89.2c-1.62,4.08-3.88,8.3-4.05,12.8-.1,2.79.58,5.58,2.14,7.92,2.38,3.55,6.3,5.65,10.27,6.92,7.18,2.31,15.09,2.53,22.56,2.14,7.36-.38,14.63-1.99,21.43-4.85,11.11-4.68,20.48-12.7,27.62-22.33,2.55-3.43,4.83-7.06,6.8-10.85.65-1.25,1.28-2.52,1.86-3.82.29-.64.76-1.41.89-2.11.02-.09.07-.18.1-.27.11-.31-1.94-.13-2.14.41Z"/>
    </g>
    <path class="cls-14" d="M792.86,879.71c-2.21-4.48-4.65-8.84-7.25-13.08-5.86-9.57-12.58-18.54-19.85-26.96-7.47-8.65-15.57-16.7-24.25-23.99-5.89-4.95,11.86-20.72,5.42-24.85-24.17-72.11,353.4-57.05,353.4-57.05,0,0,14.79,31.38,11.64,77.23-5.87,85.54-240.76,53.42-319.15,57.32-.37.02.39,11.36.02,11.37Z"/>
    <path class="cls-24" d="M852.82,1170.73c-.08-.24-.16-.47-.24-.71-.23-.69-.47-1.39-.7-2.08-.38-1.12-.75-2.24-1.13-3.35-.51-1.53-1.02-3.06-1.54-4.58-.64-1.91-1.28-3.82-1.92-5.72-.76-2.26-1.51-4.53-2.27-6.79-.87-2.59-1.73-5.18-2.6-7.78-.97-2.89-1.93-5.79-2.9-8.69-1.05-3.16-2.11-6.32-3.16-9.47-1.14-3.42-2.28-6.85-3.42-10.27-1.22-3.65-2.43-7.3-3.64-10.95-1.28-3.85-2.56-7.7-3.84-11.56-1.34-4.03-2.67-8.06-4.01-12.08-1.38-4.18-2.77-8.36-4.15-12.53-1.42-4.28-2.83-8.56-4.25-12.85-1.45-4.4-2.91-8.8-4.36-13.2-1.47-4.47-2.95-8.95-4.42-13.43-1.49-4.52-2.97-9.05-4.46-13.57-1.49-4.55-2.98-9.09-4.47-13.64-1.48-4.52-2.96-9.04-4.43-13.56-1.47-4.51-2.94-9.03-4.41-13.54-1.45-4.46-2.9-8.92-4.34-13.38-1.42-4.38-2.83-8.76-4.24-13.14s-2.75-8.55-4.12-12.83c-1.32-4.12-2.64-8.25-3.96-12.38-1.27-3.99-2.54-7.98-3.8-11.97-1.2-3.81-2.4-7.61-3.6-11.42-1.13-3.6-2.25-7.2-3.37-10.8-1.04-3.37-2.08-6.73-3.12-10.1-.95-3.11-1.9-6.22-2.84-9.33-.85-2.81-1.69-5.62-2.52-8.44-.74-2.51-1.48-5.03-2.2-7.55-.62-2.18-1.24-4.36-1.84-6.55-.5-1.82-.99-3.64-1.45-5.47-.37-1.43-.72-2.87-1.04-4.31-1.39-6.23-2.23-12.61-2.38-18.99-.16-6.65.47-13.33,2.07-19.8,1.36-5.51,3.45-10.84,6.23-15.79,3.2-5.71,7.4-10.82,12.42-15.03,5.01-4.19,10.75-7.45,16.85-9.78,6.05-2.32,12.44-3.7,18.89-4.3.47-.04.67-.67.08-.61-6.64.62-13.2,2.06-19.43,4.45-6.04,2.32-11.75,5.56-16.74,9.69s-9.27,9.2-12.52,14.85c-2.79,4.84-4.9,10.05-6.34,15.44-1.71,6.42-2.44,13.08-2.38,19.72.06,6.75.91,13.51,2.35,20.1.31,1.42.66,2.83,1.01,4.24.46,1.8.94,3.6,1.42,5.39.59,2.17,1.2,4.34,1.82,6.51.71,2.5,1.44,5,2.18,7.49.83,2.82,1.67,5.64,2.52,8.46.93,3.1,1.87,6.19,2.82,9.28,1.03,3.37,2.07,6.74,3.12,10.11,1.11,3.59,2.23,7.18,3.36,10.77,1.2,3.82,2.4,7.63,3.61,11.45,1.26,3.98,2.52,7.96,3.79,11.94,1.32,4.16,2.65,8.32,3.99,12.47,1.37,4.27,2.74,8.54,4.12,12.81,1.42,4.4,2.84,8.8,4.26,13.19,1.44,4.46,2.89,8.92,4.34,13.37,1.47,4.53,2.95,9.07,4.43,13.6,1.48,4.54,2.96,9.09,4.45,13.63s2.99,9.13,4.49,13.7c1.48,4.52,2.97,9.05,4.46,13.57,1.48,4.5,2.96,8.99,4.44,13.49s2.9,8.81,4.36,13.21c1.43,4.32,2.86,8.65,4.29,12.97s2.77,8.36,4.15,12.54,2.68,8.09,4.03,12.14c1.28,3.85,2.56,7.7,3.84,11.56,1.22,3.67,2.44,7.34,3.66,11,1.14,3.42,2.28,6.85,3.42,10.27,1.06,3.18,2.12,6.37,3.19,9.55.96,2.89,1.93,5.78,2.9,8.67.87,2.6,1.74,5.2,2.61,7.8.75,2.26,1.51,4.51,2.27,6.77.64,1.91,1.28,3.82,1.92,5.73.51,1.52,1.02,3.04,1.53,4.56.37,1.12.75,2.23,1.12,3.35.23.68.46,1.36.68,2.04.07.22.15.44.22.67.13.38.99.14.86-.23h0Z"/>
    <path class="cls-10" d="M1076.45,503.23l-78.98-11.63.9,50.29-3.03,93.08c13.79,5.27,41.07-.76,55.41,2.6,8.3,1.95,7.16.14,15.35,2.48,1.27-5.93,4.05-79.8,4.77-85.37,2.05-15.9,5.72-4.32,5.58-51.46Z"/>
    <path class="cls-10" d="M1072.52,560.96s-3.19,60.99-3.38,63.83c-1.16,17.62-3.56,40.21-13.67,57.9-13.58,23.75-38.9,21.27-64.25.69-28.04-22.77,18.71-71.02,18.71-71.02l62.59-51.39Z"/>
    <path class="cls-10" d="M1046.56,692.45c-5.61,6.64-18.95,13.93-37.09,13.14-54.95-2.39-148.1-19.07-197.73-29.6l11.98-17.04-5.48-19.17,178.78-9.58"/>
    <path class="cls-11" d="M1085.19,485.45s1.97,47.03.02,83.08c0,0-56.13,10.23-92.99-1.86-39.06-12.81-9.91-96.37-9.91-96.37l102.88,15.15Z"/>
    <g>
      <path class="cls-11" d="M1024.12,435.91c2.79-.04-28.34,3.64-36.26,60.28-8.36,59.84-.75,70.04-.75,70.04,0,0,4.08,3.74,9.59,2.55"/>
      <path class="cls-16" d="M1024.01,436.66c-.07,0-.15.01-.25-.02-.94-.33-.23-1.1-.03-1.26-.18.15.34-.12.07-.03-.11.04-.21.07-.32.11-.82.29-1.63.59-2.43.93-2.79,1.2-5.43,2.79-7.85,4.62-9.47,7.14-15.81,17.74-19.94,28.69-3.46,9.2-5.45,18.82-6.78,28.53-1.42,10.39-2.58,20.82-3.21,31.29-.4,6.7-.6,13.42-.29,20.13.18,3.79.48,7.6,1.23,11.33.33,1.64.72,3.31,1.43,4.83.83,1.8,2.87,2.65,4.66,3.27,2.14.74,4.37.81,6.58.38,1.36-.27.97-1.66-.37-1.4-2.29.45-4.63-.03-6.66-1.15-.54-.3-1.04-.64-1.54-1-.11-.08-.44-.44-.21-.16-.1-.12-.31-.55-.19-.32-.67-1.35-1.05-2.85-1.37-4.32-.77-3.47-1.11-7.04-1.31-10.59-.36-6.41-.21-12.85.13-19.26.54-10.15,1.62-20.27,2.94-30.34,1.33-10.12,3.11-20.17,6.59-29.8,3.98-11.03,10.13-21.9,19.62-29.1,2.4-1.82,4.8-3.28,7.57-4.46.41-.17.82-.33,1.23-.49s-.05.01.25-.09c.13-.05.27-.09.4-.14.53-.19,1.86-.57,1.35-1.38-.21-.33-.73-.3-1.06-.3-1.21.02-1.7,1.52-.22,1.5h0Z"/>
    </g>
    <path class="cls-3" d="M995.38,630.82c5.62,2.27,11.16,4.82,16.24,8.15,4.73,3.1,9.22,6.93,11.94,11.97,1.51,2.8,2.33,5.92,2.37,9.1.02,1.19,2.22.9,2.21-.14-.16-12.74-11.49-20.94-21.77-26.21-3.17-1.63-6.44-3.06-9.75-4.4-.98-.39-2.53,1.01-1.24,1.53h0Z"/>
    <path class="cls-10" d="M740.31,624.59l13.36-8.74c2.27-1.47,4.9-2.29,7.6-2.38l26.35-.76,27.92,24.01,8.24,3.82,1.17,37.03-17.75-1.67s-39.51,7.73-43.24,5.38-10.42-9.03-10.42-9.03c0,0-20.89-6.11-22.97-7.86-7.89-6.68-4.84-8.42-4.84-8.42l-3.59-1.55c-.62,1.27-6.02-6.98-5.6-11.21.24-2.46-.48-2.43-.48-2.43-3.53-1.9-6.04-5.26-6.86-9.18-.45-2.49,11.01-6.03,11.01-6.03l24.23,1.56-4.14-2.55Z"/>
    <path d="M760.14,627.87l-24.09-30.9c-1.77-2.28-4.52-3.58-7.41-3.49l-45.83,1.31c-1.84.05-3.29,1.59-3.24,3.43h0c.03.8.34,1.56.87,2.15l27.13,29.71h0l52.55-2.22Z"/>
    <path class="cls-3" d="M750.74,642.65c-2.83.81-5.81.91-8.73,1.03s-5.95.09-8.92-.09-5.63-.49-8.42-.94c-2.84-.46-5.69-.92-8.36-2.05-.87-.37-2.53.88-1.27,1.41,2.67,1.13,5.53,1.6,8.38,2.07,3.11.52,6.24.87,9.38,1.05s6,.19,8.99.07,6.3-.27,9.32-1.13c1.32-.38.96-1.8-.38-1.41h0Z"/>
    <path class="cls-3" d="M757.81,656.6c-2.81.8-5.8.88-8.7,1s-5.98.07-8.97-.12c-2.82-.18-5.64-.51-8.43-.97s-5.56-.93-8.16-2.03c-.51-.22-2.48.59-1.77.89,2.72,1.15,5.64,1.62,8.54,2.09,3.11.51,6.25.85,9.4,1.02s6.13.18,9.2.03c3.06-.15,6.14-.31,9.1-1.16.21-.06,1.11-.33.98-.68s-.97-.16-1.19-.1h0Z"/>
    <path class="cls-3" d="M753.28,628.71c-.06.18-.64.44-.61.47,0,0,.17-.04.16-.04.2.01.5-.09.72-.12.84-.13,1.68-.22,2.52-.31,2.46-.26,4.92-.45,7.38-.61,2.31-.15,4.63-.27,6.95-.32.83-.02,1.65-.03,2.48,0,.22,0,.46.05.68.03.36-.03.25.19.12-.12.29.69,2.42.02,2.17-.58-.34-.82-3.03-.48-3.68-.47-2.99.03-5.97.2-8.95.41-2.8.19-5.61.4-8.4.76-.86.11-3.35.15-3.71,1.21-.22.65,1.93.37,2.16-.3h0Z"/>
    <path class="cls-22" d="M755.28,628.7c-.24-.2-.45-.42-.64-.66l-1.65-1.99-6.25-7.43-9.02-11.08-5.3-6.55c-.93-1.07-2.14-1.87-3.5-2.3-.69-.22-1.41-.34-2.14-.37l-2.28.07-31.74.78-9.64.15-2.62.08c-.31.02-.62,0-.92-.05.3-.08.61-.12.92-.11l2.62-.15,9.63-.42,31.73-1.02,2.35-.07c.8.03,1.59.17,2.35.41,1.49.49,2.83,1.37,3.85,2.56l5.29,6.6,8.88,11.2c2.46,3.11,4.47,5.7,5.93,7.6.64.84,1.16,1.55,1.65,2.08.19.21.36.44.5.68Z"/>
    <path class="cls-5" d="M243.32,649.93s-73.79,114.08-28.52,199.8c21.57,40.82,86.11,40.79,86.11,40.79l66.2-83.25v-137.68l-123.78-19.66Z"/>
    <path class="cls-18" d="M506.67,606.93c2.54-8.71,3.93-9.4,7.47-17.75,0,0,5.45-5.3,15.79-12.88,3.17-2.32,12.5-12.52,18.6-35.05,1.56-12.69,13.5-22.93,15.12-35.62,2.6-20.42,11.81-38.19,12.61-58.8.75-19.47-7.95-43.67-21.26-59.13-5.58-6.48-7.24-10.58-14.09-15.57l-20.41-15.6c-.8-.35-12.45-8.51-13.28-8.8-1.78-.64-3.1-.77-3.75-2l-8.76-4.7-54.75-38.45-43.22,8.87s-59.35,6.84-72.12,13.26c-15.62,7.81-35.96,200.6-35.96,200.6,0,0,23.13,35.88-36.29,103.45-.39.44-28.73,56.27-29.01,56.8-.87,1.66,3.46,1.35,4.75,2.54,4,3.68,4.37,1.53,9.09,4.2,9.63,5.43,18.35,6.17,28.8,9.62,14.22,4.69,28.6,8.95,43.22,12.19,13.64,3.02,28.38,2.95,41.74,6.67l154.11,19.67s-3.33-71.65-3.33-71.65c-.38-8.23-1.65-16.35-1.69-24.63-.05-8.63-1,1.5.09-7.06.54-4.18,2.29-14.86,3.13-19,.1-.51,3.25-10.67,3.4-11.17Z"/>
    <path class="cls-5" d="M676.22,803.25c-3.34,100.27-13.35,271.53-29.28,373.88,0,0-77.2,38.36-88.62,15.92,0,0-27.78-209.3-65.77-332.21-33.46-108.24-236.5-116.5-210.72-126.31,40.58-15.44,300.98-36.54,351.28-18.41,33.35,12.02,45.32,20.63,43.11,87.12Z"/>
    <path class="cls-5" d="M635.43,723.9c-3.58-3.05-7.42-5.95-11.47-8.49-132.74-11.23-338.53,3.23-338.53,3.23,0,0-95.88,30.29-67.95,114.3,37.01,111.33,312.42,38.99,406.93,4.38.45-.17.89-.34,1.33-.5.54-6.46,1.41-12.88,2.52-19.23,2.51-14.36,6.31-28.43,11.01-42.11,4.79-13.93,9.97-16.68,16.77-29.61-6.14-7.98-12.97-15.45-20.61-21.97Z"/>
    <path class="cls-5" d="M625.56,721.3s-14.46.36-34.1,5.59c1.84-10.26,2.13,4.44,2.13,4.44-2.33-1.92-15.06.93-17.61-1.04-10.67,5.71-11.02-14.28-20.7-6.79-11.25,8.71-21.87,18.4-31.74,28.9-9.51,10.12-18.33,21.08-26.12,32.82-2.2,3.32-33.86,6.73-35.88,10.2.36.03.06,19.96.42,19.99-28.65,54.15,16.37,134.28,13.56,230.59-2.46,84.56-2.69,96.65-7.23,141.57,13.52,20.33,118.55,10.81,118.55,10.81,13.16-130.47,38.7-477.08,38.7-477.08Z"/>
    <line class="cls-23" x1="477.17" y1="509.39" x2="476.87" y2="510.99"/>
    <path class="cls-18" d="M327.04,538.7l-7.15,43.1c.41.51,1.09.8,1.82.46,6.19-2.9,11.93-4.13,17.91-7.54l122.13,64.81-12.22,59.98s-131.87-35.92-162.82-47.65c-1.76-.67-21.39-4.29-23.08-5-16.35-6.87-28.87-21.15-32.36-37.51-4.33-20.31,2.6-57.35,6.88-77.29,8.48-39.45,13.7-79.22,22.74-118.55,4.32-18.79,5.93-31.32,14.88-48.4,12.56-23.97,20.95-36.69,50.05-42.15l49.52-9"/>
    <path class="cls-15" d="M319.7,571.68c-5.48-1.62-11.22-.72-16.61.8-2.65.75-5.31,1.59-7.88,2.57-2.21.84-4.34,1.91-5.95,3.68-.49.53,1.6.3,1.98-.12,1.44-1.59,3.31-2.47,5.3-3.18,2.22-.8,4.49-1.54,6.76-2.18,4.79-1.35,9.77-2.11,14.64-.68.46.14,1.12-.03,1.52-.26.2-.12.74-.48.25-.63h0Z"/>
    <path class="cls-15" d="M477.92,690.54c-.68,1.6-1.35,3.21-2.03,4.81l1.97-.6c-8.99-1.92-17.98-3.83-26.97-5.75-18.99-4.05-37.97-8.14-56.96-12.14-13.76-2.9-27.55-5.65-41.29-8.64-16.61-3.62-33.16-7.53-49.54-12.09-16.59-4.62-33.07-9.86-48.96-16.54-1.79-.75-3.57-1.53-5.35-2.32-.4-.18-1.01.02-1.39.16-.08.03-.97.42-.66.56,15.39,6.89,31.45,12.26,47.63,16.97,16.61,4.84,33.43,8.94,50.32,12.71,14.28,3.18,28.63,6.08,42.96,9.06,18.39,3.82,36.75,7.82,55.13,11.73,10.94,2.33,21.86,4.77,32.82,7,.16.03.31.07.47.1.43.09,1.76-.12,1.97-.6.68-1.6,1.35-3.21,2.03-4.81.11-.27-1.91-.12-2.14.41h0Z"/>
    <path class="cls-15" d="M334.15,356.17c11.54,3.17,15.94,16.61,17.89,27.09,1.44,7.77,2.21,15.9,1.33,23.8-.6,5.42-1.51,10.82-2.44,16.19-1.29,7.46-2.71,14.91-4.17,22.34-1.72,8.75-3.5,17.49-5.33,26.22-1.91,9.18-3.87,18.36-5.85,27.52-1.89,8.74-3.8,17.48-5.73,26.22-1.67,7.56-3.36,15.13-5.06,22.68-1.24,5.51-2.48,11.02-3.74,16.53-.59,2.61-1.34,5.24-1.8,7.88-.02.12-.05.23-.08.35-.04.16.05.22.19.27,3.8,1.5,7.58,3.04,11.36,4.59,11.38,4.66,22.73,9.44,34.04,14.26,18.15,7.74,36.25,15.61,54.29,23.6,15.92,7.06,31.81,14.2,47.66,21.42,5.08,2.31,10.15,4.63,15.22,6.97,1.57.72,3.14,1.45,4.71,2.17.77.36,1.6.88,2.41,1.12.11.03.21.1.31.14l-.19-.27c-.84,1.98-1.68,3.96-2.52,5.93-.19.45,1.9.25,2.15-.35.84-1.98,1.68-3.96,2.52-5.93.07-.15-.08-.22-.19-.27-6.06-2.82-12.14-5.6-18.22-8.38-15.06-6.88-30.15-13.69-45.28-20.42-18.38-8.18-36.8-16.23-55.29-24.15-12.25-5.25-24.53-10.43-36.85-15.51-3.3-1.36-6.61-2.71-9.93-4.05-.95-.38-1.9-.77-2.85-1.15-.36-.14-1.01-.57-1.4-.56-.05,0-.13-.05-.17-.07l.19.27c.42-1.83.84-3.66,1.26-5.5,1.13-4.93,2.24-9.87,3.36-14.81,1.61-7.16,3.22-14.32,4.81-21.48,1.91-8.61,3.81-17.23,5.68-25.85,2-9.2,3.97-18.4,5.91-27.6,1.88-8.94,3.73-17.88,5.52-26.84,1.56-7.84,3.09-15.68,4.5-23.55,1.05-5.87,2.07-11.75,2.85-17.67.26-1.98.5-3.97.63-5.97.26-3.95-.05-7.97-.41-11.9-.61-6.7-1.78-13.45-4.17-19.76-1.89-5-4.66-9.97-8.95-13.29-1.9-1.47-4.06-2.54-6.38-3.17-.47-.13-1.11.02-1.52.26-.19.11-.74.5-.25.64h0Z"/>
    <path class="cls-15" d="M560.45,444.36c-2.23,2.06-4.06,4.66-5.61,7.25-2.96,4.94-4.84,10.57-5.09,16.34-.2,4.46.16,8.96.44,13.41.38,6.15.77,12.3.94,18.46.41,14.59-.29,29.43-4.2,43.57-3.33,12.03-8.88,24.62-18.25,33.2-2.6,2.38-5.52,4.33-8.48,6.25-2.2,1.42-4.5,2.89-6.13,4.98-.38.49-.72,1-1.02,1.54-.21.38,1.83.23,2.15-.35,1.25-2.25,3.32-3.79,5.42-5.19,2.73-1.82,5.51-3.53,8.05-5.61,9.15-7.5,14.76-18.43,18.61-29.43,4.84-13.84,6.15-28.7,6.11-43.28-.03-11.56-1.31-23.06-1.51-34.62-.09-5.26.71-10.32,2.82-15.18,1.74-4.01,4.18-7.83,7.24-10.97.16-.16.32-.33.49-.48.38-.35-.33-.44-.54-.44-.49,0-1.08.21-1.45.54h0Z"/>
    <path class="cls-10" d="M418.2,234.47s4.19,44.22-12.1,70.83c-2.27,3.71-29.33,8.28-29.33,8.28l32.97,20.86c15.66,6.81,42.72,15.49,66.38,16.26,10.34.33,24.16,3.8,32.77-1.93h0s-16.94-10.42-17.07-15.54c-.13-5.12,10.83-46.48,10.83-46.48"/>
    <path class="cls-7" d="M493.69,321.39s-8.94-6.43-14.77-8.84c-5.83-2.41-16.2-3.27-41.15-30.67,0,0,4.66,30.61,39.39,41.15,0,0,9.68,3.33,15.88,2.58l.65-4.22Z"/>
    <path class="cls-10" d="M545.64,143.53c.11.12.23.23.34.35-.11-.22-.21-.46-.28-.68l-.07.33ZM560.05,149.64c.18.25.38.5.59.75l.06-.27s-.58-.81-.65-.48ZM434.29,280.69c11.17,17.24,30.43,34.88,52.42,40.49,21.99,5.61,25.65-4.48,31.86-8.99,10.36-7.53,14.11-8.8,22.15-16.77,7.76-7.69,13.77-17.49,17.11-28.04,3.62-11.41,2.43-23.16,5.65-34.58,1.46-5.18,8.01-25.45,10.92-37.53,2.91-12.08-5.67-33.53-5.67-33.53-.03-3.44-1.33-6.11-2.57-9.11l-1.43-.3s.65.48.44,1.46c-1.76-.66-3.36-2.02-4.52-3.4v.05c-2.37.53-4.31-.9-5.75-2.92-.07.33.15,1.06.51,1.14-2.22-.12-4.16-1.56-5.32-3.17-.07.33.15,1.06.08,1.39-1.57-.64-3.01-1.82-4.18-3,.24.5,8.58.94,8.53,1.17-2.21-.12.09,1.11-1.35-.91l-1.52-1.59c-1.86-.05-2.02,1.05-3.18-.57.29.4-.23-3.83-.3-3.5-2.15-.45-1.53-.47-3.12-1.83-.07.33-6.3.91-6.37,1.24-1.79-.38-1.66,1.37-2.82-.25.29.4,1.58-1.11,1.87-.7-2.21-.12-3.31,1.09-4.76-.93.29.41-6.32-5.09-6.32-5.09-2.22-.12-2,.63-3.51-1.06.58.81-9.78-2.69-9.56-1.96-1.79-.38,2.04,7.28.82,5.99-.07.33-3.91-1.85-3.91-1.85-1.86-.05.48,2.16-.67.55-.07.33.08,1.39.44,1.46-2.36.54-4.72-.65-6.6-2.41.58.81.8,1.54,1.09,1.94-1.79-.38-3.29-.35-4.8-2.04-.07.33.44,1.46.8,1.54-1.93.28-4.01-.5-5.59-1.86-.07.33.51,1.14.8,1.54-1.5.03-2.93-.27-4.15-1.56l.8,1.54c-1.43-.3-2.64.13-4.65-.98-.07.33.58.81.51,1.14-1.08-.23-2.51-.53-3.51-1.08-.07.33.87,1.21.51,1.14-1.43-.3-2.64.13-4.29-.9.29.4.51,1.14.8,1.54-1.43-.3-2.93-.27-4.23-1.23-.07.33.15,1.06.44,1.47-1.43-.3-2.64.13-4.3-.9-.07.33.51,1.13.8,1.54-1.43-.3-2.94-.27-4.3-.9-.07.33.58.81.87,1.21-1.43-.3-2.93-.27-4.59-1.3-.14.66.15,1.06.08,1.39-1.07-.23-1.72-.7-2.79-.93l-1.93.28c-6.39,5.52-10.65,27.61-10.65,27.61-12.96,6.54-21.04,23.71-21.99,30.03-.95,6.32-5.57,19.41-5.57,19.41-1.31-2.67-4.21-8.43-4.73-11.28-.59-2.53.75-5.33.15-7.86-2.12-5.93-9.62-5.79-14.25-3.33l-.88.94c-7.03,6.28-5.88,30.62-3.24,38.32-1.72,14.22,9.06,24.11,18.06,15.45l.81,5.85"/>
    <path class="cls-1" d="M414.22,237.61c-4.37-.42-9.25,1.81-10.37,6.38-.49,1.99-.08,4.04.99,5.77.65,1.05,1.64,1.75,2.73,2.32,2.55,1.34,5.52,1.25,8.14.17.38-.16,1.21-.63.81-1.13s-1.52-.17-1.95,0c-2.13.87-4.94-.04-6.47-1.78-2.12-2.4-1.9-6.38.26-8.66.61-.64,1.26-1.04,1.92-1.3.18-.07.59-.18.84-.21.43-.05.79-.08,1.27-.03.71.07,1.53-.08,2.09-.56.42-.37.38-.92-.26-.98h0Z"/>
    <path d="M434.62,186.14l-8.6,31.56-8.28-16.46s12.03-10.83,16.88-15.1Z"/>
    <g>
      <path d="M513.96,260.41c-2.93.82-6.88-.34-9.2-2.54-.51-.49-2.55-.55-1.83.14,3.06,2.9,8.79,4.31,12.57,3.25.38-.11.37-.38-.03-.61-.41-.24-1.11-.36-1.51-.24"/>
      <path d="M501.95,257.01c-1.6-1.21-3.5-2.06-5.45-2.63-.29-.08-.69-.05-.94.09-.2.11-.28.31-.08.47.8.72,1.93,1.18,3,1.38.34.07.8.07,1.05-.17.23-.23-.06-.47-.32-.52-.89-.17-1.76-.53-2.42-1.12-.34.19-.68.38-1.02.57,1.74.51,3.44,1.29,4.86,2.37.28.22.76.21,1.08.11.24-.08.52-.32.24-.54"/>
      <path d="M494.01,255.61c-2.31-.54-4.83-2.12-5.61-4.1-1.17-2.99,1.3-6.81,4.55-7.87.35-.12.24-.39-.07-.52-.4-.18-.92-.13-1.29,0-2.83.93-5.18,4-5.32,6.54-.13,2.37,1.76,4.45,4.4,5.7.79.37,1.64.69,2.5.89.35.08,1,.11,1.23-.13.23-.24-.06-.43-.39-.51"/>
      <path d="M518.46,260.13c-.07-.29.2-.42.38-.37.62.15,1.3.11,1.92-.21.15.29.3.58.46.88-1.28-.13-2.63.02-3.91.53-.25.1-.56-.06-.72-.27-.12-.16-.22-.48.03-.58"/>
      <path d="M516.64,260.09c1.43-.57,2.93-.71,4.37-.57.21.02.45.19.56.41.09.17.07.38-.11.47"/>
      <path d="M523.22,261.45c1.52.26,3.51-.37,4.62-1.96,1.67-2.39,1.28-5.73-.25-7.8-.17-.23,0-.44.21-.46.29-.03.58.19.75.42,1.34,1.81,1.9,4.4,1.14,6.81-.71,2.25-2.5,3.56-4.44,3.84-.58.08-1.18.1-1.75,0-.23-.04-.62-.23-.67-.53-.06-.3.18-.38.4-.34"/>
    </g>
    <path d="M531.33,223.74s12.73-6.14,17.69-5.37c7.24,1.12,13.58,8.39,15.16,12.59,0,0-8.65-9.96-13.77-10.6-4.9-.61-19.08,3.38-19.08,3.38Z"/>
    <path d="M498.66,218.27s-8.88-10.87-14.16-12.4c-7.7-2.24-18.27,1.09-21.74,4.15,0,0,14.08-4.72,19.46-2.99,5.14,1.65,16.44,11.25,16.44,11.25Z"/>
    <path d="M568.69,218.15c.04-.2.06-.41.13-.58.25-.57.48-1.14.7-1.72.08-.41.21-.8.39-1.17,0-.03,0-.03,0-.06-.18-.52-.27-1.04-.32-1.55-.54-1.01-1-1.64-1.08-1.75,0,0-2.03-2.8-6.06-5.08-2.78-1.57-10.98-4.42-22.55-6.22-.49,1.44-.97,2.89-1.46,4.34-.37,1.1-.74,2.21-1.1,3.31,4.17.13,7.68.44,10.31.73,5.56.61,8.39.95,11.29,2.28,3.04,1.4,5.38,3.3,6.29,4.05,1.27,1.05,2.14,1.73,3.05,2.88.15.18.27.36.4.54Z"/>
    <path d="M507.16,194.49c-.48,1.41-.96,2.83-1.45,4.25-.37,1.08-.74,2.16-1.12,3.23-4.56-2.53-8.53-4.51-11.54-5.94-6.37-3.03-9.64-4.57-13.66-5.37-4.22-.84-8.04-.86-9.53-.86-2.09,0-3.49-.02-5.26.29-3.86.67-5.86,2.22-6.34,1.86-.44-.32.95-1.8,1.09-1.95,3.52-3.71,8.96-4.79,9.38-4.88,0,0,4.11-.87,10-.09,4.06.54,14.81,3.53,28.43,9.44"/>
    <path d="M554.19,220.35c-.44-.04-.88-.03-1.32.07-1.67.41-2.52,1.8-2.71,2.14-1.04,1.83-.97,4.71,1.02,6.3,1.47,1.18,3.68,1.46,5.32.36,1.22-.82,2.26-2.41,2.2-4.06-1.65-1.45-3.08-3.13-4.5-4.81Z"/>
    <path d="M489.2,210.54c-.4-.36-.82-.69-1.23-1.04-.87-.74-1.7-1.55-2.24-2.56,0-.02-.01-.04-.02-.06-1.17-.21-2.33-.15-3.08.25-.34.18-1.28.71-1.93,1.83-.83,1.43-.64,3.33.07,4.63.95,1.74,3.04,2.51,4.89,2.14,2.43-.49,3.8-2.88,3.81-4.95-.09-.08-.17-.16-.26-.24Z"/>
    <path class="cls-3" d="M419.85,218.42c-.97-5.06-2.17-10.14-4.14-14.92-.96-2.34-2.12-4.71-3.79-6.64-.62-.71-1.4-1.52-2.3-1.87-1.38-.53-2.5.75-3.29,1.69-2.91,3.44-3.89,8.06-3.93,12.46,0,.61,2.17.23,2.17-.58.03-3.49.7-7.11,2.53-10.14.62-1.02,1.37-2.11,2.35-2.83l-1.54.41c-.39-.1.29.16.45.26.37.23,1.11.93,1.53,1.42,2.39,2.77,3.78,6.42,4.91,9.85,1.24,3.74,2.13,7.59,2.87,11.46.13.69,2.32.17,2.17-.58h0Z"/>
    <path class="cls-3" d="M416.13,219.42c-2.46-.74-4.77.55-5.49,2.95-.75,2.53-.48,5.28-1.26,7.79-.08.27-.51.83-.51,1.05l-.12.11,1.2-.25s-.26-.21-.26-.23c-.08-.24-.25-.47-.33-.72-.6-1.76-.54-3.82-.51-5.65.05-2.98.26-5.85,1.24-8.66.55-1.58,1.22-3.12,2.12-4.53.8-1.26,2.03-2.95,3.61-3.2.24-.04,1.26-.25,1.28-.58.02-.36-.65-.22-.86-.19-3.42.54-5.64,3.07-7.1,6.04-1,2.03-1.84,4.27-2.1,6.53-.31,2.68-.49,5.42-.29,8.12.07,1.02.08,3.22,1.17,3.81.95.52,2.58-.24,3.16-1.04.64-.89.74-2.19.88-3.24.21-1.66.3-3.34.68-4.97.16-.69.37-1.41.76-2,.05-.08.53-.68.58-.61.05.06-.54-.03-.38.15.06.07.62.13.74.16.49.15,2.39-.65,1.79-.83h0Z"/>
    <path class="cls-25" d="M568.64,174.93c-4.67-20.96-24.7-36.22-68.81-51.22-44.1-15-82.95-5.86-82.95-5.86,34.63-60.42,99.94-44.51,114.61-41.44,14.66,3.08,72.17,78.44,42.36,124.61l-2.28,4.82s-2.08-27.11-2.93-30.92Z"/>
    <path class="cls-25" d="M408.08,101.95s3.08-41.75,35.59-49.17c43.43-9.91,99.14-6.63,109.77,39.15l-145.36,10.02Z"/>
    <path class="cls-19" d="M391.51,201.35c-2.59-3.99.26-13.21-1.78-17.51-10.66-22.53-1.97-40.59,6.02-50.72,3.48-4.41,1.84-13.77,2.98-18.04,5.97-22.37,8.71-22.53,47.23-38.71,31.35-13.17,60.86-6.1,77.85-1.58,27.21,7.23,38.98,11.5,44.52,33.03.72,2.81-1.06,4.58-.65,7.87.58,4.65,5.71,9.87,5.69,15.6,0,0-36.73,3.48-70.44,13.5-33.71,10.02-100.79,62.11-102.57,81.56-.06.61-5.99-20.59-8.86-25.01Z"/>
    <path class="cls-25" d="M385.46,155.28s65.35-53.19,122.25-41.84c0,0-70.69-24.71-113.91,20.99l-1.2,1.93c-3.17,5.09-5.42,10.71-6.64,16.58l-.49,2.34Z"/>
    <path class="cls-25" d="M568.3,116.59l-3.55-2.24c-8.25-5.22-17.21-9.21-26.61-11.86l-15.74-4.44s39.98,1.33,46.52,12.89l-.63,5.65Z"/>
    <path class="cls-25" d="M418.24,167.52s-24.52,16.61-27.8,24.53l-.71-8.22s9.18-13.66,28.5-16.32Z"/>
    <path class="cls-10" d="M477.98,692.21l14.2,3.1s33.17,28.65,44.92,32.8c8.62,2.64,17.64,3.93,26.79,3.83l8.66,6.59c3.99,3.03,8.92,4.39,13.98,3.83l3.89-.43s8.58,11.57,12.32,8.61c3.74-2.96,1.65-8.31-.39-13.5-2.03-5.19-60.73-67.97-60.73-67.97,7.67-.38,19.25,5.81,26.77,6.86,11.53,1.7,16.81-2.27,13.69-8.14-1.92-3.62-10.04-8.65-16.9-7.82-6.83.83-32.09-16.4-44.07-16.31-11.98.08-24.91,12.14-24.91,12.14-1.04.14-8.45-2.74-8.45-2.74-.94,1.38-9.76,39.17-9.76,39.17Z"/>
    <path class="cls-7" d="M590.2,741.04c-3.57-3.98-7.75-7.45-11.75-10.99-4.88-4.32-9.83-8.58-14.58-13.04-1.93-1.81-3.87-3.64-5.56-5.67-.45-.54-2.15.12-1.64.74,3.41,4.1,7.62,7.61,11.59,11.15,4.87,4.34,9.82,8.59,14.63,13,1.95,1.78,3.91,3.58,5.68,5.55.47.53,2.17-.15,1.64-.74h0Z"/>
    <path class="cls-7" d="M563.19,730.49c-6.86-5.19-13.72-10.38-20.58-15.58-.99-.75-1.98-1.5-2.97-2.25-.44-.33-2.03.37-1.66.65,6.86,5.19,13.72,10.38,20.58,15.58.99.75,1.98,1.5,2.97,2.25.44.33,2.03-.37,1.66-.65h0Z"/>
    <path class="cls-16" d="M818.6,592.14c-1.96-20.11-7.58-39.61-10.57-59.56-.84-5.6-1.46-11.23-1.74-16.88-.04-.83-2.22-.36-2.17.58,1.01,20.2,6.43,39.77,9.94,59.6.99,5.58,1.82,11.19,2.37,16.84.08.85,2.26.35,2.17-.58h0Z"/>
    <path class="cls-2" d="M503.22,269.81c-10.27-2.89-26.74-7.56-26.74-7.56,0,0-4,26.75,19.82,33.46,23.82,6.7,31.48-19.86,31.48-19.86,0,0-14.29-3.14-24.56-6.03Z"/>
    <path class="cls-4" d="M503.31,269.83c-4.88-1.37-24.52-6.43-24.52-6.43,0,0,3.12,18.46,20.79,23.43,19.15,5.39,24.61-10.3,24.61-10.3l-20.88-6.69Z"/>
    <path class="cls-9" d="M503.27,270.8c-4.88-1.37-19.7-5.07-19.7-5.07,0,0,3.73,6.6,18.38,10.73,14.65,4.12,20.87.53,20.87.53l-19.56-6.18Z"/>
    <path class="cls-2" d="M528.65,274.99q-.48-.3-2.86-1.26c-3.97-1.58-5.21-3.72-8.1-4.83-4.93-1.9-8.83-.37-11.03-.99-2.2-.62-4.73-3.96-9.92-4.91-3.04-.56-10.98.19-15.19-.53-2.53-.43-4.39-.68-4.96-.67-.79.01-1.67,3.71,25.99,11.5,27.66,7.79,26.74,2.11,26.08,1.69Z"/>
    <path class="cls-3" d="M791.4,679.49c3.53-1.07,7.02-1.99,10.65-2.62,1.01-.18,2.02-.35,3.03-.54.25-.05.59-.07.84-.16l.45-.08c-.08-.09-.09-.12-.04-.11.05,0,.1.03.14.03.59,0,1.25.24,1.83.35,5.62,1.07,11.23,2.14,16.85,3.21,1.72.33,3.44.66,5.16.98.49.09,1.19-.01,1.54-.41.28-.33.28-.75-.23-.85-4.45-.85-8.89-1.7-13.34-2.55-2.79-.53-5.58-1.07-8.37-1.6-.68-.13-1.36-.29-2.05-.39-1.4-.21-2.94.34-4.33.59-4.24.75-8.32,1.69-12.45,2.94-1.29.39-.99,1.59.32,1.2h0Z"/>
    <path class="cls-3" d="M788.61,614.87c4.33,3.37,8.66,6.74,13,10.1,5.47,4.25,10.94,8.51,16.41,12.76.53.41.9.7,1.56.88l5.28,1.42c.76.2,2.56-.92,1.31-1.26l-4.69-1.26c-.27-.07-.61-.22-.89-.24-.36-.02.03.02.13.12-.13-.12-.29-.22-.43-.33-1.98-1.54-3.96-3.08-5.94-4.62-6.3-4.9-12.61-9.8-18.91-14.7-1.61-1.25-3.21-2.5-4.82-3.75-.64-.5-2.67.37-2.01.88h0Z"/>
    <path class="cls-15" d="M637.7,536.23c-5.07,3.31-7.86,9.52-9.65,15.09-1.97,6.13-2.66,12.55-2.08,18.96.09.97,2.27.45,2.17-.58-.55-6.1.12-12.32,1.98-18.15,1.68-5.24,4.23-11.23,9.01-14.36.42-.27.5-.78.12-1.1-.42-.36-1.16-.12-1.56.14h0Z"/>
  </g>
</svg>