<?xml version="1.0" encoding="UTF-8"?>
<svg id="Layer_1" data-name="Layer 1" xmlns="http://www.w3.org/2000/svg" xmlns:xlink="http://www.w3.org/1999/xlink" viewBox="0 0 1334 1000">
  <defs>
    <style>
      .cls-1 {
        fill: #cb8c2a;
      }

      .cls-2 {
        fill: #6b3925;
      }

      .cls-3 {
        fill: #542c23;
      }

      .cls-4 {
        fill: #26180f;
      }

      .cls-5 {
        fill: #1d3942;
      }

      .cls-6 {
        fill: url(#linear-gradient-2);
      }

      .cls-7 {
        fill: #4f2f25;
      }

      .cls-8 {
        fill: #604739;
      }

      .cls-9 {
        fill: #f0ecf5;
      }

      .cls-10 {
        fill: #a66e53;
      }

      .cls-11 {
        fill: #f09923;
      }

      .cls-12 {
        fill: url(#linear-gradient);
        opacity: .5;
      }

      .cls-13 {
        fill: #fff;
      }

      .cls-14 {
        fill: #0a1a29;
      }

      .cls-15 {
        fill: #662118;
      }

      .cls-16 {
        fill: #8c3f1e;
      }

      .cls-17 {
        fill: #c5cc8a;
      }

      .cls-18 {
        fill: #b03829;
      }

      .cls-19 {
        fill: #dc8828;
      }

      .cls-20 {
        fill: #0f0d0c;
      }

      .cls-21 {
        fill: #a57351;
      }

      .cls-22 {
        fill: #636464;
      }

      .cls-23 {
        fill: #8c6528;
      }

      .cls-24 {
        fill: #4d596a;
      }

      .cls-25 {
        fill: #b05f28;
      }

      .cls-26 {
        fill: #efe8cf;
      }
    </style>
    <linearGradient id="linear-gradient" x1="-4531.04" y1="6849.95" x2="-3816.38" y2="6849.95" gradientTransform="translate(-6204.75 4483.71) rotate(90) scale(1 -1)" gradientUnits="userSpaceOnUse">
      <stop offset="0" stop-color="#ede8de"/>
      <stop offset=".18" stop-color="#ebe5db" stop-opacity=".99"/>
      <stop offset=".33" stop-color="#e5ded2" stop-opacity=".97"/>
      <stop offset=".47" stop-color="#dbd1c3" stop-opacity=".93"/>
      <stop offset=".6" stop-color="#cdbfae" stop-opacity=".88"/>
      <stop offset=".72" stop-color="#bba993" stop-opacity=".81"/>
      <stop offset=".84" stop-color="#a58d71" stop-opacity=".73"/>
      <stop offset=".96" stop-color="#8b6c4a" stop-opacity=".64"/>
      <stop offset="1" stop-color="#82603c" stop-opacity=".6"/>
    </linearGradient>
    <linearGradient id="linear-gradient-2" x1="822.97" y1="-3064.63" x2="840.7" y2="-2909.84" gradientTransform="translate(-593.6 -2418.39) rotate(-11.63) scale(1 -1)" gradientUnits="userSpaceOnUse">
      <stop offset=".16" stop-color="#a46f54"/>
      <stop offset=".53" stop-color="#a46f54"/>
      <stop offset=".62" stop-color="#7c543f"/>
      <stop offset=".75" stop-color="#483123"/>
      <stop offset=".86" stop-color="#211610"/>
      <stop offset=".94" stop-color="#0d0b0b"/>
      <stop offset=".99" stop-color="#000"/>
    </linearGradient>
  </defs>
  <polyline class="cls-26" points="1348.72 988 1348.72 -49.69 -58.31 -49.69 -58.31 988"/>
  <polyline class="cls-12" points="1348.72 664.97 -58.31 664.97 -58.31 -49.69 1348.72 -49.69"/>
  <path class="cls-8" d="M861.71,1247.82c.78-19.47,1.53-38.95,2.13-58.43,1.37-44.82,47.36-89.62,47.36-134.45l-10.4-648.01-602.02-1.7c-130.35.02-152.04,46.39-155.31,201.76-11.8-9.07-130.29-7.45-165.31-7.45-51.46,5.04-75.64,69.95-80.05,159.39l-2.98,118.51-1.68.64c-28.37,17.06-44.42,41.79-44.48,79.67v98.87c.11,24.59,13.93,46.08,33.81,52.59v138.61h978.94Z"/>
  <path class="cls-18" d="M655.48,630.61c-1.52-5.21,3.26,2.97,3-2.46-.24-4.99,2.65-14.49,3.44-19.41,1.55-9.65,3.79-3.18,8.05-11.97,6.23-12.83,13.74-8.58,24.92-17.8-11.62-26.69-63.36-172.73-73.68-186.82-6.8-9.29-14.71-17.59-22.73-22.42l-54.74-29.11h0c-20.53,21.33-19.98,36.56-16.3,63.37,2.62,19.11,8.58,30.25,15.96,48.06,15.46,37.28,17.89,65.54,33.88,102.59,8.07,18.72,39.35,60.4,54.66,74.42,7.45,6.83,18.8,14.46,30.43,18.58-.39-1.15-6.54-15.86-6.88-17.03Z"/>
  <path class="cls-8" d="M1519.5,879l-1.68-.64-2.98-118.51c-4.41-89.44-28.59-154.35-80.05-159.39-35.03,0-153.51-1.62-165.31,7.45-3.75-168.99,13.62-201.76-240.19-201.76l-279.78.68c-2.99,68.59-11.13,59.37-21.23,127.26-12.67,85.16,12.14,169.8-.83,254.91-6.52,42.77,49.79,85.86,44.27,128.77-5.63,43.72-11.31,87.43-16.85,131.16-8.41,66.5-16.48,133.1-23.41,199.81h798.7v-138.61c19.89-6.51,33.71-28,33.81-52.59v-98.87c-.06-37.89-16.11-62.61-44.48-79.67Z"/>
  <path class="cls-18" d="M661.61,563.82c-7.22,6.75-1.72,28.25-6.86,36.69-4.93,8.07-6.44,6.94-8.72,16.14-1.26,5.06,6.65,3.77,6.6,8.99-.05,5.35-5.99-7.6-4.9-2.37.04.19,3.42,19.17,3.46,19.35,6.23,2.89,14.51,6.94,20.55,6.63,19.43,3.83,60.87-2.79,62.54-4.23,47.02-9.85,113.83-6.05,147.67-15.86l14.64-18.26,4.5-15.73,11.98-24.07-.59-6.42s-58.25-.23-112.26.94c-46.15,1-119.82-8.02-119.82-8.02"/>
  <path class="cls-10" d="M878.99,328.98s.3,49.47,14.19,65.14c2.87,3.24,19.9,14.17,19.9,14.17l-93.35,62.83-43.65-34.18s24.92-25.84,25.78-30.88c.86-5.04-4.7-41.64-4.7-41.64"/>
  <path class="cls-3" d="M800.99,400.79s19.98-1.57,25.42-3.33c5.44-1.76,14.72-5.04,39.21-28.04,0,0-8.5,27.09-36.55,35.81,0,0-24.81,5.05-27.49,1.12l-.59-5.56Z"/>
  <path class="cls-10" d="M870.88,362.09c-11.55,17.91-23.6,31.28-42.57,38.36-18.61,6.94-40.18,2.66-43.3.24-17.13-13.28-24.01-25.01-32.38-42.4-2.27-4.72-3.27-10.05-3.8-15.57-.79-8.29-1.71-24.28-3.06-32.11-3.44-19.94-7.74-39.6.63-58.13,17.44-38.59,75.86-45.27,97.65-38.81,25.47,7.55,39.76,28.77,45.04,52.89,1.72,7.86,2.08,15.42,1.18,22.6-2.78,4.25-5.07,8.76-6.87,13.43"/>
  <path class="cls-10" d="M875.19,342.62c11.75,8.81,18.79-6.76,18.79-6.76,7.92-13.32,5.91-25.85,4.19-34.36-1.72-8.51-11.13-6.88-11.13-6.88-7.87,2.15-6.59,2.91-13.81,27.42"/>
  <path d="M815.69,306.86c2.19-1.47,5.03-.74,6.71.43.4.27,1.46,1.07,2.09,2.55.8,1.89.27,4.19-.8,5.68-1.43,1.99-4.13,2.61-6.34,1.87-3-1-4.31-4.32-3.89-6.89.08-.47.47-2.46,2.23-3.65"/>
  <path d="M804.51,318.28s6.94-12.04,15.61-13.09c12.2-1.48,15.77,4.68,18.78,7.73,0,0-8.77-6.98-18.18-5.62-8.53,1.23-16.22,10.98-16.22,10.98Z"/>
  <path d="M760.39,313.33c-2.31-.96-4.73.37-6,1.88-.3.35-1.09,1.36-1.33,2.94-.31,2.02.68,4.15,1.98,5.36,1.74,1.63,4.32,1.65,6.17.45,2.5-1.63,2.97-5.15,2.02-7.56-.18-.44-.97-2.3-2.83-3.07"/>
  <path d="M776.95,321.83s-8.24-10.21-15.74-9.31c-10.54,1.26-12.32,8.06-14.24,11.71,0,0,5.97-8.75,14.15-9.52,7.42-.69,15.83,7.12,15.83,7.12Z"/>
  <g>
    <path d="M789.44,350.91c2.41.9,5.82.19,7.91-1.51.47-.38,2.19-.29,1.53.24-2.77,2.24-7.69,3.05-10.8,1.88-.31-.12-.29-.35.06-.51.36-.17.96-.22,1.29-.1"/>
    <path d="M799.79,348.87c1.43-.91,3.08-1.51,4.76-1.85.25-.05.58,0,.78.14.16.11.21.28.04.41-.72.55-1.7.86-2.62.96-.29.03-.68,0-.88-.22-.18-.21.08-.4.31-.42.76-.08,1.51-.33,2.11-.78.28.18.55.37.83.55-1.5.31-2.98.86-4.25,1.67-.25.16-.65.13-.91.01-.19-.08-.42-.31-.17-.48"/>
    <path d="M806.56,348.22c1.98-.3,4.21-1.46,4.99-3.09,1.18-2.45-.69-6.08-3.36-7.21-.29-.12-.17-.35.09-.44.35-.12.79-.04,1.09.09,2.32.99,4.14,3.97,4.09,6.14-.05,2.02-1.77,3.65-4.08,4.53-.69.26-1.42.47-2.16.58-.3.04-.85.02-1.03-.19-.18-.22.08-.36.36-.4"/>
    <path d="M785.67,350.36c.08-.24-.14-.37-.3-.34-.54.08-1.1,0-1.61-.31-.15.24-.29.47-.44.71,1.09-.02,2.21.2,3.26.72.21.1.47-.01.62-.18.11-.12.22-.39.01-.5"/>
    <path d="M787.21,350.46c-1.17-.58-2.42-.81-3.64-.79-.18,0-.39.13-.5.31-.09.14-.08.32.06.41"/>
    <path d="M781.57,351.15c-1.3.11-2.93-.56-3.76-1.98-1.25-2.14-.7-4.95.73-6.6.16-.18.04-.37-.15-.41-.24-.05-.5.12-.66.31-1.24,1.44-1.89,3.6-1.41,5.7.45,1.96,1.87,3.19,3.49,3.57.48.11.99.17,1.47.12.2-.02.54-.15.6-.4.07-.25-.13-.33-.31-.32"/>
  </g>
  <path d="M800.45,291.04c.53,1.88,1.06,3.76,1.59,5.65.41,1.44.82,2.87,1.23,4.3,3.89-2.39,9.48-4.91,12.07-6.19,5.13-2.54,10.6-4.76,16.33-5.38,2.75-.3,5.25-.22,7.85.62.82.26,3.24,1.73,4.13.93.37-.33-.97-2.45-1.11-2.67-2.72-4.27-6.96-5.18-11.8-5.03-9.86.31-19.06,3.15-28.09,7.05"/>
  <path d="M743.81,301.36c.22-1.21.34-2.45.29-3.71.77-.47,1.58-.89,2.45-1.26,7.94-3.41,16.28-4.25,24.85-4.03.26,1.93.51,3.87.76,5.82.19,1.48.38,2.96.57,4.44-3.95-.75-7.29-1.14-9.81-1.35-4.99-.42-10.13-.42-14.91,1.16-1.38.46-2.64,1.02-3.82,1.78l-.39-2.83Z"/>
  <path class="cls-2" d="M797.98,361.41c8.58-1.48,22.32-3.88,22.32-3.88,0,0,1.25,23.6-18.64,27.04-19.88,3.43-24.11-20.33-24.11-20.33,0,0,11.85-1.34,20.43-2.82Z"/>
  <path class="cls-4" d="M797.9,361.42c4.08-.7,20.43-3.15,20.43-3.15,0,0-3.84,16.28-18.58,18.83-15.99,2.76-19.35-12-19.35-12l17.5-3.67Z"/>
  <path class="cls-9" d="M797.85,362.21c4.08-.7,16.4-2.46,16.4-2.46,0,0-3.58,5.04-15.81,7.15-12.23,2.11-16.97-1.33-16.97-1.33l16.38-3.37Z"/>
  <path class="cls-2" d="M776.92,363.47c.42-.21.41-.21,2.42-.78,3.35-.95,4.54-2.58,6.98-3.24,4.16-1.13,7.19.44,9.03.13,1.84-.32,4.17-2.81,8.46-3.15,2.51-.2,8.89,1.08,12.37.85,2.09-.14,3.62-.18,4.08-.13.64.08,1.04,3.15-22.04,7.14-23.09,3.99-21.87-.54-21.29-.83Z"/>
  <path class="cls-3" d="M880.29,319.92c1.2-4.45,2.57-8.91,4.53-13.1.91-1.95,2.03-4.08,3.51-5.58.2-.2.4-.38.62-.56.29-.25.08-.08.42-.29.24-.15.05-.04.04-.03.05-.03.13-.03.17-.07.14-.14-.31.08-.09.03.25-.06-.14.02-.13.02.24,0-.27,0-.14,0-.82-.07-.41-.15-.26.02.35.42,1.29.97,1.8,1.47,2.94,2.9,4.13,6.95,3.86,11.02-.06.84,2.12.4,2.17-.29.26-4-.75-7.95-3.46-10.98-.8-.9-2.2-2.53-3.56-2.39-2.97.3-4.96,3.76-6.19,6.07-2.49,4.69-4.07,9.85-5.45,14.96-.2.73,1.98.42,2.17-.29h0Z"/>
  <path class="cls-3" d="M881.26,323.04c5.54-.96-.34,10.98,4.55,11.29,1.48.09,2.37-1.18,2.84-2.41.79-2.06,1.08-4.31,1.27-6.49.24-2.72.18-4.99-.59-7.59-.95-3.24-2.83-6.75-6.4-7.54-.51-.11-1.19-.04-1.54.41-.27.35-.26.89.27,1.01,2.89.64,4.42,3.43,5.29,6.03.65,1.94,1,3.83.91,5.86-.1,2.28-.32,4.58-.88,6.8-.18.71-.38,1.44-.74,2.08,0,0-.32.52-.34.48l.58-.15.14.03s-.21-.17-.24-.22c-.93-1.92-.28-4.51-.36-6.58-.05-1.19-.16-2.53-.92-3.51-.86-1.09-2.34-1.24-3.62-1.02-.43.07-1.18.3-1.2.85-.02.51.55.75.99.67h0Z"/>
  <g>
    <path d="M822.38,185.48c-.16.12-.17.13,0,0h0Z"/>
    <path d="M831.98,197.65c-.14-.17-.27-.29-.36-.36.12.15.25.28.38.42,0-.02-.01-.04-.01-.06Z"/>
    <path d="M831.99,197.71s0,.03.01.05l.13.1c-.05-.05-.09-.11-.14-.16Z"/>
  </g>
  <path class="cls-6" d="M836.57,240.36c6.96.9,19.8,20.12,20.48,27.1.84,8.61,2.09,18.76,2.93,20.31,1.93,3.51,3.07,3.86,8.77,14.23l.28,8.25c.37,1.78.77,6.55,1.73,10.83,1.16.32,2.03.98,3.17.56,3.85-1,.88-3.83,1.24-7.66.56-6.04,1.12-11.03,5.01-16,1.29-1.65,5.57-2.15,7.24-3.24,4.65-1.14,7.52,1.48,7.52,1.48,0,0-.51-3.96-.41-6.11.09-6.53,1.61-11.12.4-28.38-1.81-26.33-49.6-44.79-74.52-43-13.7.98-71.01,17.6-81.19,25.63-6.49,5.11,3.14,10.62,2.56,22.09,3.48-2.58.85-8.27,4.76-10.15,10.07-4.85,2.87-1.38,23.54-.23,7.57.42,15.14-1.02,22.03-4.18,11.57-5.31,31.48-13.2,44.44-11.53Z"/>
  <path d="M742.64,247.59c-1.64.05-3.12-.96-3.67-2.5-.7-1.48-.89-3.07-1.54-4.45-.89-1.95-2.64-3.8-2.16-5.89s2.65-2.92,4.63-3.31c-1.41-1.62-1.25-4.08.37-5.49,1.11-.97,2.66-1.23,4.03-.67-1.07-3.54.92-7.28,4.46-8.35,1.35-.41,2.79-.38,4.12.07-1.15-2.51-1.54-5.72.2-7.87s6.05-1.78,6.54.93c-.3-2.19,1.22-4.22,3.41-4.54,2.2-.16,4.21,1.28,4.76,3.42,1.37-1.91.76-4.68,1.88-6.69,1.72-2.96,7.14-2.09,7.86,1.25.71-2.46,1.61-5.22,3.87-6.45,2.61-1.27,5.76-.18,7.03,2.43.15.3.26.61.35.93.78-2.58,2.33-4.86,4.43-6.55.63-.57,1.42-.95,2.27-1.07,1.81-.14,3.19,1.57,3.92,3.21.73,1.64.7-.68,2.23.26.33-2.59,1.68-1.46,4.19-2.45,3.2-1.29,6.2.92,8.02,3.85.51-2.66,1.63-4.76,4.31-5.15,1.76-.1,3.41.83,4.24,2.38.83,1.49,1.31.82,1.51,2.51.85-2.88,2.48-3.18,4.63-5.27.55-.64,1.32-1.04,2.16-1.11.9.15,1.68.67,2.17,1.44,1.49,1.87,2.56,4.04,3.16,6.35,1.33-1.82,2.87-3.48,4.58-4.95.45-.46,1.02-.78,1.65-.91,1.29-.15,2.27,1.16,2.71,2.34.25,1.27.79,2.45,1.59,3.47,1.78-1.81,4.02-3.63,6.56-3.4s7.96,3.72,6,5.34l2.57-2.33c3.42-1.41,6.76.93,7.35,1.68.41.52.49,1.23.21,1.82l-.24,2.81c2.5-1.8,5.76-2.17,8.59-.96,2.67,1.42,7.29,5.98,5.05,8.02,3.5.44,6.98,1.37,6.54,4.86-.06.46-.16.91-.32,1.34,4.08,3.54,4.96,5.55,5.31,22.2.36,1.25,1.03,27.82.58,29.03-1,1.96-12.65-27.81-14.8-28.21-6.37-1.21-6.76-6.75-12.58-9.72-12.85-6.41-28.14-3.76-42.24-.98"/>
  <path class="cls-10" d="M807.51,519.74l-78.4-15.07-4.26,42.85,14.15,223.89c13.55,5.87,51.55-10.27,65.73-6.28,8.21,2.31-15.88-79.78-7.79-77.08,1.53-5.87,1.78-111.62,2.75-117.16,2.75-15.8,5.9-4.07,7.82-51.17Z"/>
  <path class="cls-20" d="M-81.9,878.24c.23,0,.47,0,.7,0h2.08c1.14-.01,2.28-.02,3.42-.02,1.58,0,3.15-.01,4.73-.02l5.97-.02,7.23-.02c2.81,0,5.62-.02,8.44-.03,3.2-.01,6.4-.02,9.6-.03l10.74-.04,11.84-.04c4.3-.01,8.6-.03,12.91-.04,4.63-.02,9.25-.03,13.88-.05,4.98-.02,9.95-.03,14.93-.05l15.89-.05c5.61-.02,11.22-.04,16.82-.06,5.91-.02,11.81-.04,17.72-.06,6.16-.02,12.33-.04,18.49-.06,6.47-.02,12.93-.04,19.4-.07s13.46-.05,20.19-.07c6.98-.02,13.96-.05,20.95-.07,7.22-.02,14.45-.05,21.67-.07,7.45-.03,14.9-.05,22.36-.08,7.67-.03,15.34-.05,23.01-.08,7.84-.03,15.68-.05,23.52-.08,8.07-.03,16.14-.06,24.21-.08,8.25-.03,16.51-.06,24.76-.09,8.42-.03,16.85-.06,25.27-.09,8.58-.03,17.17-.06,25.75-.09,8.73-.03,17.47-.06,26.2-.09s17.74-.06,26.61-.09l26.87-.09c9.11-.03,18.22-.06,27.33-.09,9.21-.03,18.43-.06,27.64-.1,9.3-.03,18.61-.06,27.91-.1,9.38-.03,18.77-.06,28.15-.1,9.45-.03,18.91-.07,28.36-.1,9.51-.03,19.02-.07,28.53-.1s19.03-.07,28.54-.1c9.59-.03,19.18-.07,28.77-.1,9.61-.03,19.22-.07,28.84-.1,9.62-.03,19.25-.07,28.87-.1,9.62-.03,19.25-.07,28.87-.1s19.14-.07,28.71-.1c9.59-.03,19.17-.07,28.76-.1,9.55-.03,19.1-.07,28.66-.1,9.51-.03,19.01-.07,28.52-.1,9.45-.03,18.9-.07,28.34-.1s18.76-.06,28.14-.1c9.3-.03,18.6-.06,27.89-.1,9.17-.03,18.33-.06,27.5-.09,9.1-.03,18.21-.06,27.31-.09,8.99-.03,17.97-.06,26.96-.09,8.86-.03,17.72-.06,26.58-.09,8.72-.03,17.44-.06,26.17-.09l25.72-.09c8.41-.03,16.82-.06,25.23-.09,8.2-.03,16.41-.06,24.61-.08l24.17-.08c7.86-.03,15.72-.05,23.58-.08,7.65-.03,15.31-.05,22.96-.08,7.43-.03,14.87-.05,22.3-.08,7.17-.02,14.35-.05,21.52-.07,6.96-.02,13.93-.05,20.89-.07,6.71-.02,13.42-.05,20.13-.07,6.45-.02,12.89-.04,19.34-.07s12.34-.04,18.51-.06c5.88-.02,11.77-.04,17.65-.06l16.75-.06c5.25-.02,10.5-.04,15.75-.05l14.86-.05,13.86-.05c4.28-.01,8.55-.03,12.83-.04,3.92-.01,7.84-.03,11.76-.04,3.55-.01,7.1-.02,10.65-.04l9.51-.03c2.77,0,5.54-.02,8.31-.03,2.38,0,4.76-.02,7.14-.02l5.9-.02,4.62-.02c1.1,0,2.21,0,3.31-.01h1.97c.2,0,.4,0,.6,0,.43,0,1.24-.14,1.43-.61.18-.44-.15-.7-.61-.7-.23,0-.47,0-.7,0-.69,0-1.38,0-2.08,0-1.14,0-2.28,0-3.42.01-1.58,0-3.15.01-4.73.02l-5.97.02c-2.41,0-4.82.02-7.23.02-2.81,0-5.62.02-8.44.03-3.2.01-6.4.02-9.6.03-3.58.01-7.16.02-10.74.04-3.95.01-7.89.03-11.84.04-4.3.01-8.6.03-12.91.04-4.63.02-9.25.03-13.88.05-4.98.02-9.95.03-14.93.05-5.3.02-10.6.04-15.89.05-5.61.02-11.22.04-16.82.06-5.91.02-11.81.04-17.72.06l-18.49.06c-6.47.02-12.93.04-19.4.07-6.73.02-13.46.05-20.19.07-6.98.02-13.96.05-20.95.07-7.22.02-14.45.05-21.67.07-7.45.03-14.9.05-22.36.08-7.67.03-15.34.05-23.01.08-7.84.03-15.68.05-23.52.08-8.07.03-16.14.06-24.21.08-8.25.03-16.51.06-24.76.09-8.42.03-16.85.06-25.27.09-8.58.03-17.17.06-25.75.09-8.73.03-17.47.06-26.2.09-8.87.03-17.74.06-26.61.09-8.96.03-17.92.06-26.87.09-9.11.03-18.22.06-27.33.09-9.21.03-18.43.06-27.64.1-9.3.03-18.61.06-27.91.1-9.38.03-18.77.06-28.15.1-9.45.03-18.91.07-28.36.1-9.51.03-19.02.07-28.53.1-9.51.03-19.03.07-28.54.1-9.59.03-19.18.07-28.77.1-9.61.03-19.22.07-28.84.1-9.62.03-19.25.07-28.87.1-9.62.03-19.25.07-28.87.1-9.57.03-19.14.07-28.71.1-9.59.03-19.17.07-28.76.1-9.55.03-19.1.07-28.66.1-9.51.03-19.01.07-28.52.1-9.45.03-18.9.07-28.34.1s-18.76.06-28.14.1-18.6.06-27.89.1c-9.17.03-18.33.06-27.5.09-9.1.03-18.21.06-27.31.09-8.99.03-17.97.06-26.96.09-8.86.03-17.72.06-26.58.09-8.72.03-17.44.06-26.17.09l-25.72.09c-8.41.03-16.82.06-25.23.09-8.2.03-16.41.06-24.61.08-8.06.03-16.11.06-24.17.08l-23.58.08c-7.65.03-15.31.05-22.96.08-7.43.03-14.87.05-22.3.08-7.17.02-14.35.05-21.52.07-6.96.02-13.93.05-20.89.07-6.71.02-13.42.05-20.13.07-6.45.02-12.89.04-19.34.07-6.17.02-12.34.04-18.51.06-5.88.02-11.77.04-17.65.06l-16.75.06c-5.25.02-10.5.04-15.75.05l-14.86.05-13.86.05c-4.28.01-8.55.03-12.83.04-3.92.01-7.84.03-11.76.04-3.55.01-7.1.02-10.65.04-3.17.01-6.34.02-9.51.03l-8.31.03c-2.38,0-4.76.02-7.14.02l-5.9.02c-1.54,0-3.08.01-4.62.02-1.1,0-2.21,0-3.31.01h-1.97c-.2,0-.4,0-.6,0-.43,0-1.24.14-1.43.61-.18.44.15.7.61.7h0Z"/>
  <path class="cls-20" d="M1264.65,611.91c-11.34,15.39-21.92,31.79-29.59,49.34-4.11,9.4-6.78,19.21-8.27,29.35-1.58,10.75-2.03,21.63-2.45,32.47-.58,15.01-.96,30.03-1.31,45.04-.42,17.68-.78,35.36-1.12,53.04-.31,15.55-.59,31.09-.93,46.64-.03,1.55-.07,3.1-.1,4.65,0,.37,2.16.07,2.17-.58.33-14.97.61-29.93.9-44.9.34-17.62.69-35.23,1.1-52.85.36-15.56.73-31.12,1.28-46.68.72-20.33,1.18-41.25,8.42-60.53,3.37-8.98,7.83-17.56,12.63-25.85,4.83-8.34,10.09-16.44,15.65-24.31,1.24-1.75,2.49-3.49,3.76-5.21.24-.33-.8-.25-.88-.23-.44.07-.99.23-1.27.61h0Z"/>
  <path class="cls-20" d="M1327.71,611.71c-11.3,15.34-21.82,31.66-29.51,49.13-4.12,9.36-6.84,19.13-8.35,29.24-1.63,10.87-2.08,21.87-2.51,32.83-.58,15.01-.96,30.03-1.31,45.04-.42,17.68-.78,35.36-1.12,53.04-.31,15.55-.59,31.09-.93,46.64-.03,1.55-.07,3.1-.1,4.65-.02.87,2.15.41,2.17-.28.33-14.97.61-29.93.9-44.9.34-17.62.69-35.23,1.1-52.85.36-15.56.73-31.12,1.28-46.68.72-20.24,1.16-41.08,8.3-60.29,3.37-9.06,7.85-17.69,12.68-26.04s10.09-16.44,15.65-24.31c1.24-1.75,2.49-3.49,3.76-5.21.56-.77-1.61-.59-2.02-.03h0Z"/>
  <path class="cls-20" d="M143.25,612.02c11.34,15.39,21.92,31.78,29.59,49.34,4.07,9.32,6.74,19.05,8.23,29.12,1.61,10.83,2.06,21.8,2.48,32.73.58,15.03.96,30.06,1.31,45.1.42,17.62.77,35.24,1.12,52.86.31,15.55.59,31.09.93,46.64.03,1.55.07,3.1.1,4.65,0,.3,2.19-.01,2.17-.58-.33-15.03-.61-30.05-.91-45.08-.34-17.56-.69-35.11-1.09-52.67-.36-15.61-.74-31.21-1.29-46.81-.72-20.32-1.19-41.24-8.42-60.5-3.38-8.98-7.83-17.55-12.63-25.85-4.83-8.34-10.09-16.44-15.65-24.31-1.24-1.75-2.49-3.49-3.76-5.21-.36-.5-2.3.41-2.17.58h0Z"/>
  <path class="cls-20" d="M80.25,612.02c11.34,15.39,21.92,31.78,29.59,49.34,4.07,9.32,6.74,19.05,8.23,29.12,1.61,10.83,2.06,21.8,2.48,32.73.58,15.03.96,30.06,1.31,45.1.42,17.62.77,35.24,1.12,52.86.31,15.55.59,31.09.93,46.64.03,1.55.07,3.1.1,4.65,0,.41,2.19.07,2.17-.58-.33-15.03-.61-30.05-.91-45.08-.34-17.56-.69-35.11-1.09-52.67-.36-15.61-.74-31.21-1.29-46.81-.72-20.32-1.19-41.24-8.42-60.5-3.38-8.98-7.83-17.55-12.63-25.85-4.83-8.34-10.09-16.44-15.65-24.31-1.24-1.75-2.49-3.49-3.76-5.21-.41-.55-2.37.31-2.17.58h0Z"/>
  <path class="cls-14" d="M737.55,860.73c-1.63-4.94-1.17,13.65-3.22,8.9-4.65-10.73-10.26-20.98-16.51-30.75-6.43-10.04-13.59-19.57-21.43-28.41-5.33-6-11-11.71-17.01-16.96,95.89-41.36,332.73-98.23,332.73-98.23,0,0,64.05,56.68,39.76,139.25-7.28,24.74-26.06,31.01-58.1,36.01-75.89,11.85-198.99-3.84-256.2-9.82-.39-.04.38.04,0,0Z"/>
  <path class="cls-14" d="M658.21,871.47c20.92,59.8,67.13,228.94,95.94,301.25,0,0,79.24,4.03,85.21-14.2,0,0,1.73-405.02-46.84-411.57-35.8-4.82-96.73,8.14-115.21,23.34-22.19,18.24-35.57,54.08-19.1,101.18Z"/>
  <path class="cls-14" d="M696.94,831.39s12.17-2.34,29.55-1.98c-3.36-7.29-4.51-12.73-4.51-12.73,1.61-1.84,3.32-3.73,5.11-5.66,9.95,2.33,19.67,5.53,29.1,9.36,10.97,4.45,21.58,9.74,31.71,15.77,9.76,5.81,19.09,12.37,27.69,19.7,2.44,2.07,4.81,4.22,7.11,6.44-.29.09,4.78-.66,4.48-.57,33.6,35.09,32.76,113.43,52.2,184.52,14.26,52.14,32.86,112.47,32.86,112.47-7.72,17.54-103.84,24.74-103.84,24.74-34.17-94.62-111.45-352.06-111.45-352.06Z"/>
  <path class="cls-11" d="M992.42,432.96c-6.06-9.66-24.91-23.83-36.29-27.34-29.64-9.1-62.05-15.75-62.05-15.75,0,0-24.84,45.47-68.46,44.24-43.62-1.23-25.51-26.61-25.51-26.61l-12.68,5.96c-18.86,10.16-27.01,10.51-40.4,27.33-11.4,14.32-13.4,31.04-20.26,53.03-3.48,11.16-2.79,32.33-9.35,65.98-1.51,7.75-7.47,26.1-7.53,26.73-.45,4.7,4.91,4.55,24.77,8.28,10.05,1.89,19.01.55,23.48,1.97.61.92,13.06,70.66,13.32,71.98,4.12,20.92,6.43,38.49,8.1,61.93.04.53,6.8,35.49,6.84,36.02,1.76-.25-7.18,1.03-5.42.8,27.79-3.72,46.14-12.05,75.97-17.56,13.87-2.56,31.32-4.99,45.42-5.53,2.86-.11,4.77-.13,7.78-.29,2.61-.14,5.22-.31,7.83-.5,14.33-1,48.39-11.26,62.75-11.74,15.2-.51,43.24,11.64,58.22,14.06,2.88.46,5.44,14.54,8.58,15.36-.38-5.85-7.75-23.65-8.17-29.5-3.73-50.23-24.55-77.46-37.28-169.23l3.08-10.21,3.72-70.32c-1.05-15.69-1.32-24.94-16.44-49.07Z"/>
  <g>
    <path class="cls-11" d="M889.41,386.09s-13.46,42.88-56.12,46.26c-42.66,3.38-33.2-20.87-33.2-20.87l1.78-5.42-12.22,4.82s-1.31,13.79,5.19,23.02c6.51,9.23,26.59,13.12,53.32,6.87,15.68-3.67,27.9-10.79,38.86-24.21,13.12-16.06,15.19-25.72,15.19-25.72l-12.79-4.76Z"/>
    <path class="cls-16" d="M888.32,386.22c-1.45,4.62-3.77,9.07-6.22,13.22-5.49,9.28-12.83,17.58-21.95,23.42-5.65,3.62-11.9,6.2-18.45,7.65-7.6,1.68-15.84,2.06-23.57,1.07-7.44-.95-16.13-4.09-17.62-12.41-.69-3.82.46-7.19,1.63-10.76.27-.83.54-1.65.81-2.48.24-.73-1.27-.45-1.53-.35-4.07,1.61-8.15,3.21-12.22,4.82-.22.09-.63.32-.65.6-.29,3.12-.11,6.34.3,9.43.7,5.31,2.34,11.07,5.98,15.16,2.69,3.02,6.43,4.92,10.2,6.22,5.15,1.77,10.65,2.46,16.07,2.61,7,.2,14.01-.5,20.89-1.77,6.64-1.22,13.21-2.9,19.43-5.55,5.64-2.41,10.92-5.6,15.68-9.47,5.38-4.38,9.97-9.6,14.14-15.13,3.48-4.62,6.7-9.49,9.25-14.69,1.03-2.1,2.3-4.47,2.72-6.8.02-.1.05-.21.08-.31.04-.16-.07-.35-.23-.41-4.26-1.59-8.53-3.17-12.79-4.76-.49-.18-1.11-.11-1.54.19-.25.17-.7.7-.18.89,4.26,1.59,8.53,3.17,12.79,4.76l-.23-.41c-.32,1.46-.91,2.89-1.49,4.26-1.81,4.27-4.21,8.3-6.79,12.14-7.21,10.72-16.07,20.49-27.62,26.58-5.42,2.86-11.26,4.85-17.22,6.25-6.92,1.62-14.01,2.71-21.11,2.94-5.67.18-11.41-.15-16.93-1.49-4.06-.99-8.2-2.56-11.43-5.29-4.25-3.59-6.24-9.25-7.19-14.58-.64-3.59-.94-7.38-.6-11.02l-.65.6c4.07-1.61,8.15-3.21,12.22-4.82l-1.53-.35c-1.31,4-2.96,7.84-2.62,12.13.61,7.88,7.56,12.13,14.64,13.76,7.47,1.72,15.57,1.54,23.13.61,7.18-.88,14.21-2.98,20.64-6.3,10.43-5.38,19.02-13.74,25.45-23.5,2.26-3.43,4.27-7.04,5.99-10.78.85-1.84,1.96-3.89,2.4-5.89.02-.09.06-.18.09-.27.25-.79-1.94-.51-2.18.26Z"/>
  </g>
  <path class="cls-14" d="M738.86,879.71c-2.21-4.48-4.65-8.84-7.25-13.08-5.86-9.57-12.58-18.54-19.85-26.96-7.47-8.65-15.57-16.7-24.25-23.99-5.89-4.95,11.86-20.72,5.42-24.85-24.17-72.11,346.4-59.05,346.4-59.05,0,0,21.79,33.38,18.64,79.23-5.87,85.54-240.76,53.42-319.15,57.32-.37.02.39,11.36.02,11.37Z"/>
  <path class="cls-24" d="M802.82,1170.73c-.08-.24-.16-.47-.24-.71-.23-.69-.47-1.39-.7-2.08-.38-1.12-.75-2.24-1.13-3.35-.51-1.53-1.02-3.06-1.54-4.58-.64-1.91-1.28-3.82-1.92-5.72-.76-2.26-1.51-4.53-2.27-6.79-.87-2.59-1.73-5.18-2.6-7.78-.97-2.89-1.93-5.79-2.9-8.69-1.05-3.16-2.11-6.32-3.16-9.47-1.14-3.42-2.28-6.85-3.42-10.27-1.22-3.65-2.43-7.3-3.64-10.95-1.28-3.85-2.56-7.7-3.84-11.56-1.34-4.03-2.67-8.06-4.01-12.08-1.38-4.18-2.77-8.36-4.15-12.53-1.42-4.28-2.83-8.56-4.25-12.85-1.45-4.4-2.91-8.8-4.36-13.2-1.47-4.47-2.95-8.95-4.42-13.43-1.49-4.52-2.97-9.05-4.46-13.57-1.49-4.55-2.98-9.09-4.47-13.64-1.48-4.52-2.96-9.04-4.43-13.56-1.47-4.51-2.94-9.03-4.41-13.54-1.45-4.46-2.9-8.92-4.34-13.38-1.42-4.38-2.83-8.76-4.24-13.14s-2.75-8.55-4.12-12.83c-1.32-4.12-2.64-8.25-3.96-12.38-1.27-3.99-2.54-7.98-3.8-11.97-1.2-3.81-2.4-7.61-3.6-11.42-1.13-3.6-2.25-7.2-3.37-10.8-1.04-3.37-2.08-6.73-3.12-10.1-.95-3.11-1.9-6.22-2.84-9.33-.85-2.81-1.69-5.62-2.52-8.44-.74-2.51-1.48-5.03-2.2-7.55-.62-2.18-1.24-4.36-1.84-6.55-.5-1.82-.99-3.64-1.45-5.47-.37-1.43-.72-2.87-1.04-4.31-1.39-6.23-2.23-12.61-2.38-18.99-.16-6.65.47-13.33,2.07-19.8,1.36-5.51,3.45-10.84,6.23-15.79,3.2-5.71,7.4-10.82,12.42-15.03,5.01-4.19,10.75-7.45,16.85-9.78,6.05-2.32,12.44-3.7,18.89-4.3.47-.04.67-.67.08-.61-6.64.62-13.2,2.06-19.43,4.45-6.04,2.32-11.75,5.56-16.74,9.69-5.03,4.16-9.27,9.2-12.52,14.85-2.79,4.84-4.9,10.05-6.34,15.44-1.71,6.42-2.44,13.08-2.38,19.72.06,6.75.91,13.51,2.35,20.1.31,1.42.66,2.83,1.01,4.24.46,1.8.94,3.6,1.42,5.39.59,2.17,1.2,4.34,1.82,6.51.71,2.5,1.44,5,2.18,7.49.83,2.82,1.67,5.64,2.52,8.46.93,3.1,1.87,6.19,2.82,9.28,1.03,3.37,2.07,6.74,3.12,10.11,1.11,3.59,2.23,7.18,3.36,10.77,1.2,3.82,2.4,7.63,3.61,11.45,1.26,3.98,2.52,7.96,3.79,11.94,1.32,4.16,2.65,8.32,3.99,12.47,1.37,4.27,2.74,8.54,4.12,12.81s2.84,8.8,4.26,13.19c1.44,4.46,2.89,8.92,4.34,13.37,1.47,4.53,2.95,9.07,4.43,13.6,1.48,4.54,2.96,9.09,4.45,13.63,1.49,4.57,2.99,9.13,4.49,13.7s2.97,9.05,4.46,13.57,2.96,8.99,4.44,13.49,2.9,8.81,4.36,13.21,2.86,8.65,4.29,12.97c1.38,4.18,2.77,8.36,4.15,12.54s2.68,8.09,4.03,12.14c1.28,3.85,2.56,7.7,3.84,11.56,1.22,3.67,2.44,7.34,3.66,11,1.14,3.42,2.28,6.85,3.42,10.27,1.06,3.18,2.12,6.37,3.19,9.55.96,2.89,1.93,5.78,2.9,8.67.87,2.6,1.74,5.2,2.61,7.8.75,2.26,1.51,4.51,2.27,6.77.64,1.91,1.28,3.82,1.92,5.73.51,1.52,1.02,3.04,1.53,4.56.37,1.12.75,2.23,1.12,3.35.23.68.46,1.36.68,2.04.07.22.15.44.22.67.13.38.99.14.86-.23h0Z"/>
  <path class="cls-10" d="M1008.53,499.85l-79.43-8.04,3.18,50.2,1.18,93.12c14.02,4.64,41-2.62,55.47.09,8.38,1.57,7.16-.18,15.45,1.79,1-5.98.43-79.9.89-85.5,1.33-15.98,5.52-4.58,3.24-51.66Z"/>
  <path class="cls-10" d="M1006.14,563.71s-.43,61.07-.49,63.91c-.36,17.66-1.73,40.33-11.03,58.46-12.49,24.35-37.9,23.01-64.15,3.6-29.05-21.48,15.47-71.8,15.47-71.8l60.2-54.17Z"/>
  <path class="cls-10" d="M984.67,698.47c-5.78,6.5-25.95,12.15-44.06,10.91-54.87-3.76-147.58-22.76-196.93-34.53l12.4-16.73-5-19.3,188.1-5.38"/>
  <path class="cls-11" d="M1008.07,474.3s8.49,50.28,8.17,86.38c0,0-58.61,13.76-95.98,3.35-39.6-11.03-14.27-95.82-14.27-95.82l102.07,6.09Z"/>
  <g>
    <path class="cls-11" d="M950.2,431.96c2.79-.17-28.15,4.92-33.49,61.86-5.65,60.16,2.43,70,2.43,70l13.33,3.71"/>
    <path class="cls-16" d="M950.07,432.61s-.25.04-.36-.02c-.72-.39-.03-1.02.11-1.03-.17.01-.41.16-.56.23-.81.33-1.61.68-2.39,1.07-3.05,1.53-5.87,3.49-8.44,5.74-9.89,8.67-15.68,21.2-19.04,33.69-2.93,10.9-3.93,22.12-4.74,33.34-.71,9.74-1.15,19.52-1,29.29.09,5.84.36,11.71,1.17,17.5.42,3.01.96,6.05,1.95,8.94.29.83.64,2.23,1.31,2.86.21.2.41.24.67.32,1.84.61,3.76,1.05,5.62,1.56,2.48.69,4.96,1.38,7.43,2.07.74.21,2.56-.9,1.31-1.24-3.85-1.07-7.69-2.14-11.54-3.21-.59-.16-1.19-.39-1.79-.5.53.1.3.24.09-.22.06.13-.17-.32-.25-.5-.14-.3-.27-.61-.39-.93-.96-2.47-1.5-5.12-1.94-7.73-.89-5.36-1.24-10.81-1.41-16.23-.28-9.25.05-18.51.63-27.74.73-11.59,1.55-23.28,4.23-34.61,3.11-13.14,8.7-26.52,18.9-35.76,1.43-1.29,2.94-2.49,4.54-3.56,1.17-.78,2.54-1.59,3.56-2.09.47-.23,4.17-1.46,3.64-2.3-.18-.29-.76-.23-1.05-.22-1.11.06-1.78,1.38-.27,1.29h0Z"/>
  </g>
  <path class="cls-3" d="M933.22,634.17c5.67,1.99,11.29,4.27,16.48,7.33,4.93,2.9,9.66,6.56,12.63,11.54,1.62,2.71,2.58,5.76,2.76,8.91.07,1.19,2.27.89,2.21-.14-.74-12.68-12.32-20.37-22.82-25.18-3.27-1.5-6.63-2.8-10.02-3.99-.99-.35-2.55,1.07-1.24,1.53h0Z"/>
  <path class="cls-10" d="M673.31,624.59l13.36-8.74c2.27-1.47,4.9-2.29,7.6-2.38l26.35-.76,27.92,24.01,8.24,3.82,1.17,37.03-17.75-1.67s-39.51,7.73-43.24,5.38c-3.73-2.35-10.42-9.03-10.42-9.03,0,0-20.89-6.11-22.97-7.86-7.89-6.68-4.84-8.42-4.84-8.42l-3.59-1.55c-.62,1.27-6.02-6.98-5.6-11.21.24-2.46-.48-2.43-.48-2.43-3.53-1.9-6.04-5.26-6.86-9.18-.45-2.49,11.01-6.03,11.01-6.03l24.23,1.56-4.14-2.55Z"/>
  <path d="M693.14,627.87l-24.09-30.9c-1.77-2.28-4.52-3.58-7.41-3.49l-45.83,1.31c-1.84.05-3.29,1.59-3.24,3.43h0c.03.8.34,1.56.87,2.15l27.13,29.71h0l52.55-2.22Z"/>
  <path class="cls-3" d="M685.12,642.26c-2.83.81-5.81.91-8.73,1.03-2.97.13-5.95.09-8.92-.09-2.82-.18-5.63-.49-8.42-.94s-5.69-.92-8.36-2.05c-.87-.37-2.53.88-1.27,1.41,2.67,1.13,5.53,1.6,8.38,2.07,3.11.52,6.24.87,9.38,1.05,2.99.17,6,.19,8.99.07s6.3-.27,9.32-1.13c1.32-.38.96-1.8-.38-1.41h0Z"/>
  <path class="cls-3" d="M692.18,658.5c-2.81.8-5.8.88-8.7,1s-5.98.07-8.97-.12c-2.82-.18-5.64-.51-8.43-.97s-5.56-.93-8.16-2.03c-.51-.22-2.48.59-1.77.89,2.72,1.15,5.64,1.62,8.54,2.09,3.11.51,6.25.85,9.4,1.02s6.13.18,9.2.03,6.14-.31,9.1-1.16c.21-.06,1.11-.33.98-.68s-.97-.16-1.19-.1h0Z"/>
  <path class="cls-3" d="M688.86,627.86c-.03.22-.93.42-1.03.58.03-.04.21.03.07-.01-.09-.03.3-.01.4-.02.57-.02,1.14-.02,1.71-.03,2.14-.03,4.27-.14,6.41-.27,2.35-.15,4.7-.27,7.06-.32.81-.02,1.62-.03,2.43,0,.22,0,.44.01.65.03.46.04.23.16.12-.12.26.69,2.41.04,2.17-.58-.3-.8-2.99-.47-3.59-.47-2.99.03-5.98.21-8.97.4-2.25.14-4.49.19-6.74.23-.66.01-2.74-.06-2.87.89-.11.76,2.07.37,2.16-.3h0Z"/>
  <path class="cls-22" d="M688.28,628.7c-.24-.2-.45-.42-.64-.66l-1.65-1.99-6.25-7.43-9.02-11.08-5.3-6.55c-.93-1.07-2.14-1.87-3.5-2.3-.69-.22-1.41-.34-2.14-.37-.71.02-1.59.05-2.28.07l-31.74.78-9.64.15-2.62.08c-.31.02-.62,0-.92-.05.3-.08.61-.12.92-.11l2.62-.15,9.63-.42,31.73-1.02c.79-.02,1.59-.05,2.35-.07.8.03,1.59.17,2.35.41,1.49.49,2.83,1.37,3.85,2.56l5.29,6.6,8.88,11.2c2.46,3.11,4.47,5.7,5.93,7.6.64.84,1.16,1.55,1.65,2.08.19.21.36.44.5.68Z"/>
  <path class="cls-5" d="M283.32,649.93s-73.79,114.08-28.52,199.8c21.57,40.82,86.11,40.79,86.11,40.79l66.2-83.25v-137.68l-123.78-19.66Z"/>
  <path class="cls-18" d="M272.68,686.73c-1.57-.8-7.93-2.25-6.91-3.82.33-.5-.1-23.84,28.97-69.39,14.69-23.02,45.79-99.61,45.79-99.61,0,0,64.57-188.4,80.86-194.71,13.31-5.19,46.73-8.12,46.73-8.12l43.86-4.8,50.92,43.4,8.28,5.5c.53,1.29,1.83,1.54,3.55,2.34.8.38,11.63,9.58,12.4,10.01l18.86,17.44c6.35,5.61,7.63,9.85,12.57,16.82,11.81,16.63,18.21,41.54,15.65,60.85-2.72,20.44-13.55,37.28-18.05,57.37-2.8,12.48-15.64,21.56-18.38,34.05-8.18,21.87-18.42,31.15-21.8,33.16-11,6.58-16.92,11.35-16.92,11.35-4.3,7.98-5.75,8.55-9.09,16.98-.19.48-4.28,10.3-4.43,10.8-1.22,4.04-3.97,14.51-4.89,18.62-1.89,8.42,0-1.57-.75,7.02-.73,8.25-.23,16.45-.62,24.68,0,0-3.38,71.65-3.38,71.65l-151.59-33.98s-71.62-7.17-111.63-27.61Z"/>
  <path class="cls-5" d="M716.22,803.25c-3.34,100.27-13.35,271.53-29.28,373.88,0,0-77.2,38.36-88.62,15.92,0,0-27.78-209.3-65.77-332.21-33.46-108.24-236.5-116.5-210.72-126.31,40.58-15.44,300.98-36.54,351.28-18.41,33.35,12.02,45.32,20.63,43.11,87.12Z"/>
  <path class="cls-5" d="M675.43,723.9c-3.58-3.05-7.42-5.95-11.47-8.49-132.74-11.23-338.53,3.23-338.53,3.23,0,0-95.88,30.29-67.95,114.3,37.01,111.33,312.42,38.99,406.93,4.38.45-.17.89-.34,1.33-.5.54-6.46,1.41-12.88,2.52-19.23,2.51-14.36,6.31-28.43,11.01-42.11,4.79-13.93,9.97-16.68,16.77-29.61-6.14-7.98-12.97-15.45-20.61-21.97Z"/>
  <path class="cls-5" d="M665.56,721.3s-14.46.36-34.1,5.59c1.84-10.26,2.13,4.44,2.13,4.44-2.33-1.92-15.06.93-17.61-1.04-10.67,5.71-11.02-14.28-20.7-6.79-11.25,8.71-21.87,18.4-31.74,28.9-9.51,10.12-18.33,21.08-26.12,32.82-2.2,3.32-33.86,6.73-35.88,10.2.36.03.06,19.96.42,19.99-28.65,54.15,16.37,134.28,13.56,230.59-2.46,84.56-2.69,96.65-7.23,141.57,13.52,20.33,118.55,10.81,118.55,10.81,13.16-130.47,38.7-477.08,38.7-477.08Z"/>
  <line class="cls-23" x1="529.71" y1="515.67" x2="529.27" y2="517.25"/>
  <path class="cls-18" d="M402.94,538.49l-3.66,43.54c.45.47,1.15.71,1.85.31,5.94-3.39,11.56-5.08,17.24-8.96l126.95,54.76-7.35,60.77s-134.33-25.17-166.13-34.38c-1.81-.52-21.67-2.55-23.41-3.12-16.85-5.53-48.92-21.87-53.71-37.89-5.96-19.89-2.54-32.79.13-53,5.27-40.01,26.21-101.54,32.05-141.47,2.79-19.08,8.39-34.7,15.93-52.45,10.59-24.9,26.47-35.83,55.03-43.61l41.58-8.37"/>
  <g>
    <path class="cls-18" d="M402.16,355.46c14.49,2.62,21.77,24.75,17.4,52.93-3.07,19.81-38.64,159.66-38.64,159.66,0,0,26.18-.76,103.18,30.39,46.23,18.7,93.17,28.83,93.17,28.83l-1.04,9.58-2.37,31.87-1.16,5.09s-38.27,1.06-80.3-3.65c0,0-138.2-17.77-166.07-31.51-27.87-13.74-34.52-23.31-34.7-45.12"/>
    <path class="cls-15" d="M401.48,356.01c9.36,1.77,14.16,11.46,16.3,19.84,2.81,11.04,2.45,23,.46,34.14-.79,4.45-1.79,8.87-2.78,13.28-1.52,6.76-3.1,13.51-4.7,20.26-1.97,8.28-3.97,16.56-5.99,24.83-2.16,8.86-4.34,17.71-6.53,26.55-2.14,8.65-4.29,17.29-6.46,25.93-1.88,7.52-3.77,15.04-5.66,22.55-1.38,5.5-2.77,11-4.16,16.49-.66,2.62-1.59,5.31-2.02,7.98-.02.12-.06.23-.09.34-.09.34.42.41.64.41.68-.02,1.36.03,2.04.07-.24-.02.22.02.36.03.22.02.43.03.65.05.51.04,1.01.09,1.52.15,1.29.14,2.57.31,3.86.5,9.68,1.42,19.23,3.8,28.64,6.45,18.19,5.12,36.02,11.46,53.63,18.3,11.7,4.54,23.3,9.31,35.16,13.46,10.73,3.75,21.58,7.19,32.49,10.37,12.31,3.59,24.72,6.93,37.24,9.7.18.04.36.08.54.12l-.4-.39c-.56,5.11-1.09,10.2-1.47,15.32-.6,8.01-1.19,16.02-1.79,24.03-.18,2.46-.77,4.76-1.32,7.18l1.52-.71c-8.12.22-16.27.12-24.39-.06-18.57-.41-37.23-1.33-55.67-3.58-2.94-.36-5.87-.77-8.81-1.17-7.55-1.02-15.1-2.08-22.65-3.16-10.39-1.5-20.77-3.05-31.14-4.68-11.58-1.82-23.15-3.72-34.7-5.78-11.01-1.96-22-4.04-32.93-6.4-8.68-1.88-17.36-3.88-25.84-6.55-9.62-3.02-18.77-7.76-27.01-13.55-4.59-3.22-8.9-7.03-11.91-11.81-2.75-4.38-4.19-9.38-4.84-14.48-.37-2.92-.51-5.86-.53-8.8,0-.58-2.18-.19-2.17.58.05,5.65.49,11.4,2.31,16.79,1.65,4.85,4.48,9.16,8.11,12.76,4.66,4.63,10.32,8.17,16.02,11.35,4.29,2.39,8.65,4.73,13.26,6.44,7.56,2.8,15.45,4.73,23.29,6.56,10.54,2.46,21.17,4.57,31.82,6.54,11.6,2.15,23.23,4.13,34.87,6.01,10.91,1.76,21.83,3.43,32.77,5.04,8.48,1.25,16.97,2.45,25.47,3.61,4.23.58,8.45,1.15,12.68,1.7,14.75,1.92,29.73,2.73,44.59,3.31,11.61.46,23.25.67,34.88.47.55,0,1.1-.02,1.65-.03.4-.01,1.4-.19,1.52-.71.48-2.11,1.1-4.19,1.26-6.35.25-3.41.51-6.83.76-10.24.5-6.77.9-13.56,1.51-20.32.29-3.21.7-6.41,1.05-9.62.03-.27-.18-.34-.4-.39-10.47-2.26-20.85-5.04-31.16-7.94-10.56-2.97-21.05-6.18-31.44-9.67-11.95-4.01-23.69-8.52-35.39-13.18-18.52-7.37-37.28-14.23-56.41-19.84-10.26-3.01-20.66-5.73-31.22-7.46-2.51-.41-5.04-.76-7.57-.98-.76-.06-1.51-.12-2.27-.15-.26-.01-.76-.12-1-.02-.03.01-.08,0-.12,0l.64.41c.47-1.85.94-3.7,1.41-5.55,1.26-4.96,2.51-9.91,3.76-14.87,1.81-7.18,3.61-14.35,5.41-21.53,2.14-8.55,4.28-17.11,6.4-25.66,2.22-8.95,4.43-17.91,6.63-26.87,2.08-8.51,4.15-17.02,6.19-25.53,1.72-7.17,3.41-14.35,5.05-21.53,1.13-4.94,2.25-9.89,3.21-14.87,1.87-9.66,2.49-19.74,1.17-29.5-1.24-9.15-4.49-20.07-12.99-25.05-1.68-.98-3.5-1.64-5.41-2-.62-.12-2.54.86-1.36,1.09h0Z"/>
  </g>
  <path class="cls-15" d="M618.84,458.64c-2.38,1.81-4.44,4.18-6.21,6.57-3.4,4.58-5.88,9.96-6.71,15.63-.61,4.16-.69,8.41-.83,12.61-.2,5.95-.36,11.91-.71,17.86-.84,14.02-2.64,28.15-7.18,41.5-2.51,7.38-5.91,14.51-10.18,21.03-3.11,4.74-6.76,9.18-11.2,12.74-2.95,2.36-6.19,4.21-9.53,5.94-2.48,1.29-5.05,2.58-7.02,4.6-.44.45-.84.94-1.2,1.46-.49.72,1.65.46,2-.05,1.5-2.19,3.75-3.54,6.05-4.76,3.11-1.66,6.25-3.25,9.14-5.28,10.2-7.15,17.04-18.55,21.76-29.84,5.53-13.2,7.93-27.53,9.09-41.72.9-10.99.69-22.04,1.59-33.03.77-9.42,5.04-18.47,12.33-24.63.17-.14.34-.28.51-.42.38-.29.21-.52-.17-.63-.45-.13-1.18.14-1.54.41h0Z"/>
  <path class="cls-10" d="M496.68,236.45s.04,44.42-18.66,69.39c-2.61,3.48-25.62,6.67-25.62,6.67l26.52,22.68c14.96,8.24,41.08,19.41,64.57,22.39,10.26,1.3,23.7,6.04,32.81,1.14h0s-15.9-11.95-15.55-17.07c.35-5.11,15.13-45.27,15.13-45.27"/>
  <path class="cls-7" d="M563.72,330.04s-8.3-7.24-13.88-10.18c-5.58-2.94-15.82-4.77-38.1-34.38,0,0,1.78,30.91,35.37,44.65,0,0,9.33,4.22,15.57,4.06l1.04-4.14Z"/>
  <path class="cls-10" d="M632.06,157.81c.1.13.2.25.31.38-.09-.23-.17-.47-.21-.7l-.1.32ZM645.84,165.24c.15.26.33.53.52.81l.08-.27s-.5-.86-.6-.54ZM508.38,283.97c9.51,18.21,27.04,37.57,48.41,45.21,21.37,7.64,25.95-2.06,32.56-5.98,11.01-6.53,14.87-7.45,23.62-14.63,8.45-6.93,15.34-16.13,19.66-26.32,4.67-11.02,4.58-22.83,8.86-33.9,1.94-5.02,10.35-24.59,14.38-36.34,4.02-11.76-2.51-33.91-2.51-33.91.29-3.42-.76-6.21-1.71-9.31l-1.4-.43s.6.54.3,1.5c-1.69-.82-3.16-2.33-4.18-3.81l-.02.05c-2.4.31-4.19-1.3-5.45-3.44-.1.32.05,1.07.4,1.18-2.2-.33-3.99-1.94-5-3.65-.1.32.05,1.07-.05,1.39-1.5-.78-2.83-2.1-3.89-3.38.19.52,8.45,1.74,8.39,1.96-2.19-.33-.01,1.11-1.26-1.03l-1.36-1.73c-1.85-.22-2.11.85-3.11-.86.25.43.13-3.83.03-3.51-2.1-.65-1.48-.61-2.93-2.11-.1.32-6.36.32-6.46.64-1.75-.54-1.78,1.2-2.78-.51.25.43,1.68-.95,1.93-.52-2.19-.33-3.4.78-4.65-1.37.25.43-5.82-5.66-5.82-5.66-2.2-.33-2.05.44-3.4-1.38.5.86-9.49-3.59-9.34-2.84-1.75-.54,1.35,7.44.26,6.04-.1.32-3.72-2.21-3.72-2.21-1.85-.22.28,2.2-.72.48-.1.32-.05,1.39.3,1.5-2.4.31-4.64-1.08-6.34-3.02.5.86.65,1.61.9,2.04-1.75-.54-3.24-.65-4.59-2.48-.1.32.3,1.5.65,1.61-1.95.1-3.94-.87-5.39-2.37-.1.32.4,1.18.65,1.6-1.49-.11-2.89-.54-3.99-1.94l.65,1.61c-1.4-.43-2.64-.12-4.54-1.41-.1.32.5.86.4,1.18-1.05-.32-2.45-.76-3.4-1.4-.1.32.75,1.29.4,1.18-1.4-.43-2.64-.12-4.19-1.3.25.43.4,1.18.65,1.61-1.4-.43-2.89-.55-4.09-1.62-.1.32.05,1.07.3,1.5-1.4-.43-2.64-.12-4.19-1.3-.1.32.4,1.18.65,1.61-1.4-.43-2.9-.55-4.19-1.3-.1.32.5.86.75,1.29-1.4-.43-2.89-.54-4.44-1.73-.2.64.05,1.07-.05,1.39-1.05-.32-1.65-.86-2.69-1.18l-1.95.1c-6.88,4.9-13.18,26.49-13.18,26.49-13.51,5.3-23.16,21.64-24.7,27.84-1.54,6.2-7.36,18.81-7.36,18.81-1.05-2.78-3.41-8.78-3.66-11.67-.35-2.57,1.24-5.24.89-7.81-1.55-6.11-9.04-6.67-13.87-4.65l-.97.86c-7.59,5.59-8.71,29.94-6.81,37.85-3.04,13.99,6.77,24.85,16.54,17.07l.26,5.9"/>
  <path class="cls-1" d="M491.95,238.82c-4.52-.86-9.33,1.67-10.58,6.21-.58,2.08-.18,4.4.98,6.21.56.87,1.51,1.59,2.38,2.13,2.28,1.41,5,1.72,7.56.94.57-.17,1.4-.68,1.21-1.4s-1.19-.77-1.75-.6c-1.57.48-3.13.3-4.51-.49-.55-.32-1.06-.69-1.53-1.11-.16-.14.12.12-.08-.07-.06-.06-.12-.12-.18-.18-.09-.09-.18-.19-.26-.29-1.86-2.4-1.21-6.3.93-8.09.38-.32.66-.5.98-.67.52-.27.65-.31,1.12-.43.8-.21,1.7-.19,2.69,0,.68.13,1.63-.26,1.93-.9.33-.7-.3-1.11-.9-1.23h0Z"/>
  <path d="M517.54,189.87l-11.51,30.62-6.71-17.16s12.99-9.66,18.22-13.45Z"/>
  <g>
    <path d="M589.6,271.22c-2.99.54-6.82-.99-8.92-3.39-.47-.53-2.49-.78-1.84-.04,2.77,3.17,8.35,5.11,12.21,4.41.38-.07.4-.34.03-.6-.38-.28-1.08-.46-1.48-.38"/>
    <path d="M577.95,266.72c-1.48-1.35-3.29-2.38-5.18-3.13-.28-.11-.68-.12-.94,0-.21.09-.3.28-.13.46.73.79,1.81,1.35,2.86,1.66.33.1.79.15,1.06-.07.25-.21-.01-.47-.27-.55-.87-.25-1.7-.7-2.31-1.34-.36.16-.71.31-1.07.47,1.69.67,3.3,1.61,4.62,2.81.26.24.73.28,1.06.21.24-.06.55-.27.29-.52"/>
    <path d="M570.19,264.58c-2.25-.76-4.61-2.56-5.2-4.61-.89-3.08,1.93-6.65,5.27-7.41.36-.08.27-.36-.02-.53-.38-.21-.91-.21-1.29-.13-2.91.66-5.54,3.5-5.91,6.02-.35,2.35,1.33,4.59,3.84,6.08.75.44,1.57.84,2.41,1.12.34.11.99.2,1.24-.01.25-.22-.02-.43-.34-.54"/>
    <path d="M594.11,271.36c-.04-.3.24-.4.42-.34.61.21,1.28.23,1.94-.03.13.31.25.61.37.92-1.27-.25-2.62-.23-3.94.16-.26.08-.55-.11-.69-.34-.11-.17-.18-.5.09-.58"/>
    <path d="M592.29,271.16c1.48-.43,2.99-.44,4.4-.16.21.04.43.23.52.46.07.18.03.38-.15.46"/>
    <path d="M598.72,273.13c1.49.4,3.53-.04,4.78-1.52,1.89-2.22,1.81-5.58.48-7.79-.14-.24.03-.44.26-.44.29,0,.56.24.71.49,1.16,1.92,1.48,4.56.5,6.89-.92,2.17-2.82,3.31-4.78,3.41-.58.03-1.18-.01-1.74-.16-.23-.06-.6-.29-.62-.59-.03-.31.21-.36.43-.3"/>
  </g>
  <path d="M610.31,236.34s13.25-4.92,18.11-3.69c7.1,1.79,12.74,9.63,13.92,13.95,0,0-7.68-10.73-12.72-11.84-4.82-1.07-19.31,1.59-19.31,1.59Z"/>
  <path d="M578.3,227.84s-7.83-11.65-12.94-13.67c-7.45-2.95-18.29-.62-22.03,2.1,0,0,14.46-3.38,19.65-1.16,4.96,2.12,15.32,12.74,15.32,12.74Z"/>
  <path d="M648.04,234.26c.06-.19.09-.4.19-.56.3-.54.59-1.09.86-1.65.12-.4.28-.78.49-1.13,0-.03,0-.03,0-.06-.13-.53-.18-1.06-.18-1.57-.44-1.06-.84-1.73-.91-1.85,0,0-1.76-2.98-5.55-5.63-2.62-1.83-10.52-5.43-21.87-8.3-.62,1.39-1.24,2.79-1.86,4.19-.47,1.07-.94,2.13-1.4,3.19,4.14.52,7.61,1.16,10.2,1.69,5.48,1.13,8.27,1.73,11.03,3.33,2.9,1.68,5.05,3.79,5.88,4.62,1.17,1.16,1.97,1.92,2.77,3.16.13.2.24.39.34.58Z"/>
  <path d="M588.99,204.96c-.61,1.36-1.22,2.73-1.84,4.1-.47,1.04-.94,2.08-1.42,3.12-4.3-2.94-8.07-5.28-10.94-6.99-6.06-3.62-9.17-5.45-13.1-6.62-4.13-1.23-7.93-1.61-9.41-1.74-2.08-.19-3.47-.35-5.27-.2-3.91.31-6.04,1.66-6.49,1.26-.4-.36,1.11-1.7,1.27-1.84,3.85-3.37,9.37-3.93,9.79-3.99,0,0,4.18-.48,9.97.85,3.99.92,14.41,4.9,27.43,12.06"/>
  <path d="M633.4,235.1c-.43-.08-.87-.12-1.32-.05-1.7.25-2.68,1.56-2.9,1.88-1.2,1.72-1.4,4.6.43,6.37,1.35,1.31,3.53,1.8,5.27.85,1.3-.71,2.48-2.19,2.57-3.84-1.5-1.6-2.78-3.41-4.04-5.21Z"/>
  <path d="M569.6,219.26c-.37-.39-.75-.77-1.13-1.15-.8-.81-1.55-1.7-1.99-2.76,0-.02,0-.04-.02-.06-1.14-.32-2.3-.36-3.09-.04-.36.15-1.34.59-2.09,1.64-.96,1.35-.95,3.26-.37,4.62.78,1.82,2.79,2.78,4.66,2.59,2.47-.26,4.06-2.52,4.25-4.57-.08-.09-.15-.17-.23-.26Z"/>
  <path class="cls-3" d="M498.8,220.53c-.49-5.08-1.16-10.19-2.47-15.13-.64-2.4-1.42-4.86-2.72-7-.42-.69-.97-1.62-1.71-2.02-1.19-.64-2.55.59-3.36,1.36-3.27,3.1-4.74,7.64-5.19,12.01-.07.64,2.09.21,2.15-.35.36-3.5,1.33-7.05,3.43-9.93.72-1,1.6-2.05,2.68-2.7l-1.73.38c-.25-.11.26.21.38.32.5.46.89,1.04,1.24,1.61,1.83,3.06,2.71,6.72,3.43,10.18.81,3.91,1.32,7.88,1.7,11.86.05.49,2.24.07,2.17-.58h0Z"/>
  <path class="cls-3" d="M495.98,221.16c-2.39-.99-5.27-.39-6.49,2.04-1.12,2.24-1.08,4.94-1.36,7.37-.05.42-.09.86-.2,1.27-.03.11-.14.33-.14.43,0,.38.95.13.9-.12-.02-.11-.27-.42-.32-.55-.11-.29-.16-.61-.2-.91-.14-.98-.12-2-.07-2.99.18-3.4.63-6.94,1.99-10.09.67-1.55,1.46-3.08,2.47-4.45.93-1.26,2.31-2.97,4-3.08.35-.02,1.29-.15,1.45-.54s-.13-.46-.53-.43c-3.76.24-6.36,2.97-8.14,6.06-1.57,2.72-2.37,5.31-2.87,8.4-.38,2.36-.73,4.86-.51,7.25.12,1.3.44,2.53,1.99,2.29,1.11-.17,1.96-.74,2.19-1.84.24-1.16.27-2.37.39-3.54.16-1.54.35-3.15.98-4.59.23-.52.58-1.26,1.13-1.52-.15.07-.06-.02.21.03.48.09.92.21,1.37.4.52.21,2.49-.6,1.77-.9h0Z"/>
  <path class="cls-25" d="M652.02,191.23c-2.69-21.3-21.21-38.37-63.72-57.42-42.51-19.05-82.04-13.58-82.04-13.58,40.13-56.92,103.67-34.98,117.98-30.55,14.31,4.43,64.53,84.84,30.53,128.02l-2.72,4.59s.46-27.18-.03-31.06Z"/>
  <path class="cls-25" d="M498.98,103.57s6.97-41.28,40.03-45.63c44.16-5.81,99.33,2.66,105.63,49.24l-145.66-3.6Z"/>
  <path class="cls-19" d="M473.2,200.98c-2.2-4.22,1.49-13.12-.13-17.6-8.51-23.43,1.83-40.59,10.73-49.93,3.88-4.07,3.12-13.54,4.65-17.68,8.03-21.72,10.78-21.61,50.64-34.12,32.44-10.18,61.16-.39,77.66,5.7,26.42,9.75,37.74,15.09,41.24,37.04.46,2.86-1.49,4.46-1.39,7.77.14,4.68,4.77,10.36,4.21,16.06,0,0-36.89.03-71.39,6.86-34.5,6.83-106.15,52.43-109.74,71.63-.11.6-4.04-21.06-6.48-25.72Z"/>
  <path class="cls-25" d="M471.48,154.55s70.03-46.85,125.62-30.24c0,0-68.07-31.21-115.38,10.26l-1.38,1.81c-3.63,4.78-6.4,10.15-8.16,15.89l-.7,2.28Z"/>
  <path class="cls-25" d="M657.13,133.11l-3.32-2.56c-7.73-5.96-16.28-10.78-25.38-14.29l-15.26-5.89s39.68,5.06,45.11,17.18l-1.15,5.57Z"/>
  <path class="cls-25" d="M502.97,169.8s-25.97,14.24-29.97,21.83l.06-8.25s10.42-12.74,29.9-13.58Z"/>
  <path class="cls-10" d="M571.84,668.73l13.56,1.54s39.59,18.81,52.02,19.69c9.02.26,18.05-.89,26.85-3.42l10.1,4.05c4.65,1.87,9.77,1.86,14.5-.02l3.64-1.45s11.34,8.88,14.17,5.03c2.82-3.85-.62-8.45-3.96-12.91-3.34-4.46-76.61-49.4-76.61-49.4,7.3-2.41,20.1.49,27.63-.5,11.57-1.42,15.6-6.66,11.04-11.48-2.81-2.97-11.98-5.67-18.37-3.05-6.37,2.61-35.3-7.28-46.82-4.02-11.53,3.26-20.8,18.32-20.8,18.32-.96.41-3.02-.4-3.02-.4-.54,1.58-3.91,38.04-3.91,38.04Z"/>
  <path class="cls-3" d="M662.87,686.95c3.36,1.35,6.7,2.72,10.07,4.04,4,1.57,8.29,1.9,12.48.96,2.41-.54,4.69-1.58,6.98-2.49l-1.44-.04c2.07,1.61,4.29,3.08,6.61,4.3,2.54,1.33,6.74,3.2,9.23.74,1.93-1.91,1.67-4.87.67-7.15-1.07-2.42-2.72-4.87-4.46-6.86-1.14-1.3-2.65-2.34-4.02-3.38-11.49-8.69-23.74-16.45-35.81-24.31-3.58-2.34-7.17-4.66-10.78-6.97-.63-.4-2.62.51-1.72,1.08,4.07,2.61,8.12,5.24,12.17,7.88,7.84,5.12,15.67,10.28,23.39,15.57,3.27,2.24,6.54,4.5,9.72,6.86,1.74,1.29,3.73,2.58,5.13,4.25,1.12,1.34,2.15,2.84,3.06,4.32,1.02,1.65,2.06,3.64,1.92,5.64-.06.89-.43,2.58-1.4,2.91-.74.26-1.9-.19-2.59-.42-2.14-.73-4.14-1.93-6.02-3.16-1.04-.68-2.01-1.54-3.07-2.17-.71-.42-1.41-.07-2.11.21-.92.37-1.84.74-2.77,1.1-3.75,1.48-7.8,1.74-11.69.63-3.64-1.03-7.15-2.76-10.65-4.17-.39-.16-.78-.31-1.17-.47-.48-.19-1.12-.11-1.54.19-.25.18-.69.69-.18.89h0Z"/>
  <path class="cls-7" d="M692.21,688.6c-4.5-2.89-9.45-5.13-14.25-7.47-5.86-2.87-11.75-5.66-17.52-8.7-2.34-1.23-4.7-2.48-6.87-3.99-.39-.27-1.89.44-1.67.59,4.38,3.05,9.37,5.32,14.13,7.68,5.85,2.89,11.74,5.68,17.55,8.65,2.35,1.2,4.72,2.41,6.95,3.84.41.26,1.88-.46,1.67-.59h0Z"/>
  <path class="cls-7" d="M663.23,685.5c-8.02-3.2-16.04-6.39-24.06-9.59-1.12-.45-2.25-.9-3.37-1.34-.41-.16-2.01.49-1.45.71,8.02,3.2,16.04,6.39,24.06,9.59,1.12.45,2.25.9,3.37,1.34.41.16,2.01-.49,1.45-.71h0Z"/>
  <path class="cls-16" d="M757.98,597.4c-2.86-19.96-9.34-39.14-13.23-58.89-1.1-5.6-1.99-11.23-2.53-16.91-.08-.85-2.26-.35-2.17.58,1.92,20.09,8.19,39.35,12.6,58.96,1.25,5.57,2.35,11.18,3.16,16.84.12.86,2.31.34,2.17-.58h0Z"/>
  <path class="cls-2" d="M578.02,279.58c-9.96-3.84-25.91-10.03-25.91-10.03,0,0-6.48,26.26,16.61,35.16,23.09,8.9,33.2-16.84,33.2-16.84,0,0-13.93-4.46-23.89-8.3Z"/>
  <path class="cls-4" d="M578.12,279.61c-4.73-1.83-23.81-8.69-23.81-8.69,0,0,1.39,18.67,18.51,25.27,18.57,7.16,25.47-7.96,25.47-7.96l-20.17-8.62Z"/>
  <path class="cls-9" d="M577.99,280.57c-4.73-1.83-19.14-6.89-19.14-6.89,0,0,3.09,6.92,17.3,12.4,14.2,5.48,20.73,2.48,20.73,2.48l-18.9-7.98Z"/>
  <path class="cls-2" d="M602.86,287.11q-.45-.35-2.73-1.52c-3.81-1.94-4.84-4.19-7.61-5.57-4.73-2.35-8.75-1.19-10.89-2.02-2.13-.82-4.34-4.38-9.42-5.81-2.98-.84-10.95-.83-15.08-1.95-2.48-.67-4.3-1.09-4.87-1.13-.79-.06-2.01,3.54,24.8,13.88,26.81,10.34,26.43,4.6,25.8,4.11Z"/>
  <path class="cls-3" d="M733.68,678.18c1.35-.46,2.7-.93,4.05-1.39.67-.23,1.39-.41,2.04-.7.83-.37-.62-.21-.32-.07.56.26,1.38.3,1.98.42,1.24.27,2.48.53,3.72.8,7.1,1.52,14.2,3.04,21.29,4.55,1.88.4,3.75.8,5.63,1.2.48.1,1.2-.02,1.54-.41.29-.33.27-.74-.23-.85-5.09-1.09-10.18-2.18-15.27-3.27-5.73-1.22-11.46-2.69-17.24-3.68-1-.17-1.85.26-2.79.58-1.57.54-3.14,1.08-4.71,1.62-1.26.44-.98,1.64.32,1.2h0Z"/>
  <path class="cls-3" d="M729.22,620.78c4.53,3.52,9.06,7.05,13.6,10.57,2.54,1.98,5.08,3.95,7.63,5.93.41.32.83.74,1.29,1,.8.46,2.07.25,2.96.26,3.42.06,6.84.11,10.26.17.43,0,1.24-.14,1.43-.61s-.15-.71-.61-.71c-4.21-.07-8.41-.14-12.62-.21l.6.22c-6.57-5.11-13.13-10.21-19.7-15.32-.94-.73-1.87-1.46-2.81-2.19-.64-.5-2.67.37-2.01.88h0Z"/>
  <path class="cls-15" d="M687.22,557.32c-5.37,2.83-8.73,8.59-11.09,13.99-2.59,5.92-3.93,12.34-3.96,18.8,0,1.12,2.2.78,2.2-.17.02-6.03,1.18-12.02,3.49-17.59,2.12-5.11,5.23-11.09,10.31-13.77,1.31-.69.13-1.83-.96-1.25h0Z"/>
  <path class="cls-15" d="M385.94,567.43c-13.16-1.57-24.42,6.43-34.31,14-.4.3.36.31.5.3.48-.03,1.07-.21,1.46-.5,8.79-6.74,18.79-14.4,30.56-13,.49.06,1.08-.07,1.52-.29.14-.07.78-.45.28-.51h0Z"/>
  <path class="cls-7" d="M641.97,632.18c6.9.38,13.91.64,20.52-1.74.26-.09.69-.39.48-.7s-.92-.1-1.17-.01c-6.11,2.2-12.75,1.81-19.12,1.46-.67-.04-1.89.92-.7.99h0Z"/>
  <g>
    <rect class="cls-13" x="1104.23" y="65.3" width="162.81" height="134.15"/>
    <path class="cls-21" d="M1268.07,64.25c-47.52,0-95.05,0-142.57,0-6.75,0-13.49,0-20.24,0-.85,0-3.46.52-3.46,1.71,0,39.16,0,78.33,0,117.49,0,5.55,0,11.11,0,16.66,0,.48,1.17.41,1.4.41,47.52,0,95.05,0,142.57,0,6.75,0,13.49,0,20.24,0,.85,0,3.46-.52,3.46-1.71,0-39.16,0-78.33,0-117.49,0-5.55,0-11.11,0-16.66,0-.92-4.85-.2-4.85,1.3,0,39.16,0,78.33,0,117.49,0,5.55,0,11.11,0,16.66l3.46-1.71c-47.52,0-95.05,0-142.57,0-6.75,0-13.49,0-20.24,0l1.4.41c0-39.16,0-78.33,0-117.49,0-5.55,0-11.11,0-16.66-1.15.57-2.3,1.14-3.46,1.71,47.52,0,95.05,0,142.57,0,6.75,0,13.49,0,20.24,0,1.42,0,5.27-2.11,2.06-2.11Z"/>
  </g>
  <rect class="cls-17" x="1142.89" y="91.28" width="84.88" height="85.16" transform="translate(2370.66 267.73) rotate(-180)"/>
  <path class="cls-26" d="M1228.08,118.7c-4.35.19-8.64.97-12.49,2.35-10.42,3.72-17.28,11.3-28.31,14.09-8.41,2.13-18.02,1.06-26.13-1.54-6.57-2.1-12.36-5.13-17.94-8.3v-36.56h84.88v29.96Z"/>
  <g>
    <rect class="cls-13" x="912.41" y="65.3" width="162.81" height="134.15"/>
    <path class="cls-21" d="M911.44,200.74c47.52,0,95.05,0,142.57,0,6.75,0,13.49,0,20.24,0,1.09,0,3.39-.52,3.39-1.93,0-39.16,0-78.33,0-117.49,0-5.55,0-11.11,0-16.66,0-.56-1.13-.63-1.46-.63-47.52,0-95.05,0-142.57,0-6.75,0-13.49,0-20.24,0-1.09,0-3.39.52-3.39,1.93,0,39.16,0,78.33,0,117.49,0,5.55,0,11.11,0,16.66,0,1.33,4.85.48,4.85-1.3,0-39.16,0-78.33,0-117.49,0-5.55,0-11.11,0-16.66-1.13.64-2.26,1.29-3.39,1.93,47.52,0,95.05,0,142.57,0,6.75,0,13.49,0,20.24,0l-1.46-.63c0,39.16,0,78.33,0,117.49,0,5.55,0,11.11,0,16.66,1.13-.64,2.26-1.29,3.39-1.93-47.52,0-95.05,0-142.57,0-6.75,0-13.49,0-20.24,0-1.71,0-5.19,2.57-1.94,2.57Z"/>
  </g>
  <rect class="cls-17" x="951.69" y="88.32" width="84.88" height="85.16"/>
  <path class="cls-26" d="M951.38,146.05c4.35-.19,8.64-.97,12.49-2.35,10.42-3.72,17.28-11.3,28.31-14.09,8.41-2.13,18.02-1.06,26.13,1.54,6.57,2.1,12.36,5.13,17.94,8.3v36.56h-84.88v-29.96Z"/>
</svg>