<?xml version="1.0" encoding="UTF-8"?>
<svg xmlns="http://www.w3.org/2000/svg" xmlns:xlink="http://www.w3.org/1999/xlink" viewBox="0 0 1334 1000">
  <defs>
    <style>
      .cls-1, .cls-2, .cls-3, .cls-4 {
        fill: none;
      }

      .cls-5 {
        fill: #542c23;
      }

      .cls-6 {
        fill: #a9aaaa;
      }

      .cls-7 {
        fill: #5f3528;
      }

      .cls-8 {
        fill: #1d3942;
      }

      .cls-9 {
        fill: #85664e;
      }

      .cls-10 {
        fill: #f6d809;
      }

      .cls-11 {
        fill: #0f3a53;
      }

      .cls-12 {
        fill: #606262;
      }

      .cls-13 {
        fill: #716127;
      }

      .cls-14 {
        fill: #11172d;
      }

      .cls-15 {
        fill: #4d4c4d;
      }

      .cls-16 {
        fill: #5a1a13;
      }

      .cls-17 {
        fill: #0d1a28;
      }

      .cls-18 {
        stroke: #241f20;
      }

      .cls-18, .cls-2, .cls-19, .cls-20, .cls-21, .cls-3, .cls-4 {
        stroke-miterlimit: 10;
      }

      .cls-18, .cls-22 {
        fill: #fff;
      }

      .cls-23 {
        fill: #24170e;
      }

      .cls-24 {
        fill: #4f2f25;
      }

      .cls-25 {
        fill: #273239;
      }

      .cls-26 {
        fill: #a28067;
      }

      .cls-2 {
        stroke: #4f2f25;
      }

      .cls-27 {
        fill: #a66e53;
      }

      .cls-28 {
        fill: #efecf5;
      }

      .cls-29 {
        fill: #5a6a86;
      }

      .cls-30 {
        fill: #cbb630;
      }

      .cls-31 {
        fill: #dfd2b4;
      }

      .cls-32 {
        fill: #f09923;
      }

      .cls-33 {
        clip-path: url(#clippath-1);
      }

      .cls-34 {
        fill: url(#linear-gradient);
        opacity: .5;
      }

      .cls-35 {
        fill: #ba9679;
      }

      .cls-36 {
        fill: #008bcb;
      }

      .cls-19 {
        stroke-width: .13px;
      }

      .cls-19, .cls-20, .cls-3, .cls-4 {
        stroke: #000;
      }

      .cls-20 {
        stroke-width: .12px;
      }

      .cls-37 {
        fill: #622715;
      }

      .cls-38 {
        fill: #87782e;
      }

      .cls-21 {
        stroke: #171413;
        stroke-width: .13px;
      }

      .cls-39 {
        fill: #643b29;
      }

      .cls-40 {
        fill: #a43b24;
      }

      .cls-41 {
        fill: #7e7e7e;
      }

      .cls-3 {
        stroke-width: .67px;
      }

      .cls-42 {
        fill: #c5cc8a;
      }

      .cls-4 {
        stroke-width: .29px;
      }

      .cls-43 {
        fill: #a72d23;
      }

      .cls-44 {
        fill: #dc8828;
      }

      .cls-45 {
        fill: #a57351;
      }

      .cls-46 {
        fill: #5e605f;
      }

      .cls-47 {
        fill: #381b11;
      }

      .cls-48 {
        fill: #513935;
      }

      .cls-49 {
        fill: #4e5969;
      }

      .cls-50 {
        fill: #636464;
      }

      .cls-51 {
        fill: #343535;
      }

      .cls-52 {
        fill: #b05f28;
      }

      .cls-53 {
        fill: #efe8cf;
      }

      .cls-54 {
        fill: #221e1f;
      }

      .cls-55 {
        clip-path: url(#clippath);
      }

      .cls-56 {
        fill: #7b7b7b;
      }
    </style>
    <linearGradient id="linear-gradient" x1="2877.13" y1="-525.31" x2="3933.18" y2="-525.31" gradientTransform="translate(1191.45 -2912.49) rotate(90) scale(1 -1)" gradientUnits="userSpaceOnUse">
      <stop offset="0" stop-color="#ede8de"/>
      <stop offset=".18" stop-color="#ebe5db" stop-opacity=".99"/>
      <stop offset=".33" stop-color="#e5ded2" stop-opacity=".97"/>
      <stop offset=".47" stop-color="#dbd1c3" stop-opacity=".93"/>
      <stop offset=".6" stop-color="#cdbfae" stop-opacity=".88"/>
      <stop offset=".72" stop-color="#bba993" stop-opacity=".81"/>
      <stop offset=".84" stop-color="#a58d71" stop-opacity=".73"/>
      <stop offset=".96" stop-color="#8b6c4a" stop-opacity=".64"/>
      <stop offset="1" stop-color="#82603c" stop-opacity=".6"/>
    </linearGradient>
    <clipPath id="clippath">
      <polygon class="cls-1" points="1163.16 1039.64 1315.21 1039.64 1315.21 66.62 1165.11 66.62 1163.16 1039.64"/>
    </clipPath>
    <clipPath id="clippath-1">
      <ellipse class="cls-1" cx="169.13" cy="156.06" rx="149.48" ry="139.44"/>
    </clipPath>
  </defs>
  <g id="Layer_3" data-name="Layer 3">
    <polyline class="cls-53" points="1359.66 1089.82 1359.66 -55.91 -47.38 -55.91 -47.38 1089.82"/>
    <polyline class="cls-34" points="1369.66 1017.21 -37.38 1017.21 -37.38 -38.84 1369.66 -38.84"/>
    <g id="freepik--Nightstand--inject-2">
      <rect class="cls-7" x="-4.96" y="660.9" width="546.79" height="409.88"/>
    </g>
    <path d="M19.52,813.8c1.15,0,2.29,0,3.44,0h9.86c5.17,0,10.35,0,15.52,0,6.84,0,13.68,0,20.51,0,8.3,0,16.61,0,24.91,0,9.48,0,18.96,0,28.45,0h31.49c11.21,0,22.41,0,33.62,0s23.44,0,35.16,0,24.1,0,36.14,0,24.21,0,36.31,0c11.89,0,23.77,0,35.66,0,11.48,0,22.97,0,34.45,0h32.65c10.01,0,20.03,0,30.04,0,8.88,0,17.77,0,26.65,0h22.68c6.01,0,12.01,0,18.02,0h12.7c2.21,0,4.41,0,6.62,0h.81c.54,0,1.52-.47,1.52-1.12,0-4.25,0-8.49,0-12.74,0-10.15,0-20.31,0-30.46,0-12.28,0-24.56,0-36.83,0-10.65,0-21.3,0-31.95,0-3.51,0-7.01,0-10.52,0-1.64.09-3.32,0-4.96,0-.07,0-.15,0-.22,0-.72-.67-.91-1.28-.91-1.15,0-2.29,0-3.44,0h-9.86c-5.17,0-10.35,0-15.52,0-6.84,0-13.68,0-20.51,0-8.3,0-16.61,0-24.91,0h-28.45c-10.5,0-20.99,0-31.49,0h-33.62c-11.72,0-23.44,0-35.16,0-12.05,0-24.1,0-36.14,0s-24.21,0-36.31,0-23.77,0-35.66,0-22.97,0-34.45,0c-10.88,0-21.77,0-32.65,0-10.01,0-20.03,0-30.04,0-8.88,0-17.77,0-26.65,0h-22.68c-6.01,0-12.01,0-18.02,0h-12.7c-2.21,0-4.41,0-6.62,0h-.81c-.54,0-1.52.47-1.52,1.12,0,4.25,0,8.49,0,12.74,0,10.15,0,20.31,0,30.46,0,12.28,0,24.56,0,36.83,0,10.65,0,21.3,0,31.95,0,3.51,0,7.01,0,10.52,0,1.64-.09,3.32,0,4.96,0,.07,0,.15,0,.22,0,1.45,2.8,1.04,2.8-.21,0-4.25,0-8.49,0-12.74,0-10.15,0-20.31,0-30.46,0-12.28,0-24.56,0-36.83,0-10.65,0-21.3,0-31.95,0-3.51,0-7.01,0-10.52,0-1.58.24-3.39,0-4.96-.01-.07,0-.15,0-.22l-1.52,1.12c1.15,0,2.29,0,3.44,0h9.86c5.17,0,10.35,0,15.52,0,6.84,0,13.68,0,20.51,0,8.3,0,16.61,0,24.91,0,9.48,0,18.96,0,28.45,0,10.5,0,20.99,0,31.49,0h33.62c11.72,0,23.44,0,35.16,0,12.05,0,24.1,0,36.14,0s24.21,0,36.31,0,23.77,0,35.66,0,22.97,0,34.45,0c10.88,0,21.77,0,32.65,0,10.01,0,20.03,0,30.04,0h26.65c7.56,0,15.12,0,22.68,0h18.02c4.23,0,8.47,0,12.7,0h6.62c.27,0,.54,0,.81,0l-1.28-.91c0,4.25,0,8.49,0,12.74,0,10.15,0,20.31,0,30.46v36.83c0,10.65,0,21.3,0,31.95,0,3.51,0,7.01,0,10.52,0,1.58-.24,3.39,0,4.96.01.07,0,.15,0,.22l1.52-1.12c-1.15,0-2.29,0-3.44,0h-9.86c-5.17,0-10.35,0-15.52,0h-20.51c-8.3,0-16.61,0-24.91,0h-28.45c-10.5,0-20.99,0-31.49,0-11.21,0-22.41,0-33.62,0-11.72,0-23.44,0-35.16,0s-24.1,0-36.14,0c-12.1,0-24.21,0-36.31,0h-35.66c-11.48,0-22.97,0-34.45,0h-32.65c-10.01,0-20.03,0-30.04,0h-26.65c-7.56,0-15.12,0-22.68,0-6.01,0-12.01,0-18.02,0h-12.7c-2.21,0-4.41,0-6.62,0h-.81c-1.58,0-2.12,2.03-.24,2.03Z"/>
    <path d="M19.51,1030.76c1.15,0,2.29,0,3.44,0h9.86c5.17,0,10.35,0,15.52,0,6.84,0,13.68,0,20.51,0h24.91c9.48,0,18.96,0,28.45,0h31.49c11.21,0,22.41,0,33.62,0s23.44,0,35.16,0,24.1,0,36.14,0c12.1,0,24.21,0,36.31,0s23.77,0,35.66,0h34.45c10.88,0,21.77,0,32.65,0,10.01,0,20.03,0,30.04,0h26.65c7.56,0,15.12,0,22.68,0,6.01,0,12.01,0,18.02,0h12.7c2.21,0,4.41,0,6.62,0h.81c.58,0,1.63-.5,1.63-1.2,0-1.75,0-3.5,0-5.25,0-4.76,0-9.52,0-14.28,0-7.04,0-14.08,0-21.12,0-8.59,0-17.18,0-25.77,0-9.41,0-18.82,0-28.23,0-9.5,0-19,0-28.5,0-8.86,0-17.71,0-26.57,0-7.49,0-14.97,0-22.46,0-5.38,0-10.77,0-16.15,0-2.55.03-5.1,0-7.65,0-.11,0-.22,0-.33,0-.77-.72-.97-1.37-.97-1.15,0-2.29,0-3.44,0h-9.86c-5.17,0-10.35,0-15.52,0h-20.51c-8.3,0-16.61,0-24.91,0-9.48,0-18.96,0-28.45,0h-31.49c-11.21,0-22.41,0-33.62,0-11.72,0-23.44,0-35.16,0s-24.1,0-36.14,0-24.21,0-36.31,0-23.77,0-35.66,0-22.97,0-34.45,0c-10.88,0-21.77,0-32.65,0-10.01,0-20.03,0-30.04,0-8.88,0-17.77,0-26.65,0-7.56,0-15.12,0-22.68,0-6.01,0-12.01,0-18.02,0h-12.7c-2.21,0-4.41,0-6.62,0-.27,0-.54,0-.81,0-.58,0-1.63.5-1.63,1.2,0,1.75,0,3.5,0,5.25,0,4.76,0,9.52,0,14.28,0,7.04,0,14.08,0,21.12,0,8.59,0,17.18,0,25.77,0,9.41,0,18.82,0,28.23,0,9.5,0,19,0,28.5,0,8.86,0,17.71,0,26.57,0,7.49,0,14.97,0,22.46v16.15c0,2.55-.03,5.1,0,7.65,0,.11,0,.22,0,.33,0,1.55,3,1.11,3-.22,0-1.75,0-3.5,0-5.25,0-4.76,0-9.52,0-14.28,0-7.04,0-14.08,0-21.12,0-8.59,0-17.18,0-25.77,0-9.41,0-18.82,0-28.23,0-9.5,0-19,0-28.5,0-8.86,0-17.71,0-26.57,0-7.49,0-14.97,0-22.46v-16.15c0-2.5.25-5.15,0-7.65-.01-.11,0-.22,0-.33l-1.63,1.2c1.15,0,2.29,0,3.44,0h9.86c5.17,0,10.35,0,15.52,0h20.51c8.3,0,16.61,0,24.91,0h28.45c10.5,0,20.99,0,31.49,0,11.21,0,22.41,0,33.62,0,11.72,0,23.44,0,35.16,0s24.1,0,36.14,0c12.1,0,24.21,0,36.31,0s23.77,0,35.66,0,22.97,0,34.45,0h32.65c10.01,0,20.03,0,30.04,0,8.88,0,17.77,0,26.65,0,7.56,0,15.12,0,22.68,0,6.01,0,12.01,0,18.02,0h12.7c2.21,0,4.41,0,6.62,0,.27,0,.54,0,.81,0l-1.37-.97c0,1.75,0,3.5,0,5.25,0,4.76,0,9.52,0,14.28,0,7.04,0,14.08,0,21.12,0,8.59,0,17.18,0,25.77,0,9.41,0,18.82,0,28.23,0,9.5,0,19,0,28.5,0,8.86,0,17.71,0,26.57,0,7.49,0,14.97,0,22.46,0,5.38,0,10.77,0,16.15,0,2.5-.25,5.15,0,7.65.01.11,0,.22,0,.33l1.63-1.2c-1.15,0-2.29,0-3.44,0h-9.86c-5.17,0-10.35,0-15.52,0-6.84,0-13.68,0-20.51,0h-24.91c-9.48,0-18.96,0-28.45,0h-31.49c-11.21,0-22.41,0-33.62,0s-23.44,0-35.16,0-24.1,0-36.14,0c-12.1,0-24.21,0-36.31,0s-23.77,0-35.66,0h-34.45c-10.88,0-21.77,0-32.65,0-10.01,0-20.03,0-30.04,0h-26.65c-7.56,0-15.12,0-22.68,0-6.01,0-12.01,0-18.02,0h-12.7c-2.21,0-4.41,0-6.62,0h-.81c-1.69,0-2.27,2.17-.26,2.17Z"/>
    <g>
      <rect class="cls-22" x="61.92" y="541.05" width="101.58" height="118.12"/>
      <path class="cls-45" d="M163.69,539.16c-29.59,0-59.17,0-88.76,0-4.27,0-8.55,0-12.82,0-1.01,0-2.65.86-2.65,2.04,0,34.53,0,69.06,0,103.59,0,4.84,0,9.68,0,14.53,0,1.28,1.16,1.74,2.28,1.74,29.59,0,59.17,0,88.76,0,4.27,0,8.55,0,12.82,0,1.01,0,2.65-.86,2.65-2.04,0-34.53,0-69.06,0-103.59,0-4.84,0-9.68,0-14.53,0-2.66-4.93-2.04-4.93.31,0,34.53,0,69.06,0,103.59,0,4.84,0,9.68,0,14.53l2.65-2.04c-29.59,0-59.17,0-88.76,0-4.27,0-8.55,0-12.82,0l2.28,1.74c0-34.53,0-69.06,0-103.59,0-4.84,0-9.68,0-14.53l-2.65,2.04c29.59,0,59.17,0,88.76,0,4.27,0,8.55,0,12.82,0,2.85,0,3.65-3.78.37-3.78Z"/>
    </g>
    <rect class="cls-42" x="86.04" y="563.92" width="52.96" height="74.98" transform="translate(225.04 1202.83) rotate(-180)"/>
    <path class="cls-53" d="M139.19,588.07c-2.71.16-5.39.85-7.79,2.07-6.5,3.27-10.78,9.95-17.66,12.41-5.25,1.88-11.24.94-16.31-1.35-4.1-1.85-7.71-4.52-11.19-7.31v-32.19h52.96v26.38Z"/>
    <ellipse class="cls-41" cx="273.89" cy="755.1" rx="22.62" ry="16.97"/>
    <path class="cls-48" d="M319,832.06c.03.06.06.12.11.16.11-.12.21-.25.32-.37-.14.07-.29.14-.43.2Z"/>
    <ellipse class="cls-41" cx="273.89" cy="864.4" rx="22.62" ry="16.97"/>
  </g>
  <g id="Layer_4" data-name="Layer 4">
    <path class="cls-13" d="M614.76,430.64c2.92,5.92,3.8,12.46,3.17,19-.64,6.55-2.49,12.91-4.24,19.24-1.78,6.44-3.52,12.94-4.05,19.62-.54,6.95.42,13.91,3.34,20.28,1.94,4.23,4.62,8.1,7.69,11.59.9,1.03,1.84,2.02,2.81,2.99.54.54,1.08,1.06,1.63,1.58.31.29.81.58.97.95.42.97.45,2.3.66,3.34.15.75,3.06.06,2.9-.78-.2-1-.36-2.02-.59-3.01-.14-.6-.38-.76-.87-1.22-.99-.92-1.96-1.87-2.9-2.84-3.12-3.24-5.91-6.81-8.08-10.76-3.45-6.31-5.02-13.35-4.78-20.52.44-13.44,6.44-25.85,8.19-39.08.95-7.25.33-14.51-2.93-21.14-.4-.81-3.2.16-2.9.78h0Z"/>
    <path class="cls-51" d="M697.62,658.27l-.91,5.55c-.2,1.2-1.03,2.07-1.86,1.93-.82-.15-1.32-1.23-1.13-2.42l.91-5.55c-1.07-1-1.54-2.87-1.2-4.78.47-2.64,2.34-4.5,4.16-4.14,1.83.36,2.92,2.79,2.45,5.44-.28,1.77-1.2,3.3-2.42,3.98Z"/>
    <path class="cls-46" d="M794.08,221.86c-3.16-6.33-8.87-11.1-15.81-10.33,2.29-12.99-9.15-22.61-22.12-24.98-6.71-.92-14.05,1.05-20.03-2.14-3.73-1.98-6.23-5.53-9.2-8.62-12.5-12.63-36.52-3.89-50.46,7.14-13.94,11.02-13.18,25.83-9.6,43.22,1.66,8.09.57,12.18.18,20.49-.37,7.84,2.1,22.88,1.01,30.56-1.09,7.67-14.29,13.85-6.65,15.64l85.66,3.01c12.12,4.39,20.69,1.83,28.78-8.21,5.32-6.85,3.98-7.4,5.84-15.85,2.71-11,15.34-17.65,16.39-28.94.88-7.06-1.2-14.44-3.98-20.99Z"/>
    <path class="cls-40" d="M804.6,223s-26.88-18.89-65.05-20.5c-38.17-1.61-60.03,18.58-69.12,34.07-9.09,15.49-4.76,33.9-4.76,33.9,0,0-9.77,1.1-10.82-33.63-1.53-50.63,53.34-72.59,65.45-70.56,12.11,2.03,76.1-.99,84.3,56.72Z"/>
    <path class="cls-27" d="M759.45,301.62s-3.17,29.89,1.65,51.82c.67,3.06,17.12,18.92,17.12,18.92l-28.18,2.95c-15.76,1.21-56.94,10.26-70.85,2.76l-3.36-12.97s15.51-12.61,16.8-16.07c1.29-3.45,2.62-30.9,2.62-30.9"/>
    <path class="cls-38" d="M649.51,1074.71l-42.68-352.12,12.43-98.24,198.33-7.58,30.26,92.89-27.97,362.8s-28.9,15.79-83.74,15.04c-68.32-.93-86.62-12.79-86.62-12.79Z"/>
    <path class="cls-30" d="M602.59,748.75c39.44,8.52,78.52,18.5,119.15,20.8,20.67,1.17,41.42.86,62.05-.93,5.5-.48,58.3-5.91,59.76-9.45,14.29-34.66,21.62-76.39,20.47-116.51-.93-32.68-33.38-109.84-33.38-109.84l-10.04-160.09-58.89-25.36s-21.73,32.21-56.24,33.19c-.02,0-6.58-.19-6.6-.2-26.64-7.47-16.05-20.58-14.53-23.21l-36.19,19.91-29.21,64.38-11.58,40.49c-.91,28.29,7.38,36.46,10.62,54.2l-4.4,26.76-4.81,12.77s-1.21.52-6.96,39.59c-5.74,39.07.77,133.49.77,133.49Z"/>
    <path class="cls-30" d="M684.44,357.77s-53.57,16.08-61.26,32.12c-11.68,24.37-15.58,48.09-15.58,48.09l27.77,21,49.07-101.22Z"/>
    <path class="cls-24" d="M693.38,344.03s6.43-.11,10.93-.69c4.5-.58,11.87.76,34.35-13.61,0,0-8.97,20.4-35.09,21.22,0,0-6.78.41-10.95-1.27l.76-5.65Z"/>
    <path class="cls-27" d="M690.01,211.26c-.09.14-.2.29-.32.42.1-.06.21-.12.31-.18v-.24ZM678.29,213.25v.2c.18-.14.37-.27.54-.41.01-.24-.54.21-.54.21ZM757.68,308.65l1.66-3.92c4.64,7.7,13.98,2.85,15.45-7.35,3.27-4.86,8.64-21.56,4.93-27.24l-.44-.82c-2.75-2.58-7.94-4.08-10.53-.35-.89,1.64-.48,3.84-1.37,5.49-.9,1.89-2.22-3.2-3.63-1.59,0,0-2.53-1.42-2.01-5.99.52-4.57,13.33-37.28,5.55-44.25,0,0-14.03,3.11-17.43-1.92l-1.29-.56c-.79-.04-1.33.17-2.12.12.01-.24.29-.47.32-.95-1.34.41-2.38.11-3.43.05.28-.23.82-.44.83-.68-1.06.18-2.1-.12-3.16-.18.28-.23.83-.68.84-.92-1.34.41-2.1-.12-3.15-.18.28-.23.57-.69.58-.94-1.08.42-2.12.12-3.17.06.28-.23.57-.69.84-.92-1.34.41-2.1-.12-3.15-.18-.26-.01.55-.45.57-.69-.8.2-1.85.14-2.64.09.01-.24.55-.45.57-.69-1.61.39-2.37-.13-3.42-.19l.84-.92c-1.09.66-2.14.6-3.18.3.27-.23.83-.68.84-.92-1.35.65-2.94.8-4.23.24.26.01.83-.68.84-.92-1.37.89-2.4.59-3.72.52.28-.23.57-.69,1.12-1.15-1.63.88-3.5,1.25-5.04.44.26.01.57-.69.58-.93-1.11.9.94-.19-.37-.51,0,0-3.08.8-3.07.55-1.09.66,3-3.94,1.69-4.01.29-.47-7.57.02-7.01-.43-1.37.89-1.07.41-2.64.08,0,0-5.62,2.58-5.35,2.35-1.38,1.13-1.92.09-3.48-.25.27-.23.89,1.06,1.17.84-1.11.91-.69-.28-2.01-.35.01-.24-4.21-1.81-4.2-2.05-1.36.65-.93.78-2.51.69.01-.24-1.14,2.6-.86,2.38-1.11.91-1.01.12-2.31-.2l-1.35.82c-1.38,1.13.45.71-1.11.38,0-.17,5.89,1.09,6.15.79-1.03.6-2.26,1.15-3.47,1.3.01-.24.31-.71.32-.95-1.11.91-2.73,1.54-4.29,1.21.26.01.55-.45.57-.69-1.38,1.13-3,1.77-4.54.95v-.04c-1.06.74-2.43,1.39-3.77,1.52.04-.72.58-.94.58-.94l-1.05-.06c-1.42,1.86-4.67.38-5.33,2.76,0,0-8.15,16.39-8.39,25.33-.24,8.94.51,24.25.56,28.13.04,3.36-.56,8.61-1.16,12.06-1.35,7.73-1.5,9.78-.02,17.7,1.44,7.66,3.09,11.81,7.03,18.57,4.1,7.04,7.81,10.24,11.5,17.78,3.65,7.46,9.15,8.46,14.97,9.07,16.24,1.69,37.51-7.8,48.5-17.69"/>
    <g>
      <path d="M690.11,298.67c1.88,1.12,4.85,1.05,6.87-.04.45-.24,1.88.1,1.25.44-2.67,1.44-6.92,1.35-9.34-.1-.24-.14-.19-.33.13-.42.33-.09.84-.04,1.1.11"/>
      <path d="M699.1,298.56c1.34-.54,2.82-.78,4.28-.81.21,0,.49.09.63.24.12.12.13.26-.03.35-.69.35-1.56.46-2.35.4-.25-.02-.57-.1-.7-.32-.12-.2.13-.32.32-.3.65.05,1.32-.04,1.89-.33.2.2.4.39.61.59-1.31.03-2.63.25-3.82.74-.24.1-.57,0-.77-.13-.15-.1-.3-.32-.07-.42"/>
      <path d="M704.88,299.07c1.71.05,3.75-.57,4.66-1.8,1.37-1.86.37-4.97-1.69-6.33-.22-.15-.09-.31.15-.35.31-.05.66.09.9.24,1.79,1.18,2.85,3.75,2.47,5.55-.36,1.67-2.05,2.76-4.12,3.14-.62.11-1.27.17-1.91.15-.26,0-.72-.11-.83-.32-.12-.21.13-.29.37-.28"/>
      <path d="M687.04,297.63c.1-.19-.06-.33-.2-.33-.46-.01-.92-.17-1.3-.51-.16.17-.32.35-.48.52.92.15,1.82.51,2.62,1.1.16.12.4.06.55-.05.11-.09.24-.29.09-.41"/>
      <path d="M688.31,297.95c-.89-.66-1.9-1.05-2.93-1.22-.15-.02-.35.04-.47.18-.09.1-.12.25-.01.35"/>
      <path d="M683.48,297.66c-1.11-.11-2.37-.92-2.84-2.22-.71-1.97.18-4.22,1.64-5.37.16-.13.09-.3-.06-.36-.2-.08-.44.02-.6.15-1.27,1.01-2.15,2.7-2.07,4.52.07,1.7,1.07,2.94,2.37,3.5.39.17.8.29,1.21.33.17.01.47-.04.57-.24.09-.2-.05-.3-.21-.31"/>
    </g>
    <path d="M674.1,264.06c-1.42-.84-3.33-.33-4.34.46-.24.19-.7.77-1.03,1.71-.43,1.21-.02,2.62.7,3.51.96,1.19,2.66,1.48,4.01.94,1.83-.73,2.53-2.84,2.18-4.43-.07-.29-.38-1.51-1.52-2.19"/>
    <path d="M686.86,269.67s-6.79-5.99-10.4-6.56c-5.27-.83-11.97,1.74-13.99,4.26,0,0,8.89-3.9,12.59-3.21,3.53.66,11.8,5.51,11.8,5.51Z"/>
    <path d="M718.3,267.11c1.5-.67,3.84-.33,4.74.57.21.21.79.81,1.01,1.79.29,1.25-.28,2.61-1.09,3.41-1.09,1.07-2.81,1.17-4.09.48-1.74-.93-2.19-3.11-1.66-4.65.1-.28-.16-.85,1.05-1.39"/>
    <path d="M708.86,270.49s8.31-4.65,12.26-4.54c5.77.16,12.45,3.92,14.16,6.78,0,0-8.78-5.48-12.85-5.48-3.89,0-13.57,3.24-13.57,3.24Z"/>
    <path class="cls-6" d="M684.28,243.85c.38,1.01.76,2.02,1.14,3.03.29.77.57,1.54.86,2.31-3.1.44-5.69.94-7.64,1.37-4.12.89-6.22,1.37-8.35,2.57-2.24,1.26-3.95,2.83-4.61,3.44-.93.86-1.57,1.43-2.23,2.34-1.44,1.98-1.69,3.69-2.05,3.68-.33,0-.33-1.42-.33-1.57.02-3.57,1.99-6.44,2.14-6.66,0,0,1.47-2.2,4.43-4.18,2.04-1.36,8.09-4.09,16.65-6.33"/>
    <path class="cls-6" d="M704.15,245.22c-.27,1.04-.53,2.09-.79,3.14-.2.8-.4,1.6-.59,2.39,3.7.25,6.83.6,9.18.9,4.97.65,7.51.99,10.22,2.08,2.84,1.14,5.12,2.61,6.01,3.19,1.24.82,2.08,1.35,3.02,2.23,2.04,1.91,2.63,3.62,3.05,3.6.38-.02.13-1.46.11-1.6-.65-3.61-3.47-6.39-3.68-6.61,0,0-2.11-2.13-5.92-3.95-2.63-1.25-10.19-3.64-20.6-5.37"/>
    <path class="cls-3" d="M764.48,287.63c7.42-12.92,11.54-12.52,11.54-12.52,0,0,2.39,3.49.26,9.64"/>
    <path class="cls-3" d="M766.46,289.12c3.72.08.07,6.62.9,8.36.82,1.74,2.69-2.4,3.76-7.54,0,0,.84-7.01-2.48-8.71"/>
    <path class="cls-24" d="M677.76,232.5s11.04,2.83,20.13,4.18c9.09,1.35,18.63-2.05,18.63-2.05,0,0-11.15,1.91-18.35.88-7.2-1.03-20.42-3.01-20.42-3.01Z"/>
    <path class="cls-6" d="M675.08,206.87c.14-.15-.06.06,0,0,2.7-2.88,4.59-6.08,7.41-8.83,2.76-2.7,5.43-5.12,8.34-7.66.17-.15,3.16.17,3.33.03.03-.03.15-.12.18-.16.09-.08.19-.16.28-.24.22-.18.43-.36.65-.54,14.97-4.24,32.16-2.79,46.92,4.03,28.67,13.26,41.16,47.24,27.91,75.91-1.13,2.46-.03,5.77-2.73,6.87-2.71,1.1-2.91.35-5.06-1.63-2.02-2.11-3.53-4.66-4.41-7.45-4.82-13.25-3.71-33.14,1.08-46.39-2.01,2.35-13.17-1.9-15.96-.56-11.03,5.28-24.26.61-29.54-10.42-1.25,1.38-2.61,2.65-4.07,3.8-13.34,10.56-29.38,14.38-40.94,4.06-.42-.38,4.93-8.99,6.61-10.82Z"/>
    <path class="cls-25" d="M767.95,273.89l.11-3.03-33.69-8.07h0c-10.68-5.03-26.25-2.89-35.54,2.39l-7.89-.07.08-.12c-8.77-7.44-23.93-9.42-35.92-4.7l.24,1.27h0c0,.08.07.27.11.53l.22,1.11c1.34,7.05,2.95,14.53,4.76,16.58,1.21,1.38,5.41,2.27,8.88,2.77,1.31.2,2.51.33,3.38.43,1.04.1,10.27,1.02,11.9-.35,1.63-1.37,4.91-12.13,5.87-15.53l8.09.11c.87,2.74,2.28,14.42,6.07,17,3.8,2.58,24.01,2.9,26.04.16,1.44-1.96,4.83-9.27,6.04-12.99l1.97-4.77,29.28,7.29ZM683.72,281.46c-1.77,1.3-20.15-.31-22.25-2.7-1.77-2.02-3.69-12.08-4.41-15.86v-.15c10.68-3.63,24.34-1.86,31.98,4.44-1.77,5.87-4.3,13.39-5.32,14.24v.03ZM728.33,283.37c-1.27,1.73-18.98,2.24-22.9-.43-2.72-1.84-3.89-10.39-4.94-15.3,9.06-4.99,26.25-6.28,35.7-1.16-2.11,5.85-4.74,11.5-7.86,16.88h0Z"/>
    <path class="cls-37" d="M784.09,277.17s31.32-16.52,23.65-40.17c-1.47-4.54-1.9-3.18-1.5-6.86,2.1-19.31,8.18-13.77-16.77-40.27-24.95-26.5-29.14-26.7-72.57-29.64-22.4-1.51-35.86,6.02-43.92,19.2-3.62,5.92-6.16,12.99-7.92,20.89,0,0,47.13-6.45,72.03,11.95,24.89,18.39,46.45,69.78,38.52,84.14-2.23,4.03,8.48-19.23,8.48-19.23Z"/>
    <path class="cls-40" d="M804.58,258.64s-30.44-61.48-81.43-70.51c0,0,64.25,2.27,85.8,51.47l-.34,5.37c-.21,3.34-1,6.63-2.33,9.7l-1.71,3.96Z"/>
    <path class="cls-24" d="M698.73,251.09c-1.66.19-3.07-1.62-3.4-3.06-.47-2.05.55-4.12,1.8-5.69.23-.29-.8-.19-.86-.18-.43.08-.99.22-1.28.57-1.35,1.69-2.45,4.05-1.73,6.24.64,1.95,2.48,3.17,4.52,2.94.45-.05,1.13-.16,1.46-.51s-.29-.34-.5-.32h0Z"/>
    <path class="cls-23" d="M693.6,307.07c5.83-.03,18.72,4.03,21.32,6.63,0,0-5.72,8.43-19.23,8.49-13.52.06-16.7-8.32-16.7-8.32,0,0,7.19-6.77,14.62-6.8Z"/>
    <path class="cls-22" d="M709.41,310.83s-7.41-.61-13.31-.58c-5.9.03-13.29.71-13.29.71,0,0-.97-4.78,9.73-4.83,10.7-.05,16.87,4.71,16.87,4.71Z"/>
    <path class="cls-39" d="M693.93,319.9c6.33-1.07,13.6-6.69,20.99-6.19,0,0-2.85,12.68-18.74,12.76-15.89.07-17.2-12.59-17.2-12.59,7.38-.57,8.61,5.01,14.95,6.02Z"/>
    <path class="cls-39" d="M686.67,303.45c3.34-.3,5.46,1.15,6.91,1.15,1.45,0,3.56-1.48,6.9-1.21,3.13.25,16.4,9.04,14.92,10.2-1.47,1.15-11.76-5.3-21.81-5.25-10.05.05-13.62,6.56-15.11,5.42-1.49-1.14,5.05-10.02,8.18-10.3Z"/>
    <path class="cls-27" d="M681.57,331.48c-.21,4.89-9.58,15.4-9.58,15.4,0,0-.55,31.05-2.66,37.19-.52,1.52-10.78,5.09-13.38,9.07-7.92,12.15-7.46,13.92-7.46,13.92l-26.05-7.58,7.36-17.92.9-31.78,4.85-31.81,21.97-14.7c.17.1.32.21.47.34,1.32,1.14,1.35,3,.08,4.14l8.6-5.61c5.59,4.22-3.53,14.06-3.53,14.06l10.5-8.07c4.75,4.76-1.67,11.78-1.67,11.78l-11.04,12.77s-1.35,9.32-.8,12.49c.55,3.17.81,6.49.81,6.49l3.29-10.19,15.11-17.02s2.44,2.16,2.23,7.05Z"/>
    <path class="cls-24" d="M651.19,308.15c2.27-1.52,4.55-3.04,6.82-4.56l-1.08.1c1.41.93,1.73,2.62.51,3.86-.66.67.72.78,1.12.52,2.87-1.87,5.74-3.74,8.6-5.61l-1.08.1c4.4,3.49-.87,10.5-3.57,13.44-.62.67.7.84,1.12.52,3.5-2.69,7-5.38,10.5-8.07h-1.19c4.9,5.17-1.85,11.54-5.21,15.43-2.2,2.55-4.41,5.1-6.61,7.65-.36.42-.82.81-.97,1.34-.4,1.4-.4,3.06-.54,4.5-.24,2.32-.48,4.69-.33,7.03.16,2.49.72,4.96.92,7.45.06.72,1.38.17,1.52-.27.71-2.2,1.42-4.4,2.13-6.6.35-1.09.83-2.22,1.08-3.34.09-.39,0-.04-.02-.02.15-.16.29-.33.43-.49,3.65-4.12,7.31-8.23,10.96-12.35,1.22-1.38,2.45-2.76,3.67-4.14l-1.32.12c3.35,3.04,2.93,10.72-.69,13.42-.82.61.42,1.06.99.64,2.06-1.53,3.12-4.32,3.35-6.79.24-2.58-.2-6.05-2.26-7.92-.36-.33-1-.24-1.32.12-3.15,3.54-6.29,7.09-9.44,10.63l-4.96,5.58c-.3.34-.65.66-.85,1.07-.34.7-.5,1.56-.74,2.3-.85,2.63-1.7,5.26-2.55,7.89l1.52-.27c-.19-2.36-.65-4.69-.89-7.04-.21-2.08.03-4.24.23-6.31.16-1.68.59-3.46.6-5.15,0-.11.03-.23.05-.33-.06.32-.2.3-.03.13.29-.29.54-.62.8-.92,3.51-4.05,7.16-8.01,10.53-12.19,2.68-3.32,4.73-8.26,1.34-11.83-.3-.31-.87-.24-1.19,0-3.5,2.69-7,5.38-10.5,8.07l1.12.52c3.11-3.37,8.43-10.76,3.49-14.68-.29-.23-.81-.07-1.08.1-2.87,1.87-5.74,3.74-8.6,5.61l1.12.52c1.58-1.6,1.28-3.87-.59-5.1-.32-.21-.79-.09-1.08.1-2.27,1.52-4.55,3.04-6.82,4.56-.85.57.4,1.03.99.64h0Z"/>
    <path class="cls-24" d="M648.51,340.72c.3-3.36.66-6.72,1.07-10.07.13-1.1.1-2.48.44-3.55.23-.74,1.17-1.25,1.78-1.74,3.93-3.17,8.04-6.11,12.02-9.22.29-.22-.26-.24-.36-.24-.33-.02-.76.16-1.01.36-4.1,3.2-8.34,6.22-12.37,9.5-.57.47-1.37.89-1.55,1.6-.26,1.02-.27,2.2-.4,3.23-.43,3.51-.81,7.02-1.12,10.54-.02.19,1.47.04,1.51-.41h0Z"/>
    <path class="cls-24" d="M640.75,335.76c.25.18.04.02.07-.25.04-.32,0-.67.02-.99.04-1.06.13-2.13.21-3.19.15-1.87.34-3.73.53-5.6.12-1.19.26-2.39.39-3.58.07-.63.15-1.27.22-1.9.03-.2.05-.4.06-.6-.2.21-.22.24-.06.11.82-.88,2.07-1.57,3.01-2.31,2.51-1.96,5.01-3.91,7.53-5.85,1.33-1.02,2.61-2.11,3.88-3.21.55-.47,1.09-.94,1.65-1.41.18-.15.39-.29.56-.46.35-.36.5,0-.38-.05.69.03,1.56-.99.54-1.03-.67-.03-1.14.45-1.62.85-1,.84-1.98,1.7-2.98,2.55-2.13,1.8-4.42,3.38-6.59,5.13-2.13,1.71-4.27,3.41-6.45,5.07-.93.71-.74,1.9-.87,3.01-.22,1.95-.43,3.91-.63,5.86-.19,1.96-.38,3.93-.49,5.9-.04.61-.41,2.32.21,2.77.5.36,1.85-.34,1.18-.83h0Z"/>
    <path class="cls-30" d="M645.57,399.43c-8.1-2.13-18.71-5.89-26.05-9.69l-48.63,100.06c-4.25,4.49-14.98,46.49-11.37,59.49,1.37,4.92,5.12,11.15,9.66,13.9,5.12,3.1,9.44,4.16,15.5,4.85,12.5,1.42,21.05-3.89,28.99-12.28,9.07-9.58,9.71-22.05,14.5-33.92.42-1.03,3.07-13.34,3.47-14.37,7.84-30.26,16.47-83.1,21.97-106.26-2.7-.49-5.38-1.08-8.05-1.78Z"/>
    <path class="cls-38" d="M619.68,549.33c5.41-10.53,9.83-21.61,12.74-33.1.62-2.44,1.11-4.9,1.65-7.36.77-3.49,1.92-6.93,2.84-10.39,5.85-22.12,10.76-44.48,15.88-66.78,2.31-10.03,4.58-20.08,7.22-30.04.07-.27-.21-.43-.43-.48-2.69-.57-5.36-1.23-8-1.99-.72-.21-2.55.86-1.32,1.22,2.64.76,5.31,1.42,8,1.99l-.43-.48c-5.22,19.67-9.37,39.63-13.97,59.45-2.58,11.1-5.2,22.18-8.04,33.22-1.2,4.65-2.51,9.26-3.76,13.9-.47,1.72-.74,3.49-1.14,5.23-2.84,12.36-7.47,24.28-13.26,35.54-.49.94,1.69.74,2.03.07h0Z"/>
    <rect class="cls-35" x="899.07" y="61.58" width="23.42" height="944.11"/>
    <rect class="cls-35" x="899.07" y="43.25" width="439.61" height="23.37"/>
    <rect class="cls-35" x="1314.73" y="61.58" width="23.96" height="944.11"/>
    <polygon class="cls-26" points="1145.78 30.46 922.5 62.97 922.5 1005.99 1145.78 1041.17 1145.78 30.46"/>
    <rect class="cls-9" x="1145.78" y="30.43" width="23.52" height="1009.89"/>
    <g>
      <path class="cls-12" d="M1110.05,564.06h-37.72c-2.49,0-4.52,3.31-4.52,7.38h0c0,4.08,2.02,7.38,4.52,7.38h37.72c2.49,0,4.52-3.31,4.52-7.38h0c0-4.08-2.02-7.38-4.52-7.38Z"/>
      <path class="cls-12" d="M1106.02,580.03c-.02,2.24-.01,4.48-.01,6.72,0,9.33,0,18.65,0,27.98,0,5.81,0,11.61,0,17.42,0,7.68,3.96,13.9,8.85,13.9h.02c4.89,0,8.85-6.22,8.85-13.9v-95.79c0-7.68-3.96-13.9-8.85-13.9h-.02c-4.89,0-8.85,6.22-8.85,13.9v26.49c0-.42,5.18.33,5.6.48,1.75.59,3.65,1.87,4.35,4.67.39,1.54.42,3.26.28,4.9-.13,1.44-.4,2.88-.94,4.05-.97,2.09-2.69,3.03-4.33,3.24-.28.04-.55.05-.83.06-1.37.03-2.74-.23-4.11-.21ZM1111.27,615.68c-.04-2.59,1.27-4.74,2.93-4.8,1.65-.06,3.02,2,3.06,4.6.03,1.87-.66,3.59-1.74,4.37v5.43c0,1.17-.59,2.11-1.34,2.13-.75,0-1.36-.96-1.36-2.13v-5.43c-.97-.83-1.56-2.44-1.55-4.17Z"/>
    </g>
    <rect class="cls-12" x="1152.43" y="531.57" width="9.14" height="101.47" transform="translate(2314.01 1164.6) rotate(-180)"/>
    <path class="cls-51" d="M1112.82,619.85v5.43c0,1.18.61,2.13,1.36,2.13.74-.02,1.34-.97,1.34-2.13v-5.43c1.08-.78,1.76-2.5,1.74-4.37-.04-2.59-1.4-4.65-3.06-4.6-1.65.06-2.96,2.21-2.93,4.8-.01,1.73.58,3.33,1.55,4.17Z"/>
    <path class="cls-14" d="M1224.12,534.07c-.8-4.38-1.4-8.79-2-13.2-.84-6.2-1.62-12.4-2.38-18.61-.84-6.85-1.64-13.71-2.43-20.57-.73-6.36-1.45-12.71-2.16-19.07-.53-4.71-1.05-9.42-1.58-14.13-.05-.41-.09-.83-.14-1.24-.02-.15-.59-.03-.57.15.5,4.43.99,8.85,1.48,13.28.7,6.22,1.4,12.43,2.11,18.65.79,6.86,1.59,13.71,2.42,20.57.77,6.35,1.55,12.7,2.4,19.04.63,4.69,1.26,9.39,2.06,14.06.07.41.14.82.22,1.23.03.15.6.02.57-.15h0Z"/>
    <path class="cls-14" d="M1220.43,520.8c-4.03.57-8.14.27-12.06-.83-.12-.03-.29.02-.4.07-.05.03-.19.11-.07.15,4.03,1.13,8.27,1.41,12.42.82.06,0,.33-.07.33-.15,0-.1-.17-.06-.23-.05h0Z"/>
    <path class="cls-14" d="M1216.72,521.67c.46,3.75.92,7.51,1.39,11.26.02.18.59.05.57-.15-.46-3.75-.92-7.51-1.39-11.26-.02-.18-.59-.05-.57.15h0Z"/>
    <path class="cls-14" d="M1210.9,521.02c.3,3.66.59,7.32.89,10.97.02.22.59.09.57-.15-.3-3.66-.59-7.32-.89-10.97-.02-.22-.59-.09-.57.15h0Z"/>
    <path class="cls-8" d="M495.15,971.02c5.38-55.83,5.9-169.46,5.9-225.43l-1.27-137.89c-.53-3.15-1.08-6.29-1.56-9.43-4.18.76-3.08,1.36-7.35,1.76-13.94,1.29-28.03.58-41.84-1.46-28.57-4.22-55.79-14.05-81.88-25.06-10.33-4.36-20.53-8.96-30.7-13.61l-20.66,3.61s-27.12,64.44-26.06,113.49c.49,22.48,4.29,74.01,8.21,124.33,9.92,127.3,26.36,273.42,26.36,273.42,0,0,23.56,15.33,93.79,11.86,15.62-.77,67.29-9.39,67.29-9.39,4.46-21.27,7.66-84.18,9.78-106.2Z"/>
    <path class="cls-43" d="M509.33,481.34c-1.29,1.63-22.08,1.63-21.75,40.53.06,7.05,3.02,31.97,4.67,38.61-6.01,2.05-11.69,3.68-17.94,4.83-27.35,5.03-55.49,1.72-82.34-4.56-22.97-5.38-45.3-13.05-67.51-20.95l.63-1.56-10.9-196.24,44.83-21.12,3.94,3.77.47,4.17c8.33,9.98,18.77,15.58,32.25,15.63,3.95.01,8.09-.24,12.3-.79,11.73-1.55,26.78-8.59,32.05-17.79.2-.35,10.11,1.14,11.78,1.71,11.3,3.86,18.77,7.62,28.13,11.44,0,0,9.23,13.98,10.83,47.45"/>
    <path class="cls-27" d="M364.96,261.06s8.75,31.87,1.1,53.98c-1.07,3.08-12.27,8.74-12.27,8.74l4.57,5.46c5.64,6.75,12.99,11.93,21.36,14.65,9.79,3.19,20.23,4.18,30.55,2.72.95-.13,1.9-.28,2.84-.43,13.02-2.14,24.68-9.33,32.72-19.79l.4-.52s-13.9-3.88-14.82-7.61c-.92-3.73,1.05-32.29,1.05-32.29"/>
    <path class="cls-24" d="M430.94,311.72s-6.82-2.1-11.39-3.04c-4.58-.94-12.24-.13-34.19-16.61,0,0,7.63,21.62,34.36,24.48,0,0,6.92.94,11.33-.46l-.11-4.36Z"/>
    <path class="cls-27" d="M444.54,175.58c.1.07.2.14.3.21-.11-.15-.22-.3-.29-.46v.25ZM455.87,178.03c.16.16.35.31.53.47v-.21s-.53-.51-.53-.26ZM382.54,290.81c10.52,10.99,26.95,22.17,43.75,22.19,11.4.01,11.86-3.25,16.05-7.1,6.36-5.85,13.07-11.8,17.82-18.71,4.56-6.63,6.57-10.76,8.64-18.51,2.14-8.01,2.14-10.13,1.35-18.17-.35-3.59-.56-9.02-.26-12.46.34-3.97,2.3-19.62,2.74-28.81.44-9.19-8.77-23.61-8.77-23.61-.5-2.5-1.82-4.26-3.13-6.27l-1.08-.02s.54.26.52,1c-1.37-.24-2.73-1.01-3.76-1.85v.04c-1.64.72-3.25-.06-4.58-1.33,0,.25.26.75.53.76-1.63.22-3.24-.56-4.31-1.57,0,.25.26.75.25,1-1.23-.25-2.45-.91-3.46-1.6.24.33,6.37-.51,6.37-.33-1.63.22.22.79-1.11-.47l-1.33-.95c-1.36.22-1.32,1.04-2.39.03.27.25-.7-2.75-.7-2.5-1.63-.03-1.18-.13-2.52-.9,0,.25-4.46,1.53-4.46,1.78-1.35-.02-1.02,1.22-2.08.21.27.25,1-1.02,1.26-.77-1.63.22-2.26,1.25-3.59-.02.27.25-5.31-2.83-5.31-2.83-1.63.22-1.36.74-2.7-.28.53.51-7.49-.6-7.23-.1-1.35-.02,2.5,5.01,1.43,4.24,0,.25-3.1-.8-3.1-.8-1.36.22.65,1.51-.41.49,0,.25.25,1,.52,1-1.64.72-3.53.18-5.13-.84.53.51.8,1.01,1.06,1.26-1.36-.02-2.44.2-3.78-.82,0,.25.52,1,.79,1.01-1.36.47-2.98.19-4.32-.58,0,.25.53.76.79,1.01-1.08.23-2.17.21-3.24-.56l.79,1.01c-1.08-.02-1.9.46-3.52-.06,0,.25.53.51.53.76-.81-.02-1.9-.03-2.7-.3,0,.25.8.76.53.76-1.08-.02-1.9.46-3.25-.06.26.25.53.76.79,1.01-1.08-.02-2.17.21-3.25-.31,0,.25.26.75.52,1.01-1.08-.02-1.91.46-3.25-.06,0,.25.53.75.8,1.01-1.09-.02-2.17.21-3.25-.06,0,.25.53.51.8.76-1.08-.02-2.17.21-3.52-.31,0,.5.26.75.25,1-.81-.01-1.35-.27-2.16-.29l-1.36.47c-3.88,4.9-3.92,21.56-3.92,21.56-8.52,6.56-12.02,20.17-11.84,24.9.18,4.73-1.36,14.89-1.36,14.89-1.32-1.76-4.23-5.55-5.01-7.55-.78-1.76-.2-3.98-.98-5.74-2.36-4.02-7.8-2.88-10.83-.45l-.51.81c-4.25,5.54-.03,23.09,2.95,28.33.72,10.58,9.93,16.28,15.28,8.74l1.4,4.15"/>
    <path class="cls-52" d="M465.62,195.24c-6.3-14.6-22.99-22.93-57.16-27.73-34.17-4.8-61.16,7.24-61.16,7.24,16.82-48.76,66.54-46.24,77.63-46.04,11.09.2,67.56,44.47,48.09,84.79l-.99,3.82s-5.27-19.43-6.42-22.09Z"/>
    <path class="cls-52" d="M338.7,164.41s-3.55-30.8,19.08-40.71c30.22-13.23,71.21-18.57,85.29,13.27l-104.36,27.44Z"/>
    <path class="cls-44" d="M340.42,239.02c-2.44-2.55-1.64-9.64-3.72-12.49-10.88-14.91-7.06-29.25-2.65-37.73,1.92-3.69-.57-10.27-.33-13.54,1.24-17.1,3.22-17.6,28.99-34.71,20.98-13.93,43.43-12.87,56.42-11.94,20.8,1.49,29.95,2.96,36.97,17.86.91,1.94-.14,3.48.61,5.81,1.06,3.3,6.2,3.75,6.98,7.92,0,0-26.92,10.26-50.05,22.23-23.14,11.96-64.72,59.16-63.31,73.56.04.45-7.21-14.15-9.91-16.96Z"/>
    <path class="cls-52" d="M329.64,206.34s40.17-47.76,83.14-47.39c0,0-54.86-8.18-79.97,31.06l-.61,1.57c-1.6,4.15-2.46,8.54-2.53,12.99l-.03,1.77Z"/>
    <path class="cls-52" d="M457.29,152.85l-2.89-1.14c-6.73-2.65-13.8-4.31-21-4.94l-12.07-1.05s29.27-4.58,35.63,2.93l.33,4.2Z"/>
    <path d="M369.68,221.98l-1.88,24.15-8.31-10.83s7.25-9.55,10.19-13.32Z"/>
    <path class="cls-52" d="M355.18,210.71s-15.54,15.48-16.82,21.7l-1.65-5.88s4.79-11.21,18.48-15.82Z"/>
    <g>
      <path d="M438.3,263.28c-1.96,1.1-5.02.95-7.06-.23-.45-.26-1.93.05-1.3.42,2.71,1.56,7.08,1.58,9.61.16.25-.14.2-.34-.12-.43-.34-.1-.86-.06-1.13.09"/>
      <path d="M429.06,262.92c-1.36-.59-2.88-.88-4.38-.95-.22,0-.5.08-.66.23-.12.12-.15.27.02.36.7.38,1.59.51,2.4.47.26-.01.59-.09.73-.31.13-.21-.12-.33-.32-.32-.67.03-1.36-.08-1.94-.39-.21.2-.42.39-.64.59,1.34.06,2.7.33,3.91.86.24.11.58.02.79-.11.16-.1.32-.32.08-.43"/>
      <path d="M423.1,263.28c-1.76,0-3.85-.69-4.75-1.98-1.36-1.95-.24-5.13,1.91-6.46.23-.15.1-.32-.14-.36-.32-.06-.69.07-.93.22-1.88,1.16-3.04,3.78-2.7,5.64.32,1.73,2.04,2.9,4.15,3.34.63.13,1.3.21,1.96.21.27,0,.74-.1.87-.31.13-.21-.12-.3-.37-.3"/>
      <path d="M441.49,262.29c-.1-.2.07-.33.21-.34.47,0,.95-.15,1.35-.49.16.18.32.37.48.55-.95.13-1.89.47-2.72,1.06-.17.12-.41.05-.57-.07-.12-.09-.24-.31-.08-.43"/>
      <path d="M440.17,262.59c.93-.66,1.99-1.02,3.05-1.17.16-.02.36.06.48.2.09.11.12.26,0,.36"/>
      <path d="M445.15,262.42c1.14-.08,2.46-.88,2.98-2.21.79-2.01-.07-4.34-1.54-5.57-.16-.13-.08-.31.07-.37.2-.07.45.04.62.17,1.28,1.07,2.13,2.84,2,4.71-.12,1.74-1.18,2.99-2.53,3.54-.4.16-.83.28-1.26.31-.17.01-.49-.06-.58-.26-.09-.21.06-.3.23-.31"/>
    </g>
    <path d="M460.21,230.49c1.52-.75,3.44-.08,4.41.81.23.21.66.84.93,1.84.35,1.27-.18,2.69-.99,3.55-1.08,1.14-2.85,1.31-4.19.65-1.82-.89-2.38-3.11-1.89-4.71.09-.29.51-1.52,1.73-2.13"/>
    <path d="M444.96,235.51s7.42-5.63,11.17-5.93c5.47-.44,12.14,2.71,14.03,5.45,0,0-8.82-4.69-12.67-4.27-3.68.41-12.53,4.74-12.53,4.74Z"/>
    <path d="M410.58,229.64c-1.49-.81-3.91-.64-4.91.22-.24.2-.87.77-1.18,1.76-.39,1.26.08,2.7.86,3.58,1.04,1.18,2.8,1.41,4.16.81,1.85-.82,2.49-3.02,2.06-4.64-.08-.3.23-.86-.97-1.51"/>
    <path d="M419.66,234.34s-8.17-5.41-12.23-5.6c-5.93-.28-13.07,3.06-15.05,5.86,0,0,9.43-4.95,13.6-4.63s13.68,4.37,13.68,4.37Z"/>
    <path d="M471.44,220.97c-.01-.37.01-.73.04-1.1,0-.27.07-.53.2-.76-1.87-1.69-3.73-2.42-3.92-2.5,0,0-2.44-1-5.81-.85-2.32.1-8.38,1.57-15.93,5.09.36,1.13.73,2.27,1.1,3.41.28.87.56,1.73.85,2.59,2.49-1.6,4.67-2.82,6.34-3.7,3.51-1.85,5.32-2.78,7.6-3.09,2.4-.32,4.62-.03,5.48.08,1.21.17,2.02.26,3.07.64.36.13.69.28,1,.43,0-.08-.02-.16-.03-.25Z"/>
    <path d="M421.32,220.23c-.34,1.05-.68,2.11-1.03,3.17-.26.8-.53,1.61-.79,2.41-3.3-1.79-6.18-3.19-8.36-4.2-4.61-2.14-6.98-3.22-9.89-3.74-3.05-.55-5.81-.5-6.89-.48-1.51.04-2.52.04-3.8.3-2.79.56-4.22,1.73-4.57,1.48-.32-.23.68-1.34.78-1.46,2.52-2.8,6.45-3.68,6.75-3.76,0,0,2.97-.71,7.22-.23,2.93.33,10.71,2.37,20.57,6.51"/>
    <path class="cls-43" d="M490.28,521.87s6.43,65.19,12.24,79.3c0,0-69.37,25.49-137.95,17.46-68.58-8.03-62.56-14.66-62.56-14.66l22.71-66.91,1.26-29.24,149.03,7.74"/>
    <path class="cls-16" d="M312.64,354.63c6.83,1.65,11.02,7.82,13.52,13.98,3.09,7.61,4.46,16.06,5.31,24.18,1.91,18.25-.08,36.67-3.3,54.65-1.82,10.19-4.06,20.29-6.33,30.38-.21.95,1.99.65,2.19-.21,4.13-18.37,8.2-36.84,9.74-55.63.76-9.2.89-18.47.07-27.67-.75-8.48-2.09-17.28-5.12-25.28-2.62-6.93-7.16-13.89-14.79-15.74-.49-.12-1.2,0-1.54.41-.29.35-.26.81.25.93h0Z"/>
    <path class="cls-47" d="M426.81,226.69c1.49.42,3.15-.25,4.18-1.34.93-.97,1.45-2.26,1.61-3.58.32-2.58-.61-5.26-2.56-7-.37-.33-1.02-.21-1.44-.03-.24.1-.95.55-.58.89,1.55,1.38,2.44,3.39,2.46,5.47,0,.99-.18,2.06-.62,2.95-.24.47-.56.93-.98,1.27-.3.24-.38.28-.75.17-.48-.14-1.18.07-1.54.41s-.23.66.21.79h0Z"/>
    <path class="cls-23" d="M434.62,274.66c-5.54.07-17.72,4.14-20.15,6.66,0,0,5.57,7.92,18.42,7.75,12.85-.16,15.74-8.19,15.74-8.19,0,0-6.95-6.31-14-6.22Z"/>
    <path class="cls-22" d="M419.65,278.49s7.03-.7,12.64-.77c5.61-.07,12.65.45,12.65.45,0,0,.84-4.56-9.33-4.43-10.17.13-15.96,4.75-15.96,4.75Z"/>
    <path class="cls-39" d="M434.51,286.85c-6.03-.91-13.04-6.13-20.05-5.54,0,0,2.91,12.01,18.02,11.82,15.1-.19,16.14-12.25,16.14-12.25-7.02-.42-8.1,4.9-14.11,5.97Z"/>
    <path class="cls-39" d="M441.14,271.11c-3.18-.23-5.17,1.19-6.55,1.2-1.38.02-3.41-1.35-6.58-1.04-2.97.29-15.44,8.86-14.02,9.94,1.42,1.07,11.09-5.23,20.64-5.35,9.55-.12,13.05,6.01,14.45,4.9,1.39-1.11-4.96-9.44-7.94-9.66Z"/>
    <path class="cls-43" d="M506.52,479.47l-97.69-.29,3.71,43.25,89.65,12.67s42.4,4.43,46.9-21.89c2.77-16.22-6.57-48.65-10.44-57.03-5.37-11.63-15.13-66.57-32.19-96.99-4.24-7.56-20.72-18.49-28.56-21.59"/>
    <path class="cls-43" d="M318.18,340.17s-30.7,10.54-31.45,49.59c-.89,46.15,20.6,111.73,38.42,137.44,6.82,9.84,17.09,13,45.21,13.73,35.25.93,59.98.53,59.98.53l2.48-42.35-60.79-13.52-31.88-111.1s-4.6-33.32-21.96-34.32Z"/>
    <path class="cls-16" d="M482.76,534.32c-4.55.81-9.12,1.55-13.69,2.28-10.8,1.72-21.63,3.29-32.48,4.66-12.58,1.59-25.21,2.96-37.88,3.69-5.6.32-11.22.53-16.84.44-2.54-.04-5.06-.26-7.59-.35-4.36-.14-8.7-.25-13.05-.73-11.51-1.27-23.34-4.59-31.55-13.21-.79-.83-1.54-1.7-2.25-2.59-.37-.46-2.45.26-2.04.78,7.03,8.81,17.4,13.16,28.26,15.12,7.5,1.35,15.09,1.47,22.67,1.83,5.39.26,10.79.18,16.18-.04,12.74-.52,25.45-1.8,38.1-3.32,11.48-1.37,22.94-2.99,34.36-4.77,5.73-.89,11.47-1.76,17.16-2.82.08-.01.16-.03.24-.04.29-.05,1.23-.25,1.26-.65s-.63-.35-.89-.3h0Z"/>
    <path class="cls-16" d="M323.51,353.93c6.75.42,12.01,6.2,15.68,11.34,3.77,5.29,6.69,11.2,9.1,17.22,1.71,4.26,2.78,8.61,3.96,13.04,2.93,10.99,5.87,21.98,8.8,32.98,3.35,12.54,6.69,25.07,10.04,37.61,1.24,4.64,2.47,9.27,3.71,13.91.6,2.26,1.03,4.69,1.84,6.89.04.1.05.2.08.3.19.71,2.36.13,2.17-.58-1.55-5.8-3.1-11.6-4.64-17.4-3.32-12.45-6.65-24.91-9.97-37.36-3.08-11.54-6.16-23.08-9.24-34.62-1.2-4.5-2.19-9.09-3.84-13.45-2.11-5.57-4.66-11-7.8-16.06-3.5-5.65-8.16-11.74-14.65-14.09-1.42-.51-2.88-.8-4.38-.89-.79-.05-2.32,1.08-.86,1.17h0Z"/>
    <path class="cls-27" d="M327.83,486.14c1.74.27,12.95,2.85,12.49,4.15-1.75-.09-3.49-.32-5.21-.66-3.19-.49-7.61-1.04-12.53-1.3-4.67-.25-8.83-.24-12.08-.15-.17.19-.33.4-.46.63-1.42,2.24.64,4.37,2.52,5.95,1.89,1.58,30.65,5.05,30.65,5.05l-8.99,1.62c-4.12-.33-8.25-.33-12.37-.01-2.5.65-2.8,3.19-1.06,5.05,1.74,1.87,16.81-.29,32.51,3.48,10.51,2.1,22.56.04,32.72-3.37l-3.27-29.71c-3.82-3.18-7.82-6.15-11.96-8.89-5.8-4.14-12.01-7.66-18.54-10.51-5.17-2.51-10.16-5.37-14.94-8.57-2.13,1.71-3.16,4.44-2.68,7.13.61,5.06,15.48,10.56,15.48,10.56l-20.16-2.84s-16.6,1.49-18.64,5.53c-2.03,4.04,3.2,4.54,3.2,4.54l13.53-.87,14.51,3.66-15.88-.17s-12.85,2.31-13.86,2.59c-2.04.81-3.66,2.43-4.46,4.48-.77,2.43,5.37,3.5,5.37,3.5l14.11-.85Z"/>
    <polygon class="cls-27" points="381.03 476.67 381.03 476.67 389.22 477.49 389.87 506.86 382.55 506.09 381.03 476.67"/>
    <path class="cls-16" d="M492.69,384.96c-1.38,2.81-1.92,5.8-1.9,8.91,0,1.35.09,2.7.17,4.04.08,1.41,0,2.9.25,4.28,1.13,6.17,2.83,12.27,4.22,18.39,2.63,11.56,5.02,23.55,3.66,35.45-.76,6.65-2.79,13.03-6.16,18.83-.58,1,1.62.94,2.06.18,12.5-21.52,4.38-46.76-.69-69.21-.39-1.75-.93-3.53-1.02-5.32-.09-1.6-.17-3.19-.24-4.79-.18-3.67.06-7.23,1.71-10.58.52-1.05-1.67-.97-2.06-.18h0Z"/>
    <path class="cls-27" d="M486.5,476.65l9.62-22.31,3.84-16.16,19.31-8.86s4.63,1.27,2.57,4.69c-2.05,3.42-13.43,7.97-13.43,7.97l-2.72,11.84,8.67-10.77,10.69-3.33,9.69,2.28s1.12,4.66-3.5,4.1l-4.9-.78-8.39,4.81-6.42,10.41,8.74-9.78,10.92-2.07,6.28,2.74s1.37,3.07-1.96,3.03c-3.34-.04-5.63-.52-5.63-.52l-6.51,2.68-7.03,10.31,10.46-6.17,12.24.45s1.54,3.1-1.74,3.81c-3.36.8-6.68,1.77-9.94,2.91l-9.22,9.95-31.64-1.24Z"/>
    <g class="cls-55">
      <polygon class="cls-31" points="1170.35 1014.62 1315.71 1014.62 1315.71 63.99 1169.35 63.99 1170.35 1014.62"/>
      <path class="cls-27" d="M1340.4,875.17c1.62,6.1,4.09,16.95,4.92,23.28,2.26,17.11,8.48,38.66,8.68,47.45.34,14.87-.31,53.43-.3,58.67l1.54,66.75c-8.58.92-7.02,7.3-29.72,3.19-3.66-27.74-34.05-150.01-42.71-202.69-6.91-42.05-12.93-86.51-12.93-86.51l62.95-13.37,4.47,91.55,3.1,11.68Z"/>
      <path class="cls-27" d="M1394.25,871.76c1.63,6.1,4.11,16.95,4.95,23.28,2.26,17.11,8.52,38.66,8.71,47.44.32,14.88-.39,53.44-.39,58.68l1.46,66.76c-8.68.93-7.12,7.31-30.07,3.23-3.67-27.74-34.23-149.99-42.92-202.66-6.93-42.05-12.96-86.5-12.96-86.5l63.71-13.46,4.39,91.56,3.12,11.67Z"/>
      <path class="cls-27" d="M1232.02,735.89l-5.44,39.83,6.31,13.37,8.44,12.13,21.53,14.55s3.3-1.09-.53-6.36c-3.69-4.58-7.76-8.93-12.16-13.02l-3.71-14.84,2.88-7.05,4.24.28s.95,19.05,4.18,22.54c.56.61,1.04,1.11,1.44,1.52,1.13,1.16,2.96,1.07,3.97-.19l1.5-1.86-2.35-28.22s-3.07-12.19-4.2-15.02c-1.45-2.76-3.84-6.72-5.75-9.26l-.81-3.86-19.87-6.33.31,1.79Z"/>
      <path class="cls-27" d="M1261.73,452.53c-2.95,1.47-41.59,27.67-46.04,52.99-4.45,25.32,3.6,98.14,2.26,120.23-1.91,25.76,13.67,99.99,13.76,106.34v19.97s24.48-5.86,24.48-5.86c0,0-14.93-129.76-6.32-165.36,8.61-35.6,11.86-128.32,11.86-128.32Z"/>
      <path class="cls-27" d="M1316.07,349.11s-1.22,33.67,3.49,44.72c1.14,2.68,18.46,9.68,18.46,9.68l-64.69,39.4-33.36-25.63s22.6-15.3,23.33-18.66c.73-3.36-1.89-28.14-1.89-28.14"/>
      <path class="cls-17" d="M1397.18,644.89l5.77,21.25c4.84,17.82,10.34,38.84,10.04,57.3l.05,105.61s8.75,42.7,14.24,82.03c-12.9,20.32-71.65,29.31-96.34,22.63l-13.98-77.31-13.84-129.48-27.53-62.75,121.59-19.27Z"/>
      <path class="cls-17" d="M1314.06,929.86c-6.54.9-24.91.67-31.42.87l-6.42-23.9c-4.08-8.85-13.22-51.3-14.04-61.05l-25.31-186.08,69.93-7.82,44.92,270.71c-14.74,1.61-22.97,5.24-37.67,7.27Z"/>
      <path class="cls-49" d="M1328.51,925.02c-.67-2.35-1.25-4.73-1.83-7.11-.95-3.86-1.86-7.73-2.77-11.6-1.12-4.76-2.21-9.52-3.29-14.29-1.14-5-2.26-10.01-3.36-15.02-1.01-4.59-2.01-9.18-2.97-13.77-.75-3.58-1.49-7.16-2.16-10.75-.31-1.66-.62-3.33-.83-5-.13-1.07-.27-2.13-.4-3.2-.29-2.27-.57-4.53-.86-6.8-.4-3.18-.8-6.36-1.2-9.55-.49-3.86-.97-7.72-1.46-11.58-.54-4.26-1.07-8.52-1.61-12.78l-1.65-13.11c-.54-4.26-1.07-8.51-1.61-12.77l-1.45-11.57-1.2-9.52c-.28-2.26-.57-4.51-.85-6.77-.13-1.05-.22-2.12-.4-3.17-.04-.25-.13-.49-.21-.74-.44-1.31-.95-2.59-1.52-3.85-1.77-3.92-4.18-7.91-7.73-10.46-1.76-1.27-3.8-2.08-5.98-2.21-.2-.01-.98.34-.55.37,4.77.29,8.37,3.98,10.82,7.77,1.77,2.74,3.18,5.78,4.18,8.89.18.57.21,1.18.29,1.77l.66,5.26,1.06,8.39c.45,3.58.9,7.15,1.35,10.73.51,4.09,1.03,8.18,1.54,12.27.55,4.34,1.09,8.69,1.64,13.03s1.09,8.7,1.64,13.06c.51,4.06,1.02,8.11,1.53,12.17.44,3.52.88,7.03,1.33,10.55.34,2.71.68,5.43,1.02,8.14.21,1.65.41,3.3.62,4.94.11.86.22,1.72.35,2.58.46,2.89,1.04,5.75,1.62,8.62.85,4.2,1.74,8.38,2.64,12.57,1.05,4.88,2.13,9.76,3.22,14.63,1.11,4.94,2.23,9.87,3.37,14.8,1.01,4.37,2.03,8.73,3.07,13.09.76,3.17,1.52,6.34,2.33,9.49.24.92.48,1.84.74,2.75.06.21.92-.02.86-.23h0Z"/>
      <path class="cls-29" d="M1213.46,562.85c-2.75-.69-1.78-1.55-4-2.17-.42-.12-.67-59.34-.82-61.74-.57-9.64-.23-26.52.4-36.15.81-12.47,4.25-22.44,13-31.14,13.03-12.95,9.56-10.08,22.47-19.8l17.41-11.81s-9.26,16.52,13.65,16.12c27.77-.48,42.91-25.64,42.91-25.64,0,0,10.82,5.97,29.79,12.71,7.28,2.6,34.03,17.13,38,24.07,9.19,16.05,12.37,14.06,22.17,60.95l-27.24,23.28-6.45,4.95c5.1,22.37,8.5,69.17,11.5,105.01.39,4.81.77,9.62,1.13,14.44.21,2.86,12.23,45.47,11.02,47.95-1.15,2.35-12.9,2.45-15.4,3.67-26.78,13.04-100.75,20.91-100.75,20.91-11.8-.3-21.56-.16-32.46-4.36-7.72-2.98-6.75-5.47-11.1-8.56.78-10.42-4.36-52.74-5.21-63.15-1.36-16.73-1.59-52.24-3.29-68.96-.1-.95-2.61.72-3.01.06-2.86-1.05-7.31.74-13.73-.65Z"/>
      <path class="cls-14" d="M1323.29,394.2c-1.12,2.78-2.82,5.39-4.56,7.8-4.23,5.86-9.65,10.86-15.88,14.54-9.04,5.34-19.86,7.95-30.34,7.56-6.69-.25-14.33-2.33-17.04-9.16-.78-1.97-1.08-4.11-1.02-6.23.03-1.24.25-2.42.47-3.64.01-.06.03-.12.05-.18.05-.17-.52-.09-.56.08-.78,2.75-.72,5.95.03,8.69.69,2.49,2.08,4.74,4.06,6.41,2.84,2.4,6.55,3.51,10.17,3.99,5.62.75,11.48.24,17.02-.84,4.92-.97,9.72-2.55,14.22-4.79,6.94-3.46,13.08-8.46,17.89-14.54,1.58-1.99,3.02-4.09,4.28-6.3.41-.71.8-1.44,1.16-2.17.18-.37.45-.78.55-1.18.01-.05.04-.1.06-.15.06-.15-.5-.09-.56.08h0Z"/>
      <path class="cls-14" d="M1321.69,396.38c-1.29-1.29-2.74-2.41-4.34-3.29-.46-.25-.92-.49-1.4-.7-.25-.11-.66.25-.32.4,1.6.73,3.1,1.69,4.43,2.83.38.33.75.67,1.1,1.02.1.1.26.11.39.05.09-.04.24-.2.13-.3h0Z"/>
      <path class="cls-14" d="M1318.96,401.16c-1.15-1.28-2.53-2.36-4.05-3.17-.43-.23-.88-.44-1.33-.62-.12-.05-.29.01-.4.07-.07.03-.18.12-.06.17,1.57.64,3.03,1.57,4.28,2.71.36.33.71.68,1.03,1.04.1.12.64-.08.53-.2h0Z"/>
      <path class="cls-14" d="M1315.02,405.94c-1.09-1.52-2.53-2.78-4.18-3.67-.47-.25-.95-.47-1.45-.65-.12-.05-.29,0-.4.06-.06.04-.18.14-.06.19,1.73.65,3.29,1.7,4.55,3.05.36.39.7.8,1.01,1.23.1.13.65-.05.53-.21h0Z"/>
      <path class="cls-14" d="M1310.08,409.38c-.99-1.13-1.97-2.27-2.96-3.4l-.84-.97c-.09-.1-.27-.08-.38-.03-.09.04-.23.17-.14.27.99,1.13,1.97,2.27,2.96,3.4l.84.97c.09.1.27.08.38.03.09-.04.23-.17.14-.27h0Z"/>
      <path class="cls-14" d="M1306.4,414.6c-1.4-1.6-2.65-3.32-3.73-5.15-.3-.52-.6-1.04-.87-1.57-.09-.18-.64.01-.57.15.99,1.9,2.16,3.7,3.48,5.39.38.48.76.94,1.16,1.4.12.13.66-.07.53-.21h0Z"/>
      <path class="cls-14" d="M1299.33,417.91c-1.46-1.89-2.63-3.98-3.49-6.2-.09-.24-.65-.07-.57.15.67,1.75,1.54,3.43,2.59,4.98.3.45.62.88.94,1.31.14.19.69-.03.52-.24h0Z"/>
      <path class="cls-14" d="M1292.43,421.23c-.08-.62-.28-1.21-.51-1.79s-.49-1.16-.74-1.75c-.51-1.21-1.03-2.42-1.54-3.63-.1-.24-.66-.07-.57.15.51,1.21,1.03,2.42,1.54,3.63.25.58.5,1.16.74,1.75s.44,1.17.51,1.79c.03.24.6.1.57-.15h0Z"/>
      <path class="cls-14" d="M1285.94,422.3c-.34-2.2-.8-4.38-1.37-6.54-.04-.17-.61-.02-.57.15.57,2.15,1.03,4.34,1.37,6.54.02.16.6.03.57-.15h0Z"/>
      <path class="cls-14" d="M1277.8,423.44c-.2-2.21-.5-4.41-.87-6.6-.02-.12-.59,0-.57.15.38,2.19.67,4.39.87,6.6.01.11.58,0,.57-.15h0Z"/>
      <path class="cls-14" d="M1269.62,423.77c.12-2.52.22-5.04.3-7.56,0-.22-.56-.1-.57.08-.08,2.52-.18,5.04-.3,7.56,0,.22.56.1.57-.08h0Z"/>
      <path class="cls-14" d="M1260.67,420.27c.76-1.97,1.52-3.94,2.29-5.91.11-.28-.46-.24-.54-.04-.76,1.97-1.52,3.94-2.29,5.91-.11.28.46.24.54.04h0Z"/>
      <path class="cls-14" d="M1254.95,414.47c.47-.74,1.13-1.35,1.78-1.93.75-.67,1.54-1.3,2.31-1.93.37-.3.73-.6,1.08-.92.09-.08.15-.22.03-.31-.11-.08-.31-.06-.41.03-1.43,1.3-3.03,2.4-4.38,3.79-.33.34-.64.69-.89,1.09-.2.31.33.42.48.18h0Z"/>
      <path class="cls-24" d="M1262.69,395.23s11.51-.67,15.22-1.69c3.71-1.02,10.05-2.94,27.22-17.65,0,0-5.66,16.5-24.79,21.5,0,0-15.77,3.54-17.45.82l-.2-2.98Z"/>
      <path class="cls-21" d="M1221.68,303s0,0,0,0c-2.26-6.42-3.25-10.42-1.93-15.14.93-3.33,6.01-7.16,6.01-7.16,0,0,.31-9.76,4.64-8.8,0,0,2.96-13.25,15.55-11.01,0,0,3.65-1.31,5.95.91,0,0,4.78-11.6,16.05-4.83,0,0,3.84-3.07,5.51.16,0,0,6.47-7.59,13.96-2.57,0,0,17.48-5.19,22.88,6,0,0,8.22-5.29,13.44,2.82,0,0,4.51-.02,5.1,6.4,0,0,6.86,1.45,7.85,5.62,0,0,4.12,2.83,4.47,9.57.1,1.93-.57,1.47-.93,4.13,4.37,7.35-1.17,8.76-1.17,8.76,6.36,6.62-.05,16.11-.05,16.11,0,0,3.34,5.28,2.09,8.94-1.7,5.01-10.18,11.09-10.18,11.09,0,0-3.31-12.8-3.55-21.08-.24-8.28-8.01-22.07-10.43-24.99-2.42-2.92-17.31,4.03-40.86,6.14-23.56,2.12-28.69-1.83-31.42-.8-5.68,2.14-8.63,23.99-7.88,30.45.75,6.46-.05,18.85-.05,18.85,0,0-13.02-4.43-10.65-15.59,0,0-4.83-7.47-3.66-12.34,0,0,.01-1.98,1.12-3.08-.02-.02-4.7-4.46-1.85-8.57Z"/>
      <path class="cls-27" d="M1309.58,370.2c-8.31,11.69-18.85,20.09-31.82,24.27-12.72,4.1-23.62.97-25.65-.75-11.11-9.45-15.35-16.77-20.45-28.72-1.38-3.24-1.89-6.85-2.08-10.59-.28-5.6-.41-16.38-1.08-21.68-1.71-13.51-1.57-25.95,4.63-38.15,12.9-25.42,49.96-29.03,64.41-24.03,16.9,5.85,25.85,20.56,28.67,36.94.92,5.34.93,10.43.1,15.23-2,2.78-3.67,5.73-5.03,8.82"/>
      <g>
        <path d="M1233.29,295.96s-.96,1.17-6.01,19.74c1.09-5.85,1.07-14.45,4.63-22.84,12.44-29.3,61.59-30.91,76.17-24.8,17.05,7.14,24.98,24.31,28.12,43.41,1.27,7.75,4.11,18.74,2.68,25.44-.09.1-7.79,6.96-7.79,6.96,0,0-9.58-6.72-13.33,3.33l.94-3.87s-6.87-8.69-8.69-31.92c0,0-4.13-9.79-4.34-12.75-.62-9.11-7.95-6.39-13-4.38-3.14,1.25-10.11,2.57-13.46,2.86-8.57.74-19.54.54-23.54,1.01-5.63.67-22.39-2.18-22.39-2.18Z"/>
        <path d="M1233.11,295.95c-.32.4-.47,1.06-.64,1.52-.99,2.73-1.8,5.53-2.61,8.32-.96,3.3-1.88,6.61-2.78,9.93l.39-.05c.77-4.17,1-8.42,1.73-12.6.78-4.46,2.03-8.87,4.16-12.88,2.83-5.32,7.06-9.75,11.98-13.18,5.04-3.52,10.74-6.04,16.6-7.85,5.86-1.81,11.92-2.92,18.02-3.48,5.47-.5,11-.55,16.47-.02,4.12.4,8.33,1.09,12.14,2.77,6.98,3.07,12.78,8.18,17.04,14.46,4.41,6.51,7.19,14.03,9,21.65.95,4.02,1.56,8.1,2.33,12.16.82,4.3,1.67,8.62,2.01,13,.15,1.97.2,3.96-.05,5.93-.06.44-.04,1.03-.31,1.36-.21.25-.51.46-.75.68-1.87,1.68-3.75,3.35-5.62,5.02-.42.38-.85.76-1.27,1.14l.31-.06c-2.93-2.05-7.38-3.24-10.52-1.03-1.54,1.08-2.5,2.75-3.15,4.48l.39-.05.52-2.12.32-1.32c.03-.14.13-.35.09-.49-.07-.26-.42-.6-.57-.83-1.42-2.24-2.48-4.72-3.38-7.2-1.85-5.06-3.02-10.37-3.81-15.7-.27-1.82-.49-3.65-.68-5.48-.05-.46-.09-.92-.13-1.38-.04-.41,0-.9-.11-1.3-.03-.1-.09-.21-.13-.31-.68-1.64-1.34-3.29-1.96-4.96-.78-2.07-1.58-4.18-2.06-6.34-.24-1.06-.23-2.16-.48-3.22-.24-1.02-.65-2.03-1.35-2.82-2.62-2.95-7.48-1.11-10.52.05-5.04,1.93-10.47,2.98-15.85,3.38-6.44.47-12.9.41-19.34.7-1.86.08-3.7.33-5.57.29-2.31-.05-4.62-.26-6.92-.51-4-.43-7.98-1-11.95-1.65-.22-.04-.45-.07-.67-.11-.13-.02-.46.18-.24.22,2.92.5,5.86.92,8.8,1.31,2.38.31,4.77.59,7.17.78,1.97.16,3.97.3,5.95.16,5.49-.4,10.99-.42,16.5-.63,3.07-.11,6.16-.22,9.21-.62,2.85-.38,5.69-.92,8.47-1.63,2.19-.56,4.22-1.44,6.36-2.15,1.86-.62,3.98-1.21,5.95-.76,2.22.5,3.33,2.47,3.72,4.57.19,1,.2,2.01.44,3s.56,2.01.89,3c.71,2.12,1.52,4.22,2.36,6.3.24.61.52,1.21.75,1.83.07.18.09.26.11.46.09.97.17,1.93.27,2.9.62,6,1.66,11.99,3.44,17.75.97,3.13,2.14,6.23,3.74,9.09.33.58.67,1.16,1.06,1.71.05.06.16.17.18.24-.02-.07-.12.37-.14.46l-.33,1.36c-.16.67-.32,1.33-.49,2-.04.16.34.07.39-.05,1.05-2.78,3.03-5.23,6.19-5.38,1.97-.1,3.95.58,5.67,1.5.38.2.76.42,1.12.67.08.06.25,0,.31-.06,1.46-1.3,2.92-2.6,4.37-3.9.9-.81,1.8-1.61,2.7-2.42.2-.18.47-.36.64-.58.29-.36.27-1.04.33-1.49.51-4.1-.11-8.33-.78-12.38-.7-4.29-1.57-8.55-2.32-12.83-1.4-8-3.68-15.95-7.55-23.13-3.59-6.66-8.62-12.52-15.1-16.49-2.38-1.46-4.93-2.72-7.61-3.53-1.97-.6-4-1-6.04-1.31-5.19-.78-10.48-.92-15.72-.67-6.12.29-12.22,1.14-18.16,2.63-6,1.5-11.87,3.67-17.24,6.75-5.19,2.99-9.9,6.89-13.4,11.78-2.02,2.83-3.58,5.95-4.7,9.24-1.57,4.64-2.24,9.49-2.81,14.33-.23,1.94-.44,3.89-.79,5.81-.03.16.35.08.39-.05,1.34-4.93,2.7-9.86,4.22-14.74.48-1.55.94-3.14,1.6-4.62.05-.11.1-.25.17-.35.11-.14-.28-.12-.36-.01Z"/>
      </g>
      <path class="cls-27" d="M1314.54,358.2c7.63,6.29,12.84-3.97,12.84-3.97,5.73-8.72,4.76-17.2,3.87-22.98-.9-5.78-7.27-4.97-7.27-4.97-5.35,1.2-4.52,1.76-10.12,18.02"/>
      <path d="M1278.74,332.22c1.52-.92,3.4-.35,4.5.5.26.2.95.76,1.32,1.78.48,1.29.06,2.83-.71,3.8-1.02,1.29-2.86,1.63-4.32,1.07-1.98-.76-2.77-3.03-2.41-4.75.07-.31.39-1.64,1.61-2.39"/>
      <path d="M1270.87,339.56s5.04-7.88,10.9-8.32c8.25-.62,10.46,3.63,12.39,5.77,0,0-5.68-4.96-12.05-4.34-5.77.57-11.24,6.88-11.24,6.88Z"/>
      <path d="M1238.25,335c-1.53-.72-3.19.1-4.09,1.08-.21.23-.78.88-.99,1.94-.27,1.35.33,2.81,1.17,3.67,1.12,1.15,2.86,1.24,4.13.49,1.73-1.02,2.15-3.37,1.59-5.02-.1-.3-.58-1.57-1.81-2.15"/>
      <path d="M1249.12,341.22s-5.23-7.11-10.3-6.74c-7.13.53-8.53,5.04-9.93,7.44,0,0,4.28-5.7,9.8-5.97,5.01-.24,10.42,5.27,10.42,5.27Z"/>
      <g>
        <path d="M1256.63,361.15c1.59.68,3.91.3,5.37-.78.32-.24,1.48-.13,1.02.21-1.93,1.42-5.26,1.81-7.32.94-.2-.09-.18-.24.06-.34.25-.11.65-.12.87-.03"/>
        <path d="M1263.65,360.1c.99-.57,2.12-.92,3.26-1.1.17-.03.39.02.52.12.1.08.13.19.01.28-.5.35-1.17.53-1.79.57-.2.01-.46-.02-.58-.18-.11-.15.07-.26.22-.27.51-.03,1.03-.18,1.44-.46.18.13.36.26.54.4-1.02.16-2.03.48-2.91.99-.18.1-.44.07-.61-.02-.13-.06-.27-.22-.1-.32"/>
        <path d="M1268.22,359.87c1.34-.14,2.87-.86,3.45-1.92.87-1.61-.28-4.11-2.04-4.95-.19-.09-.11-.24.08-.29.24-.07.53,0,.73.09,1.53.74,2.66,2.8,2.56,4.25-.1,1.36-1.3,2.4-2.88,2.92-.47.15-.97.27-1.47.33-.2.02-.57-.01-.69-.16-.11-.15.07-.24.26-.26"/>
        <path d="M1254.11,360.67c.06-.16-.08-.25-.19-.24-.36.04-.74-.03-1.07-.26-.11.16-.21.31-.32.47.73.02,1.48.2,2.17.58.14.08.32,0,.43-.1.08-.08.16-.26.02-.33"/>
        <path d="M1255.14,360.78c-.77-.43-1.6-.62-2.42-.64-.12,0-.27.07-.35.19-.06.09-.07.21.03.27"/>
        <path d="M1251.33,361.07c-.88.04-1.95-.47-2.47-1.45-.78-1.48-.32-3.35.69-4.41.11-.12.04-.25-.09-.28-.16-.04-.34.07-.45.19-.88.93-1.38,2.36-1.12,3.79.24,1.33,1.16,2.2,2.24,2.51.32.09.66.14.99.13.13,0,.37-.09.42-.25.05-.17-.07-.23-.2-.22"/>
      </g>
      <path d="M1271.03,313.95c-.38,1.26-.76,2.52-1.14,3.78-.29.96-.57,1.93-.85,2.89,3.07.04,7.16.63,9.09.84,3.83.41,7.74,1.12,11.22,2.83,1.67.82,3.06,1.77,4.23,3.19.37.45,1.22,2.15,2.01,2.02.33-.05.33-1.74.33-1.92,0-3.41-2.09-5.46-4.89-7.11-5.71-3.38-11.97-5.09-18.5-6.13"/>
      <path d="M1227.09,329.8c-.2-.82-.48-1.61-.89-2.36.38-.56.81-1.1,1.29-1.63,4.36-4.87,9.74-8.32,15.57-11.2.74,1.09,1.47,2.18,2.21,3.27.56.83,1.12,1.67,1.68,2.5-2.88.93-5.25,1.87-7.01,2.63-3.49,1.5-6.95,3.31-9.71,5.95-.8.77-1.48,1.55-2.05,2.42l-1.09-1.59Z"/>
      <path class="cls-28" d="M1261.94,369.01c2.76-.35,11.1-1.15,11.1-1.15,0,0-2.56,3.28-10.85,4.33-8.29,1.05-11.37-1.41-11.37-1.41l11.12-1.76Z"/>
      <path class="cls-14" d="M1256.04,406.43c1.09-.54,2.15-1.16,3.14-1.86.28-.2.56-.41.83-.62.02-.02.07-.05.06-.09s-.07-.04-.1-.05c-.12-.01-.3.03-.4.11-1.2.94-2.5,1.75-3.87,2.43-.06.03-.18.12-.07.16s.3-.02.4-.07h0Z"/>
      <g>
        <path class="cls-36" d="M1331.95,334.55s-2.08-8.09-5.25-8.84-9.54,2.99-11.01,9.85c0,0-2.94-1.97-.51-8.43,2.79-7.41,8.87-9.72,13.36-6.56,7.81,5.49,3.41,13.99,3.41,13.99Z"/>
        <path class="cls-54" d="M1332.16,334.49c-.27-1.06-.63-2.11-1.03-3.14-.65-1.69-1.44-3.52-2.75-4.82-.51-.5-1.1-.89-1.82-1s-1.45-.03-2.14.14c-1.88.46-3.59,1.56-4.98,2.88-1.99,1.89-3.37,4.34-3.96,7.01l.37-.13c.06.04-.04-.03-.05-.04-.05-.07-.13-.12-.19-.18-.22-.23-.41-.5-.56-.78-.59-1.1-.69-2.4-.58-3.62.2-2.12.97-4.23,2.01-6.08.88-1.57,2.05-3.03,3.55-4.05,1.25-.86,2.72-1.4,4.24-1.39s2.97.54,4.2,1.42c1.5,1.08,2.79,2.47,3.59,4.15.63,1.33.93,2.8.93,4.26,0,1.81-.38,3.79-1.22,5.41-.09.17.32.13.38,0,.74-1.44,1.13-3.15,1.23-4.76.09-1.49-.1-3-.64-4.4-.68-1.76-1.88-3.26-3.35-4.43-1.25-.99-2.66-1.7-4.26-1.86-1.49-.15-2.99.18-4.32.85-3.51,1.78-5.66,5.69-6.5,9.41-.34,1.48-.46,3.11.06,4.57.21.58.55,1.27,1.07,1.64.03.02.06.05.1.07.09.06.35,0,.37-.13.91-4.12,3.93-8.16,8.06-9.49.69-.22,1.43-.37,2.16-.3s1.32.41,1.83.91c1.26,1.22,2.03,2.94,2.66,4.54.44,1.11.84,2.25,1.14,3.41.04.14.45.03.41-.11Z"/>
      </g>
      <g>
        <path class="cls-10" d="M1318.78,345.1s.82-9.53,5.71-10.06c2.01-.22,3.79,4.2,2.02,10.54-.94,3.36-4.51,4.09-4.51,4.09,0,0,1.28-5.2-1.87-5.06-1.14.05-1.36.49-1.36.49Z"/>
        <path class="cls-54" d="M1318.96,345.05c.1-1.11.31-2.22.58-3.31.47-1.89,1.16-3.91,2.53-5.35.62-.65,1.49-1.26,2.42-1.28.8-.02,1.39.76,1.72,1.4.57,1.09.76,2.37.82,3.59.08,1.81-.19,3.63-.67,5.38-.39,1.42-1.26,2.57-2.51,3.35-.41.25-.84.46-1.29.62-.13.05-.26.09-.4.13-.04,0-.21.05-.13.03l.15.04c.4-1.64.71-5.01-1.71-5.11-.52-.02-1.59.05-1.88.6-.03.06.32.04.37-.06.08-.16.3-.24.46-.28.4-.12.88-.14,1.29-.01.52.16.88.56,1.08,1.06.39.96.32,2.1.17,3.1-.04.26-.08.52-.15.78-.02.07.12.05.15.04,1.69-.35,3.34-1.46,4.21-2.95.46-.8.67-1.71.86-2.61.19-.91.32-1.83.37-2.76.08-1.46-.01-2.98-.52-4.37-.29-.79-.78-1.73-1.63-2.03-.77-.28-1.76.1-2.42.49-1.82,1.07-2.75,3.24-3.35,5.17-.44,1.44-.76,2.95-.89,4.45,0,.06.37.02.38-.1Z"/>
      </g>
    </g>
    <path class="cls-14" d="M1230.15,563.68c.04-12.44-.12-24.88-.48-37.31-.36-12.41-.93-24.81-1.7-37.2-.43-6.99-.93-13.98-1.49-20.97-.02-.24-.59-.11-.57.15,1,12.42,1.79,24.86,2.39,37.31.59,12.38.97,24.78,1.16,37.17.1,6.97.14,13.93.12,20.9,0,.28.57.19.57-.05h0Z"/>
    <path class="cls-23" d="M1260.59,368.57c4.84-.52,15.9,1.75,18.28,3.69,0,0-4.03,7.49-15.26,8.7-11.23,1.2-14.59-5.49-14.59-5.49,0,0,5.4-6.24,11.57-6.9Z"/>
    <path class="cls-22" d="M1274.05,370.35s-6.21.12-11.11.65c-4.9.53-10.99,1.72-10.99,1.72,0,0-1.21-3.89,7.67-4.84,8.89-.95,14.42,2.47,14.42,2.47Z"/>
    <path class="cls-39" d="M1261.96,379.2c5.16-1.43,10.73-6.72,16.91-6.93,0,0-1.28,10.78-14.48,12.2-13.2,1.42-15.36-9-15.36-9,6.08-1.1,7.59,3.43,12.94,3.73Z"/>
    <path class="cls-39" d="M1254.52,366.15c2.75-.53,4.64.49,5.84.36,1.2-.13,2.83-1.53,5.63-1.6,2.62-.06,14.4,6.11,13.27,7.2-1.13,1.08-10.22-3.4-18.57-2.5-8.35.9-10.76,6.61-12.09,5.79-1.33-.82,3.34-8.76,5.91-9.26Z"/>
    <path class="cls-24" d="M1263.62,324.35c-3.02-1.49-4.23-5.61-2.48-8.49.22-.36-.77-.28-.88-.26-.42.07-1.03.23-1.27.62-1.82,2.99-.56,7.35,2.59,8.89.42.21.99.06,1.41-.1.1-.04,1-.48.64-.67h0Z"/>
    <path class="cls-27" d="M816.16,765.07c3.58-6.35,8.25-14.98,7.99-16.26-.27-1.29-.78-10.12-1.21-17.84-.05-3.94-2.99-7.27-6.58-7.43-.93-.04-4.99,18.03-12.48,15.24l.44-16.11c.83-5.15,2.25-10.13,4.25-14.82,2.81-5.64,15.69-18.32,15.69-18.32l.12-20.55,33.15,4.54-3.59,19.98,4.65,19.97s1.05,37.55-1.78,41.89c-2.82,4.34-12.85,8.78-12.85,8.78-2.78,6.4-11.85,6.45-11.85,6.45-7.82,8.69-9.43.8-9.43.8-.2.37-.49.66-.84.84-3.78,2.05-7.83-3.38-5.67-7.16Z"/>
    <path class="cls-2" d="M835.25,738.96c1.05,5.29.98,10.7-.21,15.81-1.62,4.94-4.41,9.25-8.1,12.5-1.34,1.51-2.91,2.76-4.63,3.72"/>
    <path class="cls-2" d="M843.63,740.67c.34,2.17.53,4.37.57,6.55.15,2.74-.21,5.46-1.07,7.98,0,0-2.07,10.19-11.03,15.37"/>
    <path class="cls-2" d="M851.54,741.83c.63,0,.81,3.26.58,11.28,0,0-.76,8.98-8.16,11.02"/>
    <path class="cls-30" d="M789.82,452.95l-23.2-101.51s69.98,18.11,82.7,43.73c11.36,27.56,35.13,142.18,34.84,160.45-.45,28.69-13.56,93.55-22.32,136.25l-41.76-7.26.08-124.31-30.34-107.35Z"/>
    <path class="cls-38" d="M811.11,394.27c-4.35,3.18-8.65,6.79-11.31,11.56-2.29,4.11-3.1,8.77-3.58,13.4-.63,6.13-1.22,12.36-1.11,18.52.12,7,.93,13.99,1.97,20.91,1.09,7.29,2.48,14.53,3.95,21.76,1.02,5.01,1.95,10.07,3.13,15.05s2.57,10.22,3.86,15.32c2.19,8.67,4.37,17.35,6.56,26.02,1.42,5.65,2.85,11.29,4.27,16.94.53,2.09.84,4.24,1.23,6.35.27,1.44.73,2.96.81,4.42.14,2.55-.13,5.19-.2,7.73-.34,12.42-.75,24.84-1.24,37.26-.52,13.06-1.13,26.11-1.96,39.15-.66,10.43-1.38,20.89-2.77,31.26-.23,1.75-.5,3.49-.8,5.23-.07.39.39.52.68.54,2.98.24,5.96.56,8.95.8.9.07,2.29-1.21.82-1.33-2.98-.24-5.96-.56-8.95-.8l.68.54c1.61-9.05,2.28-18.29,2.95-27.44.94-12.68,1.59-25.38,2.15-38.07.57-12.8,1.02-25.61,1.41-38.42.16-5.48.32-10.96.45-16.43.04-1.4-.39-2.82-.65-4.19-.37-1.97-.75-3.95-1.12-5.92-.73-3.87-1.9-7.7-2.86-11.52-2.12-8.4-4.23-16.79-6.35-25.19-1.72-6.84-3.45-13.68-5.17-20.52-2.13-8.44-3.72-17.06-5.35-25.61-2.59-13.65-5.16-27.86-4.05-41.81.45-5.63.59-11.39,1.8-16.92,1-4.58,3.08-8.6,6.32-12,2.07-2.17,4.42-4.07,6.84-5.83,1.19-.87-.64-1.28-1.37-.74h0Z"/>
    <ellipse class="cls-22" cx="169.6" cy="164.12" rx="145.38" ry="130.53"/>
    <polygon class="cls-22" points="268.01 254.51 317.62 267.21 284.65 225.05 268.01 254.51"/>
    <path class="cls-16" d="M492.57,532.92c-3.34-.54-6.67-1.08-10.01-1.63-8.01-1.3-16.02-2.6-24.03-3.9-9.69-1.57-19.38-3.15-29.07-4.72-8.37-1.36-16.75-2.72-25.12-4.08l-8.25-1.34c-1.2-.2-2.7-.71-3.93-.64-.06,0-.12-.02-.18-.03l.7.47c-.75-12.22-1.5-24.44-2.25-36.66-.1-1.7-.21-3.4-.31-5.1l-1.47,1.05c5.87.05,11.74.1,17.62.15,12.65.11,25.3.22,37.95.32s24.58.21,36.87.32c4.95.04,9.94.26,14.89.1s9.46.08,14.1.81,11.93,2.16,13.9,7.21c.45,1.14.53,2.32.39,3.53-.13,1.07,2.08.76,2.2-.18.72-5.88-4.48-9.1-9.4-10.65-5.54-1.76-11.5-2.21-17.28-2.28-1.42-.02-2.85-.03-4.27.05-.31.02.43,0,0,0-.27,0-.53,0-.8,0-2.91-.02-5.81-.05-8.72-.07-11.72-.1-23.44-.2-35.16-.3-13.18-.11-26.35-.23-39.53-.34-7.23-.06-14.45-.12-21.68-.19-.11,0-.21,0-.32,0-.65,0-1.52.27-1.47,1.05.75,12.22,1.5,24.44,2.25,36.66.1,1.7.21,3.4.31,5.1.02.31.47.43.7.47,3.34.54,6.67,1.08,10.01,1.63,8.01,1.3,16.02,2.6,24.03,3.9,9.69,1.57,19.38,3.15,29.07,4.72,8.37,1.36,16.75,2.72,25.12,4.08,2.75.45,5.5.89,8.25,1.34,1.3.21,2.62.52,3.93.64.06,0,.12.02.18.03,1.04.17,2.22-1.29.77-1.53h0Z"/>
    <g class="cls-33">
      <path class="cls-18" d="M248.07,197.22c.51.81-4.08-5.03-22.11,2.63-9.43,4.01-19.86,9.6-27.99,14.23-.09.09-.2.17-.32.25-1.8,1.13-3.67,2.18-5.57,3.16-4.39,2.59-7.41,4.47-8.13,4.92l-.42-.85c-3.61,1.62-7.24,3.2-10.75,4.92-4.2,2.06-8.42,4.13-12.71,6.02,2.74,7.09,8.52,14.35,17.63,16.67,4.07,1.04,9.25-.25,15.03-2.71,1.15-.2,8.94-4.31,8.94-4.31,0,0,17.44-8.63,30.72-15.54,16.1-8.37,19.87-12.54,20.04-18.95.17-6.41-4.36-10.46-4.36-10.46Z"/>
      <path class="cls-27" d="M146.79,300.24l.92,15.57-1.77,7.25-4.27,6.57-11.32,8.14s-1.82-.5.13-3.35c1.89-2.49,3.98-4.87,6.27-7.12l1.64-7.88-1.74-3.63-2.29.24s-.03,10.02-1.7,11.93c-.29.33-.53.61-.74.83-.58.64-1.58.63-2.16,0l-.86-.94.56-14.87s1.36-6.47,1.9-7.98c.71-1.48,1.91-3.62,2.89-5l.34-2.05,10.95-2.45,1.28,4.74Z"/>
      <path class="cls-27" d="M120.68,157.9c1.68.68,25.9,12.81,29.06,25.42,3.16,12.61-2.77,52.05-1.42,63.1,1.77,12.89-1.79,47.87-1.67,51.06l-.17,11.53-9.15-4.08s-.81-65.21-6.56-82.89c-5.75-17.68-10.09-64.14-10.09-64.14Z"/>
      <g>
        <path d="M74.96,125.66l-.38.49c-.99,3.61-.53,6.44,2.18,8.32,0,.03-1.96,7.16,5,10.6,6.04,2.99,9.3,1.36,9.3,1.36,0,0,1.91,2.78,3.51,3.25,3.62,1.05,6.74-2.31,7.81-4.94,1.47-3.57,1.96-6.59,1.96-6.59,0,0-.05-3.09-.28-5.37-.23-2.28-3.11-5.44-3.11-5.44,0,0,2.77-3.15,1.31-4.52-1.46-1.37-4.63-6.89-4.63-6.89,0,0-2.2-.08-6.42.38,0,0-2.74-1.6-5.29,1.28-.55.62-1.1,1.45-1.6,2.56,0,0-1.36-.75-4.56.12-1.38.37-4.04,2.67-4.79,5.41Z"/>
        <path d="M74.79,125.65c-.37.47-.48.78-.61,1.38-.17.79-.28,1.6-.27,2.42.02,1.31.37,2.6,1.16,3.66.21.28.44.54.7.78.14.14.3.26.45.39.06.05.33.18.34.21.02.05-.06.25-.07.3-.12.59-.18,1.19-.19,1.78-.04,2.07.53,4.15,1.8,5.81,1.91,2.48,5.23,3.87,8.23,4.41,1.48.26,3.38.41,4.79-.28h-.25c1.12,1.61,2.59,3.33,4.69,3.46,2.6.16,4.86-1.68,6.21-3.75.85-1.3,1.34-2.83,1.8-4.3.35-1.12.66-2.26.88-3.42.1-.5.06-.97.04-1.48-.05-1.47-.06-2.98-.27-4.44-.17-1.17-.82-2.25-1.46-3.21-.31-.46-.64-.9-.99-1.34-.19-.24-.49-.48-.63-.75-.05-.09-.07.17,0,.03.04-.08.14-.17.2-.24.28-.35.53-.71.76-1.1.44-.72.94-1.69.72-2.57-.1-.4-.37-.64-.63-.92-.34-.36-.63-.76-.92-1.17-.7-.96-1.34-1.96-1.96-2.97-.45-.73-.9-1.46-1.33-2.2-.19-.32-.22-.35-.59-.35-1.11,0-2.22.05-3.33.13-.48.03-.95.07-1.42.12-.23.02-.45.04-.68.07-.17.02-.45.11-.6.09-.21-.03-.45-.2-.66-.27-3.08-.95-5.38,1.67-6.56,4.19l.33-.09c-.41-.22-.94-.27-1.39-.3-1.18-.08-2.53.09-3.63.51-2.2.84-4.03,3.24-4.67,5.44-.04.14.34.09.38-.04.6-2.07,2.3-4.33,4.34-5.18,1.04-.43,2.37-.58,3.5-.49.38.03.83.08,1.18.26.09.05.28,0,.33-.09,1.11-2.37,3.31-5.06,6.24-3.9.12.05.24.14.37.17.28.06.65-.06.93-.08.47-.05.94-.09,1.41-.13,1.1-.09,2.2-.15,3.31-.17.23,0,.46,0,.69,0,.2,0,.02-.08.08.06.23.57.65,1.11.97,1.63,1.02,1.68,2.04,3.47,3.37,4.92.36.4.65.7.65,1.28,0,.52-.21,1.03-.43,1.49-.33.67-.77,1.32-1.27,1.89-.03.03-.06.07-.02.11,1.16,1.28,2.31,2.81,2.87,4.45.41,1.19.36,2.56.42,3.8.04.82.15,1.7.09,2.52-.04.48-.24,1.18-.37,1.71-.35,1.42-.79,2.82-1.32,4.18-.94,2.44-2.78,4.98-5.49,5.57-1.63.36-2.97-.22-4.12-1.35-.6-.59-1.15-1.25-1.63-1.95-.05-.07-.2-.04-.25,0-.68.34-1.55.4-2.29.41-2.28.04-4.53-.7-6.56-1.68-1.91-.92-3.57-2.29-4.52-4.22-.64-1.3-.93-2.75-.92-4.19,0-.74.06-1.51.26-2.23,0-.03-.02-.06-.04-.07-1.39-.99-2.32-2.38-2.55-4.09-.12-.87-.07-1.76.08-2.63.07-.44.14-.91.29-1.33.09-.26.25-.44.42-.65.11-.14-.27-.12-.35-.01Z"/>
      </g>
      <g>
        <path d="M145.91,132.31l-.3-.53c-2.9-2.37-5.6-3.18-8.24-1.67-.03-.02-3.81-3.19-9.34,1.27-4.81,3.87-4.49,7.33-4.49,7.33,0,0-3.17.44-4.15,1.61-2.21,2.63-3.53,8.41-1.1,9.86,2.43,1.45,2.34,2.76,2.34,2.76,0,0,3.73,2.27,5.86,3.04,2.13.77,5.99-.56,5.99-.56,0,0,4.66,1.96,6.41,1.3,1.74-.66,3.53-3.87,3.53-3.87,0,0,5.14,1.02,6.21-2.76,0,0,2.4-1.65.71-5.04-.36-.73-.92-1.55-1.73-2.45,0,0,1.15-.84,1.49-3.93.15-1.33-.98-4.56-3.18-6.37Z"/>
        <path d="M146.09,132.26c-.1-.17-.18-.38-.3-.53-.29-.35-.78-.63-1.16-.88-.84-.57-1.75-1.07-2.73-1.35-1.6-.46-3.19-.24-4.64.56l.28-.02c-1.43-1.19-3.62-1.34-5.35-.93-2.08.49-3.91,1.78-5.44,3.24-1.25,1.19-2.35,2.59-2.97,4.22-.25.67-.48,1.45-.42,2.18l.21-.14c-.98.14-1.98.38-2.89.76-1.27.53-1.97,1.48-2.58,2.69-.73,1.45-1.21,3.08-1.28,4.71-.05,1.13.11,2.51,1.04,3.28.86.71,2.67,1.56,2.6,2.91,0,.02,0,.03.01.04,1.45.88,2.94,1.72,4.47,2.45.91.43,1.78.81,2.8.85,1.08.05,2.17-.13,3.22-.38.37-.09.75-.19,1.11-.3.11-.03.22-.06.32-.1.27-.1.05.03-.05-.03.43.29,1.09.42,1.58.59,1.46.5,3.5,1.27,5.04.69,1.63-.61,2.83-2.51,3.64-3.96l-.3.12c1.15.23,2.43.19,3.56-.13.78-.22,1.52-.6,2.08-1.19.33-.36.61-.8.77-1.27.09-.28.12-.28.33-.48,1.62-1.57,1.13-3.9.04-5.63-.18-.29-.38-.56-.59-.83-.07-.09-.74-.81-.75-.79.01-.07.26-.27.31-.33.62-.78.91-1.82,1.09-2.78.49-2.68-1.04-5.57-3.06-7.27-.09-.08-.42.06-.34.14,1.65,1.39,3.06,3.71,3.17,5.91.05,1.06-.28,2.29-.73,3.24-.17.36-.4.81-.73,1.05-.03.02-.05.06-.03.09,1.65,1.84,3.56,5.08,1.27,7.22-.16.15-.21.17-.3.37-.28.61-.51,1.15-1.03,1.59-.83.72-1.96.98-3.03,1.02-.6.02-1.22,0-1.81-.12-.1-.02-.25.03-.3.12-.63,1.13-1.42,2.27-2.4,3.12-.7.61-1.36.83-2.27.74-.83-.08-1.65-.29-2.45-.53-.63-.19-1.26-.4-1.88-.64-.22-.08-.48-.25-.72-.25-.34.01-.76.23-1.09.32-.87.23-1.76.4-2.65.46-1.89.12-3.46-.73-5.08-1.6-.7-.37-1.39-.76-2.08-1.16-.21-.12-.43-.25-.64-.38-.09-.05-.15-.1-.15-.09-.04-.06-.02-.22-.04-.3-.06-.25-.19-.49-.33-.71-.5-.79-1.27-1.28-2.03-1.79-1.3-.87-1.35-2.71-1.18-4.11.24-1.92.96-3.91,2.15-5.44.91-1.17,2.72-1.53,4.13-1.73.06,0,.22-.05.21-.14-.16-1.83,1.12-3.79,2.22-5.11,2.25-2.68,5.93-5.32,9.61-4.2.57.18,1.18.43,1.64.82.07.06.21.01.28-.02,1.55-.86,3.23-.89,4.87-.23,1.21.49,2.72,1.28,3.38,2.44.06.11.41-.01.36-.1Z"/>
      </g>
      <path class="cls-18" d="M164.78,223.86s-.2-27.35,3.07-47.79c3.09-19.34,10.13-20.11,9.17-20.11,0,0,5.83-1.68,11.17,1.87,5.34,3.55,6.87,8.96,5.4,27.04-1.21,14.92-3.16,34.28-3.16,34.28,0,0,.73,9.13-18.4,5.71"/>
      <path class="cls-15" d="M273.33,261.07l.85,20.34c.24,13.56-2.68,22.85-6.43,35.88l-7.96,55.08s.04,23.94,2.44,43.72c2.09,17.15-3.31,47.94-3.31,47.94l-5.95,1.13c-5.37,1.02-10.87,1.22-16.3.6l-11.66-1.34-11-101.46-8.06-62.13-11.05-37.34,78.41-2.41Z"/>
      <path class="cls-15" d="M183.33,261.07l7.61,109.99c0,4.8,1.93,9.16,4.13,32.26l4.19,39.37,1.51,17.12,3.38.58c4.65.93,9.4,1.23,14.13.89l10.36-.42-11.49-197.51-33.82-2.26Z"/>
      <path d="M203.71,292.42c5.28,4.09,7.22,11.02,7.83,17.39.34,3.49.2,6.99.37,10.49.23,4.73.46,9.46.69,14.19.66,13.62,1.33,27.24,1.99,40.86.27,5.6.86,11.15,1.41,16.73,1.4,14.16,2.8,28.33,4.19,42.49.98,9.97,1.97,19.94,2.95,29.9.02.17.03.33.05.5.04.46,1.14.2,1.09-.29-.83-8.41-1.66-16.82-2.49-25.24-1.44-14.56-2.87-29.12-4.31-43.68-.6-6.1-1.41-12.47-1.69-18.3-.64-13.08-1.27-26.16-1.91-39.24-.27-5.52-.54-11.04-.81-16.56-.39-7.92.24-16.11-3.39-23.43-1.24-2.5-2.92-4.72-5.13-6.43-.35-.27-1.33.23-.85.6h0Z"/>
      <path class="cls-18" d="M141.11,166.26s6.82,7.28,8.91,16.67c1.83,8.22,2.66,15.07,3.03,19.37.32,3.61,1.05,7.18,2.17,10.63h0c-.25,1.31-2.38,3.72-8.45,2.81l-3.78,1.92-1.88-51.4Z"/>
      <path class="cls-27" d="M83.04,488.8c1.54-10.88-5.56-60.13-1.69-87.93,4.96-35.65-7.66-67.35-11.29-82.18-7.51-30.71-11.28-51.49-2.68-64.58l73.28,5.36-.93,14.36c3.87,16.01-4.79,73.96-6.24,117.35l-14.48,91.55s-3.28,3.62-10.45.8c0,0-.57,5.88-2.53,5.82-10.89-.33-7.62,3.72-23-.54Z"/>
      <path d="M108.24,488.19c1.02-9.11,2.03-18.21,3.05-27.32,1.71-15.29,3.41-30.57,5.12-45.86.49-4.43.99-8.87,1.48-13.3.22-1.95.45-3.9.61-5.85.33-4.11.43-8.24.3-12.36-.01-.4,0-.78,0-1.17.44-12.85.88-25.71,1.31-38.56.22-6.39.44-12.79.65-19.18.04-1.23.02-2.48.13-3.7.2-2.31,1.07-4.74,2.18-6.75.98-1.79,2.39-3.39,4.44-3.87,1.35-.32.95-1.8-.4-1.48-4.3,1.02-6.56,5.15-7.72,9.08-.37,1.27-.68,2.54-.73,3.86-.17,5.01-.34,10.01-.51,15.02-.49,14.35-.98,28.69-1.47,43.04-.04,1.12-.11,2.26-.12,3.38,0,5.85-.08,11.58-.75,17.41-.37,3.21-.72,6.43-1.08,9.64-1.66,14.89-3.32,29.78-4.98,44.66-1.23,10.99-2.45,21.98-3.68,32.97l-.06.52c-.12,1.11,2.09.81,2.2-.17h0Z"/>
      <path class="cls-15" d="M121.49,384.51c-8.81,1.34-19.74.49-28.63-.49-8.66-.96-16.85-1.73-22.65-3.56-2.64-20.5-3.15-48.07-5.52-57.76-7.51-30.71-5.82-56.49,2.79-69.59l73.28,10.37.44,14.36c3.19,13.2,1.3,64.06-1.16,102.59-3.99.67-14.54,3.48-18.54,4.09Z"/>
      <path class="cls-27" d="M100.6,130.41s1.69,10.21-1.57,17.43c-.56,1.24-7.96,6.22-7.96,6.22l6.62,7.86c5.34,3.95,10.44,8.94,17.08,8.6,3.76-.19,13.28.94,16.32.04l1.95-10.37-7.8-5.15c-.24-1.58,1.44-12.11,1.44-12.11"/>
      <path class="cls-11" d="M95.41,268.67c-5.18-.1-10.34-.33-15.22-2.27-3.49-1.39-6.81-3.19-10.3-4.59-1.46-.58-2.9-1.16-4.25-1.89-.58-.45-1.15-.91-1.71-1.39l10.33-27.03,8.73-50.9-14.06-16.12s3.54-4,9.57-7.49c3.55-2.05,13.98-6.91,20.08-8.27h0s4.85,16.53,19.82,17.53c11.18.75,7.65-12.26,7.65-12.26,0,0,16.69,13.21,18.65,15.24h0c-.91.03,2.46,17.88,5.47,35.59.84,4.92,1.16,15.4-5.31,21.89-2.15,2.15-3.52,24.38-3.52,24.38l1.29,12.55c.2,1.95-1.22,3.7-3.17,3.89-6.99.71-23.07,2.07-36.53,1.17-2.36-.16-4.91-.16-7.53-.04Z"/>
      <path class="cls-1" d="M98.87,230.67c.02.85.06,1.7.14,2.55.01-.06.02-.11-.02-.18-.04-.5-.09-1.31-.13-2.37Z"/>
      <path class="cls-27" d="M224.03,115.42s-.4,17.14,2.08,22.73c.6,1.36,8.72,4.79,8.72,4.79l-32.65,20.48-14.57-12.18s8.82-8.57,9.17-10.29c.35-1.71-1.15-14.31-1.15-14.31"/>
      <path class="cls-32" d="M201.6,267.45c.47-.13.93-.26,1.39-.39-.68.19-1.76.5-1.39.39Z"/>
      <path class="cls-22" d="M275.42,260.12c-2.21-5.74-7.01-26.72-7.77-32.75-1.5-11.91,1.87-23.51-.14-35.38-.12-.71.26-1.21.77-1.44-.24-.83-.48-1.67-.72-2.54l.59-3.6-1.09-9.9c-1.06-5.28-2.15-14.63-8.36-22.15-2.49-3.01-9.16-8.96-12.86-10.66-11.32-5.19-18.42-8.52-18.42-8.52,0,0-6.41,16.55-21.28,18.07-14.87,1.52-9.85-7.9-9.85-7.9l-4.04,2.59c-2.72,1.96-5.79,4.2-8.68,6.64,9.38,22.57,9.37,48.22,1.66,71.31.28,5.69.55,11.13.62,11.34,2.33,6.92.36,23.3,1.97,31.18"/>
      <path class="cls-11" d="M176.8,212.94c.88,4.07,4.94,22.15,4.94,32.28l.98,22.04s30.19,7.47,55.6,4.36,37.1-11.5,37.1-11.5c-2.21-5.74-7.01-26.72-7.77-32.75-1.5-11.91,1.87-23.51-.14-35.38-.12-.71.26-1.21.77-1.44-.24-.83-.48-1.67-.72-2.54l.59-3.6-.43-6.48c-1.06-5.28-.68-18.37-6.89-25.89-2.49-3.01-11.28-8.65-14.99-10.35-11.32-5.19-18.42-8.52-18.42-8.52,0,0-6.41,16.55-21.28,18.07-14.87,1.52-9.85-10.18-9.85-10.18l-4.04,2.59c-4.26,3.07-13.45,8.61-17.4,12.79,0,0-3.68,30.43,1.95,56.5Z"/>
      <path class="cls-27" d="M153.18,223.01l4.24-3.11c.72-.52,1.57-.84,2.46-.92l8.66-.71,9.61,7.41,2.78,1.11,1.04,12.16-5.87-.23s-12.86,3.24-14.13,2.54c-1.27-.71-3.59-2.79-3.59-2.79,0,0-6.98-1.64-7.7-2.18-2.71-2.06-1.74-2.68-1.74-2.68l-1.21-.45c-.18.43-2.1-2.19-2.04-3.59.04-.81-.2-.79-.2-.79-1.2-.56-2.08-1.62-2.42-2.9-.19-.81,3.52-2.18,3.52-2.18l8,.08-1.41-.77Z"/>
      <path d="M159.76,223.74l-8.47-9.74c-.62-.72-1.55-1.1-2.5-1.02l-15.05,1.24c-.6.05-1.05.58-1,1.18h0c.02.26.14.51.32.69l9.45,9.3h0l17.25-1.66Z"/>
      <path class="cls-5" d="M156.83,228.33c-1.66.56-3.62.6-5.36.59s-3.77-.06-5.46-.65c-.49-.17-1.2.03-1.54.41s-.21.79.26.95c1.92.68,4.16.74,6.18.75s4.32-.04,6.28-.7c.39-.13,1.03-.44.91-.97-.12-.48-.9-.51-1.27-.38h0Z"/>
      <path class="cls-5" d="M159.13,232.97c-.75.26-1.62.29-2.4.36-.89.09-1.78.11-2.67.11-1.71-.01-3.64-.05-5.27-.63-.49-.17-1.1-.03-1.53.22-.25.14-.7.6-.21.78,1.98.7,4.28.77,6.36.77s4.49-.12,6.56-.82c.28-.1.88-.45.6-.81s-1.11-.09-1.43.01h0Z"/>
      <path class="cls-5" d="M158.26,224.1h0c-.07.11-.14.23-.2.35-.14.15-.35.24-.48.3-.21.09-.09.03-.03.02.08-.02.17-.04.25-.06.06-.01.12-.02.18-.04-.08.02-.2.03-.05,0s.29-.05.43-.07c.81-.13,1.62-.24,2.44-.33s1.57-.18,2.35-.24c.26-.02.52-.03.78-.04.23-.01-.17-.01-.06,0,.04,0,.08,0,.12,0,.02,0,.05,0,.08,0,0,0-.28-.05-.35-.1l-.24-.29h0c.22.46.82.5,1.26.36.29-.09,1.13-.48.91-.94-.3-.63-1.31-.46-1.88-.43-.96.06-1.93.16-2.88.28s-1.88.24-2.81.4c-.68.12-1.79.23-2.02,1.02-.14.5.65.63.97.59.49-.06,1.07-.29,1.22-.81h0Z"/>
      <path class="cls-50" d="M158.18,224.1c-.08-.06-.16-.13-.22-.21l-.58-.62-2.19-2.33-3.16-3.49-1.86-2.06c-.33-.34-.74-.58-1.19-.69-.23-.06-.47-.09-.71-.08l-.75.06-10.43.82-3.17.22-.86.07c-.1.01-.2.01-.3,0,.1-.03.2-.05.3-.05l.86-.1,3.16-.31,10.42-.9.77-.06c.26,0,.52.03.78.09.5.13.95.4,1.31.77l1.86,2.08,3.12,3.53c.86.98,1.57,1.8,2.09,2.39.23.26.41.49.58.66.07.06.13.14.18.22Z"/>
      <path class="cls-18" d="M271.4,219.45c.23-1.15-.84-9.88-.84-9.88,0,0-1.84-19.37-3.55-34.24-2.07-18.03-4.62-23.04-10.55-25.48-5.93-2.44-11.32.34-11.32.34.94-.18-6.15,2.01-5.43,21.59.73,19.66,5.61,44.84,6.09,47.29l-66.39,6.71c1.44,4.26,1.9,6.51,1.36,10.97l-.7,5.72c15.57,2.56,46.83,2.57,66.55,2.51,7.62-.01,16.51-2.81,21.95-10.52,2.42-3.43,3.06-8.73,2.83-15.01Z"/>
      <path class="cls-56" d="M245.17,219.25c4.49.84,10.88,2.39,12.01,7.61.18.82,2.36.27,2.17-.58-1.22-5.6-8.03-7.38-12.88-8.28-.51-.1-1.16.02-1.54.41-.3.32-.26.76.23.85h0Z"/>
      <path class="cls-18" d="M121,166.46s-.88.06-2.51.7c-1.64.64-3.63,5.28-3.63,5.28,0,0-7.87-2.92-12.47-7.99-4.6-5.07-8.03-14.28-8.03-14.28,0,0,1.26-3.3,5.42-4.26,0,0,12.98,17.77,21.23,20.55Z"/>
      <path class="cls-18" d="M121,166.46s4.98.73,6.5,4.44c0,0,2.93-4.49,3.32-8.8.39-4.3.36-4,.36-4,0,0-3.82-5.01-5.92-4.45,0,0,.89,10.37-4.26,12.8Z"/>
      <path class="cls-18" d="M203.64,151.1s.88.06,2.51.7,3.63,5.28,3.63,5.28c0,0,7.87-2.92,12.47-7.99,4.6-5.07,8.03-14.28,8.03-14.28,0,0-1.26-3.3-5.42-4.26,0,0-12.98,17.77-21.23,20.55Z"/>
      <path class="cls-18" d="M203.89,151.44s-4.76,1.65-5.55,5.58c0,0-3.72-3.86-4.91-8.02s-1.1-3.86-1.1-3.86c0,0,2.81-5.64,4.99-5.48,0,0,1.07,10.35,6.58,11.78Z"/>
      <path class="cls-24" d="M196.72,138s5.99-.55,7.9-1.15,5.19-1.71,13.88-9.68c0,0-2.66,8.7-12.54,11.65,0,0-8.16,2.12-9.08.73l-.16-1.55Z"/>
      <path class="cls-21" d="M174.31,90.62s0,0,0,0c-1.29-3.31-1.88-5.38-1.27-7.86.42-1.75,3.01-3.84,3.01-3.84,0,0-.01-5.1,2.27-4.67,0,0,1.31-6.96,7.91-6.01,0,0,1.88-.75,3.12.37,0,0,2.29-6.13,8.28-2.8,0,0,1.95-1.67,2.88-.02,0,0,3.24-4.07,7.23-1.58,0,0,9.02-3.01,12.03,2.73,0,0,4.19-2.9,7.06,1.23,0,0,2.35-.09,2.77,3.25,0,0,3.6.64,4.19,2.79,0,0,2.2,1.4,2.5,4.91.09,1-.27.78-.41,2.17,2.41,3.76-.45,4.59-.45,4.59,3.43,3.34.26,8.4.26,8.4,0,0,1.83,2.69,1.25,4.63-.8,2.64-5.11,5.96-5.11,5.96,0,0-1.95-6.62-2.22-10.93-.27-4.31-4.56-11.36-5.88-12.84-1.31-1.48-8.95,2.4-21.19,3.92-12.24,1.52-14.99-.45-16.39.14-2.92,1.22-4.08,12.66-3.57,16.01.51,3.36.31,9.83.31,9.83,0,0-6.87-2.08-5.83-7.94,0,0-2.65-3.81-2.12-6.37,0,0-.03-1.03.53-1.63-.01,0-2.53-2.24-1.12-4.43Z"/>
      <path class="cls-27" d="M220.72,124.12c-4.13,6.24-9.47,10.8-16.16,13.21-6.56,2.36-12.3.92-13.38.06-5.96-4.73-8.3-8.47-11.17-14.61-.78-1.67-1.11-3.54-1.27-5.48-.24-2.91-.5-8.53-.94-11.28-1.13-7.01-1.27-13.5,1.74-19.97,6.28-13.48,25.53-16.01,33.15-13.66,8.91,2.75,13.84,10.26,15.59,18.75.57,2.77.67,5.42.32,7.94-.99,1.48-1.81,3.05-2.47,4.69"/>
      <g>
        <path d="M179.65,86.76s-.48.63-2.79,10.4c.47-3.07.3-7.55,2.01-11.99,5.97-15.49,31.56-17.19,39.27-14.27,9.01,3.42,13.45,12.23,15.42,22.13.8,4.02,2.47,9.69,1.84,13.21-.05.05-3.94,3.77-3.94,3.77,0,0-5.11-3.33-6.89,1.97l-1.14-1.98s-3.73-4.41-5.09-16.49c0,0-.76-5.08-.92-6.62-.48-4.74-4.25-3.19-6.85-2.05-1.62.71-5.22,1.52-6.97,1.73-4.46.54-10.18.62-12.25.94-2.92.45-11.71-.74-11.71-.74Z"/>
        <path d="M179.46,86.8c-.29.4-.39,1.08-.53,1.54-.87,2.92-1.56,5.9-2.26,8.86l.38-.09c.32-2.18.37-4.38.67-6.56.33-2.36.91-4.71,1.97-6.86,1.37-2.79,3.48-5.15,5.96-7.02,5.16-3.89,11.7-5.79,18.05-6.53,2.79-.33,5.62-.44,8.43-.25,2.21.15,4.44.48,6.49,1.34,7.62,3.19,11.84,10.66,13.92,18.31.56,2.07.95,4.18,1.42,6.27.5,2.22,1.02,4.44,1.26,6.7.11,1,.17,2.01.08,3.01-.02.26,0,.6-.16.81-.1.15-.28.27-.41.4-.93.89-1.86,1.78-2.79,2.67-.22.21-.44.42-.66.63l.36-.08c-.92-.59-2.05-.99-3.14-1.04-2.07-.1-3.47,1.23-4.12,3.11l.38-.09c-1.11-1.93-2.36-3.74-3.22-5.8-2.03-4.87-2.64-10.08-3.39-15.26-.17-1.16-.34-2.33-.48-3.49-.13-1.1-.24-2.32-1.08-3.13-1.39-1.34-3.75-.43-5.25.19-2.67,1.1-5.47,1.82-8.35,2.13-3.34.36-6.69.44-10.04.7-.97.08-1.93.24-2.9.26-1.21.02-2.42-.05-3.63-.14-2.1-.15-4.19-.38-6.27-.65-.12-.02-.24-.03-.36-.05-.09-.01-.42.14-.32.15,1.47.2,2.96.37,4.44.51,2.27.22,4.62.49,6.9.29,2.77-.25,5.54-.41,8.32-.6,3.08-.21,6.08-.55,9.06-1.35,1.16-.31,2.25-.74,3.36-1.19,1.04-.42,2.22-.88,3.37-.73,2.51.33,2.36,3.66,2.62,5.56.73,5.23,1.28,10.55,3.09,15.54.55,1.5,1.19,3,2.04,4.36.42.67.81,1.24,1.21,1.93l.51.88c.05.08.36,0,.38-.09.34-.97.85-1.94,1.76-2.49.73-.44,1.59-.47,2.4-.31s1.65.48,2.36.93c.08.05.29-.02.36-.08.76-.72,1.51-1.44,2.27-2.16.44-.42.89-.85,1.33-1.27.36-.34.39-.45.45-.98.23-2.23-.21-4.53-.65-6.71-.45-2.22-.96-4.42-1.43-6.63-1.69-7.93-5.3-16.17-12.73-20.24-4.67-2.56-10.24-2.64-15.43-2.19-6.29.54-12.74,2.17-18.15,5.52-2.64,1.64-5.02,3.73-6.76,6.32-2.49,3.7-3.18,8.06-3.54,12.43-.09,1.04-.17,2.09-.32,3.12,0,.05.36,0,.38-.09.7-2.96,1.39-5.94,2.26-8.86.13-.45.23-1.14.53-1.54.02-.03-.31-.02-.38.07Z"/>
      </g>
      <path class="cls-27" d="M223.1,117.78c4.09,3.14,6.62-2.3,6.62-2.3,2.83-4.64,2.18-9.05,1.61-12.05-.57-3-3.88-2.46-3.88-2.46-2.77.72-2.32.99-4.96,9.57"/>
      <path d="M203.98,104.87c.77-.51,1.77-.24,2.35.18.14.1.51.38.72.9.27.67.08,1.47-.3,1.99-.51.69-1.46.9-2.23.63-1.05-.36-1.5-1.53-1.34-2.43.03-.16.17-.86.8-1.27"/>
      <path d="M200.01,108.83s2.49-4.2,5.53-4.53c4.29-.47,5.52,1.71,6.56,2.79,0,0-3.05-2.49-6.36-2.05-3,.4-5.74,3.79-5.74,3.79Z"/>
      <path d="M182.92,107.03c-.81-.35-1.66.11-2.11.64-.11.12-.39.47-.48,1.03-.12.71.22,1.46.67,1.89.6.58,1.51.6,2.16.18.88-.56,1.06-1.79.74-2.65-.06-.16-.33-.81-.98-1.09"/>
      <path d="M188.7,110.08s-2.85-3.62-5.49-3.33c-3.71.4-4.36,2.78-5.05,4.05,0,0,2.13-3.05,5.01-3.28,2.61-.21,5.53,2.56,5.53,2.56Z"/>
      <g>
        <path d="M192.96,120.34c.84.33,2.04.09,2.78-.5.16-.13.77-.09.54.09-.98.78-2.71,1.04-3.8.62-.11-.04-.1-.12.02-.18.13-.06.34-.07.45-.03"/>
        <path d="M196.6,119.67c.5-.31,1.09-.52,1.68-.63.09-.02.2,0,.27.05.06.04.07.1.01.14-.26.19-.6.3-.92.33-.1,0-.24,0-.31-.08-.06-.07.03-.14.11-.15.27-.03.53-.11.74-.27.1.07.19.13.29.2-.53.1-1.05.29-1.5.57-.09.06-.23.04-.32,0-.07-.03-.15-.11-.06-.17"/>
        <path d="M198.98,119.47c.7-.1,1.48-.5,1.77-1.06.43-.86-.22-2.14-1.15-2.55-.1-.04-.06-.12.03-.15.12-.04.28-.01.38.03.81.36,1.44,1.41,1.41,2.17-.03.71-.64,1.27-1.45,1.57-.24.09-.5.16-.76.2-.11.01-.3,0-.36-.07-.06-.08.03-.13.13-.14"/>
        <path d="M191.64,120.13c.03-.09-.05-.13-.1-.12-.19.03-.39,0-.56-.12-.05.08-.11.17-.16.25.38,0,.78.08,1.14.27.07.04.17,0,.22-.06.04-.04.08-.14,0-.17"/>
        <path d="M192.18,120.17c-.41-.21-.85-.29-1.28-.29-.06,0-.14.04-.18.11-.03.05-.03.11.02.14"/>
        <path d="M190.2,120.39c-.46.03-1.03-.21-1.31-.71-.43-.76-.23-1.74.28-2.31.06-.06.01-.13-.05-.14-.08-.02-.18.04-.23.11-.44.5-.68,1.26-.52,2,.15.69.64,1.13,1.21,1.27.17.04.35.06.52.05.07,0,.19-.05.21-.14.02-.09-.04-.12-.11-.11"/>
      </g>
      <path d="M197.08,100.77c.31.61.62,1.23.92,1.84.24.47.47.94.71,1.4,1.18-1.08,2.94-2.32,3.75-2.94,1.6-1.22,3.33-2.35,5.27-2.94.93-.29,1.8-.42,2.75-.31.3.04,1.23.38,1.48.04.1-.14-.5-.78-.56-.85-1.22-1.29-2.75-1.32-4.4-.95-3.38.76-6.36,2.36-9.21,4.3"/>
      <path d="M176.58,101.39c.24-.37.45-.75.59-1.18.35-.05.71-.08,1.08-.09,3.41-.06,6.63.79,9.8,2-.16.67-.31,1.34-.47,2.01-.12.51-.24,1.02-.36,1.53-1.38-.77-2.58-1.35-3.49-1.75-1.81-.81-3.73-1.49-5.72-1.61-.58-.04-1.12-.02-1.66.07l.22-.98Z"/>
      <path class="cls-39" d="M195.92,124.06c3.02-.48,7.85-1.27,7.85-1.27,0,0,.25,7.08-6.74,8.2-6.99,1.12-8.3-6.02-8.3-6.02,0,0,4.17-.42,7.18-.91Z"/>
      <path class="cls-23" d="M195.89,124.07c1.43-.23,7.18-1.02,7.18-1.02,0,0-1.5,4.48-6.69,5.32-5.62.9-6.66-3.08-6.66-3.08l6.16-1.22Z"/>
      <path class="cls-28" d="M195.87,124.34c1.43-.23,5.77-.8,5.77-.8,0,0-1.28,1.75-5.58,2.45-4.3.69-5.95-.54-5.95-.54l5.76-1.12Z"/>
      <path class="cls-39" d="M188.52,124.7c.15-.07.15-.07.85-.26,1.18-.32,1.6-.89,2.46-1.11,1.46-.38,2.52.18,3.17.08.65-.1,1.47-.97,2.98-1.07.88-.06,3.12.42,4.34.35.73-.04,1.27-.05,1.43-.03.22.03.35,1.11-7.77,2.42s-7.67-.28-7.47-.38Z"/>
      <path class="cls-5" d="M224.84,109.7c.46-1.68.99-3.41,1.87-4.93.03-.05.06-.1.09-.16.04-.07,0,0,.02-.04.02-.03.03-.05.05-.08.06-.09.12-.18.18-.27.1-.14.22-.28.34-.4.01-.01.02-.02.04-.04.05-.05-.03.02-.02.02.03-.02.05-.05.08-.07.04-.04.09-.07.13-.11.02-.01.04-.03.06-.04.08-.06-.06.03-.01,0,.03-.02.06-.04.1-.05.01,0,.03-.01.05-.02.06-.03-.12.03-.04.02.02,0,.05,0,.06-.02.04-.02-.13.01-.05.01.06,0-.08,0-.08,0l-.16-.06c.07.04.14.09.2.13.08.05.15.11.22.17.04.04.08.07.13.11.02.02.04.04.06.05,0,0,.04.04.02.01-.03-.03.02.02.02.02.48.5.83,1.09,1.01,1.76.15.53.18,1.08.14,1.63-.03.39.71.3.74-.05.09-1.26-.23-2.54-1.07-3.5-.23-.26-.48-.5-.76-.69-.12-.09-.25-.16-.41-.15-.29.02-.57.18-.78.36-.52.43-.89,1.03-1.2,1.62-.77,1.45-1.27,3.06-1.7,4.64-.11.41.61.42.7.1h0Z"/>
      <path class="cls-5" d="M225.1,110.47s.07,0,.07,0c.04,0,.08,0,.11,0,.08.01.16.04.23.08.13.08.22.2.28.34.15.36.15.79.14,1.17,0,.41-.05.83-.02,1.25.02.28.09.66.41.73.26.06.62-.05.83-.21.15-.12.25-.3.32-.48.26-.62.35-1.33.41-1.99.04-.46.11-.95.05-1.41-.05-.33-.11-.66-.21-.98-.28-.99-.84-2.07-1.93-2.31-.16-.03-.36.03-.51.1-.06.03-.25.14-.09.17.93.2,1.44,1.13,1.72,1.96.2.6.33,1.2.3,1.83-.03.76-.1,1.53-.29,2.26-.06.24-.14.49-.26.72-.04.06-.08.11-.12.17,0,0-.04.05-.02.02h0c.13-.07.27-.11.43-.1,0,0-.03,0-.06-.02-.25-.15-.26-.54-.26-.79-.01-.41.02-.82.03-1.23s0-.85-.22-1.19c-.26-.41-.76-.39-1.19-.32-.1.02-.39.07-.43.19s.25.06.29.05h0Z"/>
      <path class="cls-4" d="M141.8,130.37s8.08,1.03,9.05,6.12l.23,3.61s3.72.23,3.88,2.79"/>
      <path class="cls-19" d="M95.48,107.38s-4.26-25.81,11.03-23.57c0,0,1.56-2.35,4.99-3.56,4.07-1.43,7.25,1.6,7.25,1.6,0,0,3.88-2.29,7.05-1.09,3.18,1.2,4.05,3.34,4.05,3.34,0,0,4.28-1.09,6.86.89,2.58,1.98,4.02,5.23,4.02,5.23,0,0,2.48.11,3.85,1.13,3.26,2.45,2.01,10.54,1.9,13.48,0,0-1.01-10.19-4.13-11.21-3.12-1.02-32.45-.32-32.45-.32l-13.25,23.38-1.18-9.3Z"/>
      <path class="cls-24" d="M107.74,140.79s2.33,9.81,17.36,13.52c0,0,.31-3.61.46-4.26l-1.58-.07-16.25-9.19Z"/>
      <path class="cls-27" d="M102.07,134.57c4.03,6.13,13.53,14.3,20.08,16.68,6.43,2.34,8.98.47,10.05-.37,5.86-4.62,9.97-9.58,12.8-15.59.77-1.63,1.1-3.47,1.26-5.37.25-2.86.52-8.36.96-11.06,1.13-6.87-1.04-13.29-3.97-19.64-6.11-13.23-22.65-15.73-30.13-13.45-8.75,2.67-13.6,10.02-15.35,18.33-.57,2.71-.67,5.31-.34,7.78.97,1.46,1.77,3,2.4,4.6"/>
      <g>
        <path d="M143.46,96.42s1.17,4.43,3.51,13.35c-.48-2.8-.36-6.88-2.06-10.94-5.96-14.18-29.77-15.93-37.29-13.38-8.79,2.98-13.07,10.94-14.92,19.92-.75,3.65-1.25,5.97-.61,9.18.05.05.59.82.59.82,0,0,7.19,2.52,8.96,7.37l.68-3.89s.57-2.37,3.89-11.03c0,0,.38-1.4,3.75-6.71,3.37-5.31,6.24-6.55,6.24-6.55,0,0,12.34-.18,15.2.27,2.86.45,12.07,1.59,12.07,1.59Z"/>
        <path d="M143.28,96.47c1.18,4.45,2.34,8.9,3.51,13.35.05.17.39.08.36-.1-.37-2.22-.43-4.48-.83-6.7s-1.07-4.22-2.16-6.11c-1.54-2.69-3.81-4.89-6.37-6.6-5.33-3.55-11.85-5.23-18.16-5.79-5.4-.48-11.02-.31-15.81,2.51-3.28,1.93-5.85,4.81-7.69,8.12-2.05,3.68-3.13,7.73-3.95,11.84-.44,2.21-.75,4.42-.44,6.66.08.62.23,1.37.76,1.79.13.1.34.15.49.21,2.65,1.06,5.34,2.63,7.14,4.87.55.68,1,1.43,1.31,2.26.06.16.34.09.37-.06.23-1.3.4-2.64.69-3.93.23-.99.6-1.97.93-2.93.92-2.7,1.99-5.49,2.96-8.07.55-1.48,1.4-2.85,2.21-4.2,1.74-2.92,3.6-5.94,6.32-8.06.39-.3.85-.7,1.33-.87-.12.04-.01.01.11.02.25,0,.5,0,.75,0,4.42-.05,8.9-.18,13.31.18,2.05.17,4.09.55,6.13.82,2.15.28,4.3.55,6.44.82.13.02.27.03.4.05.18.02.37-.24.12-.27-4.05-.5-8.09-1.03-12.13-1.6-2.04-.29-4.15-.25-6.21-.28-2.39-.03-4.78-.03-7.17,0-.86,0-1.65-.14-2.39.32-2.27,1.39-4.04,3.64-5.49,5.82s-2.9,4.42-3.92,6.8c-.94,2.18-1.7,4.47-2.5,6.71-.53,1.48-1.06,2.97-1.49,4.49-.31,1.11-.43,2.28-.63,3.41l-.14.8.37-.06c-1.12-2.96-3.91-4.97-6.63-6.37-.75-.39-1.59-.64-2.32-1.04-.13-.08-.01.01-.07-.05-.18-.18-.42-.51-.53-.74-.21-.44-.2-1.15-.24-1.63-.05-.6-.06-1.2-.04-1.8.09-2.28.62-4.56,1.13-6.77.46-2.01,1.06-4,1.84-5.91,1.46-3.57,3.59-6.92,6.58-9.4,2.39-1.98,5.28-3.42,8.34-3.96,2.5-.44,5.09-.49,7.62-.38,6.22.29,12.64,1.68,18.12,4.72,2.69,1.49,5.17,3.43,7.03,5.9,2.57,3.42,3.4,7.48,3.81,11.66.09.96.18,1.93.34,2.89l.36-.1c-1.16-4.45-2.33-8.9-3.51-13.35-.05-.17-.41-.07-.36.1Z"/>
      </g>
      <path class="cls-27" d="M101.87,130.13c-4.25,2.74-5.84-3.44-5.84-3.44-2.4-4.76-2.23-9.27-1.43-12.15.8-2.88,3.99-2.1,3.99-2.1,2.65.93,2.19,1.16,4.08,9.75"/>
      <path d="M122.87,118.86c-.77-.43-1.73-.25-2.29.06-.13.07-.49.28-.68.69-.25.52-.04,1.16.35,1.58.52.56,1.45.76,2.19.57,1.01-.25,1.42-1.16,1.24-1.87-.03-.13-.19-.68-.82-1.03"/>
      <path d="M126.34,121.86s-2.49-3.65-5.48-4.01c-4.2-.49-5.37,1.35-6.38,2.26,0,0,2.95-2.07,6.19-1.62,2.94.4,5.67,3.37,5.67,3.37Z"/>
      <path d="M141.82,120.97c.83-.24,1.74.16,2.23.59.12.1.42.39.54.83.15.56-.18,1.14-.63,1.46-.61.43-1.56.4-2.25.05-.94-.48-1.18-1.46-.87-2.12.06-.12.32-.62.99-.82"/>
      <path d="M137.1,123.02s2.57-3.06,4.97-2.77c3.38.4,4,2.45,4.63,3.56,0,0-1.97-2.65-4.59-2.9-2.38-.22-5.02,2.11-5.02,2.11Z"/>
      <path d="M147.98,117.29s.04-.25.05-.27c-.27-.46-.65-.87-1.09-1.27-2.19-1.95-3.51-2.52-7.91-3.46l-.05.09c-.28.53-.12.23-.4.76-.21.4-.42.81-.63,1.21,1.34.26,2.36.33,3.19.57,1.64.49,3.62.83,4.98,1.87.44.34.96.77,1.29,1.32.19-.35.37-.48.57-.83Z"/>
      <path d="M127.96,110.13c.1.59.05.26.15.85.08.45.16.9.23,1.35-1.51-.12-2.61-.35-3.57-.34-1.9,0-4.11-.22-5.93.4-.87.3-2.04.58-2.53,1.5-.13.25-.39,1.25-.77,1.15-.16-.04-.05-.8-.04-.88.22-1.55,1.37-2.38,2.85-3,3.01-1.27,4.61-1.45,9.59-1.12"/>
      <g>
        <path d="M132.32,132.85c-.83.32-2,.08-2.73-.5-.16-.13-.75-.09-.53.09.96.76,2.66,1.03,3.72.62.11-.04.1-.12-.02-.18-.12-.06-.33-.07-.44-.03"/>
        <path d="M128.75,132.18c-.49-.31-1.06-.51-1.64-.62-.08-.02-.2,0-.27.05-.05.04-.07.1-.01.14.25.19.59.29.9.32.1.01.23,0,.3-.08.06-.07-.03-.14-.11-.14-.26-.03-.52-.11-.73-.26-.09.06-.19.13-.28.19.52.1,1.03.29,1.47.56.09.06.23.04.31,0,.07-.03.14-.11.06-.16"/>
        <path d="M126.42,131.98c-.68-.1-1.45-.49-1.73-1.05-.41-.84.22-2.09,1.13-2.49.1-.04.06-.12-.03-.15-.12-.04-.27-.01-.37.03-.8.35-1.41,1.38-1.39,2.12.02.7.62,1.25,1.42,1.55.24.09.49.16.75.19.1.01.29,0,.35-.07.06-.08-.03-.12-.13-.14"/>
        <path d="M133.61,132.65c-.03-.08.05-.13.1-.12.18.03.38,0,.55-.11.05.08.1.16.15.24-.38,0-.76.07-1.12.26-.07.04-.16,0-.22-.06-.04-.04-.08-.13,0-.17"/>
        <path d="M133.08,132.69c.4-.2.83-.29,1.25-.28.06,0,.14.04.17.1.03.05.03.11-.02.14"/>
        <path d="M135.02,132.92c.45.04,1.01-.2,1.29-.69.42-.74.23-1.7-.27-2.27-.05-.06-.01-.13.05-.14.08-.02.17.04.23.1.43.49.66,1.23.5,1.96-.15.68-.63,1.1-1.19,1.24-.17.04-.34.06-.51.05-.07,0-.19-.05-.21-.14-.02-.09.04-.12.11-.11"/>
      </g>
      <path class="cls-20" d="M146.08,94.39c-1.16-1.23-3.53-2.97-5.9-3.59-.1-.03-.2-.05-.29-.07l-1.39.23h-.05s.03,0,.05,0c.25-.06.8-.21.66-.54-.05-.12-.19-.25-.45-.41-.39-.23-1-.49-1.68-.74,0,0,0,0,0-.01-.07-.02-.13-.04-.2-.06-.06-.02-.13-.05-.19-.07,0,0,0,0,0,.01-.69-.2-1.34-.36-1.79-.4-.31-.03-.5,0-.61.06-.31.18.04.63.21.82.01.01.03.03.04.04l-.03-.04-.99-1.01c-.09-.04-.18-.08-.27-.12-2.81-1.12-8.06-.24-8.6-.02-.53.22-.43.89-.43.94l-.6-.87s-3.88.21-4.6.44c-.73.23-1.33,1.16-1.33,1.16,0,0-1.17.04-1.51-.21-.34-.24-2.62.13-3.8,1.02-.76.57-.8,1.33-1.27,1.9h0c-.26.32-.43.54-.43.54h-2.24c-1.87.26-2.56,3.72-2.56,3.72-4.46,2.86-5.71,6.13-5.46,10.18.1,1.56-4.3,1.66-1.75,2.43,2.58.79,3.86,10.48,3.86,10.48,0,0,1.39-3.4,1.97-4.82.58-1.42,1.28-5.95,1.28-5.95l1.29.23s.85-.06,2.29-1.41c1.44-1.35.75-4.81.75-4.81l.1-1.92,2.35.95c2.45.36,3.41-2.11,3.41-2.11l.97-4.32.93,1.86s.32.84,1.14,1.04c3.69.91,4.85-1.2,4.85-1.2l1.17-1.95.71.91c.71,1.11,3.26,3.3,4.98,3.15.45-.04,2.53-.78,2.86-.87.95-.31,1.51-1.18,1.79-1.77.6,1.13,1.48,2.37,2.52,2.76,1.26.47,4.19.84,4.72.37.36-.32-.03-.5.43-.33.4.15.66.56.82.94,0,0,.2,3.86,3.04,6.16,2.84,2.3,5.13-5.56,2.48-7.63,0,0,.84-4.31-3.23-5.11Z"/>
      <path class="cls-19" d="M97.81,92.8s-3.75.13-5.31,1.79c-4.03,4.27-5.2,18.02-2.85,21.18l3.34.98,4.82-23.95Z"/>
      <path class="cls-4" d="M90.38,115.11s-4.89-1.8-6.55,1.06l-.77,1.36s-5.22-2.75-7.62-.56c-2.39,2.19-4.14,7.3-4.14,7.3"/>
      <path class="cls-28" d="M128.73,137.65c-1.6-.27-6.44-.96-6.44-.96,0,0,1.43,1.86,6.23,2.68,4.8.82,6.65-.42,6.65-.42l-6.44-1.29Z"/>
      <path class="cls-23" d="M130.07,136.34c-2.25-.44-7.53.17-8.72.98,0,0,1.58,3.68,6.8,4.7,5.22,1.02,7.07-1.98,7.07-1.98,0,0-2.28-3.15-5.14-3.71Z"/>
      <path class="cls-22" d="M123.68,136.62s2.91.31,5.18.76,5.08,1.26,5.08,1.26c0,0,.73-1.77-3.4-2.59s-6.86.57-6.86.57Z"/>
      <path class="cls-39" d="M128.99,141.27c-2.36-.88-4.76-3.59-7.65-3.94,0,0,.16,5.11,6.29,6.31,6.13,1.2,7.57-3.59,7.57-3.59-2.81-.76-3.7,1.3-6.22,1.22Z"/>
      <path class="cls-39" d="M133.01,135.46c-1.27-.36-2.19.04-2.75-.07s-1.27-.84-2.58-.98c-1.23-.13-7,2.28-6.52,2.83.48.55,4.93-1.18,8.81-.41,3.88.76,4.77,3.54,5.43,3.21.66-.33-1.21-4.24-2.4-4.58Z"/>
      <path class="cls-5" d="M130.54,113.75c.84.11,1.74-.1,2.5-.44.52-.23,1-.55,1.35-1.01.61-.8.64-1.91.37-2.83-.03-.12-.3-.11-.37-.11-.26,0-.54.05-.79.12s-.52.15-.75.29c-.08.05-.3.16-.26.29.17.58.22,1.19.09,1.78l.02-.09c-.06.24-.14.48-.26.69-.11.19-.25.37-.36.47-.04.04-.2.21-.25.2.07-.05.09-.06.04-.03-.02.01-.05.03-.07.04-.16.09.17-.07.02,0,.17-.06.2-.08.1-.04l.18-.06c-.17.05.25-.05.3-.05-.18.02.22-.02,0,0-.05,0-.04,0,.05,0-.04,0-.07,0-.11-.01-.49-.06-1.07.09-1.51.3-.14.07-.38.15-.45.3-.06.12.06.17.17.19h0Z"/>
      <path class="cls-27" d="M82.29,208.62c-3.07-.44-6.13-.95-9.08-1.7-4.75-1.21-8.9-5.37-13.77-6.07-2.5,11.55-3.84,32.13-4.17,34.61-2.01,15.2,8.87,67.03,8.87,67.03l11.29-.29s2.47-42.18,1.67-63.64l5.19-29.94Z"/>
      <path class="cls-27" d="M80.71,332.31c-1.61-2.89-3.72-6.82-3.6-7.4s.37-4.59.58-8.1c.03-1.79,1.37-3.3,3-3.36.42-.02,2.23,8.2,5.64,6.94l-.17-7.32c-.37-2.34-1.01-4.61-1.9-6.74-1.27-2.57-8.88-9.54-8.88-9.54l-.62-8.74-12.68,2.6,1.6,9.08-2.15,9.06s-.54,17.05.73,19.03c1.27,1.98,5.82,4.01,5.82,4.01,1.25,2.91,5.37,2.95,5.37,2.95,3.54,3.96,4.28.38,4.28.38.09.17.22.3.38.39,1.71.94,3.56-1.52,2.59-3.24Z"/>
      <path class="cls-2" d="M72.08,320.42c-.49,2.4-.46,4.86.07,7.18.73,2.25,1.99,4.21,3.66,5.69.61.69,1.32,1.26,2.1,1.7"/>
      <path class="cls-2" d="M68.27,321.18c-.16.99-.25,1.98-.27,2.98-.07,1.25.09,2.48.47,3.63.47,1.06,1.06,2.05,1.75,2.95l1.61,2.18c.45.72,1,1.36,1.63,1.89"/>
      <path class="cls-2" d="M64.68,321.7c-.29,0-.37,1.48-.28,5.12.02.5.16.98.41,1.4.18.36.39.71.62,1.04.37.57.79,1.09,1.25,1.56.8.81,1.43,1.12,1.47,1.03"/>
      <path class="cls-18" d="M58.98,191.27c.9-12.13,2.08-17.75,8.35-25.6,0,0,0-.01.01-.02.92-1.15,2.4-1.68,3.85-1.47,1.9.27,3.76.63,5.63,1.53,2.53,1.22,5.33,2.75,7.32,4.77,4.25,4.31,4.25,11.17,3.78,16.85-.33,4,0,9.06-.65,15.46-.58,5.64-.64,12.68-1.09,17.1-26.25,4.29-30.92-4.15-30.92-4.15,0,0,3.32-19.13,3.71-24.47Z"/>
    </g>
  </g>
</svg>