<?xml version="1.0" encoding="UTF-8"?>
<svg xmlns="http://www.w3.org/2000/svg" viewBox="0 0 1334 1000">
  <defs>
    <style>
      .cls-1 {
        fill: #914620;
      }

      .cls-2 {
        fill: #939393;
      }

      .cls-3 {
        fill: #f9a268;
      }

      .cls-4 {
        fill: #efe7cf;
      }

      .cls-5 {
        fill: #afce36;
        stroke: #fff;
        stroke-miterlimit: 10;
        stroke-width: 2px;
      }

      .cls-6, .cls-7, .cls-8 {
        fill: #010101;
      }

      .cls-9 {
        fill: #f8dcb5;
      }

      .cls-10 {
        fill: #64bc46;
      }

      .cls-11 {
        fill: #e9cba6;
      }

      .cls-12 {
        fill: #cc7c3b;
      }

      .cls-13 {
        fill: #1d1d1b;
      }

      .cls-14 {
        fill: #d99b68;
      }

      .cls-15 {
        fill: #969992;
      }

      .cls-16 {
        isolation: isolate;
      }

      .cls-17 {
        fill: #c2c1c0;
      }

      .cls-18 {
        fill: #584845;
      }

      .cls-19 {
        fill: #2d2323;
      }

      .cls-20 {
        fill: #ee312d;
      }

      .cls-21 {
        fill: #fff;
      }

      .cls-22 {
        fill: #fbf5ac;
        opacity: .5;
      }

      .cls-23 {
        fill: #6aba5d;
      }

      .cls-7 {
        opacity: .3;
      }

      .cls-8 {
        opacity: .4;
      }

      .cls-24 {
        fill: #dbc0a2;
      }

      .cls-25 {
        fill: #f39350;
      }

      .cls-26 {
        fill: #e7773c;
      }

      .cls-27 {
        fill: #7f7f7f;
      }

      .cls-28 {
        mix-blend-mode: soft-light;
      }

      .cls-29 {
        fill: #3b9e47;
      }

      .cls-30 {
        fill: #a8a8a8;
      }

      .cls-31 {
        fill: #ec8a9b;
      }

      .cls-32 {
        fill: #e13e58;
      }

      .cls-33 {
        fill: #d3d3d3;
      }

      .cls-34 {
        fill: #6f736a;
      }

      .cls-35 {
        fill: #f37b7e;
      }
    </style>
  </defs>
  <g class="cls-16">
    <g id="Layer_1" data-name="Layer 1">
      <polyline class="cls-4" points="1359.66 1089.82 1359.66 -55.91 -47.38 -55.91 -47.38 1089.82"/>
      <path class="cls-30" d="M272.3,131.37v1733.74h800.31V131.37c0-52.76-42.88-95.53-95.77-95.53H368.07c-52.89,0-95.77,42.77-95.77,95.53Z"/>
      <rect class="cls-17" x="364.87" y="35.84" width="615.18" height="1829.27"/>
      <rect class="cls-33" x="720.06" y="117.9" width="228.15" height="28.52" rx="3.56" ry="3.56"/>
      <rect class="cls-34" x="764.28" y="121.75" width="59.19" height="20.82"/>
      <path class="cls-15" d="M781.01,132.16c0,3.27-2.65,5.92-5.92,5.92s-5.92-2.65-5.92-5.92,2.65-5.92,5.92-5.92,5.92,2.65,5.92,5.92Z"/>
      <path class="cls-15" d="M799.79,132.16c0,3.27-2.65,5.92-5.92,5.92s-5.92-2.65-5.92-5.92,2.65-5.92,5.92-5.92,5.92,2.65,5.92,5.92Z"/>
      <path class="cls-10" d="M818.57,132.16c0,3.27-2.65,5.92-5.92,5.92s-5.92-2.65-5.92-5.92,2.65-5.92,5.92-5.92,5.92,2.65,5.92,5.92Z"/>
      <path class="cls-27" d="M449.6,741.56c0,12.52-10.15,22.67-22.67,22.67s-22.67-10.15-22.67-22.67,10.15-22.67,22.67-22.67,22.67,10.15,22.67,22.67Z"/>
      <path class="cls-2" d="M442.57,799.59c0,60.08-7,146.67-15.64,146.67s-15.64-86.59-15.64-146.67,7-70.89,15.64-70.89,15.64,10.81,15.64,70.89Z"/>
      <path class="cls-21" d="M523.19,309.82c17.45,102.44,19.1,207.84,4.87,310.54,91.32,20.71,187.08,17.06,276.4-10.53,3.62-1.12,7.46-2.45,9.76-5.66,2.95-4.13,2.4-9.96,1.74-15.16-11.62-91.51-12.49-184.5-2.58-276.03-94.73,10.45-190.6,9.72-285.37-2.16"/>
      <g>
        <path class="cls-7" d="M752.67,353.15c-26.5.44-47.45-25.07-46.82-50.89,0-2.72,2.2-4.92,4.92-4.92h83.8c5.19.27,5.22,5.01,4.77,9.04-.35,4.82-1.34,9.6-2.96,14.16-2.37,6.72-6.12,12.96-11.01,18.15-8.35,8.97-20.38,14.54-32.7,14.46ZM717.18,307.19c1.85,20.44,19.69,38.5,40.47,35.92h0c18.04-1.92,31.3-18.43,32.96-35.92h-73.42ZM783,335.31h0,0Z"/>
        <path class="cls-21" d="M749.98,349.42c-26.5.44-47.45-25.07-46.82-50.89,0-2.72,2.2-4.92,4.92-4.92h83.8c5.19.27,5.22,5.01,4.77,9.04-.35,4.82-1.34,9.6-2.96,14.16-2.37,6.72-6.12,12.96-11.01,18.15-8.35,8.97-20.38,14.54-32.7,14.46ZM713.27,303.45c1.85,20.44,19.69,38.5,40.47,35.92h0c18.04-1.92,31.3-18.43,32.96-35.92h-73.42ZM779.09,331.58h0,0Z"/>
        <g>
          <path class="cls-19" d="M749.98,345.27c-24.15.35-43.23-22.87-42.67-46.74-.16-2.22,83.79-.03,84.57-.77,3.66,22.93-18.34,48.25-41.9,47.51ZM708.86,299.31c1.8,58.43,80.46,58.39,82.24,0h-82.24Z"/>
          <path class="cls-23" d="M791.88,298.53c-1.44,60.61-82.33,60.68-83.8,0h83.8Z"/>
          <path class="cls-32" d="M789.12,298.53c-1.17,56.33-76.84,56.94-78.28,0h78.28Z"/>
          <path class="cls-19" d="M754.28,322.43c-1.58,1.43-7.03,1.43-8.61,0-1.85-1.3-1.78-3.4-.67-4.34,1.66-1.42,3.82.39,4.98.39s3.32-1.81,4.98-.39c1.11.94,1.17,3.04-.67,4.34Z"/>
          <path class="cls-31" d="M754.28,322.43c-1.58,1.43-7.03,1.43-8.61,0,1.31-2.39,7.3-2.39,8.61,0Z"/>
          <path class="cls-19" d="M744.17,309.08c-.01,2.75-4.2,2.75-4.21,0,.01-2.75,4.2-2.75,4.21,0Z"/>
          <path class="cls-19" d="M755.78,309.08c.01,2.75,4.2,2.75,4.21,0-.01-2.75-4.2-2.75-4.21,0Z"/>
          <g>
            <path class="cls-18" d="M749.98,336.37c2.03,0,1.72-2.99,0-4.87-1.72,1.87-2.03,4.87,0,4.87Z"/>
            <path class="cls-18" d="M717.61,308.91c.64,1.92,3.38.7,4.62-1.53-2.32-1.05-5.26-.4-4.62,1.53Z"/>
            <path class="cls-18" d="M728.92,327.07c1.64,1.19,3.15-1.42,2.85-3.95-2.5.51-4.49,2.76-2.85,3.95Z"/>
            <path class="cls-18" d="M782.35,308.91c-.64,1.92-3.38.7-4.62-1.53,2.32-1.05,5.26-.4,4.62,1.53Z"/>
            <path class="cls-18" d="M771.04,327.07c-1.64,1.19-3.15-1.42-2.85-3.95,2.5.51,4.49,2.76,2.85,3.95Z"/>
          </g>
          <path class="cls-21" d="M742.28,308.38c.02,1.03-1.6,1.03-1.59,0-.02-1.03,1.6-1.03,1.59,0Z"/>
          <path class="cls-21" d="M758.1,308.38c.02,1.03-1.6,1.03-1.59,0-.02-1.03,1.6-1.03,1.59,0Z"/>
        </g>
      </g>
      <g>
        <path class="cls-7" d="M600.54,300.53c0,18.13-14.69,32.82-32.82,32.82s-32.82-14.69-32.82-32.82,14.69-32.82,32.82-32.82,32.82,14.69,32.82,32.82Z"/>
        <path class="cls-5" d="M597.34,297.65c0,16.73-13.57,30.3-30.3,30.3s-30.3-13.57-30.3-30.3,13.57-30.3,30.3-30.3,30.3,13.57,30.3,30.3Z"/>
        <path class="cls-13" d="M577.96,303.96c.36-.62,1.43-.67,2.39-.12.96.55,1.45,1.51,1.09,2.13-.36.62-1.43.67-2.39.12-.96-.56-1.45-1.51-1.09-2.13Z"/>
        <path class="cls-13" d="M579.65,297.65c0-.72.9-1.3,2.01-1.3,1.11,0,2.01.58,2.01,1.3,0,.72-.9,1.3-2.01,1.3s-2.01-.58-2.01-1.3Z"/>
        <path class="cls-13" d="M577.96,291.35c-.36-.62.13-1.57,1.09-2.13.96-.56,2.03-.5,2.39.12.36.62-.13,1.57-1.09,2.13-.96.55-2.03.5-2.39-.12Z"/>
        <path class="cls-22" d="M577.74,297.65c0,5.91-4.79,10.7-10.7,10.7s-10.7-4.79-10.7-10.7,4.79-10.7,10.7-10.7,10.7,4.79,10.7,10.7Z"/>
        <path class="cls-13" d="M554.43,297.65c0,.72-.9,1.3-2.01,1.3s-2.01-.58-2.01-1.3.9-1.3,2.01-1.3,2.01.58,2.01,1.3Z"/>
        <path class="cls-13" d="M556.12,303.96c.36.62-.13,1.57-1.09,2.13-.96.55-2.03.5-2.39-.12-.36-.62.13-1.57,1.09-2.13.96-.56,2.03-.5,2.39.12Z"/>
        <path class="cls-13" d="M560.73,308.58c.62.36.67,1.43.12,2.39-.55.96-1.51,1.45-2.13,1.09-.62-.36-.67-1.43-.12-2.39.56-.96,1.51-1.45,2.13-1.09Z"/>
        <path class="cls-13" d="M567.04,310.27c.72,0,1.3.9,1.3,2.01,0,1.11-.58,2.01-1.3,2.01s-1.3-.9-1.3-2.01c0-1.11.58-2.01,1.3-2.01Z"/>
        <path class="cls-13" d="M573.34,308.58c.62-.36,1.57.13,2.13,1.09.55.96.5,2.03-.12,2.39-.62.36-1.57-.13-2.13-1.09-.55-.96-.5-2.03.12-2.39Z"/>
        <path class="cls-13" d="M573.34,286.73c-.62-.36-.67-1.43-.12-2.39.55-.96,1.51-1.45,2.13-1.09.62.36.67,1.43.12,2.39-.55.96-1.51,1.45-2.13,1.09Z"/>
        <path class="cls-13" d="M567.04,285.04c-.72,0-1.3-.9-1.3-2.01,0-1.11.58-2.01,1.3-2.01.72,0,1.3.9,1.3,2.01,0,1.11-.58,2.01-1.3,2.01Z"/>
        <path class="cls-13" d="M560.73,286.73c-.62.36-1.57-.13-2.13-1.09-.56-.96-.5-2.03.12-2.39.62-.36,1.57.13,2.13,1.09.55.96.5,2.03-.12,2.39Z"/>
        <path class="cls-13" d="M556.12,291.35c-.36.62-1.43.67-2.39.12-.96-.55-1.45-1.51-1.09-2.13.36-.62,1.43-.67,2.39-.12.96.55,1.45,1.51,1.09,2.13Z"/>
        <g class="cls-28">
          <path class="cls-21" d="M546.62,290.53c0,.66-.54,1.2-1.2,1.2s-1.2-.54-1.2-1.2.54-1.2,1.2-1.2,1.2.54,1.2,1.2Z"/>
          <path class="cls-21" d="M546.62,298.17c0,.66-.54,1.2-1.2,1.2s-1.2-.54-1.2-1.2.54-1.2,1.2-1.2,1.2.54,1.2,1.2Z"/>
          <path class="cls-21" d="M546.62,305.12c0,.66-.54,1.2-1.2,1.2s-1.2-.54-1.2-1.2.54-1.2,1.2-1.2,1.2.54,1.2,1.2Z"/>
        </g>
        <g class="cls-28">
          <path class="cls-21" d="M590.03,290.53c0,.66-.54,1.2-1.2,1.2s-1.2-.54-1.2-1.2.54-1.2,1.2-1.2,1.2.54,1.2,1.2Z"/>
          <path class="cls-21" d="M590.03,298.17c0,.66-.54,1.2-1.2,1.2s-1.2-.54-1.2-1.2.54-1.2,1.2-1.2,1.2.54,1.2,1.2Z"/>
          <path class="cls-21" d="M590.03,305.12c0,.66-.54,1.2-1.2,1.2s-1.2-.54-1.2-1.2.54-1.2,1.2-1.2,1.2.54,1.2,1.2Z"/>
        </g>
      </g>
      <g>
        <path class="cls-8" d="M535.59,441.16c14.89,0,23.82-7.66,26.52-22.76,1.42-7.9-1.83-16.01-7.92-20.78.2-.32.41-.64.68-.96.56-.64.9-1.48.9-2.4,0-2.33-2.16-4.06-4.44-3.55-1.07.22-2.03.5-2.91.79-.07-.32-.18-.65-.31-1-.41-1.04-1.28-1.83-2.35-2.14-.19-.06-.39-.1-.59-.12.21-.76.16-1.58-.14-2.32l-1.69-4.17c-.39-.95-1.16-1.7-2.12-2.05-.41-.15-.83-.22-1.25-.22-.58,0-1.17.14-1.69.42-4.09,2.15-6.62,5.74-7.26,10-.58-.25-1.17-.57-1.8-1.01-.62-.44-1.36-.67-2.1-.67-.35,0-.7.05-1.04.15-1.07.32-1.94,1.11-2.35,2.15-.13.33-.23.65-.31.97-.91-.28-1.9-.55-3-.77-.24-.05-.48-.07-.72-.07-1.27,0-2.46.66-3.13,1.78-.79,1.33-.66,3.01.33,4.19.29.35.57.71.84,1.06-6.22,4.7-9.76,12.7-8.7,20.59,2.01,14.99,11.18,22.92,26.55,22.92Z"/>
        <path class="cls-21" d="M532.62,439.13c14.89,0,23.82-7.66,26.52-22.76,1.42-7.9-1.83-16.01-7.92-20.78.2-.32.41-.64.68-.96.56-.64.9-1.48.9-2.4,0-2-1.62-3.64-3.64-3.64-.9,0-2.86.59-3.71.88-.07-.32-.18-.65-.31-1-.41-1.04-1.28-1.83-2.35-2.14-.19-.06-.39-.1-.59-.12.21-.76.16-1.58-.14-2.32l-1.69-4.17c-.39-.95-1.16-1.7-2.12-2.05-.41-.15-.83-.22-1.25-.22-.58,0-1.17.14-1.69.42-4.09,2.15-6.62,5.74-7.26,10-1.87-.81-2.21-1.68-3.9-1.68-1.48,0-2.83.9-3.38,2.3-.13.33-.23.65-.31.97-.91-.28-1.9-.55-3-.77-.24-.05-.48-.07-.72-.07-1.27,0-2.46.66-3.13,1.78-.79,1.33-.66,3.01.33,4.19.29.35.57.71.84,1.06-6.22,4.7-9.76,12.7-8.7,20.59,2.01,14.99,11.18,22.92,26.55,22.92Z"/>
        <g>
          <path class="cls-20" d="M555.55,415.73c-2.51,13.99-10.27,19.76-22.94,19.76s-21.05-5.65-22.94-19.76c-1.64-12.26,9.77-24.02,22.94-19.76,14.73-4.69,25.03,8.04,22.94,19.76Z"/>
          <path class="cls-35" d="M522.18,409.1c-3.79,2.95-4.25,9.43-6.39,8.42-4.13-1.96-2.34-7.86-.28-12.2,2.06-4.34,4.9-4.59,7.63-3.29,2.74,1.3,2.31,4.52-.96,7.07Z"/>
          <path class="cls-29" d="M532.35,394.71c-1.84-5.23-.85-10.74,4.64-13.62l1.69,4.17c-3.97,1.3-4.61,4.66-4.06,8.74,0,.02,0,.03,0,.03l-2.27.69Z"/>
          <path class="cls-29" d="M538.75,394.78c-.09-1.62,4.08-2.22,2.99-4.96-3.87,2.74-6.79,1.9-8.8,4.63-2.01-2.72-4.93-1.89-8.8-4.63-1.09,2.74,3.31,3.11,3.23,4.73-3.29.66-6.02-1.39-10.63-2.31,2.79,3.34,3.51,6.22,10.46,4.95,1.75-.24,4.97,1.03,5.29.99.53-.07,4.38-1.5,6.91-1.04,8.44.57,6.97-1.56,9.76-4.9-4.61.92-7.11,3.21-10.4,2.54Z"/>
        </g>
        <path class="cls-6" d="M536.99,381.1l1.69,4.17c-3.66,1.19-4.49,4.14-4.17,7.78,1.87-1.11,4.27-1.11,7.23-3.21,1.09,2.74-3.08,3.34-2.99,4.96.41.08.8.12,1.19.12,2.75,0,5.17-1.85,9.21-2.66-1.61,1.94-1.81,3.46-3.32,4.29,7.1,3.33,11.11,11.49,9.72,19.2-2.51,13.99-10.27,19.76-22.94,19.76s-21.05-5.65-22.94-19.76c-1.09-8.18,3.63-16.12,10.79-19.25-1.44-.97-2.32-2.55-3.74-4.25,3.98.8,6.57,2.44,9.32,2.44.43,0,.87-.04,1.31-.13.08-1.62-4.32-1.99-3.23-4.73,3.29,2.33,5.89,2.08,7.83,3.62-1.26-4.83-.03-9.7,5.03-12.36h0ZM549.14,392.25h0,0ZM536.99,380.73c-.06,0-.12.01-.17.04-4.51,2.37-6.46,6.67-5.42,11.87-.74-.41-1.54-.67-2.42-.95-1.36-.44-2.9-.93-4.63-2.16-.06-.04-.14-.07-.21-.07-.03,0-.07,0-.1.02-.11.03-.19.11-.23.21-.75,1.89.78,2.85,1.89,3.55.54.34,1.06.67,1.24,1.01-.29.04-.58.06-.88.06-1.48,0-2.95-.51-4.64-1.09-1.33-.46-2.84-.98-4.61-1.34-.02,0-.05,0-.07,0-.13,0-.25.07-.31.18-.08.13-.07.3.03.42.42.51.8,1,1.16,1.48.72.95,1.35,1.79,2.15,2.46-7.13,3.42-11.51,11.46-10.45,19.38,1.81,13.51,9.43,20.07,23.3,20.07s20.84-6.37,23.29-20.06c1.39-7.78-2.52-15.79-9.36-19.32.64-.51,1.03-1.18,1.46-1.92.36-.61.77-1.31,1.4-2.07.06-.07.11-.16.11-.25,0-.2-.16-.36-.36-.36h0s-.02,0-.02,0c-.02,0-.04,0-.06,0-1.88.38-3.41.98-4.77,1.51-1.57.62-2.93,1.15-4.36,1.15-.26,0-.51-.02-.77-.05.16-.37.66-.72,1.17-1.1,1.05-.77,2.49-1.82,1.74-3.7-.04-.1-.13-.18-.23-.21-.03-.01-.07-.02-.1-.02-.07,0-.15.02-.21.07-1.73,1.23-3.28,1.72-4.64,2.16-.73.23-1.42.45-2.06.76-.21-3.77,1.03-5.89,3.96-6.85.1-.03.17-.1.22-.19s.05-.2,0-.29l-1.69-4.17c-.04-.1-.12-.17-.21-.21-.04-.01-.08-.02-.13-.02h0Z"/>
      </g>
      <path class="cls-7" d="M946.1,556.48c-.64-1.23-2.33-2.82-6.73-3.41-8.64-1.16-13.59,5.99-15.34,13.06-.37,1.48-1.1,3.28-2.57,4.05-5.92-6.22-12.45-4.19-20-4.57,2.02-4.14,1.87-8.86-.27-13.24,6.88-11.06,1.78-16.91-8.7-9.1-4.11-2.45-9.19-3.83-13.94-3.74-5.17-12.67-11.67-7.58-12,3.73-11.82,8.36-4.95,24.86,7.23,29.41.12,1.41.36,2.89.68,4.2l-4.89,10.6c-3.36,1.87-5.59,5.8-.03,7.94,1.59,3.31,9.94,6.01,12.5,3.49,1.25-1.11,1.51-2.04,2.16-3.91.79-2.44,1.66-5.57,2.51-8.03,2.16.05,8.64,3.1,11.84,3.86-.09.08-2.12,4.88-2.29,4.89-4.55,3.78-3.3,7.87,3.53,9.37.85,2.08,4.07,3.12,6.67,3.65,4.53,1.14,7.62.08,8.25-4.27.92-5.22,3.01-9.53,8.34-20.49,1.42-2.89,1.87-5.74,1.33-8.35,3.28-1.12,5.37-4.12,6.31-7.59,1.42-4.47,4.49-10.82,9.89-7.74.78.3,1.51.59,2.26.69,2.56.43,4.53-2.25,3.26-4.52Z"/>
      <path class="cls-21" d="M944.35,554.26c-.64-1.23-2.33-2.82-6.73-3.41-8.64-1.16-13.59,5.99-15.34,13.06-.37,1.48-1.1,3.28-2.57,4.05-5.91-6.22-12.45-4.19-20-4.57,2.02-4.14,1.87-8.86-.27-13.24,6.88-11.06,1.78-16.91-8.7-9.1-4.11-2.45-9.19-3.83-13.94-3.74-5.17-12.67-11.67-7.58-12,3.73-11.82,8.36-4.95,24.86,7.23,29.41.12,1.41.36,2.89.68,4.2l-4.89,10.6c-3.36,1.87-5.59,5.8-.03,7.94,1.59,3.31,9.94,6.01,12.5,3.49,1.25-1.11,1.51-2.04,2.16-3.91.79-2.44,1.66-5.57,2.51-8.03,2.16.05,8.64,3.1,11.84,3.86-.09.08-2.12,4.88-2.29,4.89-4.55,3.78-3.3,7.87,3.53,9.37.85,2.08,4.07,3.12,6.67,3.65,4.53,1.14,7.62.08,8.25-4.27.92-5.22,3.01-9.53,8.34-20.49,1.42-2.89,1.87-5.74,1.33-8.35,3.28-1.12,5.37-4.12,6.31-7.59,1.42-4.47,4.49-10.82,9.89-7.74.78.3,1.51.59,2.26.69,2.56.43,4.53-2.25,3.26-4.52Z"/>
      <path class="cls-9" d="M873.56,569.33c-3.73-1.44-6.86-3.66-9.15-6.29-1.78-6.36,5.24-8.82,12.63-7.5-2.93,1.03-1.98,4.64,1,5.45,2.92,1,5.74-1.45,3.89-3.95,6.85,3.06,11.28,9.03,6.23,13.29-4.33,1.19-9.86.86-14.59-1.01ZM884.88,565.43c.48-.12.31-.88-.18-.76-5.18,2.16-11.33.36-14.52-4.26,0,0,0,0,0-.01-.18-.56-1.08-.36-.8.2,3.26,5.01,9.97,7.17,15.5,4.83Z"/>
      <path class="cls-3" d="M937.41,552.44c5.1.68,6.17,2.81,5.57,3.98-1.02-.44-3.19-1.24-6.67-1.94-5.11-1.03-9.62,8.78-10.47,12.19-.65,2.64-4,4.37-5.48,5.01-.31-.66-.7-1.27-1.15-1.84,7.37-1.79,3.43-18.48,18.19-17.4Z"/>
      <path class="cls-25" d="M942.97,556.42c-.28.53-.9.86-1.66.76-2.41-.33-6.39-3.93-10.52,1.31-4.52,6.19-3.28,12.58-10.15,13.86-.09-.23-.18-.45-.28-.66,1.48-.64,4.82-2.37,5.48-5.01.84-3.41,5.35-13.22,10.47-12.19,3.48.7,5.65,1.5,6.67,1.94Z"/>
      <path class="cls-3" d="M899.48,586.62c-16.98-6.57-13.09-11.53-18.57,5.65-6-1.03-8.03-2.87-8.72-4.07.24-.15.39-.24.39-.24.92-2.99,2.74-8.92,3.64-11.84,0,0-1.39-1.99-.95-4.32,9.44,3.09,19.11,1.5,24.27-6.81,2.12.19,4.65.24,7.35-.08,4.81-.57,11.17,1.94,13.47,6.76,1.26,2.74,1.26,5.67-.51,9.37-5.67,11.66-7.52,15.6-8.47,20.86-4.52.17-7.19-2.94-8.11-4.26.64-.33.98-3.75,1.35-5.01.32-1.26.62-2.19.55-2.93,1.03-2.82-.39-2.92-.39-2.92-1.37.65-3.25.45-5.3-.18Z"/>
      <path class="cls-9" d="M899.77,600.55c.66-1.07,2.79-2.25,3.5-2.89.92,1.31,3.59,4.43,8.11,4.26-.3,1.41-.64,2.37-1.39,2.9-3.32.15-8.34-1.56-10.29-2.28-.45-.65-.38-1.32.07-2Z"/>
      <path class="cls-26" d="M903.27,597.66c-.34.35-.86.6-1.74,1.25-4.2-.99-5.56-2.94-6-4.16.22-.18.37-.29.37-.29l2.8-6.15c1.39.65,4.05,2.1,5.92,4.34-.38,1.26-.71,4.67-1.35,5.01Z"/>
      <path class="cls-1" d="M905.17,589.72c.07.74-.23,1.67-.55,2.93-1.86-2.24-4.53-3.69-5.92-4.34l.43-.94c2.46.25,5.43-.12,6.03,2.35Z"/>
      <path class="cls-25" d="M904.78,586.8s1.43.1.39,2.92c-.61-2.48-3.57-2.1-6.03-2.35l.34-.75c2.05.63,3.93.83,5.3.18Z"/>
      <path class="cls-11" d="M901.54,598.91c-.55.4-1.42,1.09-1.76,1.64-2.96.2-5.11-1.62-6.29-2.97.24-1.2,1.44-2.32,2.06-2.83.44,1.22,1.79,3.17,6,4.16Z"/>
      <path class="cls-24" d="M899.77,600.55c-.24.36-.36.71-.38,1.04-1.76-.51-6.68-1.64-5.91-4.01,1.18,1.35,3.33,3.18,6.29,2.97Z"/>
      <path class="cls-25" d="M899.48,586.62l-.34.75c-1.49-.16-3.43-.57-6.27-1.79-4.75-2.04-7.68-2.49-8.98-2.59.52-1.33,1.02-2.3,1.48-2.57,1.22-.73,8.36,4.43,14.12,6.2Z"/>
      <path class="cls-25" d="M888.15,570.34c3.7-.97,6.84-2.93,8.88-5.66.75.12,1.59.23,2.52.31-5.58,8.95-16.1,9.92-25.81,6.28-.09-.73-.14-1.38-.17-1.94,4.73,1.87,10.25,2.2,14.59,1.01Z"/>
      <path class="cls-3" d="M897.6,550.11c4.98,8.36-.17,18.14-9.45,20.23,5.04-4.27.62-10.24-6.23-13.29-.93-1.37-3.34-2.11-4.88-1.5-7.39-1.32-14.4,1.13-12.63,7.5-8.37-9.21-3.3-21.74,8.45-23.71,9.17-1.82,20.07,2.46,24.74,10.78ZM888.61,552.64c.69-2.28-1.52-2.96-2.23-.69-.69,2.28,1.52,2.96,2.23.69ZM876.22,548.84c.69-2.28-1.52-2.96-2.23-.69-.69,2.28,1.52,2.96,2.23.69Z"/>
      <path class="cls-3" d="M899.85,539.27c3.3,1.01-1.07,8.85-2.25,10.85-.44-.79-.94-1.56-1.52-2.3,4.69-5.97,2.41-8.21-2.89-3.03-.73-.63-1.52-1.22-2.35-1.77,1.94-1.58,6.17-4.62,9-3.75Z"/>
      <path class="cls-12" d="M898.27,541.97c1.47.62-1.17,4.46-2.19,5.84-.83-1.08-1.8-2.09-2.89-3.03,1.15-1.13,3.71-3.39,5.07-2.81Z"/>
      <path class="cls-3" d="M870.47,531.42c-3.33-.91-3.84,8.05-3.92,10.36.79-.43,1.63-.81,2.51-1.12-.76-7.56,2.37-8.22,4.06-1.01.95-.14,1.93-.22,2.93-.23-.79-2.38-2.73-7.21-5.59-8Z"/>
      <path class="cls-12" d="M870.35,534.55c-1.58-.27-1.4,4.39-1.29,6.11,1.28-.46,2.64-.8,4.06-1.01-.37-1.57-1.31-4.85-2.77-5.1Z"/>
      <path class="cls-9" d="M871.07,589.02c.42-.35.83-.62,1.12-.81.69,1.2,2.72,3.04,8.72,4.07-.52,1.44-.69,2.31-1.65,3.17-3.31.07-7.81-1.67-9.81-2.52-.93-1.49.49-2.97,1.62-3.9Z"/>
      <path class="cls-6" d="M870.17,560.39s.01.02.01.02c3.19,4.62,9.34,6.42,14.52,4.26.48-.13.67.64.18.76-5.54,2.34-12.24.18-15.5-4.83-.28-.57.61-.76.8-.2t0,0Z"/>
      <path class="cls-6" d="M888.03,550.56c1.46.44.39,3.92-1.07,3.47-1.46-.44-.39-3.92,1.07-3.47Z"/>
      <path class="cls-6" d="M875.64,546.76c1.46.44.39,3.92-1.07,3.47-1.46-.44-.39-3.92,1.07-3.47Z"/>
      <path class="cls-26" d="M872.19,588.21c-.29.18-.69.46-1.12.81-1.07-.91-1.8-1.79-2.28-2.46.16-.09.27-.14.27-.14l4.17-9.04,1.6,3.33-2.24,7.27s-.15.09-.39.24Z"/>
      <path class="cls-1" d="M875.62,578.12l-.79,2.58-1.6-3.33,1.18-2.56c.3,1.11.69,2.24,1.21,3.31Z"/>
      <path class="cls-25" d="M874.41,574.81c-.33-1.24-.54-2.46-.67-3.53.44.17.95.35,1.54.53-.44,2.33.95,4.32.95,4.32l-.61,1.99c-.52-1.07-.91-2.2-1.21-3.31Z"/>
      <path class="cls-14" d="M881.92,557.05c1.85,2.5-.97,4.95-3.89,3.95-2.97-.82-3.93-4.42-.99-5.45,1.63.3,3.37.84,4.88,1.5Z"/>
      <path class="cls-24" d="M869.15,591.95c-2.51-.74-3.22-1.67-3.1-2.55.78.74,1.92,1.6,3.22,1.85-.08.23-.12.47-.12.7Z"/>
      <path class="cls-11" d="M871.07,589.02c-.73.59-1.51,1.39-1.8,2.24-1.3-.24-2.44-1.11-3.22-1.85.17-1.27,2.04-2.45,2.75-2.85.47.67,1.2,1.55,2.28,2.46Z"/>
      <path class="cls-14" d="M881.92,557.05c-1.52-.66-3.25-1.2-4.88-1.5,1.54-.61,3.95.13,4.88,1.5Z"/>
      <path class="cls-6" d="M885.16,561.52c3.13-.31,6.25-.61,9.38-.92.12-.01.13-.21,0-.19-2.74.27-5.48.54-8.21.8-.18.06-1.61.01-1.17.31Z"/>
      <path class="cls-6" d="M887.55,564.03c2.07.64,4.13,1.27,6.2,1.91.12.04.18-.15.06-.19l-5.43-1.67c-.17-.02-1.11-.46-.83-.05Z"/>
      <path class="cls-2" d="M576.79,363.57c1.07,4.42,5.69,6.97,9.99,7.21,6.19.35,11.62-2.87,17.54-4.01,2.98-.57,5.72-.24,8.48,1,2.39,1.07,4.73,2.32,7.42,2.33,2.92,0,5.5-1.39,8.13-2.47s5.52-1.62,8.4-1.61c3.35,0,6.35.98,9.48,2.06,2.95,1.02,6.03,1.67,8.95.22,1.77-.88.19-2.5-1.3-1.76-2.42,1.2-5.3-.21-7.64-1.04-2.52-.9-5.11-1.5-7.78-1.62s-5.19.12-7.71.75-4.97,2-7.54,2.83c-2.72.88-4.94.07-7.43-1.08-2.34-1.08-4.61-1.99-7.22-2.08-5.66-.2-10.72,2.49-16.09,3.78-2.72.66-5.55.84-8.18-.26-2.22-.92-4.02-2.66-4.59-5.04-.33-1.37-3.23-.61-2.9.78h0Z"/>
      <path class="cls-2" d="M580.06,388.32c9.01,6.06,20.33,1.66,29.86-.58,2.7-.64,5.45-1.18,8.23-1.33,3.06-.17,6,.28,8.96,1.02,3.27.82,6.51,1.78,9.88,2.12s6.59.27,9.88.15c14.22-.53,28.45-1.13,42.66-2.08,13.39-.89,26.69-2.61,40.07-3.54,14-.98,28.45-.57,41.34,5.59.71.34,3.37-.76,2.35-1.24-11.17-5.34-23.67-6.47-35.89-6.07-13.03.43-25.99,2.32-38.98,3.33-14.13,1.1-28.29,1.74-42.45,2.32-6.97.28-14.2,1.08-21.08-.45-3.12-.69-6.16-1.69-9.32-2.22-2.79-.46-5.62-.43-8.43-.12-6.09.67-11.92,2.68-17.89,3.93-5.63,1.18-11.48,1.47-16.46-1.87-.74-.5-3.3.66-2.71,1.05h0Z"/>
      <path class="cls-2" d="M582.76,403.98c5.91,1,11.94,1.15,17.9.44s11.43-2.36,16.94-4.47c2.76-1.06,5.59-2.04,8.59-1.94,2.63.09,5.2.89,7.64,1.81,4.9,1.84,9.66,4.28,14.97,4.66,5.97.42,11.69-1.71,17.43-2.98s12.15-1.01,18.21-.25,11.9,1.88,17.91,2.37,11.99-.08,17.98-1.14c3.44-.61,6.87-1.25,10.34-1.58,3.67-.34,7.36-.35,11.04-.16,7.29.37,14.51,1.55,21.7,2.73.67.11,1.54-.07,2.05-.55.42-.4.37-.89-.26-.99-12.53-2.04-25.23-3.99-37.91-2.12-6.17.91-12.26,2.43-18.53,2.43s-12.16-1.04-18.2-1.93-11.65-1.59-17.52-1.24-11.79,2.57-17.8,3.52c-2.89.46-5.73.43-8.57-.27-2.66-.65-5.18-1.73-7.71-2.76-4.76-1.94-9.68-3.73-14.9-2.97-3.22.47-6.24,1.71-9.26,2.86-3.21,1.22-6.52,2.2-9.9,2.83-6.72,1.25-13.6,1.3-20.34.16-.67-.11-1.55.07-2.05.55-.42.4-.36.88.26.99h0Z"/>
      <path class="cls-2" d="M581.33,441.13c4.29-.26,8.33,1.29,12.38,2.45s8.26,1.71,12.59.83c2.29-.47,4.51-1.16,6.79-1.68s4.6-.83,6.92-1.01c4.66-.35,9.36-.11,14.01.28,9.26.79,18.54,2.2,27.86,1.52,9.43-.68,18.59-3.68,28.07-3.89,5.34-.11,10.32,1.13,15.43,2.5,4.82,1.29,9.72,2.35,14.72,1.58.43-.07,1.63-.35,1.66-.94s-.8-.61-1.23-.55c-4.52.69-9-.42-13.35-1.58s-8.72-2.33-13.28-2.53c-9.42-.41-18.57,2.37-27.84,3.54-18.42,2.32-36.86-4.59-55.13.18-2.53.66-5.08,1.47-7.71,1.54-2.43.07-4.84-.49-7.17-1.15-4.45-1.26-8.85-2.93-13.55-2.65-.57.03-1.62.18-1.92.77-.28.55.24.8.76.77h0Z"/>
      <path class="cls-2" d="M584.23,461.05c6.7,2.94,12.92-2.17,19.13-3.96,4.04-1.17,7.61.25,11.44,1.51,4.25,1.39,8.28,1.41,12.65.55,2.33-.46,4.64-1.08,6.99-1.42s4.79-.38,7.2-.28c4.77.2,9.53.71,14.29.99,9.56.55,19.14.75,28.72.59,10.77-.18,21.54-.8,32.26-1.87.52-.05,1.56-.38,1.64-1.02s-.82-.73-1.27-.68c-18.78,1.86-37.68,2.35-56.54,1.44-4.7-.23-9.38-.57-14.07-.93s-9.16-.49-13.72.38-8.82,2.38-13.29,1.47c-3.97-.81-7.62-2.89-11.74-2.98-3.87-.09-7.49,1.49-10.95,3.04-3.26,1.45-6.92,3.29-10.46,1.73-.64-.28-1.48-.13-2.06.25-.37.25-.89.91-.24,1.2h0Z"/>
      <path class="cls-2" d="M577.06,497.27c10.92,4.82,23.13,2.21,34.34-.01,5.87-1.16,11.79-2.35,17.78-2.54,6.47-.21,12.69,1.19,18.89,2.88s12.16,3.51,18.47,3.91c6.33.4,12.28-1,18.2-3.1,3.09-1.09,6.14-2.3,9.28-3.23s6.36-1.59,9.61-2.06c6.57-.94,13.22-1.08,19.85-1.02,14.72.12,29.6,1.2,44.06-2.18.34-.08,1.43-.45,1.29-.96s-1.3-.26-1.6-.19c-12.73,2.98-25.95,2.22-38.92,2s-25.7.15-37.95,4.34c-6.04,2.06-11.99,4.8-18.45,5.08s-12.5-1.36-18.54-3.01c-5.9-1.62-11.85-3.35-17.98-3.75s-11.76.36-17.54,1.39c-12.49,2.23-26.18,6.64-38.45,1.22-.72-.32-3.38.8-2.35,1.25h0Z"/>
      <path class="cls-2" d="M582.34,516.44c5.13-1.67,10.34.59,15.12,2.35,5.05,1.86,10.07,3.28,15.5,2.43,5.56-.87,10.67-3.32,16.06-4.81,6-1.67,11.82-.96,17.85.12s11.64,2.12,17.5,1.02c2.97-.56,5.79-1.64,8.65-2.6,3.05-1.02,6.14-1.72,9.34-2.04,6.48-.64,13.05-.17,19.54.05s13.28.45,19.91.67c15.1.51,30.2,1.02,45.3,1.53.66.02,1.6-.19,1.89-.87.27-.62-.24-1.13-.87-1.15-13.61-.46-27.22-.92-40.82-1.38-6.72-.23-13.44-.45-20.16-.68-6.51-.22-13.05-.62-19.57-.48-3.28.07-6.54.36-9.76,1-3,.6-5.85,1.66-8.75,2.63s-5.74,1.68-8.78,1.76-6.25-.4-9.32-.93c-5.86-1.01-11.81-2.37-17.78-1.53s-10.86,3.26-16.33,4.82c-3.06.87-6.19,1.38-9.36.96s-5.91-1.49-8.75-2.55c-5.42-2.01-11.17-4.1-16.94-2.22-.53.17-1.38.63-1.2,1.33.18.66,1.18.72,1.7.55h0Z"/>
      <path class="cls-2" d="M589.06,547.53c7.62-1.4,15.28.6,22.92.79,3.67.09,7.36-.26,10.85-1.44,3.71-1.26,7.03-3.81,10.97-4.36,3.59-.5,7.24.33,10.72,1.15s7.14,1.78,10.82,1.92,7.38-.88,10.93-2.3c3.77-1.5,7.54-2.64,11.58-3.14,9.22-1.14,18.54.31,27.65,1.73.67.1,1.54-.07,2.05-.55.42-.39.37-.89-.26-.99-8.06-1.25-16.22-2.49-24.4-2.12-4.07.18-8.13.74-12.05,1.88s-7.5,3.29-11.5,3.79c-7.37.92-14.45-2.96-21.78-3.12-3.88-.08-7.35,1.03-10.8,2.73-1.78.88-3.56,1.8-5.48,2.35s-3.87.8-5.84.86c-8.69.27-17.29-2.34-25.96-.74-.49.09-1.57.34-1.65.97s.84.66,1.24.59h0Z"/>
    </g>
  </g>
</svg>