<?xml version="1.0" encoding="UTF-8"?>
<svg xmlns="http://www.w3.org/2000/svg" xmlns:xlink="http://www.w3.org/1999/xlink" viewBox="0 0 1334 1000">
  <defs>
    <style>
      .cls-1, .cls-2 {
        fill: none;
      }

      .cls-3 {
        fill: #cb8c2a;
      }

      .cls-4 {
        fill: #002934;
      }

      .cls-5 {
        fill: #70983f;
      }

      .cls-6 {
        fill: #502f27;
      }

      .cls-7 {
        fill: #5d1b15;
      }

      .cls-8 {
        fill: #66412f;
      }

      .cls-9 {
        fill: #010101;
      }

      .cls-10 {
        fill: #1c140f;
      }

      .cls-11 {
        fill: #542c23;
      }

      .cls-12 {
        fill: #e56e24;
      }

      .cls-13 {
        fill: #fbf4a4;
      }

      .cls-13, .cls-14 {
        opacity: .5;
      }

      .cls-15 {
        fill: #4f2f25;
      }

      .cls-16 {
        fill: #cca670;
      }

      .cls-17 {
        opacity: .31;
      }

      .cls-17, .cls-18 {
        fill: #b6b6b7;
      }

      .cls-19 {
        fill: #062f43;
      }

      .cls-20 {
        fill: #add4dc;
      }

      .cls-21 {
        fill: #638d9d;
      }

      .cls-22 {
        fill: #a66e53;
      }

      .cls-23 {
        fill: #b48e5c;
      }

      .cls-14 {
        fill: url(#linear-gradient);
      }

      .cls-24 {
        fill: #7c5443;
      }

      .cls-2 {
        stroke: #7e7e7e;
      }

      .cls-2, .cls-18 {
        stroke-miterlimit: 10;
      }

      .cls-25 {
        fill: #98b285;
      }

      .cls-18 {
        opacity: .8;
        stroke: #5d5d5d;
      }

      .cls-26 {
        fill: #fff;
      }

      .cls-27 {
        fill: #b02c25;
      }

      .cls-28 {
        fill: #949494;
      }

      .cls-29 {
        fill: #a57351;
      }

      .cls-30 {
        fill: #381b11;
      }

      .cls-31 {
        fill: #0f1930;
      }

      .cls-32 {
        fill: #141529;
      }

      .cls-33 {
        fill: #636464;
      }

      .cls-34 {
        fill: #241910;
      }

      .cls-35 {
        fill: #556564;
      }

      .cls-36 {
        fill: #1a546e;
      }

      .cls-37 {
        fill: #653d2a;
      }

      .cls-38 {
        fill: #efe8cf;
      }

      .cls-39 {
        clip-path: url(#clippath);
      }
    </style>
    <linearGradient id="linear-gradient" x1="511.11" y1="1758.17" x2="1569.46" y2="1758.17" gradientTransform="translate(-1147.02 -574.02) rotate(90) scale(1 -1)" gradientUnits="userSpaceOnUse">
      <stop offset="0" stop-color="#ede8de"/>
      <stop offset=".18" stop-color="#ebe5db" stop-opacity=".99"/>
      <stop offset=".33" stop-color="#e5ded2" stop-opacity=".97"/>
      <stop offset=".47" stop-color="#dbd1c3" stop-opacity=".93"/>
      <stop offset=".6" stop-color="#cdbfae" stop-opacity=".88"/>
      <stop offset=".72" stop-color="#bba993" stop-opacity=".81"/>
      <stop offset=".84" stop-color="#a58d71" stop-opacity=".73"/>
      <stop offset=".96" stop-color="#8b6c4a" stop-opacity=".64"/>
      <stop offset="1" stop-color="#82603c" stop-opacity=".6"/>
    </linearGradient>
    <clipPath id="clippath">
      <polygon class="cls-1" points="1767.94 -774.5 1767.94 381.28 2403.02 390.17 2651.13 -774.5 1767.94 -774.5"/>
    </clipPath>
  </defs>
  <g id="Layer_3" data-name="Layer 3">
    <polyline class="cls-38" points="1445.5 1029.07 1445.5 -79.09 -223.19 -79.09 -223.19 1029.07"/>
    <polyline class="cls-14" points="1445.5 991.95 -223.19 991.95 -223.19 -66.4 1445.5 -66.4"/>
    <g>
      <path class="cls-18" d="M41.36,817.87c0-2.26,15.14-4.1,33.81-4.1,18.67,0,33.81,1.84,33.81,4.1,0,.03-.01.06-.02.09h.02l-9.82,87.41h-.07c0,2.26-10.72,4.1-23.95,4.1-13.23,0-23.95-1.84-23.95-4.1l-9.82-87.41h.02s-.02-.06-.02-.09Z"/>
      <path class="cls-12" d="M63.17,867.32c4.64,1.56,8.87,4.01,13.93,3,2.17-.43,4.16-1.45,6.23-2.18,2.43-.85,4.7-.87,7.25-.84,2.68.04,5.36.11,8.04.19l-3.81,33.87h-.06c0,1.85-8.78,3.36-19.62,3.36-10.84,0-19.62-1.5-19.62-3.36l-3.82-34c3.85-.63,7.64-1.34,11.47-.05Z"/>
      <path class="cls-2" d="M41.36,817.87c0,2.26,15.14,4.1,33.81,4.1,18.67,0,33.81-1.84,33.81-4.1"/>
      <path class="cls-17" d="M41.36,817.87c0-2.26,15.14-4.1,33.81-4.1,18.67,0,33.81,1.84,33.81,4.1,0,.03-.01.06-.02.09h.02l-9.82,87.41h-.07c0,2.26-10.72,4.1-23.95,4.1-13.23,0-23.95-1.84-23.95-4.1l-9.82-87.41h.02s-.02-.06-.02-.09Z"/>
    </g>
    <path class="cls-22" d="M902.09,249.07s12.49,40.55,12.02,46.13c-.46,5.59-27.48,32.62-27.48,32.62l54.81,34.32,106.1-82.56s-31.93-10.86-35.49-13.99c-13.46-11.66-20.17-63.45-20.17-63.45"/>
    <path d="M826.35,131.67h0l-.22.25s7.28-18.74,11.97-23.44c4.57-4.68,28.21-11.72,28.21-11.72,22.46-12.98,48.92-17.41,74.26-12.16,25.22,5.26,51.02,79.24,65.98,100.07,13.3-16.92-3.6-68.88-4.67-74.84-1.26-7.21-3.52-15.64-7.93-21.38-1.25-1.54-2.95-2.83-3.87-4.5-1.69-3.02-.66-6.79-1.89-9.95-.98-2.72-3.64-4.52-6.55-4.8-1.15.07-2.32-.09-3.5-.36-.97-.63-1.82-1.28-2.57-2.16-3.57-3.37-3.54-4.76-7.39-1.51-.9-3.3-2.6-6.44-5.49-8.22-2.89-1.79-7.37-1.16-8.8,1.82-.32-3.34-1.59-6.96-4.61-8.97-3.02-2.01-7.83-1.13-8.89,2.29-1.39-1.88-3.31-3.03-5.55-3.59-5.28-1.18-10.41,2.04-11.58,7.32-4.47-4.93-14.12-3.63-16.97,2.56-1.41-2.11-3.58-3.6-6.16-4.13-5.28-1.18-10.39,2.27-11.45,7.54-1.72-1.63-3.74-2.43-5.83-2.53-4.99-.27-9.38,3.6-9.64,8.7-4.84-3.4-13.05.47-13.25,6.5-2.31-3.56-8.41-3.06-10.98.34-2.57,3.29-2.39,8.14-.87,12.09-1.97-1.85-5.02-2.47-7.62-1.49-3.74,1.28-5.67,5.56-4.28,9.3-3.48-1.98-8.23-.18-10.1,3.29-1.87,3.47-1.48,7.85.24,11.33-2.16-1.25-4.53,1.56-4.72,4.11-.19,2.56.78,5.16-.11,7.53-.4.95-.81,1.79-1.21,2.85-.71,3.52,2.93,6.07,6.14,7.49l-.09.35Z"/>
    <path d="M843.52,72.95h-.12c-17.94,3.79-12.95,20.73-12.95,20.73-14.96,1.4-13.21,20.27-13.21,20.27-7.26,6.13-5.83,17.96.31,25.33,2,2.42,2.05,3.23,5.02,4.32-5.89,15.07,3.35,23.99,18.1,30.36,1.79,13.78,9.49,33.33,22.91,36.89l125.64-56.92c7.68-4.88,10.42-14.89,6.32-23.08h0c7.76-9.28,6.56-22.87-2.61-30.63-.25-.22-.61-.54-.97-.75,2.33-3.5,3.22-7.73,2.39-11.73-1.67-8.23-9.65-13.64-17.99-11.96.35-3.73-.22-7.28-1.71-10.66-4.82-10.47-16.91-14.92-27.39-10.33-.53-4.71-2.77-9.2-6.44-12.33-8.06-6.79-19.93-5.82-26.73,2.01-12.24-8.73-29.3-5.81-37.92,6.42-.53.84-1.06,1.57-1.58,2.53h0c-13.52-3.32-27.47,4.96-30.78,18.71-.1.24-.2.48-.19.71l-.11.12Z"/>
    <path d="M858.61,75.48h0c-17.94,3.78-12.95,20.72-12.95,20.72-14.95,1.51-13.2,20.39-13.2,20.39-2.42,2-4.34,4.67-5.31,7.62-3.26,9,1.42,19.01,10.53,22.15-5.89,15.07,1.19,32.11,15.94,38.48,1.79,13.78,11.64,25.2,25.06,28.77l125.64-56.92c7.68-4.88,10.42-14.89,6.32-23.08,7.76-9.28,6.56-22.87-2.61-30.63-.25-.22-.61-.54-.97-.75,2.34-3.39,3.22-7.73,2.39-11.73-1.56-8.24-9.64-13.52-17.99-11.84.35-3.73-.22-7.28-1.71-10.66-4.82-10.47-16.91-14.92-27.39-10.33-.53-4.71-2.77-9.09-6.43-12.22-8.06-6.79-19.93-5.93-26.74,1.9-12.13-8.85-29.19-5.93-37.92,6.3-.53.84-1.06,1.57-1.58,2.53-23.98-5.91-26.58.73-31.01,18.72l-.19.71.11-.12Z"/>
    <path d="M827.14,131.39h-.12s7.28-18.74,11.97-23.43c4.57-4.68,28.21-11.72,28.21-11.72,22.46-12.98,48.92-17.41,74.25-12.16,25.21,5.14,51.02,79.24,65.98,100.07,13.3-16.92-3.6-68.88-4.67-74.84-1.25-7.1-3.52-15.52-7.93-21.27-1.25-1.54-2.95-2.83-3.87-4.5-1.69-2.9-.65-6.67-1.89-9.84-.98-2.72-3.64-4.52-6.55-4.8-1.15.07-2.32-.09-3.5-.36-.97-.63-1.82-1.28-2.57-2.16-3.57-3.37-3.54-4.76-7.39-1.51-.89-3.19-2.37-6.45-5.38-8.23-3.01-1.78-7.49-1.27-8.92,1.83-.33-3.45-1.61-7.19-4.62-9.09-3.01-1.9-7.82-1.02-8.88,2.41-1.39-1.88-3.31-3.03-5.55-3.59-5.28-1.18-10.41,2.04-11.58,7.32-4.47-4.93-14.12-3.63-16.97,2.56-1.52-2.1-3.7-3.59-6.28-4.12-5.28-1.18-10.39,2.27-11.34,7.54-1.72-1.63-3.74-2.43-5.83-2.53-5.11-.26-9.5,3.6-9.76,8.71-4.84-3.4-13.05.47-13.25,6.5-2.31-3.56-8.4-2.95-10.98.34-2.58,3.17-2.39,8.14-.87,12.09-1.97-1.96-5.03-2.7-7.62-1.61-3.73,1.39-5.67,5.68-4.27,9.41-3.47-1.87-8.22-.07-10.09,3.41-1.87,3.47-1.48,7.85.25,11.44-2.16-1.25-4.53,1.67-4.72,4.11s.78,5.04-.12,7.42c-.4.95-.81,1.79-1.21,2.85-.71,3.52,2.93,6.07,6.14,7.49l-.1.24Z"/>
    <path class="cls-6" d="M910.26,279.82h0l71.51-45.09s1.29,28.17-10.99,40.97c-12.27,12.92-56.74,20.21-56.74,20.21l-3.9-16.08h.12Z"/>
    <path class="cls-22" d="M982.52,230.16s-3.03,20.1-13.17,35.67c-10.14,15.57-41.28,21.21-41.28,21.21l-15.26,3.96-13.26.83c-10.08-.18-21.8-17.28-23.41-19.03-5.09-5.47-6.91-10.57-10.89-16.8-4.24-6.8-10.69-11.84-14.24-20.41-2.59-6.21-3.8-10.88-3.25-22.37.05-2.9-.59-5.75-2.02-8.32-3.13-5.71-5.65-12.61-9.6-20.35-.27-.68-1.84-3.47-1.77-4.29,0,0-4.21-30.3-1.48-44.13,2.73-13.83,3.74-25.35,12.13-30.16,8.26-4.91,35.11-10.53,35.11-10.53l35.05-15.27,35.27,6.83,26.15,33.21,9.83,44.3,6.22,40.36"/>
    <path d="M984.05,115.46h0c2.3,9,17.77,30.61,16.04,36.27-1.16,3.66-3.79,19.11-5.87,32.08l-18.36-8.46c-.45-3.44.09-7.88-.71-11.3l-13.84-60.37c-2.99-20.07-22.25-22.69-30.44-24.03-6.21-1.12-21.76-1.88-33.69,1.75-5.34-.25-12.77,3.11-15.82,4.34-14.79,6.02-26.9,17.88-42.27,21.97-1.71.45-2.89,1.92-3.01,3.66-1.73.11-3.55.57-4.87,1.69,10.19-18.58,28.05-23.51,48.22-32.41,2.36-1.07,4.74-1.92,7.23-2.88,36.02-12.67,34.78-12.13,65.29,5.65,17.66,10.36,29.6,21.65,31.64,30.21l.47,1.94v-.12Z"/>
    <path class="cls-22" d="M982.81,192.17c-1.12-29.1,1.21-34.46,8.99-37.72,0,0,9.43-2.9,12.28,5.72,2.85,8.62,6.53,21.12.15,35.76,0,0,3.6,24.32-14.26,14.43"/>
    <path d="M842.99,95.9c11.32-9.62,58.6-27.5,74.34-29.3,15.86-1.8,50.38,2.18,64.68,29.19,14.3,27.01,14.12,25.98,18.08,56.06,0,0-2.8-2.14-9.71-7.27-6.92-5.12-8.16,13.94-14.96,5.1-20.9-26.94-10.04-53.32-19.89-60.92-4.25-3.21-33.68-14.8-40.94-12.38-17.57,5.96-49.53,24.39-62.6,28.22"/>
    <path d="M988.18,185.47s0-.12,0,0h0c-.09.47,1.43.72,1.41.26.59-3.51,1.18-7.02,2.24-10.44.72-3.29,2.15-6.39,4.07-9.05.31-.6.74-1.09,1.3-1.47.1-.24.45-.26.45-.26h0l-1.05-.17c.86.76,1.6,1.52,2.24,2.52,1.56,2.68,2.45,5.87,2.54,9.1.03.46,1.43.72,1.41.26-.13-3.93-1.2-8.03-3.93-11.1-.62-.66-1.38-1.65-2.51-1.23-.79.28-1.45.9-1.98,1.63-1.39,1.82-2.41,3.97-3.21,6.1-1.46,4.37-2.56,9.07-3.2,13.63l.25.22Z"/>
    <path d="M991.22,185.98h0v.23h.01c-.68.27.41,1.02.98.86,2.49-.97,2.73,4.81,2.94,6.3.06,1.04.36,2.06.89,3.07.52.89,1.35,1.19,2.25.79,1-.64,1-2.49,1.05-3.54.08-2.44-.06-4.74-.45-7.15-.37-2.18-.96-4.22-2-6.01-1.2-2.47-3.21-5.12-6.13-5.52-.94-.17-1.11.76-.17.94,3.15.38,4.76,3.99,5.84,6.47.84,2.26,1.33,4.66,1.48,7.08.24,2.07.24,3.92-.1,5.79-.1.24-.31.6-.3.83,0,.12-.1.24-.1.24,0,0,.24.1.23-.01s-.5-.66-.52-.89c-1.12-3.06-.35-11.21-5.8-9.48h-.12Z"/>
    <path d="M912.06,178.76c-.86.98-1.48,2.29-1.4,3.56-.07,2.55,1.81,4.86,4.39,5.4,2.1.33,4.24-.73,5.28-2.64.83-1.56.71-3.52-.2-5.08-.63-.77-1.25-1.54-2.21-1.95-2.03-.92-4.32-.66-5.97.72"/>
    <path d="M854.21,196.03c1.41.37,2.39,1.12,3.15,2.23,1.53,2.22,1.13,5.14-.72,6.99-1.64,1.49-4.05,1.87-5.86.71-1.44-.84-2.48-2.62-2.59-4.35.05-1.05.34-1.99.87-2.83,1.16-1.81,3.29-2.98,5.39-2.65"/>
    <path d="M873.37,198.88h.12s-12.12-3.19-18.19-2.11c-6.3,1.09-10.68,6.92-10.68,6.92,1.78-4.86,3.36-7.39,12.27-9.22,6.06-1.19,16.48,4.41,16.48,4.41h0Z"/>
    <path d="M900.63,188.62s0-.12,0,0h.12s12.46-9.93,18.24-11.91c6-2.11,21.73,1.31,21.73,1.31-4.02-3.22-15.73-5.27-24.35-2.53-5.9,1.87-15.74,13.02-15.74,13.02v.12Z"/>
    <path d="M893.07,153.45c11.47-1.45,22.77-1.75,33.93.77,5.51,1.3,11.58,2.28,13.31,7.61.14.39,1.01,3.01.48,3.23-1.38.72-1.99-.16-2.91-.75-2.59-1.51-8.51-1.72-11.72-2.19-6.66-1.01-13.42-.25-20.04.91-3.26.59-7.95,2.6-13.09,4.02-.07-1.57.18-5.32.11-6.89.1-2.24.03-4.29,0-6.45"/>
    <path d="M862.92,174.11c-1.18-1.91-2.39-3.56-3.64-5.32-8.56,4.3-16.45,9.29-23.13,16.09.15,1.44.34,2.67.86,3.58.26.45.36.56,1.04,1.13.61.51,1.26.86,1.96,1.23.01,0,.02.01.03.02,4.22-3.55,9.52-5.71,14.6-7.97,2.9-1.17,7.11-2.07,11.83-3.64-.98-1.37-2.61-3.85-3.56-5.1Z"/>
    <path d="M889.94,230.61c-.35-.09-.92.06-1.37.32-.32.37-.3.71.04.69,4.32.54,8.73-1.01,11.89-4.21.65-.74-1.3-.5-1.74,0-2.39,2.46-5.56,3.7-8.83,3.21"/>
    <path d="M901.35,226.08c-.33.25.04.58.27.56.35.09.81.06,1.15-.19,1.2-1.23,2.88-2.03,4.46-2.71l-1.07-.51c-.66.62-1.32,1.12-2.23,1.3-.34.14-.55.38-.31.6.24.1.71.19,1.05.05,1.15-.19,2.03-.82,2.8-1.56.22-.13.21-.36-.03-.46l-.92.06c-1.92.7-3.72,1.62-5.14,2.98"/>
    <path d="M908.76,224.34c-.34.14-.44.37-.31.6s.81.06,1.16.04c.91-.29,1.59-.56,2.36-1.07,2.46-1.43,4.17-3.73,3.79-6.02-.65-2.97-2.88-5.26-5.71-6.13-.24-.1-.7-.07-1.15.07-.22.25-.32.48.04.58,3.29.84,6.06,4.37,5.09,7.44-.68,2.01-3.01,3.78-5.16,4.49"/>
    <path d="M887.5,230.53c.24.1.14.45.04.58-.1.24-.45.26-.68.27-1.3-.38-2.69-.41-3.95-.22l.4-.95c.59.19,1.18.39,1.86.12h.12c.23-.02.24.09.25.32"/>
    <path d="M882.44,231.08h0l-.03-.46c.1-.24.32-.48.55-.5,1.38-.2,3-.19,4.3.31"/>
    <path d="M880.66,232.12c.23-.01.58-.04.48.32s-.43.61-.66.62l-1.61.1c-2.08.01-3.8-1.5-4.61-3.42-.72-2.27-.53-4.83.61-6.87.22-.25.43-.49.78-.51h.23s.03.45.03.45c-1.35,2.52-1.16,5.51.49,7.84,1.01,1.33,2.9,1.9,4.61,1.56"/>
    <path d="M935.48,75.43h.12c-13.89-1.8-20.26-.02-33.97,2.92-5.25,1.25-10.34,3.08-15.16,5.58l78.45,6.8c-9.33-10.42-15.55-13.62-29.43-15.3h0Z"/>
    <path d="M935.2,74.75h.12c-.35-.1-1.4-.15-1.35.54.04.69,1.56.94,2.03.92,5.25.71,10.28,1.56,15.19,4.15,4.91,2.59,8.75,6.63,12.35,10.57l1.23-.77-9.66-.79-42.25-3.73-26.54-2.28,1.7,1.28c4.16-2,8.68-3.67,13.12-4.99,3.99-.94,8.22-1.79,12.34-2.62,7.44-1.39,15.06-1.63,22.53-.71.35.09,1.39.03,1.35-.55s-1.56-.94-2.03-.92c-7.93-1.01-15.91-.86-23.8.67-4.35.73-8.7,1.58-12.92,2.66-4.67,1.22-9.3,3.01-13.57,5.13-1.25.43,1.24,1.31,1.7,1.28l9.66.79,42.25,3.73,26.54,2.28c.35.09,1.97,0,1.23-.77-3.98-4.38-8.29-8.51-13.67-11.3-5.38-2.79-11.47-3.91-17.54-4.69v.12Z"/>
    <path d="M964,135.58c3.28,17.39,7.49,34.72,12.48,51.66,15.05-9.27-2.51-25.43,6.12-33.61,5.8-5.46,22.7-1.76,23.75,15.19.13,2.08-1.82-29.17-1.94-31.13-.32-10.63-2.47-21.03-6.55-30.85-5.36-13.56-18.5-29.29-31-36.73-8.06-4.82-13.78-9.33-23.02-10.83-19.4-2.96-38.42,2.05-57.57,6.83-19.03,4.78-33.41,17.48-46.5,32.07-9.53,10.55-17.99,25.2-11.53,37.88,2.89-5.62-1.26-9.07,3.58-13.19,4.84-4.12,9.05-5.2,10.62-2.28,2.23,4.26,2.9,3.76,7.17,5.46,4.86,1.9,12.23-.65,17.24-2,6.49-1.68,12.98-3.47,18.03-7.95,5.05-4.48,12.22-8.29,17.02-12.99,7.52-7.42,33.12-10.86,41.84-4.81,8.72,6.17,5.81,13.41,9.11,23.51,3.29,10.1,11.51,21.28,21.46,24.82"/>
    <path d="M901.54,265.96c9.49-1.87,10.59-2.86,14.54-4.38.67-.39,1.36-.43,2.08-.13.73.53.89,1.33.48,2.17-.31.6-.84,1.33-1.38,1.94-.74,1.2-1.34,2.63-1.6,4.04.03.46-.18.82-.39,1.18-.66.62-1.46.67-2.29.37s-1.43-.72-2.16-1.25-1.54-.6-2.33-.2c-.33.25-.65.74-1.1.88-.57.15-1.16-.04-1.64-.36-1.79-.93-3.16-2.47-4.2-4.25"/>
    <path d="M965.08,139.91c3.28,17.39,7.49,34.72,12.48,51.66,15.05-9.27-2.51-25.43,6.12-33.61,5.8-5.46,22.7-1.76,23.75,15.19.13,2.08-1.82-29.17-1.94-31.13-.32-10.63-2.47-21.03-6.55-30.85-5.36-13.56-18.5-29.29-31-36.73-8.06-4.94-13.78-9.33-23.02-10.83-19.4-2.96-38.42,2.05-57.57,6.83-19.03,4.78-33.29,17.47-46.51,31.96-9.65,10.44-19.9,39.1-13.44,51.77-1.1-23.2,3.45-20.82,8.07-22.85,4.62-2.02,8.57,1.9,8.57,1.9,4.98,1.89,18.98-3.85,23.99-5.2,6.39-1.56,10.85-2.3,16.94-4.99,11.15-4.98,14.32-7.95,19.12-12.65,7.53-7.3,25.82-7.4,34.54-1.23,8.73,6.29,7.6,8.56,10.88,18.54,3.29,9.98,15.92,19.5,25.86,23.04"/>
    <path class="cls-5" d="M158.42,898.73c-2.53-3.26-4.67-7.38-3.63-11.38,1.04-3.99,6.79-6.51,9.49-3.39-2.01-3.24-2.93-7.28-1.95-10.97.98-3.69,4.03-6.89,7.79-7.53,3.76-.64,7.96,1.68,8.97,5.36-.02-7.67,8.41-14.13,15.81-12.1,7.4,2.02,11.38,11.86,7.46,18.46,4.46-2.94,11.34-.96,13.56,3.9,2.21,4.86-.81,11.36-5.96,12.79,4.77-1.09,8.71,5.04,7.24,9.7-1.47,4.66-6.19,7.51-10.83,9.06-16.98,5.68-36.94.27-47.95-13.89Z"/>
    <path class="cls-23" d="M243.89,891.29c-2.73,9.11-14.25,13.04-26.1,10.15-19.17-4.68-18.94-13.73-16.2-22.84,2.73-9.11,8.2-17.01,19.88-13.5,11.68,3.5,25.15,17.09,22.42,26.2Z"/>
    <path class="cls-16" d="M206.81,872.72c5.23,7.94.86,19.3-8.97,26.53-15.9,11.7-22.68,5.71-27.91-2.23-5.23-7.94-7.78-17.21,2.41-23.91,10.19-6.71,29.25-8.32,34.48-.38Z"/>
    <path class="cls-28" d="M262.64,903.85H68c-2.73,0-4.94-2.21-4.94-4.94l-1.88-4.69c0-2.73,2.21-4.94,4.94-4.94h198.38c2.73,0,4.94,2.21,4.94,4.94l-1.88,4.69c0,2.73-2.21,4.94-4.94,4.94Z"/>
  </g>
  <g id="Layer_2" data-name="Layer 2">
    <path class="cls-22" d="M950.67,858.96l-4.32,50.5,14.18,22.38,14.87,20.24,37.69,24s5.74-1.92-1.01-10.71c-6.49-7.64-13.63-14.87-21.35-21.64l-6.66-24.91,4.93-11.94,7.38.37s1.9,32.07,7.59,37.88c.99,1.01,1.82,1.84,2.53,2.53,1.98,1.93,5.17,1.73,6.92-.41l2.58-3.16-4.47-47.49s-5.51-20.47-7.51-25.21c-2.56-4.62-6.77-11.23-10.14-15.47l-1.46-6.48-37.83,2.94-3.91,6.59Z"/>
    <path class="cls-21" d="M905.86,308.23c-4.52,3.49-62.52,46.66-61.45,90.05,1.07,43.39,49.74,205.29,54.99,242.23,5.54,43.2,9.95,102.93,12.27,113.37l30.8,113.86,44.49-12.49s-65.71-269.83-63.2-331.68c2.51-61.85-17.91-215.34-17.91-215.34Z"/>
    <path class="cls-19" d="M1255.53,719.79l5.43,58.46c.54,5.76.81,11.54.78,17.33-.28,44.03-10.96,91.98-22.08,133.84l-23.98,190.62s1.45,82.66,10.68,150.84c8.03,59.1-8.62,165.72-8.62,165.72l-20.11,4.21c-18.17,3.8-36.8,4.79-55.27,2.93l-39.63-4.01-42.86-349.76-30.74-214.09-39.53-128.36,265.95-27.74Z"/>
    <path class="cls-19" d="M950.15,739.84l31.85,379.38c.28,16.57,7.05,31.52,15.79,111.18l16.36,135.71,6.05,59.02,11.51,1.83c15.82,2.97,31.96,3.75,47.98,2.3l35.12-2.02-49.77-681.4-114.89-6Z"/>
    <path class="cls-21" d="M1012.79,263.92l16.74,2.35c22.44,3.21,78.56,10.05,97.06,23.17,27.77,19.57-36.46,117.52-33.51,139.4,1.37,10.63,13.46,89.02,38.9,145.63,16.84,37.68,31.39,76.32,43.57,115.74l-61.56,25.94c-30.07,12.67-61.79,21.07-94.16,24.92l-85.82,9.15c-9.43-41.24-21.13-75.44-31.24-130.14l-43.93-174.58.35-80.32s12.01-20.63,12.79-25.03l43.68-41.17s-21.81,36.16,11.11,31.94c33.99-4.36,52.65-8.66,72.06-34.42,0,0,14.51-20.5,13.94-32.57Z"/>
    <path class="cls-21" d="M1130.98,402.44s89.95,169.7,105.17,208.4c19.09,48.53,22.36,87.23,25.39,110.76,3.4,26.43-153.8,49.74-210.25,59.28-56.46,9.54-113.8-2.12-127.37-70.81-5.82-29.48,47.1-292.23,47.1-292.23l159.96-15.4Z"/>
    <path class="cls-32" d="M855.69,437.56c6.19,14.56,11,29.68,15.27,44.9s8.29,31.87,12.19,47.86c3.8,15.56,7.62,31.12,12.21,46.47,1.23,4.1,2.53,8.18,3.8,12.26,2.22,7.1,4.43,14.2,6.63,21.3,3.04,9.81,6.08,19.63,9.09,29.45,3.18,10.36,6.34,20.73,9.46,31.12,2.63,8.75,5.24,17.5,7.74,26.28.9,3.14,1.78,6.28,2.62,9.43,1.78,6.71,2.91,13.55,3.69,20.44,1.23,10.9,1.75,22.11,8.19,31.44,1.76,2.56,3.85,4.87,6.09,7.01.47.45,2.49-.36,2.03-.79-4.32-4.11-7.88-8.89-10.01-14.49-1.9-4.98-2.66-10.29-3.25-15.56-.72-6.41-1.29-12.82-2.45-19.17-.87-4.8-2.1-9.5-3.41-14.2-2.26-8.13-4.66-16.22-7.07-24.31-3.03-10.17-6.11-20.32-9.22-30.46-3.09-10.1-6.2-20.19-9.32-30.28-2.46-7.96-4.93-15.91-7.41-23.86-1.13-3.62-2.26-7.25-3.4-10.87-4.16-13.27-7.65-26.75-11-40.24-3.97-15.97-7.72-31.99-11.91-47.91-4.08-15.49-8.55-30.91-14.2-45.91-1.33-3.52-2.72-7.01-4.19-10.48-.27-.63-2.4.06-2.17.58h0Z"/>
    <path d="M1021.59,846.5c17.43,13.02,24.58,35.71,27.28,56.4.8,6.16,1.26,12.35,1.55,18.55s.24,12.12.52,18.18c.04.77.1,1.54.15,2.31.35,5.51.7,11.03,1.05,16.54.61,9.51,1.21,19.02,1.82,28.53.76,11.94,1.52,23.89,2.28,35.83.82,12.82,1.63,25.63,2.45,38.45.77,12.13,1.54,24.25,2.32,36.38.63,9.87,1.26,19.75,1.89,29.62.39,6.06.77,12.12,1.16,18.17.1,1.49.16,2.98.35,4.47.48,3.78.96,7.56,1.45,11.35.93,7.27,1.85,14.54,2.78,21.82,1.27,9.94,2.53,19.88,3.8,29.83,1.49,11.73,2.99,23.45,4.48,35.18,1.61,12.64,3.22,25.28,4.83,37.92,1.61,12.64,3.22,25.29,4.83,37.93,1.51,11.86,3.02,23.73,4.53,35.59l3.89,30.52c.97,7.61,1.94,15.23,2.91,22.84.53,4.19,1.07,8.37,1.6,12.56.07.54.14,1.07.2,1.61.11.88,2.29.36,2.17-.58-.28-2.23-.57-4.46-.85-6.68-.77-6.07-1.55-12.15-2.32-18.22-1.16-9.08-2.31-18.17-3.47-27.25-1.42-11.17-2.84-22.33-4.27-33.5-1.58-12.4-3.16-24.8-4.74-37.2-1.63-12.77-3.25-25.54-4.88-38.31-1.56-12.27-3.13-24.53-4.69-36.8-1.39-10.9-2.78-21.79-4.16-32.69-1.11-8.68-2.21-17.36-3.32-26.04-.71-5.55-1.41-11.1-2.12-16.64-.21-1.67-.49-3.34-.62-5.02-.31-3.75-.48-7.51-.72-11.26-.53-8.3-1.06-16.59-1.59-24.89-.72-11.27-1.44-22.55-2.15-33.82-.81-12.69-1.62-25.38-2.42-38.07-.8-12.58-1.6-25.16-2.4-37.75-.69-10.86-1.38-21.72-2.07-32.57l-1.44-22.62c-.24-3.76-.5-7.5-.58-11.26-.48-23.1-1.38-47.24-11.91-68.31-4.3-8.59-10.11-16.45-17.85-22.24-.68-.5-2.63.46-1.7,1.16h0Z"/>
    <path class="cls-31" d="M1013.45,264.31c-1.41,5.82-3.83,11.51-6.44,16.88-5.78,11.88-13.8,22.83-24.1,31.18-6.33,5.13-13.49,9.17-21.17,11.88-4.75,1.68-9.7,2.81-14.65,3.67-4.3.75-8.65,1.26-13.02,1.24-8.27-.03-18.29-2.29-21.43-10.99-.58-1.6-.93-3.68-.88-5.14.11-3.67.25-7.34.37-11.01.02-.66.04-1.32.06-1.98.03-.96-1.78-.22-2.09.13-2.84,3.22-5.68,6.44-8.52,9.66l-2.03,2.31c-.23.26-.61.56-.73.9-.14.37-.06.97-.06,1.36-.02,1.09.02,2.17.12,3.26.6,6.7,3.4,14.02,8.94,18.17,4.85,3.63,11.24,5.21,17.1,6.2,8.56,1.45,17.35,1.5,25.97.57,9.68-1.05,19.62-3.3,28.51-7.37,7.7-3.52,14.17-9.23,19.8-15.46,6.09-6.75,11.27-14.26,16.12-21.93,4.57-7.21,9-14.56,12.83-22.2.96-1.92,1.89-3.85,2.7-5.84.34-.83.81-1.75.96-2.65.02-.1.05-.19.08-.29.06-.26-.2-.39-.42-.43-5.42-.95-10.85-1.9-16.27-2.86-.48-.08-1.19.04-1.54.41-.29.31-.29.65.2.74,5.42.95,10.85,1.9,16.27,2.86l-.42-.43c-.38,1.74-1.23,3.45-1.96,5.06-2.92,6.43-6.5,12.57-10.14,18.61-4.57,7.58-9.34,15.07-14.75,22.08-5.24,6.78-11.17,13.31-18.34,18.09-7.68,5.13-17.02,7.75-26.03,9.39-8.73,1.58-17.7,2.08-26.54,1.25-6.56-.62-13.42-1.86-19.33-4.92s-9.59-9.27-10.99-15.75c-.51-2.37-.78-4.82-.7-7.24,0-.25.02-.49.04-.74.01-.16.08-.34-.04-.1.21-.41.71-.8,1.01-1.14,3.13-3.55,6.27-7.11,9.4-10.66l.79-.89-2.09.13c-.14,4.23-.25,8.45-.42,12.68-.06,1.45.06,2.87.42,4.28,2.07,8.31,10.36,11.96,18.21,12.8,8.9.95,17.99-.61,26.62-2.7,8.48-2.05,16.59-5.52,23.87-10.35,11.91-7.91,21.31-19.1,28.12-31.6,2.42-4.44,4.53-9.05,6.31-13.78.89-2.37,1.82-4.81,2.37-7.29.03-.11.06-.23.09-.34.18-.76-2-.44-2.17.28Z"/>
    <path class="cls-10" d="M898.91,240.83c8.63-2.24,29.07-1.95,33.77.4-4.97,11.22-14.78,19.56-26.65,22.67-20.03,5.19-24.22-9.64-24.22-9.64,0,0,6.09-10.56,17.1-13.43Z"/>
    <path class="cls-26" d="M923.55,239.66s-10.5,1.88-18.71,3.97c-8.21,2.09-18.25,5.61-18.25,5.61,0,0-2.91-5.74,11.97-9.6,14.88-3.86,25,.02,25,.02Z"/>
    <path class="cls-37" d="M904.83,256.93c9.02-3.75,16.97-12.06,28.1-14.23,0,0,.91,15.64-22.65,21.76-23.56,6.12-28.51-8.55-28.51-8.55,10.77-3.51,13.34,2.13,23.06,1.02Z"/>
    <path class="cls-37" d="M887.45,238.84c4.86-1.66,8.48-.6,10.63-1.15,2.15-.55,4.8-3.24,9.93-4.19,4.72-.87,27.5,6.8,25.68,8.83-1.82,2.03-19.39-3.78-34.31.08-14.92,3.86-15.05,14.39-17.62,13.5-2.57-.88,1.15-15.53,5.68-17.07Z"/>
  </g>
  <g id="Layer_1" data-name="Layer 1">
    <path d="M433.42,445.93c2.34-9.65-3.58-19.37-13.23-21.71-4.37-1.06-8.98-.45-12.92,1.72-2.05-10.66-12.36-17.64-23.02-15.58-3.4.66-6.57,2.2-9.19,4.48-3.22-7.35-11.79-10.7-19.14-7.48-3.6,1.57-6.4,4.54-7.78,8.21-.37-.12-.75-.24-1.11-.33-11.03-2.91-22.34,3.67-25.25,14.7,0,0,0,0,0,0-8.61,1.29-14.88,8.84-14.57,17.55l24.44,128.95c10.15,8.47,24.41,9.97,36.11,3.82,13.11,7.97,30.18,4.12,38.58-8.72,7.41,5.32,17.73,3.62,23.04-3.79,1.77-2.47,2.83-5.38,3.05-8.42,1.43-.38,2.84-.82,4.29-1.37-3.38-3.53-3.82-10.09,1.92-12.77,5.74-2.69,9.04-10.6,7.05-16.66-1.31-4.11,2.67-8.52,6.44-9.18.52-.09,1.06-.13,1.59-.11-1.1-1.13-2.38-2.08-3.79-2.8.16-.16.31-.32.44-.5,8.8-10.1,7.75-25.43-2.35-34.24,0,0-.02-.01-.02-.02.43-.87.81-1.77,1.13-2.69,4.81-13.44-2.19-28.23-15.63-33.04-.03-.01-.07-.02-.1-.04Z"/>
    <path class="cls-22" d="M327.54,849.16c-1.48-12.5-12.84-80.45-20.06-110.23,4.29.3.26-3.24,4.59-3.75,14.69-1.72,28.69-7.36,42.83-11.66.68,6.36.95,12.26.62,17.43-2.99,47.37,24.32,247.73,24.32,247.73l-17.05,1.82-22.17-47.55c-6.09-22.7-9.6-60.57-13.07-93.79Z"/>
    <path class="cls-22" d="M372.22,618.67c-.54-2.49-10.65-18.52-10.65-18.52l36.18-13.79,17.21-52.65s12.03,42.71,27.18,54.08c2.04,1.53,37.55,11.65,37.55,11.65-19.67,23.51-44.77,28.56-71.33,43.88-43.2,24.56-52.64,11.59-52.64,11.59,0,0,17.04-33.75,16.5-36.24Z"/>
    <g>
      <g>
        <path class="cls-24" d="M680.2,1078.43s9.44-151.61,23.37-215.02c13.94-63.41,52.25-224.05,52.25-224.05h-34.21s-37.05,164.29-48.45,219.54c-11.4,55.25-23.51,219.54-23.51,219.54h30.55Z"/>
        <path class="cls-8" d="M661.65,1078.43s8.11-151.61,20.09-215.02c11.98-63.41,52.25-224.05,52.25-224.05h-24.24s-38.13,164.29-47.94,219.54c-9.8,55.25-26.43,219.54-26.43,219.54h26.26Z"/>
        <path class="cls-24" d="M465.71,1078.43s9.43-151.61,23.37-215.02c13.32-60.59,8.87-55.79,57.33-224.05h-39.29s-37.05,164.29-48.45,219.54c-11.4,55.25-23.51,219.54-23.51,219.54h30.55Z"/>
        <path class="cls-8" d="M447.16,1078.43s8.11-151.61,20.09-215.02c11.98-63.41,52.25-224.05,52.25-224.05h-24.24s-38.13,164.29-47.94,219.54c-9.8,55.25-26.43,219.54-26.43,219.54h26.26Z"/>
      </g>
      <path class="cls-8" d="M698.94,763.58h-224.21s-15.5,63.76-15.29,63.15c.21-.61,225.99-2.57,225.99-2.57l13.51-60.58Z"/>
      <path class="cls-8" d="M727.37,649.43h-224.21s-15.5,63.76-15.29,63.15c.21-.61,225.99-2.57,225.99-2.57l13.51-60.58Z"/>
    </g>
    <path class="cls-36" d="M301.83,1039.06c-1.46-4.68-1.04,12.93-2.88,8.44-4.15-10.17-9.16-19.89-14.74-29.14-5.74-9.52-12.13-18.55-19.14-26.92-4.76-5.69-9.82-11.1-15.19-16.07,85.61-39.19,286.73-76.24,286.73-76.24,0,0,65.71,36.86,44.03,115.11-6.5,23.44-26.79,30.39-55.4,35.13-67.75,11.23-169.85-1.32-220.93-6.98-.34-.04-2.15-3.28-2.49-3.32Z"/>
    <path class="cls-27" d="M346.56,819.6c1.96,1.46,4.54-5.18,15.92,39.24,2.06,8.05,7.65,38.38,7.79,46.44,7.46.52,8.39.84,15.87.25,32.68-2.54,63.73-14.81,92.42-30.1,24.54-13.07,47.65-28.57,70.56-44.28l-1.19-1.59-63.6-231.66-32.15-7.95-2.1-.61-1.12,2.55c-6.47,13.88-24.7,34.14-40.03,38.27-4.49,1.21-9.29,2.18-14.25,2.82-13.83,1.78-24.8-4.24-22.58-17.65.08-.46-9.42,10-11.14,11.15-9.3,6.21-29.19,29.28-35.96,34.83-4.63,3.79-6.3,15.55-8.4,21.16"/>
    <path class="cls-27" d="M362.48,858.84s8.49,87.23,10.35,102.51c0,0,78.74,1.63,154.43-28.26,75.69-29.89,73.49-15.02,73.49-15.02l-34.96-82.77-16.96-120.53-178.55,134.31"/>
    <path class="cls-7" d="M449.21,589.75c-1.37,3.3-3.2,6.45-5.09,9.48-4.43,7.09-9.81,13.63-16.15,19.08-8.06,6.93-17.74,11.96-28.27,13.74-7.75,1.31-18.98,2.01-24.07-5.47-2.04-3-1.93-6.19-2.24-9.49l-.19-2.07c-.07-.69-1.7-.11-1.95.13-2.32,2.18-4.63,4.36-6.95,6.54-1.36,1.28-2.15,1.85-1.85,3.85s1.41,4,2.51,5.73c1.37,2.17,2.95,4.28,4.82,6.04,3.04,2.87,6.82,4.78,10.87,5.78,5.37,1.33,11.06,1.1,16.47.18,6.74-1.15,13.36-3.28,19.58-6.09,12.61-5.69,23.88-14.26,32.92-24.72,4.04-4.68,7.94-9.52,11.55-14.55,1.19-1.66,2.62-3.41,3.47-5.29.05-.11.11-.21.17-.32.12-.25-.25-.39-.41-.42-4.48-.95-8.95-1.9-13.43-2.85-.66-.14-2.55.88-1.34,1.14,4.48.95,8.95,1.9,13.43,2.85l-.41-.42c.1-.21.06-.03-.03.05-.15.15-.25.45-.36.63-.49.83-1.02,1.64-1.57,2.44-2.61,3.86-5.5,7.53-8.43,11.14-4.61,5.69-9.43,11.11-15.02,15.87-4.93,4.19-10.29,7.88-15.98,10.95-5.65,3.05-11.64,5.45-17.84,7.12-5.75,1.55-11.84,2.53-17.8,1.82-4.22-.51-8.36-1.9-11.8-4.45-3.62-2.69-6.74-6.67-8.47-10.81-.5-1.2-.96-2.57-.7-3.88.06-.32.19-.38-.06-.11.3-.33.66-.62.99-.93,2.47-2.32,4.94-4.65,7.41-6.97l-1.95.13c.19,2.02.36,3.72.43,5.44s.57,3.55,1.4,5.12c3.91,7.42,13.56,8.24,20.99,7.7,11.54-.84,22.52-5.17,31.81-12.02,7.36-5.43,13.61-12.33,18.71-19.89,1.76-2.61,3.39-5.31,4.87-8.09.67-1.27,1.73-2.79,2.06-4.2.02-.07.06-.14.09-.2.27-.64-1.88-.4-2.17.29Z"/>
    <path class="cls-27" d="M361.9,794.62c-1.75,6.46.32,13.74,1.64,20.79-1.77,1.07.71,7.05-1.16,7.95-15.97,7.66-34.11,3.18-51.61,3.96.16-15.34-.59-36.83-.67-39.03-1.13-28.8-7.3-71.41-4.64-85.01,5.29-27.03,8.72-29.04,20.12-43.83,11.46-14.86,24.71-24.48,35.38-32.98,3.12,12.73-4.57,15.93-1.92,28.77,3.19,15.48,5.89,31.07,7.66,46.78,1.75,15.59,2.56,31.32,1.92,47.01-.63,15.38-2.69,30.72-6.72,45.59Z"/>
    <path class="cls-36" d="M301.22,1057.04c-1.97-4.25-4.15-8.38-6.47-12.39-5.23-9.07-11.23-17.57-17.72-25.55-6.67-8.2-13.9-15.83-21.64-22.73-5.26-4.69,10.59-19.63,4.84-23.55-21.58-68.33,312.46-53.37,312.46-53.37,0,0,13.43,15.42,13.43,63.19,0,81.25-214.93,59.93-284.91,63.63-.33.02.35,10.76.02,10.78Z"/>
    <path class="cls-36" d="M232.8,1049.23c19.82,56.67,63.62,209.55,90.93,278.08,0,0,75.11-3.66,80.76-20.94,0,0,1.63-368.94-44.4-375.14-33.93-4.57-91.67,7.72-109.19,22.12-21.03,17.29-33.71,51.25-18.1,95.88Z"/>
    <path class="cls-36" d="M269.51,1011.25s11.53-2.21,28-1.88c-3.19-6.91-4.28-12.07-4.28-12.07,1.53-1.75,3.15-3.54,4.84-5.36,9.43,2.2,18.64,5.24,27.58,8.87,10.4,4.22,20.45,9.23,30.05,14.95,9.25,5.51,18.09,11.72,26.25,18.67,2.31,1.97,4.56,4,6.74,6.1-.28.09,4.53-.62,4.25-.54,31.85,33.26,31.04,107.5,49.47,174.87,13.51,49.41,24.92,91.38,24.92,91.38-7.31,16.63-97.28,23.99-97.28,23.99-32.38-89.67-100.53-318.97-100.53-318.97Z"/>
    <path class="cls-4" d="M371.13,1329.93c-.39-1.15-.79-2.31-1.18-3.46-1.11-3.26-2.22-6.53-3.33-9.79-1.72-5.06-3.44-10.11-5.15-15.17-2.24-6.6-4.48-13.2-6.71-19.8-2.65-7.83-5.3-15.66-7.94-23.49-2.96-8.77-5.91-17.54-8.86-26.31-3.16-9.41-6.32-18.82-9.47-28.24s-6.49-19.44-9.73-29.17c-3.27-9.82-6.52-19.64-9.76-29.47-3.16-9.58-6.31-19.17-9.45-28.76-2.95-9.02-5.88-18.04-8.79-27.06-2.65-8.23-5.29-16.47-7.89-24.72-2.25-7.12-4.47-14.24-6.65-21.38-1.74-5.71-3.46-11.42-5.1-17.15-1.14-4-2.27-8-3.24-12.05-2.81-11.72-3.69-24.14-1.21-36.01,2.73-13.07,9.6-25.2,20.39-33.25,9.23-6.89,20.36-10.34,31.75-11.34,7.16-.63,14.33-1.25,21.49-1.88,8.47-.74,16.95-1.48,25.42-2.23,1.47-.13,2.94-.26,4.41-.39.37-.03,1.28-.14,1.45-.55s-.13-.52-.55-.48c-5.39.47-10.78.94-16.17,1.42-9.16.8-18.33,1.61-27.49,2.41-7.18.63-14.35,1.1-21.35,2.99-13.73,3.72-26.14,11.86-33.73,24.06-7.1,11.41-9.79,24.91-9.14,38.23.36,7.47,1.76,14.78,3.68,21.99,1.28,4.81,2.67,9.6,4.08,14.38,1.9,6.43,3.87,12.84,5.85,19.24,2.39,7.69,4.82,15.37,7.26,23.04,2.77,8.68,5.57,17.36,8.38,26.02,3.06,9.42,6.13,18.83,9.22,28.24,3.21,9.78,6.44,19.55,9.67,29.32,3.27,9.88,6.56,19.75,9.85,29.62,3.24,9.72,6.49,19.44,9.75,29.15,3.08,9.18,6.16,18.36,9.26,27.54,2.83,8.39,5.66,16.78,8.49,25.17,2.48,7.33,4.96,14.66,7.44,21.98,2,5.91,4.01,11.81,6.01,17.72,1.43,4.22,2.87,8.44,4.31,12.66.76,2.24,1.52,4.47,2.29,6.71.1.28.19.56.29.85.21.62,2.37-.01,2.17-.58h0Z"/>
    <path class="cls-7" d="M315.95,708.48c2.13,2.61,3.71,5.79,4.96,8.89,1.45,3.58,2.42,7.34,2.76,11.19.54,6.15.74,12.33,1.17,18.49,1.3,18.35,3.43,37.2,9.99,54.51,3.35,8.85,8.11,17.65,15.58,23.69.55.44,2.54-.4,2.03-.81-6.68-5.39-11.15-13.01-14.4-20.85-3.67-8.85-5.95-18.25-7.61-27.67-1.57-8.93-2.55-17.96-3.24-26.99-.5-6.55-.76-13.11-1.25-19.66-.29-3.81-1.02-7.48-2.34-11.09s-3.14-7.45-5.63-10.5c-.42-.52-2.51.23-2.03.81h0Z"/>
    <polygon class="cls-8" points="833.74 1478.59 861.28 1478.59 848.7 983.89 776.06 983.89 833.74 1478.59"/>
    <g>
      <path class="cls-24" d="M879.29,954.59H-518.73s1.25-53.23,1.25-53.23H880.54"/>
      <polygon class="cls-8" points="-493.04 1002.97 848.24 1002.97 857.98 953.22 -502.78 953.22 -493.04 1002.97"/>
    </g>
    <ellipse cx="279.4" cy="467.87" rx="11.53" ry="10.55" transform="translate(-190.34 744.12) rotate(-89.61)"/>
    <circle cx="271.33" cy="499.5" r="7.52" transform="translate(-211.39 199.33) rotate(-29.61)"/>
    <ellipse cx="300.15" cy="438.09" rx="14.06" ry="7.52" transform="translate(-125.03 119.91) rotate(-18.77)"/>
    <circle cx="325.48" cy="425.29" r="7.52"/>
    <circle cx="277.47" cy="530.39" r="7.52" transform="translate(-225.85 206.4) rotate(-29.61)"/>
    <ellipse cx="341.21" cy="418.14" rx="14.32" ry="9.78" transform="translate(-116.42 132.06) rotate(-18.77)"/>
    <ellipse cx="436.05" cy="548.78" rx="13.17" ry="10.81" transform="translate(-214.23 287.17) rotate(-29.61)"/>
    <ellipse cx="443.62" cy="528.12" rx="14.49" ry="12.45" transform="translate(-183.28 815.73) rotate(-74.61)"/>
    <path d="M314.01,571.11c-9.26.69-17.68-5.34-20.02-14.32-11.94-2.5-19.96-13.76-18.42-25.87.06-.4.12-.8.2-1.19-8.17-2.54-13.01-10.93-11.13-19.27.94-3.92,3.52-7.25,7.07-9.15-8.42-8.21-9.06-21.39-1.43-29.45,2.44-2.58,5.57-4.42,9.01-5.3-6.07-8.88-4.19-20.64,4.24-26.28,3.94-2.6,8.73-3.55,13.36-2.64,3.11-13.68,16.72-22.24,30.4-19.13.68.15,1.35.34,2.01.54.99.29,1.97.63,2.93,1.03,7.92-11.24,23.71-13.31,35.34-4.65.2.15.39.31.58.44,3.6-9.71,16.64-12.76,26.41-8.27,9.77,4.49,16.41,14.17,20.38,24.22,9.73.35,17.56,8.13,17.98,17.86.13,3.12-.6,6.22-2.11,8.96,14.35,8.11,20.45,25.95,13.73,40.29,7.87,12.04,8.03,27.18.48,38.44"/>
    <path class="cls-22" d="M294.95,484.37c-.01.21-.04.41-.1.62l.21-.35-.12-.26ZM284.28,492.36c-.12-.26-.5.46-.5.46l.17.3c.12-.25.25-.49.35-.73l-.02-.04ZM418.31,543.73c6.32,6.91,14.99-3.33,10.92-14.78,3.68-13.4-1.66-28.57-8.65-32.46l-.89-.61c-4.29-1.18-10.53.07-11.17,5.39-.02,2.21-.39,4.83-.41,7.04.1,2.45.76,7.2.17,9.65,0,0-2.89-22.49-4.85-27.53-1.96-5.05-7.66-17.11-19.6-20.12,0,0-15.15-5.61-21.46-8.99l-1.6.1c-.88.34-1.32.85-2.17,1.23-.11-.25.1-.67-.18-1.17-1.02.9-2.22,1.58-3.52,2,.16-.39.63-.92.5-1.16-1.07.64-2.2,1.15-3.39,1.53.17-.38.52-1.17.38-1.42-1.19,1.17-2.27,1.04-3.4,1.55.17-.41.21-.87.1-1.3-.93.85-2.04,1.48-3.25,1.84.16-.39.2-1.04.36-1.43-1.17,1.16-2.25,1.03-3.38,1.54-.28.12.35-.78.21-1.03-.83.64-1.74,1.15-2.71,1.54-.11-.25.36-.78.22-1.03-1.09.82-2.34,1.39-3.67,1.67l.38-1.42c-.7,1.12-1.85,1.87-3.16,2.06.16-.39.52-1.17.38-1.42-1,1.43-2.55,2.37-4.28,2.58.28-.14.52-1.18.37-1.43-.94,1.69-2.19,1.94-3.6,2.59.23-.43.28-1.08.6-1.86-1.03,1.84-2.9,3.05-5,3.22.29-.13.23-1.04.09-1.29-.66,1.55.88-.72-.65-.33-.88.86-1.85,1.62-2.9,2.26-.77,1.28.97-5.76-.45-5.11.06-.65-7.87,4.17-7.55,3.4-.95,1.7-.88,1.03-2.7,1.53,0,0-4.44,5.78-4.28,5.39-.82,1.93-1.95,1.14-3.77,1.65.18-.38,1.52.62,1.68.23-.65,1.56-.88.09-2.28.73-.13-.26-5.37.41-5.51.16-1.06,1.43-.53,1.33-2.23,2.09-.13-.26.23,3.34.4,2.94-.61,1.54-1,.68-2.53,1.07l-.96,1.6c-.82,1.93.86.49-.95,1-.1-.17,6.71-2.08,6.82-2.54-.74,1.27-1.72,2.39-2.89,3.29-.12-.26-.04-.92-.18-1.17-.68,1.7-2.07,3.03-3.81,3.62.28-.12.34-.79.2-1.04-.82,1.93-2.16,3.49-4.2,3.48h0c-.71,1.46-1.78,2.72-3.11,3.65-.22-.41-.18-.91.09-1.29l-1.12.52c-.45,2.75,5.52-1.39,6.14,1.47,0,0-1.16,9.73,1.23,27.15,1.96,14.31,10.98,34.31,13.15,38.33,1.86,3.45,2.84,11.45,4.11,15.39,6.86,21.3,27.42,37.43,48.28,41.51,8.33,1.66,21.01-3.54,26.85-7.22,11.91-7.5,24.02-25.53,30.06-41.86"/>
    <path class="cls-9" d="M336.88,574.06c2.53-.04,4.89-1.26,6.38-3.31.31-.42,1.78-.8,1.36-.19-2.1,2.67-5.29,4.26-8.69,4.33-.29-.02-.33-.21-.08-.43.3-.25.68-.4,1.07-.41"/>
    <path class="cls-9" d="M345.14,569.71c1.03-1.11,2.25-2.04,3.59-2.75.22-.11.46-.14.7-.08.16.06.25.17.17.3-.52.65-1.21,1.16-1.99,1.48-.24.13-.53.15-.79.04-.2-.12-.03-.35.16-.42.62-.25,1.17-.66,1.59-1.18l.84.23c-1.2.63-2.28,1.47-3.2,2.48-.21.19-.49.28-.77.24-.19,0-.43-.15-.21-.37"/>
    <path class="cls-9" d="M350.73,567.45c1.67-.71,2.94-2.11,3.49-3.83.36-2.27-2.05-4.8-4.53-5.06-.28-.02-.24-.24-.02-.38.28-.18.61-.25.93-.22,2.25.32,4.14,1.85,4.94,3.98.45,1.66-.62,3.44-2.35,4.76-.54.38-1.12.71-1.72.98-.24.13-.72.24-.93.11s-.02-.32.21-.42"/>
    <path class="cls-9" d="M333.5,574.61c0-.13-.1-.23-.23-.23-.04,0-.07,0-.1.02-.45.23-.96.28-1.44.16l-.19.7c.94-.32,1.94-.4,2.92-.26.21.02.41-.09.5-.28.06-.12.09-.36-.11-.4"/>
    <path class="cls-9" d="M334.94,574.24c-1.1-.17-2.22-.07-3.27.29-.17.06-.3.2-.35.38-.05.11,0,.24.11.28.02,0,.04.01.06.02"/>
    <path class="cls-9" d="M330.29,576.29c-1.25.48-2.67.23-3.67-.65-1.48-1.46-1.87-3.7-.97-5.57.09-.2-.06-.31-.18-.32-.22.05-.4.21-.49.42-.75,1.61-.68,3.48.18,5.03.76,1.36,2.26,2.15,3.82,2.01.43-.03.86-.12,1.27-.27.16-.09.44-.25.42-.49s-.15-.26-.33-.18"/>
    <path d="M286.06,540.74c4.44-6.29,8.17-9.18,19.17-15.42l.19.2,1.63,1.73,2.56,2.74c-3.62,1.99-6.48,3.19-8.68,4.59-4.15,2.75-9.27,5.4-12.5,9.31-.76-1.08-1.53-2.11-2.36-3.15Z"/>
    <path d="M334.26,510.73c.16,1.56.09.71.29,2.34l.47,3.73c4.07-1.55,6.99-3.07,9.67-3.85,5.31-1.55,11.3-3.98,16.89-3.85,2.71.11,6.51.21,8.67,2.21.57.54,1.78,2.55,2.77,1.97.4-.23-.54-2.14-.64-2.35-1.92-3.87-5.81-5.09-10.46-5.5-9.47-.83-14.09.03-27.71,5"/>
    <path class="cls-3" d="M425.8,538.05c3.62.48,6.17,3.81,5.69,7.44-.25,1.89-1.3,3.58-2.89,4.63-2.71,1.57-6.09,1.4-8.63-.43-.63-.5.76-1.16,1.2-.8,1.22,1.02,2.81,1.5,4.39,1.3.26-.03.51-.08.76-.15l.38-.12c.08-.03.15-.07.21-.12l.47-.27.15-.09c.52-.41.98-.89,1.38-1.41.42-.6.72-1.28.88-2,.33-1.47.08-3.02-.7-4.31-.94-1.54-2.5-2.58-4.27-2.87-.35-.06-.37-.42-.17-.65.29-.26.7-.37,1.09-.27l.08.11Z"/>
    <path d="M306.61,545.65c-1.86.05-3.51,1.19-4.2,2.92-.35.77-.47,1.62-.35,2.46.29,1.52,1.33,2.79,2.75,3.39,1.72.67,3.68.16,4.86-1.26,1.4-1.79,1.35-4.31-.13-6.04-.73-.86-1.76-1.39-2.88-1.5"/>
    <path d="M321.2,546s-11.66-2.77-15.93-1.3c-6.24,2.13-8.06,7.47-8.83,11.36,0,0,4.28-7.87,8.72-9.24,4.44-1.37,16.04-.83,16.04-.83Z"/>
    <path d="M355.46,524.38c1.26-1.37,3.2-1.87,4.96-1.27.81.25,1.54.72,2.1,1.37.96,1.21,1.26,2.81.78,4.28-.63,1.74-2.3,2.88-4.15,2.84-2.26-.13-4.12-1.84-4.44-4.08-.18-1.11.1-2.25.76-3.16"/>
    <path d="M345.12,535.93s5.81-10.12,9.92-12.51c7.56-4.3,16.88-3.22,20.48-1.34,0,0-14.05-.72-18.3,1.86-4.06,2.45-12.1,11.98-12.1,11.98Z"/>
    <path d="M356.96,441.56c-1.17.27-2.39.2-3.53-.19-.96-.71-1.72-1.66-2.19-2.75-2.79-4.29-9.08-4.12-14.13-3.18l-13.99,2.14c-5.2-3.62-12.16-3.35-17.06.66-.3-.48-.64-.93-1.02-1.35-1.66.83-3.31,1.67-4.93,2.54-6.72,3.43-13.02,7.65-18.76,12.56,3.61.69,7.35.03,10.51-1.85,3.14,7.26,10.1,12.13,18,12.58,2.43,4.19,5.99,7.6,10.27,9.85,2.87,1.75,6.32,2.27,9.58,1.46,3.34-.96,5.33-4.39,4.49-7.77,3.07,5.35,7.97,9.42,13.79,11.45,4.84.93,9.82.84,14.63-.27,2.42-.16,4.76-.93,6.81-2.22,4.96-3.65,3.81-11.17,2.17-17.1-.87-3.91-2.39-7.64-4.5-11.05-2.21-3.46-6.04-5.54-10.14-5.5Z"/>
    <path d="M312.65,466.06l-30.37.52c-6.1,7.1-11.37,14.86-14.26,24.54-3.93,13.43.33,24.93,6.4,37.88.89,1.83,1.42,3.82,1.56,5.85.39.08.78.14,1.17.18,2.69.61,5.52,0,7.73-1.65,1.67-1.66,2.64-3.9,2.69-6.25.14-3.8-1.07-7.52-3.42-10.51,4.63-5.11,6.2-12.29,4.14-18.87,5.85-.58,10.32-5.48,10.36-11.35,4.08,1.72,8.78,1.05,12.22-1.74,5.45-4.73,6.23-12.9,1.78-18.58Z"/>
    <path d="M363.14,480.14c2.28,4.41,7.7,6.16,12.13,3.91.91,7.74,11.05,21.38,23.06,15.7,12.12-6.34,20.74-10.9,28.18-22.8,1.37-2.19,2.45-4.55,3.21-7.03-.82-1.54-1.94-2.9-3.29-4.01-4.05-3.15-8.29-6.04-12.69-8.67-.93-.54-1.66-1.37-2.07-2.36-.17-1.28.04-2.57.61-3.73,1.79-5.95-1.58-12.23-7.54-14.02-2.06-.62-4.26-.64-6.33-.05.95-3.32-.88-6.81-4.16-7.91-3.19-.96-6.5-1.42-9.83-1.35-6.25-.51-12.58-3.01-18.61-1.5-6.28,1.66-10.86,7.06-11.47,13.52-4.41.34-8.61,1.99-12.07,4.75-3.45,2.95-4.17,8.01-1.67,11.8l-.91.78c.16.65.33,1.3.54,1.94,3.34,9.69,13.86,14.88,23.58,11.62-1.97,2.76-2.23,6.4-.68,9.42Z"/>
    <path d="M391.55,496.98s7.85,18.55,12.54,21.02c4.69,2.47,4.87,2.75,3.59-5.49-.78-5.65-1.19-11.35-1.24-17.05l-14.89,1.52Z"/>
    <path class="cls-15" d="M370.98,616.91l2.16,3.18s6.17.35,22.65-14.91c11.65-10.88,12.75-26.37,12.75-26.37-4.19,8.93-9.98,17.02-17.08,23.88-12.23,12.1-20.47,14.2-20.47,14.2"/>
    <path class="cls-34" d="M344.81,583.31c6.51-2.94,22.66-5.48,26.69-4.27-2.4,9.52-9,17.43-17.94,21.49-15.09,6.81-20.41-4.31-20.41-4.31,0,0,3.37-9.16,11.66-12.91Z"/>
    <path class="cls-26" d="M364.4,579.07s-8.16,2.96-14.47,5.77c-6.3,2.81-13.87,7.03-13.87,7.03,0,0-3.13-4.2,8.28-9.36,11.4-5.15,20.06-3.44,20.06-3.44Z"/>
    <path class="cls-37" d="M351.67,595.2c6.61-4.18,11.75-11.82,20.23-15.04,0,0,2.84,12.21-14.91,20.24-17.75,8.03-23.65-2.87-23.65-2.87,8.02-4.23,10.81-.13,18.33-2.33Z"/>
    <path class="cls-37" d="M335.32,583.4c3.67-2,6.72-1.65,8.37-2.39,1.65-.74,3.4-3.26,7.39-4.74,3.67-1.35,23.01,1.66,21.82,3.54-1.18,1.88-16.08-.35-27.52,4.8-11.44,5.16-10.09,13.62-12.27,13.27-2.18-.35-1.23-12.62,2.2-14.49Z"/>
    <path class="cls-15" d="M329.66,519.54c-1.88,1.6-4.4,2.59-6.88,2.06-1.13-.24-2.22-.78-3.06-1.58-.9-.85-1.45-1.96-1.71-3.16-.32-1.42-.25-2.9-.11-4.34.04-.36-.7-.26-.73.06-.26,2.62-.21,5.63,1.76,7.63,1.84,1.87,4.61,2.42,7.1,1.81,1.52-.37,2.93-1.15,4.11-2.16.37-.32-.21-.55-.48-.32h0Z"/>
    <path class="cls-30" d="M413.9,523.83c-.57-5.61-.93-11.43.03-17.02.35-2.06.87-4.41,2.21-6.09.12-.15.34-.38.4-.44.05-.04.24-.17.11-.09l-.51.08c.72.26,1.39.72,2,1.18,1.67,1.26,3.04,2.91,4.09,4.71.89,1.53,1.56,3.17,2.07,4.87.06.21.79,0,.72-.19-1.11-3.67-3.06-7.27-6.17-9.62-.6-.46-1.28-.94-2-1.2-.28-.11-.55-.05-.79.13-.65.47-1.09,1.28-1.44,1.98-.98,2-1.39,4.26-1.66,6.45-.62,5.12-.32,10.35.2,15.46.02.19.75.04.72-.19h0Z"/>
    <path class="cls-30" d="M417.08,523.65c2.46-1.2,3.48,2.71,3.93,4.34.35,1.26.63,2.56,1.08,3.8.27.76.69,1.82,1.58,2.03,1.17.26,1.51-.95,1.58-1.84.16-2.02-.21-4.1-.6-6.07-.27-1.36-.59-2.71-.97-4.05-.08-.28-.16-.53-.28-.8-.42-.99-.9-1.95-1.43-2.89-1.55-2.71-3.96-6.03-7.43-6.02-.23,0-.78.35-.3.35,3.02,0,5.28,3,6.69,5.33.6,1,1.14,2.03,1.61,3.1s.74,2.3,1.02,3.49c.5,2.17.94,4.41.99,6.64.02.67.02,1.4-.2,2.05-.06.16-.19.29-.25.44.07-.18.18.07.05-.05-.08-.08-.25-.12-.35-.2-.74-.57-1.02-1.7-1.27-2.54-.38-1.26-.66-2.54-1.05-3.79-.35-1.14-.78-2.47-1.69-3.3s-2.12-.65-3.15-.15c-.12.06-.19.15-.08.23s.41-.03.51-.08h0Z"/>
    <path class="cls-22" d="M1007.72,373.37c-3.5,5.3-6.94,10.64-10.35,16-.38-.48-.77-.97-1.15-1.44l-5.27-5.83c-.9-.55-15.06-9.15-21.37-12.69-2.31-2.31-4.09-5.05-5.23-8.07l-1.66-7.56c.31-.04.44-.15-.07-.3l-.13-.57c-.4.14-.66.27-.83.37-.06,0-.11-.02-.17-.03l-3.85.43c-2.02,1.45-11.09-.47-13.06-1.76-2.56-1.55-7.73-5.78-11.31-8.49-6.55-4.97-9.8-7.17-9.8-7.17,0,0-9.52-5.52-11.24-9.14-1.72-3.62-2.31-10.78-2.31-10.78,0,0-3.91-5.2-4.08-8.1-.29-4.48,3.1-8.79,8.42-10.17,4.54-1.18,26-8.29,26-8.29l1.63-5.43-6.19-12.84-12.96,2.58s-5.48,6.79-11.73,7.86c-2.18.43-4.4.25-6.39-.52-1.39-.6-1.94-2.17-1.23-3.52.07-.13.14-.25.23-.36,3.36-4.57,11.18-14.97,14.4-17.13,4.14-2.79,25.28-4.69,27.95-3.15.55.31,18.32,26.31,18.32,26.31,4.44,1.36,8.16,4.15,10.53,7.91,3.49,6.04,31.96,55.03,31.96,55.03l4.17,10.34,8.27,6.66s-3.02-2.27-2.72-2.07c-3.88,5.56-5.1,6.28-8.82,11.93Z"/>
    <g>
      <path class="cls-11" d="M941.47,282.9c-1.73-3.82-3.47-7.64-5.2-11.46-.24-.52-.77-.58-1.29-.48-3.03.6-6.06,1.21-9.08,1.81-1.25.25-2.6.38-3.82.76-1.03.32-1.82,1.66-2.56,2.39-1.91,1.89-4.1,3.6-6.58,4.68-1.6.7-3.38,1.07-5.13.96-1.49-.09-4.14-.38-4.14-2.35,0-1.15,1.24-2.33,1.9-3.21.79-1.06,1.59-2.11,2.39-3.16,1.72-2.24,3.47-4.46,5.29-6.62,1.41-1.67,2.85-3.33,4.52-4.74.31-.26.18-.16.37-.27.35-.21.72-.37,1.08-.54,1.21-.57,2.45-1.05,3.75-1.38,1.38-.35,2.82-.36,4.22-.55,1.82-.25,3.64-.47,5.46-.66,2.28-.24,4.56-.44,6.85-.52,1.71-.07,3.61-.21,5.28.23.81.22,1.44.96,2.05,1.71,1.12,1.35,2.11,2.8,3.09,4.26,4.1,6.12,7.58,12.58,11.37,18.88.08.14.16.29.24.43.17.3.61.33.9.33.27,0-.15-.01.17,0,.41.02.82.05,1.22.1,1.22.13,2.43.36,3.6.7,3.31.96,6.22,2.76,8.09,5.71,3.46,5.46,5.77,11.76,8.09,17.76.65,1.69,1.3,3.39,1.91,5.09.36,1.01,2.53.41,2.17-.58-1.71-4.78-3.59-9.52-5.63-14.17-1.34-3.05-2.73-6.14-4.5-8.98-1.9-3.03-4.88-5.04-8.25-6.14-2.14-.7-4.44-1.14-6.71-1.14l.9.33c-2.8-5.02-5.71-9.99-8.75-14.86-1.85-2.97-3.72-6-5.95-8.71-.62-.75-1.3-1.6-2.2-2.02-1.22-.57-2.71-.58-4.03-.61-4.04-.1-8.09.34-12.1.81-1.34.16-2.67.36-4.01.52-1.69.21-3.33.3-4.98.83s-3.44,1.16-4.88,2.16-2.66,2.42-3.82,3.73c-3.32,3.73-6.35,7.73-9.33,11.73-.68.91-1.59,1.86-1.91,2.97-.39,1.36.18,2.76,1.37,3.51,2.69,1.69,6.86,1.28,9.72.28,4.06-1.42,7.77-4.44,10.46-7.77l-.71.43c4.32-.86,8.64-1.72,12.96-2.58l-1.29-.48c1.73,3.82,3.47,7.64,5.2,11.46.45.98,2.6.36,2.17-.58h0Z"/>
      <path class="cls-11" d="M933.76,343.26c-3.19-2.41-6.37-4.95-9.74-7.13-2.3-1.48-4.62-2.87-6.79-4.55-1.5-1.16-3.18-2.45-4.2-4.09-1.15-1.86-1.54-4.31-1.92-6.43-.18-1.01-.33-2.02-.45-3.04-.06-.51-.01-1.23-.18-1.72-.08-.23-.29-.45-.44-.65-.54-.76-1.06-1.55-1.54-2.35-1.14-1.9-2.29-4-2.1-6.28.22-2.58,1.67-4.92,3.71-6.47,2.35-1.8,5.93-2.55,8.73-3.5s5.51-1.89,8.26-2.82c.32-.11-.44.12.11-.03.49-.13.98-.28,1.47-.43,1.56-.45,3.13-.91,4.69-1.36l5.49-1.59c.48-.14.97-.28,1.45-.42.11-.03.23-.06.34-.1.21-.08.39-.18.59-.29.44-.24-.47,0,0,.03.4.03,1.27-.48,1.64-.62.81-.3,1.62-.61,2.43-.93,1.56-.63,3.09-1.31,4.64-1.96,3.9-1.65,7.85-3.24,12.14-3.4.38-.01,1.27-.15,1.44-.56s-.14-.54-.56-.52c-4.96.19-9.52,1.94-14.04,3.85-1.95.83-3.89,1.68-5.87,2.44-.84.32-1.7.61-2.53.95-.36.14-.91.3-1.14.64l.88-.48c-4.5,1.31-9.03,2.53-13.51,3.92-4.45,1.38-8.8,3.1-13.24,4.51-3.79,1.2-7.37,3.39-8.79,7.32-1.42,3.93.64,7.39,2.8,10.58.24.36.66.76.82,1.16-.06-.15.01.52.03.7.2,1.88.48,3.76.87,5.6.38,1.75.8,3.68,1.82,5.18s2.48,2.69,3.9,3.8c2.24,1.75,4.64,3.19,7.02,4.72,3.37,2.17,6.54,4.71,9.74,7.13.55.42,2.52-.44,2.03-.8h0Z"/>
    </g>
    <path class="cls-11" d="M960.51,352.34c-.94.66-2.56.84-3.65.93-1.77.14-3.48-.14-5.18-.62-3-.85-5.92-2.08-8.62-3.66-2.84-1.67-5.48-3.64-8.06-5.68-2.6-2.05-5.07-4.06-7.04-6.75-1.95-2.66-2.43-6.02-1.08-9.08,1.25-2.82,3.63-5.29,6.09-7.11,2.59-1.91,5.41-3.5,8.03-5.37s4.75-4.01,6.71-6.39c2.27-2.76,4.51-5.74,7.83-7.34,1.72-.84,3.65-1.12,5.55-1.21,1.6-.08,5.08-.25,6.04,1.41l1.83-1.1c-.28-.14-.52-.44-.8-.61-.8-.51-2.71.59-1.68,1.25.28.18.51.46.8.61.66.34,2.42-.09,1.83-1.1-.73-1.27-2.6-1.7-3.94-1.88-1.99-.27-4.03-.23-6.01.05-3.62.51-6.5,2.16-9.16,4.62-2.72,2.52-4.72,5.67-7.42,8.23-2.82,2.68-6.25,4.63-9.47,6.78-5.33,3.57-11.36,9.9-8.48,16.84,1.29,3.12,4.07,5.78,6.69,7.83,3.03,2.37,6.05,4.79,9.34,6.81,3.41,2.09,7.18,3.73,11.08,4.65,3.11.74,7.47.81,10.21-1.13,1.2-.85-.57-1.59-1.44-.98h0Z"/>
    <path class="cls-11" d="M963.31,352.2c-.45-1.59-.69-3.19-.88-4.83-.21-1.81-.52-3.6-.77-5.4-.46-3.32-.95-6.78-.84-10.14.02-.55-2.15-.2-2.17.58-.1,3.36.39,6.81.84,10.14.25,1.8.56,3.59.77,5.4.19,1.64.43,3.24.88,4.83.19.67,2.36.09,2.17-.58h0Z"/>
    <path class="cls-11" d="M960.3,331.4c-.66.09-1.27-.38-1.81-.72-.49-.32-1.04-.67-1.32-1.2-.49-.93-.58-2.09-.8-3.11s-2.25-.36-2.17.58l.1,1.21.19-.58c-2.32,2.69-4.85,5.13-7.44,7.55l1.29-.46-1.1-.03c-.48-.01-1.08.12-1.35.55-.23.36-.11.76.33.89,1.77.52,4.1,1.4,4.58,3.41.64-.3,1.29-.6,1.93-.89l-.27-.19-.95,1.35c1.57-.12,3.12.1,4.57.7,1.31.54,2.79,1.46,3.5,2.73.44.79,2.53.02,2-.93-.85-1.51-2.67-2.56-4.23-3.19-1.78-.72-3.72-.94-5.63-.8-.56.04-1.76.78-.95,1.35l.27.19c.56.39,2.14-.03,1.93-.89-.59-2.43-3.32-3.58-5.48-4.22l-1.02,1.44c.9.03,1.74.16,2.47-.51,1-.92,2-1.84,2.98-2.8,1.28-1.25,2.51-2.55,3.7-3.9.41-.47.91-.84.86-1.5-.03-.36-.06-.71-.09-1.07-.72.19-1.45.39-2.17.58.28,1.26.36,2.87,1.27,3.88,1.08,1.2,2.97,2.29,4.61,2.07.44-.06,1.16-.3,1.21-.84s-.58-.71-.99-.65h0Z"/>
    <path class="cls-11" d="M923.49,334.88c.15.2.27.41.37.64l1.98-.99c-3.15-3.2-6.14-7.62-6.72-12.15-.34-2.64.16-5.46,1.79-7.62,1.41-1.88,3.33-3.22,5.37-4.33,8.73-4.76,17.64-9.24,26.5-13.74,2.01-1.02,4.01-2.11,6.08-3.01,2.52-1.1,6.05-2.15,8.76-1.23.99.34,2.55-1.09,1.23-1.54-4.79-1.64-10.1.9-14.31,3.01-4.47,2.24-8.91,4.54-13.35,6.84-5.17,2.68-10.39,5.29-15.51,8.07-4.43,2.41-8.48,5.85-8.85,11.24-.4,5.77,3.11,11.46,7.02,15.44.7.71,2.54.14,1.98-.99-.1-.23-.22-.44-.37-.64-.58-.87-2.64,0-1.98.99h0Z"/>
    <path class="cls-11" d="M910.82,316.06c-.6-3.93.64-8.1,2.35-11.63,1.52-3.13,4.38-6.32,7.82-7.31,1.32-.38.96-1.78-.37-1.4-3.95,1.14-7.32,4.38-9.23,7.95-2.06,3.85-3.41,8.61-2.75,12.97.14.94,2.32.41,2.17-.58h0Z"/>
    <path class="cls-21" d="M1157.91,450.45c18.31-9.66,21-9.96,35.83-24.31,4.51-4.36,2.51,8.22,6.86,3.7-19.66-58.01-35.76-101.93-52.43-124.31-32.29-38.58-115.03-35.81-115.03-35.81l42.66,143.86,47.37,50.78c8.77-2.95,26.54-9.59,34.74-13.91Z"/>
    <path class="cls-32" d="M1124.24,458.18c-11.59-18.68-21.57-38.49-29.72-58.89-4.37-10.93-8.2-22.11-11.03-33.55-2.53-10.22-4.78-20.92-3.38-31.47,1.46-11.03,6.34-22.73,16.05-28.91,1.24-.79-.65-1.1-1.35-.65-8.63,5.5-13.72,15.02-15.96,24.79-1.15,4.99-1.59,10.15-1.29,15.26.32,5.46,1.38,10.93,2.54,16.27,5.06,23.42,14.41,45.94,25.08,67.31,5.23,10.47,10.89,20.75,17.06,30.7.38.61,2.49-.09,2.02-.85h0Z"/>
    <path class="cls-21" d="M1133.52,470.75l.57,24.45c7.49,1.67,14.6,5.54,20.8,9.8,12.02,8.27,22.2,19.19,30.99,30.76,9.4,12.39,2.54,28.99,8.39,43.41,1.99,4.9,8.28,6.23,9.68,11.44,10.03-10.56,25.23-10.78,26.14-24.34,2.05-11.5-1.57-28.03-10.91-70.86-11.8-49.87-26.47-89.11-27.93-91.43l-57.71,66.76Z"/>
    <path class="cls-21" d="M1226.05,552.17s14.09,52.25-40.62,62.87c-38.34,7.44-82.05-36.01-96.94-55.87-14.89-19.87,83.2-78.66,83.2-78.66l54.36,71.66Z"/>
    <path class="cls-21" d="M1200.67,533.33c-1.57-7.94-10.62-24.29-15.46-31.1l-29.38-27.78-133.56-124.56c-6.64,6.09-18.33,21.42-25.81,26.33-4.2,2.76-8.55,5.31-13.06,7.54,38.6,61.9,76.85,124.58,102.62,153.63.48.58,7.51,9.06,7.51,9.06,0,0,26.71,34.9,61.14,52.8,3.58,1.86-11.17-10.08-6.05-10.05,2.41-4.53,5.67-3.66,7.24-7.83,5.25-13.85,32.49-13.24,33.95-27.96,1.4-14.1,13.62-6.15,10.85-20.09Z"/>
    <path class="cls-32" d="M1186.05,499.96c-5.38-5.09-10.76-10.17-16.14-15.26-4.44-4.2-8.9-8.38-13.33-12.6-2.13-2.03-4.25-4.07-6.38-6.1-4.82-4.61-9.65-9.23-14.47-13.84-6.7-6.41-13.4-12.82-20.11-19.23-7.59-7.26-15.18-14.52-22.77-21.78-7.7-7.37-15.41-14.73-23.11-22.1-6.83-6.54-13.67-13.07-20.5-19.61-5.11-4.88-10.21-9.76-15.32-14.65-2.49-2.38-4.97-4.76-7.46-7.13-.11-.1-.22-.21-.32-.31-.43-.41-1.26-.44-1.71-.01-4.42,4.08-8.28,8.77-12.29,13.24-4.05,4.52-8.18,9.44-13.22,12.89-4.16,2.85-8.6,5.35-13.11,7.59-.41.21-.8.65-.51,1.11,8.5,13.63,17.13,27.18,25.86,40.67,9,13.9,18.11,27.72,27.36,41.46,8.67,12.89,17.46,25.7,26.43,38.37,7.62,10.76,15.36,21.45,23.41,31.89,5.61,7.28,11.58,14.23,17.44,21.3,2.85,3.44,5.65,6.95,8.62,10.28,5.96,6.67,12.45,12.88,19.41,18.5,9.21,7.43,19.38,13.92,30.51,18.07,11.66,4.35,24.4,5.82,36.55,2.67,2.4-.62,4.68-1.76,6.83-2.97,5.08-2.89,9.61-6.71,13.43-11.13,2.52-2.92,4.71-6.11,6.61-9.46.6-1.05-1.61-1.07-2.08-.24-5.35,9.39-13.57,17.99-23.84,21.91-.26.1.05,0-.3.11-.11.04-.22.08-.34.11-.96.29-1.95.51-2.93.72-3,.64-6.06.99-9.13,1.07-6.14.18-12.28-.75-18.17-2.46-11.42-3.31-21.89-9.35-31.36-16.45-7.61-5.71-14.67-12.16-21.14-19.13-2.66-2.86-5.14-5.86-7.63-8.86-5.6-6.76-11.37-13.38-16.81-20.27-7.67-9.7-14.99-19.68-22.19-29.73-8.72-12.17-17.25-24.48-25.66-36.87-9.1-13.4-18.06-26.9-26.92-40.46-8.77-13.43-17.43-26.93-25.98-40.5-2-3.18-4-6.37-5.99-9.55l-.51,1.11c6.6-3.29,13.21-6.97,18.59-12.07,4.91-4.66,9.29-9.85,13.8-14.88,2.17-2.41,4.33-4.86,6.72-7.07-.57,0-1.14,0-1.71-.01,1.71,1.64,3.43,3.28,5.14,4.92,4.55,4.35,9.1,8.7,13.65,13.05,6.52,6.24,13.05,12.48,19.57,18.71,7.52,7.19,15.05,14.39,22.57,21.58s15.49,14.81,23.23,22.22l20.88,19.97c5.39,5.16,10.78,10.31,16.17,15.47,2.86,2.73,5.72,5.47,8.57,8.2s5.67,5.37,8.51,8.05c6.75,6.38,13.5,12.76,20.25,19.14.45.43.9.85,1.35,1.28.71.67,2.76-.23,1.99-.96h0Z"/>
    <path class="cls-32" d="M1215.56,551.36c-1.38-14.41-9.35-26.95-18.29-37.93-2.34-2.88-4.77-5.68-7.21-8.48-.51-.59-1.01-1.18-1.56-1.73-1.17-1.14-2.37-2.26-3.56-3.39-10.31-9.84-20.63-19.68-30.94-29.52-3.04-2.9-6.08-5.8-9.12-8.7-.47-.45-2.49.36-2.03.79,7.78,7.42,15.56,14.84,23.33,22.26,5.07,4.84,10.14,9.68,15.22,14.52,1.49,1.42,2.97,2.83,4.46,4.25,2,1.9,3.72,4.07,5.51,6.17,10.41,12.17,20.44,25.89,22.02,42.34.05.54,2.24.11,2.17-.58h0Z"/>
    <g>
      <rect class="cls-26" x="359.93" y="92.23" width="209.64" height="191.17"/>
      <path class="cls-29" d="M571.15,91.29c-23.64,0-47.29,0-70.93,0h-112.94c-8.59,0-17.18,0-25.77,0-.81,0-4.01.4-4.01,1.59,0,21.54,0,43.08,0,64.62,0,34.32,0,68.64,0,102.96,0,7.86,0,15.73,0,23.59,0,.27.76.29.84.29,23.64,0,47.29,0,70.93,0,37.65,0,75.29,0,112.94,0,8.59,0,17.18,0,25.77,0,.81,0,4.01-.4,4.01-1.59,0-21.54,0-43.08,0-64.62,0-34.32,0-68.64,0-102.96,0-7.86,0-15.73,0-23.59,0-.65-4.85,0-4.85,1.3,0,21.54,0,43.08,0,64.62,0,34.32,0,68.64,0,102.96,0,7.86,0,15.73,0,23.59,1.34-.53,2.68-1.06,4.01-1.59-21.92,0-43.83,0-65.75,0-36.6,0-73.21,0-109.81,0-10.38,0-20.77,0-31.15,0-.7,0-1.96.25-2.62,0-.46-.18.47.71.53-.21.19-2.86,0-5.8,0-8.67,0-32.63,0-65.25,0-97.88,0-17.77,0-35.54,0-53.31,0-6.24,0-12.47,0-18.71,0-3.4.54-7.32,0-10.69-.07-.45,0-.96,0-1.42l-4.01,1.59c23.64,0,47.29,0,70.93,0h112.94c8.59,0,17.18,0,25.77,0,.97,0,5.46-1.88,3.18-1.88Z"/>
    </g>
    <rect class="cls-25" x="409.7" y="129.25" width="109.29" height="121.35" transform="translate(928.7 379.85) rotate(-180)"/>
    <path class="cls-20" d="M519.39,168.33c-5.6.27-11.12,1.38-16.08,3.34-13.42,5.3-22.25,16.1-36.45,20.08-10.83,3.04-23.2,1.51-33.65-2.19-8.46-3-15.91-7.31-23.1-11.83v-52.1h109.29v42.69Z"/>
    <g>
      <rect class="cls-26" x="112.94" y="92.23" width="209.64" height="191.17"/>
      <path class="cls-29" d="M111.37,284.42c23.64,0,47.29,0,70.93,0,37.65,0,75.29,0,112.94,0,8.59,0,17.18,0,25.77,0,.91,0,3.99-.34,3.99-1.67,0-21.54,0-43.08,0-64.62,0-34.32,0-68.64,0-102.96,0-7.86,0-15.73,0-23.59,0-.29-.74-.37-.86-.37-23.64,0-47.29,0-70.93,0-37.65,0-75.29,0-112.94,0-8.59,0-17.18,0-25.77,0-.91,0-3.99.34-3.99,1.67,0,21.54,0,43.08,0,64.62,0,34.32,0,68.64,0,102.96,0,7.86,0,15.73,0,23.59,0,.85,4.85.15,4.85-1.3,0-21.54,0-43.08,0-64.62,0-34.32,0-68.64,0-102.96,0-7.86,0-15.73,0-23.59l-3.99,1.67c21.92,0,43.83,0,65.75,0,36.6,0,73.21,0,109.81,0,10.38,0,20.77,0,31.15,0,.76,0,1.88-.21,2.62,0,.46.13-.45-.8-.56.12-.32,2.81,0,5.85,0,8.67,0,32.63,0,65.25,0,97.88,0,17.77,0,35.54,0,53.31,0,6.24,0,12.47,0,18.71,0,3.4-.54,7.32,0,10.69.07.45,0,.96,0,1.42l3.99-1.67c-23.64,0-47.29,0-70.93,0-37.65,0-75.29,0-112.94,0-8.59,0-17.18,0-25.77,0-1.08,0-5.51,2.05-3.13,2.05Z"/>
    </g>
    <rect class="cls-20" x="163.51" y="125.02" width="109.29" height="121.35"/>
    <path class="cls-25" d="M163.11,207.3c5.6-.27,11.12-1.38,16.08-3.34,13.42-5.3,22.25-16.1,36.45-20.08,10.83-3.04,23.2-1.51,33.65,2.19,8.46,3,15.91,7.31,23.1,11.83v52.1h-109.29v-42.69Z"/>
  </g>
  <g id="Layer_4" data-name="Layer 4">
    <path d="M891.83,233.98c-3.78.7-6.64,3.52-8.67,6.72-2.03,3.19-5.31,5.7-6.36,9.31-.11,1.08-.53,2.32.29,3.21,1.08.88,2.32.79,3.15-.14.68-.98,1.2-2.01,1-3.2s-.09-2.27-.03-3.46c.16-.98,3-.96,4.04-1.47.36-.05.88-.3,1.29-.51.52-.26.63-1.08.79-1.8.16-.98.53-1.81.95-2.78.52-1.03,1.41-2.11,2.44-1.59.15.05.41.31.67.31l.73-.36c1.71-1.23,2.09-3.35,1.22-5.11"/>
    <path d="M889.09,234.43h0l.1.21h0c.77,1.3,5.01-.02,4.19-1.42-.67-1.09-2.68-.74-3.72-.23l-1.35.66c.21-.1-.26,0,0,0s-.52.26-.52.26c-2.18.81-4.25,2.87-5.87,4.56-1.51,1.39-2.71,3.14-3.34,4.99-.37,1.08-.37,2.12-.74,3.2-.37,1.08-.68,2.01-1,3.2-.53,1.55,3.92,1.16,4.34-.34.58-1.7,1.06-3.61,1.48-5.36.37-1.6,1-2.94,1.99-4.07,1.2-1.23,2.5-2.52,3.74-3.65.26-.26.68-.72,1.09-.92l2.49-1.22c-.41.2-.88.3-1.35.41h-1.03s-.72-.42-.72-.42l.1.21.1-.05Z"/>
    <path d="M902.12,232.87c5.54-1.38,11.22-2.04,17.06-2.21.7-.03,1.28.05,1.95.25.43.29.86.58,1.39,1,1.22.51,2.58.8,3.87.74,1.28.05,2.83.6,3.13,1.92l-.09.69c-.14.21-.5.28-.73.25l-6.98-.09c-2.22.06-4.4-.22-6.53-.85-.77-.33-1.32-.64-2.12-.74-.79-.22-1.52.04-2.07.66-.27.31-.45.76-.72,1.07-.66.61-1.66.25-2.42-.2s-1.61-1.03-2.48-.67c-.37.18-.63.38-.91.7-.92.81-2.23.99-3.21.51-.99-.48-1.8-1.4-1.88-2.57"/>
    <path d="M898.49,231.23s-.01.11,0,0l-.23-.03c-.83.12-.02,1.05.41,1.33.96.71,1.84,1.06,3.02.98,4.19-.85,8.51-2.74,12.84-2.87,2.09.04,4.12.54,6.1,1.49l6.78,2.51-.46-1.81c-3.74-.84-7.18-3.03-11.03-3.88-4.08-.88-7.58.06-11.39,1.55-.72.14.87,1.39,1.1,1.42.87.46,1.89.71,2.85.49,3.43-1.3,6.7-2.27,10.27-.99,3.45,1.26,6.39,2.81,9.9,3.62.46.06,1.39.06,1.35-.52s-1.34-1.34-1.8-1.4c-2.56-.92-5.24-1.85-7.78-2.88-2.32-1-4.91-1.69-7.44-1.9-4.87-.17-9.68,1.89-14.47,2.89h0Z"/>
    <path d="M930.3,234.79s-.11-.01,0,0l.03-.23h0c-.84-.69-1.7-1.27-2.84-1.42-.34-.04-1.72-.22-1.12.55.41.4.71.79,1,1.29.28.5-.27.31-.62.27l-.46-.06c-.23-.03-.43-.29-.66-.32-1.86-.94-3.6-2.8-5.95-2.64-.83.12-1.35.52-1.11,1.37.2.26.38.63.58.89.18.37.17.49.12.83,1.64.8,2.32,1,1.69.45l-.34-.04-.64-.43-1.17-.85-2.47-1.6c-.96-.71-1.86-.94-3.02-.98-.95.11.12.83.44,1.11,2.13,1.56,4.35,3.25,6.8,4.15.67.2,2.82.72,2.75-.57-.05-.47-.24-.85-.54-1.24-.21-.14-.31-.27-.27-.62s.26-.2.29-.43c-.59.97-2.73-1.4-1.79-.58.31.27.63.55.96.71.53.42,1.07.72,1.73,1.04,1.19.74,2.63,1.27,3.98,1.68.44.17,1.13.26,1.7.34.56.19,1.15.15,1.75,0,1.01-.57-.66-2.07-1.06-2.58l.24-.08Z"/>
  </g>
  <g id="Layer_5" data-name="Layer 5">
    <path class="cls-22" d="M567.61,686.9l-65.46,8.59,12.54,46.75,18.81,87.63c14.1,1.72,38.18-10.26,52.35-10.45,8.2-.11,6.72-1.53,14.91-1.25-.19-5.83-21.43-81.91-22.05-87.28-1.78-15.33,0,0-11.09-43.99Z"/>
    <path class="cls-22" d="M578.02,740.49s22.88,77.37,23.77,79.95c7.88,22.78,6.04,39.82,3.3,52.03-5.77,25.69-33.63,25.44-62.16,12.26-31.56-14.58.6-70.68.6-70.68l34.49-73.57Z"/>
    <path class="cls-22" d="M595.17,885.65c-4.86,6.81-22.49,11.19-39.95,11.86-52.89,2.05-143.54-3.59-191.97-9.76l10.15-17.29-6.77-17.95,170.7-23.32"/>
    <path class="cls-11" d="M533.16,829.97c5.77.78,11.54,1.87,17.05,3.76,5.16,1.77,10.32,4.33,14.01,8.45,2.05,2.28,3.49,4.95,4.28,7.9.24.89,2.41.31,2.17-.58-3.17-11.82-15.88-16.77-26.68-19.2-3.32-.75-6.68-1.3-10.05-1.76-.97-.13-2.25,1.23-.79,1.43h0Z"/>
    <path class="cls-22" d="M287.01,844.51l12.73-9.51c2.16-1.6,4.73-2.61,7.44-2.92l18.61-2.07c5-.56,10.01.69,14.07,3.5l23.58,16.32,8.56,2.97,4.05,35.42-17.94-.11s-39.04,10.73-42.96,8.79c-3.92-1.94-11.15-7.78-11.15-7.78,0,0-21.44-4.11-23.66-5.61-8.43-5.75-5.51-7.67-5.51-7.67l-3.72-1.18c-.53,1.27-6.58-6.19-6.49-10.29.05-2.38-.67-2.29-.67-2.29-3.69-1.52-6.47-4.54-7.59-8.23-.65-2.35,10.58-6.7,10.58-6.7l24.43-.54-4.36-2.1Z"/>
    <path d="M310.14,845.86l-27.24-33.66c-2-2.49-4.89-3.76-7.78-3.43l-45.87,5.11c-1.84.21-3.14,2.08-2.91,4.2h0c.11.91.49,1.77,1.09,2.41l30.18,32.06h0l52.53-6.68Z"/>
    <path class="cls-11" d="M298.75,861.42c-2.67.98-5.56,1.29-8.37,1.63-2.99.36-5.99.58-9,.64-2.94.06-5.89-.02-8.82-.24-2.73-.21-5.44-.43-8.07-1.24-.43-.13-1.13.1-1.51.29-.2.1-.73.37-.28.51,2.83.87,5.8,1.08,8.74,1.29,3.32.24,6.65.3,9.98.18,3.16-.12,6.32-.38,9.46-.82,2.92-.4,5.82-.81,8.61-1.83.21-.08.85-.27.66-.56-.16-.25-1.22.09-1.39.15h0Z"/>
    <path class="cls-11" d="M306.81,873.88c-2.67.97-5.56,1.29-8.36,1.64s-5.84.57-8.77.64c-2.76.07-5.53,0-8.29-.18-2.98-.2-5.98-.4-8.84-1.29-.49-.15-2.4.64-1.79.83,2.98.92,6.12,1.12,9.21,1.33,3.16.21,6.33.25,9.5.14,3.13-.11,6.26-.37,9.37-.8,2.96-.4,5.89-.82,8.71-1.84.22-.08.85-.29.65-.6-.18-.27-1.21.06-1.4.13h0Z"/>
    <path class="cls-11" d="M308.24,845.7c-.21-.78-1.71-.63-2.26-.36-.34.17-.69.48-.62.89h0c.03.19.28.37.45.41.66.16,1.43-.03,2.09-.12,1.96-.26,3.92-.57,5.88-.83,1.73-.23,3.46-.44,5.19-.59.57-.05,1.15-.1,1.72-.12.1,0,.2,0,.31,0-.13,0-.1,0,.01,0,.06,0,.13.02.19.01.02,0,.05,0,.07,0-.25-.02-.44-.15-.57-.4.36.93,2.52.32,2.17-.58-.3-.78-1.69-.56-2.33-.53-1.6.09-3.21.28-4.8.47-2.2.27-4.39.6-6.58.91-.65.09-1.29.18-1.94.26-.15.02-.29.03-.44.05-.38.05.13.02.3.06l.45.41h0c-.21.3-.41.59-.62.89-.01,0-.63.17-.46.13.05-.01.13-.02.18-.01.21.03-.31-.04-.05,0-.11-.02-.45-.1-.53-.38.25.95,2.43.37,2.17-.58h0Z"/>
    <path class="cls-33" d="M305.34,847.19c-.26-.21-.49-.45-.71-.71l-1.85-2.16-7.01-8.06-10.15-12.04-5.97-7.12c-1.04-1.16-2.34-1.98-3.74-2.37-.72-.2-1.45-.28-2.18-.26-.71.08-1.59.18-2.29.25l-31.78,3.39-9.66.93-2.62.29c-.31.04-.62.05-.93.01.29-.12.6-.18.91-.19l2.61-.38,9.62-1.24,31.75-3.66c.79-.09,1.59-.18,2.35-.26.8-.03,1.61.07,2.4.29,1.55.44,2.97,1.35,4.12,2.64l5.96,7.18,10.02,12.19c2.77,3.38,5.05,6.21,6.71,8.27.73.92,1.31,1.7,1.86,2.27.21.22.4.47.57.75Z"/>
    <path class="cls-27" d="M520.8,792.08c20.95.06,41-6.44,54.41-13.31,4.08-2.09,17.16-8.97,21.16-11.2-7.53-38.56-24.34-99.49-31.24-118.67-14.74-43.74-101.42-56.44-101.42-56.44l22.46,118.19,22.14,81.41c6.76-.2,5.72,0,12.49.02Z"/>
    <path class="cls-7" d="M513.17,627.73c-5.76,1.02-11.4,4.15-15.85,7.83-10.96,9.09-14.82,23.26-14.49,37.06.18,7.59,1.18,15.2,2.29,22.71,1.23,8.33,2.74,16.61,4.41,24.86,3.19,15.82,6.92,31.53,10.95,47.16,1.42,5.53,2.89,11.06,4.4,16.57.73,2.69,1.38,5.43,2.25,8.07.04.12.07.24.1.36.05.18.26.24.42.28,5.27,1.21,11.03,1.1,16.29-.04,1.32-.28,1.03-1.31-.28-1.03-4.73,1.02-9.95,1.01-14.68-.08l.42.28c-1.89-6.54-3.65-13.13-5.38-19.72-3.88-14.78-7.5-29.64-10.69-44.59-3.35-15.67-6.41-31.51-7.83-47.49-.73-8.16-.85-16.39,1.29-24.36,1.63-6.08,4.52-11.78,8.78-16.43,2.99-3.27,6.64-5.97,10.62-7.91,2.31-1.12,4.19-1.8,6.57-2.37.43-.1-.22.03.08-.02.33-.06,1.22-.26,1.24-.72s-.6-.49-.93-.43h0Z"/>
    <path class="cls-11" d="M325.56,830.59c4.76-.29,9.78-.48,13.83,2.44.94.68,1.86,1.38,2.79,2.06,3.94,2.91,7.89,5.83,11.83,8.74,1.09.8,2.17,1.6,3.26,2.41.62.46,2.61-.45,1.71-1.11-5.96-4.4-11.86-8.89-17.88-13.21-4.44-3.19-10.08-2.96-15.28-2.65-1.12.07-1.77,1.41-.27,1.32h0Z"/>
    <path class="cls-11" d="M332.71,895.73c3.43-1.01,6.87-1.98,10.32-2.91,5.04-1.36,10.18-2.9,15.39-3.4,1.62-.16,3.27-.26,4.9-.1.37.04.74.09,1.11.16-.36-.07.02,0,.12.04,1.21.44,3.4-1.31,1.68-1.93-1.51-.55-3.36-.47-4.93-.43-2.89.08-5.74.53-8.57,1.15-5.5,1.2-10.93,2.71-16.34,4.25-1.41.4-2.81.8-4.21,1.22-1.76.52-1.26,2.48.52,1.95h0Z"/>
    <circle class="cls-13" cx="190.44" cy="154.31" r="15.7"/>
    <g class="cls-39">
      <rect class="cls-35" x="1257.1" y="-1062.68" width="91.06" height="1305.36"/>
    </g>
  </g>
</svg>