<?xml version="1.0" encoding="UTF-8"?>
<svg id="Layer_1" data-name="Layer 1" xmlns="http://www.w3.org/2000/svg" xmlns:xlink="http://www.w3.org/1999/xlink" viewBox="0 0 595.28 595.28">
  <defs>
    <style>
      .cls-1 {
        fill: none;
      }

      .cls-2 {
        fill: #6b3926;
      }

      .cls-3 {
        fill: #271810;
      }

      .cls-4 {
        fill: #010101;
      }

      .cls-5 {
        fill: #4e5868;
      }

      .cls-6 {
        fill: #1d3942;
      }

      .cls-7 {
        fill: #f1edf6;
      }

      .cls-8 {
        fill: url(#linear-gradient);
      }

      .cls-9 {
        fill: #b13929;
      }

      .cls-10 {
        fill: #f19a23;
      }

      .cls-11 {
        fill: #a66f53;
      }

      .cls-12 {
        fill: #0a1928;
      }

      .cls-13 {
        fill: #b16028;
      }

      .cls-14 {
        fill: #646464;
      }

      .cls-15 {
        fill: #cc8d2a;
      }

      .cls-16 {
        fill: #dd8a28;
      }

      .cls-17 {
        fill: #4f2f26;
      }

      .cls-18 {
        fill: #552d23;
      }

      .cls-19 {
        fill: #8e6528;
      }

      .cls-20 {
        fill: #8e3f1e;
      }

      .cls-21 {
        fill: #662219;
      }

      .cls-22 {
        clip-path: url(#clippath);
      }
    </style>
    <clipPath id="clippath">
      <circle class="cls-1" cx="296.49" cy="296.74" r="298.53"/>
    </clipPath>
    <linearGradient id="linear-gradient" x1="465.58" y1="264.37" x2="467.7" y2="168.68" gradientUnits="userSpaceOnUse">
      <stop offset=".16" stop-color="#a67055"/>
      <stop offset=".53" stop-color="#a67055"/>
      <stop offset=".62" stop-color="#7c543f"/>
      <stop offset=".75" stop-color="#483123"/>
      <stop offset=".86" stop-color="#000"/>
      <stop offset=".94" stop-color="#000"/>
      <stop offset=".99" stop-color="#000"/>
    </linearGradient>
  </defs>
  <g class="cls-22">
    <path class="cls-9" d="M327.98,418.79c-1.44-3.63,2.53,1.91,1.98-1.96-.5-3.55.92-10.54,1.16-14.11.46-7.01,2.5-2.53,4.96-9.1,3.59-9.6,9.25-7.06,16.63-14.4-10.1-18.31-45.76-101.45-61.13-122.37-9.94-13.53-28.3-22.9-34.35-25.82l-24.5-10.76h0c-13.25,16.63-15.94,26.12-11.51,45.04,3.16,13.49,8.16,21.06,14.64,33.3,13.55,25.62,29.39,49.69,43.3,75.11,7.03,12.85,19.99,36.54,31.89,45.54,5.79,4.38,14.41,9.08,23.01,11.24-.35-.8-5.74-10.9-6.07-11.72Z"/>
    <path class="cls-9" d="M327.88,370.62c-4.71,5.31.67,20.32-2.45,26.7-2.98,6.1-4.14,5.4-5.15,12.12-.56,3.7,5.01,2.25,5.32,5.99.32,3.83-4.79-5.03-3.66-1.36.04.13,3.73,13.48,3.77,13.61,4.65,1.65,10.84,3.99,15.14,3.36,14.15,1.44,43.34-6.08,44.44-7.22,32.97-10.2,81-11.96,104.54-21.25l9.24-14.04,2.16-11.55,6.95-18.02-.85-4.55s-41.67,3.75-80.22,8.21c-32.94,3.81-86.22,2.3-86.22,2.3"/>
    <path class="cls-11" d="M425.13,345.57l-50.64-26.91-11.51,34.25-24.49,62.25c8.06,6.89,27.97,9.38,36.86,15.12,5.15,3.32,4.81,1.82,9.79,5.38,2.29-3.7,21.97-53.02,23.8-56.61,5.22-10.27,4.91-1.55,16.18-33.47Z"/>
    <path class="cls-11" d="M408.56,383.68s-16.86,40.5-17.67,42.37c-5.03,11.65-12.1,26.35-23.2,35.88-14.91,12.8-31.45,5.02-43.64-15.02-13.49-22.17,29.78-43.55,29.78-43.55l54.74-19.68Z"/>
    <path class="cls-11" d="M359.3,466.39c-5.4,3.14-16.18,4.85-28.26-.05-36.6-14.86-95.61-48.6-126.65-67.68l12.21-8.64.91-14.29,123.27,36.61"/>
    <path class="cls-12" d="M554.29,500.58l2.48,24.85c2.08,20.85,4.3,45.39.5,66l-19.72,118.18s1.79,49.41.58,94.45c-18.24,20.32-85.66,19.38-112.04,7.28l-1.17-89.12,8.76-147.47-19.06-75.37,139.66,1.2Z"/>
    <path class="cls-12" d="M413.4,803.88c-7.48-.21-28-3.92-35.32-4.91l-2.71-27.95c-2.91-10.67-5.18-59.87-4.28-70.94l6.53-212.95,79.71,4.34-.43,311.31c-16.79-.96-26.69,1.56-43.51,1.09Z"/>
    <path class="cls-5" d="M425.22,804.03c-.82-7.26-1.18-14.6-1.65-21.89-.73-11.35-1.38-22.71-1.96-34.07-.48-9.48-.98-18.97-1.15-28.46-.06-3.12.04-6.22.17-9.33l.77-19,1.14-28.11c.4-9.87.8-19.74,1.21-29.61.32-7.96.65-15.92.97-23.87.15-3.57.51-7.21.44-10.79-.04-2-.7-4.14-1.23-6.05-1.29-4.63-3.27-9.46-6.78-12.87-1.73-1.68-3.81-2.91-6.17-3.46-.53-.12-1.71.66-.87.86,8.88,2.1,12.29,13.33,13.53,21.25.08.52.06.21.05.59,0,.47-.04.94-.06,1.4l-.24,6.01c-.3,7.3-.59,14.59-.89,21.89l-1.18,28.96c-.39,9.59-.78,19.19-1.17,28.78-.29,7.12-.58,14.23-.87,21.35-.12,2.85-.3,5.71-.32,8.56-.06,8.14.42,16.3.8,24.43.54,11.41,1.17,22.81,1.86,34.21.54,8.79,1.06,17.59,1.82,26.36.09,1.08.19,2.17.31,3.25.06.55,1.52.22,1.45-.39h0Z"/>
    <path class="cls-6" d="M239.59,829.72c5.69-57.05,13.51-173.16,13.7-230.36l-7.72-140.96c-.53-3.23-1.08-6.44-1.56-9.64-4.27.76-3.15,1.38-7.51,1.77-14.25,1.27-28.65.5-42.76-1.64-29.19-4.41-56.97-14.55-83.6-25.9-10.54-4.49-20.95-9.23-31.33-14.02l6.43,3.71s-40.95,36.66-58.72,115.8c-5.04,22.42,8.26,75.67,12.09,127.12,9.7,130.15,25.99,279.55,25.99,279.55,0,0,24.02,15.75,95.82,12.44,15.96-.74,68.81-9.37,68.81-9.37,4.63-21.72,8.12-86.02,10.36-108.51Z"/>
    <path class="cls-11" d="M496.19,224.62s-8.62,34.91-6.11,47.48c.61,3.05,15.67,13.79,15.67,13.79l-76.16,27.04-24.26-31.57s21.95-13.53,23.45-16.88c1.5-3.35,4.17-29.81,4.17-29.81"/>
    <path class="cls-18" d="M429.1,260.66s14.18,2.48,18.28,2.22,11.14-.87,32.29-12.5c0,0-9.65,16.82-30.72,17.88,0,0-19.26-.41-20.43-3.62l.58-3.97Z"/>
    <path class="cls-11" d="M484.64,246.21c-11.23,10.4-22,17.55-36.46,19.08-14.19,1.51-28.43-5.32-30.17-7.56-9.55-12.3-12.24-21.69-14.96-35.28-.74-3.69-.48-7.57.14-11.51.93-5.91,3.15-17.19,3.6-22.88,1.17-14.49,1.69-28.94,10.82-40.33,19.02-23.73,60.86-17.95,74.87-9.56,16.37,9.8,22.52,27.11,21.89,44.84-.21,5.78-1.31,11.1-3.22,15.94-2.69,2.46-5.09,5.19-7.18,8.12"/>
    <path class="cls-11" d="M491.11,233.43c6.6,8.23,14.28-1.35,14.28-1.35,7.89-7.85,8.73-16.93,9.05-23.16.32-6.23-6.51-6.77-6.51-6.77-5.86.09-5.1.85-14.5,16.61"/>
    <path class="cls-4" d="M456.1,197.93c1.79-.63,3.63.38,4.59,1.5.23.26.83,1.01,1,2.15.22,1.46-.56,2.97-1.57,3.81-1.35,1.13-3.34,1.08-4.74.17-1.91-1.23-2.23-3.77-1.48-5.49.14-.31.76-1.63,2.21-2.14"/>
    <path class="cls-4" d="M446.28,203.88s6.98-7.13,13.2-6.32c8.75,1.15,10.14,6.07,11.69,8.73,0,0-4.86-6.42-11.64-7.16-6.16-.67-13.25,4.74-13.25,4.74Z"/>
    <path class="cls-4" d="M416.47,192.56c-1.44-1.08-3.36-.59-4.51.24-.27.19-1,.75-1.45,1.81-.58,1.35-.27,3.01.42,4.09.92,1.44,2.71,1.92,4.21,1.41,2.03-.69,2.98-3.05,2.75-4.9-.04-.34-.26-1.77-1.42-2.64"/>
    <path class="cls-4" d="M426.48,201.43s-3.91-8.57-9.29-9.29c-7.56-1.01-10.01,3.41-12,5.6,0,0,5.72-5.02,11.54-4.09,5.28.84,9.74,7.78,9.74,7.78Z"/>
    <g>
      <path class="cls-4" d="M429.97,223.89c1.52,1.06,4.02,1.17,5.78.36.39-.18,1.57.19,1.02.44-2.33,1.07-5.89.75-7.85-.62-.19-.14-.14-.29.13-.34.28-.06.71.02.92.16"/>
      <path class="cls-4" d="M437.54,224.32c1.15-.38,2.41-.5,3.64-.44.18,0,.4.11.52.24.09.11.1.23-.05.29-.6.25-1.34.3-1.99.2-.21-.03-.47-.12-.57-.31-.09-.18.13-.26.29-.24.54.08,1.11.04,1.61-.17.16.18.32.35.48.53-1.1-.05-2.23.06-3.26.4-.21.07-.48-.03-.64-.15-.12-.09-.24-.29-.03-.36"/>
      <path class="cls-4" d="M442.36,225.08c1.43.14,3.19-.27,4.02-1.26,1.26-1.49.61-4.35-1.05-5.62-.18-.14-.06-.27.14-.29.26-.02.55.11.74.25,1.44,1.1,2.17,3.5,1.75,5-.4,1.4-1.89,2.22-3.65,2.42-.52.06-1.07.07-1.61.02-.22-.02-.6-.14-.68-.32-.09-.19.12-.24.32-.21"/>
      <path class="cls-4" d="M427.45,222.83c.1-.16-.03-.28-.15-.29-.39-.04-.77-.2-1.06-.5-.15.14-.29.28-.44.42.76.18,1.5.53,2.14,1.08.13.11.33.07.47-.01.1-.07.22-.23.1-.34"/>
      <path class="cls-4" d="M428.5,223.18c-.71-.61-1.54-1-2.39-1.2-.12-.03-.3.02-.4.12-.08.08-.11.2-.03.29"/>
      <path class="cls-4" d="M424.46,222.65c-.92-.15-1.94-.91-2.26-2.05-.49-1.71.39-3.57,1.68-4.46.14-.1.09-.25-.03-.31-.16-.08-.37,0-.52.1-1.12.78-1.96,2.17-2,3.71-.03,1.44.73,2.55,1.79,3.11.32.16.66.29,1,.35.14.02.4-.01.49-.17.09-.16-.03-.25-.16-.28"/>
    </g>
    <path class="cls-4" d="M448.33,184.2c.03,1.4.06,2.81.1,4.22.03,1.07.05,2.14.09,3.21,3.13-.97,7.47-1.72,9.5-2.15,4.02-.85,8.22-1.42,12.33-.83,1.96.28,3.69.79,5.35,1.83.52.33,1.94,1.78,2.71,1.38.31-.16-.24-1.88-.3-2.05-1.13-3.46-3.92-4.85-7.31-5.6-6.91-1.54-13.83-1.21-20.8-.11"/>
    <path class="cls-4" d="M407.08,181.27c.37-.8.68-1.64.87-2.53.62-.19,1.26-.34,1.93-.44,6.14-.96,12.09-.05,18.01,1.63-.17,1.39-.34,2.79-.51,4.19-.13,1.06-.26,2.13-.4,3.19-2.61-1.23-4.87-2.1-6.58-2.69-3.4-1.19-6.97-2.1-10.58-1.86-1.04.07-2.02.24-2.97.55l.24-2.04Z"/>
    <path class="cls-2" d="M434.04,232.72c6.23.5,16.22,1.28,16.22,1.28,0,0-3.35,16.64-17.79,15.48-14.44-1.16-13.14-18.45-13.14-18.45,0,0,8.48,1.18,14.72,1.68Z"/>
    <path class="cls-3" d="M433.98,232.72c2.96.24,14.77,1.45,14.77,1.45,0,0-5.58,10.64-16.29,9.78-11.62-.93-11.32-11.8-11.32-11.8l12.83.57Z"/>
    <path class="cls-7" d="M433.81,233.25c2.96.24,11.85,1.22,11.85,1.22,0,0-3.39,2.87-12.28,2.15-8.89-.71-11.57-3.95-11.57-3.95l12,.58Z"/>
    <path class="cls-2" d="M419.02,230.39c.33-.07.32-.07,1.83-.11,2.5-.06,3.62-.98,5.43-1.01,3.09-.04,4.92,1.59,6.26,1.7,1.33.11,3.4-1.21,6.45-.68,1.78.31,5.99,2.34,8.45,2.8,1.48.28,2.55.52,2.86.64.43.17.16,2.38-16.61,1.03-16.77-1.35-15.12-4.28-14.66-4.38Z"/>
    <path class="cls-18" d="M498.64,218.32c1.59-2.81,3.29-5.59,5.33-8.11,1-1.23,2.1-2.49,3.44-3.37.1-.06.19-.12.29-.18.08-.05.26-.14.19-.11.08-.04.16-.07.24-.11-.12.05-.02,0,.1-.03-.32.09.15-.01-.05.01-.1.01.09-.03-.08.01.13-.04.01.01-.01,0,.01,0,.1-.01.1,0,0,0-.05,0-.02.03.35.41.69.81.98,1.27,1.65,2.62,1.79,5.78.84,8.67-.07.21,1.31.08,1.42-.27.93-2.82.87-5.87-.63-8.48-.31-.54-.7-1.18-1.18-1.6-.11-.09-.16-.13-.29-.16-.75-.16-1.73.25-2.38.58-1.32.66-2.42,1.73-3.4,2.82-2.52,2.78-4.49,6.04-6.33,9.29-.12.21.51.11.57.1.23-.04.72-.13.86-.37h0Z"/>
    <path class="cls-18" d="M498.77,220.84c4.24.35-2.19,8.61,1.48,8.73.99.03,1.71-.79,2.22-1.54.85-1.27,1.42-2.74,1.93-4.18.63-1.8.96-3.31.9-5.21-.07-2.4-.7-5.13-3.03-6.31-.47-.24-1.78.42-1.14.75,1.92.97,2.52,3.2,2.68,5.19.11,1.32.07,2.68-.3,3.96-.46,1.58-1.01,3.16-1.77,4.63-.24.47-.5.94-.82,1.36-.05.06-.41.38-.41.45,0,.12.25.05.27-.02,0-.01-.17-.26-.18-.3-.06-.15-.06-.31-.06-.47,0-.38.09-.76.18-1.12.22-.93.54-1.84.76-2.77.21-.85.42-1.88.09-2.73-.37-.94-1.32-1.24-2.25-1.31-.61-.05-1.52.83-.54.91h0Z"/>
    <g>
      <path class="cls-4" d="M482.43,114.68c-.13.06-.14.06,0,0h0Z"/>
      <path class="cls-4" d="M486.93,124.86c-.06-.14-.13-.25-.19-.31.06.12.12.24.19.36,0-.01,0-.03,0-.04Z"/>
      <path class="cls-4" d="M486.93,124.91s0,.03,0,.04l.07.1s-.05-.09-.07-.13Z"/>
    </g>
    <path class="cls-8" d="M522.9,149.15c.19-.27.34-.57.46-.88.93-2.35-1.33-3.62-3.68-4.55,1.92-1.02-.48-5.01-2.09-6.48-1.76-1.35-4.09-1.68-6.15-.87l.67-1.91c.3-.37.37-.87.18-1.3-.28-.63-2.18-2.85-4.81-2.48l-2.2,1.16c1.65-.78-1.5-4.18-3.22-4.79-1.72-.61-3.61.25-5.17,1.2-.37-.85-.54-1.77-.49-2.7-.09-.9-.55-1.99-1.47-2.11-.46-.02-.92.1-1.31.34-1.45.71-2.82,1.59-4.07,2.62,0-1.72-.37-3.41-1.07-4.98-.2-.62-.66-1.13-1.25-1.39-.6-.1-1.21.04-1.7.39-1.87,1.07-3.06.99-4.16,2.84.16-1.21-.29-.83-.6-2.02-.3-1.23-1.28-2.17-2.52-2.42-1.94-.21-3.09,1.05-3.92,2.81-.75-2.36-2.43-4.44-4.89-4.11-1.93.24-2.66-.79-3.36.95-.9-.93-1.29.69-1.5-.58s-.87-2.71-2.15-2.94c-.61-.07-1.23.05-1.77.34-1.77.79-3.25,2.11-4.25,3.76,0-.24-.03-.48-.08-.71-.42-2.05-2.41-3.36-4.46-2.95-1.79.45-2.9,2.21-3.84,3.79.1-2.45-3.52-4.02-5.25-2.27-1.14,1.2-1.21,3.23-2.5,4.32,0-1.59-1.14-2.95-2.7-3.23-1.58-.17-3,.97-3.18,2.55.14-1.98-2.79-3-4.38-1.82-1.59,1.18-1.9,3.49-1.55,5.44-.84-.56-1.84-.83-2.85-.79-2.65.12-4.71,2.36-4.6,5.02-.85-.63-1.98-.73-2.92-.25-1.38.69-1.93,2.37-1.24,3.75-1.44-.08-3.1.11-3.81,1.48s.18,2.97.45,4.48c.18.99.09,2.03.24,3.09-4.81,2.48.59,7.96-1.81,15.65,2.88-1.17,2.07-5.6,5.13-6.21,7.87-1.57,2.24-.45,16.42,4.04,5.19,1.65,10.71,2,16.07,1.03,9-1.63,24.25-3.56,32.97-.08,4.68,1.87,10.18,17.53,9.41,22.51-.95,6.14-1.9,13.43-1.59,14.65.71,2.79,1.44,3.23,3.56,11.47l-1.28,5.79c-.06,1.3-.63,4.69-.73,7.84.75.43,1.24,1.04,2.1.96,2.86-.01,1.29-2.51,2.23-5.11,1.47-4.1,2.75-7.47,6.34-10.24,1.19-.92,4.26-.5,5.61-.96,3.44.04,4.97,2.37,4.97,2.37,0,0,.35-2.85.81-4.32,1.23-4.53,3.11-7.44,5.35-19.67.02-.09.02-.19.04-.28,1.42-5.81,3.31-14.24,3.29-14.86,2.73-11.65,2.48-13.2.27-16.39Z"/>
    <path class="cls-10" d="M375.26,454.37c1.38,12.98-3.52,81.31-3.56,94.77,7.49,2.03,15.34,5.07,22.9,7.16,12.94,3.57,27.17,2.78,40.5,3.35,18.98.82,37.96,2.09,56.96,1.09,21.28-1.12,48.55-4.24,68.38-16.38-4.8-22.89-4.84-100.27-7.34-151.12l-.14-7.11,14.91-48.96c.25-11.29-.44-18.83-9.73-37.06-3.72-7.29-23-18.84-30.92-22.08-20.63-8.4-32.2-15.55-32.2-15.55,0,0-20.66,30.95-51.79,27.29-31.13-3.66-16.56-20.66-16.56-20.66l-9.45,3.46c-14.14,6.07-34.2,12.29-44.85,23.47-9.07,9.52-10.75,13.16-13.77,30.22-1.46,8.27-3.34,23.32-12.51,46.17-.9,2.24-6.3,16.07-6.39,16.52-.62,3.33,3.06,6.39,17.03,10.33,7.07,1.99,13.57,1.6,16.67,2.9.38.7,1.75,51.21,1.85,52.17Z"/>
    <g>
      <path class="cls-10" d="M490.5,259.37s-12.36,29.82-43.09,29.53c-30.74-.3-22.43-17.04-22.43-17.04l2.3-5.13-10.62,6.27s-.94,7.55,3.13,14.57c4.07,7.02,18.19,11.08,37.71,8.31,11.45-1.63,20.65-5.95,29.35-14.85,10.41-10.65,12.51-17.44,12.51-17.44l-8.85-4.22Z"/>
      <path class="cls-20" d="M489.78,259.5c-1.38,3.32-3.39,6.46-5.49,9.36-4.71,6.5-10.8,12.15-18.06,15.69-4.6,2.24-9.57,3.57-14.67,3.95-5.57.41-11.53.06-16.91-1.51-5.03-1.47-9.95-4.78-9.98-10.52-.02-3.54,1.91-6.74,3.31-9.87.14-.32-1.16.06-1.26.12-2.23,1.32-4.46,2.63-6.69,3.95l-3.49,2.06c-.61.36-.63.5-.67,1.24-.26,4.75.8,9.88,3.29,13.96,1.7,2.78,4.58,4.64,7.52,5.92,9.44,4.09,20.71,3.71,30.67,2.28,10.72-1.54,20.45-5.94,28.35-13.4,4.31-4.07,8.31-8.68,11.48-13.7,1.09-1.73,2.25-3.59,2.87-5.56.02-.05.01-.08-.03-.11-2.95-1.41-5.9-2.81-8.85-4.22-.37-.18-1.5.42-1.37.48,2.63,1.26,5.27,2.51,7.9,3.77.18.08.85.28.94.45-.09-.16-.08.09-.15.25-.38.86-.75,1.72-1.19,2.55-2.27,4.27-5.32,8.14-8.55,11.71-4.31,4.77-9.12,9.09-14.81,12.15-5.45,2.93-11.43,4.52-17.54,5.29s-12.86,1.02-19.2.06c-4.47-.67-9.08-1.9-12.84-4.49-4.06-2.8-5.96-7.46-6.73-12.21-.21-1.31-.33-2.63-.35-3.96,0-.68.18-1.51.07-2.18-.03-.2.13-.3-.13-.01.09-.1.3-.18.41-.24.62-.33,1.22-.72,1.82-1.08,2.79-1.65,5.57-3.29,8.36-4.94l-1.26.12c-1.29,2.88-3.03,5.82-3.3,9.04-.45,5.46,3.51,9.2,8.31,11s10.58,2.29,15.89,2.28,10.56-.91,15.52-2.73c8.11-2.98,15.08-8.36,20.54-15.01,2-2.44,3.81-5.04,5.4-7.77.52-.89,1.01-1.79,1.47-2.71.21-.42.66-1.04.72-1.51,0-.06.06-.14.09-.21.09-.21-1.28-.1-1.43.27Z"/>
    </g>
    <path class="cls-11" d="M567.06,346.84l-56.31-10.8-.92,36.12-5.08,66.7c9.73,4.21,29.5.73,39.68,3.59,5.89,1.66,5.13.32,10.94,2.26,1.1-4.21,5.39-57.14,6.08-61.11,1.97-11.35,4.24-2.92,5.61-36.75Z"/>
    <path class="cls-11" d="M562.44,388.14s-4.19,43.67-4.41,45.7c-1.38,12.61-3.8,28.75-11.61,41.12-10.48,16.62-28.58,14.05-46.13-1.51-19.41-17.21,15.64-50.38,15.64-50.38l46.51-34.93Z"/>
    <path class="cls-11" d="M542.52,478.55c-3.89,4.88-13.32,10.39-26.36,10.19-39.5-.59-106.72-10.66-142.57-17.2l8.25-12.48-4.33-13.65,128.16-10.54"/>
    <path class="cls-10" d="M567.88,334.35s-.05,33.81-2.57,59.62c0,0-40.6,5.59-66.67-4.23-27.63-10.41-4.11-69.46-4.11-69.46l73.36,14.07Z"/>
    <g>
      <path class="cls-10" d="M525.6,296.9c2,.06-20.45,1.73-27.9,42.13-7.87,42.68-2.72,50.24-2.72,50.24,0,0,9.21,3.98,13.2,3.3"/>
      <path class="cls-20" d="M525.13,297.19c-.18,0,.24-.38.24-.38,0-.03.19-.05-.01,0-.09.03-.19.06-.28.08-.67.2-1.33.43-1.98.69-2.27.9-4.41,2.13-6.38,3.58-7.69,5.65-12.63,14.35-15.81,23.18-2.79,7.77-4.2,15.9-5.5,24.02-1.07,6.73-1.98,13.51-2.46,20.31-.44,6.13-.94,12.86.63,18.89.14.52.28,1.46.68,1.88.54.56,1.89.82,2.6,1.08,2.59.97,5.27,1.88,8.02,2.26,1.06.15,2.12.2,3.18.04.58-.09,1.3-.68.27-.53-2.6.39-5.61-.73-8.05-1.54-1.18-.39-2.34-.82-3.49-1.28-.23-.09-1.04-.37-1.08-.41-.35-.34-.49-1.15-.61-1.59-1.57-5.57-1.16-11.87-.82-17.56.4-6.62,1.23-13.21,2.23-19.76,1.26-8.22,2.6-16.5,5.24-24.41,3.08-9.21,7.95-18.41,15.83-24.38,1.89-1.43,3.96-2.67,6.17-3.53.22-.08,2.79-.77,2.7-1.11-.03-.12-.29-.11-.38-.12-.31,0-1.64.56-.94.58h0Z"/>
    </g>
    <path class="cls-18" d="M504.8,435.69c8.93,4.06,21.52,10.71,21.19,22.17-.02.6,1.44.3,1.45-.18.33-11.73-12.3-18.52-21.49-22.69-.43-.2-1.75.43-1.15.7h0Z"/>
    <path class="cls-11" d="M322.25,436.1l9.42-6.55c1.6-1.1,3.47-1.75,5.41-1.86l18.9-1.08,20.54,16.66,5.99,2.57,1.6,26.56-12.78-.83s-28.21,6.36-30.93,4.75c-2.72-1.61-7.66-6.27-7.66-6.27,0,0-15.13-3.96-16.65-5.18-5.8-4.63-3.65-5.94-3.65-5.94l-2.61-1.04c-.42.93-4.46-4.89-4.25-7.94.12-1.77-.4-1.73-.4-1.73-2.57-1.29-4.45-3.65-5.11-6.45-.37-1.78,7.78-4.55,7.78-4.55l17.43.62-3.03-1.75Z"/>
    <path class="cls-4" d="M336.56,438.06l-17.93-21.69c-1.32-1.6-3.32-2.48-5.39-2.35l-32.88,1.88c-1.32.08-2.33,1.21-2.25,2.53h0c.04.57.28,1.11.67,1.53l20.09,20.78h0l37.68-2.67Z"/>
    <path class="cls-18" d="M330.19,449.1c-3.96,1.24-8.55,1.01-12.65.8-3.85-.2-7.7-.6-11.51-1.26-.27-.05-1.1.1-1.18.44-1.09,4.36,2.57,8.39,6.37,9.87,1.71.66,3.64.83,5.45,1.05,2.21.27,4.43.41,6.66.44,4.02.06,8.43.03,12.3-1.18.83-.26.71-.79-.14-.52-3.79,1.18-8.24,1.15-12.18,1.03-1.91-.06-3.81-.19-5.7-.42s-3.8-.4-5.52-1.14c-3.48-1.5-6.79-5.34-5.78-9.37l-1.18.44c4.2.72,8.47,1.15,12.73,1.31s8.54.26,12.49-.98c.83-.26.71-.79-.14-.52h0Z"/>
    <path class="cls-18" d="M334.41,438.03c0-.19.32-.02-.39.31-.33.08-.44.1-.31.09.01,0,.03,0,.04,0-.1.07-.08,0,.1,0,.32,0,.64,0,.95,0,1.39-.03,2.78-.14,4.17-.27,1.72-.16,3.43-.3,5.16-.39.55-.03,1.1-.05,1.66-.05.2,0,.39.01.59.01.05,0,.09.02.09.01.03-.05-.05.08-.13-.12.18.49,1.62.06,1.45-.39-.22-.58-2.15-.3-2.57-.28-2.1.08-4.2.26-6.3.45-1.43.13-2.87.22-4.31.23-.39,0-1.63,0-1.63.59s1.44.27,1.45-.19h0Z"/>
    <path class="cls-14" d="M333.08,438.75c-.17-.14-.33-.29-.47-.46l-1.22-1.39-4.64-5.21-6.7-7.77-3.94-4.59c-.69-.75-1.58-1.3-2.56-1.58-.5-.14-1.02-.22-1.54-.22l-1.64.09-22.77,1.21-6.91.3-1.88.11c-.22.02-.44.01-.66-.02.21-.06.43-.1.66-.09l1.88-.16,6.9-.5,22.76-1.38,1.68-.1c.57,0,1.14.09,1.69.25,1.08.32,2.06.93,2.82,1.76l3.93,4.63,6.61,7.86c1.83,2.18,3.32,4,4.42,5.33.48.59.86,1.09,1.23,1.46.14.14.27.31.37.48Z"/>
    <path class="cls-9" d="M250.36,510.99s-2.39-51.46-2.39-51.46c-.27-5.91-1.18-11.74-1.21-17.69-.03-6.2-.72,1.07.07-5.07.38-3,1.64-10.68,2.25-13.65.07-.37,2.34-7.66,2.44-8.02,1.83-6.25,2.82-6.75,5.36-12.75,0,0,3.91-3.81,11.34-9.25,2.28-1.67,8.98-8.99,13.36-25.18,1.12-9.11,9.7-16.47,10.86-25.58,1.87-14.67,8.49-27.43,9.06-42.23.54-13.98-5.71-31.36-15.27-42.47-4.01-4.65-5.2-7.6-10.12-11.19l-10.56-9.84c-.58-.25-8.94-6.11-9.54-6.32-1.28-.46-2.23-.55-2.69-1.44l-6.29-3.38-39.32-27.62-31.04,6.37s-46.73,3.55-55.9,8.15c-11.22,5.61-25.83,144.09-25.83,144.09,0,0,12.61,25.77-30.06,74.31-.28.32-20.63,40.41-20.83,40.8,0,0,24.34,20.85,100.46,36.58,57.61,11.9,105.88,2.84,105.88,2.84Z"/>
    <line class="cls-19" x1="230.33" y1="345.04" x2="230.11" y2="346.19"/>
    <path class="cls-9" d="M122.5,366.09l-5.14,30.96c.3.37.78.58,1.31.33,4.45-2.09,8.57-2.97,12.86-5.42l87.72,46.55-8.78,43.08s-94.72-25.8-116.95-34.23c-1.26-.48-15.37-3.08-16.58-3.59-11.75-4.94-20.74-15.19-23.24-26.94-3.11-14.59,1.87-41.2,4.94-55.51,6.09-28.34,9.84-56.9,16.34-85.15,3.1-13.5,4.26-22.5,10.69-34.77,9.02-17.22,15.05-26.36,35.95-30.28l39.67-5.1"/>
    <path class="cls-21" d="M117,389.6c-3.89-1.14-7.9-.58-11.74.5-1.88.53-3.75,1.13-5.57,1.82-1.6.6-3.07,1.38-4.24,2.65-.62.68.76.97,1.22.46,1.13-1.23,2.67-1.87,4.21-2.41s3.08-1.04,4.65-1.48c3.46-.97,7.11-1.57,10.63-.54.65.19,1.71-.75.83-1.01h0Z"/>
    <path class="cls-21" d="M230.92,475.13l-1.46,3.45,1.31-.42c-8.96-1.91-17.93-3.82-26.89-5.73-13.78-2.94-27.54-6.04-41.38-8.69-11.06-2.12-22.14-4.16-33.16-6.48-12.03-2.52-24.03-5.29-35.78-8.92-5.17-1.6-10.3-3.36-15.28-5.5-4.02-1.73-8.02-3.7-11.55-6.3-.71-.52-1.39-1.07-2.05-1.65-.32-.28-1.64.27-1.36.52,2.99,2.65,6.53,4.63,10.11,6.37,4.64,2.25,9.48,4.07,14.36,5.7,11.62,3.89,23.57,6.76,35.54,9.36,11.32,2.46,22.7,4.6,34.08,6.76,13.08,2.48,26.09,5.35,39.11,8.12,10.86,2.31,21.71,4.63,32.57,6.94.17.04.33.07.5.11.36.08,1.14-.02,1.31-.42l1.46-3.45c.13-.32-1.26-.18-1.44.23h0Z"/>
    <path class="cls-21" d="M127.65,234.98c8.32,2.31,11.47,11.94,12.87,19.51,1.03,5.59,1.57,11.42.93,17.1-1.04,9.32-2.97,18.58-4.77,27.77-2.53,12.88-5.25,25.73-8.02,38.56-2.52,11.69-5.11,23.36-7.73,35.02-.89,3.95-1.78,7.91-2.68,11.86-.28,1.23-.56,2.46-.84,3.68-.14.62-.42,1.34-.45,1.98,0,.08-.04.18-.06.26-.02.11.04.16.13.2,12.29,4.84,24.44,10.04,36.58,15.24,25.09,10.74,50.03,21.84,74.85,33.2,3.13,1.43,6.25,2.87,9.37,4.31.28.13,1.11.34,1.31.6-.24-.34-.3.19-.41.47l-.62,1.47-.9,2.13c-.14.34,1.26.19,1.44-.22.6-1.42,1.21-2.84,1.81-4.26.04-.1-.06-.17-.13-.2-7.37-3.42-14.77-6.79-22.17-10.15-16.69-7.57-33.43-15.02-50.24-22.31-12.95-5.62-25.94-11.17-38.99-16.55-2.94-1.21-5.87-2.41-8.82-3.59-.55-.22-1.13-.53-1.7-.68-.24-.06-.16.2,0-.1.2-.38.23-.98.32-1.4.2-.86.39-1.71.59-2.57.63-2.76,1.25-5.51,1.88-8.27,1.92-8.5,3.82-17,5.69-25.51,2.31-10.48,4.58-20.96,6.78-31.46,2.07-9.88,4.1-19.76,5.97-29.68,1.29-6.83,2.63-13.71,3.35-20.63.43-4.12.14-8.28-.35-12.38-.8-6.75-2.41-14.24-6.95-19.55-1.82-2.12-4.14-3.7-6.84-4.45-.38-.1-1.67.49-1.17.62h0Z"/>
    <path class="cls-21" d="M290.25,298.09c-4.54,4.2-7.46,10.85-7.75,16.97-.15,3.18.11,6.38.3,9.55.27,4.45.56,8.9.69,13.36.29,10.43-.19,21.02-2.94,31.13-2.36,8.69-6.39,17.89-13.21,24.04-2.06,1.86-4.39,3.33-6.7,4.85-1.74,1.15-3.42,2.42-4.45,4.27-.39.7,1.08.71,1.38.16.9-1.61,2.39-2.7,3.9-3.7,1.98-1.32,4-2.56,5.83-4.08,6.54-5.41,10.58-13.28,13.33-21.17,3.47-9.95,4.43-20.6,4.4-31.08-.02-8.28-.93-16.51-1.08-24.78-.13-6.97,2.29-14.29,7.51-19.12.66-.61-.75-.85-1.21-.42h0Z"/>
    <path class="cls-11" d="M192.08,148.95s3.01,31.76-8.69,50.87c-1.63,2.66-21.07,5.94-21.07,5.94l19.45,12.31c3.16,2,6.49,3.68,9.98,5.01,11.44,4.34,27.55,8.88,41.92,9.34,7.42.24,17.36,2.73,23.54-1.39h0s-12.17-7.48-12.26-11.16c-.09-3.68,7.78-33.39,7.78-33.39"/>
    <path class="cls-17" d="M246.3,211.37s-6.42-4.62-10.61-6.35-11.64-2.35-29.56-22.03c0,0,3.34,21.99,28.29,29.56,0,0,6.95,2.39,11.41,1.86l.47-3.03Z"/>
    <path class="cls-11" d="M283.61,83.62c.08.08.16.17.25.25-.08-.16-.15-.33-.2-.49l-.05.24ZM293.96,88.01c.13.18.27.36.42.54l.04-.2s-.42-.58-.47-.34ZM203.63,182.14c8.02,12.38,21.86,25.06,37.65,29.08,15.8,4.03,18.42-3.22,22.88-6.46,7.44-5.41,10.13-6.32,15.91-12.04,5.58-5.52,9.89-12.56,12.29-20.14,2.6-8.19,1.74-16.64,4.06-24.84,1.05-3.72,5.75-18.28,7.84-26.95,2.09-8.68-4.07-24.08-4.07-24.08-.02-2.47-.96-4.39-1.85-6.55l-1.03-.22s.46.34.32,1.05c-1.26-.47-2.41-1.45-3.24-2.45v.04c-1.7.38-3.09-.65-4.13-2.1-.05.24.11.76.37.82-1.59-.09-2.99-1.12-3.82-2.28-.05.24.11.76.06,1-1.12-.46-2.16-1.31-3-2.15.17.36,6.16.67,6.13.84-1.59-.09.07.8-.97-.65l-1.09-1.15c-1.34-.03-1.45.75-2.28-.41.21.29-.16-2.75-.21-2.51-1.54-.32-1.1-.34-2.24-1.32-.05.24-4.53.65-4.57.89-1.28-.27-1.19.98-2.02-.18.21.29,1.14-.79,1.34-.5-1.59-.09-2.38.78-3.42-.67.21.29-4.54-3.66-4.54-3.66-1.59-.09-1.43.45-2.52-.76.42.58-7.03-1.93-6.87-1.41-1.28-.27,1.47,5.23.59,4.3-.05.24-2.81-1.33-2.81-1.33-1.34-.03.35,1.55-.48.39-.05.24.06,1,.32,1.05-1.69.38-3.39-.46-4.74-1.73.42.58.57,1.11.78,1.4-1.29-.27-2.36-.25-3.45-1.46-.05.24.32,1.05.57,1.11-1.39.2-2.88-.36-4.01-1.33-.05.24.37.82.57,1.1-1.07.02-2.1-.2-2.98-1.12l.57,1.11c-1.03-.22-1.9.09-3.34-.7-.05.24.42.58.37.82-.77-.16-1.8-.38-2.52-.78-.05.24.62.87.36.82-1.03-.22-1.9.09-3.08-.65.21.29.36.82.57,1.11-1.03-.22-2.11-.2-3.04-.88-.05.24.11.76.32,1.05-1.03-.22-1.9.09-3.09-.65-.05.23.37.82.57,1.1-1.03-.22-2.11-.2-3.09-.65-.05.24.42.58.62.87-1.03-.22-2.11-.19-3.29-.94-.1.47.11.76.06,1-.77-.16-1.24-.5-2.01-.67l-1.39.2c-4.59,3.97-7.65,19.83-7.65,19.83-9.31,4.7-15.11,17.03-15.8,21.57-.68,4.54-4,13.94-4,13.94-.94-1.92-3.02-6.05-3.4-8.1-.42-1.81.54-3.83.11-5.64-1.52-4.26-6.91-4.16-10.23-2.39l-.63.68c-5.05,4.51-4.22,21.99-2.33,27.53-1.23,10.21,6.51,17.31,12.97,11.1l.58,4.2"/>
    <path class="cls-15" d="M189.47,150.98c-3.35-.32-7.26,1.31-8.12,4.85-.36,1.48-.05,2.97.74,4.25.48.77,1.22,1.28,2.02,1.7,1.98,1.04,4.32.92,6.35.09.35-.14,1.25-.66.8-1.14s-1.47-.2-1.95,0c-.1.04-.19.08-.29.12.06-.02.25-.08-.05,0-.05.01-.3.08-.02.02-.09.02-.18.03-.27.04-.01,0-.24.03-.08.01.16-.01-.11,0-.14,0-.09,0-.17,0-.26,0-.13,0,.11.02-.1,0-.6-.09-.94-.19-1.52-.49-.46-.23-.58-.31-.97-.63-.13-.11-.27-.22-.39-.35-.72-.82-1.1-2.11-1.03-3.19.04-.57.18-1.13.4-1.65.09-.22.2-.4.35-.63.07-.1.14-.2.22-.3.03-.04.31-.35.19-.24.11-.12.23-.22.35-.33.05-.05.43-.31.21-.17.12-.08.25-.15.38-.22.22-.13,0,0-.04.02.1-.04.21-.09.31-.13.04-.02.22-.08.02-.01-.23.08.09-.02.13-.03.07-.02.15-.04.22-.05-.36.09-.08.02,0,0,.08,0,.16-.02.24-.03.16-.02-.22,0,.05,0,.08,0,.17,0,.25,0,.04,0,.39.02.18,0,.72.07,1.53-.07,2.09-.56.42-.37.38-.92-.26-.99h0Z"/>
    <path class="cls-4" d="M203.87,114.24l-6.18,22.67-5.95-11.82s8.64-7.78,12.12-10.84Z"/>
    <g>
      <path class="cls-4" d="M260.86,167.58c-2.1.59-4.94-.25-6.61-1.82-.37-.35-1.83-.39-1.32.1,2.2,2.08,6.32,3.1,9.03,2.34.27-.08.26-.27-.02-.43-.29-.17-.8-.26-1.09-.17"/>
      <path class="cls-4" d="M252.23,165.14c-1.15-.87-2.51-1.48-3.91-1.89-.21-.06-.49-.04-.67.07-.14.08-.2.22-.06.34.58.51,1.38.84,2.16.99.24.05.58.05.76-.12.17-.16-.04-.34-.23-.38-.64-.12-1.26-.38-1.74-.81-.25.14-.49.27-.74.41,1.25.36,2.47.93,3.49,1.7.2.15.54.15.77.08.17-.06.38-.23.17-.39"/>
      <path class="cls-4" d="M246.53,164.13c-1.66-.39-3.47-1.52-4.03-2.94-.84-2.14.94-4.89,3.27-5.66.25-.08.17-.28-.05-.38-.29-.13-.66-.09-.93,0-2.03.67-3.72,2.87-3.82,4.7-.09,1.71,1.26,3.19,3.16,4.09.56.27,1.18.5,1.8.64.25.06.72.08.89-.09.17-.17-.05-.31-.28-.36"/>
      <path class="cls-4" d="M264.09,167.38c-.05-.21.14-.3.28-.27.45.11.93.08,1.38-.15.11.21.22.42.33.63-.92-.09-1.89.01-2.81.38-.18.07-.4-.04-.52-.2-.09-.11-.16-.34.02-.42"/>
      <path class="cls-4" d="M262.78,167.35c1.03-.41,2.11-.51,3.14-.41.15.02.33.13.41.29.06.12.05.27-.08.34"/>
      <path class="cls-4" d="M267.51,168.33c1.09.19,2.52-.27,3.32-1.4,1.2-1.72.92-4.11-.18-5.6-.12-.16,0-.32.15-.33.21-.02.41.14.54.3.96,1.3,1.37,3.16.82,4.89-.51,1.62-1.79,2.55-3.19,2.76-.42.06-.85.07-1.26,0-.17-.03-.45-.17-.48-.38-.04-.22.13-.27.28-.24"/>
    </g>
    <path class="cls-4" d="M273.33,141.24s9.14-4.41,12.7-3.85c5.2.81,9.76,6.03,10.89,9.04,0,0-6.21-7.16-9.89-7.62-3.52-.44-13.7,2.43-13.7,2.43Z"/>
    <path class="cls-4" d="M249.86,137.31s-6.38-7.81-10.17-8.91c-5.53-1.61-13.12.79-15.61,2.98,0,0,10.11-3.39,13.98-2.15,3.69,1.18,11.81,8.08,11.81,8.08Z"/>
    <path class="cls-4" d="M300.17,137.22c.03-.14.04-.29.09-.42.18-.41.35-.82.5-1.24.06-.29.15-.58.28-.84,0-.02,0-.02,0-.04-.13-.37-.2-.74-.23-1.11-.39-.73-.72-1.18-.78-1.26,0,0-1.46-2.01-4.35-3.65-1.99-1.13-7.88-3.17-16.19-4.47-.35,1.04-.7,2.08-1.05,3.12-.26.79-.53,1.59-.79,2.38,3,.1,5.52.32,7.41.53,3.99.44,6.03.68,8.11,1.64,2.18,1.01,3.86,2.37,4.52,2.91.91.75,1.54,1.24,2.19,2.07.1.13.19.26.29.39Z"/>
    <path class="cls-4" d="M255.97,120.23c-.34,1.02-.69,2.03-1.04,3.06-.27.78-.53,1.55-.8,2.32-3.28-1.82-6.12-3.24-8.29-4.27-4.58-2.18-6.92-3.28-9.81-3.86-3.03-.61-5.78-.62-6.85-.62-1.5,0-2.5-.02-3.78.21-2.77.48-4.21,1.59-4.55,1.34-.31-.23.68-1.29.79-1.4,2.53-2.67,6.44-3.44,6.73-3.51,0,0,2.95-.63,7.18-.06,2.92.39,10.64,2.53,20.42,6.78"/>
    <path class="cls-4" d="M289.75,138.81c-.31-.03-.63-.03-.95.05-1.2.29-1.81,1.3-1.95,1.54-.75,1.31-.7,3.38.73,4.53,1.05.84,2.64,1.05,3.82.26.88-.59,1.63-1.73,1.58-2.92-1.18-1.04-2.22-2.25-3.24-3.45Z"/>
    <path class="cls-4" d="M243.07,131.76c-.29-.26-.59-.5-.88-.75-.62-.53-1.22-1.11-1.61-1.84,0-.01,0-.03-.02-.04-.84-.15-1.67-.1-2.21.18-.25.13-.92.51-1.39,1.32-.6,1.03-.46,2.39.05,3.33.68,1.25,2.18,1.8,3.51,1.54,1.75-.35,2.73-2.07,2.73-3.56-.06-.06-.12-.12-.18-.17Z"/>
    <path class="cls-18" d="M193.2,137.44c-.7-3.63-1.56-7.28-2.97-10.72-.69-1.68-1.51-3.39-2.71-4.79-.49-.57-1.09-1.2-1.8-1.48-.88-.34-1.56.51-2.07,1.12-2.1,2.48-2.86,5.84-2.89,9.02,0,.8,1.47.61,1.47-.09.03-3.08.81-7.3,3.42-9.23l-.73.2c-.3-.08.15.1.17.12.45.31.79.63,1.13,1.03,1.68,1.98,2.66,4.54,3.46,6.97.89,2.69,1.53,5.45,2.06,8.23.14.72,1.59.34,1.45-.39h0Z"/>
    <path class="cls-18" d="M190.53,138.11c-4.65-1.4-3.96,4.98-4.7,7.6-.07.23-.35.61-.37.81l-.02.02c-.17.18.03.15.61-.08,0-.03-.11-.07-.12-.11-.02-.15-.22-.42-.27-.58-.41-1.3-.37-2.78-.34-4.13.05-2.1.21-4.09.89-6.07.4-1.15.89-2.29,1.56-3.31.61-.92,1.47-2.03,2.64-2.21.2-.03.82-.17.83-.45.01-.29-.41-.27-.61-.24-2.43.38-3.98,2.28-5.02,4.38-.76,1.55-1.34,3.21-1.53,4.94-.2,1.85-.31,3.74-.18,5.61.06.78.07,2.27.84,2.76.69.43,1.74-.11,2.16-.7.47-.68.54-1.64.64-2.43.14-1.17.21-2.35.48-3.49.12-.49.26-1.02.56-1.44s.27-.38.77-.23c.32.1.74.02,1.02-.16.14-.09.49-.39.15-.49h0Z"/>
    <path class="cls-13" d="M300.13,106.18c-3.36-15.05-17.74-26.02-49.42-36.79-31.68-10.77-59.58-4.21-59.58-4.21,24.88-43.4,71.79-31.97,82.32-29.76,10.53,2.21,51.84,56.34,30.42,89.5l-1.64,3.46s-1.49-19.47-2.1-22.21Z"/>
    <path class="cls-13" d="M184.81,53.76s2.21-29.99,25.56-35.32c31.19-7.12,71.21-4.76,78.84,28.12l-104.41,7.2Z"/>
    <path class="cls-16" d="M172.9,125.16c-1.86-2.87.19-9.48-1.28-12.57-7.66-16.18-1.42-29.15,4.33-36.43,2.5-3.17,1.32-9.89,2.14-12.96,4.29-16.07,6.26-16.18,33.92-27.8,22.51-9.46,43.71-4.38,55.92-1.14,19.55,5.2,28,8.26,31.98,23.72.52,2.02-.76,3.29-.47,5.65.41,3.34,4.1,7.09,4.09,11.2,0,0-26.38,2.5-50.59,9.7-24.21,7.2-72.39,44.61-73.67,58.58-.04.44-4.3-14.79-6.36-17.96Z"/>
    <path class="cls-13" d="M168.56,92.07s46.94-38.2,87.8-30.05c0,0-50.77-17.75-81.82,15.08l-.86,1.39c-2.28,3.66-3.89,7.69-4.77,11.91l-.35,1.68Z"/>
    <path class="cls-13" d="M299.88,64.28l-2.55-1.61c-5.93-3.75-12.36-6.62-19.11-8.52l-11.31-3.19s28.72.95,33.42,9.26l-.45,4.06Z"/>
    <path class="cls-13" d="M192.1,100.86s-17.61,11.93-19.97,17.62l-.51-5.9s6.6-9.81,20.47-11.72Z"/>
    <path class="cls-11" d="M232.59,473.5l10.41.77s26.48,17.02,35.26,18.79c6.4,1.01,12.94,1.01,19.44.02l6.82,3.81c3.14,1.76,6.79,2.22,10.33,1.31l2.73-.7s7.27,7.36,9.63,4.88c2.36-2.49.33-6.08-1.64-9.56-1.97-3.49-50.06-42.2-50.06-42.2,5.42-1.05,14.28,2.19,19.73,2.17,8.37.04,11.73-3.32,8.91-7.17-1.73-2.38-8.02-5.14-12.81-3.85s-24.48-8.42-32.99-7.15c-8.51,1.27-16.49,11.15-16.49,11.15-.72.2-4.95-.81-4.95-.81-.53,1.08-4.32,28.55-4.32,28.55Z"/>
    <path class="cls-17" d="M317.47,496.74c-3.94-3.3-8.47-5.97-12.75-8.79s-8.96-5.53-12.8-9c-.55-.5-2.23.22-1.63.76,3.85,3.47,8.46,6.2,12.78,9.04,4.38,2.88,9,5.6,13.03,8.97.56.47,2.14-.35,1.38-.98h0Z"/>
    <path class="cls-17" d="M297.19,491.95c-5.41-3-10.82-6.01-16.23-9.01-.77-.43-1.54-.86-2.32-1.29-.61-.34-2.2.51-1.38.96,5.41,3,10.82,6.01,16.23,9.01.77.43,1.54.86,2.32,1.29.61.34,2.2-.51,1.38-.96h0Z"/>
    <path class="cls-20" d="M373.19,402.59c-1.01-18.54-6.32-36.62-6.45-55.23,0-.43-1.45-.16-1.45.39.13,18.62,5.44,36.69,6.45,55.23.02.44,1.48.15,1.45-.39h0Z"/>
    <path class="cls-2" d="M253.14,174.33c-7.38-2.08-19.2-5.43-19.2-5.43,0,0-2.87,19.21,14.23,24.03,17.11,4.82,22.61-14.27,22.61-14.27,0,0-10.26-2.25-17.64-4.33Z"/>
    <path class="cls-3" d="M253.21,174.35c-3.51-.99-17.61-4.62-17.61-4.62,0,0,2.24,13.26,14.93,16.83,13.76,3.87,17.68-7.4,17.68-7.4l-15-4.81Z"/>
    <path class="cls-7" d="M253.18,175.04c-3.51-.99-14.15-3.64-14.15-3.64,0,0,2.68,4.74,13.2,7.7,10.52,2.96,14.99.38,14.99.38l-14.05-4.44Z"/>
    <path class="cls-2" d="M271.41,178.05q-.35-.22-2.05-.9c-2.85-1.14-3.74-2.67-5.82-3.47-3.54-1.36-6.34-.27-7.92-.71-1.58-.44-3.4-2.84-7.13-3.53-2.19-.4-7.89.14-10.91-.38-1.82-.31-3.15-.49-3.56-.48-.57,0-1.2,2.67,18.67,8.26,19.87,5.59,19.21,1.51,18.73,1.21Z"/>
    <path class="cls-18" d="M375.49,440.25c-5.39-3.95-10.77-7.89-16.16-11.84-.64-.47-1.24-.97-1.88-1.44-1.46-1.09-3.04-1.52-4.82-1.42-4.06.22-8.11.74-12.14,1.21-3.38.39-6.76.79-10.13,1.21-.69.09-1.21.9-.21.77,6.88-.86,13.77-1.75,20.67-2.31,1.6-.13,2.92-.26,4.41.55.84.45,1.57,1.13,2.34,1.69l8.87,6.5c2.56,1.88,5.12,3.75,7.69,5.63.4.29,1.73-.28,1.35-.56h0Z"/>
    <path class="cls-18" d="M298.79,453.01c2.05.37,4.58-.12,5.95-1.77,2.51-3.01.55-6.89-2.43-8.54-3.14-1.74-6.8-2.14-10.31-2.48-2.66-.26-5.31-.66-7.95-1.08-4.16-.66-8.62-1.26-12.5-2.99-.57-.25-1.68.56-.85.93,2.92,1.3,6.19,1.88,9.31,2.45s6.37,1.06,9.58,1.46c2.31.29,4.64.41,6.91.9,3.14.67,7.75,2.17,7.87,6.06.09,3.05-2.27,4.57-5.07,4.07-.68-.12-1.48.82-.52,1h0Z"/>
  </g>
</svg>